<svg width="1440" height="130" viewBox="0 0 1440 130" xmlns="http://www.w3.org/2000/svg" xmlns:xlink="http://www.w3.org/1999/xlink"><title>Learn More</title><defs><path id="a" d="M196.49 8.344h18.993v19.46H196.49z"/></defs><g fill="none" fill-rule="evenodd"><path d="M-6 92.727c174.497 24.366 308.995 32.851 403.496 25.455C600.336 102.306 830.99 24 1007.77 24c184.68 0 331.756 22.91 441.229 68.727V660H-6V92.727z" fill="#00132E"/><path fill="#FF6464" d="M594.445 496.09l-3.09-5.326h6.18l3.09 5.325h-.001z"/><path fill="#FF6464" d="M594.444 496.09l-3.09 5.325-3.089-5.326 3.09-5.325 3.09 5.325z"/><path fill="#FFAA64" d="M591.355 501.415l3.09-5.326h6.178l-3.088 5.326z"/><path fill="#FF6464" d="M603.746 501.392l3.09-5.325 3.09 5.325-3.09 5.326z"/><path fill="#FF6464" d="M603.746 501.392h-6.179l3.09-5.325h6.18l-3.09 5.325z"/><path fill="#FFAA64" d="M597.567 501.392h6.18l3.089 5.326h-6.18z"/><path fill="#FF6464" d="M603.783 512.06h6.18l-3.09 5.327h-6.18z"/><path fill="#FF6464" d="M603.783 512.06l-3.09-5.325h6.18l3.09 5.326h-6.18z"/><path fill="#FFAA64" d="M600.693 506.735l3.09 5.326-3.09 5.325-3.09-5.325z"/><path fill="#FF6464" d="M588.338 517.427l3.09 5.325h6.179l-3.09-5.325h-6.178v-.001zM594.518 517.427l3.089 5.325 3.09-5.325-3.09-5.326z"/><path fill="#FFAA64" d="M597.607 512.1l-3.09 5.326h-6.178l3.088-5.325z"/><path fill="#FF6464" d="M582.126 506.797l-3.09 5.327 3.09 5.326 3.09-5.326-3.09-5.326z"/><path fill="#FF6464" d="M585.216 512.124h6.179l-3.09 5.325h-6.179l3.09-5.325z"/><path fill="#FFAA64" d="M591.395 512.124h-6.18l-3.089-5.326h6.18z"/><path fill="#FF6464" d="M582.09 496.129l-3.09 5.326h6.18l3.089-5.326z"/><path fill="#FF6464" d="M579 501.455l3.09 5.326h6.178l-3.089-5.326z"/><path fill="#FFAA64" d="M588.27 506.78l-3.09-5.325 3.089-5.325 3.09 5.325z"/><path fill="#FFE38D" d="M597.648 501.415h-6.27l-3.134 5.404 3.134 5.404h6.27l3.135-5.404z"/><g transform="translate(623.232 489)"><path d="M27.11 15.771v10.817c0 .425-.346.77-.773.77h-.915a.772.772 0 0 1-.774-.77V15.77c0-3.305-1.903-5.05-4.553-5.05-2.873 0-5.186 1.745-5.186 6.35v9.517c0 .425-.347.77-.774.77h-.915a.772.772 0 0 1-.774-.77V15.77c0-3.305-1.717-5.05-4.366-5.05-2.687 0-5.373 1.745-5.373 6.35v9.517c0 .425-.347.77-.774.77h-.916a.772.772 0 0 1-.773-.77V10.52c0-.956.779-1.731 1.74-1.731.399 0 .723.321.723.719v1.171c0 .25.315.355.47.159 1.405-1.78 3.232-2.495 5.239-2.495 2.446 0 4.368 1.074 5.46 2.98.101.176.341.185.456.018 1.395-2.04 3.548-2.998 5.801-2.998 4.105 0 6.978 2.785 6.978 7.427M33.12 8.79c.68 0 1.23.548 1.23 1.225v16.117c0 .677-.55 1.226-1.23 1.226-.681 0-1.232-.549-1.232-1.226V10.015c0-.677.551-1.225 1.231-1.225m-1.79-5.72c0-.965.783-1.782 1.79-1.782 1.008 0 1.791.817 1.791 1.782 0 .966-.783 1.783-1.79 1.783a1.787 1.787 0 0 1-1.791-1.783M38.456 18.073c0-5.496 4.18-9.73 9.813-9.73 3.214 0 6.003 1.461 7.56 3.772a1.163 1.163 0 0 1-.385 1.664c-.52.297-1.193.168-1.536-.321-1.096-1.56-2.959-2.586-5.14-2.722-4.28-.267-7.97 3.302-7.846 7.568.117 4.012 3.283 7.123 7.347 7.123 2.432 0 4.451-1.092 5.73-2.76.363-.474 1.007-.63 1.525-.33l.079.045c.596.345.754 1.127.349 1.682-1.685 2.305-4.5 3.74-7.683 3.74-5.634 0-9.813-4.234-9.813-9.73M68.532 9.743v.03c0 .584-.431 1.084-1.014 1.159-2.597.332-4.882 2.022-4.882 6.102v9.098c0 .677-.551 1.226-1.231 1.226s-1.231-.549-1.231-1.226V9.55c0-.42.342-.76.764-.76h.934c.422 0 .764.34.764.76 0 .668.803 1.008 1.289.547.93-.884 2.057-1.337 3.275-1.514a1.171 1.171 0 0 1 1.332 1.16M86.816 18.216c.075-4.192-3.164-7.5-7.357-7.495-3.959.003-7.273 3.271-7.343 7.21-.075 4.192 3.164 7.5 7.357 7.496 3.958-.004 7.272-3.272 7.343-7.21m-17.164-.143c0-5.497 4.366-9.73 9.814-9.73s9.814 4.233 9.814 9.73c0 5.496-4.366 9.73-9.814 9.73s-9.814-4.234-9.814-9.73M92.266 18.073c0-5.496 4.179-9.73 9.813-9.73 3.207 0 5.991 1.455 7.549 3.758.385.569.208 1.345-.39 1.686-.51.292-1.174.167-1.51-.314-1.094-1.569-2.962-2.6-5.15-2.737-4.28-.267-7.97 3.302-7.846 7.568.117 4.012 3.283 7.123 7.347 7.123 2.431 0 4.45-1.092 5.73-2.76.363-.474 1.007-.63 1.525-.33l.079.045c.595.345.754 1.127.348 1.682-1.685 2.305-4.5 3.74-7.682 3.74-5.634 0-9.813-4.234-9.813-9.73M115.215.248c.68 0 1.231.548 1.231 1.225v24.66c0 .676-.551 1.225-1.231 1.225s-1.232-.549-1.232-1.226V1.473c0-.677.551-1.225 1.232-1.225M122.902 8.79c.68 0 1.231.548 1.231 1.225v16.117c0 .677-.55 1.226-1.231 1.226-.68 0-1.232-.549-1.232-1.226V10.015c0-.677.551-1.225 1.232-1.225m-1.791-5.72c0-.965.784-1.782 1.79-1.782 1.008 0 1.792.817 1.792 1.782 0 .966-.784 1.783-1.791 1.783a1.787 1.787 0 0 1-1.791-1.783M156.224 15.771v10.361c0 .677-.551 1.226-1.231 1.226s-1.232-.549-1.232-1.226v-10.36c0-3.306-1.902-5.052-4.552-5.052-2.873 0-5.187 1.746-5.187 6.35v9.062c0 .677-.551 1.226-1.231 1.226s-1.231-.549-1.231-1.226v-10.36c0-3.306-1.717-5.052-4.366-5.052-2.687 0-5.374 1.746-5.374 6.35v9.062c0 .677-.551 1.226-1.231 1.226s-1.232-.549-1.232-1.226V9.465c0-.373.304-.675.679-.675h.96c.455 0 .824.367.824.82 0 .593.714.898 1.143.487 1.295-1.24 2.866-1.753 4.566-1.753 2.24 0 4.04.9 5.166 2.514a.667.667 0 0 0 1.078.042c1.392-1.737 3.39-2.556 5.474-2.556 4.104 0 6.977 2.785 6.977 7.427M177.046 18.216c.075-4.193-3.165-7.5-7.357-7.496-3.959.004-7.272 3.273-7.343 7.211-.074 4.193 3.165 7.5 7.357 7.496 3.959-.004 7.273-3.272 7.343-7.211m2.464-8.201v16.118c0 .676-.551 1.225-1.231 1.225s-1.232-.549-1.232-1.225v-2.415c-1.567 2.489-4.216 4.086-7.537 4.086-5.262 0-9.628-4.234-9.628-9.73 0-5.497 4.366-9.73 9.628-9.73 3.32 0 5.97 1.597 7.537 4.085v-2.414c0-.677.552-1.225 1.232-1.225.68 0 1.231.548 1.231 1.225M190.371 11.166c-.62 0-1.121.5-1.121 1.116V22.42c0 2.83 1.377 2.948 4.211 2.835a1.118 1.118 0 0 1 1.162 1.115c0 .576-.444 1.059-1.02 1.115-4.394.43-6.816-.92-6.816-5.065V12.282c0-.616-.502-1.116-1.122-1.116h-1.602c-.66 0-1.194-.532-1.194-1.188 0-.656.535-1.189 1.194-1.189h1.602c.62 0 1.122-.5 1.122-1.116V5.161c0-.492.323-.926.796-1.069l.22-.066a1.12 1.12 0 0 1 1.447 1.068v2.58c0 .616.502 1.115 1.121 1.115h3.13c.62 0 1.122.5 1.122 1.117v.144c0 .617-.502 1.116-1.122 1.116h-3.13z" fill="#FFF"/><mask id="b" fill="#fff"><use xlink:href="#a"/></mask><path d="M200.402 16.922h11.19a1.1 1.1 0 0 0 1.054-1.416c-.96-3.157-3.602-4.786-6.417-4.786-3.386 0-5.936 1.914-6.88 4.783-.23.7.312 1.42 1.053 1.42m15.081 1.225v.011c0 .63-.514 1.14-1.147 1.14h-15.309c.523 3.788 3.47 6.128 7.426 6.128 2.467 0 4.306-.963 5.432-2.321a1.222 1.222 0 0 1 1.556-.264c.665.388.82 1.287.312 1.863-1.66 1.877-4.185 3.099-7.337 3.099-5.896 0-9.926-4.123-9.926-9.73 0-5.46 3.955-9.73 9.739-9.73 5.71 0 9.254 4.716 9.254 9.804" fill="#FFF" mask="url(#b)"/></g><g fill="#FFF" fill-rule="nonzero"><path d="M452.634 306.421c-3.577-6.282-8.428-11.256-14.557-14.922C431.948 287.833 425.257 286 418 286c-7.257 0-13.95 1.833-20.078 5.5-6.129 3.665-10.98 8.64-14.557 14.921-3.577 6.282-5.365 13.143-5.365 20.58 0 8.935 2.543 16.97 7.63 24.105 5.087 7.137 11.658 12.075 19.713 14.815.938.179 1.632.053 2.083-.373.452-.427.677-.961.677-1.6l-.026-2.884c-.018-1.815-.026-3.4-.026-4.75l-1.198.212c-.764.143-1.728.204-2.891.187a21.503 21.503 0 0 1-3.62-.374c-1.25-.23-2.413-.764-3.49-1.6-1.075-.837-1.84-1.932-2.29-3.283l-.521-1.229c-.348-.818-.894-1.726-1.64-2.722-.747-.997-1.502-1.673-2.266-2.029l-.365-.268a3.861 3.861 0 0 1-.677-.64 2.94 2.94 0 0 1-.468-.748c-.105-.25-.018-.455.26-.615.278-.16.781-.239 1.51-.239l1.042.16c.694.142 1.553.569 2.578 1.28 1.024.713 1.866 1.638 2.526 2.776.799 1.46 1.761 2.572 2.89 3.338 1.128.765 2.266 1.147 3.411 1.147 1.146 0 2.136-.09 2.97-.266a10.184 10.184 0 0 0 2.343-.801c.312-2.386 1.163-4.219 2.551-5.5-1.978-.213-3.758-.534-5.338-.961-1.58-.428-3.211-1.121-4.895-2.083-1.685-.96-3.082-2.154-4.193-3.577-1.111-1.424-2.023-3.293-2.734-5.606-.712-2.314-1.068-4.983-1.068-8.008 0-4.307 1.372-7.973 4.115-10.998-1.285-3.239-1.163-6.87.365-10.891 1.007-.32 2.5-.08 4.479.72 1.979.801 3.428 1.487 4.349 2.056.92.569 1.658 1.05 2.213 1.442a36.136 36.136 0 0 1 10-1.388c3.437 0 6.771.463 10.001 1.388l1.98-1.281c1.353-.855 2.95-1.638 4.79-2.35 1.84-.711 3.247-.907 4.22-.586 1.562 4.022 1.701 7.652.416 10.89 2.743 3.026 4.115 6.692 4.115 10.999 0 3.025-.357 5.702-1.068 8.034-.711 2.332-1.63 4.2-2.759 5.606-1.13 1.406-2.536 2.59-4.22 3.55-1.683.961-3.316 1.655-4.896 2.083-1.58.427-3.359.748-5.338.962 1.805 1.601 2.708 4.128 2.708 7.58v11.265c0 .64.217 1.174.651 1.6.434.427 1.12.552 2.057.374 8.057-2.74 14.628-7.679 19.714-14.815 5.086-7.136 7.63-15.17 7.63-24.105-.002-7.437-1.791-14.297-5.366-20.579z"/></g><g fill="#475993" fill-rule="nonzero"><path d="M599.22 286h-58.44c-5.953 0-10.78 4.826-10.78 10.78v58.44c0 5.953 4.826 10.78 10.78 10.78h28.822l.05-28.588h-7.428c-.965 0-1.748-.78-1.752-1.746l-.036-9.215a1.752 1.752 0 0 1 1.753-1.759h7.413v-8.904c0-10.333 6.311-15.959 15.529-15.959h7.564c.968 0 1.752.785 1.752 1.752v7.77c0 .968-.784 1.752-1.751 1.753l-4.642.002c-5.013 0-5.984 2.382-5.984 5.878v7.709h11.015c1.05 0 1.864.916 1.74 1.958l-1.092 9.215a1.753 1.753 0 0 1-1.74 1.546h-9.873L582.07 366h17.15c5.954 0 10.78-4.826 10.78-10.78v-58.44c0-5.954-4.827-10.78-10.78-10.78z"/></g><g fill-rule="nonzero"><g fill="#FFC107"><path d="M690.546 349.286h31.523v6.732h-31.523zM743.366 317.216l-6.633 1.151-5.391-31.06 6.633-1.152zM691.445 337.08l31.388 2.894-.618 6.702-31.39-2.89zM724.9 331.188l-1.748 6.5-30.441-8.182 1.747-6.502zM701.725 307.472l27.152 16.014-3.419 5.799-27.157-16.014zM717.773 292.726l17.76 26.044-5.559 3.793-17.765-26.044z"/></g><path fill="#B0BEC5" d="M731.976 365.998h-49.903v-29.942h4.99v24.952h39.922v-24.952h4.99z"/></g><g fill-rule="nonzero"><path d="M867.88 290.926a7.129 7.129 0 0 0-8.98-4.575 7.125 7.125 0 0 0-4.575 8.98l18.425 56.695a7.131 7.131 0 0 0 8.67 4.42c3.78-1.09 6.09-5.105 4.88-8.82-.045-.145-18.42-56.7-18.42-56.7z" fill="#FFC107"/><path d="M839.33 300.206c-1.22-3.745-5.24-5.795-8.98-4.575-3.74 1.22-5.795 5.235-4.575 8.98l18.425 56.69a7.131 7.131 0 0 0 8.67 4.42c3.78-1.09 6.09-5.105 4.88-8.82l-18.42-56.695z" fill="#4CAF50"/><path d="M891.075 337.881a7.125 7.125 0 0 0 4.575-8.98 7.125 7.125 0 0 0-8.98-4.575l-56.695 18.43a7.131 7.131 0 0 0-4.42 8.67c1.09 3.78 5.105 6.09 8.82 4.88.145-.05 56.7-18.425 56.7-18.425z" fill="#EC407A"/><path d="M841.79 353.896l13.55-4.405-4.405-13.55-13.55 4.405 4.405 13.55z" fill="#472A49"/><path d="M870.345 344.616c5.125-1.665 9.885-3.21 13.55-4.405l-4.405-13.555-13.55 4.405 4.405 13.555z" fill="#CC2027"/><path d="M881.795 309.331a7.125 7.125 0 0 0 4.575-8.98 7.125 7.125 0 0 0-8.98-4.575l-56.69 18.425a7.122 7.122 0 0 0-4.42 8.67c1.09 3.78 5.105 6.085 8.82 4.88l56.695-18.42z" fill="#2196F3"/><path d="M832.51 325.341l13.555-4.405c-1.665-5.12-3.21-9.88-4.405-13.55l-13.55 4.405 4.4 13.55z" fill="#1A937D"/><path d="M861.065 316.066c5.125-1.665 9.885-3.21 13.555-4.405-1.665-5.125-3.215-9.885-4.405-13.555l-13.555 4.405 4.405 13.555z" fill="#65863A"/></g><g fill="#76A9EA" fill-rule="nonzero"><path d="M1062.417 284.399a37.991 37.991 0 0 1-6.615 2.23 20.626 20.626 0 0 0 5.444-8.67c.303-.948-.726-1.767-1.582-1.26a38.173 38.173 0 0 1-10.113 4.179 2.578 2.578 0 0 1-.632.078 2.68 2.68 0 0 1-1.771-.676 20.684 20.684 0 0 0-13.686-5.165c-2.184 0-4.389.34-6.553 1.012-6.707 2.08-11.882 7.612-13.506 14.438-.609 2.56-.774 5.123-.49 7.616a.74.74 0 0 1-.187.58.767.767 0 0 1-.644.256c-14.68-1.364-27.92-8.437-37.278-19.916a1.082 1.082 0 0 0-1.772.139 20.667 20.667 0 0 0-2.801 10.398 20.661 20.661 0 0 0 6.166 14.745 18.536 18.536 0 0 1-4.718-1.827 1.081 1.081 0 0 0-1.606.932 20.71 20.71 0 0 0 12.08 19.08 18.519 18.519 0 0 1-3.926-.326 1.082 1.082 0 0 0-1.233 1.392c2.371 7.404 8.746 12.861 16.375 14.1-6.332 4.25-13.704 6.492-21.378 6.492l-2.392-.001c-.737 0-1.36.48-1.549 1.194-.185.703.156 1.445.785 1.81a56.772 56.772 0 0 0 28.527 7.692c8.769 0 16.97-1.74 24.379-5.171 6.791-3.146 12.793-7.643 17.837-13.367 4.7-5.331 8.375-11.486 10.922-18.292 2.43-6.488 3.713-13.411 3.713-20.021v-.315c0-1.061.48-2.06 1.317-2.74a40.883 40.883 0 0 0 8.225-9.027c.601-.9-.348-2.028-1.338-1.59z"/></g><text font-family="IBMPlexSans-LightItalic, IBM Plex Sans" font-size="18" font-style="italic" font-weight="300" fill="#FDFFFC" transform="translate(378 275)"><tspan x="116.012" y="289">Fast, incremental, intelligent, end-to-end development. </tspan></text></g></svg>