<svg width="460" height="341" viewBox="0 0 460 341" xmlns="http://www.w3.org/2000/svg"><title>Group 3</title><defs><linearGradient x1="50%" y1="0%" y2="50%" id="a"><stop stop-color="#8BE1D5" offset="0%"/><stop stop-color="#55AFFF" offset="100%"/></linearGradient></defs><g transform="translate(-832 -388)" fill="url(#a)" fill-rule="evenodd"><path opacity=".548" d="M1292 678h-59v10h59z"/><path d="M907 719h-72v10h72zM991 719h-43v10h43zM950 699h-90v10h90zM963 699h-8v10h8zM942 719h-28v10h28zM930 425h-68v10h68zM1002 425h-68v10h68zM1024 425h-13v10h13zM888 408h-56v10h56zM878 388h-43v10h43zM952 388h-43v10h43zM903 388h-20v10h20zM1018 388h-59v10h59zM1083 388h-43v10h43z"/><path opacity=".548" d="M1159 388h-43v10h43zM1108 388h-20v10h20z"/><path d="M884 678h-52v10h52zM948 678h-56v10h56zM967 678h-12v10h12zM1060 678h-65v10h65zM888 660h-56v10h56zM878 643h-43v10h43zM952 643h-43v10h43zM903 643h-20v10h20zM1018 643h-59v10h59zM1048 487H912v10h136zM870 464h-36v10h36zM907 487h-72v10h72zM888 464h-13v10h13z"/><path stroke="#979797" d="M982.5 464.5h-89v9h89z"/><path d="M878 543h-21v10h21zM1015 543H885v10h130zM1032 543h-13v10h13zM1064 543h-13v10h13z"/><path opacity=".548" d="M1265 543h-95v10h95z"/><path d="M907 522h-72v10h72zM943 522h-31v10h31zM958 522h-8v10h8zM992 522h-31v10h31zM934 601h-72v10h72zM1015 601h-72v10h72zM1079 601h-59v10h59z"/><path opacity=".548" d="M1253 464h-65v10h65z"/><path d="M996 584h-9v10h9zM870 584h-36v10h36zM888 584h-13v10h13zM983 584h-90v10h90z"/><path opacity=".548" d="M1152 719h-41v10h41zM1201 719h-43v10h43zM1195 422h-43v10h43z"/></g></svg>