<svg id="Layer_1" xmlns="http://www.w3.org/2000/svg" xmlns:xlink="http://www.w3.org/1999/xlink" viewBox="0 0 1084 525" enable-background="new 0 0 1084 525"><style>.st0{fill:#16112d}.st1{fill:none;stroke:#16112d;stroke-width:2;stroke-miterlimit:10}.st2{fill-rule:evenodd;clip-rule:evenodd;fill:url(#SVGID_1_)}.st3{fill:#1b1145}.st4{fill:#0e1e39}.st5{fill:#f16465}.st6{fill:#6bc8c6}.st7{fill:#fde38d}.st8{fill:#faa966}.st9{fill:none;stroke:#f16465;stroke-width:.6574;stroke-miterlimit:10}.st10{clip-path:url(#SVGID_3_)}.st11{clip-path:url(#SVGID_5_);fill:#f16465}.st12{clip-path:url(#SVGID_7_)}.st13{clip-path:url(#SVGID_9_);fill:#f7a2a4}.st14{clip-path:url(#SVGID_11_)}.st15{clip-path:url(#SVGID_13_);fill:#08172e}.st16{clip-path:url(#SVGID_15_)}.st17{clip-path:url(#SVGID_17_);enable-background:new}.st18{clip-path:url(#SVGID_19_)}.st19{clip-path:url(#SVGID_21_)}.st20{clip-path:url(#SVGID_23_);fill:#3c3292}.st21{fill:#100f19}.st22{fill:#f04f45}.st23{fill:#9ed5e6}.st24{fill:#3961ad}.st25{fill:#1ac2e9}.st26{fill:#326eb6}.st27{fill:#1a1a1a}.st28{filter:url(#Adobe_OpacityMaskFilter)}.st29{fill-rule:evenodd;clip-rule:evenodd;fill:url(#SVGID_25_)}.st30{mask:url(#SVGID_24_)}.st30,.st31{fill-rule:evenodd;clip-rule:evenodd;fill:#fff}.st32{fill:none;stroke:#16112d;stroke-width:2;stroke-linecap:round;stroke-miterlimit:10}</style><path class="st0" d="M517.6 116.7h11.8v157.1h-11.8zM610.3 116.7h11.8v157.1h-11.8z"/><path class="st0" d="M517.6 116.7v11.9h102.6v-11.9h-90.7z"/><path class="st0" d="M572 159.6c-3.3 0-5.9-2.6-5.9-5.9V8.4c0-3.3 2.6-5.9 5.9-5.9 3.3 0 5.9 2.6 5.9 5.9v145.3c0 3.2-2.7 5.9-5.9 5.9zM715.7 2.5h11.8v83h-11.8z"/><path transform="rotate(-90 648.465 8.406)" class="st0" d="M642.5-70.1h11.8V87h-11.8z"/><path class="st0" d="M700.9 70.4h41.4v16.4h-41.4z"/><path class="st1" d="M567.5 68.9l-38.3 50.8M567.5 84.2l-27 35.5M567.7 99.1l-14.6 20.6M572.2 67.5l38.4 50.8M572.2 82.8l27.1 35.5M572 97.7l14.6 20.6"/><path transform="rotate(-90 512.38 255.531)" class="st0" d="M494 87h36.8v337H494z"/><path class="st0" d="M397.3 116.8h11.8v157.1h-11.8zM489.9 116.8h11.8v157.1h-11.8z"/><path class="st0" d="M397.3 116.8v11.9h102.6v-11.9h-90.8z"/><linearGradient id="SVGID_1_" gradientUnits="userSpaceOnUse" x1="2.474" y1="343.345" x2="1082" y2="343.345"><stop offset="0" stop-color="#72ccd6"/><stop offset=".027" stop-color="#70c4d3"/><stop offset=".689" stop-color="#344da1"/></linearGradient><path class="st2" d="M928 241.9c-180.6 18.7-351.4 23.3-512.5 14-241.7-14-445.7 48.8-408.6 85s558.4 129 739.8 97.4 335.3-29 335.3-52.9c0-15.9-51.3-63.8-154-143.5z"/><path class="st3" d="M318 454.4l-27.3-73.3h588.6l-32 73.3z"/><path class="st4" d="M320.7 337.7h520.6l38 43.4H290.7z"/><path class="st4" d="M393.4 379.6h-68.2l29.2-38.5 57.9-.2z"/><path class="st5" d="M397.8 358.6l-49.5.1 3-4.2 48.7-.1z"/><path class="st6" d="M389.5 374.8h-52.9l3-4.2 52.1-.1z"/><path class="st7" d="M386.3 345.8h-28.7l-3.1 4.2h29.2z"/><path class="st6" d="M395.4 345.7l-2.3 4.3 9.2-.1 2.2-4.2z"/><path class="st8" d="M355.7 362.5h-10.2l-3.1 4.2h10.4z"/><path class="st7" d="M364.6 362.5l-2.7 4.2h31.7l2.2-4.2z"/><path class="st4" d="M468.6 379.6h-68.1l17.9-38.7 58-.2zM721.6 380.2h-68.2l5.4-38.9 58-.1z"/><g><path class="st4" d="M853.1 379.6H723.3l-6.6-39.1 110.4-.3z"/></g><g><path class="st8" d="M430.9 348c-.5 1.2-2.3 2.1-4.1 2.1-1.8 0-2.9-.9-2.4-2.1.5-1.2 2.3-2.1 4.1-2.1 1.8 0 2.8 1 2.4 2.1zM442.5 348c-.4 1.2-2.2 2.1-4 2.1-1.8 0-3-.9-2.5-2.1.4-1.2 2.2-2.1 4-2.1 1.7 0 2.9.9 2.5 2.1z"/><path class="st6" d="M454.1 348c-.3 1.2-2.1 2.1-3.9 2.1-1.8 0-3-.9-2.6-2.1.4-1.2 2.1-2.1 3.9-2.1 1.7 0 2.9.9 2.6 2.1z"/><path class="st5" d="M465.7 348c-.3 1.2-2 2.1-3.8 2.1-1.8 0-3-.9-2.7-2.1.3-1.2 2-2.1 3.8-2.1 1.7-.1 2.9.9 2.7 2.1z"/><g><path class="st8" d="M427.7 356.1c-.5 1.2-2.4 2.1-4.3 2.1s-3-.9-2.5-2.1c.5-1.2 2.4-2.1 4.3-2.1 1.8 0 3 1 2.5 2.1z"/><path class="st7" d="M439.7 356.1c-.4 1.2-2.3 2.1-4.1 2.1-1.9 0-3.1-.9-2.6-2.1s2.3-2.1 4.1-2.1c1.8 0 3 1 2.6 2.1z"/><path class="st8" d="M451.7 356.1c-.3 1.2-2.1 2.1-4 2.1s-3.1-.9-2.7-2.1 2.2-2.1 4-2.1c1.8 0 3 .9 2.7 2.1zM463.7 356.1c-.3 1.2-2 2.1-3.9 2.1s-3.2-.9-2.8-2.1c.3-1.2 2.1-2.1 3.9-2.1s3.1.9 2.8 2.1z"/></g><g><path class="st8" d="M424.5 364.3c-.5 1.2-2.4 2.1-4.4 2.1-2 0-3.1-.9-2.6-2.1.5-1.2 2.4-2.1 4.4-2.1 1.9-.1 3.1.9 2.6 2.1z"/><path class="st6" d="M436.9 364.2c-.4 1.2-2.3 2.1-4.3 2.1s-3.2-.9-2.8-2.1c.4-1.2 2.3-2.1 4.3-2.1s3.2 1 2.8 2.1z"/><path class="st8" d="M449.3 364.2c-.3 1.2-2.2 2.1-4.2 2.1s-3.2-.9-2.9-2.1c.4-1.2 2.2-2.1 4.2-2.1s3.3 1 2.9 2.1zM461.7 364.2c-.3 1.2-2.1 2.1-4 2.1-2 0-3.3-.9-3-2.1.3-1.2 2.1-2.1 4-2.1s3.3 1 3 2.1z"/></g><g><path class="st8" d="M421.3 372.4c-.5 1.2-2.5 2.1-4.5 2.1s-3.3-.9-2.8-2.1c.5-1.2 2.5-2.1 4.5-2.1s3.3.9 2.8 2.1zM434.1 372.4c-.4 1.2-2.4 2.1-4.4 2.1s-3.3-.9-2.9-2.1 2.4-2.1 4.4-2.1 3.3.9 2.9 2.1zM447 372.4c-.3 1.2-2.3 2.1-4.3 2.1s-3.3-.9-3-2.1c.4-1.2 2.3-2.1 4.3-2.1 2-.1 3.3.9 3 2.1zM459.8 372.4c-.3 1.2-2.1 2.1-4.2 2.1-2 0-3.4-.9-3.1-2.1s2.2-2.1 4.2-2.1c2-.1 3.4.9 3.1 2.1z"/></g></g><path class="st6" d="M688.4 360.3L683 374c-10.7-1.5-17.8-7.1-17.2-13.6.8-7.7 11-14 22.7-14s21.9 6.3 22.6 14l-22.7-.1z"/><path class="st9" d="M737.5 371.9c.9-3.9 2.1-8.7 6.2-11.7 4.2-3.2 10.4-.2 14.1 2.9 2.7 2.3 3.8 4.7 5.9 7.1.5.5 1.1 1.1 1.9 1.5 4.1 1.8 7.3-.6 8.3-2.3 1-1.9 1-4 1-6.1 0-2.7-3-11.8 3.4-11.5 4.1.2 9.5 6.7 11 8.4 2.2 2.5 7.6 11 12.5 11 2.5 0 3.4-1.1 3.2-2.5-.7-5.3-4.6-10.7-4.8-15.9-.1-2.9 3-5.5 8.6-3 11.9 5.3 23.5 21.9 23.5 21.9"/><g><defs><path id="SVGID_2_" d="M373.6 516.1s6 1.5 7.5 3-16.6 1.5-16.6 1.5 1.5-39.5 3-45.6c1.5-6.1-4.5-34.9-6-36.4s-1.5 3-1.5 3 0 27.3-3 38c-3 10.6-6 25.8-6 27.3v7.6s6 1.5 6 3-15.1 1.5-15.1 1.5 3-56.2 3-57.7 0-15.2-1.5-21.3c-1.5-6.1-1.5-19.7-1.5-19.7v-3h40.7s0 34.9-1.5 45.5c-1.5 10.6-4.5 31.9-4.5 31.9l-3 21.4z"/></defs><clipPath id="SVGID_3_"><use xlink:href="#SVGID_2_" overflow="visible"/></clipPath><g class="st10"><defs><path id="SVGID_4_" d="M-349.8-675.2h874.6v3006.9h-874.6z"/></defs><clipPath id="SVGID_5_"><use xlink:href="#SVGID_4_" overflow="visible"/></clipPath><path class="st11" d="M338.9 414.4h46.8v109.3h-46.8z"/></g><defs><path id="SVGID_6_" d="M434 356.1c0-.8 1.3-1.7 1.5 0 .2 1.5-1.5 1.5 0 3s1.5 6 0 6-15.2 9.1-15.2 9.1-15.2 10.6-18.3 9.1c-3-1.5-18.3-12.1-21.3-12.1s-24.4-9.1-24.4-13.6v-13.2c0-.3 0-.5.1-.7.3-1.1 1.2-4.7-.1-7.2-1.5-3-2.3-12.8 3.8-14.4 6.1-1.5 10.7 0 12.2 3s1.5 7.6 1.5 10.6c0 1.9-.6 4.9-1 6.9-.3 1.2-1.4 2.1-2.7 2.1h-.1c-1.7 0-3.1 1.6-2.6 3.3.1.4.3.8.5 1.2 1.5 3 27.4 18.1 30.4 19.6 1.6.8 2.8 1.6 3.5 2.1.7.5 1.6.7 2.5.4l22.3-6.9c.4-.1.8-.4 1.1-.7 1.6-1.5 6.3-6.9 6.3-7.6"/></defs><clipPath id="SVGID_7_"><use xlink:href="#SVGID_6_" overflow="visible"/></clipPath><g class="st12"><defs><path id="SVGID_8_" d="M-349.8-675.2h874.6v3006.9h-874.6z"/></defs><clipPath id="SVGID_9_"><use xlink:href="#SVGID_8_" overflow="visible"/></clipPath><path class="st13" d="M352.3 318.4h87.5v68h-87.5z"/></g><g><defs><path id="SVGID_10_" d="M399 367.5c.1.5-.3 1.2-.5 1.6-.4 1.3-.9 2.7-1.3 4-.3.8-3.1 7.7-2.7 8.1-2.3-2.1-5-3.8-7.9-5-.7-.3-1.5-.5-2.2-.2-.9.4-1 1.6-1.1 2.5-.8 12.6-1.1 25.3-.9 37.9 0 .9 0 1.8-.4 2.6-.3.6-.8 1.1-1.4 1.6-5.3 4.5-12 7.5-19 7.8-7 .3-14.1-2.1-19.2-6.8-.5-.4-1-.9-1.2-1.5-.3-.6-.4-1.3-.4-2-.8-10.7 2.9-21.3 2.6-32-.3-9.5-3.7-18.9-2-28.3.3-1.4.7-2.9 1.6-3.9.8-.8 1.8-1.3 2.8-1.7 3.4-1.4 7-2.4 10.7-2.8-.5.1.7 2.1.9 2.2.7.6 2 .8 2.9.9 2.5.4 5.9.1 7.6-2 .4-.5.7-1 1.2-1.3.5-.3 1-.3 1.5-.3 5.8.1 11.3 2.9 15.8 6.5 4 3.2 7.5 7.1 11.1 10.8.5.2 1.4.8 1.5 1.3 0-.1 0-.1 0 0"/></defs><clipPath id="SVGID_11_"><use xlink:href="#SVGID_10_" overflow="visible"/></clipPath><g class="st14"><defs><path id="SVGID_12_" d="M-349.8-675.2h874.6v3006.9h-874.6z"/></defs><clipPath id="SVGID_13_"><use xlink:href="#SVGID_12_" overflow="visible"/></clipPath><path class="st15" d="M337.7 345.8h64.4v85.6h-64.4z"/></g></g><g><defs><path id="SVGID_14_" d="M349.5 314.8h24.2v30.7h-24.2z"/></defs><clipPath id="SVGID_15_"><use xlink:href="#SVGID_14_" overflow="visible"/></clipPath><g class="st16"><defs><path id="SVGID_16_" d="M-349.8-675.2h874.6v3006.9h-874.6z"/></defs><clipPath id="SVGID_17_"><use xlink:href="#SVGID_16_" overflow="visible"/></clipPath><g class="st17"><defs><path id="SVGID_18_" d="M348 312.4h27.3v36.4H348z"/></defs><clipPath id="SVGID_19_"><use xlink:href="#SVGID_18_" overflow="visible"/></clipPath><g class="st18"><defs><path id="SVGID_20_" d="M371.7 338.2s-3.3 0-3.3-3.4 1.7-5 3.3-3.4c1.7 1.7 1.7 0 1.7 0s-3.3-5-1.7-6.7c1.7-1.7 3.3-3.4 0-6.7-3.3-3.4-8.3-5-15 0-6.7 5-8.3 8.4-6.7 13.5 1.7 5.1 6.7 11.8 6.7 11.8s5 5 10 0l5-5.1z"/></defs><clipPath id="SVGID_21_"><use xlink:href="#SVGID_20_" overflow="visible"/></clipPath><g class="st19"><defs><path id="SVGID_22_" d="M349.2 314.8h24.9v31h-24.9z"/></defs><clipPath id="SVGID_23_"><use xlink:href="#SVGID_22_" overflow="visible"/></clipPath><path class="st20" d="M346.4 311.8h30.3v36.7h-30.3z"/></g></g></g></g></g></g><g><path class="st3" d="M573.5 176.8h442.1v129l-336.2-4.1c.1 0-6.4-32.2-105.9-124.9z"/><path class="st21" d="M573.5 177h442.1v4.4l-438.2-.8-3.9-3.6z"/><path class="st22" d="M1015.6 292H675.3l-1.7-3h342z"/><path class="st23" d="M907.3 144.1h108.4v32.7H907.3z"/><path class="st24" d="M798.9 144.1h108.4v32.7H798.9z"/><path class="st23" d="M690.5 144.1h108.4v32.7H690.5z"/><path class="st25" d="M798.9 45.8h108.4v32.7H798.9z"/><path class="st26" d="M690.5 111.5h108.4v32.7H690.5z"/><path class="st23" d="M798.9 111.4h108.4v32.7H798.9z"/><path class="st25" d="M907.3 111.4h108.4v32.7H907.3z"/><path class="st24" d="M798.9 78.7h108.4v32.7H798.9z"/><path class="st26" d="M907.3 81h108.4v32.7H907.3z"/></g><g><path class="st4" d="M665 380.6l-80-42.9-80 42.9 80 42.9z"/><path class="st27" d="M525 380.6l60-32.1 60 32.1-60 32.2z"/><path class="st4" d="M665 380.6v75l-80 42.9v-75z"/><path class="st3" d="M505 380.6v75l80 42.9v-75z"/></g><defs><filter id="Adobe_OpacityMaskFilter" filterUnits="userSpaceOnUse" x="456.2" y="199.3" width="257.1" height="214"><feColorMatrix values="1 0 0 0 0 0 1 0 0 0 0 0 1 0 0 0 0 0 1 0"/></filter></defs><mask maskUnits="userSpaceOnUse" x="456.2" y="199.3" width="257.1" height="214" id="SVGID_24_"><g class="st28"><linearGradient id="SVGID_25_" gradientUnits="userSpaceOnUse" x1="585.748" y1="199.5" x2="585.748" y2="412.758"><stop offset=".26" stop-color="#010101"/><stop offset="1" stop-color="#fff" stop-opacity=".2"/></linearGradient><path class="st29" d="M431 199.5h309.5v213.3H431z"/></g></mask><path class="st30" d="M525.5 381.2l60 32.2 60-32.2 67.7-181.9h-257z"/><g><path class="st5" d="M584.3 335.8l-4.8-8.4h9.6l4.8 8.4z"/><path class="st5" d="M584.3 335.8l-4.8 8.3-4.8-8.3 4.8-8.4 4.8 8.4z"/><path class="st8" d="M579.5 344.1l4.8-8.3h9.6l-4.8 8.3z"/><path class="st5" d="M598.7 344.1l4.9-8.4 4.8 8.4-4.8 8.3z"/><path class="st5" d="M598.7 344.1h-9.6l4.8-8.4h9.7l-4.9 8.4z"/><path class="st8" d="M589.1 344.1h9.6l4.9 8.3h-9.7z"/><path class="st5" d="M598.8 360.7h9.6l-4.8 8.4H594zM598.8 360.7l-4.8-8.3h9.6l4.8 8.3h-9.6z"/><path class="st8" d="M594 352.4l4.8 8.3-4.8 8.4-4.8-8.4z"/><g><path class="st5" d="M584.4 369.1l4.8 8.3h-9.6l-4.8-8.3z"/><path class="st5" d="M584.4 369.1l4.8-8.3 4.8 8.3-4.8 8.3-4.8-8.3z"/><path class="st8" d="M589.2 360.8l-4.8 8.3h-9.6l4.8-8.3z"/></g><g><path class="st5" d="M569.9 360.8l-4.8 8.4-4.8-8.4 4.8-8.3z"/><path class="st5" d="M569.9 360.8h9.6l-4.8 8.4h-9.6l4.8-8.4z"/><path class="st8" d="M579.5 360.8h-9.6l-4.8-8.3h9.6z"/></g><g><path class="st5" d="M569.9 344.2h-9.6l4.8-8.4h9.6zM569.9 344.2l4.8 8.3h-9.6l-4.8-8.3h9.6z"/><path class="st8" d="M574.7 352.5l-4.8-8.3 4.8-8.4 4.8 8.4z"/></g><path class="st7" d="M589.3 344.1h-9.8l-4.9 8.4 4.9 8.5h9.8l4.8-8.5z"/></g><g><path class="st0" d="M443.9 14.5h11.8v157.1h-11.8z"/><path class="st0" d="M429.5 159.1h41.4v16.4h-41.4z"/><path class="st1" d="M447.2 69l-38.4 50.8M447.2 84.3l-27.1 35.5M447.4 99.2l-14.6 20.6"/><g><path class="st1" d="M451.9 67.6l38.3 50.8M451.9 82.9l27 35.5M451.6 97.8l14.7 20.6"/></g></g><g><path class="st32" d="M447.5 173.5l-12.1 9 6 14.5M452.8 173.5l12.1 9-6 14.5"/></g><g><path class="st32" d="M718.9 86.1l-12.1 9 6.1 14.5M724.2 86.1l12.1 9-6 14.5"/></g></svg>