<svg id="Layer_1" xmlns="http://www.w3.org/2000/svg" xmlns:xlink="http://www.w3.org/1999/xlink" viewBox="0 0 378.9 388.3"><style>.st0{clip-path:url(#SVGID_2_)}.st1{fill:url(#SVGID_3_)}.st2{fill:#f2f2f2}.st3{fill:#110a2d}.st4{fill:none;stroke:#1d2761;stroke-width:1.0656;stroke-miterlimit:10}.st5{fill:#010f27}.st6{fill:#9dd6e7}.st7{opacity:.99}.st8{fill:url(#SVGID_4_)}.st9{fill:url(#SVGID_5_)}.st10{fill:url(#SVGID_6_)}.st11{opacity:.68}.st12{fill:url(#SVGID_7_)}.st13{fill:url(#SVGID_8_)}.st14{fill:url(#SVGID_9_)}.st15{fill:url(#SVGID_10_)}.st16{fill:url(#SVGID_11_)}.st17{fill:url(#SVGID_12_)}.st18{fill:url(#SVGID_13_)}.st19{fill:url(#SVGID_14_)}.st20{fill:url(#SVGID_15_)}.st21{fill:url(#SVGID_16_)}.st22{fill:url(#SVGID_17_)}.st23{opacity:.51}.st24{fill:#fff;stroke:#002e61;stroke-width:4.132;stroke-miterlimit:10}.st25{fill:#ffa3a3}.st26{fill:#00132e}.st27{fill:#f54c43}.st28{fill:url(#SVGID_18_)}.st29{fill:url(#SVGID_19_)}.st30{fill:#e6e6e6}.st31{fill:#4275b6}.st32{fill:#3360b4}.st33{fill:#006ed5}.st34{fill:#4da4d2}.st35{fill:#00c4eb}.st36{fill:#1b0d44}.st37{fill:#080516}.st38{fill:none;stroke:#fff;stroke-width:.3078;stroke-miterlimit:10}.st39{fill:#ffaa64}.st40{opacity:.27}.st41,.st42,.st43{fill:none;stroke:#f54c43;stroke-width:.1658;stroke-linecap:round;stroke-miterlimit:10}.st42,.st43{stroke-width:.1066}.st43{stroke:#00c4eb;stroke-width:.3197}.st44{fill:#20d5d2}.st45{opacity:.75;fill:#0f6fff;enable-background:new}</style><g id="Layer_1-2_1_"><defs><path id="SVGID_1_" d="M0 0h378.9v388.3H0z"/></defs><clipPath id="SVGID_2_"><use xlink:href="#SVGID_1_" overflow="visible"/></clipPath><g class="st0"><linearGradient id="SVGID_3_" gradientUnits="userSpaceOnUse" x1="-29.599" y1="179.534" x2="420.427" y2="179.534" gradientTransform="matrix(1 0 0 -1 0 350.586)"><stop offset="0" stop-color="#52e5e7"/><stop offset=".69" stop-color="#0130cb"/></linearGradient><path class="st1" d="M397.6 27.2c7.7 8.3 13.2 18.4 15.9 29.4 2.9 12.3-1.2 24.9 3.4 37.2 1.4 3.7 3.4 7.3 3.6 11.2.7 16.3-24.8 26-17.3 43.5 4.3 9.8 7.4 17.8 6.4 28.8-1.2 10.5-4.5 20.7-9.8 29.8-2.4 4.2-5.1 8.3-8.1 12.1-16.2 20.4-38.2 35.9-52.3 57.9-6.5 10.1-11.5 21.9-21.4 28.7-10.8 7.4-25.1 7.2-37.8 4.1-12.7-3.1-24.6-8.9-37.2-12.1-25-6.1-51.5-1.8-73.3 12-19.5 12.5-33.7 31.7-51.1 47s-41.3 27.1-63.4 19.9c-19.4-6.3-31.5-25.1-40.5-43.4-24.5-50.4-36-106.2-40.3-162C-29.4 121-37.7 44-8 3.2 14.7-28 62.5-24.7 100.3-32.4s77.1-4.4 114.9 3.4c39.4 8.1 131.1 4.2 165.6 25.1 8.6 5.2 9.8 23.7 16.8 31.1z"/><path class="st2" d="M52 297.5l17.8 10.2 53.4-30.8-17.8-10.3z"/><path class="st3" d="M52 300.6l17.8 10.3v-3.2L52 297.5zM123.2 276.9v3.2l-53.4 30.8v-3.2z"/><path class="st4" d="M44 309c-10.4.7-15.7.5-15.9-.6-.3-1.4 11.3-3.9 11.1-5.2-.1-.7-3.4-1-16.5.1"/><path class="st3" d="M61.7 313.5l-11-6.4c-2.1-1.1-4.7-1.1-6.8 0l-2.1 1.2c-.8.4-1.3 1.1-1.4 2v3.4c.1.9.6 1.6 1.4 2l11 6.4c2.1 1.1 4.7 1.1 6.8 0l2.1-1.2c.8-.4 1.3-1.1 1.4-2v-3.4c-.1-.8-.6-1.6-1.4-2z"/><path class="st2" d="M43.9 307.1c2.1-1.1 4.7-1.1 6.8 0l11 6.4c1.9 1.1 1.9 2.8 0 3.9l-2.1 1.2c-2.1 1.1-4.7 1.1-6.8 0l-11-6.4c-1.9-1.1-1.9-2.8 0-3.9l2.1-1.2z"/><path class="st5" d="M145.3 281.5c-6.1.3-4.1 9.1-5.8 11.7-1.8 2.6-5.3-6.7-7.4-3.4-2 3.3 2.8 12.3 2.3 12.9-1.5 1.9-7.4-3.4-7.9.4-.5 3.9 10.9 10.3 7.1 11.4s-5.3-4.3-7.1-1.7c-1.8 2.6 1 11.7 6.8 14.5 5.8 2.9 16.2 2.5 19.3-1.2s6.6-9 3.1-8.6c-3.6.4-7.6-.3-6.1-2.2 1.4-1.7 11.7-8.8 6.9-9.7-4.8-.9-6.1 2.7-7.1.7s8.1-8.4 7.1-10.4-3.3-.4-7.6-.3c-4.4.2 2.4-14.4-3.6-14.1z"/><path class="st2" d="M140.2 326.7c.2-7.1.6-14.2 1.4-21.2.4-4.4 1.3-8.8 2.5-13 .3-1.1 2.4-6.8.8-7.9-.1-.1-.5.4-.6.3 1.5 1-.4 6.3-.7 7.4-1.2 4.4-2.1 9-2.6 13.6-.8 7-1.2 14.1-1.4 21.2 0-.1.6-.2.6-.4z"/><path class="st5" d="M164.7 311.2c.3.3.1 1-.1 1.5-.6 2.2-1.4 4.3-2.5 6.2-1.1 2-2.8 3.6-4.8 4.6-3.2 1.5-6.9 1.2-10.3 2.2 0-1.5.2-3 .4-4.5s.7-3 1.6-4.3c1.4-1.9 3.8-2.8 6-3.6 3-1.1 6-1.8 9.1-2.3.2 0 .5 0 .6.2z"/><path class="st2" d="M147.3 325.4c2.6-2.4 5.2-4.7 7.8-7 1.3-1.1 2.7-2.2 4.1-3.3s2.9-1.9 4.4-2.8c-1.5 1-3 1.8-4.4 2.9-1.4 1.1-2.7 2.2-4.1 3.3-2.5 2.2-5.2 4.5-7.8 6.9zM157.2 313.8c-.2.8-.6 1.6-.7 2.4 0-.4.1-.8.2-1.2.1-.4.3-.8.5-1.2zM161.7 316.8c-.6.2-1.2.4-1.8.5-.6.1-1.3.2-1.9.1.6 0 1.3-.1 1.9-.2.6-.1 1.2-.3 1.8-.4zM160.1 319.9c-.9.1-1.7.1-2.6.1-.9 0-1.7 0-2.6-.2 1.8.2 3.5.1 5.2.1zM153.5 314.7c-.2.6-.4 1.2-.5 1.9-.1.3-.2.6-.2.9v.9c-.1-.6-.1-1.3.1-1.9l.6-1.8zM156.7 322.5c-.8.1-1.6.2-2.4.2h-1.2c-.4 0-.8-.1-1.2-.3.4.2.8.2 1.2.2h1.2c.8.1 1.6 0 2.4-.1zM150.7 317.6c-.1.6-.2 1.2-.2 1.8-.1.6 0 1.2.1 1.8-.2-.6-.3-1.2-.2-1.8 0-.6.1-1.2.3-1.8z"/><path class="st6" d="M225.9 203.9c11.2 1 22.1 2.5 22.1 3.4-.1 1.2-24 .3-24 1.5-.1 1.7 42.8 5.3 42.7 7-.1 1.8-47.6-.3-47.8 2.1-.2 2.4 49.1 7.7 48.9 9.5-.1 1.7-54.9-2.5-55.1-.3-.2 2 44 8.1 43.8 9.5-.2 1.4-45-4.4-45.8 0-.5 3 20.3 9.1 19.8 11.3-.6 2.5-29.9-3.9-30.5-1.2-.4 1.9 13.2 6.1 12.7 8.8-.3 1.8-6.5 1.8-15.8 1.8-26.6.2-32.9.6-33.1-.9-.4-2.7 19.3-6.9 18.9-9.5-.5-3.1-30.6.1-30.8-1.8-.2-1.7 23.1-5.1 22.9-7.3-.2-2.5-32.4-1-32.5-2.7-.1-1.7 37.4-5.6 37.3-7.3-.1-1.7-31.8 0-32-2.4-.2-2 19.9-4.7 19.8-6.7-.2-2.4-30.4-1.1-30.5-2.7-.1-1.7 29.8-4.1 29.7-6.4-.1-2.3-30.5-1.8-30.5-3.4-.2-2 43-6.6 89.8-2.3zM354.2 198.1c1.6 0 3.3.2 4.9.4 0 .1-5.4 0-5.4.2s9.6.6 9.6.8c0 .2-10.7 0-10.7.2s11 .9 10.9 1c0 .2-12.3-.3-12.3 0s9.8.9 9.8 1.1c0 .2-10.1-.5-10.3 0-.2.5 4.5 1 4.4 1.3s-6.7-.4-6.8-.1c-.1.3 3 .7 2.9 1-.1.3-1.4.2-3.6.2-5.9 0-7.4.1-7.4-.1s4.3-.8 4.2-1.1c-.1-.3-6.8 0-6.9-.2 0-.2 5.2-.6 5.1-.8s-7.2-.1-7.3-.3 8.4-.6 8.3-.8-7.1 0-7.1-.3 4.5-.5 4.4-.7c0-.2-6.8-.1-6.8-.3 0-.2 6.7-.5 6.6-.7s-6.8-.2-6.8-.4c.3-.3 9.8-.9 20.3-.4zM295.4 196.9c1.7 0 3.3.2 4.9.5 0 .2-5.4 0-5.4.2s9.6.8 9.6 1.1c0 .3-10.7 0-10.7.3s11 1.2 10.9 1.5c0 .3-12.3-.4-12.3 0s9.8 1.3 9.8 1.5-10.1-.7-10.3 0c-.1.5 4.5 1.4 4.4 1.8-.1.3-6.7-.6-6.8-.2-.1.4 3 1 2.9 1.4-.1.4-1.4.3-3.6.3-5.9 0-7.4.1-7.4-.1-.1-.4 4.3-1.1 4.2-1.5s-6.9 0-6.9-.3 5.2-.8 5.1-1.2c0-.4-7.2-.2-7.3-.4 0-.3 8.4-.9 8.3-1.2 0-.3-7.1 0-7.1-.4s4.5-.7 4.4-1-6.8-.2-6.8-.4 6.7-.7 6.6-1c0-.4-6.8-.3-6.8-.5.3-.3 9.8-1.1 20.3-.4z"/><g class="st7"><linearGradient id="SVGID_4_" gradientUnits="userSpaceOnUse" x1="-13402.573" y1="209.925" x2="-13175.031" y2="209.925" gradientTransform="rotate(180 -6496.12 175.293)"><stop offset="0" stop-color="#002e61"/><stop offset=".27" stop-color="#012c5f"/><stop offset="1" stop-color="#110a2d"/></linearGradient><path class="st8" d="M376.7 137.8l-68.2-45.1-125.7 91.9 227.3 4.1c0-.1 5.1-22-33.4-50.9z"/><linearGradient id="SVGID_5_" gradientUnits="userSpaceOnUse" x1="-13242.885" y1="201.016" x2="-13065.692" y2="201.016" gradientTransform="rotate(180 -6496.12 175.293)"><stop offset="0" stop-color="#002e61"/><stop offset=".27" stop-color="#012c5f"/><stop offset="1" stop-color="#110a2d"/></linearGradient><path class="st9" d="M218.7 156.2l-50.3-41.9-94.9 70.5h177.1l-30.3-28"/><linearGradient id="SVGID_6_" gradientUnits="userSpaceOnUse" x1="-13056.547" y1="161.661" x2="-13056.547" y2="286.557" gradientTransform="rotate(180 -6496.12 175.293)"><stop offset="0" stop-color="#002e61"/><stop offset=".27" stop-color="#012c5f"/><stop offset="1" stop-color="#110a2d"/></linearGradient><path class="st10" d="M149.7 186.6L39.3 64l-60.4 59.4.3 65.5 170.5-2.3z"/></g><g class="st11"><linearGradient id="SVGID_7_" gradientUnits="userSpaceOnUse" x1="5981.368" y1="189.342" x2="5981.498" y2="189.342" gradientTransform="matrix(1 0 0 -1 -5584.03 350.586)"><stop offset="0" stop-color="#002e61"/><stop offset="1" stop-color="#110a2d"/></linearGradient><path class="st12" d="M397.5 161.3c0-.1-.1-.1-.1-.2l.1.2z"/><linearGradient id="SVGID_8_" gradientUnits="userSpaceOnUse" x1="5987.702" y1="173.726" x2="5987.845" y2="173.726" gradientTransform="matrix(1 0 0 -1 -5584.03 350.586)"><stop offset="0" stop-color="#002e61"/><stop offset="1" stop-color="#110a2d"/></linearGradient><path class="st13" d="M403.8 176.9l-.1-.1c0 .1.1.2.1.1z"/><linearGradient id="SVGID_9_" gradientUnits="userSpaceOnUse" x1="5944.346" y1="183.582" x2="5944.405" y2="183.582" gradientTransform="matrix(1 0 0 -1 -5584.03 350.586)"><stop offset="0" stop-color="#002e61"/><stop offset="1" stop-color="#110a2d"/></linearGradient><path class="st14" d="M360.4 167.1s0-.1-.1-.1l.1.1z"/><linearGradient id="SVGID_10_" gradientUnits="userSpaceOnUse" x1="5937.727" y1="179.441" x2="5937.727" y2="179.441" gradientTransform="matrix(1 0 0 -1 -5584.03 350.586)"><stop offset="0" stop-color="#002e61"/><stop offset="1" stop-color="#110a2d"/></linearGradient><path class="st15" d="M353.7 171.2c0-.2 0 0 0 0z"/><linearGradient id="SVGID_11_" gradientUnits="userSpaceOnUse" x1="5950.49" y1="183.31" x2="5950.55" y2="183.31" gradientTransform="matrix(1 0 0 -1 -5584.03 350.586)"><stop offset="0" stop-color="#002e61"/><stop offset="1" stop-color="#110a2d"/></linearGradient><path class="st16" d="M366.5 167.3s0-.1-.1-.1l.1.1z"/><linearGradient id="SVGID_12_" gradientUnits="userSpaceOnUse" x1="5965.242" y1="196.167" x2="5965.302" y2="196.167" gradientTransform="matrix(1 0 0 -1 -5584.03 350.586)"><stop offset="0" stop-color="#002e61"/><stop offset="1" stop-color="#110a2d"/></linearGradient><path class="st17" d="M381.2 154.4c0 .1 0 .1 0 0z"/><linearGradient id="SVGID_13_" gradientUnits="userSpaceOnUse" x1="5923.164" y1="182.007" x2="5923.164" y2="182.007" gradientTransform="matrix(1 0 0 -1 -5584.03 350.586)"><stop offset="0" stop-color="#002e61"/><stop offset="1" stop-color="#110a2d"/></linearGradient><path class="st18" d="M339.1 168.5z"/><linearGradient id="SVGID_14_" gradientUnits="userSpaceOnUse" x1="5917.766" y1="178.13" x2="5917.766" y2="178.13" gradientTransform="matrix(1 0 0 -1 -5584.03 350.586)"><stop offset="0" stop-color="#002e61"/><stop offset="1" stop-color="#110a2d"/></linearGradient><linearGradient id="SVGID_15_" gradientUnits="userSpaceOnUse" x1="5928.113" y1="188.217" x2="5928.149" y2="188.217" gradientTransform="matrix(1 0 0 -1 -5584.03 350.586)"><stop offset="0" stop-color="#002e61"/><stop offset="1" stop-color="#110a2d"/></linearGradient><path class="st20" d="M344.1 162.3c0 .1 0 .1 0 0z"/><linearGradient id="SVGID_16_" gradientUnits="userSpaceOnUse" x1="5952.905" y1="178.651" x2="5952.905" y2="178.651" gradientTransform="matrix(1 0 0 -1 -5584.03 350.586)"><stop offset="0" stop-color="#002e61"/><stop offset="1" stop-color="#110a2d"/></linearGradient><linearGradient id="SVGID_17_" gradientUnits="userSpaceOnUse" x1="5890.242" y1="181.736" x2="5964.275" y2="181.736" gradientTransform="matrix(1 0 0 -1 -5584.03 350.586)"><stop offset="0" stop-color="#002e61"/><stop offset="1" stop-color="#110a2d"/></linearGradient><path class="st22" d="M378.1 182.3l-1.3-2.4c.4 0 .8.1 1.2.2-.3-.4-1.1-1.3-1.5-1.8-.5-.5-2.3-3.3-1.9-3 .4.3 1.5 1 1.5 1-.7-1-1.4-2.1-2-3.2-.4-1 1 0 1 0-.8-.8-1.5-1.6-2.1-2.5-.2-.4-1.2-2.2-.5-1.9l1 .6-3-5.2c-.1-.2.8 0 1.2.3-.8-1.2-5.4-8.6-5.4-8.6v1s-.8 1.7-1.8 3.5c-1-1-2.2-2.5-2.2-2.5l1.8.7-2.6-2.5 1 .2s-3.7-6.3-3.6-5.8c.1.4-2.8 6.4-3.3 7.3.3-.2.6-.3.9-.4 0 .7-.2 1.3-.4 1.9-.6.8-1.3 1.4-2 2l1.1-.3s1.5.2.7.7c-.7.7-1.2 1.5-1.5 2.4 0 0 1.1-.4.8.5l-.7 2.1h1.2c-.3.3-.6.6-.8.9l-.1-.1v.1l-.3.6c-.2-.5-.4-.8-.4-.9 0 0 .5 0 .7.2-.5-.8-3.2-5.9-3.2-5.9v.7c-.7 1.8-1.6 3.6-2.6 5.4-.4.2 1-.2 1-.2-.5 1-1.1 1.9-1.9 2.8-.4.2.8-.2.8-.2-.4 1.1-.8 2.2-1.3 3.2.3-.1.6-.1.8-.2-.2.6-.5 1.1-.9 1.5-.3.2-.4.4 0 .2.2 0 .1.2 0 .5l-1-.8.6.1s-2.1-3.1-2.1-2.9c-.6 1.2-1.2 2.5-1.9 3.6.2-.1.3-.2.5-.2 0 .3-.1.7-.2 1-.3.4-.7.7-1.2 1l.6-.1s.9.1.4.4c-.3.2-.5.4-.6.7-.3-.5-.5-1-.7-1.5-.2-.7.5 0 .5 0-.4-.6-.8-1.1-1.1-1.8-.1-.3-.6-1.6-.2-1.3l.5.4s-1.5-3.4-1.6-3.6.4 0 .6.2c-.4-.8-2.8-5.9-2.8-5.9v.7c-.6 1.8-1.4 3.6-2.2 5.4-.3.2.9-.2.9-.2s-.8 1.6-1.3 2.4c-.4-1-1.2-2.7-1.2-2.8 0-.1.4 0 .6.2-.4-.8-2.8-5.9-2.8-5.9v.7c-.6 1.8-1.4 3.6-2.2 5.4-.3.2.9-.2.9-.2-.4 1-1 1.9-1.6 2.8-.4.2.7-.2.7-.2-.3 1.1-.7 2.2-1.1 3.2.3-.1.5-.1.7-.2-.2.5-.4 1-.7 1.5-.1-.3-.4-1-.2-.8l.4.3s-1-2.3-1.1-2.4c0-.1.3 0 .4.2-.3-.6-1.9-4.1-1.9-4.1v.5c-.4 1.3-1 2.5-1.6 3.7-.2.1.6-.1.6-.1s-.6 1.2-.9 1.7c-.5-.6-1.3-1.9-1.3-1.9s1.3.5 1 .3c-.3-.6-.5-1.2-.7-1.8 0 0 .7.3.5 0s-.5-1.4-.5-1.4 1.2.6.9.3c-.6-1-1-2.1-1.3-3.2.2-.1 1.1.2 1.1.2-.6-.9-1.2-1.9-1.7-2.9l1 .7-1.5-2.3.6.1s-2.1-5.7-2.1-5.4c0 .4-1.6 5.9-1.9 6.7.1-.2.3-.3.5-.4 0 .6-.1 1.2-.2 1.8-.3.7-.7 1.3-1.2 1.8l.6-.2s.8.2.4.6c-.4.7-.7 1.4-.8 2.1 0 0 .6-.3.4.5v.1l-1.1-1.1.6.1s-2.3-3.8-2.2-3.6c0 .3-1.7 3.9-2 4.5.2-.1.3-.2.5-.2 0 .4-.1.8-.3 1.2-.3.5-.8.9-1.3 1.2l.7-.2s.9.1.4.4c-.4.4-.7.9-.9 1.4 0 0 .7-.2.5.3v.1l-1.5-1 .6.1s-2.3-2.7-2.2-2.5c-.6 1.1-1.3 2.1-2 3.1.2-.1.4-.1.5-.2 0 .3-.1.6-.3.8-.4.3-.8.6-1.3.8l.7-.1s.9 0 .4.3c-.4.3-.7.6-.9 1 0 0 .7-.2.5.2-.2.4-.4.9-.4.9h.7c-.3.2-.5.4-.7.7-.1.2-.2.5-.2.8 0 0 .6-.2.6 0s-.7 1.2-.5 1c.1-.2.9-.2.9-.2l-.3.4h-1.4v5.2h74v-5.2l-2 .1zm-54.5-1.7l-.2.8c-.1-.2-.1-.4-.2-.6l.4-.2zm-.1-1.1c.1 0 .1 0 0 .2v-.2zm39.8-18.8c.3-.1.6-.1.8 0l-.5.9c-.2-.4-.4-.8-.3-.9zm-15.9 14.9l-.1.2-.4-.4.5.2zm-4.4 4.2zm-.8-1.7c.1.1.2.2.3.2l-.1.2h.2l.3.2v.1c-.1.1-.1.3-.2.5-.4-.8-.7-1.4-.5-1.2zm-6.7-4.9l-.1.4-.1-.3.2-.1zm-.1.4l-.2.8c-.1-.3-.2-.7-.3-1h.2l.3.2zm-.5-.3c-.1-.1 0-.1 0 0zm-10.6 3v.2c-.1 0-.1-.1-.1-.1l.1-.1zm-.1.3c-.1.4-.3 1-.5 1.4-.2-.5-.3-1-.4-1.6.4.1.7.1.9.2zm-.5 1.7c0 .1-.1.1-.1.2.2 0 .3-.1.5-.2-.1.4-.3.7-.5 1.1l-.2-1.2s.1 0 .3.1zm-.2 1.9c-.1.2-.1.4-.2.5l-.2-.8.4.3zm-.2 1.9c0 .1-.1.1-.1.2v-.3l.1.1zm-10.6-2.3zm5.6-6l-.1.2c0-.1 0-.1-.1-.2h.2zm-.3-1.6l-.1.3c-.3-.3-.5-.6-.5-.6l.6.3zm-4.8 5.1l-.3.3-.2-.3h.5zm-.2-1.1l-.1.4c-.4-.3-.9-.7-.9-.7l1 .3zm-5 6l-.3.1c.2-.1.5-.3.3-.1z"/></g><g class="st23"><path class="st3" d="M-8.3 140c.1-.1.1-.2.2-.3-.1.3-.2.4-.2.3zM-19.5 166.9c0-.1.1-.1.2-.2-.1.2-.2.3-.2.2zM57.6 149.9c0-.1.1-.1.1-.2l-.1.2zM69.5 157s0-.1.1-.1c-.1.1-.2.1-.1.1zM46.7 150.4c0-.1.1-.1.1-.2-.1.1-.1.2-.1.2zM20.5 128.1s.1.1.1.2c0-.1 0-.1-.1-.2zM95.3 152.5c.1.1 0 .1 0 0zM104.9 159.2zM86.4 141.8v.1s.1 0 0-.1zM42.5 158.3c0 .1.1.1 0 0z"/><path class="st3" d="M-20.4 180.4l6 8.4 135.1-1.7 20.8-.4-24.9-11.6c-.8-.4-1.5-.8-2.4-1l-8.3-2.6-.5-.7s1.3 0 1.6.3-.9-1.3-1-1.7c-.1-.4 1 0 1 0-.1-.5-.2-.9-.4-1.3-.3-.5-.7-.9-1.2-1.2h1.2l-.8-1.6c-.3-.7.8-.4.8-.4-.4-.7-.9-1.3-1.6-1.7-.9-.4.8-.5.8-.5l1.2.2c-.8-.4-1.6-.9-2.2-1.4-.3-.4-.4-.9-.5-1.4.3 0 .7.1 1 .3-1.3-1.7-2.5-3.5-3.6-5.3.1-.3-3.9 4.3-3.9 4.3l1.1-.1-2.5 1.8v-.1c-.3-.9.8-.6.8-.6-.3-.9-.9-1.8-1.6-2.5-.9-.6.8-.7.8-.7l1.2.3c-.9-.6-1.6-1.3-2.2-2.1-.3-.6-.4-1.3-.5-2 .4.1.7.2 1 .4-.5-.9-3.6-7.3-3.6-7.7.1-.4-4 6.1-4 6.1l1.1-.2-1.9 1.8v-.1c-.3-1.4.8-.8.8-.8-.3-1.3-.9-2.6-1.6-3.7-.8-.8.7-1.1.7-1.1l1.1.4c-.8-.9-1.5-2-2-3.1-.3-1-.4-2-.4-3 .4.1.7.3.9.6-.4-1.3-3.4-10.9-3.3-11.5 0-.6-3.6 9.2-3.6 9.2l1-.2-2.6 4 1.8-1.2c-.9 1.7-1.9 3.4-3 4.9 0 0 1.6-.7 1.8-.4.3.3-1.7 5.1-2.2 5.5-.5.4 1.6-.6 1.6-.6s-.7 1.8-1 2.4c-.3.5 1-.1 1-.1-.2 1.1-.6 2.2-1.2 3.2-.5.3 1.8-.5 1.8-.5s-1.4 2.3-2.2 3.4c-.6-1-1.2-2-1.7-3 0 0 1.4.5 1 .3-.4-.2-2.7-6.4-2.7-6.4v-1s-2.9 6.1-3.4 7c.2-.2.8-.4.7-.3l-1.9 4.2.7-.5c.4-.3-.1.9-.3 1.4-.5-.8-1-1.7-1.3-2.6.4.2.9.3 1.3.4-.3-.2-2-5.5-2-5.5s1.9.6 1.3.3c-.7-.3-3-4.8-3-4.8s2.1.7 1.5.4c-.6-.3-4-9.2-4-9.2v-1.2s-4.2 8.8-5 10.2c.3-.3 1.2-.6 1-.4l-2.2 4.8c-.9-1.3-2.4-4.2-2.4-4.2s2.1.7 1.5.4c-.6-.3-4-9.2-4-9.2V141s-4.2 8.8-5 10.2c.3-.3 1.2-.6 1.1-.4s-2.8 6.1-2.8 6.1l.9-.7c.6-.5-.3 1.7-.4 2.2-.6 1-1.2 2-2 3 0 0 1.3-1.3.9-.1-.3.9-.7 1.8-1.2 2.6-.3-.5-.7-.9-1.1-1.3-.8-.4.7-.6.7-.6l1.2.2c-.8-.4-1.5-1-2.1-1.7-.2-.5-.4-1.1-.4-1.6.3 0 .7.2.9.3-1.2-2-2.4-4.1-3.4-6.3 0-.4-3.7 5-3.7 5l1-.1-1.7 1.4c-.2-.6-.3-1 0-.9.7.2.6 0 0-.4s-1.5-2.6-1.5-2.6c.5.2 1 .3 1.5.4-.9-1.8-1.6-3.6-2.3-5.5 0 0 2.2.6 1.4.3-.7-.3-3.3-4.8-3.3-4.8s2.4.7 1.7.4c-.6-.3-4.5-9.2-4.5-9.2v-1.2s-4.7 8.8-5.6 10.2c.4-.3 1.3-.6 1.2-.4-.1.1-.4.7-.8 1.5-.1-.3-.3-.7-.5-1l.1-.1-.1.1c-.4-.6-.9-1.1-1.4-1.6H23s-.7-2.1-1.3-3.7c-.5-1.6 1.4-.9 1.4-.9s-1.2-3.1-2.6-4c-1.4-.9 1.2-1.2 1.2-1.2l2 .4s-2.9-2-3.6-3.4c-.4-1-.7-2.2-.8-3.3.6.1 1.1.3 1.6.7-.8-1.5-5.9-11.8-5.8-12.6.1-.7-6.4 10-6.4 10l1.8-.3-4.5 4.3 3.2-1.3s-2.3 2.6-4 4.2c-1.7-3.1-3.1-5.9-3.1-5.9V126s-8.1 12.8-9.6 14.9c.6-.5 2.2-.9 2-.5-.2.4-5.4 8.9-5.4 8.9l1.8-1c1.2-.7-.6 2.5-.9 3.2-1.2 1.6-2.4 3-3.8 4.4 0 0 2.5-1.8 1.8-.1-1 1.9-2.2 3.8-3.6 5.5 0 0 2-1.1 2.7-1.6s-2.2 4-3.4 5.1c-.8.8-2.2 2.5-2.7 3.1.7-.2 1.3-.3 2-.3l-2.3 4.1-1.1 8.7zM78 168.8c-.1.4-.2.7-.3 1-.2-.7-.3-1.4-.3-1.4l.6.4zm-.5-1.9c0-.2 0-.3.1-.3s-.1.2-.1.3zM6.4 136c-.3-.5-.6-1-.9-1.6.5-.1 1-.1 1.5 0 .2 0-.1.7-.6 1.6zM36 159.5l-.6.6c0-.1-.1-.2-.1-.3l.7-.3zm7.1 7.6H43h.1zm.6-1c-.1-.3-.2-.5-.3-.8v-.2l.5-.4c.1 0 .3 0 .4.1l-.1-.3c.2-.2.4-.3.5-.4 0-.1-.4.9-1 2zm13-10.3l-.2.5-.2-.7.4.2zm.5.1l.3.1c-.1.6-.3 1.2-.6 1.8-.2-.5-.3-1-.4-1.3l.7-.6zm.3 0c-.1 0-.1-.1-.2-.1.2-.1.3 0 .2.1zm19 5.2l-.2.2c-.1-.2-.1-.4-.1-.4l.3.2zm1.3.2c0 .9-.2 1.8-.6 2.7-.3-.7-.6-1.8-.8-2.4.4-.1.9-.2 1.4-.3zm.2 3.1l-.4 2c-.4-.5-.7-1.2-.9-1.8l.9.3c-.1-.1-.1-.3-.2-.4.2-.1.4-.1.6-.1zm.3 2.8s-.1.7-.3 1.4c-.1-.2-.2-.5-.3-.9l.6-.5zm0 3.8s0 .2-.1.5v-.1c-.1-.1-.2-.2-.2-.3l.3-.1zm8.9-14.1c0 .1-.1.2-.1.3-.1-.2-.2-.3-.2-.3h.3zm1.2-3.2s-.4.4-.9 1c0-.2-.1-.4-.1-.6l1-.4zm8.1 13.5h.2-.2zm0-4.2c-.1.1-.2.3-.4.5-.1-.2-.3-.3-.5-.5h.9zm1.4-2.6s-.7.6-1.5 1.2c-.1-.2-.2-.5-.2-.7l1.7-.5zm7.9 11.1h-.5l-.1-.1c-.3-.5.2-.2.6.1z"/></g><path class="st3" d="M99.9 198.2c-.2-.2-.4-.3-.6-.4-.2-.2-.4-.3-.6-.4-.2-.2-.4-.3-.6-.4-.2-.2-.4-.3-.6-.4-.2-.2-.4-.3-.6-.4-.2-.2-.4-.3-.6-.4-.2-.2-.4-.3-.6-.4-.2-.2-.4-.3-.6-.4-1.3-1.1-3.3-1.2-5.5.1l-75.3 43.5c-4.2 2.7-6.8 7.2-7.1 12.2V300c0 2.3.8 3.9 2.1 4.6.2.2.4.3.6.4.2.2.4.3.6.4.2.2.4.3.6.4.2.2.4.3.6.4.2.2.4.3.6.4.2.2.4.3.6.4.2.2.4.3.6.4.2.2.4.3.6.4 1.3 1.1 3.3 1.2 5.5-.1L95 264.4c4.1-2.7 6.8-7.2 7-12.2v-49.5c0-2.2-.8-3.9-2.1-4.5z"/><path class="st24" d="M98.2 200.7c.2 0 .4.1.5.2.3.6.5 1.2.4 1.9v49.5c-.3 3.9-2.3 7.5-5.6 9.6l-75.3 43.5c-.5.3-1.1.5-1.7.6-.2 0-.4-.1-.5-.2-.3-.6-.5-1.2-.4-1.9v-49.4c.3-3.9 2.3-7.5 5.6-9.6l75.3-43.5c.5-.4 1.1-.6 1.7-.7"/><path class="st25" d="M71.1 339.1h-1.2c-6.8-.2-12.2-7-15.4-12.9-2.1-3.8-4.2-8.5-2.5-12.5 1.7-4 .7-9.5-2.4-5.9-1.4 1.6-4.5 3.9-4.7 4.7-.7 2.1-.1 4.6.3 6.8.9 5.1.9 7.4 1.8 10.8.8 3.2 1.9 6.3 3.2 9.3 2.2 5.2 5.8 9.7 10.3 13.1 5.2 3.7 12.8 1.4 15.2 11.3 1.3 4.8 1.4 9.9.5 14.8 11.9-7.6 24.4-14.2 37.3-19.8 5.6-2.4 11.6-4.7 15.7-9.3 1-.8 1.5-2.1 1.4-3.4-.3-1.3-1.6-2-2.7-2.6-5.2-2.7-10.2-5.9-14.9-9.5-4.6-3.5-9.4-7.6-15.2-7.7-9.7-.1-17 12.3-26.7 12.8z"/><path class="st25" d="M106.6 279.9c-7.2-.7-10.9 2.7-14 8.6-.8 1.5-.2 5.5-.2 7.6 0 4.4.1 12.3 3.3 15.2 2.4 2 3.6.7 5 2.8 1.5 2.1.6 4.9-.2 7-1 2.7-5.6 4.9-7.1 5.9-2.5 1.7-8.4 4.6-9.3 5.7-9.2 11.2-15.5 37 3.1 41.7 5.5 1.4 5.1-14.8 21.4-9.4 1.3.4 8.8 1.4 10.7-1.5 12.6-20.5 9.8-65.5-7.6-81.6-3.4-3-3.5-1.8-5.1-2z"/><path class="st26" d="M71.4 337.7h-.3c-3.3.6-7 .1-9.5-2.2-1.9-1.8-3-4.5-5.5-5.1-2-.5-4.1.7-5.7 2-1.3.9-2.1 2.4-1.9 4 .3 1.4.7 2.8 1.2 4.2 1.1 3 2.8 5.6 5 7.9 1.4 1.5 3 2.7 4.8 3.7 4.7 2.7 10.8 3.8 13.9 8.3 1.8 2.8 2.5 6.1 2 9.4-.5 3.2-1.4 6.4-2.7 9.4 10.6-.7 21-3 30.9-6.8 9.9-3.9 18.8-10.1 25.8-18.1 1.7-2 3.4-4.3 3.5-7 .1-1-.2-2-.9-2.8-.8-.6-1.8-1-2.7-1.1-8.4-1.7-15.8-6.8-22.1-12.7-2.6-2.4-5.3-5.1-8.8-5.3-2.6-.2-5.1 1.2-7.4 2.5l-10.6 5.8c-2.8 1.8-5.8 3.1-9 3.9z"/><path class="st27" d="M92 291.2c.3-7.1 4.4-11.5 11.4-13s15.4 4.7 18.8 8.9c4.6 5.6 4 9.7 8.3 14 3.9 3.9 8.8 4.3 12.9 7.4 5.8 4.4 6.4 11.1 11.6 16 5.4 5.2 12.3 3.7 18.1 9.2 5.4 5.1 10.5 13.4 8.4 22.2-4.1 17-24.2 24.8-40 22.3-16.1-2.5-30.2-13.1-31.8-29.1-.4-3.6 1.6-6.2-.2-9.9s-4.7-3.9-7.4-7.6c-4.4-6-3-15.8-4.9-23.7-1.1-4.8-5.4-11.3-5.2-16.7z"/><path class="st3" d="M286.4 201.1l31.4-29 31.4 29v-29.9h-62.8z"/><linearGradient id="SVGID_18_" gradientUnits="userSpaceOnUse" x1="-13346.423" y1="183.043" x2="-13273.668" y2="183.043" gradientTransform="rotate(180 -6496.12 175.293)"><stop offset="0" stop-color="#002e61"/><stop offset=".27" stop-color="#012c5f"/><stop offset="1" stop-color="#110a2d"/></linearGradient><path class="st28" d="M281.4 163.7h72.8v7.7h-72.8z"/><linearGradient id="SVGID_19_" gradientUnits="userSpaceOnUse" x1="-13335.471" y1="199.234" x2="-13284.608" y2="199.234" gradientTransform="rotate(180 -6496.12 175.293)"><stop offset="0" stop-color="#002e61"/><stop offset=".27" stop-color="#012c5f"/><stop offset="1" stop-color="#110a2d"/></linearGradient><path class="st29" d="M292.4 139.3h50.9v24.2h-50.9z"/><path class="st2" d="M332 146.8h3.5v3.5H332zM325.6 146.8h3.5v3.5h-3.5zM319.3 146.8h3.5v3.5h-3.5zM312.9 146.8h3.5v3.5h-3.5zM306.5 146.8h3.5v3.5h-3.5zM300.2 146.8h3.5v3.5h-3.5z"/><path class="st30" d="M166.4 118h58.1v48.1h-58.1z"/><path class="st31" d="M207.1 156.8h11.6v11.6h-11.6z"/><path class="st32" d="M195.5 156.8h11.6v11.6h-11.6z"/><path class="st33" d="M183.9 156.8h11.6v11.6h-11.6z"/><path class="st32" d="M172.3 156.8h11.6v11.6h-11.6z"/><path class="st34" d="M160.7 156.8h11.6v11.6h-11.6z"/><path class="st33" d="M218.7 156.8h11.6v11.6h-11.6z"/><path class="st32" d="M160.7 133.5h11.6v11.6h-11.6z"/><path class="st31" d="M172.3 133.5h11.6v11.6h-11.6z"/><path class="st35" d="M183.9 133.5h11.6v11.6h-11.6z"/><path class="st34" d="M195.5 133.5h11.6v11.6h-11.6z"/><path class="st6" d="M207.1 133.5h11.6v11.6h-11.6z"/><path class="st35" d="M218.7 133.5h11.6v11.6h-11.6z"/><path class="st33" d="M207.1 145.2h11.6v11.6h-11.6z"/><path class="st6" d="M195.5 145.2h11.6v11.6h-11.6z"/><path class="st32" d="M183.9 145.2h11.6v11.6h-11.6z"/><path class="st33" d="M172.3 145.2h11.6v11.6h-11.6z"/><path class="st6" d="M160.7 145.2h11.6v11.6h-11.6z"/><path class="st32" d="M218.7 145.2h11.6v11.6h-11.6z"/><path class="st36" d="M253.3 172.3S218.8 203.9 211 231h-15.5v-68.4l57.8 9.7z"/><path class="st3" d="M137.7 172.3s34.5 31.6 42.3 58.7h15.5v-68.4l-57.8 9.7z"/><path class="st37" d="M137.7 172.3v-2.9l57.8-10 57.8 10.3v2.6l-57.8-9.7zM217.4 123.2h2.9v2.9h-2.9zM212.2 123.2h2.9v2.9h-2.9zM207.1 123.2h2.9v2.9h-2.9zM201.9 123.2h2.9v2.9h-2.9zM196.7 123.2h2.9v2.9h-2.9zM191.6 123.2h2.9v2.9h-2.9zM186.4 123.2h2.9v2.9h-2.9zM181.2 123.2h2.9v2.9h-2.9zM176.1 123.2h2.9v2.9h-2.9zM170.9 123.2h2.9v2.9h-2.9z"/><path class="st30" d="M186.8 115.2h-10.7V89h8.5c1.2 0 2.1 1 2.1 2.1v24.1h.1z"/><path class="st37" d="M166.3 118.1h58.4l3.2-4.9H163z"/><path class="st27" d="M176.1 96.1h10.7v1.3h-10.7zM212.4 227.6l-16.9-3.1-16.9 3.1s-.6-1.5-.7-1.9 17.7-3.7 17.7-3.7l17.7 3.7c-.1 0-.8 1.6-.9 1.9z"/><path transform="rotate(-49.27 283.791 104.46)" class="st3" d="M282.6 58.5h2.5v92h-2.5z"/><path transform="rotate(-67.97 288.59 81.005)" class="st3" d="M287.7 48h1.7v66h-1.7z"/><path class="st38" d="M340.8 139.3l-20.9-51-55.4-25"/><path class="st3" d="M319.9 144.5c-1.4 0-2.6-1.1-2.6-2.6V89.4c0-1.4 1.1-2.6 2.6-2.6 1.4 0 2.6 1.1 2.6 2.6V142c0 1.4-1.2 2.5-2.6 2.5z"/><path transform="rotate(-26.747 231.665 74.078)" class="st3" d="M231.2 66.8h1v14.7h-1z"/><path transform="rotate(-26.747 220.268 81.572)" class="st3" d="M219.9 77.3h.8v8.6h-.8z"/><path transform="rotate(-26.747 245.552 69.742)" class="st3" d="M245.2 65.4h.8v8.7h-.8z"/><path class="st38" d="M200.5 96.1l27.8-28.6 41.2-4.7"/><path class="st3" d="M206.7 97.4l62.7-31.6c1.1-.5 1.5-1.9 1-2.9-.5-1.1-1.9-1.5-2.9-1l-67.3 34-1.2.6 7.7.9z"/><path class="st36" d="M319.7 294.7h11.6V246.6l-11.6-6.5z"/><path class="st3" d="M296.5 240.1h23.2v54.6h-23.2z"/><path class="st35" d="M298.3 245.3h1.7v1.7h-1.7z"/><circle class="st27" cx="316" cy="246" r=".6"/><circle class="st27" cx="313.9" cy="246" r=".6"/><circle class="st27" cx="311.8" cy="246" r=".6"/><circle class="st39" cx="309.7" cy="246" r=".6"/><path class="st35" d="M298.3 248.6h1.7v1.7h-1.7z"/><circle class="st27" cx="316" cy="249.4" r=".6"/><circle class="st27" cx="313.9" cy="249.4" r=".6"/><circle class="st27" cx="311.8" cy="249.4" r=".6"/><circle class="st39" cx="309.7" cy="249.4" r=".6"/><g class="st40"><path class="st41" d="M321.3 243.7l8.3 4.8M321.3 244.6l8.3 4.8M321.3 245.4l8.3 4.8M321.3 246.2l8.3 4.8M321.3 247l8.3 4.8M321.3 247.9l8.3 4.8M321.3 248.7l8.3 4.8M321.3 249.5l8.3 4.8M321.3 250.3l8.3 4.8M321.3 251.2l8.3 4.8M321.3 252l8.3 4.8M321.3 252.8l8.3 4.8M321.3 253.7l8.3 4.7M321.3 254.5l8.3 4.8M321.3 255.3l8.3 4.8M321.3 256.1l8.3 4.8M321.3 257l8.3 4.8M321.3 257.8l8.3 4.8M321.3 258.6l8.3 4.8M321.3 259.4l8.3 4.8M321.3 260.3l8.3 4.8M321.3 261.1l8.3 4.8M321.3 261.9l8.3 4.8M321.3 262.8l8.3 4.8M321.3 263.6l8.3 4.8M321.3 264.4l8.3 4.8M321.3 265.2l8.3 4.8M321.3 266.1l8.3 4.8M321.3 266.9l8.3 4.8M321.3 267.7l8.3 4.8M321.3 268.5l8.3 4.8M321.3 269.4l8.3 4.8M321.3 270.2l8.3 4.8M321.3 271l8.3 4.8M321.3 271.8l8.3 4.8M321.3 272.7l8.3 4.8M321.3 273.5l8.3 4.8M321.3 274.3l8.3 4.8M321.3 275.2l8.3 4.8M321.3 276l8.3 4.8M321.3 276.8l8.3 4.8M321.3 277.6l8.3 4.8M321.3 278.5l8.3 4.8M321.3 279.3l8.3 4.8M321.3 280.1l8.3 4.8M321.3 281l8.3 4.7M321.3 281.8l8.3 4.8M321.3 282.6l8.3 4.8M321.3 283.4l8.3 4.8M321.3 284.3l8.3 4.8M321.3 285.1l8.3 4.8M321.3 285.9l8.3 4.8M321.3 286.7l8.3 4.8M321.3 287.6l8.3 4.8M321.3 288.4l8.3 4.8M321.3 289.2l8.3 4.8"/></g><path class="st36" d="M342.7 294.5h7.4V263.8l-7.4-4.1z"/><path class="st3" d="M328 259.7h14.8v34.7H328z"/><path class="st35" d="M329.1 263h1.1v1.1h-1.1z"/><circle class="st27" cx="340.4" cy="263.5" r=".4"/><circle class="st27" cx="339.1" cy="263.5" r=".4"/><circle class="st27" cx="337.7" cy="263.5" r=".4"/><circle class="st39" cx="336.4" cy="263.5" r=".4"/><path class="st35" d="M329.1 265.1h1.1v1.1h-1.1z"/><circle class="st27" cx="340.4" cy="265.6" r=".4"/><circle class="st27" cx="339.1" cy="265.6" r=".4"/><circle class="st27" cx="337.7" cy="265.6" r=".4"/><circle class="st39" cx="336.4" cy="265.6" r=".4"/><g class="st40"><path class="st42" d="M343.8 262l5.3 3.1M343.8 262.5l5.3 3.1M343.8 263.1l5.3 3M343.8 263.6l5.3 3M343.8 264.1l5.3 3.1M343.8 264.6l5.3 3.1M343.8 265.2l5.3 3M343.8 265.7l5.3 3M343.8 266.2l5.3 3.1M343.8 266.7l5.3 3.1M343.8 267.3l5.3 3M343.8 267.8l5.3 3M343.8 268.3l5.3 3.1M343.8 268.8l5.3 3.1M343.8 269.4l5.3 3M343.8 269.9l5.3 3.1M343.8 270.4l5.3 3.1M343.8 271l5.3 3M343.8 271.5l5.3 3M343.8 272l5.3 3.1M343.8 272.5l5.3 3.1M343.8 273.1l5.3 3M343.8 273.6l5.3 3M343.8 274.1l5.3 3.1M343.8 274.6l5.3 3.1M343.8 275.2l5.3 3M343.8 275.7l5.3 3M343.8 276.2l5.3 3.1M343.8 276.7l5.3 3.1M343.8 277.3l5.3 3M343.8 277.8l5.3 3M343.8 278.3l5.3 3.1M343.8 278.8l5.3 3.1M343.8 279.4l5.3 3M343.8 279.9l5.3 3.1M343.8 280.4l5.3 3.1M343.8 281l5.3 3M343.8 281.5l5.3 3M343.8 282l5.3 3.1M343.8 282.5l5.3 3.1M343.8 283.1l5.3 3M343.8 283.6l5.3 3M343.8 284.1l5.3 3.1M343.8 284.6l5.3 3.1M343.8 285.2l5.3 3M343.8 285.7l5.3 3M343.8 286.2l5.3 3.1M343.8 286.7l5.3 3.1M343.8 287.3l5.3 3M343.8 287.8l5.3 3.1M343.8 288.3l5.3 3.1M343.8 288.9l5.3 3M343.8 289.4l5.3 3M343.8 289.9l5.3 3.1M343.8 290.4l5.3 3.1M343.8 291l5.3 3"/></g><g class="st23"><path class="st43" d="M229.3 135.3h-9.4M229.3 136.1h-9.4M229.3 136.9h-9.4M229.3 137.7h-9.4M229.3 138.5h-9.4M229.3 139.3h-9.4M229.3 140.1h-9.4M229.3 140.9h-9.4M229.3 141.7h-9.4M229.3 142.5h-9.4M229.3 143.3h-9.4"/></g><g class="st23"><path class="st43" d="M194.5 146.9h-9.4M194.5 147.7h-9.4M194.5 148.5h-9.4M194.5 149.3h-9.4M194.5 150.1h-9.4M194.5 150.9h-9.4M194.5 151.7h-9.4M194.5 152.5h-9.4M194.5 153.3h-9.4M194.5 154.2h-9.4M194.5 155h-9.4"/></g><g class="st23"><path class="st43" d="M171.3 135.3h-9.5M171.3 136.1h-9.5M171.3 136.9h-9.5M171.3 137.7h-9.5M171.3 138.5h-9.5M171.3 139.3h-9.5M171.3 140.1h-9.5M171.3 140.9h-9.5M171.3 141.7h-9.5M171.3 142.5h-9.5M171.3 143.3h-9.5"/></g><path class="st5" d="M338.3 294c.4 1.1-.9 2.5-1.8 3.7-3.7 5-8.1 9.4-13.1 13.1-5 3.8-10.9 6-17.1 6.5-9.7.5-18.9-4.3-28.5-5.5 1.7-3.8 3.6-7.6 5.9-11.1 2.3-3.6 5-7 8.6-9.2 5.6-3.3 12.5-3.1 18.9-2.6 8.6.7 17.3 1.6 25.6 4 .7.2 1.2.6 1.5 1.1z"/><path class="st2" d="M279 311.4c4.5-1.7 9.1-3.3 13.6-4.8 4.6-1.6 9.1-3.1 13.7-4.6 4.6-1.4 9.2-2.8 13.9-4 2.3-.6 4.7-1 7.1-1.4l7.1-1.1-7.1 1.3c-2.4.4-4.8.8-7.1 1.4-4.7 1.2-9.3 2.7-13.9 4.1s-9.2 2.9-13.8 4.5l-13.5 4.6zM316.4 292.6c-.4.4-.7.9-1.1 1.3l-1.1 1.3c-.4.4-.7.9-1.1 1.3-.4.4-.7.9-1.1 1.3.5-1 1.1-2 1.9-2.8.8-.9 1.6-1.7 2.5-2.4zM324.7 305.1c-1.8-.1-3.5-.3-5.2-.6-1.7-.3-3.4-.9-5-1.8.8.3 1.6.6 2.5.8.8.2 1.7.4 2.6.6.9.2 1.7.3 2.6.5l2.5.5zM317.3 311.4c-2.3-.7-4.6-1.5-6.8-2.4-2.2-.9-4.4-2-6.5-3.2 4.4 2 8.9 3.7 13.3 5.6zM306.2 291l-1.7 2.1c-.6.7-1.1 1.4-1.6 2.1-.5.7-1 1.4-1.5 2.2-.5.7-.9 1.5-1.2 2.4.1-.9.4-1.7.9-2.5.4-.8.9-1.5 1.5-2.2 1-1.6 2.2-2.9 3.6-4.1zM305.8 314.3c-2.1-.5-4.2-1.1-6.3-1.9-1-.4-2-.8-3-1.3s-1.9-1.2-2.6-2c.3.4.8.8 1.3 1 .5.3.9.5 1.4.8 1 .5 2 .9 3 1.3s2 .8 3.1 1.1l3.1 1zM295.9 295.4c-.4.7-.9 1.4-1.3 2.1-.4.7-.8 1.4-1.2 2.2-.4.7-.7 1.5-.9 2.2-.3.8-.5 1.6-.6 2.4 0-1.7.4-3.3 1.3-4.8.7-1.5 1.6-2.9 2.7-4.1z"/><path class="st5" d="M274.2 271.1c-5.9 1.4-2.3 9.6-3.6 12.5-1.3 2.9-6.5-5.6-7.9-2-1.4 3.6 5 11.6 4.7 12.2-1.2 2.1-7.9-2-7.6 1.9s12.7 8.1 9.1 9.8-6.1-3.2-7.3-.3 3.2 11.2 9.5 13 16.4-.6 18.7-4.9c2.3-4.3 4.7-10 1.4-9-3.4 1-7.5 1.2-6.4-1 1-1.9 9.8-10.8 4.9-10.8s-5.5 3.8-6.8 2c-1.4-1.8 6.4-9.8 5-11.5-1.4-1.7-3.3.3-7.5 1.2-4.2 1.1-.2-14.6-6.2-13.1z"/><path class="st2" d="M277.9 316.5c-1.2-7.1-2.1-14.2-2.7-21.4-.4-4.5-.4-8.9 0-13.4.1-1.2.9-6.7-.7-7.5-.1 0-.4.4-.6.3 1.6.7.8 5.9.8 7-.4 4.6-.4 9.2 0 13.8.6 7.2 1.5 14.3 2.7 21.4-.1 0 .5-.1.5-.2z"/><path class="st44" d="M24.2 255.9v3.5l27.4-15.8v-3.5zM54.6 238.3v3.6l6.1-3.6v-3.5zM45.5 250.6v3.6l24.4-14.1v-3.5z"/><path class="st45" d="M66.8 231.3v3.5l15.4-8.9v-3.5zM42.4 252.4v3.5l-9.1 5.3v-3.5z"/><path class="st44" d="M24.2 270v3.5l15.2-8.8v-3.5z"/><path class="st45" d="M42.4 259.4v3.6l15.3-8.8v-3.6z"/><path class="st44" d="M60.7 248.9v3.5l27.4-15.8v-3.5z"/><path class="st45" d="M72.9 234.8v3.5l6.1-3.5v-3.5z"/><path class="st44" d="M36.4 270l-.1 3.5 27.5-15.8v-3.5z"/><path class="st45" d="M66.8 252.4v3.5l6.1-3.5v-3.5zM75.9 247.1v3.5l15.3-8.7v-3.6z"/></g></g></svg>