<?xml version="1.0" encoding="utf-8"?>
<!-- Generator: Adobe Illustrator 21.0.2, SVG Export Plug-In . SVG Version: 6.00 Build 0)  -->
<svg version="1.1" id="Layer_1" xmlns="http://www.w3.org/2000/svg" xmlns:xlink="http://www.w3.org/1999/xlink" x="0px" y="0px"
	 viewBox="0 0 1081.1 816.1" style="enable-background:new 0 0 1081.1 816.1;" xml:space="preserve">
<style type="text/css">
	.st0{fill:#0B1527;}
	.st1{fill:#F3F3F3;}
	.st2{fill:url(#SVGID_1_);}
	.st3{fill:#FFFFFF;stroke:#1C3260;stroke-width:8.8248;stroke-miterlimit:10;}
	.st4{fill:#4DC3C6;}
	.st5{opacity:0.75;fill:#446DB5;enable-background:new    ;}
	.st6{fill:#1B1145;}
	.st7{fill:#2AAAE2;}
	.st8{fill:#4E4E4E;}
	.st9{fill:#F04F45;}
	.st10{fill:#FAA966;}
	.st11{opacity:0.27;}
	.st12{fill:none;stroke:#F04F45;stroke-width:0.7841;stroke-linecap:round;stroke-miterlimit:10;}
	.st13{fill:none;stroke:#0B1527;stroke-width:2.8287;stroke-miterlimit:10;}
	.st14{clip-path:url(#SVGID_3_);}
	.st15{fill:#08172E;}
	.st16{opacity:0.29;}
	.st17{fill:none;stroke:#FFFFFF;stroke-miterlimit:10;}
	.st18{opacity:0.66;}
	.st19{fill:#FFFFFF;}
	.st20{opacity:0.45;fill:#08172E;}
	.st21{opacity:0.74;fill:#FFFFFF;}
	.st22{fill:#0E1E39;}
	.st23{clip-path:url(#SVGID_5_);}
	.st24{clip-path:url(#SVGID_7_);fill:#F16465;}
	.st25{clip-path:url(#SVGID_9_);}
	.st26{clip-path:url(#SVGID_11_);fill:#F7A2A4;}
	.st27{clip-path:url(#SVGID_13_);}
	.st28{clip-path:url(#SVGID_15_);fill:#08172E;}
	.st29{clip-path:url(#SVGID_17_);}
	.st30{clip-path:url(#SVGID_19_);enable-background:new    ;}
	.st31{clip-path:url(#SVGID_21_);}
	.st32{clip-path:url(#SVGID_23_);}
	.st33{clip-path:url(#SVGID_25_);fill:#3C3292;}
	.st34{fill:#8D633A;}
	.st35{fill:#754D25;}
</style>
<g>
	<g>
		<path class="st0" d="M908.3,585.3c-14-0.9-11.5,19.8-16.2,25.3c-4.7,5.5-10.6-16.7-16-9.6c-5.5,7.1,3.4,28.9,2.1,30.2
			c-3.9,3.9-16-9.6-18.1-0.9c-2.1,8.7,22.5,26.3,13.5,27.8c-9,1.5-11.2-11.2-15.9-5.6c-4.7,5.5-0.5,27,12.2,35
			c12.7,8,36.6,9.7,44.5,1.8c7.9-7.9,17.3-18.9,9.1-19c-8.2,0-17.4-2.5-13.4-6.4c3.5-3.5,28.9-17.3,18.1-20.5
			c-10.8-3.2-14.6,4.7-16.5-0.1c-1.8-4.8,20.7-17.3,18.8-22.1c-1.8-4.8-7.5-1.6-17.4-2.5C903.1,617.8,922.3,586.1,908.3,585.3z"/>
		<g>
			<path class="st1" d="M885.6,687.8c1.5-11.3,3.3-22.5,5.4-33.7c1.6-8.8,3.4-17.5,5.6-26.1c0.9-3.5,1.9-7.1,3.1-10.5
				c1.6-4.4,3.6-8.6,5.1-13c1.1-3.1,2.3-6.6,2.2-10c0-0.6,0-1.8-0.5-2.2c-0.2-0.1-1.2,0.9-1.3,0.7c1.8,1.5-0.2,7.2-0.6,8.8
				c-2.3,8.3-6.3,16-8.6,24.3c-4.5,16.2-7.3,33-9.8,49.6c-0.7,4.3-1.3,8.5-1.9,12.8C884.4,688.2,885.6,688.1,885.6,687.8
				L885.6,687.8z"/>
		</g>
	</g>
	<linearGradient id="SVGID_1_" gradientUnits="userSpaceOnUse" x1="6.0206" y1="385.9775" x2="1079.3424" y2="385.9775">
		<stop  offset="0" style="stop-color:#FDE38D"/>
		<stop  offset="0.689" style="stop-color:#F16465"/>
	</linearGradient>
	<path class="st2" d="M124.5,161.5c247.3-297.8,775.9-85.8,870.5-37c27.8,14.3,71.1,37.4,82,80c14.8,57.8-44.9,93.2-66,214
		c-8.5,48.4-0.5,52.4-10,86c-22.5,80-86.9,125.4-130,156c-62.1,44.1-148.5,105.4-214,76c-52.9-23.7-48.2-86.7-112-108
		c-35-11.7-66.8-2.9-92,4c-87.7,24.2-101.5,82.2-172,114c-60.6,27.4-142,25.9-188-2C-26.2,672.1-29.5,346.9,124.5,161.5z"/>
	<g>
		<g>
			<path class="st3" d="M576.8,550.3H364.9c-13.3,0-24-10.8-24-24V419.5c0-13.3,10.8-24,24-24h211.9c13.3,0,24,10.8,24,24v106.8
				C600.9,539.6,590.1,550.3,576.8,550.3z"/>
		</g>
		<rect x="361.4" y="423.2" class="st4" width="90.4" height="9.6"/>
		<rect x="455.4" y="500.5" class="st5" width="90.4" height="9.6"/>
		<rect x="461.8" y="423.2" class="st5" width="28.8" height="9.6"/>
		<rect x="500.6" y="423.2" class="st4" width="47.7" height="9.6"/>
		<rect x="516.6" y="443.3" class="st4" width="17.8" height="9.6"/>
		<rect x="424.9" y="500.9" class="st4" width="17.8" height="9.6"/>
		<rect x="361.4" y="443" class="st5" width="17.8" height="9.6"/>
		<rect x="424.1" y="482.3" class="st4" width="46.6" height="9.6"/>
		<rect x="394.9" y="462.7" class="st4" width="47.7" height="9.6"/>
		<rect x="457.9" y="443" class="st4" width="47.7" height="9.6"/>
		<rect x="390.6" y="443.3" class="st5" width="56.2" height="9.6"/>
		<rect x="480.8" y="482.3" class="st5" width="56.2" height="9.6"/>
	</g>
	<g>
		<g>
			<polygon class="st6" points="790.3,708.9 846.7,708.9 846.7,520.1 846.7,475 790.3,443.7 			"/>
			
				<rect x="677.8" y="443.7" transform="matrix(-1 -4.485846e-11 4.485846e-11 -1 1468.0992 1152.5698)" class="st7" width="112.6" height="265.2"/>
		</g>
		<g>
			
				<rect x="686.3" y="468.7" transform="matrix(-1 -4.529411e-11 4.529411e-11 -1 1380.8195 945.522)" class="st8" width="8.2" height="8.2"/>
			<circle class="st9" cx="772.3" cy="472.3" r="2.9"/>
			<circle class="st9" cx="762.2" cy="472.3" r="2.9"/>
			<circle class="st9" cx="752.1" cy="472.3" r="2.9"/>
			<circle class="st10" cx="742" cy="472.3" r="2.9"/>
		</g>
		<g>
			
				<rect x="686.3" y="484.8" transform="matrix(-1 -4.485002e-11 4.485002e-11 -1 1380.8195 977.857)" class="st8" width="8.2" height="8.2"/>
			<circle class="st9" cx="772.3" cy="488.4" r="2.9"/>
			<circle class="st9" cx="762.2" cy="488.4" r="2.9"/>
			<circle class="st9" cx="752.1" cy="488.4" r="2.9"/>
			<circle class="st10" cx="742" cy="488.4" r="2.9"/>
		</g>
		<g class="st11">
			<line class="st12" x1="798.3" y1="461.1" x2="838.7" y2="484.4"/>
			<line class="st12" x1="798.3" y1="465.1" x2="838.7" y2="488.4"/>
			<line class="st12" x1="798.3" y1="469.1" x2="838.7" y2="492.5"/>
			<line class="st12" x1="798.3" y1="473.2" x2="838.7" y2="496.5"/>
			<line class="st12" x1="798.3" y1="477.2" x2="838.7" y2="500.5"/>
			<line class="st12" x1="798.3" y1="481.2" x2="838.7" y2="504.5"/>
			<line class="st12" x1="798.3" y1="485.2" x2="838.7" y2="508.5"/>
			<line class="st12" x1="798.3" y1="489.2" x2="838.7" y2="512.5"/>
			<line class="st12" x1="798.3" y1="493.3" x2="838.7" y2="516.6"/>
			<line class="st12" x1="798.3" y1="497.3" x2="838.7" y2="520.6"/>
			<line class="st12" x1="798.3" y1="501.3" x2="838.7" y2="524.6"/>
			<line class="st12" x1="798.3" y1="505.3" x2="838.7" y2="528.6"/>
			<line class="st12" x1="798.3" y1="509.3" x2="838.7" y2="532.6"/>
			<line class="st12" x1="798.3" y1="513.4" x2="838.7" y2="536.7"/>
			<line class="st12" x1="798.3" y1="517.4" x2="838.7" y2="540.7"/>
			<line class="st12" x1="798.3" y1="521.4" x2="838.7" y2="544.7"/>
			<line class="st12" x1="798.3" y1="525.4" x2="838.7" y2="548.7"/>
			<line class="st12" x1="798.3" y1="529.4" x2="838.7" y2="552.7"/>
			<line class="st12" x1="798.3" y1="533.5" x2="838.7" y2="556.8"/>
			<line class="st12" x1="798.3" y1="537.5" x2="838.7" y2="560.8"/>
			<line class="st12" x1="798.3" y1="541.5" x2="838.7" y2="564.8"/>
			<line class="st12" x1="798.3" y1="545.5" x2="838.7" y2="568.8"/>
			<line class="st12" x1="798.3" y1="549.5" x2="838.7" y2="572.8"/>
			<line class="st12" x1="798.3" y1="553.6" x2="838.7" y2="576.9"/>
			<line class="st12" x1="798.3" y1="557.6" x2="838.7" y2="580.9"/>
			<line class="st12" x1="798.3" y1="561.6" x2="838.7" y2="584.9"/>
			<line class="st12" x1="798.3" y1="565.6" x2="838.7" y2="588.9"/>
			<line class="st12" x1="798.3" y1="569.6" x2="838.7" y2="592.9"/>
			<line class="st12" x1="798.3" y1="573.6" x2="838.7" y2="597"/>
			<line class="st12" x1="798.3" y1="577.7" x2="838.7" y2="601"/>
			<line class="st12" x1="798.3" y1="581.7" x2="838.7" y2="605"/>
			<line class="st12" x1="798.3" y1="585.7" x2="838.7" y2="609"/>
			<line class="st12" x1="798.3" y1="589.7" x2="838.7" y2="613"/>
			<line class="st12" x1="798.3" y1="593.7" x2="838.7" y2="617"/>
			<line class="st12" x1="798.3" y1="597.8" x2="838.7" y2="621.1"/>
			<line class="st12" x1="798.3" y1="601.8" x2="838.7" y2="625.1"/>
			<line class="st12" x1="798.3" y1="605.8" x2="838.7" y2="629.1"/>
			<line class="st12" x1="798.3" y1="609.8" x2="838.7" y2="633.1"/>
			<line class="st12" x1="798.3" y1="613.8" x2="838.7" y2="637.1"/>
			<line class="st12" x1="798.3" y1="617.9" x2="838.7" y2="641.2"/>
			<line class="st12" x1="798.3" y1="621.9" x2="838.7" y2="645.2"/>
			<line class="st12" x1="798.3" y1="625.9" x2="838.7" y2="649.2"/>
			<line class="st12" x1="798.3" y1="629.9" x2="838.7" y2="653.2"/>
			<line class="st12" x1="798.3" y1="633.9" x2="838.7" y2="657.2"/>
			<line class="st12" x1="798.3" y1="638" x2="838.7" y2="661.3"/>
			<line class="st12" x1="798.3" y1="642" x2="838.7" y2="665.3"/>
			<line class="st12" x1="798.3" y1="646" x2="838.7" y2="669.3"/>
			<line class="st12" x1="798.3" y1="650" x2="838.7" y2="673.3"/>
			<line class="st12" x1="798.3" y1="654" x2="838.7" y2="677.3"/>
			<line class="st12" x1="798.3" y1="658.1" x2="838.7" y2="681.4"/>
			<line class="st12" x1="798.3" y1="662.1" x2="838.7" y2="685.4"/>
			<line class="st12" x1="798.3" y1="666.1" x2="838.7" y2="689.4"/>
			<line class="st12" x1="798.3" y1="670.1" x2="838.7" y2="693.4"/>
			<line class="st12" x1="798.3" y1="674.1" x2="838.7" y2="697.4"/>
			<line class="st12" x1="798.3" y1="678.1" x2="838.7" y2="701.5"/>
			<line class="st12" x1="798.3" y1="682.2" x2="838.7" y2="705.5"/>
		</g>
	</g>
	<g>
		<path class="st0" d="M304.9,641.9c0.5,0.2,1-0.1,1.1-0.6c0.9-5.7,4.9-34.5-2.5-33.5c-8.2,1.1-15,17.5-8.8,25.2
			C299.3,638.8,303.2,641.1,304.9,641.9z"/>
		<path class="st0" d="M283.4,680.7c-0.1-0.5,0.3-1,0.8-1c5.8,0.4,34.7,2.6,32.2,9.6c-2.9,7.7-20.3,10.9-26.5,3.2
			C285.3,686.8,283.9,682.5,283.4,680.7z"/>
		<path class="st0" d="M311.6,645c0,0,27.4-2.1,21.4,6.3c-5.9,8.4-24.3,10.4-29.4,1.8C298.5,644.6,302.5,645,311.6,645z"/>
		<path class="st0" d="M286.2,696.9c0,0,23.8,9.8,16,15c-7.8,5.2-23.9-0.8-25.4-10.9C275.3,690.9,278.5,693,286.2,696.9z"/>
		<path class="st0" d="M259.8,736.3c0,0,23.8,9.8,16,15c-7.8,5.2-23.9-0.8-25.4-10.9C248.9,730.3,252.2,732.4,259.8,736.3z"/>
		<path class="st0" d="M282.9,661.7c0,0-7.4-26.5-13.3-18c-5.9,8.4-1.6,26.4,8.3,28.2C287.8,673.8,286,670.2,282.9,661.7z"/>
		<path class="st0" d="M250.8,707.4c0,0,15,19.3,5.6,17.1c-9.5-2.2-20.1-14.9-15.9-20.8C244.7,697.9,246.3,700.8,250.8,707.4z"/>
		<path class="st0" d="M328.7,627c3.8-2.2,7.4-4.9,9.8-8.7c1-1.6,1.9-3.1,2.6-4.9c0.6-1.8,1-3.6,1.1-5.4c0.1-1.8,0-3.7-0.4-5.4
			c-0.2-1-0.6-2-1.4-2.5c-0.9-0.6-2.2-0.4-3.3,0c-2,0.7-3.7,1.9-5.4,3.2c-4.6,3.6-8.6,7.9-12.3,12.4c-3.3,4-6.5,8.3-8.4,13.2
			c-0.6,1.5-1,3.3,0.2,4.4c0.6,0.6,1.6,0.8,2.5,0.6c0.9-0.2,1.7-0.6,2.5-1c4-2,8.3-3.7,12.2-5.9C328.5,627.1,328.6,627.1,328.7,627z
			"/>
		<path class="st0" d="M295.2,654.3c0,0-7.5-41.5-13.7-30.4c-3.2,5.6-2.5,12.5-0.5,18.4c1.1,3.3,2.9,6.3,5.2,8.9
			c1.1,1.3,2.4,2.5,3.7,3.6c1,0.8,3,3,4.4,2.8C295.7,657.3,295.3,655.3,295.2,654.3z"/>
		<path class="st0" d="M243.9,740.1c0,0-13.7-33-16.9-22.7c-1.6,5.2,0.2,10.8,2.9,15.3c1.5,2.5,3.6,4.7,6,6.4
			c1.2,0.9,2.4,1.6,3.7,2.3c1,0.5,3.1,2,4.2,1.5C244.9,742.6,244.2,740.9,243.9,740.1z"/>
		<path class="st0" d="M268.7,709.5c0,0-11-30.3-14.3-21.1c-1.6,4.6-0.3,9.8,2,13.9c1.3,2.3,3,4.4,5.1,6c1,0.8,2.1,1.6,3.3,2.2
			c0.8,0.5,2.7,1.9,3.7,1.5C269.5,711.7,268.9,710.2,268.7,709.5z"/>
		<path class="st0" d="M278.6,688.2c0,0-17.6-38.3-20.9-26c-1.7,6.2,0.7,12.8,4.1,18c1.9,2.9,4.4,5.4,7.3,7.3c1.4,1,2.9,1.8,4.5,2.6
			c1.2,0.6,3.7,2.2,5,1.6C279.9,691.1,279,689.2,278.6,688.2z"/>
		<path class="st0" d="M294.5,659.1c0,0,40.9,10.5,29.3,15.9c-5.8,2.7-12.7,1.6-18.4-0.8c-3.2-1.4-6.1-3.4-8.5-5.9
			c-1.2-1.2-2.3-2.6-3.3-4c-0.8-1-2.8-3.2-2.5-4.6C291.5,658.4,293.5,658.9,294.5,659.1z"/>
		<path class="st0" d="M268.7,714.7c0,0,31.8,14.4,21.6,17.2c-5.1,1.4-10.6-0.5-14.9-3.3c-2.4-1.6-4.5-3.6-6.1-6
			c-0.8-1.2-1.5-2.4-2.1-3.7c-0.5-1-1.8-3-1.3-4.1C266.4,713.7,268,714.4,268.7,714.7z"/>
		<path class="st13" d="M315.3,629.3c0,0-26.4,30.3-31,44.9c-5.2,16.4-11.9,32.5-23.1,45.8c-13.9,16.6-30.8,33.9-28.1,46.2"/>
	</g>
	<g>
		<path class="st0" d="M822.8,699.5c0.9,2.4-2,5.9-4.1,8.5c-8.9,11.2-18.6,21.9-30.2,30.2c-11.6,8.3-25.2,14.3-39.5,15
			c-22.4,1.2-43.5-10-65.7-12.7c3.8-8.9,8.4-17.4,13.6-25.5c5.3-8.2,11.4-16.2,19.8-21.1c12.9-7.6,28.8-7,43.8-5.9
			c19.9,1.5,39.8,3.6,59,9.1C821.4,697.7,822.4,698.5,822.8,699.5z"/>
		<path class="st1" d="M686.1,739.5l15.7-5.7l15.7-5.5c10.5-3.6,21.1-7.1,31.7-10.5c10.6-3.3,21.2-6.6,32-9.3
			c5.4-1.4,10.9-2.3,16.4-3.2l16.5-2.6l-16.4,3c-5.5,0.9-10.9,1.9-16.3,3.4c-10.7,2.8-21.4,6.1-32,9.5c-10.6,3.3-21.2,6.8-31.7,10.3
			L686.1,739.5z"/>
		<path class="st1" d="M772.3,696.2c-0.8,1-1.7,2-2.6,3l-2.6,2.9c-0.9,1-1.7,1.9-2.6,2.9c-0.8,1-1.6,2-2.4,3.1
			c0.5-1.2,1.2-2.4,1.9-3.4c0.7-1.1,1.6-2.1,2.4-3.1c0.9-1,1.8-1.9,2.7-2.8C770.3,697.8,771.3,696.9,772.3,696.2z"/>
		<path class="st1" d="M791.5,724.9c-2,0-4.1-0.2-6.1-0.5c-2-0.2-4-0.6-6-1c-2-0.4-4-0.9-5.9-1.5c-1.9-0.6-3.9-1.4-5.6-2.5
			c0.5,0.2,0.9,0.4,1.4,0.6l1.4,0.5c1,0.3,1.9,0.6,2.9,0.8c2,0.5,3.9,1,5.9,1.3c2,0.4,4,0.8,6,1.2L791.5,724.9z"/>
		<path class="st1" d="M774.5,739.5c-2.7-0.8-5.3-1.7-7.9-2.6c-2.6-0.9-5.2-2-7.7-3c-2.5-1.1-5.1-2.2-7.6-3.4
			c-2.5-1.2-5-2.5-7.3-3.9c2.5,1.2,5,2.3,7.6,3.4c2.5,1.1,5.1,2.2,7.6,3.2c2.5,1.1,5.1,2.1,7.7,3.2
			C769.4,737.3,771.9,738.4,774.5,739.5z"/>
		<path class="st1" d="M748.7,692.5l-3.8,4.8c-1.3,1.6-2.5,3.2-3.7,4.8c-1.2,1.6-2.4,3.3-3.5,5l-0.8,1.3l-0.7,1.3
			c-0.2,0.5-0.4,0.9-0.6,1.4c-0.2,0.5-0.3,1-0.5,1.5c0.2-2.1,1.1-4,2.1-5.8c1-1.8,2.1-3.5,3.4-5.2c1.2-1.6,2.5-3.2,3.9-4.7
			C745.8,695.3,747.2,693.9,748.7,692.5z"/>
		<path class="st1" d="M748,746.1c-2.5-0.5-4.9-1.2-7.3-1.9c-2.4-0.7-4.8-1.6-7.2-2.4c-2.3-0.9-4.7-1.9-6.9-3.1
			c-1.1-0.6-2.2-1.2-3.3-2c-1-0.8-2-1.6-2.7-2.7c0.8,1,1.8,1.7,2.9,2.4c1.1,0.7,2.2,1.2,3.3,1.8c2.3,1.1,4.6,2,6.9,2.9
			c2.3,0.9,4.7,1.7,7.1,2.6L748,746.1z"/>
		<path class="st1" d="M725,702.5c-1,1.6-2,3.2-3,4.9c-0.9,1.6-1.9,3.3-2.7,5c-0.9,1.7-1.7,3.4-2.3,5.2c-0.2,0.4-0.3,0.9-0.5,1.3
			c-0.1,0.5-0.3,0.9-0.4,1.4c-0.1,0.5-0.2,0.9-0.3,1.4c-0.1,0.5-0.1,0.9-0.2,1.4c-0.2-1.9,0.2-3.9,0.8-5.7c0.5-1.9,1.3-3.6,2.2-5.3
			c0.9-1.7,1.8-3.4,2.9-5C722.5,705.5,723.7,703.9,725,702.5z"/>
	</g>
	<g>
		<path class="st0" d="M672.5,632.3c-13.7,3.3-5.2,22.3-8.1,28.9c-2.9,6.7-15-12.9-18.1-4.5s11.6,26.7,10.8,28.2
			c-2.6,4.9-18.1-4.5-17.6,4.4s29.2,18.6,21.1,22.7c-8.1,4.1-13.9-7.4-16.8-0.8s7.4,25.9,21.9,29.9c14.5,4,37.9-1.4,43.1-11.2
			c5.2-9.8,11-23.2,3.1-20.8c-7.9,2.4-17.4,2.7-14.7-2.2c2.3-4.4,22.6-25,11.3-24.9s-12.6,8.7-15.8,4.7c-3.2-4,14.7-22.6,11.5-26.6
			c-3.2-4-7.6,0.6-17.4,2.7C677,664.9,686.1,629.1,672.5,632.3z"/>
		<g>
			<path class="st1" d="M680.9,737.2c-1.9-11.2-3.4-22.5-4.7-33.8c-1-8.8-1.9-17.7-2.2-26.6c-0.2-3.8-0.2-7.6,0-11.4
				c0.2-4.7,1-9.3,1.1-14c0.1-3.2,0.2-6.7-0.9-9.8c-0.2-0.5-0.5-1.6-1.1-1.9c-0.3-0.1-1,0.9-1.3,0.7c2.1,0.8,1.9,6.7,2,8.2
				c0.3,8.6-1.3,17-1.1,25.6c0.4,17,2.7,34,5.1,50.9c0.6,4.3,1.2,8.5,2,12.8C679.5,737.7,680.9,737.3,680.9,737.2L680.9,737.2z"/>
		</g>
	</g>
	<g>
		<defs>
			<path id="SVGID_2_" d="M126.8,161.5c247.3-297.8,775.9-85.8,870.5-37c27.8,14.3,71.1,37.4,82,80c14.8,57.8-44.9,93.2-66,214
				c-8.5,48.4-0.5,52.4-10,86c-22.5,80-86.9,125.4-130,156c-62.1,44.1-148.5,105.4-214,76c-52.9-23.7-48.2-86.7-112-108
				c-35-11.7-66.8-2.9-92,4c-87.7,24.2-101.5,82.2-172,114c-60.6,27.4-142,25.9-188-2C-23.9,672.1-27.1,346.9,126.8,161.5z"/>
		</defs>
		<clipPath id="SVGID_3_">
			<use xlink:href="#SVGID_2_"  style="overflow:visible;"/>
		</clipPath>
		<g class="st14">
			<g>
				<polygon class="st15" points="962.9,680.7 962.9,-39 857.2,-39 858.5,705.7 962.9,705.7 				"/>
				<g class="st16">
					<path class="st17" d="M886.1,666.7c3.4-33.2,4.1-61.2,4-82c0-6-0.3-29.4-2.7-60c-2.1-26.8-4.2-37.7-6.7-69.3
						c-1.5-18.4-2.2-33.5-2.7-43.3"/>
					<path class="st17" d="M955.4-11.3c-1.1,17.7-2.2,41.8-2,70.7c0,7.8,0.2,16.7,1.3,50.7c0.6,19,1.5,43.7,2.7,72.7"/>
					<path class="st17" d="M944.1,284c-1.6-14.5-3.7-36.2-4.7-62.7c-0.7-19.2-0.5-30.8-0.7-64c-0.1-15.8-0.2-38.2-0.7-65.3"/>
					<path class="st17" d="M933.4,36.7c0.7-8,1-17,0.7-26.7c-0.4-12.2-1.7-23.1-3.3-32.7"/>
					<path class="st17" d="M887.4,36c0.2,8.7,0.6,22.4,2,39.3c3,37.7,6.8,43.6,6.7,67.3c0,5.5-1.1,10.6-2.8,29.9
						c-1.1,12.8-1.7,19.2-1.9,23.5c-1.4,25.8,2.5,54.6,6,54.7c2.9,0.1,6-19.8,6.7-34c0.6-13-0.7-23.8-2-31.3"/>
					<path class="st17" d="M920.1,248.7c-5.2,19.4-4.8,34.3-3.3,44.7c1.2,8.2,3.3,15.5,4,28.7c0.6,10.6,0,19.4-0.7,25.3"/>
					<path class="st17" d="M940.8,681.3c-3-26-5.3-52.9-6.7-80.7c-0.3-5.1-0.5-10.3-0.7-15.3"/>
					<path class="st17" d="M933.4,562c-1.8-10.5-2.5-19.8-2.7-27.3c-0.4-16.1,1.6-23.9,2-42.7c0.2-10.6-0.1-19.9-0.7-27.3"/>
					<path class="st17" d="M868.8,340.7c1.1-12.4,2.2-31.9,0.7-56c-1.5-24.4-4.6-34.9-6-56.7c-1-15.2-1.3-37.8,2.7-66"/>
				</g>
			</g>
			<g>
				<g>
					<g class="st18">
						<path class="st19" d="M200.1,264.2c0.6,0,1.4,0,1.9,0.1c46.6,2.1,94.8,12,140.9,4.6c10.3-1.7,15.9-4.4,25.3-3.9
							c9.7,0.5,15.7,4.5,25.2,6.5c14.6,3.1,29.9,2.2,44.6-1.6c1.1-0.3,2.4-0.7,2.9-1.8c0.8-1.7-0.3-3.5-1.6-4.6
							c-6.1-5.8-14.9-10.7-22.5-13c-28.2-8.4-56.8-1.4-84.3-11.8c23.3-9.1,49.5-4.4,73.1,0c5.3,1,10.1,1.9,14.7,1.3
							c4.6-0.7,9.8-3,10.1-7.5c1.2-18.9-68.9-24.5-82.3-24.8c-25.8-0.5-47.2,1.3-72-1.7c7.7-5.6,14.6-11.5,19.1-19.7
							c1.3-2.4,2.8-4.2,1.9-6.8c-1.9-5.4-5.9-5.9-12.4-6c-20.9-0.3-40.9-0.6-63,2.5c-22.1,3.2-46.9,11.3-69.7,14.5
							c-10.4,3.2-22.6,6.2-28.7,15.6c-4.1,6.3-4.7,12.3-2.8,19.4c4.3,16,14.9,26.4,30.7,32.3C166.6,263.5,183.8,263.5,200.1,264.2z"
							/>
					</g>
					<g>
						<polygon class="st20" points="710.3,418.7 710.3,-301.1 682.6,-301.1 682.9,443.7 710.3,443.7 						"/>
						<polygon class="st20" points="852.3,725.5 852.3,5.7 793.6,5.7 794.3,750.5 852.3,750.5 						"/>
						<polygon class="st20" points="273.2,778.5 273.2,58.8 252.6,58.8 252.8,803.5 273.2,803.5 						"/>
						<polygon class="st20" points="999.3,648.9 999.3,-70.8 975.5,-70.8 975.8,673.9 999.3,673.9 						"/>
					</g>
					<path class="st21" d="M461.9,149.6c-50.2-5.7-102.2,4.4-152.3-3.6c2.9-4.4,12.6-4.6,20.3-5.2c7.7-0.6,16.9-4.7,13.1-8.8
						c-2.4-2.6-8.3-2.8-13.1-2.7c-15.2,0.3-30.4,0.5-45.5,0.8c-4.5,0.1-9.4,0.1-13.3-1.3c-3.9-1.4-6.2-4.8-3.5-7
						c0.8-0.7,2-1.1,3.1-1.6c14.4-5.7,28.7-11.5,43.1-17.2c8.8-3.5,18-7.1,28.4-8.2c12.3-1.2,24.7,1.4,35.6,5.1
						c8.1,2.8,18,6.2,26,3.3c3.4-1.2,5.4-3.4,7.7-5.3c30.8-26.3,99.5-16.9,139.5-4.9c5.3,1.6,11.1,3.9,11.8,7.4
						c1.1,5.5-9.9,8.5-18.6,10.3c-8.7,1.8-18.8,6.7-14.4,11.6c3.5,3.9,12.8,3.4,19.9,2.5c25.6-3.1,52.1-3.8,78.1-2.1
						c2.9,0.2,6.2,0.5,7.8,2c1.9,1.7,0.9,4-0.4,5.9c-10.5,15.1-34.5,25.5-60.1,30.8c-25.6,5.3-53,6-80,6.7
						c-36.3,1-72.6,1.9-108.9,2.9c5.9,0,26.6-12.1,34-14.2C433.4,153,447.6,150.7,461.9,149.6z"/>
					<path class="st21" d="M779.4,292.1c-50.2-5.7-102.2,4.4-152.3-3.6c2.9-4.4,12.6-4.6,20.3-5.2c7.7-0.6,16.9-4.7,13.1-8.8
						c-2.4-2.6-8.3-2.8-13.1-2.7c-15.2,0.3-30.4,0.5-45.5,0.8c-4.5,0.1-9.4,0.1-13.3-1.3c-3.9-1.4-6.2-4.8-3.5-7
						c0.8-0.7,2-1.1,3.1-1.6c14.4-5.7,28.7-11.5,43.1-17.2c8.8-3.5,18-7.1,28.4-8.2c12.3-1.2,24.7,1.4,35.6,5.1
						c8.1,2.8,18,6.2,26,3.3c3.4-1.2,5.4-3.4,7.7-5.3c30.8-26.3,99.5-16.9,139.5-4.9c5.3,1.6,11.1,3.9,11.8,7.4
						c1.1,5.5-9.9,8.5-18.6,10.3c-8.7,1.8-18.8,6.7-14.4,11.6c3.5,3.9,12.8,3.4,19.9,2.5c25.6-3.1,52.1-3.8,78.1-2.1
						c2.9,0.2,6.2,0.5,7.8,2c1.9,1.7,0.9,4-0.4,5.9c-10.5,15.1-34.5,25.5-60.1,30.8c-25.6,5.3-53,6-80,6.7c-36.3,1-72.6,2-108.9,2.9
						c5.9,0,26.6-12.1,34-14.2C750.9,295.5,765,293.2,779.4,292.1z"/>
					<g>
						<g>
							<path class="st0" d="M335,127.8c-0.4,2.6-4.6,4.1-7.7,5.4c-13.3,5.3-27,9.8-41.2,11.3c-14.2,1.5-29-0.1-41.8-6.5
								c-20-10-32.8-30.2-50.8-43.6c7.7-5.8,15.9-11,24.4-15.4c8.6-4.5,18-8.4,27.7-8.5c15-0.2,28.5,8.2,40.9,16.5
								c16.5,11.2,32.8,22.9,46.7,37.2C334.7,125.6,335.2,126.8,335,127.8z"/>
							<path class="st1" d="M196.4,94.8l16.4,2.8l16.4,3c10.9,2.1,21.8,4.3,32.7,6.6c10.9,2.4,21.7,4.8,32.4,7.8
								c5.4,1.4,10.6,3.4,15.8,5.4l15.6,5.9l-15.7-5.6c-5.2-1.9-10.4-3.8-15.8-5.1c-10.7-2.9-21.6-5.3-32.5-7.6
								c-10.9-2.4-21.8-4.6-32.7-6.8L196.4,94.8z"/>
							<path class="st1" d="M292.8,99.9c-1.2,0.5-2.5,0.9-3.7,1.3l-3.7,1.3c-1.2,0.4-2.5,0.8-3.7,1.3c-1.2,0.4-2.4,0.9-3.6,1.5
								c1-0.8,2.2-1.5,3.4-2c1.2-0.6,2.4-1,3.7-1.5c1.2-0.4,2.5-0.8,3.8-1.1C290.2,100.4,291.5,100.1,292.8,99.9z"/>
							<path class="st1" d="M295.3,134.4c-1.7-1-3.4-2.2-5-3.4c-1.6-1.2-3.2-2.5-4.7-3.8c-1.5-1.3-3-2.7-4.4-4.3
								c-1.4-1.5-2.7-3.1-3.6-4.9c0.3,0.4,0.6,0.8,0.9,1.2l1,1.1c0.7,0.7,1.4,1.5,2.1,2.2c1.4,1.4,2.9,2.8,4.5,4.1
								c1.5,1.3,3.1,2.6,4.6,4L295.3,134.4z"/>
							<path class="st1" d="M273.2,138.6c-1.9-2-3.8-4.1-5.6-6.2c-1.8-2.1-3.5-4.3-5.3-6.4c-1.7-2.2-3.3-4.4-4.9-6.7
								c-1.6-2.3-3.1-4.6-4.4-7.1c1.6,2.3,3.2,4.5,4.9,6.7c1.7,2.2,3.3,4.4,5,6.6c1.7,2.2,3.4,4.4,5.1,6.5
								C269.8,134.2,271.6,136.4,273.2,138.6z"/>
							<path class="st1" d="M274.1,85l-5.7,2.2c-1.9,0.8-3.8,1.5-5.6,2.3c-1.9,0.8-3.7,1.7-5.5,2.6L256,93l-1.3,0.8
								c-0.4,0.3-0.8,0.6-1.2,0.9c-0.4,0.3-0.7,0.7-1.1,1c1.2-1.7,2.9-2.9,4.7-4c1.8-1.1,3.6-2,5.5-2.8c1.9-0.8,3.8-1.5,5.7-2.2
								C270.1,86.1,272.1,85.5,274.1,85z"/>
							<path class="st1" d="M246.9,131.2c-1.9-1.7-3.7-3.5-5.4-5.3c-1.7-1.8-3.4-3.7-5-5.7c-1.6-2-3.1-4-4.5-6.1
								c-0.7-1.1-1.3-2.2-1.8-3.3c-0.5-1.2-1-2.4-1-3.7c0.2,1.3,0.7,2.4,1.3,3.5c0.6,1.1,1.3,2.1,2,3.2c1.4,2,3,4,4.6,5.9
								c1.6,2,3.2,3.9,4.9,5.8L246.9,131.2z"/>
							<path class="st1" d="M248.5,81.9c-1.7,0.9-3.4,1.8-5,2.8c-1.6,1-3.3,1.9-4.8,3c-1.6,1-3.1,2.1-4.6,3.4
								c-0.4,0.3-0.7,0.6-1.1,0.9c-0.3,0.3-0.7,0.6-1,1c-0.3,0.3-0.7,0.7-1,1c-0.3,0.4-0.6,0.8-0.9,1.1c0.8-1.7,2.1-3.2,3.5-4.6
								c1.4-1.4,2.9-2.5,4.5-3.6c1.6-1.1,3.3-2,5-2.9C245,83.3,246.7,82.6,248.5,81.9z"/>
						</g>
						<g>
							<path class="st0" d="M327.2,97.9c-0.5,1.8-3.6,2.6-6,3.2c-9.9,2.7-20.1,4.8-30.3,4.7c-10.3-0.1-20.7-2.5-29.3-8.1
								c-13.5-8.8-20.9-24.3-32.6-35.3c6-3.5,12.3-6.5,18.7-9c6.5-2.5,13.5-4.5,20.5-3.8c10.7,1.1,19.7,8.2,27.9,15.2
								c10.9,9.3,21.5,19.1,30.3,30.4C327.2,96.3,327.4,97.2,327.2,97.9z"/>
							<path class="st1" d="M231,62.9l11.5,3.4l11.4,3.6c7.6,2.4,15.2,4.8,22.8,7.4c7.6,2.6,15.1,5.3,22.5,8.3
								c3.7,1.5,7.3,3.3,10.8,5.1l10.6,5.5L310,90.9c-3.6-1.8-7.1-3.6-10.9-5c-7.4-3-15-5.5-22.5-8.1c-7.6-2.6-15.1-5.1-22.7-7.6
								L231,62.9z"/>
							<path class="st1" d="M299.4,74.5c-0.9,0.2-1.8,0.4-2.7,0.6l-2.7,0.6c-1.8,0.4-3.6,0.8-5.4,1.4c0.8-0.5,1.7-0.9,2.6-1.2
								c0.9-0.3,1.8-0.5,2.7-0.8c0.9-0.2,1.9-0.4,2.8-0.5C297.5,74.6,298.4,74.5,299.4,74.5z"/>
							<path class="st1" d="M298.3,99.3c-1.2-0.9-2.2-1.9-3.3-2.9c-1.1-1-2.1-2.1-3.1-3.1c-1-1.1-1.9-2.2-2.8-3.4
								c-0.8-1.2-1.6-2.4-2.2-3.8c0.7,1.3,1.6,2.4,2.5,3.5c0.9,1.1,1.8,2.2,2.8,3.3c1,1.1,2,2.1,3,3.2L298.3,99.3z"/>
							<path class="st1" d="M282.2,100.5c-1.2-1.6-2.3-3.2-3.5-4.9c-1.1-1.7-2.2-3.3-3.2-5c-1-1.7-2-3.4-2.9-5.2
								c-0.9-1.8-1.8-3.6-2.6-5.4c1.9,3.5,3.9,6.9,6,10.3c1,1.7,2.1,3.4,3.1,5.1L282.2,100.5z"/>
							<path class="st1" d="M287.3,62.3c-2.8,0.8-5.7,1.5-8.5,2.3c-1.4,0.4-2.8,0.9-4.1,1.4c-1.4,0.5-2.7,1.1-3.8,2.1
								c1-1.1,2.3-1.9,3.7-2.5c1.3-0.6,2.7-1.1,4.1-1.6c1.4-0.4,2.8-0.8,4.3-1.1C284.4,62.7,285.8,62.5,287.3,62.3z"/>
							<path class="st1" d="M264,93.1c-1.2-1.4-2.3-2.8-3.4-4.2c-1.1-1.4-2.1-2.9-3.1-4.5c-0.9-1.5-1.9-3.1-2.7-4.7
								c-0.7-1.6-1.5-3.4-1.4-5.2c0.1,0.9,0.3,1.8,0.7,2.6c0.3,0.8,0.7,1.6,1.2,2.4c0.9,1.6,1.8,3.1,2.8,4.6c1,1.5,2,3,3,4.5
								L264,93.1z"/>
							<path class="st1" d="M269.3,58c-1.3,0.5-2.5,1-3.8,1.6c-1.3,0.5-2.5,1.1-3.7,1.7c-1.2,0.6-2.4,1.3-3.5,2
								c-1.1,0.8-2.2,1.6-3.1,2.6c0.7-1.2,1.8-2.1,2.9-3c1.1-0.8,2.3-1.5,3.5-2.2c1.2-0.6,2.5-1.2,3.8-1.6
								C266.6,58.7,267.9,58.3,269.3,58z"/>
						</g>
						<g>
							<path class="st0" d="M500.3,83.6c-1.7-0.9-1.7-4.1-1.8-6.5c-0.4-10.3-0.2-20.6,2.2-30.6c2.4-10,7-19.6,14.4-26.8
								c11.6-11.2,28.3-15,41.7-24c2.1,6.6,3.6,13.4,4.6,20.3c1,6.9,1.4,14.2-0.8,20.8c-3.4,10.2-12.4,17.4-21,23.8
								c-11.5,8.5-23.3,16.8-36.3,22.8C501.9,83.9,501,83.9,500.3,83.6z"/>
							<path class="st1" d="M555.8-2.5l-5.9,10.5l-6,10.4c-4,6.9-8.1,13.8-12.2,20.6c-4.2,6.8-8.5,13.6-13.1,20.1
								c-2.2,3.3-4.8,6.4-7.4,9.4l-7.7,9.1l7.5-9.3c2.5-3.1,5.1-6.2,7.3-9.5c4.5-6.6,8.7-13.4,12.9-20.2c4.2-6.8,8.3-13.6,12.4-20.5
								L555.8-2.5z"/>
							<path class="st1" d="M529.3,61.6c0-0.9,0-1.9,0-2.8l0-2.8c0-1.9,0-3.7-0.1-5.6c0.3,0.9,0.5,1.8,0.6,2.8
								c0.1,0.9,0.1,1.9,0.1,2.8c0,0.9-0.1,1.9-0.2,2.8C529.6,59.7,529.5,60.7,529.3,61.6z"/>
							<path class="st1" d="M505.4,55c1.1-0.9,2.3-1.8,3.5-2.6c1.2-0.8,2.5-1.6,3.7-2.3c1.3-0.7,2.6-1.4,3.9-1.9
								c1.4-0.6,2.7-1.1,4.2-1.3c-1.4,0.4-2.7,1-4,1.7c-1.3,0.6-2.6,1.3-3.8,2c-1.3,0.7-2.5,1.4-3.8,2.2L505.4,55z"/>
							<path class="st1" d="M507.8,39.1c1.8-0.8,3.7-1.6,5.5-2.3c1.9-0.7,3.7-1.4,5.6-2c1.9-0.6,3.8-1.2,5.7-1.7
								c1.9-0.5,3.9-1,5.8-1.3c-3.8,1.1-7.6,2.3-11.4,3.6c-1.9,0.6-3.8,1.3-5.6,1.9L507.8,39.1z"/>
							<path class="st1" d="M543.9,52.5c-0.1-2.9-0.2-5.9-0.4-8.8c-0.1-1.5-0.2-2.9-0.5-4.3c-0.2-1.4-0.5-2.9-1.2-4.2
								c0.9,1.2,1.3,2.7,1.6,4.1c0.3,1.4,0.5,2.9,0.6,4.4c0.1,1.5,0.1,2.9,0.1,4.4C544.1,49.5,544.1,51,543.9,52.5z"/>
							<path class="st1" d="M519,23c1.6-0.9,3.2-1.7,4.9-2.4c1.7-0.7,3.3-1.4,5-2.1c1.7-0.6,3.4-1.2,5.2-1.6
								c1.8-0.4,3.6-0.8,5.4-0.3c-0.9-0.1-1.8-0.1-2.7,0.1c-0.9,0.1-1.8,0.4-2.6,0.6c-1.7,0.5-3.4,1.1-5.1,1.7
								c-1.7,0.6-3.4,1.3-5.1,1.9L519,23z"/>
							<path class="st1" d="M552.1,35.9c-0.2-1.4-0.4-2.7-0.7-4.1c-0.3-1.3-0.5-2.7-0.9-4c-0.3-1.3-0.7-2.6-1.2-3.9
								c-0.5-1.3-1.1-2.5-1.9-3.6c1,1,1.7,2.2,2.3,3.5c0.6,1.3,1,2.6,1.3,3.9c0.3,1.3,0.6,2.7,0.7,4.1
								C552,33.1,552.1,34.5,552.1,35.9z"/>
						</g>
						<g>
							<path class="st0" d="M790.3,141.1c-1.7-0.9-1.7-4.1-1.8-6.5c-0.4-10.3-0.2-20.6,2.2-30.6s7-19.6,14.4-26.8
								c11.6-11.2,28.3-15,41.7-24c2.1,6.6,3.6,13.4,4.6,20.3c1,6.9,1.4,14.2-0.8,20.8c-3.4,10.2-12.4,17.4-21,23.8
								c-11.5,8.5-23.3,16.8-36.3,22.8C791.9,141.5,791,141.5,790.3,141.1z"/>
							<path class="st1" d="M845.8,55l-5.9,10.5l-6,10.4c-4,6.9-8.1,13.8-12.2,20.6c-4.2,6.8-8.5,13.6-13.1,20.1
								c-2.2,3.3-4.8,6.4-7.4,9.4l-7.7,9.1l7.5-9.3c2.5-3.1,5.1-6.2,7.3-9.5c4.5-6.6,8.7-13.4,12.9-20.2c4.2-6.8,8.3-13.6,12.4-20.5
								L845.8,55z"/>
							<path class="st1" d="M819.3,119.2c0-0.9,0-1.9,0-2.8l0-2.8c0-1.9,0-3.7-0.1-5.6c0.3,0.9,0.5,1.8,0.6,2.8
								c0.1,0.9,0.1,1.9,0.1,2.8c0,0.9-0.1,1.9-0.2,2.8C819.6,117.3,819.5,118.3,819.3,119.2z"/>
							<path class="st1" d="M795.4,112.6c1.1-0.9,2.3-1.8,3.5-2.6c1.2-0.8,2.5-1.6,3.7-2.3c1.3-0.7,2.6-1.4,3.9-1.9
								c1.4-0.6,2.7-1.1,4.2-1.3c-1.4,0.4-2.7,1-4,1.7c-1.3,0.6-2.6,1.3-3.8,2c-1.3,0.7-2.5,1.4-3.8,2.2L795.4,112.6z"/>
							<path class="st1" d="M797.8,96.7c1.8-0.8,3.7-1.6,5.5-2.3c1.9-0.7,3.7-1.4,5.6-2c1.9-0.6,3.8-1.2,5.7-1.7
								c1.9-0.5,3.9-1,5.8-1.3c-3.8,1.1-7.6,2.3-11.4,3.6c-1.9,0.6-3.8,1.3-5.6,1.9L797.8,96.7z"/>
							<path class="st1" d="M833.9,110.1c-0.1-2.9-0.2-5.9-0.4-8.8c-0.1-1.5-0.2-2.9-0.5-4.3c-0.2-1.4-0.5-2.9-1.2-4.2
								c0.9,1.2,1.3,2.7,1.6,4.1c0.3,1.4,0.5,2.9,0.6,4.4c0.1,1.5,0.1,2.9,0.1,4.4C834.1,107.1,834.1,108.6,833.9,110.1z"/>
							<path class="st1" d="M809.1,80.6c1.6-0.9,3.2-1.7,4.9-2.4c1.7-0.7,3.3-1.4,5-2.1c1.7-0.6,3.4-1.2,5.2-1.6
								c1.8-0.4,3.6-0.8,5.4-0.3c-0.9-0.1-1.8-0.1-2.7,0.1c-0.9,0.1-1.8,0.4-2.6,0.6c-1.7,0.5-3.4,1.1-5.1,1.7
								c-1.7,0.6-3.4,1.3-5.1,1.9L809.1,80.6z"/>
							<path class="st1" d="M842.1,93.5c-0.2-1.4-0.4-2.7-0.7-4.1c-0.3-1.3-0.5-2.7-0.9-4c-0.3-1.3-0.7-2.6-1.2-3.9
								c-0.5-1.3-1.1-2.5-1.9-3.6c1,1,1.7,2.2,2.3,3.5c0.6,1.3,1,2.6,1.3,3.9c0.3,1.3,0.6,2.7,0.7,4.1
								C842,90.7,842.1,92.1,842.1,93.5z"/>
						</g>
						<g>
							<path class="st0" d="M837.2,138.9c-1.2-0.3-1.6-2.4-2-3.9c-1.6-6.4-2.8-13-2.6-19.6c0.2-6.6,1.9-13.3,5.6-18.8
								c5.9-8.6,16-13.1,23.2-20.6c2.2,3.9,4,8,5.5,12.2c1.5,4.3,2.7,8.8,2.2,13.3c-0.8,6.9-5.6,12.6-10.2,17.7
								c-6.2,6.9-12.6,13.6-20,19.1C838.3,138.9,837.7,139,837.2,138.9z"/>
							<path class="st1" d="M861.2,77.4c-1.5,4.9-3.1,9.8-4.8,14.7c-1.7,4.9-3.3,9.8-5.1,14.6c-1.8,4.8-3.6,9.7-5.7,14.4
								c-1,2.4-2.2,4.7-3.5,6.9l-3.7,6.8l3.6-6.9c1.2-2.3,2.4-4.5,3.4-6.9c2-4.7,3.8-9.6,5.5-14.4c1.8-4.8,3.5-9.7,5.2-14.6
								L861.2,77.4z"/>
							<path class="st1" d="M852.7,121.3c-0.3-1.2-0.5-2.4-0.7-3.6c-0.2-1.2-0.5-2.4-0.8-3.5c0.6,1.1,0.9,2.3,1.2,3.5
								C852.6,118.9,852.7,120.1,852.7,121.3z"/>
							<path class="st1" d="M836.7,120.2c1.2-1.5,2.5-2.8,4-4c0.7-0.6,1.5-1.2,2.2-1.7c0.8-0.5,1.6-1,2.5-1.3
								c-0.8,0.5-1.6,1-2.3,1.6c-0.7,0.6-1.5,1.2-2.2,1.8C839.5,117.7,838.1,119,836.7,120.2z"/>
							<path class="st1" d="M836.2,109.9c2.1-1.5,4.3-2.9,6.5-4.2c1.1-0.6,2.2-1.3,3.4-1.8c1.1-0.6,2.3-1.1,3.5-1.6
								c-1.1,0.6-2.3,1.2-3.4,1.8c-1.1,0.6-2.2,1.2-3.3,1.9L836.2,109.9z"/>
							<path class="st1" d="M860.7,113.7c-0.5-1.8-0.9-3.7-1.4-5.5c-0.2-0.9-0.5-1.8-0.9-2.7c-0.3-0.9-0.7-1.8-1.3-2.5
								c0.7,0.6,1.2,1.5,1.5,2.4c0.4,0.9,0.7,1.8,0.9,2.7C860.2,109.9,860.6,111.8,860.7,113.7z"/>
							<path class="st1" d="M841.3,98.2c1.8-1.5,3.7-2.8,5.7-4.1c1-0.6,2-1.2,3.1-1.7c1.1-0.5,2.2-0.9,3.4-0.9
								c-0.6,0-1.1,0.2-1.7,0.4c-0.5,0.2-1.1,0.5-1.6,0.7c-1,0.5-2,1.1-3,1.7C845.2,95.7,843.2,97,841.3,98.2z"/>
							<path class="st1" d="M863.8,102.1c-0.3-0.8-0.6-1.7-1-2.5c-0.3-0.8-0.7-1.6-1.1-2.4c-0.4-0.8-0.8-1.6-1.3-2.3
								c-0.5-0.7-1-1.4-1.6-2c0.8,0.5,1.4,1.2,1.9,1.9c0.5,0.7,1,1.5,1.3,2.3C862.9,98.7,863.5,100.4,863.8,102.1z"/>
						</g>
						<g>
							<path class="st0" d="M999.8,199.6c-1.5,1.2-4.4,0-6.7-0.8c-9.6-3.5-19.1-7.7-27.5-13.7c-8.3-6-15.5-14-19.2-23.5
								c-5.9-15-3.1-31.9-6.3-47.7c6.9,0.6,13.8,1.7,20.5,3.4c6.8,1.7,13.6,4.1,18.9,8.7c8.1,7,11.4,18.1,14,28.5
								c3.5,13.9,6.6,28,7.2,42.3C1000.8,198.3,1000.4,199.2,999.8,199.6z"/>
							<path class="st1" d="M941.4,115.5l7.4,9.4l7.3,9.5c4.8,6.4,9.6,12.7,14.4,19.2c4.7,6.5,9.3,13,13.6,19.7
								c2.2,3.3,4.1,6.9,5.9,10.4l5.5,10.6l-5.7-10.5c-1.9-3.5-3.8-7-6-10.4c-4.4-6.7-9-13.2-13.8-19.6c-4.7-6.5-9.4-12.9-14.2-19.3
								L941.4,115.5z"/>
							<path class="st1" d="M990.6,164.5c-0.9-0.3-1.7-0.7-2.6-1.1l-2.6-1.1c-1.7-0.7-3.4-1.4-5.2-2c0.9,0.1,1.9,0.3,2.8,0.5
								c0.9,0.3,1.8,0.6,2.7,1c0.9,0.4,1.7,0.8,2.5,1.2C989,163.5,989.8,163.9,990.6,164.5z"/>
							<path class="st1" d="M975.4,184.1c-0.4-1.4-0.8-2.8-1.1-4.3c-0.3-1.4-0.5-2.9-0.7-4.3c-0.2-1.5-0.3-2.9-0.3-4.4
								c0-1.5,0.1-2.9,0.4-4.4c-0.1,1.5-0.1,2.9,0,4.3c0.1,1.4,0.2,2.9,0.4,4.3c0.1,1.4,0.4,2.9,0.6,4.3L975.4,184.1z"/>
							<path class="st1" d="M961.6,175.8c-0.1-2-0.1-4,0-6c0-2,0.2-4,0.3-6c0.2-2,0.3-4,0.6-5.9c0.3-2,0.6-3.9,1-5.9
								c-0.4,4-0.8,7.9-1,11.9c-0.2,2-0.3,4-0.4,5.9L961.6,175.8z"/>
							<path class="st1" d="M987.7,147.5c-2.8-1-5.5-2.1-8.3-3c-1.4-0.5-2.8-0.9-4.2-1.2c-1.4-0.3-2.9-0.6-4.3-0.5
								c1.4-0.3,3-0.2,4.4,0.1c1.5,0.3,2.9,0.7,4.3,1.1c1.4,0.5,2.8,1,4.1,1.6C985.1,146.2,986.5,146.8,987.7,147.5z"/>
							<path class="st1" d="M951,159.2c-0.2-1.8-0.3-3.6-0.4-5.4c-0.1-1.8,0-3.6,0-5.4c0.1-1.8,0.2-3.6,0.5-5.4
								c0.3-1.8,0.7-3.6,1.8-5.1c-0.5,0.8-0.8,1.6-0.9,2.5c-0.2,0.9-0.3,1.8-0.4,2.7c-0.2,1.8-0.3,3.6-0.4,5.4
								c-0.1,1.8-0.1,3.6-0.2,5.4L951,159.2z"/>
							<path class="st1" d="M975.5,133.6c-1.3-0.3-2.7-0.6-4-0.9c-1.3-0.3-2.7-0.6-4-0.7c-1.3-0.2-2.7-0.4-4.1-0.4
								c-1.4,0-2.7,0-4.1,0.3c1.3-0.5,2.7-0.7,4.1-0.8c1.4-0.1,2.8,0.1,4.1,0.3c1.4,0.2,2.7,0.5,4,0.9
								C972.9,132.6,974.3,133.1,975.5,133.6z"/>
						</g>
						<g>
							<path class="st0" d="M483.3,62.5c-1-0.4-1.3-2.2-1.6-3.6c-1.1-5.8-1.9-11.8-1.4-17.7s2.3-11.8,5.9-16.6
								c5.7-7.4,14.9-11,21.8-17.3c1.8,3.6,3.2,7.4,4.4,11.2c1.2,3.9,2,8,1.3,12c-1.1,6.1-5.6,11-10,15.4
								c-5.9,5.9-11.9,11.6-18.8,16.2C484.2,62.5,483.7,62.6,483.3,62.5z"/>
							<path class="st1" d="M507.6,8.4c-1.6,4.3-3.3,8.7-5,12.9c-1.7,4.3-3.4,8.6-5.2,12.9c-1.8,4.2-3.7,8.5-5.7,12.6
								c-1,2.1-2.2,4.1-3.4,6l-3.6,5.9l3.5-6c1.2-2,2.4-4,3.4-6.1c2-4.2,3.8-8.4,5.6-12.7c1.8-4.3,3.6-8.5,5.3-12.8L507.6,8.4z"/>
							<path class="st1" d="M498,47.4c-0.2-1.1-0.3-2.2-0.5-3.2c-0.1-1.1-0.3-2.1-0.5-3.2c0.5,1,0.7,2.1,0.9,3.2
								C498,45.2,498.1,46.3,498,47.4z"/>
							<path class="st1" d="M483.7,45.7c1.1-1.3,2.4-2.4,3.7-3.4c0.7-0.5,1.4-1,2.1-1.5c0.7-0.4,1.5-0.8,2.3-1.1
								c-0.8,0.4-1.5,0.8-2.2,1.3c-0.7,0.5-1.4,1-2,1.5C486.3,43.5,485,44.6,483.7,45.7z"/>
							<path class="st1" d="M483.7,36.4c1.9-1.3,4-2.4,6-3.4c2.1-1,4.2-2,6.3-2.7C491.9,32.1,487.8,34.3,483.7,36.4z"/>
							<path class="st1" d="M505.5,40.9c-0.3-1.7-0.6-3.3-1-5c-0.2-0.8-0.4-1.6-0.6-2.4c-0.3-0.8-0.5-1.6-1-2.3
								c0.6,0.6,1,1.4,1.3,2.2c0.3,0.8,0.5,1.6,0.7,2.5C505.2,37.5,505.5,39.2,505.5,40.9z"/>
							<path class="st1" d="M488.8,26.2c1.7-1.3,3.5-2.4,5.3-3.4c0.9-0.5,1.9-1,2.9-1.4c1-0.4,2-0.7,3.1-0.6c-1.1,0-2,0.4-3,0.8
								c-0.9,0.4-1.9,0.9-2.8,1.4C492.4,24.1,490.6,25.1,488.8,26.2z"/>
							<path class="st1" d="M508.8,30.7c-0.5-1.5-1-3-1.6-4.5c-0.3-0.7-0.6-1.4-1-2.1c-0.4-0.7-0.8-1.3-1.4-1.9
								c0.7,0.5,1.2,1.1,1.6,1.8c0.4,0.7,0.8,1.4,1.1,2.1C508.1,27.6,508.6,29.1,508.8,30.7z"/>
						</g>
					</g>
					<g>
						<polygon class="st15" points="235.2,793.2 235.2,73.5 104.9,73.5 106.4,818.2 235.2,818.2 						"/>
						<path class="st15" d="M209.4,550.2c0,0,38-98.7,72-104.4c34-5.6,70.5-24.6,76-39.1c0,0-12.5-2.5-12.5-2.5
							c-15.5,11.6-32.8,23.2-52.9,22.3c-26.1-1.2-50.9,10.1-68.1,29.7c-31.5,36-30,35-45.5,57"/>
						<g class="st16">
							<path class="st17" d="M144.1,785.5c3.4-33.2,4.1-61.2,4-82c0-6-0.3-29.4-2.7-60c-2.1-26.8-4.2-37.7-6.7-69.3
								c-1.5-18.4-2.2-33.5-2.7-43.3"/>
							<path class="st17" d="M213.4,107.5c-1.1,17.7-2.2,41.8-2,70.7c0,7.8,0.2,16.7,1.3,50.7c0.6,19,1.5,43.7,2.7,72.7"/>
							<path class="st17" d="M202.1,402.9c-1.6-14.5-3.7-36.2-4.7-62.7c-0.7-19.2-0.5-30.8-0.7-64c-0.1-15.8-0.2-38.2-0.7-65.3"/>
							<path class="st17" d="M191.4,155.5c0.7-8,1-17,0.7-26.7c-0.4-12.2-1.7-23.1-3.3-32.7"/>
							<path class="st17" d="M145.4,154.9c0.2,8.7,0.6,22.4,2,39.3c3,37.7,6.8,43.6,6.7,67.3c0,5.5-1.1,10.6-2.8,29.9
								c-1.1,12.8-1.7,19.2-1.9,23.5c-1.4,25.8,2.5,54.6,6,54.7c2.9,0.1,6-19.8,6.7-34c0.6-13-0.7-23.8-2-31.3"/>
							<path class="st17" d="M178.1,367.5c-5.2,19.4-4.8,34.3-3.3,44.7c1.2,8.2,3.3,15.5,4,28.7c0.6,10.6,0,19.4-0.7,25.3"/>
							<path class="st17" d="M198.7,800.2c-3-26-5.3-52.9-6.7-80.7c-0.3-5.1-0.5-10.3-0.7-15.3"/>
							<path class="st17" d="M191.4,680.9c-1.8-10.5-2.5-19.8-2.7-27.3c-0.4-16.1,1.6-23.9,2-42.7c0.2-10.6-0.1-19.9-0.7-27.3"/>
							<path class="st17" d="M126.7,459.5c1.1-12.4,2.2-31.9,0.7-56c-1.5-24.4-4.6-34.9-6-56.7c-1-15.2-1.3-37.8,2.7-66"/>
						</g>
					</g>
				</g>
				<g>
					<polygon class="st22" points="667.1,712.1 667.1,-7.7 542.5,-7.7 544,737.1 667.1,737.1 					"/>
					<g class="st16">
						<path class="st17" d="M582.6,702c3.4-33.2,4.1-61.2,4-82c0-6-0.3-29.4-2.7-60c-2.1-26.8-4.2-37.7-6.7-69.3
							c-1.5-18.4-2.2-33.5-2.7-43.3"/>
						<path class="st17" d="M651.9,24c-1.1,17.7-2.2,41.8-2,70.7c0,7.8,0.2,16.7,1.3,50.7c0.6,19,1.5,43.7,2.7,72.7"/>
						<path class="st17" d="M640.6,319.4c-1.6-14.5-3.7-36.2-4.7-62.7c-0.7-19.2-0.5-30.8-0.7-64c-0.1-15.8-0.2-38.2-0.7-65.3"/>
						<path class="st17" d="M629.9,72c0.7-8,1-17,0.7-26.7c-0.4-12.2-1.7-23.1-3.3-32.7"/>
						<path class="st17" d="M583.9,71.4c0.2,8.7,0.6,22.4,2,39.3c3,37.7,6.8,43.6,6.7,67.3c0,5.5-1.1,10.6-2.8,29.9
							c-1.1,12.8-1.7,19.2-1.9,23.5c-1.4,25.8,2.5,54.6,6,54.7c2.9,0.1,6-19.8,6.7-34c0.6-13-0.7-23.8-2-31.3"/>
						<path class="st17" d="M616.6,284c-5.2,19.4-4.8,34.3-3.3,44.7c1.2,8.2,3.3,15.5,4,28.7c0.6,10.6,0,19.4-0.7,25.3"/>
						<path class="st17" d="M637.2,716.7c-3-26-5.3-52.9-6.7-80.7c-0.3-5.1-0.5-10.3-0.7-15.3"/>
						<path class="st17" d="M629.9,597.4c-1.8-10.5-2.5-19.8-2.7-27.3c-0.4-16.1,1.6-23.9,2-42.7c0.2-10.6-0.1-19.9-0.7-27.3"/>
						<path class="st17" d="M565.2,376c1.1-12.4,2.2-31.9,0.7-56c-1.5-24.4-4.6-34.9-6-56.7c-1-15.2-1.3-37.8,2.7-66"/>
					</g>
					<path class="st22" d="M659.4,250.9c0,0,49.1-68.7,57.1-72.2s26.5-7.9,26.5-7.9l-6.5-16c0,0-35.9,7.6-43,16
						s-38.9,33.7-38.9,33.7L659.4,250.9z"/>
					<path class="st22" d="M559.3,420c0,0-27.9-44.2-41.9-44c-14,0.2-45-17.8-45-17.8l4-11.3l22,7.3c0,0,46.5,10,68.2,38
						C588.4,420.2,559.3,420,559.3,420z"/>
				</g>
			</g>
		</g>
	</g>
	<g>
		<path class="st0" d="M681,737c-0.5-0.4-1-0.9-1.4-1.3c-4.6-4.7-6.8-11.4-6.9-18c-0.3-13.5,6.1-26.8,13.1-38
			c0.2-0.4,0.5-0.8,0.9-0.9c0.8-0.3,1.6,0.5,2.1,1.2c3.3,4.9,4.3,11.7,9.1,15.1c-0.1-3.8-1.5-7.4-2.4-11.1c-0.9-3.7-1.1-7.9,1-11.1
			c1.3-2,3.3-3.4,5.3-4.7c5.7-3.7,11.8-7.6,14.6-13.7c0.5-1.1,1.2-3.6,2.5-4.1c2.2-0.9,2.5,4.8,3.1,6.5c0.3,1,3.3,6.9,2.9,7.6
			c3.1-5.7-0.4-13.1,2-19.1c1.8-4.6,6.6-7.2,10.6-10.1c6.7-4.9,12.1-11.5,15.6-19.1c3.7,3.6,4.1,9.4,3.9,14.5
			c-0.2,8.2-1.1,16.5-2.6,24.6c-0.8,4.4-2,9.1-5.4,12c-0.7,0.6-1.5,1.1-2,2c-0.5,0.8-0.5,2,0.3,2.5c0.5,0.3,1.2,0.3,1.8,0.1
			c3.4-0.9,5.7-4.1,7.6-7.1c3.7,11,1.9,23.6-4.8,33.1c-0.6,0.8-1.2,1.7-2.1,2.2c-0.9,0.6-2,0.9-3,1.1c-5.4,1.3-10.7,2.5-16.1,3.8
			c4.8-0.2,9.7-0.4,14.5-0.6c0.6,0,1.2,0,1.8,0.2c1.6,0.7,1.5,3,1,4.7c-3.2,10.7-10.2,20.2-19.5,26.3c-9.3,6.1-20.8,8.8-31.9,7.4
			C691,742.4,685.3,740.6,681,737z"/>
		<path class="st19" d="M688.9,739c2.8-3.8,5.5-7.5,8.2-11.3c2.7-3.8,5.5-7.6,8.1-11.4c5.4-7.6,10.7-15.3,15.8-23.1
			c5.1-7.8,10.1-15.7,14.7-23.8c2.3-4,4.5-8.2,6.4-12.4c2-4.2,3.7-8.5,4.8-13.1c-0.8,4.6-2.5,9-4.3,13.3c-1.9,4.3-4,8.5-6.2,12.6
			c-4.5,8.2-9.4,16.1-14.5,23.9c-5.2,7.8-10.5,15.4-16,23C700.4,724.4,694.8,731.8,688.9,739z"/>
	</g>
	<g>
		<path class="st0" d="M141.6,750.9c0.5-0.4,1-0.9,1.4-1.3c4.6-4.7,6.8-11.4,6.9-18c0.3-13.5-6.1-26.8-13.1-38
			c-0.2-0.4-0.5-0.8-0.9-0.9c-0.8-0.3-1.6,0.5-2.1,1.2c-3.3,4.9-4.3,11.7-9.1,15.1c0.1-3.8,1.5-7.4,2.4-11.1s1.1-7.9-1-11.1
			c-1.3-2-3.3-3.4-5.3-4.7c-5.7-3.7-11.8-7.6-14.6-13.7c-0.5-1.1-1.2-3.6-2.5-4.1c-2.2-0.9-2.5,4.8-3.1,6.5c-0.3,1-3.3,6.9-2.9,7.6
			c-3.1-5.7,0.4-13.1-2-19.1c-1.8-4.6-6.6-7.2-10.6-10.1c-6.7-4.9-12.1-11.5-15.6-19.1c-3.7,3.6-4.1,9.4-3.9,14.5
			c0.2,8.2,1.1,16.5,2.6,24.6c0.8,4.4,2,9.1,5.4,12c0.7,0.6,1.5,1.1,2,2c0.5,0.8,0.5,2-0.3,2.5c-0.5,0.3-1.2,0.3-1.8,0.1
			c-3.4-0.9-5.7-4.1-7.6-7.1c-3.7,11-1.9,23.6,4.8,33.1c0.6,0.8,1.2,1.7,2.1,2.2c0.9,0.6,2,0.9,3,1.1c5.4,1.3,10.7,2.5,16.1,3.8
			c-4.8-0.2-9.7-0.4-14.5-0.6c-0.6,0-1.2,0-1.8,0.2c-1.6,0.7-1.5,3-1,4.7c3.2,10.7,10.2,20.2,19.5,26.3s20.8,8.8,31.9,7.4
			C131.6,756.3,137.3,754.5,141.6,750.9z"/>
		<path class="st19" d="M133.6,753c-5.9-7.3-11.5-14.7-17-22.2c-5.5-7.5-10.8-15.2-16-23c-5.1-7.8-10-15.7-14.5-23.9
			c-2.2-4.1-4.3-8.3-6.2-12.6c-1.8-4.3-3.5-8.7-4.3-13.3c1,4.6,2.8,8.9,4.8,13.1c2,4.2,4.1,8.3,6.4,12.4c4.6,8.1,9.5,16,14.7,23.8
			c5.1,7.8,10.4,15.5,15.8,23.1c2.7,3.8,5.4,7.6,8.1,11.4C128.1,745.5,130.9,749.3,133.6,753z"/>
	</g>
	<g>
		<path class="st0" d="M535.8,570c-18.3,14.8,8.2,37.5,8.6,49.6s-32-8.7-30.7,6.3c1.3,15,36.9,31.9,36.7,34.9
			c-0.4,9.3-30.7,6.3-23.4,19.4c7.3,13.1,57.6,7,48.2,19.1s-26.4-1.2-26,11c0.4,12.2,29.9,33.9,54.6,29.4s56.3-29.4,57.1-48.1
			c0.8-18.7-0.1-43-10.3-33.7c-10.2,9.3-24.3,16.6-23.9,7.3c0.4-8.4,16.1-54.1-0.9-45.8s-12.8,22.3-20.5,18.5
			c-7.7-3.8,5.9-44.8-1.8-48.6c-7.7-3.8-11.1,6.4-24.3,16.6C566.1,616.1,554.1,555.2,535.8,570z"/>
		<g>
			<path class="st1" d="M624.5,723c-10.8-15.5-21.2-31.3-31.2-47.3c-7.9-12.7-15.7-25.5-22.7-38.7c-2.9-5.5-5.7-11.1-8.2-16.9
				c-3.1-7.3-5.4-14.9-8.6-22.2c-2.2-5.1-4.7-10.7-8.6-14.7c-0.7-0.7-1.9-2.1-3-2c-0.8,0.1-1.4,1.2-2.2,1.2c0.9-0.1,1.9,0.9,2.4,1.4
				c3,2.7,5,6.6,6.8,10.2c3.9,7.7,6.5,15.8,9.6,23.8c2.1,5.4,4.6,10.7,7.3,15.8c12.9,25.3,28.6,49.4,44.3,73
				c3.9,5.9,7.9,11.8,11.9,17.6C622.4,724.3,624.5,722.9,624.5,723L624.5,723z"/>
		</g>
	</g>
	<g>
		<path class="st0" d="M635.4,668.8c1.3-0.7,3.4,0.6,5.1,1.5c7,3.9,13.8,8.3,19.5,14c5.7,5.7,10.2,12.7,11.9,20.6
			c2.7,12.3-1.6,25-1.1,37.6c-5.3-1.3-10.4-3.1-15.4-5.2c-5-2.2-10-4.9-13.5-9.1c-5.4-6.5-6.5-15.4-7.2-23.7
			c-1-11.2-1.6-22.4-0.2-33.5C634.5,669.7,634.9,669.1,635.4,668.8z"/>
		<path class="st1" d="M669.9,741.1l-4.6-8.2l-4.4-8.3c-2.9-5.5-5.8-11-8.7-16.6c-2.8-5.6-5.6-11.2-8-16.9c-1.3-2.9-2.3-5.8-3.3-8.8
			l-2.9-8.9l3.1,8.8c1,3,2,5.9,3.3,8.7c2.5,5.7,5.3,11.3,8.2,16.9c2.8,5.6,5.7,11.1,8.6,16.7L669.9,741.1z"/>
		<path class="st1" d="M638.1,697.1c1.3,0.7,2.5,1.6,3.7,2.3c0.6,0.4,1.2,0.8,1.9,1.2c0.6,0.4,1.3,0.7,1.9,1.1
			c-0.7-0.2-1.4-0.4-2.1-0.8c-0.7-0.3-1.3-0.7-1.9-1.1C640.4,699,639.2,698.1,638.1,697.1z"/>
		<path class="st1" d="M652.4,683.9c0.3,2.3,0.3,4.6,0.3,6.8c-0.1,1.1-0.1,2.3-0.3,3.4c-0.2,1.1-0.4,2.3-0.9,3.3
			c0.3-1.1,0.4-2.2,0.5-3.4c0.1-1.1,0.2-2.3,0.2-3.4C652.3,688.4,652.3,686.1,652.4,683.9z"/>
		<path class="st1" d="M662,692c-0.4,3.1-1,6.1-1.7,9.2c-0.4,1.5-0.7,3-1.2,4.5c-0.5,1.5-0.9,3-1.5,4.4c0.8-3,1.6-6,2.3-9L662,692z"
			/>
		<path class="st1" d="M638.2,710.5c2,1.1,4,2.3,6,3.3c1,0.5,2,1,3.1,1.5c1,0.4,2.1,0.8,3.3,0.9c-1.2,0.1-2.3-0.2-3.4-0.6
			c-1.1-0.4-2.1-0.9-3.2-1.4c-1-0.6-2-1.1-3-1.7C640.1,711.9,639.1,711.3,638.2,710.5z"/>
		<path class="st1" d="M668,706.1c-0.1,2.8-0.6,5.6-1.1,8.4c-0.3,1.4-0.6,2.8-1.1,4.1c-0.5,1.3-1,2.7-2.1,3.7c0.5-0.5,0.8-1.2,1-1.8
			c0.3-0.6,0.5-1.3,0.7-2c0.4-1.3,0.7-2.7,1-4.1C667.1,711.7,667.5,708.9,668,706.1z"/>
		<path class="st1" d="M645.9,722.8c1,0.4,2,0.8,3,1.2c1,0.4,2,0.8,3,1.1c1,0.3,2,0.6,3.1,0.8c1,0.2,2.1,0.3,3.2,0.2
			c-1.1,0.3-2.2,0.2-3.2,0.1c-1.1-0.1-2.1-0.4-3.2-0.7C649.7,724.8,647.7,724,645.9,722.8z"/>
	</g>
	<g>
		<path class="st0" d="M881.3,715.3c0.5-0.4,1-0.9,1.4-1.3c4.6-4.7,6.8-11.4,6.9-18c0.3-13.5-6.1-26.8-13.1-38
			c-0.2-0.4-0.5-0.8-0.9-0.9c-0.8-0.3-1.6,0.5-2.1,1.2c-3.3,4.9-4.3,11.7-9.1,15.1c0.1-3.8,1.5-7.4,2.4-11.1c0.9-3.7,1.1-7.9-1-11.1
			c-1.3-2-3.3-3.4-5.3-4.7c-5.7-3.7-11.8-7.6-14.6-13.7c-0.5-1.1-1.2-3.6-2.5-4.1c-2.2-0.9-2.5,4.8-3.1,6.5c-0.3,1-3.3,6.9-2.9,7.6
			c-3.1-5.7,0.4-13.1-2-19.1c-1.8-4.6-6.6-7.2-10.6-10.1c-6.7-4.9-12.1-11.5-15.6-19.1c-3.7,3.6-4.1,9.4-3.9,14.5
			c0.2,8.2,1.1,16.5,2.6,24.6c0.8,4.4,2,9.1,5.4,12c0.7,0.6,1.5,1.1,2,2c0.5,0.8,0.5,2-0.3,2.5c-0.5,0.3-1.2,0.3-1.8,0.1
			c-3.4-0.9-5.7-4.1-7.6-7.1c-3.7,11-1.9,23.6,4.8,33.1c0.6,0.8,1.2,1.7,2.1,2.2c0.9,0.6,2,0.9,3,1.1c5.4,1.3,10.7,2.5,16.1,3.8
			c-4.8-0.2-9.7-0.4-14.5-0.6c-0.6,0-1.2,0-1.8,0.2c-1.6,0.7-1.5,3-1,4.7c3.2,10.7,10.2,20.2,19.5,26.3s20.8,8.8,31.9,7.4
			C871.3,720.7,877,718.9,881.3,715.3z"/>
		<path class="st19" d="M873.3,717.4c-5.9-7.3-11.5-14.7-17-22.2c-5.5-7.5-10.8-15.2-16-23c-5.1-7.8-10-15.7-14.5-23.9
			c-2.2-4.1-4.3-8.3-6.2-12.6c-1.8-4.3-3.5-8.7-4.3-13.3c1,4.6,2.8,8.9,4.8,13.1c2,4.2,4.1,8.3,6.4,12.4c4.6,8.1,9.5,16,14.7,23.8
			c5.1,7.8,10.4,15.5,15.8,23.1c2.7,3.8,5.4,7.6,8.1,11.4C867.8,709.9,870.6,713.6,873.3,717.4z"/>
	</g>
	<g>
		<g>
			<g>
				<defs>
					<path id="SVGID_4_" d="M411.6,796.4c0,0,9.9,2.5,12.4,5c2.5,2.5-27.3,2.5-27.3,2.5s2.5-65,5-75c2.5-10-7.4-57.5-9.9-60
						c-2.5-2.5-2.5,5-2.5,5s0,45-5,62.5c-5,17.5-9.9,42.5-9.9,45v12.5c0,0,9.9,2.5,9.9,5c0,2.5-24.8,2.5-24.8,2.5s5-92.5,5-95
						c0-2.5,0-25-2.5-35c-2.5-10-2.5-32.5-2.5-32.5v-5h67c0,0,0,57.5-2.5,75c-2.5,17.5-7.4,52.5-7.4,52.5L411.6,796.4z"/>
				</defs>
				<clipPath id="SVGID_5_">
					<use xlink:href="#SVGID_4_"  style="overflow:visible;"/>
				</clipPath>
				<g class="st23">
					<defs>
						<rect id="SVGID_6_" x="-779.5" y="-1165.1" width="1440" height="4951"/>
					</defs>
					<clipPath id="SVGID_7_">
						<use xlink:href="#SVGID_6_"  style="overflow:visible;"/>
					</clipPath>
					<rect x="354.5" y="628.9" class="st24" width="77" height="180"/>
				</g>
			</g>
			<g>
				<defs>
					<path id="SVGID_8_" d="M511.1,532.8c0-1.2,2.2-2.9,2.5,0c0.3,2.5-2.5,2.5,0,5c2.5,2.5,2.5,10,0,10c-2.5,0-25.1,14.9-25.1,14.9
						s-25.1,17.4-30.1,14.9c-5-2.5-30.1-19.9-35.1-19.9c-5,0-40.1-14.9-40.1-22.4v-21.7c0-0.4,0.1-0.8,0.2-1.2
						c0.5-1.8,1.9-7.7-0.2-11.9c-2.5-5-3.8-21.1,6.3-23.6c10-2.5,17.5,0,20.1,5c2.5,5,2.5,12.4,2.5,17.4c0,3.1-1,8.1-1.7,11.4
						c-0.5,2-2.3,3.5-4.4,3.5h-0.4c-2.9,0-5.1,2.7-4.4,5.5c0.2,0.6,0.4,1.3,0.8,2c2.5,5,45.1,29.9,50.1,32.4
						c2.6,1.3,4.5,2.6,5.8,3.5c1.2,0.9,2.7,1.1,4.1,0.7l36.7-11.4c0.7-0.2,1.3-0.6,1.8-1.1C503.3,543,511.1,534.1,511.1,532.8"/>
				</defs>
				<clipPath id="SVGID_9_">
					<use xlink:href="#SVGID_8_"  style="overflow:visible;"/>
				</clipPath>
				<g class="st25">
					<defs>
						<rect id="SVGID_10_" x="-779.5" y="-1165.1" width="1440" height="4951"/>
					</defs>
					<clipPath id="SVGID_11_">
						<use xlink:href="#SVGID_10_"  style="overflow:visible;"/>
					</clipPath>
					<rect x="376.5" y="470.9" class="st26" width="144" height="112"/>
				</g>
			</g>
			<g>
				<defs>
					<path id="SVGID_12_" d="M453.5,551.6c0.1,0.7-0.5,1.9-0.8,2.6c-0.7,2.2-1.5,4.4-2.2,6.7c-0.5,1.4-5.1,12.7-4.4,13.3
						c-3.8-3.4-8.2-6.2-12.9-8.2c-1.1-0.5-2.5-0.9-3.6-0.3c-1.4,0.7-1.7,2.6-1.8,4.1c-1.3,20.8-1.8,41.6-1.6,62.4c0,1.5,0,3-0.6,4.3
						c-0.5,1-1.4,1.8-2.2,2.6c-8.7,7.5-19.8,12.3-31.3,12.8c-11.5,0.5-23.2-3.4-31.6-11.3c-0.8-0.7-1.6-1.5-2-2.5
						c-0.5-1-0.6-2.2-0.7-3.3c-1.3-17.6,4.8-35,4.4-52.6c-0.4-15.6-6.1-31.2-3.3-46.6c0.4-2.3,1.1-4.8,2.7-6.5
						c1.2-1.3,2.9-2.1,4.6-2.8c5.6-2.4,11.6-3.9,17.6-4.6c-0.9,0.1,1.1,3.4,1.4,3.7c1.2,0.9,3.3,1.3,4.8,1.5
						c4.1,0.7,9.8,0.2,12.6-3.3c0.6-0.8,1.1-1.7,2-2.2c0.7-0.4,1.7-0.5,2.5-0.5c9.6,0.1,18.6,4.7,26.1,10.7
						c6.6,5.3,12.3,11.7,18.3,17.7c0.5,0.5,1.9,1.5,2.1,2.2C453.5,551.5,453.5,551.6,453.5,551.6"/>
				</defs>
				<clipPath id="SVGID_13_">
					<use xlink:href="#SVGID_12_"  style="overflow:visible;"/>
				</clipPath>
				<g class="st27">
					<defs>
						<rect id="SVGID_14_" x="-779.5" y="-1165.1" width="1440" height="4951"/>
					</defs>
					<clipPath id="SVGID_15_">
						<use xlink:href="#SVGID_14_"  style="overflow:visible;"/>
					</clipPath>
					<rect x="352.5" y="515.9" class="st28" width="106" height="141"/>
				</g>
			</g>
			<g>
				<defs>
					<rect id="SVGID_16_" x="371.9" y="464.9" width="39.8" height="50.5"/>
				</defs>
				<clipPath id="SVGID_17_">
					<use xlink:href="#SVGID_16_"  style="overflow:visible;"/>
				</clipPath>
				<g class="st29">
					<defs>
						<rect id="SVGID_18_" x="-779.5" y="-1165.1" width="1440" height="4951"/>
					</defs>
					<clipPath id="SVGID_19_">
						<use xlink:href="#SVGID_18_"  style="overflow:visible;"/>
					</clipPath>
					<g class="st30">
						<g>
							<defs>
								<rect id="SVGID_20_" x="369.5" y="460.9" width="45" height="60"/>
							</defs>
							<clipPath id="SVGID_21_">
								<use xlink:href="#SVGID_20_"  style="overflow:visible;"/>
							</clipPath>
							<g class="st31">
								<defs>
									<path id="SVGID_22_" d="M408.5,503.4c0,0-5.5,0-5.5-5.5s2.7-8.3,5.5-5.5c2.7,2.8,2.7,0,2.7,0s-5.5-8.3-2.7-11.1
										c2.7-2.8,5.5-5.5,0-11.1c-5.5-5.5-13.7-8.3-24.7,0c-11,8.3-13.7,13.9-11,22.2c2.7,8.3,11,19.4,11,19.4s8.2,8.3,16.5,0
										L408.5,503.4z"/>
								</defs>
								<clipPath id="SVGID_23_">
									<use xlink:href="#SVGID_22_"  style="overflow:visible;"/>
								</clipPath>
								<g class="st32">
									<defs>
										<rect id="SVGID_24_" x="371.5" y="464.9" width="41" height="51"/>
									</defs>
									<clipPath id="SVGID_25_">
										<use xlink:href="#SVGID_24_"  style="overflow:visible;"/>
									</clipPath>
									<rect x="366.9" y="459.9" class="st33" width="49.8" height="60.5"/>
								</g>
							</g>
						</g>
					</g>
				</g>
			</g>
		</g>
		<path class="st34" d="M425.9,549.9h-68.2c-5.5,0-9.9-4.4-9.9-9.9v-9.2c0-5.5,4.4-9.9,9.9-9.9h68.2c5.5,0,9.9,4.4,9.9,9.9v9.2
			C435.8,545.5,431.3,549.9,425.9,549.9z"/>
		<path class="st35" d="M420.6,629.3h-55.2c-9.1,0-16.4-7.3-16.4-16.4v-46.6c0-9.1,7.3-16.4,16.4-16.4h55.2
			c9.1,0,16.4,7.3,16.4,16.4v46.6C437,621.9,429.7,629.3,420.6,629.3z"/>
	</g>
</g>
</svg>
