<svg id="Layer_1" xmlns="http://www.w3.org/2000/svg" viewBox="0 0 1000 948.2" enable-background="new 0 0 1000 948.2"><style>.st0{fill:url(#SVGID_1_)}.st1{fill:#f2f2f2}.st2{fill:#110a2d}.st3{fill:none;stroke:#1d2761;stroke-width:2.462;stroke-miterlimit:10}.st4{fill:#010f27}.st5{fill:#9dd6e7}.st6{filter:url(#Adobe_OpacityMaskFilter)}.st7{fill:url(#SVGID_3_)}.st8{opacity:.99;mask:url(#SVGID_2_)}.st9{fill:url(#SVGID_4_)}.st10{fill:url(#SVGID_5_)}.st11{fill:url(#SVGID_6_)}.st12{filter:url(#Adobe_OpacityMaskFilter_1_)}.st13{fill:url(#SVGID_8_)}.st14{opacity:.68;mask:url(#SVGID_7_)}.st15{fill:url(#SVGID_9_)}.st16{fill:url(#SVGID_10_)}.st17{fill:url(#SVGID_11_)}.st18{fill:url(#SVGID_12_)}.st19{fill:url(#SVGID_13_)}.st20{fill:url(#SVGID_14_)}.st21{fill:url(#SVGID_15_)}.st22{fill:url(#SVGID_16_)}.st23{fill:url(#SVGID_17_)}.st24{fill:url(#SVGID_18_)}.st25{fill:url(#SVGID_19_)}.st26{filter:url(#Adobe_OpacityMaskFilter_2_)}.st27{fill:url(#SVGID_21_)}.st28{opacity:.51;mask:url(#SVGID_20_)}.st29{fill:#f2f2f2;stroke:#002e61;stroke-width:10.415;stroke-miterlimit:10}.st30{fill:#ffa3a3}.st31{fill:#00132e}.st32{fill:#f54c43}.st33{fill:url(#SVGID_22_)}.st34{fill:url(#SVGID_23_)}.st35{fill:#e6e6e6}.st36{fill:#4275b6}.st37{fill:#3360b4}.st38{fill:#006ed5}.st39{fill:#4da4d2}.st40{fill:#00c4eb}.st41{fill:#1b0d44}.st42{fill:#080516}.st43{fill:none;stroke:#fff;stroke-width:.7219;stroke-miterlimit:10}.st44{fill:#ffaa64}.st45{opacity:.27}.st46,.st47{fill:none;stroke:#f54c43;stroke-width:.372;stroke-linecap:round;stroke-miterlimit:10}.st47{stroke-width:.2368}.st48{opacity:.51}.st49{fill:none;stroke:#00c4eb;stroke-width:.7439;stroke-linecap:round;stroke-miterlimit:10}.st50{fill:url(#SVGID_24_)}.st51{fill:url(#SVGID_25_)}.st52{fill:#20d5d2}.st53{opacity:.75;fill:#0f6fff;enable-background:new}</style><linearGradient id="SVGID_1_" gradientUnits="userSpaceOnUse" x1="2.764" y1="474.106" x2="998.67" y2="474.106"><stop offset="0" stop-color="#52e5e7"/><stop offset=".689" stop-color="#0130cb"/></linearGradient><path class="st0" d="M867.3 157c19.2 20.2 33 44 34.6 71.5 2.3 38.1-19.3 79.1-1.4 112.8 19.3 36.2 66.4 42.6 83.1 81.3 9.7 22.4 16.9 40.6 14.5 65.8-2.2 23.9-10.7 47.1-22.4 68-5.4 9.7-11.6 18.9-18.5 27.6-36.9 46.6-87.3 82-119.2 132.1-14.8 23.1-26.2 50-48.8 65.5-24.5 16.9-57.3 16.5-86.2 9.4-28.9-7.2-56-20.4-84.9-27.7-56.3-14.1-118.3-4-167.2 27.3-44.6 28.5-76.8 72.4-116.6 107.3-39.8 34.9-94.3 61.7-144.7 45.4-44.1-14.3-71.9-57.3-92.2-99C41.8 729.4 15.5 602 5.8 474.7-3 359.9 4 236.2 71.9 143.2 123.8 72.1 206.7 27.6 293 10S468.9-.1 555.1 17.7c90 18.6 178.2 48.7 256.8 96.2 19.6 12 39.4 26.3 55.4 43.1z"/><path class="st1" d="M173.9 760.6l41 23.7L338 713.2l-41-23.7z"/><path class="st2" d="M173.9 767.9l41 23.6v-7.2l-41-23.7zM338 713.2v7.3l-123.1 71v-7.2z"/><path class="st3" d="M155.4 786.9c-23.9 1.7-36.2 1.3-36.7-1.4-.6-3.3 26-9 25.5-11.9-.3-1.5-7.8-2.3-38 .3"/><path class="st2" d="M196.2 797.7L170.8 783c-4.3-2.5-11.3-2.5-15.6 0l-4.9 2.8c-2.2 1.3-3.2 2.9-3.2 4.6V800.4c0 1.6 1.1 3.3 3.2 4.6l25.4 14.7c4.3 2.5 11.3 2.5 15.6 0l4.9-2.8c2.2-1.3 3.2-2.9 3.2-4.6v-.1-.1-.1-.1-.1-.1-.1-.1-.1-.1-.1-.1-.1-.1-.1-.1-.1-.1-.1-.1-.1-.1-.1-.1-.1-.1-.1-.1-.1-.1-.1-.1-.1-.1-.1-.1-.1-.1-.1-.1-.1-.1-.1-.1-.1-.1-.1-.1-.1-.1-.1-.1-.1-.1-.1-.1-.1-.1-.1-.1-.1-.1-.1-.1-.1-.1-.1-.1-.1-.1-.1-.1-.1-.1-.1-.1-.1-.1-.1-.1-.1-.1-.1-.1-.1-.1-.1-.1-.1-.1-.1-.1-.1-.1-.1-.1-.1-.1-.1-.1c0-1.7-1-3.4-3.2-4.6z"/><path class="st1" d="M155.2 782.9c4.3-2.5 11.3-2.5 15.6 0l25.4 14.7c4.3 2.5 4.3 6.5 0 9l-4.9 2.8c-4.3 2.5-11.3 2.5-15.6 0l-25.4-14.7c-4.3-2.5-4.3-6.5 0-9l4.9-2.8z"/><path class="st4" d="M388.9 723.7c-14 .6-9.4 20.9-13.5 26.9s-12.3-15.5-17-7.9c-4.7 7.6 6.4 28.4 5.3 29.8-3.5 4.3-17-7.9-18.1 1-1.2 8.9 25.1 23.8 16.4 26.3-8.8 2.5-12.3-9.9-16.4-3.9-4.1 6 2.3 26.9 15.8 33.5 13.5 6.6 37.4 5.8 44.5-2.9s15.2-20.7 7-19.8c-8.2.8-17.6-.6-14-5 3.1-3.9 26.9-20.2 15.8-22.3-11.1-2.1-14 6.2-16.4 1.6-2.3-4.5 18.7-19.4 16.4-24-2.3-4.5-7.6-.8-17.6-.6-10 .1 5.8-33.3-8.2-32.7z"/><path class="st1" d="M377.1 828.1c.3-11.3.9-22.5 1.8-33.8.7-8.8 1.5-17.7 2.8-26.5.6-3.8 1.2-7.5 2.1-11.2 1.1-4.5 2.7-8.9 3.7-13.4.7-3.2 1.6-6.8 1.1-10.2-.1-.6-.2-1.7-.8-2.1-.2-.1-1.1.9-1.3.7 2 1.3.6 7.2.3 8.8-1.4 8.5-4.6 16.5-6 25-2.8 16.7-3.8 33.7-4.6 50.6-.2 4.3-.4 8.5-.5 12.8.2-.2 1.4-.5 1.4-.7z"/><path class="st4" d="M433.7 792.2c.7.7.2 2.2-.2 3.4-1.4 5-3.1 9.9-5.8 14.4-2.7 4.4-6.4 8.3-11.1 10.6-7.3 3.6-16 2.8-23.8 5 0-3.5.3-7 1-10.5.6-3.5 1.6-7 3.7-9.9 3.2-4.4 8.7-6.4 13.8-8.1 6.9-2.3 13.8-4.4 21-5.2.7-.1 1.2 0 1.4.3z"/><path class="st1" d="M393.6 824.9c3-2.8 5.9-5.5 9-8.1 3-2.7 6.1-5.4 9.1-8 3.1-2.6 6.2-5.2 9.4-7.6 1.6-1.2 3.3-2.3 5-3.4l5.2-3.2-5.1 3.3c-1.7 1.1-3.4 2.2-5 3.4-3.2 2.4-6.3 5.1-9.4 7.7-3.1 2.6-6.1 5.2-9.2 7.9l-9 8zM416.4 798.2c-.1.5-.3.9-.4 1.4l-.5 1.3c-.2.4-.3.9-.4 1.3-.1.5-.3.9-.4 1.4 0-1 .3-1.9.5-2.8.3-.9.7-1.8 1.2-2.6zM426.9 805.1c-1.4.5-2.8.9-4.3 1.2-1.4.3-2.9.5-4.4.3.7 0 1.5-.1 2.2-.2.7-.1 1.4-.2 2.2-.4.7-.1 1.4-.3 2.2-.5l2.1-.4zM423.2 812.4c-2 .2-4 .3-6 .3s-4 0-6-.4c4 .2 8 .1 12 .1zM407.9 800.3l-.6 2.1-.6 2.1c-.2.7-.3 1.4-.5 2.2-.1.7-.2 1.5-.1 2.2-.2-.7-.2-1.5-.1-2.2.1-.7.2-1.5.4-2.2.5-1.4.9-2.8 1.5-4.2zM415.2 818.4c-1.8.3-3.6.5-5.5.6-.9 0-1.8 0-2.8-.1-.9-.1-1.9-.2-2.6-.7.4.2.8.3 1.3.4.4.1.9.1 1.4.1h2.7c.9 0 1.8-.1 2.7-.1l2.8-.2zM401.4 807l-.3 2.1c-.1.7-.2 1.4-.2 2.1-.1.7-.1 1.4 0 2.1 0 .7.1 1.4.3 2-.6-1.3-.7-2.7-.6-4.1.1-1.5.4-2.9.8-4.2z"/><path class="st5" d="M870.6 531.5c5.8.3 11.4.6 11.4.9 0 .3-12.4.1-12.4.4 0 .4 22.1 1.3 22 1.8 0 .5-24.6-.1-24.6.5-.1.6 25.3 2 25.2 2.4-.1.5-28.3-.6-28.4-.1-.1.5 22.7 2.1 22.6 2.4-.1.3-23.2-1.1-23.6 0-.3.8 10.5 2.3 10.2 2.9-.3.6-15.4-1-15.7-.3-.2.5 6.8 1.6 6.6 2.3-.2.5-3.3.5-8.2.5-13.7 0-16.9.2-17.1-.2-.2-.7 10-1.8 9.8-2.4-.2-.8-15.8 0-15.9-.5-.1-.4 11.9-1.3 11.8-1.9-.1-.7-16.7-.3-16.8-.7-.1-.5 19.3-1.4 19.2-1.9-.1-.4-16.4 0-16.5-.6-.1-.5 10.3-1.2 10.2-1.7-.1-.6-15.7-.3-15.7-.7-.1-.4 15.3-1.1 15.3-1.6 0-.6-15.7-.5-15.7-.9-.1-.6 22.1-1.8 46.3-.6zM735 528.8c5.8.4 11.4.9 11.4 1.2 0 .4-12.4.1-12.4.5 0 .6 22.1 1.9 22 2.5 0 .7-24.6-.1-24.6.8-.1.9 25.3 2.8 25.2 3.4-.1.7-28.3-.9-28.4-.1-.1.7 22.7 2.9 22.6 3.4-.1.5-23.2-1.6-23.6 0-.3 1.1 10.5 3.3 10.2 4.1-.3.9-15.4-1.4-15.7-.4-.2.7 6.8 2.2 6.6 3.2-.2.6-3.3.6-8.2.7-13.7.1-16.9.2-17.1-.3-.2-1 10-2.5 9.8-3.4-.2-1.1-15.8 0-15.9-.7-.1-.6 11.9-1.9 11.8-2.6-.1-.9-16.7-.4-16.8-1-.1-.7 19.3-2 19.2-2.6-.1-.6-16.4 0-16.5-.9-.1-.7 10.3-1.7 10.2-2.4-.1-.9-15.7-.4-15.7-1-.1-.6 15.3-1.5 15.3-2.3 0-.8-15.7-.6-15.7-1.2-.1-.8 22.1-2.5 46.3-.9z"/><defs><filter id="Adobe_OpacityMaskFilter" filterUnits="userSpaceOnUse" x="1.2" y="195.2" width="998.9" height="288.2"><feFlood result="back" flood-color="#fff" flood-opacity="1"/><feBlend in="SourceGraphic" in2="back"/></filter></defs><mask maskUnits="userSpaceOnUse" x="1.2" y="195.2" width="998.9" height="288.2" id="SVGID_2_"><g class="st6"><linearGradient id="SVGID_3_" gradientUnits="userSpaceOnUse" x1="-5438.753" y1="505.855" x2="-5438.753" y2="378.911" gradientTransform="matrix(-1 0 0 1 -4951.168 0)"><stop offset=".329"/><stop offset="1" stop-color="#fff" stop-opacity=".2"/></linearGradient><path class="st7" d="M-38.6 505.9h1052.4v-127H-38.6z"/></g></mask><g class="st8"><linearGradient id="SVGID_4_" gradientUnits="userSpaceOnUse" x1="-5951.202" y1="371.829" x2="-5426.555" y2="371.829" gradientTransform="matrix(-1 0 0 1 -4951.168 0)"><stop offset="0" stop-color="#002e61"/><stop offset=".267" stop-color="#012c5f"/><stop offset="1" stop-color="#110a2d"/></linearGradient><path class="st9" d="M922.4 365.2l-157.3-104L475.4 473l524.2 9.5c-.1-.1 11.5-50.7-77.2-117.3z"/><linearGradient id="SVGID_5_" gradientUnits="userSpaceOnUse" x1="-5582.989" y1="392.352" x2="-5174.499" y2="392.352" gradientTransform="matrix(-1 0 0 1 -4951.168 0)"><stop offset="0" stop-color="#002e61"/><stop offset=".267" stop-color="#012c5f"/><stop offset="1" stop-color="#110a2d"/></linearGradient><path class="st10" d="M558.2 407.7l-115.9-96.6-219 162.6h408.5l-69.9-64.6"/><linearGradient id="SVGID_6_" gradientUnits="userSpaceOnUse" x1="-5151.315" y1="483.374" x2="-5151.315" y2="195.178" gradientTransform="matrix(-1 0 0 1 -4951.168 0)"><stop offset="0" stop-color="#002e61"/><stop offset=".267" stop-color="#012c5f"/><stop offset="1" stop-color="#110a2d"/></linearGradient><path class="st11" d="M399.1 477.7L144.6 195.2 5.5 332s-9.2 103.3-.7 133.8 394.3 11.9 394.3 11.9z"/></g><defs><filter id="Adobe_OpacityMaskFilter_1_" filterUnits="userSpaceOnUse" x="819" y="385.2" width="170.7" height="85.5"><feFlood result="back" flood-color="#fff" flood-opacity="1"/><feBlend in="SourceGraphic" in2="back"/></filter></defs><mask maskUnits="userSpaceOnUse" x="819" y="385.2" width="170.7" height="85.5" id="SVGID_7_"><g class="st12"><linearGradient id="SVGID_8_" gradientUnits="userSpaceOnUse" x1="-5858.006" y1="475.032" x2="-5858.006" y2="436.222" gradientTransform="matrix(-1 0 0 1 -4951.168 0)"><stop offset=".267"/><stop offset="1" stop-color="#fff" stop-opacity=".3"/></linearGradient><path class="st13" d="M810.6 475h192.5v-38.8H810.6z"/></g></mask><g class="st14"><linearGradient id="SVGID_9_" gradientUnits="userSpaceOnUse" x1="6554.003" y1="419.275" x2="6554.305" y2="419.275" gradientTransform="translate(-5584.03)"><stop offset="0" stop-color="#002e61"/><stop offset="1" stop-color="#110a2d"/></linearGradient><path class="st15" d="M970.3 419.5c0-.1-.1-.2-.3-.4.2.3.3.4.3.4z"/><linearGradient id="SVGID_10_" gradientUnits="userSpaceOnUse" x1="6568.609" y1="455.268" x2="6568.932" y2="455.268" gradientTransform="translate(-5584.03)"><stop offset="0" stop-color="#002e61"/><stop offset="1" stop-color="#110a2d"/></linearGradient><path class="st16" d="M984.9 455.4c0-.1-.1-.2-.3-.3.2.3.3.4.3.3z"/><linearGradient id="SVGID_11_" gradientUnits="userSpaceOnUse" x1="6468.646" y1="432.556" x2="6468.802" y2="432.556" gradientTransform="translate(-5584.03)"><stop offset="0" stop-color="#002e61"/><stop offset="1" stop-color="#110a2d"/></linearGradient><path class="st17" d="M884.8 432.7c0-.1-.1-.2-.2-.3.1.2.2.3.2.3z"/><linearGradient id="SVGID_12_" gradientUnits="userSpaceOnUse" x1="6453.295" y1="442.11" x2="6453.402" y2="442.11" gradientTransform="translate(-5584.03)"><stop offset="0" stop-color="#002e61"/><stop offset="1" stop-color="#110a2d"/></linearGradient><path class="st18" d="M869.4 442.2c0-.1-.1-.1-.1-.2 0 .2.1.2.1.2z"/><linearGradient id="SVGID_13_" gradientUnits="userSpaceOnUse" x1="6482.81" y1="433.185" x2="6482.966" y2="433.185" gradientTransform="translate(-5584.03)"><stop offset="0" stop-color="#002e61"/><stop offset="1" stop-color="#110a2d"/></linearGradient><path class="st19" d="M898.9 433.3c0-.1-.1-.2-.2-.3.2.3.2.4.2.3z"/><linearGradient id="SVGID_14_" gradientUnits="userSpaceOnUse" x1="6516.833" y1="403.539" x2="6516.963" y2="403.539" gradientTransform="translate(-5584.03)"><stop offset="0" stop-color="#002e61"/><stop offset="1" stop-color="#110a2d"/></linearGradient><path class="st20" d="M932.9 403.4c-.1.1-.1.1-.1.2s0 0 .1-.2z"/><linearGradient id="SVGID_15_" gradientUnits="userSpaceOnUse" x1="6419.753" y1="436.181" x2="6419.833" y2="436.181" gradientTransform="translate(-5584.03)"><stop offset="0" stop-color="#002e61"/><stop offset="1" stop-color="#110a2d"/></linearGradient><path class="st21" d="M835.8 436.1l-.1.1c0 .1 0 0 .1-.1z"/><linearGradient id="SVGID_16_" gradientUnits="userSpaceOnUse" x1="6407.307" y1="445.152" x2="6407.385" y2="445.152" gradientTransform="translate(-5584.03)"><stop offset="0" stop-color="#002e61"/><stop offset="1" stop-color="#110a2d"/></linearGradient><path class="st22" d="M823.4 445.1c-.1 0-.1.1 0 0-.1.1-.1.1 0 0z"/><linearGradient id="SVGID_17_" gradientUnits="userSpaceOnUse" x1="6431.234" y1="421.87" x2="6431.307" y2="421.87" gradientTransform="translate(-5584.03)"><stop offset="0" stop-color="#002e61"/><stop offset="1" stop-color="#110a2d"/></linearGradient><path class="st23" d="M847.3 421.8c0 .1-.1.1-.1.2 0 0 0-.1.1-.2z"/><linearGradient id="SVGID_18_" gradientUnits="userSpaceOnUse" x1="6488.301" y1="443.974" x2="6488.376" y2="443.974" gradientTransform="translate(-5584.03)"><stop offset="0" stop-color="#002e61"/><stop offset="1" stop-color="#110a2d"/></linearGradient><path class="st24" d="M904.3 443.9l-.1.1c.1.1.1 0 .1-.1z"/><linearGradient id="SVGID_19_" gradientUnits="userSpaceOnUse" x1="6403.041" y1="427.926" x2="6573.711" y2="427.926" gradientTransform="translate(-5584.03)"><stop offset="0" stop-color="#002e61"/><stop offset="1" stop-color="#110a2d"/></linearGradient><path class="st25" d="M984.6 458.7l-3-5.4s1.9.1 2.6.4c-.7-.8-2.4-3.1-3.5-4.2-1.5-1.5-5.3-7.6-4.4-6.9.9.7 3.5 2.2 3.5 2.2s-3.7-5-4.6-7.3c-.9-2.3 2.4.1 2.4.1s-4.6-4.9-4.9-5.9c-.4-1-2.7-5.2-1.1-4.3s2.4 1.3 2.4 1.3-6.6-11.3-6.9-11.9c-.3-.5 1.8.1 2.6.7-1.9-2.8-12.5-19.9-12.5-19.9v2.3s-1.9 3.8-4.1 8c-2.2-2.2-5.1-5.7-5.1-5.7l4.1 1.7-5.9-5.8 2.3.4s-8.5-14.4-8.4-13.5c.1.9-6.6 14.8-7.6 16.8.5-.6 2.1-.9 2.1-.9s-.1 2.6-1 4.4c-.9 1.8-4.7 4.5-4.7 4.5l2.5-.6s3.4.4 1.6 1.6c-1.8 1.2-3.4 5.4-3.4 5.4s2.5-.9 1.8 1.2-1.6 4.9-1.6 4.9h2.6s-1 .8-1.8 2.2c0-.1-.1-.1-.1-.2 0 .1.1.1.1.2-.2.4-.5.8-.6 1.3-.5-1.1-.9-1.9-1-2-.2-.4 1.1.1 1.5.5-1.1-1.9-7.3-13.7-7.3-13.7v1.6s-5 11.9-5.9 12.4 2.3-.5 2.3-.5-3.3 6.1-4.3 6.5c-1 .4 1.9-.4 1.9-.4s-2.6 7.2-2.9 7.4c-.4.2 1.9-.5 1.9-.5s-1.2 3-2 3.5-.9.8 0 .5c.3-.1.2.5 0 1.2l-2.2-1.8 1.4.2s-4.9-7.2-4.9-6.7c.1.4-3.8 7.4-4.4 8.4.3-.3 1.2-.4 1.2-.4s-.1 1.3-.6 2.2c-.5.9-2.7 2.3-2.7 2.3l1.5-.3s2 .2.9.8c-.6.3-1.1 1.1-1.5 1.7-.6-1.1-1.3-2.6-1.5-3.5-.5-1.6 1.2.1 1.2.1s-2.4-3.4-2.5-4c-.2-.7-1.4-3.6-.6-2.9l1.2.9s-3.4-7.7-3.6-8.2c-.2-.4.9.1 1.4.5-1-1.9-6.5-13.7-6.5-13.7v1.6s-4.4 11.9-5.2 12.4c-.8.4 2-.5 2-.5s-1.8 3.8-3 5.6c-1-2.3-2.7-6.2-2.8-6.5-.2-.4.9.1 1.4.5-1-1.9-6.5-13.7-6.5-13.7v1.6s-4.4 11.9-5.2 12.4c-.8.4 2-.5 2-.5s-2.9 6.1-3.8 6.5c-.8.4 1.7-.4 1.7-.4s-2.3 7.2-2.6 7.4 1.7-.5 1.7-.5-.9 2.7-1.6 3.4c-.2-.6-.9-2.3-.3-1.9.6.4.8.6.8.6s-2.3-5.3-2.5-5.6c-.1-.2.6 0 .9.3-.7-1.3-4.4-9.4-4.4-9.4v1.1s-3.1 8.2-3.6 8.5c-.5.3 1.4-.3 1.4-.3s-1.4 2.9-2.2 4c-1.1-1.4-2.9-4.5-2.9-4.5s3 1.1 2.3.7c-.6-.4-1.6-4.3-1.6-4.3s1.6.8 1.2.1c-.4-.7-1.2-3.1-1.2-3.1s2.6 1.3 2 .8c-.6-.6-3.3-7.1-2.9-7.4.4-.3 2.4.6 2.4.6-1.1-1.1-3.9-6.6-3.9-6.6l2.3 1.6-3.3-5.3 1.3.3s-4.8-13.2-4.7-12.3c.1.8-3.7 13.6-4.3 15.4.3-.6 1.2-.8 1.2-.8s-.1 2.4-.6 4c-.5 1.7-2.7 4.2-2.7 4.2l1.4-.6s1.9.3.9 1.5-1.9 4.9-1.9 4.9 1.4-.8 1 1.1v.2l-2.5-2.4 1.4.2s-5.2-8.8-5.1-8.2c.1.5-4 9.1-4.6 10.3.3-.4 1.3-.5 1.3-.5s-.1 1.6-.6 2.7-2.9 2.8-2.9 2.8l1.6-.4s2.1.2 1 1-2.1 3.3-2.1 3.3 1.5-.5 1.1.7c0 .1 0 .1-.1.2l-3.4-2.3 1.4.2s-5.2-6.1-5.1-5.7c.1.4-4 6.3-4.6 7.1.3-.3 1.3-.4 1.3-.4s-.1 1.1-.6 1.9-2.9 1.9-2.9 1.9l1.6-.3s2.1.2 1 .7-2.1 2.3-2.1 2.3 1.5-.4 1.1.5-1 2.1-1 2.1h1.6s-1.1.6-1.6 1.6c-.4 1-.6 1.8-.6 1.8s1.4-.5 1.3 0c-.1.5-1.6 2.6-1.3 2.2.3-.4 2-.4 2-.4l-.6 1H819v12h170.7v-12h-5.1zm-125.3-4l-.4 1.8c-.2-.4-.3-.9-.4-1.4l.8-.4zm-.3-2.5c.1-.1.1.1.1.4-.1-.2-.1-.3-.1-.4zm91.6-43.2c.3-.2 1.1-.1 1.9.1-.4.7-.8 1.4-1.1 2.1-.7-1.2-1.1-2.1-.8-2.2zm-36.7 34.1c-.1.2-.1.3-.2.5l-.8-.8 1 .3zm-10 9.7s-.1 0-.2.1c0 0 0-.1-.1-.1h.3zm-2-4c.1.2.4.4.6.6-.1.2-.2.3-.2.3s.2-.1.5-.1c.2.2.4.4.6.5 0 .1 0 .1-.1.2-.1.3-.3.7-.4 1.1-.7-1.4-1.3-2.9-1-2.6zm-15.3-11.3l-.3.9c-.1-.2-.2-.4-.3-.7.4-.1.6-.2.6-.2zm-.3 1c-.2.5-.4 1.1-.6 1.8-.2-.7-.7-1.8-.7-2.4.1 0 .3-.1.4-.1.4.4.7.6.9.7zm-1.1-.8l-.2.2c0-.2 0-.3.2-.2zm-24.4 6.9s-.1.2-.1.5l-.3-.3.4-.2zm-.3.8c-.3.8-.7 2.3-1.1 3.2-.7-1-.8-3.6-.8-3.6s1.4.4 1.9.4zm-1.3 3.9l-.2.4c-.2.1 1.2-.3 1.2-.3s-.7 2.1-1.2 2.4h-.1c-.3-1.3-.6-2.7-.6-2.7s.5.2.9.2zm-.4 4.3c-.1.4-.3.8-.4 1.2-.2-1-.4-1.9-.4-1.9s.3.4.8.7zm-.4 4.6l-.2.4s-.1 0-.1.1c-.1-.4-.1-.6-.1-.6s.1 0 .4.1zm-24.3-5.4h.2v.1c-.1 0-.2-.1-.2-.1zm12.7-13.6s-.1.1-.3.4c-.1-.2-.1-.3-.1-.4h.4zm-.7-3.7c-.1.3-.1.5-.2.8-.6-.7-1.1-1.3-1.1-1.3l1.3.5zm-10.7 11.8s-.3.2-.6.6c-.2-.2-.4-.4-.5-.6h1.1zm-.7-2.8l-.3.9-2-1.6 2.3.7zm-11.4 14c0 .1-.1.1-.1.2h-.7c.4-.3 1-.7.8-.2z"/></g><defs><filter id="Adobe_OpacityMaskFilter_2_" filterUnits="userSpaceOnUse" x="0" y="313.7" width="335.5" height="210.5"><feFlood result="back" flood-color="#fff" flood-opacity="1"/><feBlend in="SourceGraphic" in2="back"/></filter></defs><mask maskUnits="userSpaceOnUse" x="0" y="313.7" width="335.5" height="210.5" id="SVGID_20_"><g class="st26"><linearGradient id="SVGID_21_" gradientUnits="userSpaceOnUse" x1="-5106.44" y1="524.276" x2="-5106.44" y2="426.279" gradientTransform="matrix(-1 0 0 1 -4951.168 0)"><stop offset="0"/><stop offset=".625" stop-color="#080808"/><stop offset="1" stop-color="#fff" stop-opacity=".4"/></linearGradient><path class="st27" d="M-35.7 524.3h382v-98h-382z"/></g></mask><g class="st28"><path class="st2" d="M29 370.4c.1-.2.3-.4.5-.6-.3.5-.5.7-.5.6zM3.1 432.2c.1-.2.3-.3.6-.4-.5.4-.7.6-.6.4zM180.8 393.1c0-.1.1-.3.3-.4-.2.4-.3.5-.3.4zM208.1 409.5c0-.1.1-.2.2-.3-.1.3-.2.4-.2.3zM155.6 394.2c0-.1.1-.3.3-.4-.2.3-.3.5-.3.4zM95.3 342.8c.1.1.2.2.2.4.1 0 0-.1-.2-.4zM267.7 399.1c.1.1.1.1.1.2.1 0 0 0-.1-.2zM289.8 414.5c.1 0 .1.1.1.1 0 .1 0 .1-.1-.1zM247.3 374.4c.1.1.1.2.1.3.1.1 0 0-.1-.3zM146 412.5c.1.1.1.1.1.2.1 0 0 0-.1-.2z"/><path class="st2" d="M0 460.9l45.4 63.3s62.1-46.5 163.1-37.2c101 9.3 128.3-9.7 115.1-14.3-12.3-4.3-55.7-10.9-61.7-11.8h35l38.3-.8c.3 0 .4-.4.1-.5l-.2-.1H335l-19.2-10.8c-1.7-1-3.6-1.8-5.6-2.4l-19.1-5.9-1.1-1.7s3 0 3.6.6c.6.7-2.1-3-2.2-3.9-.2-.8 2.3 0 2.3 0s-.2-1.4-1-3c-.8-1.7-2.8-2.8-2.8-2.8h2.8s-1-2.1-1.8-3.6c-.7-1.5 1.9-.9 1.9-.9s-1.7-3-3.7-3.9c-2-.9 1.8-1.2 1.8-1.2l2.8.4s-4.2-2-5.1-3.3c-.9-1.3-1.1-3.2-1.1-3.2s1.7.2 2.3.7c-1.1-1.4-8.4-11.7-8.2-12.3.1-.7-9.1 9.9-9.1 9.9l2.5-.3-6 4c0-.1-.1-.2-.1-.3-.7-2.2 1.9-1.3 1.9-1.3s-1.7-4.4-3.7-5.7c-2-1.3 1.8-1.7 1.8-1.7l2.8.6s-4.2-2.8-5.1-4.8-1.1-4.6-1.1-4.6 1.7.3 2.3.9c-1.1-2.1-8.4-16.8-8.2-17.7.1-1-9.1 14.2-9.1 14.2l2.5-.4-4.4 4.2c0-.1 0-.2-.1-.3-.7-3.3 1.8-1.9 1.8-1.9s-1.6-6.6-3.4-8.5c-1.8-1.9 1.6-2.5 1.6-2.5l2.6 1s-3.8-4.3-4.7-7.2c-.9-2.9-1-7-1-7s1.6.5 2.1 1.4c-1-3.1-7.7-25.1-7.6-26.5.1-1.5-8.4 21.3-8.4 21.3l2.3-.6-5.9 9.1 4.1-2.7s-5 9.5-6.9 11.4c0 0 3.6-1.5 4.3-1 .7.6-4 11.8-5.1 12.8-1.1 1 3.6-1.4 3.6-1.4s-1.5 4.3-2.2 5.4c-.7 1.2 2.2-.2 2.2-.2s-1.7 6.6-2.8 7.3c-1.1.8 4.1-1.2 4.1-1.2s-3.2 5.2-5.1 7.7c-1.4-2-3.9-6.9-3.9-6.9s3.3 1.1 2.4.6c-.9-.5-6.3-14.7-6.3-14.7V393s-6.7 14-7.9 16.3c.5-.5 1.9-1 1.7-.6-.2.5-4.4 9.7-4.4 9.7s.5-.4 1.5-1.1c.9-.7-.3 2.2-.6 3.3-1.3-1.2-2.9-5.9-2.9-5.9s3.6 1.2 3 .9c-.6-.3-4.6-12.7-4.6-12.7s4.4 1.4 2.9.7c-1.5-.7-6.7-11.1-6.7-11.1s4.9 1.6 3.5.9c-1.3-.7-9.2-21.3-9.2-21.3v-2.8s-9.7 20.3-11.5 23.6c.7-.8 2.7-1.5 2.4-.9-.2.5-3.2 7.2-5 11.1-2.1-3.1-5.4-9.6-5.4-9.6s4.9 1.6 3.5.9c-1.3-.7-9.2-21.3-9.2-21.3v-2.8s-9.7 20.3-11.5 23.6c.7-.8 2.7-1.5 2.4-.9-.3.7-6.4 14-6.4 14s.7-.5 2.2-1.6c1.5-1.1-.7 3.9-1 5.1-.3 1.2-4.5 6.9-4.5 6.9s3-2.9 2.2-.1c-.5 1.5-1.7 4-2.7 6-.7-1.1-1.6-2.4-2.6-2.9-1.9-1.1 1.7-1.4 1.7-1.4l2.6.5s-3.9-2.3-4.8-3.9c-.9-1.6-1-3.8-1-3.8s1.6.2 2.1.8c-1-1.7-7.9-13.7-7.8-14.5.1-.8-8.6 11.6-8.6 11.6l2.4-.3-3.9 3.2c-.4-1.3-.6-2.3 0-2.1 1.6.6 1.4 0 0-.9s-3.5-6.1-3.5-6.1 4.1 1.2 3.4.9c-.7-.3-5.2-12.7-5.2-12.7s5 1.4 3.3.7c-1.7-.7-7.6-11.1-7.6-11.1s5.5 1.6 4 .9c-1.5-.7-10.5-21.3-10.5-21.3V358s-11 20.3-13 23.6c.8-.8 3.1-1.5 2.7-.9-.1.2-.8 1.6-1.8 3.5-.3-.8-.7-1.6-1.1-2.3.1-.1.1-.2.2-.3-.1.1-.2.2-.2.3-1.5-2.3-3.3-3.7-3.3-3.7h4.6s-1.7-4.8-2.9-8.4c-1.2-3.6 3.2-2.1 3.2-2.1s-2.8-7.2-6.1-9.3c-3.2-2.1 2.9-2.7 2.9-2.7l4.5 1.1s-6.8-4.6-8.3-7.8c-1.5-3.2-1.8-7.6-1.8-7.6s2.8.5 3.7 1.5c-1.8-3.4-13.7-27.4-13.4-28.9.1-1.9-15 23-15 23l4.1-.6-10.5 9.9 7.3-3s-5.1 6-9 9.8c-3.8-7.1-7.2-13.7-7.2-13.7v-4S33 364.9 29.5 369.7c1.4-1.1 5.2-2.1 4.7-1.3-.6 1.1-12.3 20.4-12.3 20.4s1.4-.8 4.2-2.3-1.3 5.7-1.9 7.4c-.6 1.7-8.8 10.1-8.8 10.1s5.8-4.2 4.2-.2-8.1 12.6-8.1 12.6 4.5-2.5 6.2-3.8c1.6-1.3-5.2 9.3-7.8 11.8-2 1.9-5 5.8-6.3 7.3 1.3-.6 4.6-.7 4.6-.7L3 440.3l-3 20.6zm226.9-26.7c-.2.8-.5 1.7-.8 2.4-.4-1.6-.7-3.2-.7-3.2l1.5.8zm-1.1-4.4c-.1-.5-.1-.8.2-.7-.1.2-.2.4-.2.7zM61.9 358.5c-.7-1.2-1.3-2.4-2-3.6 1.5-.3 2.9-.4 3.4-.1.4.1-.2 1.7-1.4 3.7zm68.3 54.3l-1.4 1.4c-.1-.3-.2-.5-.3-.8l1.7-.6zm16.4 17.4c0 .1-.1.1-.1.2-.2-.1-.3-.2-.3-.2h.4zm1.3-2.4c-.2-.6-.5-1.3-.7-1.8-.1-.1-.1-.3-.1-.4.3-.2.7-.5 1.1-.8.4 0 .9.1.9.1l-.3-.6c.4-.4.8-.7 1.1-1 .4-.5-.7 2-2 4.5zm30-23.7c-.2.5-.4.9-.5 1.2l-.5-1.5s.4.2 1 .3zm1.1.4c.3.1.6.2.8.2-.1.9-.9 2.9-1.3 4.1-.4-1.2-.8-2.3-1-3.1.2-.3.8-.7 1.5-1.2zm.8 0c-.1-.1-.2-.2-.4-.3.3-.1.4 0 .4.3zm43.7 11.9l-.6.6c-.2-.5-.3-.8-.3-.8s.5.1.9.2zm3 .4s-.2 4.4-1.4 6.2c-.6-1.7-1.4-4.1-1.9-5.6.9 0 3.3-.6 3.3-.6zm.5 7.2l-1 4.6-.1-.1c-.9-.6-2.1-4.2-2.1-4.2s2.5.8 2.1.6c-.1 0-.2-.3-.4-.7.7-.1 1.5-.2 1.5-.2zm.7 6.3s-.2 1.5-.7 3.3c-.2-.5-.5-1.3-.8-2 .8-.6 1.5-1.3 1.5-1.3zm0 8.9s-.1.4-.2 1.1c0-.1-.1-.1-.1-.2-.1-.1-.3-.3-.4-.7.4-.1.7-.2.7-.2zm20.5-32.4c0 .2-.1.4-.3.7-.3-.4-.5-.7-.5-.7h.8zm2.8-7.4s-.8 1-2 2.3c-.1-.5-.2-.9-.3-1.4l2.3-.9zm18.8 31c0-.1 0-.1-.1-.2.2 0 .4-.1.4-.1s-.1.2-.3.3zm0-9.7c-.2.3-.5.7-.9 1.1-.6-.7-1.1-1.1-1.1-1.1h2zm3.3-5.9s-1.7 1.4-3.5 2.7c-.2-.5-.4-1.1-.5-1.6l4-1.1zm17.7 25.5h-1.3c-.1-.1-.2-.3-.2-.3-.5-.9.7-.2 1.5.3z"/></g><path class="st2" d="M278.3 513.5c-.5-.4-1-.8-1.5-1.1-.5-.4-1-.8-1.5-1.1-.5-.4-1-.8-1.5-1.1-.5-.4-1-.8-1.5-1.1-.5-.4-1-.8-1.5-1.1-.5-.4-1-.8-1.5-1.1-.5-.4-1-.8-1.5-1.1-.5-.4-1-.8-1.5-1.1-3.3-2.8-8.3-3-13.9.2L61.9 615c-9.8 5.6-17.8 19.5-17.8 30.8v124.8c0 5.8 2.1 9.8 5.4 11.6.5.4 1 .8 1.5 1.1.5.4 1 .8 1.5 1.1.5.4 1 .8 1.5 1.1.5.4 1 .8 1.5 1.1.5.4 1 .8 1.5 1.1.5.4 1 .8 1.5 1.1.5.4 1 .8 1.5 1.1.5.4 1 .8 1.5 1.1 3.3 2.8 8.3 3 13.9-.2L265.6 681c9.8-5.6 17.8-19.5 17.8-30.8V525.1c.3-5.8-1.8-9.8-5.1-11.6z"/><path class="st29" d="M274 520c.8 0 1.1.3 1.4.6.7.9 1.1 2.6 1.1 4.7v124.8c0 8.7-6.6 20-14.1 24.4L72.3 784.2c-2.1 1.2-3.5 1.4-4.2 1.4-.8 0-1.1-.3-1.4-.6-.7-.9-1.1-2.6-1.1-4.7V655.6c0-8.7 6.6-20 14.1-24.4l190.2-109.8c2-1.2 3.4-1.4 4.1-1.4"/><path class="st30" d="M212.9 848.1s-52.8 6-57.3-60.3 0-78.9 0-78.9 2.2-14.1 0-11.2-4.5 17.9-4.5 17.9-13.4 3.7-14.9 9.7c-1.5 6 4.5 13.4 4.5 13.4l1.5 37.9s-6.7 91.5 48.4 106.4c55.1 14.9 36.2 64.3 36.2 64.3l57.6-33.1s102.6-41.7 63.1-49.1-55.8-46.9-72.2-42.4c-16.3 4.5-34.2 20.6-62.4 25.4z"/><path class="st30" d="M297.7 717.3c-12.7-1.7-27.3 7.1-32 19.3-1.2 3.1-1.1 8-.7 17.9.6 20.5 1.1 30.9 7.4 35.7 4.6 3.5 8.3 1.8 11.2 6 3.3 4.8 1.5 12-.7 16.4-2.8 5.5-7.3 8-17.1 13.4-16.2 8.8-20.2 10.6-22.3 11.9-21.9 13.3-30.9 96.9 6.7 101.9 11 1.5 12.9-34.1 50.6-24.7 3 .7 20 4.7 25.3-2.8 37.5-52.6 10.4-171-17.1-190.4-5.4-3.8-11.3-4.6-11.3-4.6z"/><path class="st31" d="M213.2 847.1c-5.4.8-10 .7-16.1-.3-14.1-2.4-24.9-13.8-36-23.1-2.2-1.8-4.5-3.6-7.2-4.3-2.7-.6-6.1.4-7.2 2.9-.7 1.5-.5 3.3-.3 5 1.5 10.3 5.1 20.3 10.6 29.2 5.3 8.6 12.4 16.3 21.3 21.2 11.5 6.3 25.7 7.9 35.5 16.8 7.2 6.5 10.9 16.3 11.4 25.9s-2.6 18.8-6.3 27.8c7.8.2 15.5-.8 23.3-2 17.2-2.7 34.3-7.6 50.3-14.1 23.2-9.5 44.6-24.2 59.6-44.2 3.5-4.7 7.1-11.2 5.1-17.1-.7-2.1-1.5-3.4-3.8-4-3.3-.8-6.6-1.4-9.8-2.4-6.6-2-13-4.8-19-8.2l-4.5-2.7c-9.5-6.2-17.8-14.1-26.1-21.9-4.2-4-8.8-8.2-14.6-8.9-3.2-.4-6.3.4-9.4 1.3-12.4 3.8-23.5 10.8-35.2 16.2-6.9 3.1-14.2 5.7-21.6 6.9z"/><path class="st32" d="M264.2 743.3c.4-13.9 8.2-26.8 26.8-29.8 18-2.9 36.2 12.3 43.9 22.3 10.3 13.4 6.5 20.7 17.9 32 10.2 10.2 17.7 8.6 29.8 17.1 17.2 12.2 11.1 23.5 26 37.2 15.8 14.5 26.4 7.2 41.7 20.1 14.1 11.9 22.8 33.3 20.1 51.3-5.3 34.8-53.4 58.9-93.7 52.8-41.4-6.2-76.1-44.4-72.9-68.4.7-5.4 3.8-13.6 0-23.1-3.8-9.5-10.3-9.6-17.1-17.9-10.9-13.3-2.4-23.3-10.4-55.1-4.9-18.2-12.5-27.7-12.1-38.5z"/><g><path class="st2" d="M714.4 538.4l72.2-66.9 72.3 66.9v-68.9H714.4z"/><linearGradient id="SVGID_22_" gradientUnits="userSpaceOnUse" x1="-5821.667" y1="461.099" x2="-5653.94" y2="461.099" gradientTransform="matrix(-1 0 0 1 -4951.168 0)"><stop offset="0" stop-color="#002e61"/><stop offset=".267" stop-color="#012c5f"/><stop offset="1" stop-color="#110a2d"/></linearGradient><path class="st33" d="M702.8 470h167.7v-17.8H702.8z"/><linearGradient id="SVGID_23_" gradientUnits="userSpaceOnUse" x1="-5796.424" y1="423.776" x2="-5679.182" y2="423.776" gradientTransform="matrix(-1 0 0 1 -4951.168 0)"><stop offset="0" stop-color="#002e61"/><stop offset=".267" stop-color="#012c5f"/><stop offset="1" stop-color="#110a2d"/></linearGradient><path class="st34" d="M728 451.7h117.3v-55.8H728z"/><path transform="rotate(-180 823.298 417.383)" class="st1" d="M819.3 413.4h8v8h-8z"/><path transform="rotate(-180 808.633 417.383)" class="st1" d="M804.6 413.4h8v8h-8z"/><path transform="rotate(-180 793.968 417.383)" class="st1" d="M790 413.4h8v8h-8z"/><path transform="rotate(-180 779.302 417.383)" class="st1" d="M775.3 413.4h8v8h-8z"/><path transform="rotate(-180 764.637 417.383)" class="st1" d="M760.6 413.4h8v8h-8z"/><path transform="rotate(-180 749.972 417.383)" class="st1" d="M746 413.4h8v8h-8z"/></g><g><path transform="rotate(-180 504.605 402.406)" class="st35" d="M437.7 347h133.9v110.8H437.7z"/><path transform="rotate(-180 544.87 449.645)" class="st36" d="M531.5 436.3h26.8v26.8h-26.8z"/><path transform="rotate(-180 518.088 449.645)" class="st37" d="M504.7 436.3h26.8v26.8h-26.8z"/><path transform="rotate(-180 491.307 449.645)" class="st38" d="M477.9 436.3h26.8v26.8h-26.8z"/><path transform="rotate(-180 464.526 449.645)" class="st37" d="M451.1 436.3h26.8v26.8h-26.8z"/><path transform="rotate(-180 437.744 449.645)" class="st39" d="M424.4 436.3h26.8v26.8h-26.8z"/><path transform="rotate(-180 571.651 449.645)" class="st38" d="M558.3 436.3h26.8v26.8h-26.8z"/><path class="st37" d="M424.4 382.7h26.8v26.8h-26.8z"/><path class="st36" d="M451.1 382.7h26.8v26.8h-26.8z"/><path class="st40" d="M477.9 382.7h26.8v26.8h-26.8z"/><path class="st39" d="M504.7 382.7h26.8v26.8h-26.8z"/><path class="st5" d="M531.5 382.7h26.8v26.8h-26.8z"/><path class="st40" d="M558.3 382.7h26.8v26.8h-26.8z"/><path transform="rotate(-180 544.87 422.864)" class="st38" d="M531.5 409.5h26.8v26.8h-26.8z"/><path transform="rotate(-180 518.088 422.864)" class="st5" d="M504.7 409.5h26.8v26.8h-26.8z"/><path transform="rotate(-180 491.307 422.864)" class="st37" d="M477.9 409.5h26.8v26.8h-26.8z"/><path transform="rotate(-180 464.526 422.864)" class="st38" d="M451.1 409.5h26.8v26.8h-26.8z"/><path transform="rotate(-180 437.744 422.864)" class="st5" d="M424.4 409.5h26.8v26.8h-26.8z"/><path transform="rotate(-180 571.651 422.864)" class="st37" d="M558.3 409.5h26.8v26.8h-26.8z"/><path class="st41" d="M637.9 472s-79.6 72.9-97.5 135.4h-35.7V449.6L637.9 472z"/><path class="st2" d="M371.5 472s79.6 72.9 97.5 135.4h35.7V449.6L371.5 472z"/><path class="st42" d="M371.5 472v-6.7l133.2-23.1L637.9 466v6l-133.2-22.4z"/><g><path transform="rotate(-180 558.447 362.234)" class="st42" d="M555.1 358.9h6.7v6.7h-6.7z"/><path transform="rotate(-180 546.544 362.234)" class="st42" d="M543.2 358.9h6.7v6.7h-6.7z"/><path transform="rotate(-180 534.64 362.234)" class="st42" d="M531.3 358.9h6.7v6.7h-6.7z"/><path transform="rotate(-180 522.738 362.234)" class="st42" d="M519.4 358.9h6.7v6.7h-6.7z"/><path transform="rotate(-180 510.835 362.234)" class="st42" d="M507.5 358.9h6.7v6.7h-6.7z"/><path transform="rotate(-180 498.932 362.234)" class="st42" d="M495.6 358.9h6.7v6.7h-6.7z"/><path transform="rotate(-180 487.03 362.234)" class="st42" d="M483.7 358.9h6.7v6.7h-6.7z"/><path transform="rotate(-180 475.127 362.234)" class="st42" d="M471.8 358.9h6.7v6.7h-6.7z"/><path transform="rotate(-180 463.224 362.234)" class="st42" d="M459.9 358.9h6.7v6.7h-6.7z"/><path transform="rotate(-180 451.321 362.234)" class="st42" d="M448 358.9h6.7v6.7H448z"/></g><path class="st35" d="M460.1 340.3h24.5V285c0-2.7-2.2-4.9-4.9-4.9h-19.6v60.2z"/><path class="st42" d="M437.3 347h134.6l7.5-11.2H429.8z"/><g><path transform="rotate(-180 472.244 297.925)" class="st32" d="M459.9 296.4h24.7v3h-24.7z"/><path class="st32" d="M543.7 599.5l-39-7.2-39 7.2s-1.3-3.3-1.7-4.3 40.7-8.5 40.7-8.5l40.7 8.5s-1.4 3.6-1.7 4.3z"/></g></g><g><path transform="rotate(130.73 708.167 315.65)" class="st2" d="M705.3 209.6h5.7v212h-5.7z"/><path transform="rotate(-157.972 719.295 261.586)" class="st2" d="M643.2 259.6h152.2v4H643.2z"/><path class="st43" d="M839.7 395.9l-48.2-117.4-127.8-57.6"/><path class="st2" d="M791.5 408.1c3.3 0 5.9-2.6 5.9-5.9V280.9c0-3.3-2.6-5.9-5.9-5.9-3.3 0-5.9 2.6-5.9 5.9v121.2c0 3.3 2.6 6 5.9 6z"/><path transform="rotate(153.25 588.051 245.587)" class="st2" d="M586.9 228.7h2.2v33.8h-2.2z"/><path transform="rotate(153.25 561.788 262.89)" class="st2" d="M560.9 252.9h1.8v19.9h-1.8z"/><path transform="rotate(153.25 620.065 235.609)" class="st2" d="M619.2 225.5h1.8v20.2h-1.8z"/><path class="st43" d="M516.2 296.3l64.1-65.9 94.9-10.8"/><path class="st2" d="M530.4 299.3l144.5-72.8c2.5-1.3 3.5-4.3 2.2-6.8-1.3-2.5-4.3-3.5-6.8-2.2L515 295.8l-2.7 1.4 18.1 2.1z"/></g><g><path class="st41" d="M791 754.3h26.7v-111L791 628.4z"/><path transform="rotate(-180 764.26 691.35)" class="st2" d="M737.6 628.4H791v125.8h-53.4z"/><path transform="rotate(-180 743.557 642.239)" class="st40" d="M741.6 640.3h3.9v3.9h-3.9z"/><circle class="st32" cx="782.4" cy="642" r="1.4"/><circle class="st32" cx="777.6" cy="642" r="1.4"/><circle class="st32" cx="772.8" cy="642" r="1.4"/><circle class="st44" cx="768" cy="642" r="1.4"/><g><path transform="rotate(-180 743.557 649.908)" class="st40" d="M741.6 648h3.9v3.9h-3.9z"/><circle class="st32" cx="782.4" cy="649.7" r="1.4"/><circle class="st32" cx="777.6" cy="649.7" r="1.4"/><circle class="st32" cx="772.8" cy="649.7" r="1.4"/><circle class="st44" cx="768" cy="649.7" r="1.4"/></g><g class="st45"><path class="st46" d="M794.7 636.7l19.2 11.1M794.7 638.6l19.2 11.1M794.7 640.5l19.2 11.1M794.7 642.4l19.2 11.1M794.7 644.3l19.2 11.1M794.7 646.2l19.2 11.1M794.7 648.2l19.2 11M794.7 650.1l19.2 11M794.7 652l19.2 11M794.7 653.9l19.2 11M794.7 655.8l19.2 11M794.7 657.7l19.2 11M794.7 659.6l19.2 11M794.7 661.5l19.2 11.1M794.7 663.4l19.2 11.1M794.7 665.3l19.2 11.1M794.7 667.2l19.2 11.1M794.7 669.1l19.2 11.1M794.7 671l19.2 11.1M794.7 672.9l19.2 11.1M794.7 674.8l19.2 11.1M794.7 676.8l19.2 11M794.7 678.7l19.2 11M794.7 680.6l19.2 11M794.7 682.5l19.2 11M794.7 684.4l19.2 11M794.7 686.3l19.2 11M794.7 688.2l19.2 11M794.7 690.1l19.2 11.1M794.7 692l19.2 11.1M794.7 693.9l19.2 11.1M794.7 695.8l19.2 11.1M794.7 697.7l19.2 11.1M794.7 699.6l19.2 11.1M794.7 701.5l19.2 11.1M794.7 703.4l19.2 11.1M794.7 705.4l19.2 11M794.7 707.3l19.2 11M794.7 709.2l19.2 11M794.7 711.1l19.2 11M794.7 713l19.2 11M794.7 714.9l19.2 11M794.7 716.8l19.2 11M794.7 718.7l19.2 11.1M794.7 720.6l19.2 11.1M794.7 722.5l19.2 11.1M794.7 724.4l19.2 11.1M794.7 726.3l19.2 11.1M794.7 728.2l19.2 11.1M794.7 730.1l19.2 11.1M794.7 732l19.2 11.1M794.7 734l19.2 11M794.7 735.9l19.2 11M794.7 737.8l19.2 11M794.7 739.7l19.2 11M794.7 741.6l19.2 11"/></g></g><g><path class="st41" d="M844.1 753.7h17V683l-17-9.4z"/><path transform="rotate(-180 827.107 713.61)" class="st2" d="M810.1 673.6h34v80.1h-34z"/><path transform="rotate(-180 813.925 682.34)" class="st40" d="M812.7 681.1h2.5v2.5h-2.5z"/><circle class="st32" cx="838.7" cy="682.2" r=".9"/><circle class="st32" cx="835.6" cy="682.2" r=".9"/><circle class="st32" cx="832.6" cy="682.2" r=".9"/><circle class="st44" cx="829.5" cy="682.2" r=".9"/><g><path transform="rotate(-180 813.925 687.224)" class="st40" d="M812.7 686h2.5v2.5h-2.5z"/><circle class="st32" cx="838.7" cy="687.1" r=".9"/><circle class="st32" cx="835.6" cy="687.1" r=".9"/><circle class="st32" cx="832.6" cy="687.1" r=".9"/><circle class="st44" cx="829.5" cy="687.1" r=".9"/></g><g class="st45"><path class="st47" d="M846.5 678.8l12.2 7.1M846.5 680l12.2 7.1M846.5 681.2l12.2 7.1M846.5 682.5l12.2 7M846.5 683.7l12.2 7M846.5 684.9l12.2 7M846.5 686.1l12.2 7M846.5 687.3l12.2 7.1M846.5 688.5l12.2 7.1M846.5 689.7l12.2 7.1M846.5 691l12.2 7M846.5 692.2l12.2 7M846.5 693.4l12.2 7M846.5 694.6l12.2 7M846.5 695.8l12.2 7.1M846.5 697l12.2 7.1M846.5 698.2l12.2 7.1M846.5 699.5l12.2 7M846.5 700.7l12.2 7M846.5 701.9l12.2 7M846.5 703.1l12.2 7M846.5 704.3l12.2 7.1M846.5 705.5l12.2 7.1M846.5 706.7l12.2 7.1M846.5 708l12.2 7M846.5 709.2l12.2 7M846.5 710.4l12.2 7M846.5 711.6l12.2 7M846.5 712.8l12.2 7.1M846.5 714l12.2 7.1M846.5 715.2l12.2 7.1M846.5 716.5l12.2 7M846.5 717.7l12.2 7M846.5 718.9l12.2 7M846.5 720.1l12.2 7M846.5 721.3l12.2 7.1M846.5 722.5l12.2 7.1M846.5 723.7l12.2 7.1M846.5 725l12.2 7M846.5 726.2l12.2 7M846.5 727.4l12.2 7M846.5 728.6l12.2 7M846.5 729.8l12.2 7M846.5 731l12.2 7.1M846.5 732.2l12.2 7.1M846.5 733.5l12.2 7M846.5 734.7l12.2 7M846.5 735.9l12.2 7M846.5 737.1l12.2 7M846.5 738.3l12.2 7M846.5 739.5l12.2 7.1M846.5 740.7l12.2 7.1M846.5 741.9l12.2 7.1M846.5 743.2l12.2 7M846.5 744.4l12.2 7M846.5 745.6l12.2 7"/></g></g><g class="st48"><path class="st49" d="M582.7 386.7H561M582.7 388.6H561M582.7 390.4H561M582.7 392.3H561M582.7 394.1H561M582.7 396H561M582.7 397.9H561M582.7 399.7H561M582.7 401.6H561M582.7 403.4H561M582.7 405.3H561"/></g><g class="st48"><path class="st49" d="M502.4 413.5h-21.7M502.4 415.3h-21.7M502.4 417.2h-21.7M502.4 419.1h-21.7M502.4 420.9h-21.7M502.4 422.8h-21.7M502.4 424.6h-21.7M502.4 426.5h-21.7M502.4 428.4h-21.7M502.4 430.2h-21.7M502.4 432.1h-21.7"/></g><g class="st48"><path class="st49" d="M448.8 386.7h-21.7M448.8 388.6h-21.7M448.8 390.4h-21.7M448.8 392.3h-21.7M448.8 394.1h-21.7M448.8 396h-21.7M448.8 397.9h-21.7M448.8 399.7h-21.7M448.8 401.6h-21.7M448.8 403.4h-21.7M448.8 405.3h-21.7"/></g><g><path class="st4" d="M833.9 752.7c.9 2.4-2 5.9-4.1 8.5-8.9 11.2-18.6 21.9-30.2 30.2-11.6 8.3-25.2 14.3-39.5 15-22.4 1.2-43.5-10-65.7-12.7 3.8-8.9 8.4-17.4 13.6-25.5 5.3-8.2 11.4-16.2 19.8-21.1 12.9-7.6 28.8-7 43.8-5.9 19.9 1.5 39.8 3.6 59 9.1 1.9.6 2.9 1.4 3.3 2.4z"/><path class="st1" d="M697.1 792.7l15.7-5.7 15.7-5.5c10.5-3.6 21.1-7.1 31.7-10.5 10.6-3.3 21.2-6.6 32-9.3 5.4-1.4 10.9-2.3 16.4-3.2l16.5-2.6-16.4 3c-5.5.9-10.9 1.9-16.3 3.4-10.7 2.8-21.4 6.1-32 9.5-10.6 3.3-21.2 6.8-31.7 10.3l-31.6 10.6zM783.4 749.4c-.8 1-1.7 2-2.6 3l-2.6 2.9c-.9 1-1.7 1.9-2.6 2.9-.8 1-1.6 2-2.4 3.1.5-1.2 1.2-2.4 1.9-3.4.7-1.1 1.6-2.1 2.4-3.1.9-1 1.8-1.9 2.7-2.8 1.2-1 2.2-1.8 3.2-2.6zM802.6 778.1c-2 0-4.1-.2-6.1-.5-2-.2-4-.6-6-1s-4-.9-5.9-1.5c-1.9-.6-3.9-1.4-5.6-2.5.5.2.9.4 1.4.6l1.4.5c1 .3 1.9.6 2.9.8 2 .5 3.9 1 5.9 1.3l6 1.2 6 1.1zM785.6 792.7c-2.7-.8-5.3-1.7-7.9-2.6-2.6-.9-5.2-2-7.7-3-2.5-1.1-5.1-2.2-7.6-3.4-2.5-1.2-5-2.5-7.3-3.9 2.5 1.2 5 2.3 7.6 3.4 2.5 1.1 5.1 2.2 7.6 3.2 2.5 1.1 5.1 2.1 7.7 3.2 2.4.9 5 2 7.6 3.1zM759.8 745.7l-3.8 4.8c-1.3 1.6-2.5 3.2-3.7 4.8-1.2 1.6-2.4 3.3-3.5 5l-.8 1.3-.7 1.3c-.2.5-.4.9-.6 1.4-.2.5-.3 1-.5 1.5.2-2.1 1.1-4 2.1-5.8 1-1.8 2.1-3.5 3.4-5.2 1.2-1.6 2.5-3.2 3.9-4.7 1.2-1.5 2.7-3 4.2-4.4zM759 799.3c-2.5-.5-4.9-1.2-7.3-1.9-2.4-.7-4.8-1.6-7.2-2.4-2.3-.9-4.7-1.9-6.9-3.1-1.1-.6-2.2-1.2-3.3-2-1-.8-2-1.6-2.7-2.7.8 1 1.8 1.7 2.9 2.4 1.1.7 2.2 1.2 3.3 1.7 2.3 1.1 4.6 2 6.9 2.9 2.3.9 4.7 1.7 7.1 2.6l7.2 2.5zM736 755.7c-1 1.6-2 3.2-3 4.9-.9 1.6-1.9 3.3-2.7 5-.9 1.7-1.7 3.4-2.3 5.2-.2.4-.3.9-.5 1.3-.1.5-.3.9-.4 1.4-.1.5-.2.9-.3 1.4-.1.5-.1.9-.2 1.4-.2-1.9.2-3.9.8-5.7.5-1.9 1.3-3.6 2.2-5.3.9-1.7 1.8-3.4 2.9-5 1.1-1.6 2.2-3.2 3.5-4.6z"/></g><g><path class="st4" d="M686.2 699.6c-13.7 3.3-5.2 22.3-8.1 28.9s-15-12.9-18.1-4.5 11.6 26.7 10.8 28.2c-2.6 4.9-18.1-4.5-17.6 4.4s29.2 18.6 21.1 22.7c-8.1 4.1-13.9-7.4-16.8-.8-2.9 6.7 7.4 25.9 21.9 29.9 14.5 4 37.9-1.4 43.1-11.2s11-23.2 3.1-20.8c-7.9 2.4-17.4 2.7-14.7-2.2 2.3-4.4 22.6-25 11.3-24.9-11.3.1-12.6 8.7-15.8 4.7-3.2-4 14.7-22.6 11.5-26.6-3.2-4-7.6.6-17.4 2.7-9.8 2.1-.6-33.7-14.3-30.5z"/><path class="st1" d="M694.6 804.5c-1.9-11.2-3.4-22.5-4.7-33.8-1-8.8-1.9-17.7-2.2-26.6-.2-3.8-.2-7.6 0-11.4.2-4.7 1-9.3 1.1-14 .1-3.2.2-6.7-.9-9.8-.2-.5-.5-1.6-1.1-1.9-.3-.1-1 .9-1.3.7 2.1.8 1.9 6.7 2 8.2.3 8.6-1.3 17-1.1 25.6.4 17 2.7 34 5.1 50.9.6 4.3 1.2 8.5 2 12.8-.2-.2 1.1-.6 1.1-.7z"/></g><linearGradient id="SVGID_24_" gradientUnits="userSpaceOnUse" x1="158.909" y1="768.931" x2="158.909" y2="768.931"><stop offset="0" stop-color="#52e5e7"/><stop offset=".689" stop-color="#0130cb"/></linearGradient><linearGradient id="SVGID_25_" gradientUnits="userSpaceOnUse" x1="155.578" y1="787.805" x2="155.578" y2="787.805"><stop offset="0" stop-color="#52e5e7"/><stop offset=".689" stop-color="#0130cb"/></linearGradient><g><path class="st52" d="M82.5 661.9v9.3l72.6-41.9V620zM163.1 615.4v9.3l16.1-9.3v-9.3zM139 647.9v9.3l64.4-37.2v-9.3z"/><path class="st53" d="M195.4 596.8v9.3l40.8-23.6v-9.3zM130.9 652.6v9.3l-24.2 13.9v-9.3z"/><path class="st52" d="M82.5 699.1v9.3l40.3-23.3v-9.3z"/><path class="st53" d="M130.8 671.2v9.3l40.4-23.3v-9.3z"/><path class="st52" d="M179.2 643.3v9.3l72.6-41.9v-9.3z"/><path class="st53" d="M211.5 606.1v9.3l16.1-9.3v-9.3z"/><path class="st52" d="M114.8 699.1l-.1 9.3 72.6-41.9v-9.3z"/><path class="st53" d="M195.4 652.6v9.3l16.1-9.3v-9.3zM219.5 638.6v9.3l40.3-23.2v-9.3z"/></g></svg>