<svg id="Layer_1" xmlns="http://www.w3.org/2000/svg" xmlns:xlink="http://www.w3.org/1999/xlink" viewBox="0 0 378.9 396.3"><style>.st0{fill:url(#SVGID_3_)}.st0,.st1{clip-path:url(#SVGID_2_)}.st2{fill:#1b0d44}.st3{fill:#29abe2}.st4{fill:#4d4d4d}.st5{fill:#f54c43}.st6{fill:#ffaa64}.st7{opacity:.27}.st8{fill:none;stroke:#f54c43;stroke-width:.3468;stroke-linecap:round;stroke-miterlimit:10}.st9{fill:#010f27}.st10{fill:none;stroke:#010f27;stroke-width:1.251;stroke-miterlimit:10}.st11{fill:#f2f2f2}.st12{fill:#fff;stroke:#002e61;stroke-width:3.8585;stroke-miterlimit:10}.st13{fill:#00132e}.st14{opacity:.29}.st15{fill:none;stroke:#fff;stroke-width:.4423;stroke-miterlimit:10}.st16{opacity:.66}.st17{fill:#fff}.st18{opacity:.45;fill:#00132e}.st19{opacity:.74;fill:#fff}.st20{fill:#0d1d3a}.st21,.st22{clip-path:url(#SVGID_2_);fill:#20d5d2}.st22{opacity:.75;fill:#0f6fff;enable-background:new}.st23{clip-path:url(#SVGID_5_)}.st24{clip-path:url(#SVGID_7_);fill:#ff6464}.st25{clip-path:url(#SVGID_9_)}.st26{clip-path:url(#SVGID_11_);fill:#ffa3a3}.st27{clip-path:url(#SVGID_13_)}.st28{clip-path:url(#SVGID_15_);fill:#00132e}.st29{clip-path:url(#SVGID_17_)}.st30{clip-path:url(#SVGID_19_);enable-background:new}.st31{clip-path:url(#SVGID_21_)}.st32{clip-path:url(#SVGID_23_)}.st33{clip-path:url(#SVGID_25_);fill:#2900aa}.st34{fill:#8c6239}.st35{fill:#754c24}</style><defs><path id="SVGID_1_" d="M0 0h378.9v396.3H0z"/></defs><clipPath id="SVGID_2_"><use xlink:href="#SVGID_1_" overflow="visible"/></clipPath><linearGradient id="SVGID_3_" gradientUnits="userSpaceOnUse" x1="-10.361" y1="1219.34" x2="409.877" y2="1219.34" gradientTransform="matrix(1 0 0 -1 0 1395.164)"><stop offset="0" stop-color="#ffe38d"/><stop offset=".689" stop-color="#ff6464"/></linearGradient><path class="st0" d="M388.5 41.5c7.2 7.7 12.3 17.2 14.8 27.4 2.7 11.5-1.1 23.2 3.2 34.7 1.3 3.5 3.1 6.8 3.3 10.5.6 15.3-23.1 24.3-16.1 40.6 4 9.2 6.9 16.6 5.9 26.9-1.1 9.8-4.2 19.3-9.2 27.8-2.2 4-4.8 7.7-7.6 11.3-15.1 19.1-35.7 33.6-48.8 54.1-6 9.5-10.7 20.5-20 26.8-10 6.9-23.4 6.8-35.3 3.8-11.8-2.9-22.9-8.3-34.7-11.3-23.4-5.7-48.1-1.7-68.4 11.2-18.1 11.7-31.3 29.7-47.6 44s-38.6 25.3-59.2 18.6C50.7 362 39.4 344.4 31 327.3c-22.8-47-33.6-99.1-37.6-151.2-3.6-47-11.4-118.9 16.4-157C31.1-10 75.7-7 111-14.1s72-4.1 107.3 3.2C255.1-3.3 340.7-7 372.9 12.5c8 4.8 9.1 22.1 15.6 29z"/><g class="st1"><path class="st2" d="M302.5 293.5h24.9V190.1l-24.9-13.9z"/><path transform="rotate(-180 277.596 234.846)" class="st3" d="M252.7 176.2h49.8v117.3h-49.8z"/><path transform="rotate(-180 258.296 189.062)" class="st4" d="M256.5 187.3h3.6v3.6h-3.6z"/><circle class="st5" cx="294.5" cy="188.8" r="1.3"/><circle class="st5" cx="290.1" cy="188.8" r="1.3"/><circle class="st5" cx="285.6" cy="188.8" r="1.3"/><circle class="st6" cx="281.1" cy="188.8" r="1.3"/><g><path transform="rotate(-180 258.296 196.212)" class="st4" d="M256.5 194.4h3.6v3.6h-3.6z"/><circle class="st5" cx="294.5" cy="196" r="1.3"/><circle class="st5" cx="290.1" cy="196" r="1.3"/><circle class="st5" cx="285.6" cy="196" r="1.3"/><circle class="st6" cx="281.1" cy="196" r="1.3"/></g><g class="st7"><path class="st8" d="M306 183.9l17.9 10.3M306 185.7l17.9 10.3M306 187.5l17.9 10.3M306 189.2l17.9 10.3M306 191l17.9 10.3M306 192.8l17.9 10.3M306 194.6l17.9 10.3M306 196.4l17.9 10.3M306 198.1l17.9 10.3M306 199.9l17.9 10.3M306 201.7l17.9 10.3M306 203.5l17.9 10.3M306 205.2l17.9 10.3M306 207l17.9 10.3M306 208.8l17.9 10.3M306 210.6l17.9 10.3M306 212.3l17.9 10.4M306 214.1l17.9 10.3M306 215.9l17.9 10.3M306 217.7l17.9 10.3M306 219.5l17.9 10.3M306 221.2l17.9 10.3M306 223l17.9 10.3M306 224.8l17.9 10.3M306 226.6l17.9 10.3M306 228.3l17.9 10.4M306 230.1l17.9 10.3M306 231.9l17.9 10.3M306 233.7l17.9 10.3M306 235.5l17.9 10.3M306 237.2l17.9 10.3M306 239l17.9 10.3M306 240.8l17.9 10.3M306 242.6l17.9 10.3M306 244.3l17.9 10.4M306 246.1l17.9 10.3M306 247.9l17.9 10.3M306 249.7l17.9 10.3M306 251.5l17.9 10.3M306 253.2l17.9 10.3M306 255l17.9 10.3M306 256.8l17.9 10.3M306 258.6l17.9 10.3M306 260.3l17.9 10.3M306 262.1l17.9 10.3M306 263.9l17.9 10.3M306 265.7l17.9 10.3M306 267.5l17.9 10.3M306 269.2l17.9 10.3M306 271l17.9 10.3M306 272.8l17.9 10.3M306 274.6l17.9 10.3M306 276.3l17.9 10.3M306 278.1l17.9 10.3M306 279.9l17.9 10.3M306 281.7l17.9 10.3"/></g></g><g class="st1"><path class="st9" d="M87.8 263.9c.2.1.5 0 .5-.3.4-2.5 2.2-15.2-1.1-14.8-3.6.5-6.6 7.7-3.9 11.1 2 2.6 3.7 3.6 4.5 4zM78.3 281c-.1-.2.1-.4.4-.4 2.6.2 15.4 1.1 14.2 4.2-1.3 3.4-9 4.8-11.7 1.4-2.1-2.5-2.7-4.4-2.9-5.2zM90.8 265.2s12.1-.9 9.5 2.8c-2.6 3.7-10.7 4.6-13 .8-2.3-3.8-.5-3.6 3.5-3.6zM79.5 288.2s10.5 4.3 7.1 6.6c-3.4 2.3-10.6-.4-11.2-4.8-.7-4.4.8-3.5 4.1-1.8zM67.9 305.6s10.5 4.3 7.1 6.6c-3.4 2.3-10.6-.4-11.2-4.8-.7-4.4.7-3.5 4.1-1.8zM78.1 272.6s-3.3-11.7-5.9-8-.7 11.7 3.7 12.5c4.3.9 3.5-.7 2.2-4.5zM63.9 292.8s6.7 8.5 2.5 7.5-8.9-6.6-7-9.2 2.5-1.2 4.5 1.7zM98.3 257.3c1.7-1 3.3-2.2 4.3-3.8.4-.7.9-1.4 1.1-2.2.3-.8.4-1.6.5-2.4.1-.8 0-1.6-.2-2.4-.1-.4-.2-.9-.6-1.1-.4-.3-1-.2-1.4 0-.9.3-1.6.9-2.4 1.4-2 1.6-3.8 3.5-5.5 5.5-1.5 1.8-2.9 3.7-3.7 5.8-.3.6-.4 1.5.1 2 .3.3.7.3 1.1.3s.8-.3 1.1-.4c1.8-.9 3.7-1.6 5.4-2.6l.2-.1zM83.5 269.3s-3.3-18.4-6.1-13.5c-1.4 2.5-1.1 5.5-.2 8.1.5 1.5 1.3 2.8 2.3 4 .5.6 1.1 1.1 1.6 1.6.4.4 1.3 1.3 2 1.2.6 0 .5-.9.4-1.4zM60.8 307.3s-6.1-14.6-7.5-10c-.7 2.3.1 4.8 1.3 6.8.7 1.1 1.6 2.1 2.6 2.8.5.4 1.1.7 1.7 1 .4.2 1.4.9 1.8.7.6-.2.3-.9.1-1.3zM71.8 293.7s-4.9-13.4-6.3-9.3c-.7 2-.1 4.3.9 6.2.6 1 1.3 1.9 2.3 2.7.5.4.9.7 1.4 1 .4.2 1.2.8 1.6.7.5-.3.2-.9.1-1.3zM76.2 284.4s-7.8-17-9.2-11.5c-.7 2.8.3 5.6 1.8 7.9.8 1.3 2 2.4 3.2 3.3.6.4 1.3.8 2 1.1.5.2 1.6 1 2.2.7.5-.3.1-1.1 0-1.5zM83.2 271.5s18.1 4.6 13 7c-2.6 1.2-5.6.7-8.1-.4-1.4-.6-2.7-1.5-3.8-2.6-.5-.5-1-1.1-1.5-1.8-.3-.5-1.2-1.4-1.1-2 .2-.6 1.1-.3 1.5-.2zM71.8 296.1s14.1 6.4 9.6 7.6c-2.3.6-4.7-.2-6.6-1.5-1.1-.7-2-1.6-2.7-2.7-.4-.5-.7-1.1-.9-1.6-.2-.4-.8-1.3-.6-1.8.2-.5.9-.2 1.2 0z"/><path class="st10" d="M92.4 258.3s-11.7 13.4-13.7 19.9c-2.3 7.3-5.3 14.4-10.2 20.2-6.1 7.3-13.6 15-12.4 20.5"/></g><g class="st1"><path class="st9" d="M326.6 289c.4 1.1-.9 2.6-1.8 3.8-3.9 4.9-8.2 9.7-13.3 13.4-5.1 3.7-11.2 6.3-17.5 6.7-9.9.5-19.2-4.4-29.1-5.6 1.7-3.9 3.7-7.7 6-11.3 2.3-3.6 5.1-7.2 8.8-9.4 5.7-3.4 12.8-3.1 19.4-2.6 8.8.7 17.6 1.6 26.1 4 .8.2 1.2.6 1.4 1z"/><path class="st11" d="M256.4 307l6.9-2.5 7-2.4c4.7-1.6 9.3-3.1 14-4.6 4.7-1.5 9.4-2.9 14.2-4.1 2.4-.6 4.8-1 7.2-1.4l7.3-1.1-7.3 1.3c-2.4.4-4.8.8-7.2 1.5-4.8 1.2-9.4 2.7-14.1 4.2-4.7 1.5-9.4 3-14 4.6l-14 4.5zM294.5 287.9c-.4.4-.8.9-1.1 1.3l-1.1 1.3c-.4.4-.8.9-1.1 1.3-.4.4-.7.9-1.1 1.4.2-.5.5-1 .9-1.5.3-.5.7-.9 1.1-1.4.4-.4.8-.9 1.2-1.2.3-.5.8-.9 1.2-1.2zM303 300.6c-.9 0-1.8-.1-2.7-.2-.9-.1-1.8-.3-2.7-.4-.9-.2-1.8-.4-2.6-.7-.9-.3-1.7-.6-2.5-1.1l.6.3.6.2c.4.1.9.3 1.3.4.9.2 1.7.4 2.6.6.9.2 1.8.3 2.6.5l2.8.4zM295.5 307c-1.2-.3-2.3-.7-3.5-1.2-1.2-.4-2.3-.9-3.4-1.3-1.1-.5-2.3-1-3.4-1.5s-2.2-1.1-3.2-1.7l3.3 1.5c1.1.5 2.2 1 3.4 1.4 1.1.5 2.3.9 3.4 1.4 1.1.5 2.2.9 3.4 1.4zM284.1 286.2l-1.7 2.1c-.6.7-1.1 1.4-1.7 2.1-.5.7-1.1 1.5-1.5 2.2l-.3.6-.3.6-.3.6c-.1.2-.1.4-.2.6.1-.9.5-1.8.9-2.6s.9-1.6 1.5-2.3c.5-.7 1.1-1.4 1.7-2.1.6-.5 1.2-1.2 1.9-1.8zM283.7 310c-1.1-.2-2.2-.5-3.2-.8-1.1-.3-2.1-.7-3.2-1.1-1-.4-2.1-.8-3.1-1.4-.5-.3-1-.5-1.4-.9-.4-.3-.9-.7-1.2-1.2.3.4.8.8 1.3 1 .5.3 1 .5 1.5.8 1 .5 2 .9 3.1 1.3 1 .4 2.1.8 3.1 1.1l3.1 1.2zM273.6 290.7c-.4.7-.9 1.4-1.3 2.2-.4.7-.8 1.5-1.2 2.2-.4.7-.7 1.5-1 2.3-.1.2-.1.4-.2.6-.1.2-.1.4-.2.6 0 .2-.1.4-.1.6 0 .2-.1.4-.1.6-.1-.8.1-1.7.3-2.5.2-.8.6-1.6 1-2.4.4-.8.8-1.5 1.3-2.2.4-.7.9-1.4 1.5-2z"/></g><g class="st1"><path class="st9" d="M250.4 259.6c-6 1.4-2.3 9.8-3.6 12.8-1.3 2.9-6.6-5.7-8-2-1.4 3.7 5.1 11.8 4.8 12.5-1.2 2.2-8-2-7.8 2s12.9 8.2 9.3 10-6.2-3.3-7.4-.3c-1.3 2.9 3.3 11.5 9.7 13.2 6.4 1.7 16.7-.6 19.1-5 2.3-4.4 4.9-10.2 1.4-9.2-3.5 1-7.7 1.2-6.5-1 1-1.9 10-11 5-11s-5.6 3.9-7 2.1c-1.4-1.8 6.5-10 5.1-11.8-1.4-1.8-3.4.3-7.7 1.2-4.4.9-.4-14.9-6.4-13.5z"/><path class="st11" d="M254.1 306c-.8-5-1.5-10-2.1-15-.4-3.9-.8-7.8-1-11.8-.1-1.7-.1-3.4 0-5 .1-2.1.4-4.1.5-6.2 0-1.4.1-3-.4-4.3-.1-.2-.2-.7-.5-.8-.1-.1-.4.4-.6.3.9.4.9 2.9.9 3.6.1 3.8-.6 7.5-.5 11.3.2 7.5 1.2 15.1 2.3 22.5l.9 5.7c-.1 0 .5-.2.5-.3z"/></g><path class="st1 st12" d="M203.8 219.4h-92.7c-5.8 0-10.5-4.7-10.5-10.5v-46.7c0-5.8 4.7-10.5 10.5-10.5h92.7c5.8 0 10.5 4.7 10.5 10.5v46.7c0 5.8-4.7 10.5-10.5 10.5z"/><g class="st1"><path class="st13" d="M378.8 225.8V-37.3h-46.7l1.4 311.5z"/><g class="st14"><path class="st15" d="M344.8 274.8c1.5-14.7 1.8-27 1.8-36.3 0-2.7-.1-13-1.2-26.5-.9-11.8-1.8-16.7-2.9-30.7-.6-8.1-1-14.8-1.2-19.2M375.5-25c-.5 7.8-1 18.5-.9 31.3 0 3.4.1 7.4.6 22.4.3 8.4.7 19.3 1.2 32.1M370.5 105.6c-.7-6.4-1.6-16-2.1-27.7-.3-8.5-.2-13.6-.3-28.3 0-7-.1-16.9-.3-28.9M365.8-3.8c.3-3.6.4-7.5.3-11.8-.2-5.4-.7-10.2-1.5-14.4M345.4-4.1c.1 3.8.3 9.9.9 17.4 1.3 16.7 3 19.3 2.9 29.8 0 2.4-.5 4.7-1.2 13.2-.5 5.7-.7 8.5-.8 10.4-.6 11.4 1.1 24.1 2.7 24.2 1.3 0 2.7-8.8 2.9-15 .3-5.7-.3-10.5-.9-13.9M359.9 90c-2.3 8.6-2.1 15.2-1.5 19.8.5 3.6 1.4 6.9 1.8 12.7.3 4.7 0 8.6-.3 11.2M369 281.3c-1.3-11.5-2.3-23.4-2.9-35.7-.1-2.3-.2-4.5-.3-6.8M365.8 228.5c-.8-4.7-1.1-8.7-1.2-12.1-.2-7.1.7-10.6.9-18.9.1-4.7-.1-8.8-.3-12.1M337.2 130.6c.5-5.5 1-14.1.3-24.8-.7-10.8-2-15.4-2.7-25.1-.4-6.7-.6-16.7 1.2-29.2"/></g><g><path class="st16 st17" d="M41.5 96.8h.8c20.6.9 41.9 5.3 62.3 2 4.5-.7 7-1.9 11.2-1.7 4.3.2 6.9 2 11.2 2.9 6.4 1.4 13.2 1 19.7-.7.5-.1 1.1-.3 1.3-.8.4-.7-.2-1.5-.7-2.1-2.7-2.6-6.6-4.7-10-5.7-12.5-3.7-25.1-.6-37.3-5.2 10.3-4 21.9-1.9 32.3 0 2.3.4 4.5.9 6.5.6 2-.3 4.3-1.3 4.4-3.3.5-8.4-30.5-10.8-36.4-11-11.4-.2-20.9.6-31.8-.8 3.4-2.5 6.4-5.1 8.5-8.7.6-1 1.2-1.9.8-3-.9-2.4-2.6-2.6-5.5-2.6-9.2-.1-18.1-.3-27.9 1.1-9.8 1.4-20.7 5-30.8 6.4-4.6 1.4-10 2.8-12.7 6.9-1.8 2.8-2.1 5.4-1.2 8.6 1.9 7.1 6.6 11.7 13.6 14.3 6.8 2.5 14.5 2.5 21.7 2.8z"/><path class="st18" d="M267.1 165.2v-318.4h-12.3l.2 329.4h12.1zM329.9 279V-17.5h-26l.3 306.8h25.7zM73.8 354V-44.1h-9.1l.1 412h9zM394.9 267V-51.3h-10.5l.1 329.3h10.4z"/><path class="st19" d="M157.2 46.1C135 43.6 112 48 89.8 44.5c1.3-1.9 5.6-2 9-2.3s7.5-2.1 5.8-3.9c-1.1-1.1-3.7-1.2-5.8-1.2-6.7.1-13.4.2-20.1.4-2 0-4.1.1-5.9-.6s-2.8-2.1-1.5-3.1c.4-.3.9-.5 1.4-.7 6.3-2.5 12.7-5.1 19-7.6 3.9-1.6 7.9-3.2 12.6-3.6 5.4-.5 10.9.6 15.7 2.2 3.6 1.2 8 2.7 11.5 1.4 1.5-.5 2.4-1.5 3.4-2.4 13.6-11.6 44-7.5 61.7-2.2 2.4.7 4.9 1.7 5.2 3.3.5 2.4-4.4 3.8-8.2 4.5-3.8.8-8.3 3-6.4 5.1 1.5 1.7 5.7 1.5 8.8 1.1 11.3-1.4 23-1.7 34.5-.9 1.3.1 2.7.2 3.5.9.9.7.4 1.8-.2 2.6-4.7 6.7-15.3 11.3-26.6 13.6-11.3 2.3-23.4 2.7-35.4 3-16.1.4-32.1.9-48.2 1.3 2.6 0 11.8-5.4 15-6.3 6-1.5 12.3-2.5 18.6-3zM297.6 109.2c-22.2-2.5-45.2 1.9-67.4-1.6 1.3-1.9 5.6-2 9-2.3 3.4-.3 7.5-2.1 5.8-3.9-1.1-1.1-3.7-1.2-5.8-1.2-6.7.1-13.4.2-20.1.4-2 0-4.1.1-5.9-.6-1.7-.6-2.8-2.1-1.5-3.1.4-.3.9-.5 1.4-.7 6.3-2.5 12.7-5.1 19-7.6 3.9-1.6 7.9-3.2 12.6-3.6 5.4-.5 10.9.6 15.7 2.2 3.6 1.2 8 2.7 11.5 1.4 1.5-.5 2.4-1.5 3.4-2.4 13.6-11.6 44-7.5 61.7-2.2 2.4.7 4.9 1.7 5.2 3.3.5 2.4-4.4 3.8-8.2 4.5-3.8.8-8.3 3-6.4 5.1 1.5 1.7 5.7 1.5 8.8 1.1 11.3-1.4 23-1.7 34.5-.9 1.3.1 2.7.2 3.5.9.9.7.4 1.8-.2 2.6-4.7 6.7-15.3 11.3-26.6 13.6-11.3 2.3-23.4 2.7-35.4 3-16.1.4-32.1.9-48.2 1.3 2.6 0 11.8-5.4 15-6.3 6-1.5 12.3-2.6 18.6-3z"/><g><path class="st9" d="M101.1 36.5c-.2 1.1-2 1.8-3.4 2.4-5.9 2.4-11.9 4.3-18.2 5S66.7 43.8 61 41c-8.9-4.4-14.5-13.4-22.5-19.3 3.4-2.6 7-4.9 10.8-6.8 3.8-2 7.9-3.7 12.3-3.8 6.6-.1 12.6 3.6 18.1 7.3 7.3 4.9 14.5 10.1 20.7 16.4.6.7.8 1.2.7 1.7z"/><path class="st11" d="M39.8 21.9l7.3 1.3 7.3 1.3c4.8.9 9.7 1.9 14.5 2.9 4.8 1.1 9.6 2.1 14.4 3.4 2.4.6 4.7 1.5 7 2.4l6.9 2.6-7-2.5c-2.3-.8-4.6-1.7-7-2.3-4.7-1.3-9.5-2.3-14.4-3.4l-14.4-3-14.6-2.7zM82.5 24.2c-.5.2-1.1.4-1.6.6l-1.6.6c-.5.2-1.1.4-1.6.6-.5.2-1.1.4-1.6.6.5-.4 1-.6 1.5-.9.5-.3 1.1-.5 1.6-.7.6-.2 1.1-.4 1.7-.5.4-.1 1-.3 1.6-.3zM83.5 39.4c-.8-.5-1.5-1-2.2-1.5-.7-.5-1.4-1.1-2.1-1.7-.7-.6-1.3-1.2-1.9-1.9-.6-.7-1.2-1.4-1.6-2.2.1.2.3.3.4.5l.4.5c.3.3.6.7.9 1 .6.6 1.3 1.2 2 1.8.7.6 1.4 1.2 2 1.7l2.1 1.8zM73.8 41.3c-.9-.9-1.7-1.8-2.5-2.7-.8-.9-1.6-1.9-2.3-2.8-.7-1-1.5-2-2.2-3-.7-1-1.4-2-1.9-3.1.7 1 1.4 2 2.2 3 .7 1 1.5 1.9 2.2 2.9.7 1 1.5 1.9 2.3 2.9.7.8 1.5 1.8 2.2 2.8zM74.2 17.6l-2.5 1c-.8.3-1.7.7-2.5 1-.8.4-1.6.7-2.4 1.2l-.6.3-.6.4c-.2.1-.4.3-.5.4-.2.1-.3.3-.5.5.5-.8 1.3-1.3 2.1-1.8s1.6-.9 2.4-1.2c.8-.4 1.7-.7 2.5-1 .8-.4 1.7-.6 2.6-.8zM62.2 38c-.8-.7-1.6-1.5-2.4-2.3-.8-.8-1.5-1.6-2.2-2.5-.7-.9-1.4-1.8-2-2.7-.3-.5-.6-1-.8-1.5-.2-.5-.4-1.1-.4-1.6.1.6.3 1.1.6 1.5.3.5.6.9.9 1.4.6.9 1.3 1.8 2 2.6.7.9 1.4 1.7 2.1 2.5l2.2 2.6zM62.9 16.2c-.7.4-1.5.8-2.2 1.2-.7.4-1.4.9-2.1 1.3-.7.5-1.4.9-2 1.5-.2.1-.3.3-.5.4l-.4.4c-.1.2-.3.3-.4.5-.1.2-.3.3-.4.5.4-.8.9-1.4 1.5-2 .6-.6 1.3-1.1 2-1.6s1.4-.9 2.2-1.3c.7-.3 1.5-.6 2.3-.9z"/><g><path class="st9" d="M97.7 23.3c-.2.8-1.6 1.1-2.6 1.4-4.4 1.2-8.9 2.1-13.4 2.1s-9.1-1.1-12.9-3.6c-6-3.9-9.2-10.8-14.4-15.6 2.6-1.5 5.4-2.9 8.3-4 2.9-1.1 6-2 9.1-1.7 4.7.5 8.7 3.6 12.3 6.7 4.8 4.1 9.5 8.4 13.4 13.4.2.6.3 1 .2 1.3z"/><path class="st11" d="M55.1 7.8l5.1 1.5 5.1 1.6C68.7 12 72 13 75.4 14.2c3.3 1.2 6.7 2.3 10 3.7 1.6.6 3.2 1.5 4.8 2.3l4.7 2.4-4.9-2.4c-1.6-.8-3.2-1.6-4.8-2.2-3.3-1.3-6.6-2.5-10-3.6-3.3-1.1-6.7-2.3-10.1-3.3l-10-3.3zM85.4 12.9l-1.2.3-1.2.3-2.4.6c.4-.2.7-.4 1.1-.5l1.2-.3c.4-.1.8-.2 1.2-.2.4-.1.8-.2 1.3-.2zM84.9 23.9c-.5-.4-1-.8-1.5-1.3-.5-.4-.9-.9-1.4-1.4l-1.2-1.5c-.4-.5-.7-1.1-1-1.7.3.6.7 1.1 1.1 1.6.4.5.8 1 1.3 1.5.4.5.9.9 1.3 1.4l1.4 1.4zM77.8 24.4c-.5-.7-1-1.4-1.5-2.2-.5-.7-1-1.5-1.4-2.2-.4-.8-.9-1.5-1.3-2.3-.4-.8-.8-1.6-1.1-2.4.9 1.5 1.7 3.1 2.7 4.6.4.8.9 1.5 1.4 2.3l1.2 2.2zM80 7.5c-1.3.3-2.5.6-3.7 1-.7.2-1.3.5-1.9.7-.6.2-1.2.5-1.7.9.4-.5 1-.8 1.6-1.1.6-.3 1.2-.5 1.8-.7.6-.2 1.3-.3 1.9-.5.7-.1 1.4-.2 2-.3zM69.7 21.1c-.5-.6-1-1.2-1.5-1.9-.5-.6-.9-1.3-1.4-2l-1.2-2.1c-.3-.7-.7-1.5-.6-2.3 0 .4.1.8.3 1.1.1.4.3.7.5 1.1.4.7.8 1.4 1.2 2 .4.7.9 1.3 1.3 2l1.4 2.1zM72 5.6c-.6.2-1.1.5-1.7.7-.6.2-1.1.5-1.6.8-.5.3-1.1.6-1.6.9-.5.3-1 .7-1.4 1.2.3-.5.8-.9 1.3-1.3s1-.7 1.6-1c.5-.3 1.1-.5 1.7-.7.6-.3 1.2-.4 1.7-.6z"/></g><g><path class="st9" d="M174.2 16.9c-.7-.4-.7-1.8-.8-2.9-.2-4.5-.1-9.1 1-13.5 1-4.4 3.1-8.7 6.4-11.8 5.1-4.9 12.5-6.6 18.4-10.6.9 2.9 1.6 5.9 2.1 9 .4 3.1.6 6.3-.4 9.2-1.5 4.5-5.5 7.7-9.3 10.5-5.1 3.8-10.3 7.4-16.1 10.1-.6.2-1 .2-1.3 0z"/><path class="st11" d="M198.8-21.1l-2.6 4.6-2.7 4.6c-1.8 3.1-3.6 6.1-5.4 9.1-1.9 3-3.7 6-5.8 8.9-1 1.5-2.1 2.8-3.3 4.2l-3.4 4 3.3-4.1c1.1-1.4 2.2-2.7 3.2-4.2 2-2.9 3.9-5.9 5.7-8.9 1.9-3 3.7-6 5.5-9.1l5.5-9.1zM187 7.2V4.8c0-.8 0-1.6-.1-2.5l.3 1.2c.1.4.1.8.1 1.3 0 .4 0 .8-.1 1.2 0 .4-.1.8-.2 1.2zM176.5 4.3c.5-.4 1-.8 1.6-1.1.5-.4 1.1-.7 1.6-1 .6-.3 1.1-.6 1.7-.9.6-.2 1.2-.5 1.9-.6-.6.2-1.2.5-1.8.7-.6.3-1.1.6-1.7.9-.6.3-1.1.6-1.7 1l-1.6 1zM177.5-2.7c.8-.4 1.6-.7 2.4-1 .8-.3 1.7-.6 2.5-.9.8-.3 1.7-.5 2.5-.8.9-.2 1.7-.4 2.6-.6-1.7.5-3.4 1-5 1.6-.8.3-1.7.6-2.5.8l-2.5.9zM193.5 3.2c-.1-1.3-.1-2.6-.2-3.9 0-.6-.1-1.3-.2-1.9-.1-.6-.2-1.3-.5-1.9.4.5.6 1.2.7 1.8.1.6.2 1.3.3 1.9 0 .7.1 1.3 0 2 0 .7 0 1.3-.1 2zM182.5-9.8c.7-.4 1.4-.7 2.2-1.1.7-.3 1.5-.6 2.2-.9.8-.3 1.5-.5 2.3-.7.8-.2 1.6-.3 2.4-.1-.4-.1-.8 0-1.2 0l-1.2.3c-.8.2-1.5.5-2.3.7-.8.3-1.5.6-2.2.8l-2.2 1zM197.1-4.2l-.3-1.8c-.1-.6-.2-1.2-.4-1.8-.1-.6-.3-1.2-.5-1.7-.2-.6-.5-1.1-.8-1.6.4.4.7 1 1 1.5.3.6.4 1.1.6 1.7.1.6.3 1.2.3 1.8.1.7.1 1.3.1 1.9z"/></g><g><path class="st9" d="M302.5 42.4c-.7-.4-.7-1.8-.8-2.9-.2-4.5-.1-9.1 1-13.5s3.1-8.7 6.4-11.8c5.1-4.9 12.5-6.6 18.4-10.6.9 2.9 1.6 5.9 2.1 9 .4 3.1.6 6.3-.4 9.2-1.5 4.5-5.5 7.7-9.3 10.5-5.1 3.8-10.3 7.4-16.1 10.1-.6.2-1 .2-1.3 0z"/><path class="st11" d="M327 4.3L324.4 9l-2.7 4.6c-1.8 3.1-3.6 6.1-5.4 9.1-1.9 3-3.7 6-5.8 8.9-1 1.5-2.1 2.8-3.3 4.2l-3.4 4 3.3-4.1c1.1-1.4 2.2-2.7 3.2-4.2 2-2.9 3.9-5.9 5.7-8.9 1.9-3 3.7-6 5.5-9.1l5.5-9.2zM315.3 32.7v-2.4c0-.8 0-1.6-.1-2.5l.3 1.2c.1.4.1.8.1 1.3 0 .4 0 .8-.1 1.2-.1.4-.1.8-.2 1.2zM304.7 29.8c.5-.4 1-.8 1.6-1.1.5-.4 1.1-.7 1.6-1 .6-.3 1.1-.6 1.7-.9.6-.2 1.2-.5 1.9-.6-.6.2-1.2.5-1.8.7-.6.3-1.1.6-1.7.9-.6.3-1.1.6-1.7 1l-1.6 1zM305.8 22.7c.8-.4 1.6-.7 2.4-1 .8-.3 1.7-.6 2.5-.9.8-.3 1.7-.5 2.5-.8.9-.2 1.7-.4 2.6-.6-1.7.5-3.4 1-5 1.6-.8.3-1.7.6-2.5.8l-2.5.9zM321.7 28.7c-.1-1.3-.1-2.6-.2-3.9 0-.6-.1-1.3-.2-1.9-.1-.6-.2-1.3-.5-1.9.4.5.6 1.2.7 1.8.1.6.2 1.3.3 1.9 0 .7.1 1.3 0 2 .1.7 0 1.3-.1 2zM310.8 15.6c.7-.4 1.4-.7 2.2-1.1.7-.3 1.5-.6 2.2-.9.8-.3 1.5-.5 2.3-.7.8-.2 1.6-.3 2.4-.1-.4-.1-.8 0-1.2 0l-1.2.3c-.8.2-1.5.5-2.3.7-.8.3-1.5.6-2.2.8l-2.2 1zM325.4 21.3l-.3-1.8c-.1-.6-.2-1.2-.4-1.8-.1-.6-.3-1.2-.5-1.7-.2-.6-.5-1.1-.8-1.6.4.4.7 1 1 1.5.3.6.4 1.1.6 1.7.1.6.3 1.2.3 1.8 0 .7.1 1.3.1 1.9z"/></g><g><path class="st9" d="M323.2 41.4c-.5-.2-.7-1.1-.9-1.7-.7-2.8-1.2-5.8-1.1-8.7s.8-5.9 2.5-8.3c2.6-3.8 7.1-5.8 10.3-9.1 1 1.7 1.8 3.5 2.4 5.4.7 1.9 1.2 3.9 1 5.9-.4 3-2.5 5.6-4.5 7.8-2.7 3-5.6 6-8.9 8.4-.3.3-.6.4-.8.3z"/><path class="st11" d="M333.8 14.2c-.7 2.2-1.4 4.3-2.1 6.5-.7 2.2-1.5 4.3-2.2 6.5-.8 2.1-1.6 4.3-2.5 6.4-.4 1.1-1 2.1-1.5 3.1l-1.6 3 1.6-3c.5-1 1.1-2 1.5-3.1.9-2.1 1.7-4.2 2.4-6.4.8-2.1 1.5-4.3 2.3-6.4l2.1-6.6zM330.1 33.6c-.1-.5-.2-1.1-.3-1.6-.1-.5-.2-1-.4-1.6.3.5.4 1 .5 1.5.1.7.2 1.2.2 1.7zM323 33.2c.5-.6 1.1-1.2 1.7-1.8.3-.3.6-.5 1-.8.3-.2.7-.5 1.1-.6-.4.2-.7.4-1 .7-.3.3-.6.5-1 .8-.6.5-1.2 1.1-1.8 1.7zM322.8 28.6c.9-.7 1.9-1.3 2.9-1.8.5-.3 1-.6 1.5-.8.5-.3 1-.5 1.6-.7-.5.3-1 .5-1.5.8-.5.3-1 .6-1.5.8l-3 1.7zM333.6 30.3l-.6-2.4c-.1-.4-.2-.8-.4-1.2-.1-.4-.3-.8-.6-1.1.3.3.5.7.7 1.1.2.4.3.8.4 1.2.3.7.5 1.5.5 2.4zM325 23.4c.8-.7 1.6-1.3 2.5-1.8.4-.3.9-.5 1.4-.7.5-.2 1-.4 1.5-.4-.3 0-.5.1-.7.2-.2.1-.5.2-.7.3-.5.2-.9.5-1.3.8-1 .5-1.8 1.1-2.7 1.6zM335 25.1c-.1-.4-.3-.7-.4-1.1-.1-.4-.3-.7-.5-1.1-.2-.4-.3-.7-.6-1-.2-.3-.4-.6-.7-.9.3.2.6.5.8.8.2.3.4.7.6 1 .4.8.6 1.6.8 2.3z"/></g><g><path class="st9" d="M395.1 68.3c-.6.5-2 0-3-.4-4.3-1.5-8.5-3.4-12.1-6.1-3.7-2.7-6.8-6.2-8.5-10.4-2.6-6.6-1.4-14.1-2.8-21.1 3.1.3 6.1.8 9.1 1.5 3 .8 6 1.8 8.4 3.9 3.6 3.1 5 8 6.2 12.6 1.5 6.1 2.9 12.4 3.2 18.7-.1.7-.2 1.1-.5 1.3z"/><path class="st11" d="M369.3 31.1l3.3 4.2 3.2 4.2c2.1 2.8 4.3 5.6 6.4 8.5 2.1 2.9 4.1 5.7 6 8.7 1 1.5 1.8 3.1 2.6 4.6l2.4 4.7-2.5-4.7c-.8-1.6-1.7-3.1-2.6-4.6-1.9-3-4-5.8-6.1-8.7-2.1-2.9-4.2-5.7-6.3-8.5l-6.4-8.4zM391.1 52.7c-.4-.1-.8-.3-1.2-.5l-1.1-.5c-.8-.3-1.5-.6-2.3-.9.4 0 .8.1 1.2.2.4.1.8.3 1.2.4.4.2.8.3 1.1.5.4.4.7.6 1.1.8zM384.3 61.4c-.2-.6-.3-1.2-.5-1.9-.1-.6-.2-1.3-.3-1.9-.1-.6-.1-1.3-.1-1.9 0-.6 0-1.3.2-1.9-.1.6 0 1.3 0 1.9 0 .6.1 1.3.2 1.9.1.6.2 1.3.3 1.9l.2 1.9zM378.2 57.7v-2.6c0-.9.1-1.8.1-2.6.1-.9.1-1.8.3-2.6.1-.9.3-1.7.5-2.6-.2 1.7-.3 3.5-.5 5.2-.1.9-.1 1.8-.2 2.6l-.2 2.6zM389.8 45.2c-1.2-.4-2.4-.9-3.7-1.3-.6-.2-1.2-.4-1.9-.5-.6-.2-1.3-.3-1.9-.2.6-.2 1.3-.1 2 0 .6.1 1.3.3 1.9.5.6.2 1.2.4 1.8.7.6.2 1.2.5 1.8.8zM373.5 50.4c-.1-.8-.1-1.6-.2-2.4v-2.4c.1-.8.1-1.6.2-2.4.2-.8.3-1.6.8-2.3-.2.3-.3.7-.4 1.1-.1.4-.1.8-.2 1.2-.1.8-.1 1.6-.2 2.4 0 .8-.1 1.6-.1 2.4l.1 2.4zM384.4 39.1c-.6-.1-1.2-.3-1.8-.4l-1.8-.3c-.6-.1-1.2-.2-1.8-.2-.6 0-1.2 0-1.8.1.6-.2 1.2-.3 1.8-.3.6 0 1.2 0 1.8.1.6.1 1.2.2 1.8.4.6.1 1.2.3 1.8.6z"/></g><g><path class="st9" d="M166.7 7.6c-.5-.2-.6-1-.7-1.6-.5-2.6-.8-5.2-.6-7.8s1-5.2 2.6-7.3c2.5-3.3 6.6-4.9 9.6-7.7.8 1.6 1.4 3.3 1.9 5 .5 1.7.9 3.5.6 5.3-.5 2.7-5.9 9.1-4.4 6.8 4.4-6.8-5.3 5.1-8.3 7.2-.3.1-.5.2-.7.1z"/><path class="st11" d="M177.5-16.3c-.7 1.9-1.4 3.8-2.2 5.7-.8 1.9-1.5 3.8-2.3 5.7-.8 1.9-1.6 3.8-2.5 5.6-.4.9-1 1.8-1.5 2.7L167.3 6l1.6-2.6 1.5-2.7c.9-1.8 1.7-3.7 2.5-5.6l2.4-5.7 2.2-5.7zM173.2.9c-.1-.5-.1-1-.2-1.4-.1-.5-.1-.9-.2-1.4.2.4.3.9.4 1.4V.9zM166.9.2c.5-.6 1.1-1 1.7-1.5l.9-.6c.3-.2.7-.4 1-.5-.3.2-.6.4-1 .6-.3.2-.6.4-.9.7-.6.3-1.1.8-1.7 1.3zM166.9-3.9c.9-.6 1.7-1 2.7-1.5.9-.5 1.8-.9 2.8-1.2-1.9.8-3.7 1.8-5.5 2.7zM176.5-1.9c-.1-.7-.3-1.5-.4-2.2-.1-.4-.2-.7-.3-1.1-.1-.4-.2-.7-.5-1 .3.3.4.6.6 1 .1.4.2.7.3 1.1.2.7.3 1.4.3 2.2zM169.1-8.4c.7-.6 1.5-1.1 2.3-1.5.4-.2.8-.4 1.3-.6.4-.2.9-.3 1.4-.3-.5 0-.9.2-1.3.4l-1.2.6c-.9.4-1.7.9-2.5 1.4zM178-6.4c-.2-.7-.4-1.3-.7-2-.1-.3-.3-.6-.4-.9-.2-.3-.4-.6-.6-.8.3.2.5.5.7.8.2.3.3.6.5.9.2.6.4 1.3.5 2z"/></g></g><g><path class="st13" d="M57 361.8V-18.3H-.6l.4 244.8C3.4 278.6 16.7 327.9 57 361.8z"/><path class="st13" d="M45.6 223.3s16.8-43.7 31.8-46.2 31.2-10.9 33.6-17.3l-5.5-1.1c-6.9 5.1-14.5 10.3-23.4 9.9-11.6-.5-22.5 4.5-30.1 13.1-13.9 15.9-13.3 15.5-20.1 25.2"/><g class="st14"><path class="st15" d="M18.4 291.1c0-2.7-.1-13-1.2-26.5-.9-11.8-1.8-16.7-2.9-30.7-.6-8.1-1-14.8-1.2-19.2M47.3 27.5c-.5 7.8-1 18.5-.9 31.3 0 3.4.1 7.4.6 22.4.3 8.4.7 19.3 1.2 32.1M42.3 158.1c-.7-6.4-1.6-16-2.1-27.7-.3-8.5-.2-13.6-.3-28.3 0-7-.1-16.9-.3-28.9M37.6 48.8c.3-3.6.4-7.5.3-11.8-.2-5.4-.7-10.2-1.5-14.4M17.3 48.5c.1 3.8.3 9.9.9 17.4 1.3 16.7 3 19.3 2.9 29.8 0 2.4-.5 4.7-1.2 13.2-.5 5.7-.7 8.5-.8 10.4-.6 11.4 1.1 24.1 2.7 24.2 1.3 0 2.7-8.8 2.9-15 .3-5.7-.3-10.5-.9-13.9M31.7 142.5c-2.3 8.6-2.1 15.2-1.5 19.8.5 3.6 1.4 6.9 1.8 12.7.3 4.7 0 8.6-.3 11.2M40.9 333.9c-1.3-11.5-2.3-23.4-2.9-35.7-.1-2.3-.2-4.5-.3-6.8M37.6 281.1c-.8-4.7-1.1-8.7-1.2-12.1-.2-7.1.7-10.6.9-18.9.1-4.7-.1-8.8-.3-12.1M9 183.2c.5-5.5 1-14.1.3-24.8-.7-10.8-2-15.4-2.7-25.1-.4-6.7-.6-16.7 1.2-29.2"/></g></g><g><path class="st20" d="M248 282.5V-23.4h-55.1l.6 316.5H248z"/><g class="st14"><path class="st15" d="M210.6 290.5c1.5-14.7 1.8-27 1.8-36.3 0-2.7-.1-13-1.2-26.5-.9-11.8-1.8-16.7-2.9-30.7-.6-8.1-1-14.8-1.2-19.2M241.3-9.4c-.5 7.8-1 18.5-.9 31.3 0 3.4.1 7.4.6 22.4.3 8.4.7 19.3 1.2 32.1M236.3 121.2c-.7-6.4-1.6-16-2.1-27.7-.3-8.5-.2-13.6-.3-28.3 0-7-.1-16.9-.3-28.9M231.5 11.8c.3-3.6.4-7.5.3-11.8-.2-5.4-.7-10.2-1.5-14.4M211.2 11.5c.1 3.8.3 9.9.9 17.4 1.3 16.7 3 19.3 2.9 29.8 0 2.4-.5 4.7-1.2 13.2-.5 5.7-.7 8.5-.8 10.4-.6 11.4 1.1 24.1 2.7 24.2 1.3 0 2.7-8.8 2.9-15 .3-5.7-.3-10.5-.9-13.9M225.6 105.6c-2.3 8.6-2.1 15.2-1.5 19.8.5 3.6 1.4 6.9 1.8 12.7.3 4.7 0 8.6-.3 11.2M234.8 296.9c-1.3-11.5-2.3-23.4-2.9-35.7-.1-2.3-.2-4.5-.3-6.8M231.5 244.2c-.8-4.7-1.1-8.7-1.2-12.1-.2-7.1.7-10.6.9-18.9.1-4.7-.1-8.8-.3-12.1M202.9 146.3c.5-5.5 1-14.1.3-24.8-.7-10.8-2-15.4-2.7-25.1-.4-6.7-.6-16.7 1.2-29.2"/></g><path class="st20" d="M244.6 90.9s21.7-30.4 25.2-31.9 11.7-3.5 11.7-3.5l-2.9-7.1s-15.9 3.4-19 7.1c-3.1 3.7-17.2 14.9-17.2 14.9l2.2 20.5zM200.3 165.7s-12.3-19.5-18.5-19.5-19.9-7.9-19.9-7.9l1.8-5 9.7 3.2s20.6 4.4 30.2 16.8c9.6 12.5-3.3 12.4-3.3 12.4z"/></g></g></g><g class="st1"><path class="st9" d="M254.1 305.9l-.6-.6c-2.1-2.1-3-5-3-8-.1-6 2.7-11.9 5.8-16.8.1-.2.2-.3.4-.4.4-.1.7.2.9.5 1.5 2.2 1.9 5.2 4 6.7 0-1.7-.7-3.3-1-4.9-.4-1.6-.5-3.5.4-4.9.6-.9 1.5-1.5 2.3-2.1 2.5-1.6 5.2-3.4 6.4-6.1.2-.5.5-1.6 1.1-1.8 1-.4 1.1 2.1 1.4 2.9.1.5 1.5 3.1 1.3 3.4 1.4-2.5-.2-5.8.9-8.5.8-2 2.9-3.2 4.7-4.5 3-2.2 5.4-5.1 6.9-8.4 1.7 1.6 1.8 4.1 1.7 6.4-.1 3.6-.5 7.3-1.2 10.9-.4 1.9-.9 4-2.4 5.3-.3.3-.7.5-.9.9-.2.4-.2.9.1 1.1.2.2.5.1.8.1 1.5-.4 2.5-1.8 3.4-3.1 1.6 4.9.8 10.5-2.1 14.7-.3.4-.5.7-.9 1-.4.3-.9.4-1.3.5-2.4.6-4.7 1.1-7.1 1.7 2.1-.1 4.3-.2 6.4-.3.3 0 .5 0 .8.1.7.3.6 1.3.4 2.1-1.4 4.7-4.5 8.9-8.6 11.6-4.1 2.7-9.2 3.9-14.1 3.3-2.5-.4-5-1.2-6.9-2.8z"/><path class="st17" d="M257.6 306.8c1.2-1.7 2.4-3.3 3.6-5 1.2-1.7 2.4-3.3 3.6-5 2.4-3.4 4.7-6.8 7-10.2 2.3-3.4 4.5-6.9 6.5-10.5 1-1.8 2-3.6 2.8-5.5.9-1.9 1.7-3.8 2.1-5.8-.4 2-1.1 4-1.9 5.9-.8 1.9-1.8 3.7-2.7 5.6-2 3.6-4.2 7.1-6.4 10.6-2.3 3.4-4.6 6.8-7.1 10.2-2.4 3.2-4.9 6.5-7.5 9.7z"/></g><g class="st1"><path class="st9" d="M55.2 368.9l-.6-.6c-2.1-2.1-3-5-3-8-.1-6 2.7-11.9 5.8-16.8.1-.2.2-.3.4-.4.4-.1.7.2.9.5 1.5 2.2 1.9 5.2 4 6.7 0-1.7-.7-3.3-1-4.9-.4-1.6-.5-3.5.4-4.9.6-.9 1.5-1.5 2.3-2.1 2.5-1.6 5.2-3.4 6.4-6.1.2-.5.5-1.6 1.1-1.8 1-.4 1.1 2.1 1.4 2.9.1.5 1.5 3.1 1.3 3.4 1.4-2.5-.2-5.8.9-8.5.8-2 2.9-3.2 4.7-4.5 3-2.2 5.4-5.1 6.9-8.4 1.7 1.6 1.8 4.1 1.7 6.4-.1 3.6-.5 7.3-1.2 10.9-.4 1.9-.9 4-2.4 5.3-.3.3-.7.5-.9.9-.2.4-.2.9.1 1.1.2.2.5.1.8.1 1.5-.4 2.5-1.8 3.4-3.1 1.6 4.9.8 10.5-2.1 14.7-.3.4-.5.7-.9 1-.4.3-.9.4-1.3.5-2.4.6-4.7 1.1-7.1 1.7 2.1-.1 4.3-.2 6.4-.3.3 0 .5 0 .8.1.7.3.6 1.3.4 2.1-1.4 4.7-4.5 8.9-8.6 11.6-4.1 2.7-9.2 3.9-14.1 3.3-2.5-.4-5-1.2-6.9-2.8z"/><path class="st17" d="M58.7 369.9c2.6-3.2 5.1-6.5 7.5-9.8 2.4-3.3 4.8-6.7 7.1-10.2 2.2-3.5 4.4-7 6.4-10.6 1-1.8 1.9-3.7 2.7-5.6.8-1.9 1.6-3.8 1.9-5.9a31 31 0 0 1-2.1 5.8c-.9 1.9-1.8 3.7-2.8 5.5-2 3.6-4.2 7.1-6.5 10.5-2.2 3.5-4.6 6.8-7 10.2-1.2 1.7-2.4 3.4-3.6 5-1.1 1.7-2.4 3.4-3.6 5.1z"/></g><g class="st1"><path class="st9" d="M189.9 232.1c-8.1 6.5 3.6 16.6 3.8 21.9.2 5.4-14.2-3.8-13.6 2.8.6 6.6 16.3 14.1 16.2 15.4-.2 4.1-13.6 2.8-10.4 8.6s25.5 3.1 21.3 8.4-11.7-.5-11.5 4.9c.2 5.4 13.2 15 24.2 13s24.9-13 25.3-21.3c.4-8.3 0-19-4.5-14.9s-10.7 7.4-10.6 3.2c.2-3.7 7.1-23.9-.4-20.3-7.5 3.7-5.6 9.9-9 8.2-3.4-1.7 2.6-19.8-.8-21.5-3.4-1.7-4.9 2.9-10.7 7.4-5.9 4.5-11.2-22.4-19.3-15.8z"/><path class="st11" d="M229.2 299.7c-4.8-6.9-9.4-13.8-13.8-20.9-3.5-5.6-6.9-11.3-10-17.1-1.3-2.4-2.5-4.9-3.6-7.5-1.4-3.2-2.4-6.6-3.8-9.8-1-2.2-2.1-4.7-3.8-6.5-.3-.3-.8-.9-1.3-.9-.3 0-.6.5-1 .6.4 0 .8.4 1.1.6 1.3 1.2 2.2 2.9 3 4.5 1.7 3.4 2.9 7 4.2 10.5.9 2.4 2 4.7 3.2 7 5.7 11.2 12.6 21.8 19.6 32.3 1.7 2.6 3.5 5.2 5.3 7.8-.1 0 .9-.6.9-.6z"/></g><g class="st1"><path class="st9" d="M234 275.8c.6-.3 1.5.2 2.2.7 3.1 1.7 6.1 3.7 8.6 6.2s4.5 5.6 5.3 9.1c1.2 5.4-.7 11.1-.5 16.6-2.3-.6-4.6-1.4-6.8-2.3-2.2-1-4.4-2.2-6-4-2.4-2.9-2.9-6.8-3.2-10.5-.4-4.9-.7-9.9-.1-14.8.1-.6.3-.9.5-1z"/><path class="st11" d="M249.2 307.7l-2-3.6-2-3.7c-1.3-2.4-2.6-4.9-3.8-7.3-1.2-2.5-2.5-5-3.6-7.5-.6-1.3-1-2.6-1.4-3.9l-1.3-3.9 1.4 3.9c.4 1.3.9 2.6 1.5 3.9 1.1 2.5 2.4 5 3.6 7.5 1.2 2.5 2.5 4.9 3.8 7.4l3.8 7.2zM235.2 288.3c.6.3 1.1.7 1.7 1 .3.2.5.3.8.5.3.2.6.3.8.5l-.9-.3c-.3-.1-.6-.3-.9-.5-.5-.4-1.1-.8-1.5-1.2zM241.5 282.4c.1 1 .2 2 .1 3 0 .5-.1 1-.1 1.5-.1.5-.2 1-.4 1.5.1-.5.2-1 .2-1.5s.1-1 .1-1.5c0-1 0-2 .1-3zM245.7 286c-.2 1.4-.4 2.7-.7 4.1-.2.7-.3 1.3-.5 2s-.4 1.3-.7 2c.4-1.3.7-2.7 1-4l.9-4.1zM235.2 294.2l2.7 1.5c.4.2.9.5 1.4.7.5.2.9.4 1.4.4-.5 0-1-.1-1.5-.3-.5-.2-.9-.4-1.4-.6-.4-.2-.9-.5-1.3-.8-.5-.3-.9-.6-1.3-.9zM248.4 292.3c-.1 1.3-.2 2.5-.5 3.7-.1.6-.3 1.2-.5 1.8-.2.6-.4 1.2-.9 1.6.2-.2.4-.5.5-.8l.3-.9c.2-.6.3-1.2.4-1.8.3-1.2.5-2.4.7-3.6zM238.6 299.6c.4.2.9.4 1.3.5.4.2.9.3 1.3.5.4.1.9.3 1.4.4.5.1.9.1 1.4.1-.5.1-1 .1-1.4 0-.5-.1-.9-.2-1.4-.3-.9-.3-1.8-.6-2.6-1.2z"/></g><path class="st21" d="M109.6 163.9h39.5v4.2h-39.5z"/><path class="st22" d="M149.1 181.2h39.5v4.2h-39.5zM150.7 197.6h39.5v4.2h-39.5zM153.5 163.9h12.6v4.2h-12.6z"/><path class="st21" d="M170.4 163.9h20.9v4.2h-20.9zM177.4 172.7h7.8v4.2h-7.8zM137.3 197.8h7.8v4.2h-7.8z"/><path class="st22" d="M109.6 172.5h7.8v4.2h-7.8z"/><path class="st21" d="M137 189.7h20.4v4.2H137zM124.2 181.1h20.9v4.2h-20.9zM151.8 172.5h20.9v4.2h-20.9z"/><path class="st22" d="M122.4 172.7H147v4.2h-24.6zM161.8 189.7h24.6v4.2h-24.6z"/><g class="st1"><defs><path id="SVGID_4_" d="M128.3 385.6s6 1.5 7.5 3-16.5 1.5-16.5 1.5 1.5-39.3 3-45.3-4.5-34.8-6-36.3-1.5 3-1.5 3 0 27.2-3 37.8c-3 10.6-6 25.7-6 27.2v7.6s6 1.5 6 3-15 1.5-15 1.5 3-55.9 3-57.4 0-15.1-1.5-21.2c-1.5-6-1.5-19.6-1.5-19.6v-3h40.5s0 34.7-1.5 45.3c-1.5 10.6-4.5 31.7-4.5 31.7l-3 21.2z"/></defs><clipPath id="SVGID_5_"><use xlink:href="#SVGID_4_" overflow="visible"/></clipPath><g class="st23"><defs><path id="SVGID_6_" d="M-591.5-799.8h870.3v2992.1h-870.3z"/></defs><clipPath id="SVGID_7_"><use xlink:href="#SVGID_6_" overflow="visible"/></clipPath><path class="st24" d="M93.8 284.4h46.5v108.8H93.8z"/></g><defs><path id="SVGID_8_" d="M188.5 226.3c0-.8 1.3-1.7 1.5 0 .2 1.5-1.5 1.5 0 3s1.5 6 0 6-15.1 9-15.1 9-15.2 10.5-18.2 9-18.2-12-21.2-12-24.2-9-24.2-13.5v-13.1c0-.2 0-.5.1-.7.3-1.1 1.2-4.7-.1-7.2-1.5-3-2.3-12.8 3.8-14.3s10.6 0 12.1 3 1.5 7.5 1.5 10.5c0 1.9-.6 4.9-1 6.9-.3 1.2-1.4 2.1-2.6 2.1h-.2c-1.7 0-3.1 1.6-2.6 3.3.1.4.3.8.5 1.2 1.5 3 27.3 18 30.3 19.6 1.6.8 2.7 1.6 3.5 2.1.7.5 1.6.7 2.5.4l22.2-6.9c.4-.1.8-.4 1.1-.7 1.4-1.5 6.1-6.9 6.1-7.7"/></defs><clipPath id="SVGID_9_"><use xlink:href="#SVGID_8_" overflow="visible"/></clipPath><g class="st25"><defs><path id="SVGID_10_" d="M-591.5-799.8h870.3v2992.1h-870.3z"/></defs><clipPath id="SVGID_11_"><use xlink:href="#SVGID_10_" overflow="visible"/></clipPath><path class="st26" d="M107.1 188.9h87v67.7h-87z"/></g><g><defs><path id="SVGID_12_" d="M153.7 237.7c.1.5-.3 1.1-.5 1.6-.4 1.3-.9 2.7-1.3 4-.3.8-3.1 7.7-2.7 8-2.3-2.1-5-3.7-7.8-4.9-.7-.3-1.5-.5-2.2-.2-.8.4-1 1.5-1.1 2.5-.8 12.6-1.1 25.1-.9 37.7 0 .9 0 1.8-.4 2.6-.3.6-.8 1.1-1.4 1.6-5.3 4.5-12 7.4-18.9 7.7-6.9.3-14-2.1-19.1-6.8-.5-.4-.9-.9-1.2-1.5-.3-.6-.4-1.3-.4-2-.8-10.6 2.9-21.2 2.6-31.8-.3-9.4-3.7-18.9-2-28.1.3-1.4.7-2.9 1.6-3.9.7-.8 1.8-1.3 2.8-1.7 3.4-1.4 7-2.4 10.6-2.8-.5.1.7 2.1.9 2.2.7.6 2 .8 2.9.9 2.5.4 5.9.1 7.6-2 .4-.5.7-1 1.2-1.3.5-.3 1-.3 1.5-.3 5.8.1 11.2 2.9 15.8 6.5 4 3.2 7.5 7.1 11.1 10.7.2.2 1.1.8 1.3 1.3-.1-.1-.1 0 0 0"/></defs><clipPath id="SVGID_13_"><use xlink:href="#SVGID_12_" overflow="visible"/></clipPath><g class="st27"><defs><path id="SVGID_14_" d="M-591.5-799.8h870.3v2992.1h-870.3z"/></defs><clipPath id="SVGID_15_"><use xlink:href="#SVGID_14_" overflow="visible"/></clipPath><path class="st28" d="M92.6 216.1h64.1v85.2H92.6z"/></g></g><g><defs><path id="SVGID_16_" d="M104.3 185.3h24.1v30.5h-24.1z"/></defs><clipPath id="SVGID_17_"><use xlink:href="#SVGID_16_" overflow="visible"/></clipPath><g class="st29"><defs><path id="SVGID_18_" d="M-591.5-799.8h870.3v2992.1h-870.3z"/></defs><clipPath id="SVGID_19_"><use xlink:href="#SVGID_18_" overflow="visible"/></clipPath><g class="st30"><defs><path id="SVGID_20_" d="M102.9 182.8h27.2v36.3h-27.2z"/></defs><clipPath id="SVGID_21_"><use xlink:href="#SVGID_20_" overflow="visible"/></clipPath><g class="st31"><defs><path id="SVGID_22_" d="M126.5 208.5s-3.3 0-3.3-3.3 1.7-5 3.3-3.3c1.7 1.7 1.7 0 1.7 0s-3.3-5-1.7-6.7c1.7-1.7 3.3-3.3 0-6.7-3.3-3.3-8.3-5-14.9 0s-8.3 8.4-6.6 13.4c1.7 5 6.6 11.7 6.6 11.7s5 5 9.9 0l5-5.1z"/></defs><clipPath id="SVGID_23_"><use xlink:href="#SVGID_22_" overflow="visible"/></clipPath><g class="st32"><defs><path id="SVGID_24_" d="M104.1 185.3h24.8v30.8h-24.8z"/></defs><clipPath id="SVGID_25_"><use xlink:href="#SVGID_24_" overflow="visible"/></clipPath><path class="st33" d="M101.3 182.2h30.1v36.6h-30.1z"/></g></g></g></g></g><path class="st34" d="M137 236.7H95.8c-3.3 0-6-2.7-6-6v-5.6c0-3.3 2.7-6 6-6H137c3.3 0 6 2.7 6 6v5.6c0 3.3-2.7 6-6 6z"/><path class="st35" d="M133.8 284.6h-33.4c-5.5 0-9.9-4.4-9.9-9.9v-28.1c0-5.5 4.4-9.9 9.9-9.9h33.4c5.5 0 9.9 4.4 9.9 9.9v28.1c0 5.5-4.4 9.9-9.9 9.9z"/></g></svg>