<svg id="Layer_1" xmlns="http://www.w3.org/2000/svg" xmlns:xlink="http://www.w3.org/1999/xlink" viewBox="0 0 1075.7 798.1"><style>.st0{fill:#010f27}.st1{fill:#f2f2f2}.st2{fill:url(#SVGID_1_)}.st3{fill:#fff;stroke:#002e61;stroke-width:8.8248;stroke-miterlimit:10}.st4{fill:#20d5d2}.st5{opacity:.75;fill:#0f6fff;enable-background:new}.st6{fill:#1b0d44}.st7{fill:#29abe2}.st8{fill:#4d4d4d}.st9{fill:#f54c43}.st10{fill:#ffaa64}.st11{opacity:.27}.st12,.st13{fill:none;stroke-miterlimit:10}.st12{stroke-linecap:round;stroke:#f54c43;stroke-width:.7841}.st13{stroke:#010f27;stroke-width:2.8287}.st14{clip-path:url(#SVGID_3_)}.st15{fill:#00132e}.st16{opacity:.29}.st17{fill:none;stroke:#fff;stroke-miterlimit:10}.st18{opacity:.66}.st19{fill:#fff}.st20{opacity:.45;fill:#00132e}.st21{opacity:.74;fill:#fff}.st22{fill:#0d1d3a}.st23{clip-path:url(#SVGID_5_)}.st24{clip-path:url(#SVGID_7_);fill:#ff6464}.st25{clip-path:url(#SVGID_9_)}.st26{clip-path:url(#SVGID_11_);fill:#ffa3a3}.st27{clip-path:url(#SVGID_13_)}.st28{clip-path:url(#SVGID_15_);fill:#00132e}.st29{clip-path:url(#SVGID_17_)}.st30{clip-path:url(#SVGID_19_);enable-background:new}.st31{clip-path:url(#SVGID_21_)}.st32{clip-path:url(#SVGID_23_)}.st33{clip-path:url(#SVGID_25_);fill:#2900aa}.st34{fill:#8c6239}.st35{fill:#754c24}</style><path class="st0" d="M902.2 579.5c-14-.9-11.5 19.8-16.2 25.3-4.7 5.5-10.6-16.7-16-9.6-5.5 7.1 3.4 28.9 2.1 30.2-3.9 3.9-16-9.6-18.1-.9-2.1 8.7 22.5 26.3 13.5 27.8s-11.2-11.2-15.9-5.6c-4.7 5.5-.5 27 12.2 35s36.6 9.7 44.5 1.8c7.9-7.9 17.3-18.9 9.1-19-8.2 0-17.4-2.5-13.4-6.4 3.5-3.5 28.9-17.3 18.1-20.5-10.8-3.2-14.6 4.7-16.5-.1-1.8-4.8 20.7-17.3 18.8-22.1-1.8-4.8-7.5-1.6-17.4-2.5s9.3-32.5-4.8-33.4z"/><path class="st1" d="M879.6 682.1c1.5-11.3 3.3-22.5 5.4-33.7 1.6-8.8 3.4-17.5 5.6-26.1.9-3.5 1.9-7.1 3.1-10.5 1.6-4.4 3.6-8.6 5.1-13 1.1-3.1 2.3-6.6 2.2-10 0-.6 0-1.8-.5-2.2-.2-.1-1.2.9-1.3.7 1.8 1.5-.2 7.2-.6 8.8-2.3 8.3-6.3 16-8.6 24.3-4.5 16.2-7.3 33-9.8 49.6-.7 4.3-1.3 8.5-1.9 12.8.1-.3 1.3-.4 1.3-.7z"/><linearGradient id="SVGID_1_" gradientUnits="userSpaceOnUse" y1="380.246" x2="1073.322" y2="380.246"><stop offset="0" stop-color="#ffe38d"/><stop offset=".689" stop-color="#ff6464"/></linearGradient><path class="st2" d="M118.5 155.7C365.8-142.1 894.3 70 989 118.7c27.8 14.3 71.1 37.4 82 80 14.8 57.8-44.9 93.2-66 214-8.5 48.4-.5 52.4-10 86-22.5 80-86.9 125.4-130 156-62.1 44.1-148.5 105.4-214 76-52.9-23.7-48.2-86.7-112-108-35-11.7-66.8-2.9-92 4-87.7 24.2-101.5 82.2-172 114-60.6 27.4-142 25.9-188-2-119.3-72.4-122.5-397.5 31.5-583z"/><path class="st3" d="M570.8 544.6H358.9c-13.3 0-24-10.8-24-24V413.7c0-13.3 10.8-24 24-24h211.9c13.3 0 24 10.8 24 24v106.8c0 13.3-10.7 24.1-24 24.1z"/><path class="st4" d="M355.4 417.5h90.4v9.6h-90.4z"/><path class="st5" d="M449.4 494.7h90.4v9.6h-90.4zM455.8 417.5h28.8v9.6h-28.8z"/><path class="st4" d="M494.6 417.5h47.7v9.6h-47.7zM510.6 437.6h17.8v9.6h-17.8zM418.9 495.1h17.8v9.6h-17.8z"/><path class="st5" d="M355.4 437.3h17.8v9.6h-17.8z"/><path class="st4" d="M418.1 476.6h46.6v9.6h-46.6zM388.9 457h47.7v9.6h-47.7zM451.9 437.3h47.7v9.6h-47.7z"/><path class="st5" d="M384.6 437.6h56.2v9.6h-56.2zM474.8 476.6H531v9.6h-56.2z"/><g><path class="st6" d="M784.3 703.2h56.3V469.3l-56.3-31.4z"/><path transform="rotate(-180 728.03 570.554)" class="st7" d="M671.7 437.9h112.6v265.2H671.7z"/><path transform="rotate(-180 684.39 467.03)" class="st8" d="M680.3 462.9h8.2v8.2h-8.2z"/><circle class="st9" cx="766.3" cy="466.5" r="2.9"/><circle class="st9" cx="756.2" cy="466.5" r="2.9"/><circle class="st9" cx="746.1" cy="466.5" r="2.9"/><circle class="st10" cx="736" cy="466.5" r="2.9"/><g><path transform="rotate(-180 684.39 483.197)" class="st8" d="M680.3 479.1h8.2v8.2h-8.2z"/><circle class="st9" cx="766.3" cy="482.7" r="2.9"/><circle class="st9" cx="756.2" cy="482.7" r="2.9"/><circle class="st9" cx="746.1" cy="482.7" r="2.9"/><circle class="st10" cx="736" cy="482.7" r="2.9"/></g><g class="st11"><path class="st12" d="M792.3 455.4l40.4 23.3M792.3 459.4l40.4 23.3M792.3 463.4l40.4 23.3M792.3 467.4l40.4 23.3M792.3 471.5l40.4 23.3M792.3 475.5l40.4 23.3M792.3 479.5l40.4 23.3M792.3 483.5l40.4 23.3M792.3 487.5l40.4 23.3M792.3 491.6l40.4 23.3M792.3 495.6l40.4 23.3M792.3 499.6l40.4 23.3M792.3 503.6l40.4 23.3M792.3 507.6l40.4 23.3M792.3 511.6l40.4 23.4M792.3 515.7l40.4 23.3M792.3 519.7l40.4 23.3M792.3 523.7l40.4 23.3M792.3 527.7l40.4 23.3M792.3 531.7l40.4 23.3M792.3 535.8l40.4 23.3M792.3 539.8l40.4 23.3M792.3 543.8l40.4 23.3M792.3 547.8l40.4 23.3M792.3 551.8l40.4 23.3M792.3 555.9l40.4 23.3M792.3 559.9l40.4 23.3M792.3 563.9l40.4 23.3M792.3 567.9l40.4 23.3M792.3 571.9l40.4 23.3M792.3 576l40.4 23.3M792.3 580l40.4 23.3M792.3 584l40.4 23.3M792.3 588l40.4 23.3M792.3 592l40.4 23.3M792.3 596.1l40.4 23.3M792.3 600.1l40.4 23.3M792.3 604.1l40.4 23.3M792.3 608.1l40.4 23.3M792.3 612.1l40.4 23.3M792.3 616.1l40.4 23.4M792.3 620.2l40.4 23.3M792.3 624.2l40.4 23.3M792.3 628.2l40.4 23.3M792.3 632.2l40.4 23.3M792.3 636.2l40.4 23.3M792.3 640.3l40.4 23.3M792.3 644.3l40.4 23.3M792.3 648.3l40.4 23.3M792.3 652.3l40.4 23.3M792.3 656.3l40.4 23.3M792.3 660.4l40.4 23.3M792.3 664.4l40.4 23.3M792.3 668.4l40.4 23.3M792.3 672.4l40.4 23.3M792.3 676.4l40.4 23.3"/></g></g><g><path class="st0" d="M298.9 636.2c.5.2 1-.1 1.1-.6.9-5.7 4.9-34.5-2.5-33.5-8.2 1.1-15 17.5-8.8 25.2 4.6 5.7 8.5 8.1 10.2 8.9zM277.4 674.9c-.1-.5.3-1 .8-1 5.8.4 34.7 2.6 32.2 9.6-2.9 7.7-20.3 10.9-26.5 3.2-4.6-5.7-6.1-9.9-6.5-11.8zM305.6 639.2s27.4-2.1 21.4 6.3-24.3 10.4-29.4 1.8c-5.1-8.5-1.1-8 8-8.1zM280.2 691.2s23.8 9.8 16 15c-7.8 5.2-23.9-.8-25.4-10.9s1.7-8 9.4-4.1zM253.8 730.5s23.8 9.8 16 15c-7.8 5.2-23.9-.8-25.4-10.9-1.5-10 1.7-7.9 9.4-4.1zM276.9 656s-7.4-26.5-13.3-18c-5.9 8.4-1.6 26.4 8.3 28.2s8.1-1.7 5-10.2zM244.7 701.7s15 19.3 5.6 17.1c-9.5-2.2-20.1-14.9-15.9-20.8 4.3-5.9 5.9-2.9 10.3 3.7zM322.7 621.3c3.8-2.2 7.4-4.9 9.8-8.7 1-1.6 1.9-3.1 2.6-4.9.6-1.8 1-3.6 1.1-5.4.1-1.8 0-3.7-.4-5.4-.2-1-.6-2-1.4-2.5-.9-.6-2.2-.4-3.3 0-2 .7-3.7 1.9-5.4 3.2-4.6 3.6-8.6 7.9-12.3 12.4-3.3 4-6.5 8.3-8.4 13.2-.6 1.5-1 3.3.2 4.4.6.6 1.6.8 2.5.6.9-.2 1.7-.6 2.5-1 4-2 8.3-3.7 12.2-5.9.1.1.2 0 .3 0zM289.2 648.5s-7.5-41.5-13.7-30.4c-3.2 5.6-2.5 12.5-.5 18.4 1.1 3.3 2.9 6.3 5.2 8.9 1.1 1.3 2.4 2.5 3.7 3.6 1 .8 3 3 4.4 2.8 1.4-.2 1-2.3.9-3.3zM237.9 734.4s-13.7-33-16.9-22.7c-1.6 5.2.2 10.8 2.9 15.3 1.5 2.5 3.6 4.7 6 6.4 1.2.9 2.4 1.6 3.7 2.3 1 .5 3.1 2 4.2 1.5 1.1-.4.4-2 .1-2.8zM262.7 703.7s-11-30.3-14.3-21.1c-1.6 4.6-.3 9.8 2 13.9 1.3 2.3 3 4.4 5.1 6 1 .8 2.1 1.6 3.3 2.2.8.5 2.7 1.9 3.7 1.5 1-.2.4-1.7.2-2.5zM272.6 682.5s-17.6-38.3-20.9-26c-1.7 6.2.7 12.8 4.1 18 1.9 2.9 4.4 5.4 7.3 7.3 1.4 1 2.9 1.8 4.5 2.6 1.2.6 3.7 2.2 5 1.6 1.3-.6.4-2.5 0-3.5zM288.5 653.4s40.9 10.5 29.3 15.9c-5.8 2.7-12.7 1.6-18.4-.8-3.2-1.4-6.1-3.4-8.5-5.9-1.2-1.2-2.3-2.6-3.3-4-.8-1-2.8-3.2-2.5-4.6.3-1.4 2.4-.8 3.4-.6zM262.7 709s31.8 14.4 21.6 17.2c-5.1 1.4-10.6-.5-14.9-3.3-2.4-1.6-4.5-3.6-6.1-6-.8-1.2-1.5-2.4-2.1-3.7-.5-1-1.8-3-1.3-4.1.5-1.1 2-.4 2.8-.1z"/><path class="st13" d="M309.3 623.5s-26.4 30.3-31 44.9c-5.2 16.4-11.9 32.5-23.1 45.8-13.9 16.6-30.8 33.9-28.1 46.2"/></g><g><path class="st0" d="M816.8 693.7c.9 2.4-2 5.9-4.1 8.5-8.9 11.2-18.6 21.9-30.2 30.2-11.6 8.3-25.2 14.3-39.5 15-22.4 1.2-43.5-10-65.7-12.7 3.8-8.9 8.4-17.4 13.6-25.5 5.3-8.2 11.4-16.2 19.8-21.1 12.9-7.6 28.8-7 43.8-5.9 19.9 1.5 39.8 3.6 59 9.1 1.9.6 2.9 1.4 3.3 2.4z"/><path class="st1" d="M680 733.8l15.7-5.7 15.7-5.5c10.5-3.6 21.1-7.1 31.7-10.5 10.6-3.3 21.2-6.6 32-9.3 5.4-1.4 10.9-2.3 16.4-3.2L808 697l-16.4 3c-5.5.9-10.9 1.9-16.3 3.4-10.7 2.8-21.4 6.1-32 9.5-10.6 3.3-21.2 6.8-31.7 10.3L680 733.8zM766.3 690.4c-.8 1-1.7 2-2.6 3l-2.6 2.9c-.9 1-1.7 1.9-2.6 2.9-.8 1-1.6 2-2.4 3.1.5-1.2 1.2-2.4 1.9-3.4.7-1.1 1.6-2.1 2.4-3.1.9-1 1.8-1.9 2.7-2.8 1.2-.9 2.2-1.8 3.2-2.6zM785.5 719.2c-2 0-4.1-.2-6.1-.5-2-.2-4-.6-6-1s-4-.9-5.9-1.5c-1.9-.6-3.9-1.4-5.6-2.5.5.2.9.4 1.4.6l1.4.5c1 .3 1.9.6 2.9.8 2 .5 3.9 1 5.9 1.3l6 1.2 6 1.1zM768.5 733.7c-2.7-.8-5.3-1.7-7.9-2.6-2.6-.9-5.2-2-7.7-3-2.5-1.1-5.1-2.2-7.6-3.4-2.5-1.2-5-2.5-7.3-3.9 2.5 1.2 5 2.3 7.6 3.4 2.5 1.1 5.1 2.2 7.6 3.2 2.5 1.1 5.1 2.1 7.7 3.2 2.4 1 5 2 7.6 3.1zM742.7 686.8l-3.8 4.8c-1.3 1.6-2.5 3.2-3.7 4.8-1.2 1.6-2.4 3.3-3.5 5l-.8 1.3-.7 1.3c-.2.5-.4.9-.6 1.4-.2.5-.3 1-.5 1.5.2-2.1 1.1-4 2.1-5.8 1-1.8 2.1-3.5 3.4-5.2 1.2-1.6 2.5-3.2 3.9-4.7 1.2-1.6 2.7-3.1 4.2-4.4zM741.9 740.4c-2.5-.5-4.9-1.2-7.3-1.9-2.4-.7-4.8-1.6-7.2-2.4-2.3-.9-4.7-1.9-6.9-3.1-1.1-.6-2.2-1.2-3.3-2-1-.8-2-1.6-2.7-2.7.8 1 1.8 1.7 2.9 2.4 1.1.7 2.2 1.2 3.3 1.8 2.3 1.1 4.6 2 6.9 2.9 2.3.9 4.7 1.7 7.1 2.6l7.2 2.4zM718.9 696.8c-1 1.6-2 3.2-3 4.9-.9 1.6-1.9 3.3-2.7 5-.9 1.7-1.7 3.4-2.3 5.2-.2.4-.3.9-.5 1.3-.1.5-.3.9-.4 1.4-.1.5-.2.9-.3 1.4-.1.5-.1.9-.2 1.4-.2-1.9.2-3.9.8-5.7.5-1.9 1.3-3.6 2.2-5.3.9-1.7 1.8-3.4 2.9-5 1.1-1.7 2.3-3.2 3.5-4.6z"/></g><g><path class="st0" d="M666.5 626.6c-13.7 3.3-5.2 22.3-8.1 28.9-2.9 6.7-15-12.9-18.1-4.5-3.1 8.4 11.6 26.7 10.8 28.2-2.6 4.9-18.1-4.5-17.6 4.4s29.2 18.6 21.1 22.7-13.9-7.4-16.8-.8 7.4 25.9 21.9 29.9c14.5 4 37.9-1.4 43.1-11.2 5.2-9.8 11-23.2 3.1-20.8-7.9 2.4-17.4 2.7-14.7-2.2 2.3-4.4 22.6-25 11.3-24.9-11.3.1-12.6 8.7-15.8 4.7-3.2-4 14.7-22.6 11.5-26.6-3.2-4-7.6.6-17.4 2.7-9.8 2.1-.7-33.8-14.3-30.5z"/><path class="st1" d="M674.8 731.4c-1.9-11.2-3.4-22.5-4.7-33.8-1-8.8-1.9-17.7-2.2-26.6-.2-3.8-.2-7.6 0-11.4.2-4.7 1-9.3 1.1-14 .1-3.2.2-6.7-.9-9.8-.2-.5-.5-1.6-1.1-1.9-.3-.1-1 .9-1.3.7 2.1.8 1.9 6.7 2 8.2.3 8.6-1.3 17-1.1 25.6.4 17 2.7 34 5.1 50.9.6 4.3 1.2 8.5 2 12.8-.2-.1 1.2-.5 1.1-.7z"/></g><g><defs><path id="SVGID_2_" d="M120.8 155.7c247.3-297.8 775.9-85.8 870.5-37 27.8 14.3 71.1 37.4 82 80 14.8 57.8-44.9 93.2-66 214-8.5 48.4-.5 52.4-10 86-22.5 80-86.9 125.4-130 156-62.1 44.1-148.5 105.4-214 76-52.9-23.7-48.2-86.7-112-108-35-11.7-66.8-2.9-92 4-87.7 24.2-101.5 82.2-172 114-60.6 27.4-142 25.9-188-2-119.2-72.4-122.5-397.5 31.5-583z"/></defs><clipPath id="SVGID_3_"><use xlink:href="#SVGID_2_" overflow="visible"/></clipPath><g class="st14"><path class="st15" d="M956.9 675V-44.7H851.2l1.2 744.7h104.5z"/><g class="st16"><path class="st17" d="M880.1 660.9c3.4-33.2 4.1-61.2 4-82 0-6-.3-29.4-2.7-60-2.1-26.8-4.2-37.7-6.7-69.3-1.5-18.4-2.2-33.5-2.7-43.3M949.4-17.1c-1.1 17.7-2.2 41.8-2 70.7 0 7.8.2 16.7 1.3 50.7.6 19 1.5 43.7 2.7 72.7M938.1 278.3c-1.6-14.5-3.7-36.2-4.7-62.7-.7-19.2-.5-30.8-.7-64-.1-15.8-.2-38.2-.7-65.3M927.4 30.9c.7-8 1-17 .7-26.7-.4-12.2-1.7-23.1-3.3-32.7M881.4 30.3c.2 8.7.6 22.4 2 39.3 3 37.7 6.8 43.6 6.7 67.3 0 5.5-1.1 10.6-2.8 29.9-1.1 12.8-1.7 19.2-1.9 23.5-1.4 25.8 2.5 54.6 6 54.7 2.9.1 6-19.8 6.7-34 .6-13-.7-23.8-2-31.3M914.1 242.9c-5.2 19.4-4.8 34.3-3.3 44.7 1.2 8.2 3.3 15.5 4 28.7.6 10.6 0 19.4-.7 25.3M934.7 675.6c-3-26-5.3-52.9-6.7-80.7-.3-5.1-.5-10.3-.7-15.3M927.4 556.3c-1.8-10.5-2.5-19.8-2.7-27.3-.4-16.1 1.6-23.9 2-42.7.2-10.6-.1-19.9-.7-27.3M862.7 334.9c1.1-12.4 2.2-31.9.7-56-1.5-24.4-4.6-34.9-6-56.7-1-15.2-1.3-37.8 2.7-66"/></g><g><path class="st18 st19" d="M194.1 258.5c.6 0 1.4 0 1.9.1 46.6 2.1 94.8 12 140.9 4.6 10.3-1.7 15.9-4.4 25.3-3.9 9.7.5 15.7 4.5 25.2 6.5 14.6 3.1 29.9 2.2 44.6-1.6 1.1-.3 2.4-.7 2.9-1.8.8-1.7-.3-3.5-1.6-4.6-6.1-5.8-14.9-10.7-22.5-13-28.2-8.4-56.8-1.4-84.3-11.8 23.3-9.1 49.5-4.4 73.1 0 5.3 1 10.1 1.9 14.7 1.3 4.6-.7 9.8-3 10.1-7.5 1.2-18.9-68.9-24.5-82.3-24.8-25.8-.5-47.2 1.3-72-1.7 7.7-5.6 14.6-11.5 19.1-19.7 1.3-2.4 2.8-4.2 1.9-6.8-1.9-5.4-5.9-5.9-12.4-6-20.9-.3-40.9-.6-63 2.5-22.1 3.2-46.9 11.3-69.7 14.5-10.4 3.2-22.6 6.2-28.7 15.6-4.1 6.3-4.7 12.3-2.8 19.4 4.3 16 14.9 26.4 30.7 32.3 15.4 5.6 32.6 5.7 48.9 6.4z"/><path class="st20" d="M704.3 413v-719.8h-27.8l.3 744.7h27.5zM846.3 719.8V0h-58.7l.7 744.7h58zM267.2 772.8V53.1h-20.7l.3 744.7h20.4zM993.3 643.2V-76.6h-23.8l.3 744.8h23.5z"/><path class="st21" d="M455.9 143.9c-50.2-5.7-102.2 4.4-152.3-3.6 2.9-4.4 12.6-4.6 20.3-5.2 7.7-.6 16.9-4.7 13.1-8.8-2.4-2.6-8.3-2.8-13.1-2.7-15.2.3-30.4.5-45.5.8-4.5.1-9.4.1-13.3-1.3s-6.2-4.8-3.5-7c.8-.7 2-1.1 3.1-1.6 14.4-5.7 28.7-11.5 43.1-17.2 8.8-3.5 18-7.1 28.4-8.2 12.3-1.2 24.7 1.4 35.6 5.1 8.1 2.8 18 6.2 26 3.3 3.4-1.2 5.4-3.4 7.7-5.3C436.3 65.9 505 75.3 545 87.3c5.3 1.6 11.1 3.9 11.8 7.4 1.1 5.5-9.9 8.5-18.6 10.3s-18.8 6.7-14.4 11.6c3.5 3.9 12.8 3.4 19.9 2.5 25.6-3.1 52.1-3.8 78.1-2.1 2.9.2 6.2.5 7.8 2 1.9 1.7.9 4-.4 5.9-10.5 15.1-34.5 25.5-60.1 30.8-25.6 5.3-53 6-80 6.7-36.3 1-72.6 1.9-108.9 2.9 5.9 0 26.6-12.1 34-14.2 13.2-3.8 27.3-6.1 41.7-7.2zM773.3 286.4c-50.2-5.7-102.2 4.4-152.3-3.6 2.9-4.4 12.6-4.6 20.3-5.2s16.9-4.7 13.1-8.8c-2.4-2.6-8.3-2.8-13.1-2.7-15.2.3-30.4.5-45.5.8-4.5.1-9.4.1-13.3-1.3-3.9-1.4-6.2-4.8-3.5-7 .8-.7 2-1.1 3.1-1.6 14.4-5.7 28.7-11.5 43.1-17.2 8.8-3.5 18-7.1 28.4-8.2 12.3-1.2 24.7 1.4 35.6 5.1 8.1 2.8 18 6.2 26 3.3 3.4-1.2 5.4-3.4 7.7-5.3 30.8-26.3 99.5-16.9 139.5-4.9 5.3 1.6 11.1 3.9 11.8 7.4 1.1 5.5-9.9 8.5-18.6 10.3-8.7 1.8-18.8 6.7-14.4 11.6 3.5 3.9 12.8 3.4 19.9 2.5 25.6-3.1 52.1-3.8 78.1-2.1 2.9.2 6.2.5 7.8 2 1.9 1.7.9 4-.4 5.9-10.5 15.1-34.5 25.5-60.1 30.8-25.6 5.3-53 6-80 6.7-36.3 1-72.6 1.9-108.9 2.9 5.9 0 26.6-12.1 34-14.2 13.3-3.9 27.4-6.1 41.7-7.2z"/><g><path class="st0" d="M329 122.1c-.4 2.6-4.6 4.1-7.7 5.4-13.3 5.3-27 9.8-41.2 11.3-14.2 1.5-29-.1-41.8-6.5-20-10-32.8-30.2-50.8-43.6 7.7-5.8 15.9-11 24.4-15.4 8.6-4.5 18-8.4 27.7-8.5 15-.2 28.5 8.2 40.9 16.5 16.5 11.2 32.8 22.9 46.7 37.2 1.5 1.3 2 2.5 1.8 3.6z"/><path class="st1" d="M190.4 89.1l16.4 2.8 16.4 3c10.9 2.1 21.8 4.3 32.7 6.6 10.9 2.4 21.7 4.8 32.4 7.8 5.4 1.4 10.6 3.4 15.8 5.4l15.6 5.9L304 115c-5.2-1.9-10.4-3.8-15.8-5.1-10.7-2.9-21.6-5.3-32.5-7.6-10.9-2.4-21.8-4.6-32.7-6.8l-32.6-6.4zM286.8 94.2c-1.2.5-2.5.9-3.7 1.3l-3.7 1.3c-1.2.4-2.5.8-3.7 1.3-1.2.4-2.4.9-3.6 1.5 1-.8 2.2-1.5 3.4-2 1.2-.6 2.4-1 3.7-1.5 1.2-.4 2.5-.8 3.8-1.1 1.2-.4 2.5-.6 3.8-.8zM289.2 128.7c-1.7-1-3.4-2.2-5-3.4-1.6-1.2-3.2-2.5-4.7-3.8-1.5-1.3-3-2.7-4.4-4.3-1.4-1.5-2.7-3.1-3.6-4.9l.9 1.2 1 1.1c.7.7 1.4 1.5 2.1 2.2 1.4 1.4 2.9 2.8 4.5 4.1 1.5 1.3 3.1 2.6 4.6 4l4.6 3.8zM267.2 132.9c-1.9-2-3.8-4.1-5.6-6.2-1.8-2.1-3.5-4.3-5.3-6.4-1.7-2.2-3.3-4.4-4.9-6.7-1.6-2.3-3.1-4.6-4.4-7.1 1.6 2.3 3.2 4.5 4.9 6.7 1.7 2.2 3.3 4.4 5 6.6 1.7 2.2 3.4 4.4 5.1 6.5 1.8 2.2 3.5 4.4 5.2 6.6zM268.1 79.3l-5.7 2.2c-1.9.8-3.8 1.5-5.6 2.3-1.9.8-3.7 1.7-5.5 2.6l-1.3.7-1.3.8-1.2.9c-.4.3-.7.7-1.1 1 1.2-1.7 2.9-2.9 4.7-4 1.8-1.1 3.6-2 5.5-2.8 1.9-.8 3.8-1.5 5.7-2.2 1.8-.5 3.8-1.1 5.8-1.5zM240.9 125.5c-1.9-1.7-3.7-3.5-5.4-5.3-1.7-1.8-3.4-3.7-5-5.7s-3.1-4-4.5-6.1c-.7-1.1-1.3-2.2-1.8-3.3-.5-1.2-1-2.4-1-3.7.2 1.3.7 2.4 1.3 3.5.6 1.1 1.3 2.1 2 3.2 1.4 2 3 4 4.6 5.9 1.6 2 3.2 3.9 4.9 5.8l4.9 5.7zM242.5 76.2c-1.7.9-3.4 1.8-5 2.8-1.6 1-3.3 1.9-4.8 3-1.6 1-3.1 2.1-4.6 3.4-.4.3-.7.6-1.1.9-.3.3-.7.6-1 1l-1 1c-.3.4-.6.8-.9 1.1.8-1.7 2.1-3.2 3.5-4.6 1.4-1.4 2.9-2.5 4.5-3.6s3.3-2 5-2.9c1.8-.7 3.6-1.5 5.4-2.1z"/><g><path class="st0" d="M321.2 92.2c-.5 1.8-3.6 2.6-6 3.2-9.9 2.7-20.1 4.8-30.3 4.7-10.3-.1-20.7-2.5-29.3-8.1-13.5-8.8-20.9-24.3-32.6-35.3 6-3.5 12.3-6.5 18.7-9 6.5-2.5 13.5-4.5 20.5-3.8 10.7 1 19.7 8.1 27.8 15.1 10.9 9.3 21.5 19.1 30.3 30.4.9 1.2 1.1 2.1.9 2.8z"/><path class="st1" d="M225 57.1l11.5 3.4 11.4 3.6c7.6 2.4 15.2 4.8 22.8 7.4 7.6 2.6 15.1 5.3 22.5 8.3 3.7 1.5 7.3 3.3 10.8 5.1l10.6 5.5-10.8-5.3c-3.6-1.8-7.1-3.6-10.9-5-7.4-3-15-5.5-22.5-8.1-7.6-2.6-15.1-5.1-22.7-7.6L225 57.1zM293.4 68.8l-2.7.6-2.7.6c-1.8.4-3.6.8-5.4 1.4.8-.5 1.7-.9 2.6-1.2.9-.3 1.8-.5 2.7-.8.9-.2 1.9-.4 2.8-.5.8 0 1.7-.1 2.7-.1zM292.2 93.6c-1.2-.9-2.2-1.9-3.3-2.9-1.1-1-2.1-2.1-3.1-3.1-1-1.1-1.9-2.2-2.8-3.4-.8-1.2-1.6-2.4-2.2-3.8.7 1.3 1.6 2.4 2.5 3.5.9 1.1 1.8 2.2 2.8 3.3 1 1.1 2 2.1 3 3.2l3.1 3.2zM276.2 94.8c-1.2-1.6-2.3-3.2-3.5-4.9-1.1-1.7-2.2-3.3-3.2-5-1-1.7-2-3.4-2.9-5.2-.9-1.8-1.8-3.6-2.6-5.4 1.9 3.5 3.9 6.9 6 10.3 1 1.7 2.1 3.4 3.1 5.1l3.1 5.1zM281.3 56.6c-2.8.8-5.7 1.5-8.5 2.3-1.4.4-2.8.9-4.1 1.4-1.4.5-2.7 1.1-3.8 2.1 1-1.1 2.3-1.9 3.7-2.5 1.3-.6 2.7-1.1 4.1-1.6 1.4-.4 2.8-.8 4.3-1.1 1.3-.2 2.8-.5 4.3-.6zM258 87.3c-1.2-1.4-2.3-2.8-3.4-4.2-1.1-1.4-2.1-2.9-3.1-4.5-.9-1.5-1.9-3.1-2.7-4.7-.7-1.6-1.5-3.4-1.4-5.2.1.9.3 1.8.7 2.6.3.8.7 1.6 1.2 2.4.9 1.6 1.8 3.1 2.8 4.6l3 4.5 2.9 4.5zM263.3 52.3c-1.3.5-2.5 1-3.8 1.6-1.3.5-2.5 1.1-3.7 1.7-1.2.6-2.4 1.3-3.5 2-1.1.8-2.2 1.6-3.1 2.6.7-1.2 1.8-2.1 2.9-3 1.1-.8 2.3-1.5 3.5-2.2 1.2-.6 2.5-1.2 3.8-1.6 1.2-.4 2.5-.9 3.9-1.1z"/></g><g><path class="st0" d="M494.3 77.8c-1.7-.9-1.7-4.1-1.8-6.5-.4-10.3-.2-20.6 2.2-30.6s7-19.6 14.4-26.8c11.6-11.2 28.3-15 41.7-24 2.1 6.6 3.6 13.4 4.6 20.3 1 6.9 1.4 14.2-.8 20.8-3.4 10.2-12.4 17.4-21 23.8-11.5 8.5-23.3 16.8-36.3 22.8-1.4.6-2.3.6-3 .2z"/><path class="st1" d="M549.8-8.3l-5.9 10.5-6 10.4c-4 6.9-8.1 13.8-12.2 20.6-4.2 6.8-8.5 13.6-13.1 20.1-2.2 3.3-4.8 6.4-7.4 9.4l-7.7 9.1 7.5-9.3c2.5-3.1 5.1-6.2 7.3-9.5 4.5-6.6 8.7-13.4 12.9-20.2 4.2-6.8 8.3-13.6 12.4-20.5l12.2-20.6zM523.3 55.9v-5.6c0-1.9 0-3.7-.1-5.6.3.9.5 1.8.6 2.8.1.9.1 1.9.1 2.8 0 .9-.1 1.9-.2 2.8-.1.9-.2 1.8-.4 2.8zM499.3 49.3c1.1-.9 2.3-1.8 3.5-2.6 1.2-.8 2.5-1.6 3.7-2.3 1.3-.7 2.6-1.4 3.9-1.9 1.4-.6 2.7-1.1 4.2-1.3-1.4.4-2.7 1-4 1.7-1.3.6-2.6 1.3-3.8 2-1.3.7-2.5 1.4-3.8 2.2l-3.7 2.2zM501.8 33.4c1.8-.8 3.7-1.6 5.5-2.3 1.9-.7 3.7-1.4 5.6-2 1.9-.6 3.8-1.2 5.7-1.7 1.9-.5 3.9-1 5.8-1.3-3.8 1.1-7.6 2.3-11.4 3.6-1.9.6-3.8 1.3-5.6 1.9l-5.6 1.8zM537.9 46.8c-.1-2.9-.2-5.9-.4-8.8-.1-1.5-.2-2.9-.5-4.3-.2-1.4-.5-2.9-1.2-4.2.9 1.2 1.3 2.7 1.6 4.1.3 1.4.5 2.9.6 4.4.1 1.5.1 2.9.1 4.4 0 1.4-.1 2.9-.2 4.4zM513 17.3c1.6-.9 3.2-1.7 4.9-2.4 1.7-.7 3.3-1.4 5-2.1 1.7-.6 3.4-1.2 5.2-1.6 1.8-.4 3.6-.8 5.4-.3-.9-.1-1.8-.1-2.7.1-.9.1-1.8.4-2.6.6-1.7.5-3.4 1.1-5.1 1.7-1.7.6-3.4 1.3-5.1 1.9l-5 2.1zM546.1 30.1c-.2-1.4-.4-2.7-.7-4.1-.3-1.3-.5-2.7-.9-4-.3-1.3-.7-2.6-1.2-3.9-.5-1.3-1.1-2.5-1.9-3.6 1 1 1.7 2.2 2.3 3.5.6 1.3 1 2.6 1.3 3.9.3 1.3.6 2.7.7 4.1.3 1.4.4 2.8.4 4.1z"/></g><g><path class="st0" d="M784.3 135.4c-1.7-.9-1.7-4.1-1.8-6.5-.4-10.3-.2-20.6 2.2-30.6s7-19.6 14.4-26.8c11.6-11.2 28.3-15 41.7-24 2.1 6.6 3.6 13.4 4.6 20.3 1 6.9 1.4 14.2-.8 20.8-3.4 10.2-12.4 17.4-21 23.8-11.5 8.5-23.3 16.8-36.3 22.8-1.4.5-2.3.6-3 .2z"/><path class="st1" d="M839.8 49.3l-5.9 10.5-6 10.4c-4 6.9-8.1 13.8-12.2 20.6-4.2 6.8-8.5 13.6-13.1 20.1-2.2 3.3-4.8 6.4-7.4 9.4l-7.7 9.1 7.5-9.3c2.5-3.1 5.1-6.2 7.3-9.5 4.5-6.6 8.7-13.4 12.9-20.2 4.2-6.8 8.3-13.6 12.4-20.5l12.2-20.6zM813.3 113.5v-5.6c0-1.9 0-3.7-.1-5.6.3.9.5 1.8.6 2.8.1.9.1 1.9.1 2.8 0 .9-.1 1.9-.2 2.8-.1.9-.2 1.8-.4 2.8zM789.3 106.9c1.1-.9 2.3-1.8 3.5-2.6 1.2-.8 2.5-1.6 3.7-2.3 1.3-.7 2.6-1.4 3.9-1.9 1.4-.6 2.7-1.1 4.2-1.3-1.4.4-2.7 1-4 1.7-1.3.6-2.6 1.3-3.8 2-1.3.7-2.5 1.4-3.8 2.2l-3.7 2.2zM791.8 90.9c1.8-.8 3.7-1.6 5.5-2.3 1.9-.7 3.7-1.4 5.6-2 1.9-.6 3.8-1.2 5.7-1.7 1.9-.5 3.9-1 5.8-1.3-3.8 1.1-7.6 2.3-11.4 3.6-1.9.6-3.8 1.3-5.6 1.9l-5.6 1.8zM827.9 104.3c-.1-2.9-.2-5.9-.4-8.8-.1-1.5-.2-2.9-.5-4.3-.2-1.4-.5-2.9-1.2-4.2.9 1.2 1.3 2.7 1.6 4.1.3 1.4.5 2.9.6 4.4.1 1.5.1 2.9.1 4.4 0 1.5-.1 3-.2 4.4zM803 74.8c1.6-.9 3.2-1.7 4.9-2.4 1.7-.7 3.3-1.4 5-2.1 1.7-.6 3.4-1.2 5.2-1.6 1.8-.4 3.6-.8 5.4-.3-.9-.1-1.8-.1-2.7.1-.9.1-1.8.4-2.6.6-1.7.5-3.4 1.1-5.1 1.7-1.7.6-3.4 1.3-5.1 1.9l-5 2.1zM836.1 87.7c-.2-1.4-.4-2.7-.7-4.1-.3-1.3-.5-2.7-.9-4-.3-1.3-.7-2.6-1.2-3.9-.5-1.3-1.1-2.5-1.9-3.6 1 1 1.7 2.2 2.3 3.5.6 1.3 1 2.6 1.3 3.9.3 1.3.6 2.7.7 4.1.3 1.4.4 2.8.4 4.1z"/></g><g><path class="st0" d="M831.2 133.2c-1.2-.3-1.6-2.4-2-3.9-1.6-6.4-2.8-13-2.6-19.6.2-6.6 1.9-13.3 5.6-18.8 5.9-8.6 16-13.1 23.2-20.6 2.2 3.9 4 8 5.5 12.2 1.5 4.3 2.7 8.8 2.2 13.3-.8 6.9-5.6 12.6-10.2 17.7-6.2 6.9-12.6 13.6-20 19.1-.6.6-1.2.7-1.7.6z"/><path class="st1" d="M855.2 71.6c-1.5 4.9-3.1 9.8-4.8 14.7-1.7 4.9-3.3 9.8-5.1 14.6-1.8 4.8-3.6 9.7-5.7 14.4-1 2.4-2.2 4.7-3.5 6.9l-3.7 6.8 3.6-6.9c1.2-2.3 2.4-4.5 3.4-6.9 2-4.7 3.8-9.6 5.5-14.4 1.8-4.8 3.5-9.7 5.2-14.6l5.1-14.6zM846.7 115.6c-.3-1.2-.5-2.4-.7-3.6-.2-1.2-.5-2.4-.8-3.5.6 1.1.9 2.3 1.2 3.5.2 1.1.3 2.4.3 3.6zM830.7 114.5c1.2-1.5 2.5-2.8 4-4 .7-.6 1.5-1.2 2.2-1.7.8-.5 1.6-1 2.5-1.3-.8.5-1.6 1-2.3 1.6-.7.6-1.5 1.2-2.2 1.8-1.4 1.1-2.8 2.4-4.2 3.6zM830.2 104.1c2.1-1.5 4.3-2.9 6.5-4.2 1.1-.6 2.2-1.3 3.4-1.8 1.1-.6 2.3-1.1 3.5-1.6-1.1.6-2.3 1.2-3.4 1.8-1.1.6-2.2 1.2-3.3 1.9l-6.7 3.9zM854.7 107.9c-.5-1.8-.9-3.7-1.4-5.5-.2-.9-.5-1.8-.9-2.7-.3-.9-.7-1.8-1.3-2.5.7.6 1.2 1.5 1.5 2.4.4.9.7 1.8.9 2.7.7 1.9 1.1 3.7 1.2 5.6zM835.2 92.5c1.8-1.5 3.7-2.8 5.7-4.1 1-.6 2-1.2 3.1-1.7s2.2-.9 3.4-.9c-.6 0-1.1.2-1.7.4-.5.2-1.1.5-1.6.7-1 .5-2 1.1-3 1.7-2 1.3-3.9 2.6-5.9 3.9zM857.8 96.4c-.3-.8-.6-1.7-1-2.5-.3-.8-.7-1.6-1.1-2.4-.4-.8-.8-1.6-1.3-2.3-.5-.7-1-1.4-1.6-2 .8.5 1.4 1.2 1.9 1.9s1 1.5 1.3 2.3c.8 1.6 1.4 3.2 1.8 5z"/></g><g><path class="st0" d="M993.8 193.9c-1.5 1.2-4.4 0-6.7-.8-9.6-3.5-19.1-7.7-27.5-13.7-8.3-6-15.5-14-19.2-23.5-5.9-15-3.1-31.9-6.3-47.7 6.9.6 13.8 1.7 20.5 3.4 6.8 1.7 13.6 4.1 18.9 8.7 8.1 7 11.4 18.1 14 28.5 3.5 13.9 6.6 28 7.2 42.3 0 1.5-.3 2.3-.9 2.8z"/><path class="st1" d="M935.4 109.8l7.4 9.4 7.3 9.5c4.8 6.4 9.6 12.7 14.4 19.2 4.7 6.5 9.3 13 13.6 19.7 2.2 3.3 4.1 6.9 5.9 10.4l5.5 10.6-5.7-10.5c-1.9-3.5-3.8-7-6-10.4-4.4-6.7-9-13.2-13.8-19.6-4.7-6.5-9.4-12.9-14.2-19.3l-14.4-19zM984.6 158.8c-.9-.3-1.7-.7-2.6-1.1l-2.6-1.1c-1.7-.7-3.4-1.4-5.2-2 .9.1 1.9.3 2.8.5.9.3 1.8.6 2.7 1 .9.4 1.7.8 2.5 1.2.8.4 1.6.9 2.4 1.5zM969.4 178.4c-.4-1.4-.8-2.8-1.1-4.3-.3-1.4-.5-2.9-.7-4.3-.2-1.5-.3-2.9-.3-4.4 0-1.5.1-2.9.4-4.4-.1 1.5-.1 2.9 0 4.3s.2 2.9.4 4.3c.1 1.4.4 2.9.6 4.3l.7 4.5zM955.6 170.1c-.1-2-.1-4 0-6 0-2 .2-4 .3-6 .2-2 .3-4 .6-5.9.3-2 .6-3.9 1-5.9-.4 4-.8 7.9-1 11.9-.2 2-.3 4-.4 5.9l-.5 6zM981.7 141.8c-2.8-1-5.5-2.1-8.3-3-1.4-.5-2.8-.9-4.2-1.2-1.4-.3-2.9-.6-4.3-.5 1.4-.3 3-.2 4.4.1 1.5.3 2.9.7 4.3 1.1 1.4.5 2.8 1 4.1 1.6 1.4.5 2.7 1.2 4 1.9zM945 153.5c-.2-1.8-.3-3.6-.4-5.4-.1-1.8 0-3.6 0-5.4.1-1.8.2-3.6.5-5.4.3-1.8.7-3.6 1.8-5.1-.5.8-.8 1.6-.9 2.5-.2.9-.3 1.8-.4 2.7-.2 1.8-.3 3.6-.4 5.4-.1 1.8-.1 3.6-.2 5.4v5.3zM969.5 127.9c-1.3-.3-2.7-.6-4-.9-1.3-.3-2.7-.6-4-.7-1.3-.2-2.7-.4-4.1-.4-1.4 0-2.7 0-4.1.3 1.3-.5 2.7-.7 4.1-.8 1.4-.1 2.8.1 4.1.3 1.4.2 2.7.5 4 .9 1.4.3 2.7.7 4 1.3z"/></g><g><path class="st0" d="M477.3 56.7c-1-.4-1.3-2.2-1.6-3.6-1.1-5.8-1.9-11.8-1.4-17.7s2.3-11.8 5.9-16.6c5.7-7.4 14.9-11 21.8-17.3 1.8 3.6 3.2 7.4 4.4 11.2 1.2 3.9 2 8 1.3 12-1.1 6.1-5.6 11-10 15.4-5.9 5.9-11.9 11.6-18.8 16.2-.7.5-1.2.6-1.6.4z"/><path class="st1" d="M501.6 2.7c-1.6 4.3-3.3 8.7-5 12.9-1.7 4.3-3.4 8.6-5.2 12.9-1.8 4.2-3.7 8.5-5.7 12.6-1 2.1-2.2 4.1-3.4 6l-3.6 5.9 3.5-6c1.2-2 2.4-4 3.4-6.1 2-4.2 3.8-8.4 5.6-12.7 1.8-4.3 3.6-8.5 5.3-12.8l5.1-12.7zM492 41.7c-.2-1.1-.3-2.2-.5-3.2-.1-1.1-.3-2.1-.5-3.2.5 1 .7 2.1.9 3.2 0 1 .1 2.1.1 3.2zM477.7 40c1.1-1.3 2.4-2.4 3.7-3.4l2.1-1.5c.7-.4 1.5-.8 2.3-1.1-.8.4-1.5.8-2.2 1.3-.7.5-1.4 1-2 1.5-1.3 1-2.6 2.1-3.9 3.2zM477.7 30.6c1.9-1.3 4-2.4 6-3.4 2.1-1 4.2-2 6.3-2.7-4.1 1.9-8.2 4.1-12.3 6.1zM499.5 35.2c-.3-1.7-.6-3.3-1-5l-.6-2.4c-.3-.8-.5-1.6-1-2.3.6.6 1 1.4 1.3 2.2.3.8.5 1.6.7 2.5.3 1.6.6 3.3.6 5zM482.8 20.4c1.7-1.3 3.5-2.4 5.3-3.4.9-.5 1.9-1 2.9-1.4 1-.4 2-.7 3.1-.6-1.1 0-2 .4-3 .8-.9.4-1.9.9-2.8 1.4-1.9 1.1-3.7 2.2-5.5 3.2zM502.8 25c-.5-1.5-1-3-1.6-4.5-.3-.7-.6-1.4-1-2.1-.4-.7-.8-1.3-1.4-1.9.7.5 1.2 1.1 1.6 1.8.4.7.8 1.4 1.1 2.1.6 1.5 1.1 3 1.3 4.6z"/></g></g><g><path class="st15" d="M229.1 787.5V67.7H98.9l1.5 744.8h128.7z"/><path class="st15" d="M203.4 544.5s38-98.7 72-104.4c34-5.6 70.5-24.6 76-39.1l-12.5-2.5c-15.5 11.6-32.8 23.2-52.9 22.3-26.1-1.2-50.9 10.1-68.1 29.7-31.5 36-30 35-45.5 57"/><g class="st16"><path class="st17" d="M138.1 779.8c3.4-33.2 4.1-61.2 4-82 0-6-.3-29.4-2.7-60-2.1-26.8-4.2-37.7-6.7-69.3-1.5-18.4-2.2-33.5-2.7-43.3M207.4 101.8c-1.1 17.7-2.2 41.8-2 70.7 0 7.8.2 16.7 1.3 50.7.6 19 1.5 43.7 2.7 72.7M196.1 397.1c-1.6-14.5-3.7-36.2-4.7-62.7-.7-19.2-.5-30.8-.7-64-.1-15.8-.2-38.2-.7-65.3M185.4 149.8c.7-8 1-17 .7-26.7-.4-12.2-1.7-23.1-3.3-32.7M139.4 149.1c.2 8.7.6 22.4 2 39.3 3 37.7 6.8 43.6 6.7 67.3 0 5.5-1.1 10.6-2.8 29.9-1.1 12.8-1.7 19.2-1.9 23.5-1.4 25.8 2.5 54.6 6 54.7 2.9.1 6-19.8 6.7-34 .6-13-.7-23.8-2-31.3M172.1 361.8c-5.2 19.4-4.8 34.3-3.3 44.7 1.2 8.2 3.3 15.5 4 28.7.6 10.6 0 19.4-.7 25.3M192.7 794.5c-3-26-5.3-52.9-6.7-80.7-.3-5.1-.5-10.3-.7-15.3M185.4 675.1c-1.8-10.5-2.5-19.8-2.7-27.3-.4-16.1 1.6-23.9 2-42.7.2-10.6-.1-19.9-.7-27.3M120.7 453.8c1.1-12.4 2.2-31.9.7-56-1.5-24.4-4.6-34.9-6-56.7-1-15.2-1.3-37.8 2.7-66"/></g></g><g><path class="st22" d="M661.1 706.3V-13.4H536.5l1.5 744.7h123.1z"/><g class="st16"><path class="st17" d="M576.6 696.3c3.4-33.2 4.1-61.2 4-82 0-6-.3-29.4-2.7-60-2.1-26.8-4.2-37.7-6.7-69.3-1.5-18.4-2.2-33.5-2.7-43.3M645.9 18.3c-1.1 17.7-2.2 41.8-2 70.7 0 7.8.2 16.7 1.3 50.7.6 19 1.5 43.7 2.7 72.7M634.6 313.6c-1.6-14.5-3.7-36.2-4.7-62.7-.7-19.2-.5-30.8-.7-64-.1-15.8-.2-38.2-.7-65.3M623.9 66.3c.7-8 1-17 .7-26.7-.4-12.2-1.7-23.1-3.3-32.7M577.9 65.6c.2 8.7.6 22.4 2 39.3 3 37.7 6.8 43.6 6.7 67.3 0 5.5-1.1 10.6-2.8 29.9-1.1 12.8-1.7 19.2-1.9 23.5-1.4 25.8 2.5 54.6 6 54.7 2.9.1 6-19.8 6.7-34 .6-13-.7-23.8-2-31.3M610.6 278.3c-5.2 19.4-4.8 34.3-3.3 44.7 1.2 8.2 3.3 15.5 4 28.7.6 10.6 0 19.4-.7 25.3M631.2 711c-3-26-5.3-52.9-6.7-80.7-.3-5.1-.5-10.3-.7-15.3M623.9 591.6c-1.8-10.5-2.5-19.8-2.7-27.3-.4-16.1 1.6-23.9 2-42.7.2-10.6-.1-19.9-.7-27.3M559.2 370.3c1.1-12.4 2.2-31.9.7-56-1.5-24.4-4.6-34.9-6-56.7-1-15.2-1.3-37.8 2.7-66"/></g><path class="st22" d="M653.4 245.1s49.1-68.7 57.1-72.2c7.9-3.5 26.5-7.9 26.5-7.9l-6.5-16s-35.9 7.6-43 16c-7.1 8.4-38.9 33.7-38.9 33.7l4.8 46.4zM553.2 414.3s-27.9-44.2-41.9-44c-14 .2-45-17.8-45-17.8l4-11.3 22 7.3s46.5 10 68.2 38-7.3 27.8-7.3 27.8z"/></g></g></g></g><g><path class="st0" d="M675 731.2c-.5-.4-1-.9-1.4-1.3-4.6-4.7-6.8-11.4-6.9-18-.3-13.5 6.1-26.8 13.1-38 .2-.4.5-.8.9-.9.8-.3 1.6.5 2.1 1.2 3.3 4.9 4.3 11.7 9.1 15.1-.1-3.8-1.5-7.4-2.4-11.1-.9-3.7-1.1-7.9 1-11.1 1.3-2 3.3-3.4 5.3-4.7 5.7-3.7 11.8-7.6 14.6-13.7.5-1.1 1.2-3.6 2.5-4.1 2.2-.9 2.5 4.8 3.1 6.5.3 1 3.3 6.9 2.9 7.6 3.1-5.7-.4-13.1 2-19.1 1.8-4.6 6.6-7.2 10.6-10.1 6.7-4.9 12.1-11.5 15.6-19.1 3.7 3.6 4.1 9.4 3.9 14.5-.2 8.2-1.1 16.5-2.6 24.6-.8 4.4-2 9.1-5.4 12-.7.6-1.5 1.1-2 2-.5.8-.5 2 .3 2.5.5.3 1.2.3 1.8.1 3.4-.9 5.7-4.1 7.6-7.1 3.7 11 1.9 23.6-4.8 33.1-.6.8-1.2 1.7-2.1 2.2-.9.6-2 .9-3 1.1-5.4 1.3-10.7 2.5-16.1 3.8 4.8-.2 9.7-.4 14.5-.6.6 0 1.2 0 1.8.2 1.6.7 1.5 3 1 4.7-3.2 10.7-10.2 20.2-19.5 26.3s-20.8 8.8-31.9 7.4c-5.7-.6-11.3-2.4-15.6-6z"/><path class="st19" d="M682.9 733.3c2.8-3.8 5.5-7.5 8.2-11.3 2.7-3.8 5.5-7.6 8.1-11.4 5.4-7.6 10.7-15.3 15.8-23.1 5.1-7.8 10.1-15.7 14.7-23.8 2.3-4 4.5-8.2 6.4-12.4 2-4.2 3.7-8.5 4.8-13.1-.8 4.6-2.5 9-4.3 13.3-1.9 4.3-4 8.5-6.2 12.6-4.5 8.2-9.4 16.1-14.5 23.9-5.2 7.8-10.5 15.4-16 23s-11.1 15.1-17 22.3z"/></g><g><path class="st0" d="M135.5 745.2c.5-.4 1-.9 1.4-1.3 4.6-4.7 6.8-11.4 6.9-18 .3-13.5-6.1-26.8-13.1-38-.2-.4-.5-.8-.9-.9-.8-.3-1.6.5-2.1 1.2-3.3 4.9-4.3 11.7-9.1 15.1.1-3.8 1.5-7.4 2.4-11.1s1.1-7.9-1-11.1c-1.3-2-3.3-3.4-5.3-4.7-5.7-3.7-11.8-7.6-14.6-13.7-.5-1.1-1.2-3.6-2.5-4.1-2.2-.9-2.5 4.8-3.1 6.5-.3 1-3.3 6.9-2.9 7.6-3.1-5.7.4-13.1-2-19.1-1.8-4.6-6.6-7.2-10.6-10.1a49.21 49.21 0 0 1-15.6-19.1c-3.7 3.6-4.1 9.4-3.9 14.5.2 8.2 1.1 16.5 2.6 24.6.8 4.4 2 9.1 5.4 12 .7.6 1.5 1.1 2 2 .5.8.5 2-.3 2.5-.5.3-1.2.3-1.8.1-3.4-.9-5.7-4.1-7.6-7.1-3.7 11-1.9 23.6 4.8 33.1.6.8 1.2 1.7 2.1 2.2.9.6 2 .9 3 1.1 5.4 1.3 10.7 2.5 16.1 3.8-4.8-.2-9.7-.4-14.5-.6-.6 0-1.2 0-1.8.2-1.6.7-1.5 3-1 4.7 3.2 10.7 10.2 20.2 19.5 26.3s20.8 8.8 31.9 7.4c5.7-.6 11.3-2.4 15.6-6z"/><path class="st19" d="M127.6 747.3c-5.9-7.3-11.5-14.7-17-22.2s-10.8-15.2-16-23c-5.1-7.8-10-15.7-14.5-23.9-2.2-4.1-4.3-8.3-6.2-12.6-1.8-4.3-3.5-8.7-4.3-13.3 1 4.6 2.8 8.9 4.8 13.1 2 4.2 4.1 8.3 6.4 12.4 4.6 8.1 9.5 16 14.7 23.8a19245675290489490 19245675290489490 0 0 1 32.1 45.7z"/></g><g><path class="st0" d="M529.8 564.3c-18.3 14.8 8.2 37.5 8.6 49.6s-32-8.7-30.7 6.3c1.3 15 36.9 31.9 36.7 34.9-.4 9.3-30.7 6.3-23.4 19.4 7.3 13.1 57.6 7 48.2 19.1s-26.4-1.2-26 11c.4 12.2 29.9 33.9 54.6 29.4 24.7-4.5 56.3-29.4 57.1-48.1.8-18.7-.1-43-10.3-33.7-10.2 9.3-24.3 16.6-23.9 7.3.4-8.4 16.1-54.1-.9-45.8S607 636 599.3 632.2c-7.7-3.8 5.9-44.8-1.8-48.6-7.7-3.8-11.1 6.4-24.3 16.6-13.1 10.2-25.1-50.7-43.4-35.9z"/><path class="st1" d="M618.5 717.2c-10.8-15.5-21.2-31.3-31.2-47.3-7.9-12.7-15.7-25.5-22.7-38.7-2.9-5.5-5.7-11.1-8.2-16.9-3.1-7.3-5.4-14.9-8.6-22.2-2.2-5.1-4.7-10.7-8.6-14.7-.7-.7-1.9-2.1-3-2-.8.1-1.4 1.2-2.2 1.2.9-.1 1.9.9 2.4 1.4 3 2.7 5 6.6 6.8 10.2 3.9 7.7 6.5 15.8 9.6 23.8 2.1 5.4 4.6 10.7 7.3 15.8 12.9 25.3 28.6 49.4 44.3 73 3.9 5.9 7.9 11.8 11.9 17.6.1.2 2.2-1.2 2.2-1.2z"/></g><g><path class="st0" d="M629.4 663.1c1.3-.7 3.4.6 5.1 1.5 7 3.9 13.8 8.3 19.5 14 5.7 5.7 10.2 12.7 11.9 20.6 2.7 12.3-1.6 25-1.1 37.6-5.3-1.3-10.4-3.1-15.4-5.2-5-2.2-10-4.9-13.5-9.1-5.4-6.5-6.5-15.4-7.2-23.7-1-11.2-1.6-22.4-.2-33.5 0-1.3.4-1.9.9-2.2z"/><path class="st1" d="M663.9 735.3l-4.6-8.2-4.4-8.3c-2.9-5.5-5.8-11-8.7-16.6-2.8-5.6-5.6-11.2-8-16.9-1.3-2.9-2.3-5.8-3.3-8.8l-2.9-8.9 3.1 8.8c1 3 2 5.9 3.3 8.7 2.5 5.7 5.3 11.3 8.2 16.9 2.8 5.6 5.7 11.1 8.6 16.7l8.7 16.6zM632.1 691.4c1.3.7 2.5 1.6 3.7 2.3.6.4 1.2.8 1.9 1.2.6.4 1.3.7 1.9 1.1-.7-.2-1.4-.4-2.1-.8-.7-.3-1.3-.7-1.9-1.1-1.2-.8-2.4-1.7-3.5-2.7zM646.3 678.1c.3 2.3.3 4.6.3 6.8-.1 1.1-.1 2.3-.3 3.4-.2 1.1-.4 2.3-.9 3.3.3-1.1.4-2.2.5-3.4.1-1.1.2-2.3.2-3.4.2-2.1.2-4.4.2-6.7zM655.9 686.3c-.4 3.1-1 6.1-1.7 9.2-.4 1.5-.7 3-1.2 4.5s-.9 3-1.5 4.4c.8-3 1.6-6 2.3-9l2.1-9.1zM632.2 704.8c2 1.1 4 2.3 6 3.3 1 .5 2 1 3.1 1.5 1 .4 2.1.8 3.3.9-1.2.1-2.3-.2-3.4-.6-1.1-.4-2.1-.9-3.2-1.4-1-.6-2-1.1-3-1.7-1-.6-1.9-1.3-2.8-2zM662 700.4c-.1 2.8-.6 5.6-1.1 8.4-.3 1.4-.6 2.8-1.1 4.1-.5 1.3-1 2.7-2.1 3.7.5-.5.8-1.2 1-1.8.3-.6.5-1.3.7-2 .4-1.3.7-2.7 1-4.1.7-2.7 1.1-5.5 1.6-8.3zM639.9 717.1l3 1.2c1 .4 2 .8 3 1.1 1 .3 2 .6 3.1.8 1 .2 2.1.3 3.2.2-1.1.3-2.2.2-3.2.1-1.1-.1-2.1-.4-3.2-.7-2.1-.7-4.1-1.6-5.9-2.7z"/></g><g><path class="st0" d="M875.3 709.6c.5-.4 1-.9 1.4-1.3 4.6-4.7 6.8-11.4 6.9-18 .3-13.5-6.1-26.8-13.1-38-.2-.4-.5-.8-.9-.9-.8-.3-1.6.5-2.1 1.2-3.3 4.9-4.3 11.7-9.1 15.1.1-3.8 1.5-7.4 2.4-11.1.9-3.7 1.1-7.9-1-11.1-1.3-2-3.3-3.4-5.3-4.7-5.7-3.7-11.8-7.6-14.6-13.7-.5-1.1-1.2-3.6-2.5-4.1-2.2-.9-2.5 4.8-3.1 6.5-.3 1-3.3 6.9-2.9 7.6-3.1-5.7.4-13.1-2-19.1-1.8-4.6-6.6-7.2-10.6-10.1a49.21 49.21 0 0 1-15.6-19.1c-3.7 3.6-4.1 9.4-3.9 14.5.2 8.2 1.1 16.5 2.6 24.6.8 4.4 2 9.1 5.4 12 .7.6 1.5 1.1 2 2 .5.8.5 2-.3 2.5-.5.3-1.2.3-1.8.1-3.4-.9-5.7-4.1-7.6-7.1-3.7 11-1.9 23.6 4.8 33.1.6.8 1.2 1.7 2.1 2.2.9.6 2 .9 3 1.1 5.4 1.3 10.7 2.5 16.1 3.8-4.8-.2-9.7-.4-14.5-.6-.6 0-1.2 0-1.8.2-1.6.7-1.5 3-1 4.7 3.2 10.7 10.2 20.2 19.5 26.3 9.3 6.1 20.8 8.8 31.9 7.4 5.6-.6 11.2-2.5 15.6-6z"/><path class="st19" d="M867.3 711.6c-5.9-7.3-11.5-14.7-17-22.2s-10.8-15.2-16-23c-5.1-7.8-10-15.7-14.5-23.9-2.2-4.1-4.3-8.3-6.2-12.6-1.8-4.3-3.5-8.7-4.3-13.3 1 4.6 2.8 8.9 4.8 13.1 2 4.2 4.1 8.3 6.4 12.4 4.6 8.1 9.5 16 14.7 23.8a19245675290489490 19245675290489490 0 0 1 23.9 34.5c2.7 3.7 5.5 7.5 8.2 11.2z"/></g><g><defs><path id="SVGID_4_" d="M405.6 790.6s9.9 2.5 12.4 5-27.3 2.5-27.3 2.5 2.5-65 5-75-7.4-57.5-9.9-60-2.5 5-2.5 5 0 45-5 62.5-9.9 42.5-9.9 45v12.5s9.9 2.5 9.9 5-24.8 2.5-24.8 2.5 5-92.5 5-95 0-25-2.5-35-2.5-32.5-2.5-32.5v-5h67s0 57.5-2.5 75-7.4 52.5-7.4 52.5l-5 35z"/></defs><clipPath id="SVGID_5_"><use xlink:href="#SVGID_4_" overflow="visible"/></clipPath><g class="st23"><defs><path id="SVGID_6_" d="M-785.5-1170.9h1440v4951h-1440z"/></defs><clipPath id="SVGID_7_"><use xlink:href="#SVGID_6_" overflow="visible"/></clipPath><path class="st24" d="M348.5 623.1h77v180h-77z"/></g><defs><path id="SVGID_8_" d="M505.1 527.1c0-1.2 2.2-2.9 2.5 0 .3 2.5-2.5 2.5 0 5s2.5 10 0 10-25.1 14.9-25.1 14.9-25.1 17.4-30.1 14.9c-5-2.5-30.1-19.9-35.1-19.9s-40.1-14.9-40.1-22.4v-21.7c0-.4.1-.8.2-1.2.5-1.8 1.9-7.7-.2-11.9-2.5-5-3.8-21.1 6.3-23.6 10-2.5 17.5 0 20.1 5 2.5 5 2.5 12.4 2.5 17.4 0 3.1-1 8.1-1.7 11.4-.5 2-2.3 3.5-4.4 3.5h-.4c-2.9 0-5.1 2.7-4.4 5.5.2.6.4 1.3.8 2 2.5 5 45.1 29.9 50.1 32.4 2.6 1.3 4.5 2.6 5.8 3.5 1.2.9 2.7 1.1 4.1.7l36.7-11.4c.7-.2 1.3-.6 1.8-1.1 2.8-2.9 10.6-11.8 10.6-13"/></defs><clipPath id="SVGID_9_"><use xlink:href="#SVGID_8_" overflow="visible"/></clipPath><g class="st25"><defs><path id="SVGID_10_" d="M-785.5-1170.9h1440v4951h-1440z"/></defs><clipPath id="SVGID_11_"><use xlink:href="#SVGID_10_" overflow="visible"/></clipPath><path class="st26" d="M370.5 465.1h144v112h-144z"/></g><g><defs><path id="SVGID_12_" d="M447.5 545.9c.1.7-.5 1.9-.8 2.6-.7 2.2-1.5 4.4-2.2 6.7-.5 1.4-5.1 12.7-4.4 13.3-3.8-3.4-8.2-6.2-12.9-8.2-1.1-.5-2.5-.9-3.6-.3-1.4.7-1.7 2.6-1.8 4.1-1.3 20.8-1.8 41.6-1.6 62.4 0 1.5 0 3-.6 4.3-.5 1-1.4 1.8-2.2 2.6-8.7 7.5-19.8 12.3-31.3 12.8s-23.2-3.4-31.6-11.3c-.8-.7-1.6-1.5-2-2.5-.5-1-.6-2.2-.7-3.3-1.3-17.6 4.8-35 4.4-52.6-.4-15.6-6.1-31.2-3.3-46.6.4-2.3 1.1-4.8 2.7-6.5 1.2-1.3 2.9-2.1 4.6-2.8 5.6-2.4 11.6-3.9 17.6-4.6-.9.1 1.1 3.4 1.4 3.7 1.2.9 3.3 1.3 4.8 1.5 4.1.7 9.8.2 12.6-3.3.6-.8 1.1-1.7 2-2.2.7-.4 1.7-.5 2.5-.5 9.6.1 18.6 4.7 26.1 10.7 6.6 5.3 12.3 11.7 18.3 17.7.5.5 1.9 1.5 2.1 2.2-.1 0-.1 0-.1.1"/></defs><clipPath id="SVGID_13_"><use xlink:href="#SVGID_12_" overflow="visible"/></clipPath><g class="st27"><defs><path id="SVGID_14_" d="M-785.5-1170.9h1440v4951h-1440z"/></defs><clipPath id="SVGID_15_"><use xlink:href="#SVGID_14_" overflow="visible"/></clipPath><path class="st28" d="M346.5 510.1h106v141h-106z"/></g></g><g><defs><path id="SVGID_16_" d="M365.9 459.1h39.8v50.5h-39.8z"/></defs><clipPath id="SVGID_17_"><use xlink:href="#SVGID_16_" overflow="visible"/></clipPath><g class="st29"><defs><path id="SVGID_18_" d="M-785.5-1170.9h1440v4951h-1440z"/></defs><clipPath id="SVGID_19_"><use xlink:href="#SVGID_18_" overflow="visible"/></clipPath><g class="st30"><defs><path id="SVGID_20_" d="M363.5 455.1h45v60h-45z"/></defs><clipPath id="SVGID_21_"><use xlink:href="#SVGID_20_" overflow="visible"/></clipPath><g class="st31"><defs><path id="SVGID_22_" d="M402.5 497.6s-5.5 0-5.5-5.5 2.7-8.3 5.5-5.5c2.7 2.8 2.7 0 2.7 0s-5.5-8.3-2.7-11.1c2.7-2.8 5.5-5.5 0-11.1-5.5-5.5-13.7-8.3-24.7 0s-13.7 13.9-11 22.2c2.7 8.3 11 19.4 11 19.4s8.2 8.3 16.5 0l8.2-8.4z"/></defs><clipPath id="SVGID_23_"><use xlink:href="#SVGID_22_" overflow="visible"/></clipPath><g class="st32"><defs><path id="SVGID_24_" d="M365.5 459.1h41v51h-41z"/></defs><clipPath id="SVGID_25_"><use xlink:href="#SVGID_24_" overflow="visible"/></clipPath><path class="st33" d="M360.9 454.1h49.8v60.5h-49.8z"/></g></g></g></g></g><path class="st34" d="M419.8 544.2h-68.2c-5.5 0-9.9-4.4-9.9-9.9v-9.2c0-5.5 4.4-9.9 9.9-9.9h68.2c5.5 0 9.9 4.4 9.9 9.9v9.2c.1 5.5-4.4 9.9-9.9 9.9z"/><path class="st35" d="M414.6 623.5h-55.2c-9.1 0-16.4-7.3-16.4-16.4v-46.6c0-9.1 7.3-16.4 16.4-16.4h55.2c9.1 0 16.4 7.3 16.4 16.4v46.6c0 9.1-7.4 16.4-16.4 16.4z"/></g></svg>