<svg id="Layer_1" xmlns="http://www.w3.org/2000/svg" xmlns:xlink="http://www.w3.org/1999/xlink" viewBox="0 0 379 397" enable-background="new 0 0 379 397"><style>.st0{clip-path:url(#SVGID_2_)}.st1{fill:url(#SVGID_5_)}.st1,.st2{clip-path:url(#SVGID_4_)}.st3{fill:#16112d}.st4{fill:none;stroke:#16112d;stroke-width:.9904;stroke-miterlimit:10}.st5{fill:#1b1145}.st6{fill:#100f19}.st7{fill:#f04f45}.st8{fill:#9ed5e6}.st9{fill:#36bfbf}.st10{fill:#f16465}.st11{fill:#fce18c}.st12{fill:#46c1c4}.st13{fill:#f16464}.st14{fill:none;stroke:#16112d;stroke-width:.9904;stroke-linecap:round;stroke-miterlimit:10}.st15{clip-path:url(#SVGID_4_);fill-rule:evenodd;clip-rule:evenodd;fill:#fff}.st16{fill:#fff;stroke:#1c3260;stroke-width:4.3814;stroke-miterlimit:10}.st17{fill:#4dc3c6}.st18{opacity:.75;fill:#446db5;enable-background:new}.st19{fill:#1b1145}.st19,.st20{clip-path:url(#SVGID_4_)}.st20,.st21{fill:#0e1e39}.st22{fill:#6bc8c6}.st23{fill:#fde38d}.st24{fill:#faa966}.st25,.st26{clip-path:url(#SVGID_4_);fill:#6bc8c6}.st26{fill:none;stroke:#f16465;stroke-width:.4809;stroke-miterlimit:10}.st27{fill:#1a1a1a}.st28{filter:url(#Adobe_OpacityMaskFilter)}.st29,.st30{clip-path:url(#SVGID_4_);fill-rule:evenodd;clip-rule:evenodd;fill:url(#SVGID_7_)}.st30{mask:url(#SVGID_6_);fill:#fff}.st31{clip-path:url(#SVGID_9_)}.st32{clip-path:url(#SVGID_11_);fill:#f16465}.st33{clip-path:url(#SVGID_13_)}.st34{clip-path:url(#SVGID_15_);fill:#f7a2a4}.st35{clip-path:url(#SVGID_17_)}.st36{clip-path:url(#SVGID_19_);fill:#08172e}.st37{clip-path:url(#SVGID_21_)}.st38{clip-path:url(#SVGID_23_);enable-background:new}.st39{clip-path:url(#SVGID_25_)}.st40{clip-path:url(#SVGID_27_)}.st41{clip-path:url(#SVGID_29_);fill:#3c3292}</style><defs><path id="SVGID_1_" d="M.1.6H379v396.3H.1z"/></defs><clipPath id="SVGID_2_"><use xlink:href="#SVGID_1_" overflow="visible"/></clipPath><g class="st0"><defs><path id="SVGID_3_" d="M396.9 4.6c9.5 10 16.3 21.8 17.1 35.4 1.1 18.9-9.6 39.2-.7 55.9 9.5 17.9 32.9 21.1 41.2 40.3 4.8 11.1 8.3 20.1 7.2 32.6-1.1 11.9-5.3 23.3-11.1 33.7-2.7 4.8-5.7 9.4-9.2 13.7-18.3 23.1-43.2 40.6-59 65.4-7.3 11.5-13 24.7-24.2 32.5-12.2 8.4-28.4 8.2-42.7 4.6-14.3-3.6-27.7-10.1-42-13.7-27.9-7-58.6-2-82.8 13.5-22.1 14.1-38 35.9-57.7 53.1-19.7 17.3-46.7 30.6-71.6 22.5-21.8-7.1-35.6-28.4-45.7-49-27.6-56.9-40.7-120-45.5-183-4.2-57-.8-118.2 32.9-164.3 25.7-35.2 66.8-57.3 109.5-66s87.1-5 129.8 3.8c44.5 9.2 88.2 24.1 127.2 47.7 9.6 5.9 19.4 13 27.3 21.3z"/></defs><clipPath id="SVGID_4_"><use xlink:href="#SVGID_3_" overflow="visible"/></clipPath><linearGradient id="SVGID_5_" gradientUnits="userSpaceOnUse" x1="-31.181" y1="160.695" x2="462" y2="160.695"><stop offset="0" stop-color="#72ccd6"/><stop offset=".027" stop-color="#70c4d3"/><stop offset=".689" stop-color="#344da1"/></linearGradient><path class="st1" d="M396.9 3.6c9.5 10 16.3 21.8 17.1 35.4 1.1 18.9-9.6 39.2-.7 55.9 9.5 17.9 32.9 21.1 41.2 40.3 4.8 11.1 8.3 20.1 7.2 32.6-1.1 11.9-5.3 23.3-11.1 33.7-2.7 4.8-5.7 9.4-9.2 13.7-18.3 23.1-43.2 40.6-59 65.4-7.3 11.5-13 24.7-24.2 32.5-12.2 8.4-28.4 8.2-42.7 4.6-14.3-3.6-27.7-10.1-42-13.7-27.9-7-58.6-2-82.8 13.5-22.1 14.1-38 35.9-57.7 53.1-19.7 17.3-46.7 30.6-71.6 22.5-21.8-7.1-35.6-28.4-45.7-49-27.6-56.9-40.7-120-45.5-183-4.2-57-.8-118.2 32.9-164.3 25.7-35.2 66.8-57.3 109.5-66s87.1-5 129.8 3.8c44.5 9.2 88.2 24.1 127.2 47.7 9.6 5.9 19.4 13 27.3 21.3z"/><g class="st2"><path transform="rotate(-90 126.078 182.908)" class="st3" d="M117 17.8h18.2v330.3H117z"/><path class="st3" d="M215.3 114.2h5.9V192h-5.9zM261.2 114.2h5.9V192h-5.9z"/><path class="st3" d="M215.3 114.2v5.8h50.8v-5.8h-44.9z"/><path class="st3" d="M242.3 135.4c-1.6 0-2.9-1.3-2.9-2.9v-72c0-1.6 1.3-2.9 2.9-2.9 1.6 0 2.9 1.3 2.9 2.9v71.9c0 1.7-1.3 3-2.9 3zM313.4 57.6h5.9v41.1h-5.9z"/><path transform="rotate(-90 280.13 60.53)" class="st3" d="M277.2 21.6h5.9v77.8h-5.9z"/><path class="st3" d="M306.1 91.2h20.5v8.1h-20.5z"/><path class="st4" d="M240 90.5l-18.9 25.2M240 98.1l-13.4 17.6M240.2 105.5l-7.3 10.2M242.4 89.8l19 25.2M242.4 97.4l13.4 17.6M242.3 104.8l7.2 10.2"/><g><path class="st3" d="M155.7 114.2h5.9V192h-5.9zM201.6 114.2h5.9V192h-5.9z"/><path class="st3" d="M155.7 114.2v5.9h50.9v-5.9h-45z"/></g><g><path class="st5" d="M192 163.9h219v63.9l-166.5-2s-3.2-16-52.5-61.9z"/><path class="st6" d="M192 164h219v2.2l-217-.4c-.1 0-1.3-1.2-2-1.8z"/><path class="st7" d="M411 221H242.4l-.8-1.5H411z"/><path class="st8" d="M357.3 147.7H411v16.2h-53.7z"/><path class="st9" d="M303.6 147.7h53.7v16.2h-53.7z"/><path class="st10" d="M249.9 147.7h53.7v16.2h-53.7z"/><path class="st11" d="M328.4 99.1h53.7v21.2h-53.7z"/><path class="st12" d="M249.9 131.6h53.7v16.2h-53.7z"/><path class="st8" d="M303.6 131.5h53.7v16.2h-53.7z"/><path class="st11" d="M357.3 131.5H411v16.2h-53.7z"/><path class="st13" d="M303.6 115.5h53.7v16.2h-53.7z"/><path class="st12" d="M357.3 115.5H411v16.2h-53.7z"/><path class="st8" d="M84.4 157.4h53.7v16.2H84.4z"/><path class="st9" d="M30.8 157.4h53.7v16.2H30.8z"/><path class="st10" d="M-22.9 157.4h53.7v16.2h-53.7z"/><path class="st11" d="M57.5 110.8h53.7V127H57.5z"/><path class="st12" d="M-22.9 141.3h53.7v16.2h-53.7z"/><path class="st8" d="M30.8 141.2h53.7v16.2H30.8z"/><path class="st11" d="M84.4 141.2h53.7v16.2H84.4z"/><path class="st13" d="M30.8 126.2h53.7v16.2H30.8z"/><path class="st12" d="M84.4 126.2h53.7v16.2H84.4z"/></g><g><path class="st3" d="M178.8 63.5h5.9v77.8h-5.9z"/><path class="st3" d="M171.7 135.1h20.5v8.1h-20.5z"/><path class="st4" d="M180.4 90.5l-18.9 25.2M180.4 98.1l-13.3 17.6M180.6 105.5l-7.3 10.2"/><g><path class="st4" d="M182.8 89.8l19 25.2M182.8 97.4l13.4 17.6M182.7 104.8l7.2 10.2"/></g></g><g><path class="st14" d="M180.6 142.3l-6 4.4 3 7.2M183.2 142.3l6 4.4-3 7.2"/></g><g><path class="st14" d="M315 99l-6 4.4 3 7.2M317.7 99l5.9 4.4-2.9 7.2"/></g></g><g class="st2"><path class="st16" d="M170.4 264.4H64.9c-6.6 0-11.9-5.3-11.9-11.9v-52.8c0-6.6 5.3-11.9 11.9-11.9h105.5c6.6 0 11.9 5.3 11.9 11.9v52.8c0 6.5-5.3 11.9-11.9 11.9z"/><path class="st17" d="M63.2 201.4h45v4.7h-45z"/><path class="st18" d="M109.9 239.7h45v4.7h-45zM113.1 201.4h14.4v4.7h-14.4z"/><path class="st17" d="M132.4 201.4h23.7v4.7h-23.7zM140.4 211.4h8.9v4.7h-8.9zM94.8 239.9h8.9v4.7h-8.9z"/><path class="st18" d="M63.2 211.2h8.9v4.7h-8.9z"/><path class="st17" d="M94.4 230.7h23.2v4.7H94.4zM79.8 221h23.7v4.7H79.8zM111.2 211.2h23.7v4.7h-23.7z"/><path class="st18" d="M77.7 211.4h28v4.7h-28zM122.6 230.7h28v4.7h-28z"/></g><path class="st19" d="M-13.2 342.7l-20-53.7h430.6L374 342.7z"/><path class="st20" d="M-11.3 257.3h380.9l27.8 31.7H-33.2z"/><g class="st2"><path class="st21" d="M41.9 287.9H-8l21.3-28.2 42.5-.1z"/><path class="st10" d="M45.1 272.6H8.9l2.2-3 35.6-.1z"/><path class="st22" d="M39 284.4H.3l2.3-3.1h38z"/><path class="st23" d="M36.7 263.2h-21l-2.2 3.1h21.3z"/><path class="st22" d="M43.4 263.2l-1.7 3.1 6.7-.1 1.6-3z"/><g><path class="st24" d="M14.3 275.4H6.9l-2.3 3.1h7.6z"/><path class="st23" d="M20.8 275.4l-1.9 3.1h23.2l1.6-3.1z"/></g></g><path class="st2 st21" d="M97 287.9H47.1l13.1-28.3 42.4-.1zM282 288.3h-49.9l3.9-28.4 42.5-.1z"/><path class="st2 st21" d="M378.2 287.9h-95l-4.8-28.6 80.8-.2z"/><g class="st2"><path class="st24" d="M69.3 264.8c-.3.9-1.7 1.5-3 1.6-1.3 0-2.1-.7-1.8-1.5.4-.9 1.7-1.5 3-1.6s2.2.7 1.8 1.5zM77.8 264.8c-.3.9-1.6 1.6-2.9 1.6s-2.2-.7-1.8-1.5 1.6-1.5 2.9-1.6 2.1.7 1.8 1.5z"/><path class="st22" d="M86.3 264.8c-.2.9-1.5 1.6-2.9 1.6s-2.2-.7-1.9-1.5c.3-.9 1.6-1.6 2.9-1.6s2.1.7 1.9 1.5z"/><path class="st10" d="M94.8 264.8c-.2.9-1.5 1.6-2.8 1.6-1.3 0-2.2-.7-2-1.5.2-.9 1.5-1.6 2.8-1.6s2.2.6 2 1.5z"/><g><path class="st24" d="M67 270.8c-.3.9-1.7 1.5-3.1 1.6s-2.2-.7-1.8-1.5c.4-.9 1.8-1.5 3.1-1.6 1.3-.1 2.1.6 1.8 1.5z"/><path class="st23" d="M75.8 270.8c-.3.9-1.6 1.5-3 1.6-1.4 0-2.2-.7-1.9-1.5s1.7-1.5 3-1.6c1.3-.1 2.2.6 1.9 1.5z"/><path class="st24" d="M84.6 270.8c-.2.9-1.6 1.6-3 1.6s-2.3-.7-2-1.5c.3-.9 1.6-1.6 3-1.6 1.3-.1 2.2.6 2 1.5zM93.3 270.7c-.2.9-1.5 1.6-2.9 1.6s-2.3-.7-2.1-1.5c.2-.9 1.5-1.6 2.9-1.6s2.3.7 2.1 1.5z"/></g><g><path class="st24" d="M64.7 276.7c-.3.9-1.8 1.5-3.2 1.5-1.4 0-2.3-.7-1.9-1.5s1.8-1.5 3.2-1.5c1.3 0 2.2.7 1.9 1.5z"/><path class="st22" d="M73.7 276.7c-.3.9-1.7 1.5-3.1 1.6-1.4 0-2.3-.7-2-1.5s1.7-1.5 3.1-1.6c1.4 0 2.3.7 2 1.5z"/><path class="st24" d="M82.8 276.7c-.2.9-1.6 1.6-3 1.6s-2.4-.7-2.1-1.5c.3-.9 1.6-1.5 3-1.6s2.4.6 2.1 1.5zM91.9 276.7c-.2.9-1.5 1.6-3 1.6-1.4 0-2.4-.7-2.2-1.5.2-.9 1.6-1.6 3-1.6 1.4-.1 2.4.6 2.2 1.5z"/></g><g><path class="st24" d="M62.3 282.7c-.3.9-1.8 1.5-3.3 1.5s-2.4-.7-2-1.5c.4-.9 1.8-1.5 3.3-1.5s2.4.6 2 1.5zM71.7 282.6c-.3.9-1.7 1.5-3.2 1.5s-2.4-.7-2.1-1.5c.3-.9 1.8-1.5 3.2-1.5s2.4.7 2.1 1.5zM81.1 282.6c-.2.9-1.6 1.5-3.1 1.6-1.5 0-2.5-.7-2.2-1.5.3-.9 1.7-1.5 3.1-1.6s2.4.7 2.2 1.5zM90.5 282.6c-.2.9-1.6 1.6-3 1.6s-2.5-.7-2.3-1.5c.2-.9 1.6-1.6 3-1.6s2.5.7 2.3 1.5z"/></g></g><path class="st25" d="M257.7 273.8l-4 10c-7.8-1.1-13-5.2-12.6-10 .6-5.6 8.1-10.2 16.6-10.3 8.6 0 16 4.6 16.5 10.2l-16.5.1z"/><path class="st26" d="M293.6 282.3c.7-2.9 1.5-6.4 4.5-8.5 3.1-2.4 7.6-.1 10.3 2.1 2 1.7 2.8 3.4 4.3 5.2.4.4.8.8 1.4 1.1 3 1.4 5.4-.4 6.1-1.7.7-1.4.7-2.9.7-4.4 0-2-2.2-8.6 2.5-8.4 3 .2 6.9 4.9 8 6.2 1.6 1.8 5.6 8.1 9.1 8.1 1.9 0 2.5-.8 2.4-1.8-.5-3.8-3.4-7.8-3.5-11.6-.1-2.1 2.2-4 6.3-2.2 8.7 3.9 17.2 16 17.2 16"/><g class="st2"><path class="st21" d="M240.6 288.7l-58.5-31.4-58.6 31.4 58.6 31.3z"/><path class="st27" d="M138.2 288.7l43.9-23.5 43.9 23.5-43.9 23.5z"/><path class="st21" d="M240.6 288.7v54.9l-58.5 31.3V320z"/><path class="st5" d="M123.5 288.7v54.9l58.6 31.3V320z"/></g><defs><filter id="Adobe_OpacityMaskFilter" filterUnits="userSpaceOnUse" x="87.8" y="156.1" width="188" height="156.6"><feColorMatrix values="1 0 0 0 0 0 1 0 0 0 0 0 1 0 0 0 0 0 1 0"/></filter></defs><mask maskUnits="userSpaceOnUse" x="87.8" y="156.1" width="188" height="156.6" id="SVGID_6_"><g class="st28"><linearGradient id="SVGID_7_" gradientUnits="userSpaceOnUse" x1="182.613" y1="156.193" x2="182.613" y2="312.19"><stop offset=".26" stop-color="#010101"/><stop offset="1" stop-color="#fff" stop-opacity=".2"/></linearGradient><path class="st29" d="M69.4 156.2h226.4v156H69.4z"/></g></mask><path class="st30" d="M138.5 289.1l43.9 23.5 43.9-23.5 49.6-133H87.8z"/><g class="st2"><path class="st10" d="M181.5 255.9l-3.5-6.1h7.1l3.5 6.1z"/><path class="st10" d="M181.5 255.9L178 262l-3.5-6.1 3.5-6.1 3.5 6.1z"/><path class="st24" d="M178 262l3.5-6.1h7.1l-3.5 6.1z"/><path class="st10" d="M192.1 261.9l3.5-6.1 3.6 6.1-3.6 6.1z"/><path class="st10" d="M192.1 261.9h-7l3.5-6.1h7l-3.5 6.1z"/><path class="st24" d="M185.1 261.9h7l3.5 6.1h-7z"/><path class="st10" d="M192.2 274.1h7l-3.5 6.1h-7.1zM192.2 274.1l-3.6-6.1h7.1l3.5 6.1h-7z"/><path class="st24" d="M188.6 268l3.6 6.1-3.6 6.1-3.5-6.1z"/><g><path class="st10" d="M181.6 280.3l3.5 6.1h-7l-3.5-6.1z"/><path class="st10" d="M181.6 280.3l3.5-6.1 3.6 6.1-3.6 6.1-3.5-6.1z"/><path class="st24" d="M185.1 274.2l-3.5 6.1h-7l3.5-6.1z"/></g><g><path class="st10" d="M171 274.2l-3.5 6.1-3.5-6.1 3.5-6.1z"/><path class="st10" d="M171 274.2h7.1l-3.5 6.1h-7.1l3.5-6.1z"/><path class="st24" d="M178.1 274.2H171l-3.5-6.1h7.1z"/></g><g><path class="st10" d="M171 262h-7l3.5-6.1h7zM171 262l3.5 6.1h-7L164 262h7z"/><path class="st24" d="M174.5 268.1L171 262l3.5-6.1 3.5 6.1z"/></g><path class="st23" d="M185.2 262H178l-3.5 6.1 3.5 6.2h7.2l3.5-6.2z"/></g></g><g><defs><path id="SVGID_8_" d="M139 393s-5 1.2-6.2 2.5c-1.2 1.2 13.6 1.2 13.6 1.2s-1.2-32.4-2.5-37.4c-1.2-5 3.7-28.7 5-29.9 1.2-1.2 1.2 2.5 1.2 2.5s0 22.5 2.5 31.2 5 21.2 5 22.5v6.2s-5 1.2-5 2.5c0 1.2 12.4 1.2 12.4 1.2s-2.5-46.2-2.5-47.4c0-1.2 0-12.5 1.2-17.5s1.2-16.2 1.2-16.2v-2.5h-33.4s0 28.7 1.2 37.4 3.7 26.2 3.7 26.2L139 393z"/></defs><clipPath id="SVGID_9_"><use xlink:href="#SVGID_8_" overflow="visible"/></clipPath><g class="st31"><defs><path id="SVGID_10_" d="M14.8-585.9h718.6v2470.8H14.8z"/></defs><clipPath id="SVGID_11_"><use xlink:href="#SVGID_10_" overflow="visible"/></clipPath><path class="st32" d="M129.1 309.4h38.4v89.8h-38.4z"/></g><defs><path id="SVGID_12_" d="M89.3 261.5c0-.6-1.1-1.4-1.3 0-.1 1.2 1.3 1.2 0 2.5-1.2 1.2-1.2 5 0 5 1.3 0 12.5 7.5 12.5 7.5s12.5 8.7 15 7.5c2.5-1.2 15-9.9 17.5-9.9s20-7.5 20-11.2V252c0-.2 0-.4-.1-.6-.3-.9-1-3.9.1-5.9 1.3-2.5 1.9-10.6-3.1-11.8-5-1.2-8.8 0-10 2.5-1.3 2.5-1.3 6.2-1.3 8.7 0 1.5.5 4 .8 5.7.2 1 1.1 1.7 2.2 1.7h.2c1.4 0 2.6 1.3 2.2 2.7-.1.3-.2.6-.4 1-1.3 2.5-22.5 14.9-25 16.1-1.3.6-2.3 1.3-2.9 1.8-.6.4-1.3.6-2 .4l-18.3-5.7c-.3-.1-.7-.3-.9-.6-1.3-1.4-5.2-5.9-5.2-6.5"/></defs><clipPath id="SVGID_13_"><use xlink:href="#SVGID_12_" overflow="visible"/></clipPath><g class="st33"><defs><path id="SVGID_14_" d="M14.8-585.9h718.6v2470.8H14.8z"/></defs><clipPath id="SVGID_15_"><use xlink:href="#SVGID_14_" overflow="visible"/></clipPath><path class="st34" d="M84.7 230.6h71.9v55.9H84.7z"/></g><g><defs><path id="SVGID_16_" d="M118.1 270.9c-.1.4.3.9.4 1.3.4 1.1.7 2.2 1.1 3.3.2.7 2.5 6.3 2.2 6.6 1.9-1.7 4.1-3.1 6.5-4.1.6-.2 1.2-.5 1.8-.2.7.4.8 1.3.9 2.1.6 10.4.9 20.8.8 31.2 0 .7 0 1.5.3 2.1.3.5.7.9 1.1 1.3 4.3 3.7 9.9 6.1 15.6 6.4 5.7.2 11.6-1.7 15.8-5.6.4-.4.8-.8 1-1.2.3-.5.3-1.1.4-1.7.7-8.8-2.4-17.5-2.2-26.3.2-7.8 3-15.6 1.7-23.2-.2-1.2-.5-2.4-1.4-3.2-.6-.7-1.5-1.1-2.3-1.4-2.8-1.2-5.8-2-8.8-2.3.4 0-.6 1.7-.7 1.8-.6.5-1.6.6-2.4.8-2 .3-4.9.1-6.3-1.6-.3-.4-.6-.9-1-1.1-.4-.2-.8-.2-1.3-.2-4.8.1-9.3 2.4-13 5.4-3.3 2.6-6.2 5.8-9.1 8.8-.3.1-1 .6-1.1 1 0-.1 0 0 0 0"/></defs><clipPath id="SVGID_17_"><use xlink:href="#SVGID_16_" overflow="visible"/></clipPath><g class="st35"><defs><path id="SVGID_18_" d="M14.8-585.9h718.6v2470.8H14.8z"/></defs><clipPath id="SVGID_19_"><use xlink:href="#SVGID_18_" overflow="visible"/></clipPath><path class="st36" d="M115.6 253h52.9v70.4h-52.9z"/></g></g><g><defs><path id="SVGID_20_" d="M139 227.6h19.9v25.2H139z"/></defs><clipPath id="SVGID_21_"><use xlink:href="#SVGID_20_" overflow="visible"/></clipPath><g class="st37"><defs><path id="SVGID_22_" d="M14.8-585.9h718.6v2470.8H14.8z"/></defs><clipPath id="SVGID_23_"><use xlink:href="#SVGID_22_" overflow="visible"/></clipPath><g class="st38"><defs><path id="SVGID_24_" d="M137.6 225.6h22.5v29.9h-22.5z"/></defs><clipPath id="SVGID_25_"><use xlink:href="#SVGID_24_" overflow="visible"/></clipPath><g class="st39"><defs><path id="SVGID_26_" d="M140.5 246.8s2.7 0 2.7-2.8-1.4-4.1-2.7-2.8c-1.4 1.4-1.4 0-1.4 0s2.7-4.1 1.4-5.5c-1.4-1.4-2.7-2.8 0-5.5 2.7-2.8 6.8-4.1 12.3 0 5.5 4.1 6.8 6.9 5.5 11.1-1.4 4.2-5.5 9.7-5.5 9.7s-4.1 4.1-8.2 0l-4.1-4.2z"/></defs><clipPath id="SVGID_27_"><use xlink:href="#SVGID_26_" overflow="visible"/></clipPath><g class="st40"><defs><path id="SVGID_28_" d="M138.6 227.6h20.5v25.5h-20.5z"/></defs><clipPath id="SVGID_29_"><use xlink:href="#SVGID_28_" overflow="visible"/></clipPath><path class="st41" d="M136.5 225.1h24.9v30.2h-24.9z"/></g></g></g></g></g></g></svg>