<svg id="Layer_1" xmlns="http://www.w3.org/2000/svg" xmlns:xlink="http://www.w3.org/1999/xlink" viewBox="0 0 995.9 998.7" enable-background="new 0 0 995.9 998.7"><style>.st0{fill:url(#SVGID_3_)}.st0,.st1{clip-path:url(#SVGID_2_)}.st2{fill:#110a2d}.st3{fill:none;stroke:#110a2d;stroke-width:2;stroke-miterlimit:10}.st4{fill:#1b0d44}.st5{fill:#080516}.st6{fill:#f54c43}.st7{fill:#9dd6e7}.st8{fill:#1ec5c3}.st9{fill:#fe6464}.st10{fill:#fde18c}.st11{fill:#1fd0cd}.st12{fill:#fe6363}.st13{fill:#1fcfcd}.st14{fill:none;stroke:#110a2d;stroke-width:2;stroke-linecap:round;stroke-miterlimit:10}.st15{clip-path:url(#SVGID_2_);fill-rule:evenodd;clip-rule:evenodd;fill:#fff}.st16{fill:#fff;stroke:#002e61;stroke-width:8.8475;stroke-miterlimit:10}.st17{fill:#20d5d2}.st18{opacity:.75;fill:#0f6fff;enable-background:new}.st19{fill:#1b0d44}.st19,.st20{clip-path:url(#SVGID_2_)}.st20,.st21{fill:#0d1d3a}.st22{fill:#ff6464}.st23{fill:#65cdc9}.st24{fill:#ffe38d}.st25{fill:#ffaa64}.st26,.st27{clip-path:url(#SVGID_2_);fill:#65cdc9}.st27{fill:none;stroke:#ff6464;stroke-width:.9711;stroke-miterlimit:10}.st28{fill:#1a1a1a}.st29{filter:url(#Adobe_OpacityMaskFilter)}.st30,.st31{clip-path:url(#SVGID_2_);fill-rule:evenodd;clip-rule:evenodd;fill:url(#SVGID_5_)}.st31{mask:url(#SVGID_4_);fill:#fff}.st32{clip-path:url(#SVGID_7_)}.st33{clip-path:url(#SVGID_9_);fill:#ff6464}.st34{clip-path:url(#SVGID_11_)}.st35{clip-path:url(#SVGID_13_);fill:#ffa3a3}.st36{clip-path:url(#SVGID_15_)}.st37{clip-path:url(#SVGID_17_);fill:#00132e}.st38{clip-path:url(#SVGID_19_)}.st39{clip-path:url(#SVGID_21_);enable-background:new}.st40{clip-path:url(#SVGID_23_)}.st41{clip-path:url(#SVGID_25_)}.st42{clip-path:url(#SVGID_27_);fill:#2900aa}.st43{fill:url(#SVGID_30_)}.st43,.st44,.st45{clip-path:url(#SVGID_29_)}.st45{fill-rule:evenodd;clip-rule:evenodd;fill:#fff}.st46,.st47,.st48,.st49{clip-path:url(#SVGID_29_);fill:#1b0d44}.st47,.st48,.st49{fill:#0d1d3a}.st48,.st49{fill:#65cdc9}.st49{fill:none;stroke:#ff6464;stroke-width:.9711;stroke-miterlimit:10}.st50{filter:url(#Adobe_OpacityMaskFilter_1_)}.st51,.st52{clip-path:url(#SVGID_29_);fill-rule:evenodd;clip-rule:evenodd;fill:url(#SVGID_32_)}.st52{mask:url(#SVGID_31_);fill:#fff}.st53{clip-path:url(#SVGID_34_)}.st54{clip-path:url(#SVGID_36_);fill:#ff6464}.st55{clip-path:url(#SVGID_38_)}.st56{clip-path:url(#SVGID_40_);fill:#ffa3a3}.st57{clip-path:url(#SVGID_42_)}.st58{clip-path:url(#SVGID_44_);fill:#00132e}.st59{clip-path:url(#SVGID_46_)}.st60{clip-path:url(#SVGID_48_);enable-background:new}.st61{clip-path:url(#SVGID_50_)}.st62{clip-path:url(#SVGID_52_)}.st63{clip-path:url(#SVGID_54_);fill:#2900aa}</style><defs><path id="SVGID_1_" d="M864.5 157c19.2 20.2 33 44 34.6 71.5 2.3 38.1-19.3 79.1-1.4 112.8 19.3 36.2 66.4 42.6 83.1 81.3 9.7 22.4 16.9 40.6 14.5 65.8-2.2 23.9-10.7 47.1-22.4 68-5.4 9.7-11.6 18.9-18.5 27.6-36.9 46.6-87.3 82-119.2 132.1-14.8 23.1-26.2 50-48.8 65.5-24.5 16.9-57.3 16.5-86.2 9.4-28.9-7.2-56-20.4-84.9-27.7-56.3-14.1-118.3-4-167.2 27.3-44.6 28.5-76.8 72.4-116.6 107.3-39.8 34.9-94.3 61.7-144.7 45.4-44.1-14.3-71.9-57.3-92.2-99C39 729.4 12.7 602 3 474.7c-8.7-114.8-1.8-238.5 66.1-331.5C121.1 72.1 203.9 27.6 290.2 10S466.1-.1 552.3 17.7c90 18.6 178.2 48.7 256.8 96.2 19.7 12 39.4 26.3 55.4 43.1z"/></defs><clipPath id="SVGID_2_"><use xlink:href="#SVGID_1_" overflow="visible"/></clipPath><linearGradient id="SVGID_3_" gradientUnits="userSpaceOnUse" y1="472.106" x2="995.907" y2="472.106"><stop offset="0" stop-color="#52e5e7"/><stop offset=".689" stop-color="#0130cb"/></linearGradient><path class="st0" d="M864.5 155c19.2 20.2 33 44 34.6 71.5 2.3 38.1-19.3 79.1-1.4 112.8 19.3 36.2 66.4 42.6 83.1 81.3 9.7 22.4 16.9 40.6 14.5 65.8-2.2 23.9-10.7 47.1-22.4 68-5.4 9.7-11.6 18.9-18.5 27.6-36.9 46.6-87.3 82-119.2 132.1-14.8 23.1-26.2 50-48.8 65.5-24.5 16.9-57.3 16.5-86.2 9.4-28.9-7.2-56-20.4-84.9-27.7-56.3-14.1-118.3-4-167.2 27.3-44.6 28.5-76.8 72.4-116.6 107.3-39.8 34.9-94.3 61.7-144.7 45.4-44.1-14.3-71.9-57.3-92.2-99C39 727.4 12.7 600 3 472.7c-8.7-114.8-1.8-238.5 66.1-331.5C121.1 70.1 203.9 25.6 290.2 8s175.9-10.1 262.1 7.7c90 18.6 178.2 48.7 256.8 96.2 19.7 12 39.4 26.3 55.4 43.1z"/><g class="st1"><path transform="rotate(-90 317.56 516.962)" class="st2" d="M299.2 183.5H336v667h-36.8z"/><path class="st2" d="M497.8 378.2h11.8v157.1h-11.8zM590.5 378.2h11.8v157.1h-11.8z"/><path class="st2" d="M497.8 378.2V390h102.6v-11.8h-90.8z"/><path class="st2" d="M552.2 421c-3.3 0-5.9-2.6-5.9-5.9V269.8c0-3.3 2.6-5.9 5.9-5.9 3.3 0 5.9 2.6 5.9 5.9v145.3c0 3.3-2.7 5.9-5.9 5.9zM695.8 263.9h11.8v83h-11.8z"/><path transform="rotate(-90 628.646 269.837)" class="st2" d="M622.7 191.3h11.8v157.1h-11.8z"/><path class="st2" d="M681.1 331.8h41.4v16.4h-41.4z"/><path class="st3" d="M547.7 330.3l-38.3 50.9M547.7 345.7l-27.1 35.5M547.9 360.6l-14.6 20.6M552.4 328.9l38.3 50.9M552.4 344.3l27 35.5M552.2 359.2l14.6 20.6"/><g><path class="st2" d="M377.5 378.3h11.8v157.1h-11.8zM470.1 378.3h11.8v157.1h-11.8z"/><path class="st2" d="M377.5 378.3v11.8h102.6v-11.8h-90.8z"/></g><g><path class="st4" d="M553.7 438.3h442.1v129l-336.2-4.1c.1-.1-6.5-32.2-105.9-124.9z"/><path class="st5" d="M553.7 438.4h442.1v4.4l-438.2-.8-3.9-3.6z"/><path class="st6" d="M995.8 553.4H655.5l-1.8-3h342.1z"/><path class="st7" d="M887.4 405.5h108.4v32.7H887.4z"/><path class="st8" d="M779.1 405.5h108.4v32.7H779.1z"/><path class="st9" d="M670.7 405.5h108.4v32.7H670.7z"/><path class="st10" d="M829.1 307.3h108.4V350H829.1z"/><path class="st11" d="M670.7 372.9h108.4v32.7H670.7z"/><path class="st7" d="M779.1 372.8h108.4v32.7H779.1z"/><path class="st10" d="M887.4 372.8h108.4v32.7H887.4z"/><path class="st12" d="M779.1 340.5h108.4v32.7H779.1z"/><path class="st13" d="M887.4 340.5h108.4v32.7H887.4z"/><path class="st7" d="M233.4 465.5h108.4v32.7H233.4z"/><path class="st8" d="M125.1 465.5h108.4v32.7H125.1z"/><path class="st9" d="M16.7 465.5h108.4v32.7H16.7z"/><path class="st10" d="M179.1 371.3h108.4V404H179.1z"/><path class="st11" d="M16.7 432.9h108.4v32.7H16.7z"/><path class="st7" d="M125.1 432.8h108.4v32.7H125.1z"/><path class="st10" d="M233.4 432.8h108.4v32.7H233.4z"/><path class="st12" d="M125.1 402.5h108.4v32.7H125.1z"/><path class="st13" d="M233.4 402.5h108.4v32.7H233.4z"/></g><g><path class="st2" d="M424.1 275.9h11.8V433h-11.8z"/><path class="st2" d="M409.7 420.5h41.4v16.4h-41.4z"/><path class="st3" d="M427.3 330.4L389 381.2M427.3 345.7l-27 35.5M427.6 360.7l-14.7 20.5"/><g><path class="st3" d="M432.1 329l38.3 50.8M432.1 344.3l27 35.5M431.8 359.3l14.7 20.5"/></g></g><g><path class="st14" d="M427.7 435l-12.1 8.9 6 14.5M433 435l12.1 8.9-6.1 14.5"/></g><g><path class="st14" d="M699.1 347.5l-12.1 9 6 14.5M704.4 347.5l12.1 9-6 14.5"/></g></g><g class="st1"><path class="st16" d="M407.1 681.4H194c-13.3 0-24.1-10.8-24.1-24.1V550.7c0-13.3 10.8-24.1 24.1-24.1h213.1c13.3 0 24.1 10.8 24.1 24.1v106.7c0 13.2-10.8 24-24.1 24z"/><path class="st17" d="M190.5 554.3h90.9v9.6h-90.9z"/><path class="st18" d="M285 631.6h90.9v9.6H285zM291.4 554.3h29v9.6h-29z"/><path class="st17" d="M330.4 554.3h47.9v9.6h-47.9zM346.5 574.5h17.9v9.6h-17.9zM254.3 632h17.9v9.6h-17.9z"/><path class="st18" d="M190.5 574.1h17.9v9.6h-17.9z"/><path class="st17" d="M253.5 613.4h46.9v9.6h-46.9zM224.2 593.8h47.9v9.6h-47.9zM287.5 574.1h47.9v9.6h-47.9z"/><path class="st18" d="M219.9 574.5h56.5v9.6h-56.5zM310.5 613.4H367v9.6h-56.5z"/></g><path class="st19" d="M36.2 839.5L-4.2 731.2h869.6l-47.3 108.3z"/><path class="st20" d="M40.2 667.2h769.1l56.1 64H-4.2z"/><g class="st1"><path class="st21" d="M147.6 729H46.9l43-56.9 85.7-.2z"/><path class="st22" d="M154.1 698.1l-73.2.1 4.5-6.3 71.9-.1z"/><path class="st23" d="M141.8 721.9H63.7l4.5-6.2H145z"/><path class="st24" d="M137.1 679.1l-42.4.1-4.5 6.2 43.1-.1z"/><path class="st23" d="M150.6 679l-3.5 6.3 13.6-.1 3.2-6.2z"/><g><path class="st25" d="M91.9 703.8H76.8l-4.5 6.2h15.4z"/><path class="st24" d="M105.1 703.8L101 710h47l3.2-6.3z"/></g></g><path class="st1 st21" d="M258.7 729H158l26.5-57.1 85.7-.3zM632.4 729.9H531.7l7.9-57.4 85.7-.2zM826.7 729H634.9l-9.7-57.7 163.1-.4z"/><g class="st1"><path class="st25" d="M203 682.4c-.7 1.7-3.4 3.1-6.1 3.1-2.7 0-4.3-1.4-3.6-3.1.7-1.7 3.5-3.1 6.1-3.1s4.3 1.4 3.6 3.1zM220.1 682.4c-.6 1.7-3.3 3.1-5.9 3.1-2.7 0-4.4-1.4-3.7-3.1.6-1.7 3.3-3.1 5.9-3.1s4.3 1.4 3.7 3.1z"/><path class="st23" d="M237.2 682.3c-.5 1.7-3.1 3.1-5.8 3.1-2.7 0-4.4-1.4-3.9-3.1.6-1.7 3.1-3.1 5.8-3.1s4.4 1.4 3.9 3.1z"/><path class="st22" d="M254.3 682.3c-.4 1.7-2.9 3.1-5.6 3.1-2.7 0-4.5-1.4-4-3.1.5-1.7 3-3.1 5.6-3.1s4.4 1.4 4 3.1z"/><g><path class="st25" d="M198.3 694.4c-.7 1.7-3.5 3.1-6.3 3.1s-4.5-1.4-3.7-3.1 3.5-3.1 6.3-3.1c2.7 0 4.3 1.4 3.7 3.1z"/><path class="st24" d="M216 694.4c-.6 1.7-3.3 3.1-6.1 3.1s-4.5-1.4-3.9-3.1 3.4-3.1 6.1-3.1c2.7 0 4.5 1.4 3.9 3.1z"/><path class="st25" d="M233.7 694.3c-.5 1.7-3.2 3.1-6 3.1s-4.6-1.4-4.1-3.1c.6-1.7 3.2-3.1 6-3.1s4.6 1.4 4.1 3.1zM251.4 694.3c-.4 1.7-3 3.1-5.8 3.1s-4.7-1.4-4.2-3.1c.5-1.7 3.1-3.1 5.8-3.1 2.8 0 4.7 1.4 4.2 3.1z"/></g><g><path class="st25" d="M193.6 706.4c-.7 1.7-3.6 3.1-6.5 3.1s-4.6-1.4-3.9-3.1 3.6-3.1 6.5-3.1c2.8 0 4.5 1.4 3.9 3.1z"/><path class="st23" d="M211.9 706.4c-.6 1.7-3.4 3.1-6.3 3.1s-4.7-1.4-4.1-3.1 3.5-3.1 6.3-3.1 4.7 1.3 4.1 3.1z"/><path class="st25" d="M230.2 706.4c-.5 1.7-3.2 3.1-6.1 3.1-2.9 0-4.8-1.4-4.2-3.1.6-1.7 3.3-3.1 6.1-3.1 2.8-.1 4.7 1.3 4.2 3.1zM248.6 706.3c-.4 1.7-3.1 3.1-6 3.1s-4.8-1.4-4.4-3.1c.5-1.7 3.1-3.1 6-3.1s4.8 1.4 4.4 3.1z"/></g><g><path class="st25" d="M188.8 718.4c-.7 1.7-3.6 3.1-6.6 3.1-3 0-4.8-1.4-4.1-3.1.7-1.7 3.7-3.1 6.6-3.1 3 0 4.8 1.4 4.1 3.1zM207.8 718.4c-.6 1.7-3.5 3.1-6.5 3.1s-4.9-1.4-4.2-3.1 3.5-3.1 6.5-3.1c2.9-.1 4.8 1.3 4.2 3.1zM226.7 718.4c-.5 1.7-3.3 3.1-6.3 3.1s-4.9-1.4-4.4-3.1c.6-1.7 3.4-3.1 6.3-3.1 3-.1 4.9 1.3 4.4 3.1zM245.7 718.4c-.4 1.7-3.2 3.1-6.1 3.1-3 0-5-1.4-4.6-3.1.5-1.7 3.2-3.1 6.1-3.1 3-.1 5 1.3 4.6 3.1z"/></g></g><path class="st26" d="M583.4 700.6l-8.1 20.2c-15.8-2.2-26.3-10.5-25.4-20.1 1.1-11.3 16.3-20.7 33.6-20.7s32.4 9.3 33.4 20.6h-33.5z"/><path class="st27" d="M655.8 717.6c1.4-5.8 3.1-12.8 9.1-17.3 6.3-4.8 15.4-.3 20.9 4.3 4 3.4 5.6 6.9 8.7 10.5.7.8 1.6 1.6 2.8 2.2 6.1 2.7 10.9-.9 12.2-3.4 1.5-2.8 1.4-5.9 1.5-8.9 0-4-4.4-17.4 5-16.9 6.1.3 14 9.8 16.2 12.4 3.3 3.7 11.3 16.3 18.4 16.3 3.8 0 5-1.6 4.7-3.6-1-7.8-6.9-15.8-7.1-23.5-.2-4.3 4.4-8.2 12.8-4.4 17.6 7.8 34.7 32.4 34.7 32.4"/><g class="st1"><path class="st21" d="M548.8 730.5l-118.2-63.3-118.1 63.3 118.1 63.4z"/><path class="st28" d="M342 730.5l88.6-47.5 88.7 47.5-88.7 47.5z"/><path class="st21" d="M548.8 730.5v110.9l-118.2 63.3V793.9z"/><path class="st4" d="M312.5 730.5v110.9l118.1 63.3V793.9z"/></g><defs><filter id="Adobe_OpacityMaskFilter" filterUnits="userSpaceOnUse" x="240.3" y="462.8" width="379.7" height="316.1"><feColorMatrix values="1 0 0 0 0 0 1 0 0 0 0 0 1 0 0 0 0 0 1 0"/></filter></defs><mask maskUnits="userSpaceOnUse" x="240.3" y="462.8" width="379.7" height="316.1" id="SVGID_4_"><g class="st29"><linearGradient id="SVGID_5_" gradientUnits="userSpaceOnUse" x1="431.725" y1="463.015" x2="431.725" y2="778.028"><stop offset=".26"/><stop offset="1" stop-color="#fff" stop-opacity=".2"/></linearGradient><path class="st30" d="M203.1 463h457.2v315H203.1z"/></g></mask><path class="st31" d="M342.7 731.4l88.7 47.5 88.6-47.5 100-268.6H240.3z"/><g class="st1"><path class="st22" d="M429.6 664.3l-7.1-12.3h14.2l7.1 12.3z"/><path class="st22" d="M429.6 664.3l-7.1 12.3-7.1-12.3 7.1-12.3 7.1 12.3z"/><path class="st25" d="M422.5 676.6l7.1-12.3h14.2l-7.1 12.3z"/><path class="st22" d="M450.9 676.5l7.1-12.3 7.1 12.3-7.1 12.3z"/><path class="st22" d="M450.9 676.5h-14.2l7.1-12.3H458l-7.1 12.3z"/><path class="st25" d="M436.7 676.5h14.2l7.1 12.3h-14.2z"/><path class="st22" d="M451 701.2h14.2l-7.1 12.3h-14.2zM451 701.2l-7.1-12.3h14.2l7.1 12.3H451z"/><path class="st25" d="M443.9 688.9l7.1 12.3-7.1 12.3-7.1-12.3z"/><g><path class="st22" d="M429.7 713.6l7.1 12.3h-14.2l-7.1-12.3z"/><path class="st22" d="M429.7 713.6l7.1-12.3 7.1 12.3-7.1 12.3-7.1-12.3z"/><path class="st25" d="M436.8 701.3l-7.1 12.3h-14.2l7.1-12.3z"/></g><g><path class="st22" d="M408.3 701.3l-7.1 12.3-7.1-12.3 7.1-12.3z"/><path class="st22" d="M408.3 701.3h14.2l-7.1 12.3h-14.2l7.1-12.3z"/><path class="st25" d="M422.5 701.3h-14.2l-7.1-12.3h14.2z"/></g><g><path class="st22" d="M408.3 676.7h-14.2l7.1-12.3h14.2zM408.3 676.7l7.1 12.3h-14.2l-7.1-12.3h14.2z"/><path class="st25" d="M415.4 689l-7.1-12.3 7.1-12.3 7.1 12.3z"/></g><path class="st24" d="M436.9 676.6h-14.4l-7.2 12.5 7.2 12.4h14.4l7.2-12.4z"/></g><g><defs><path id="SVGID_6_" d="M310.8 990.1s-11.4 2.9-14.3 5.8c-2.9 2.9 31.4 2.9 31.4 2.9s-2.9-74.8-5.7-86.3c-2.9-11.5 8.6-66.2 11.4-69.1 2.9-2.9 2.9 5.8 2.9 5.8s0 51.8 5.7 72c5.7 20.1 11.4 48.9 11.4 51.8v14.4s-11.4 2.9-11.4 5.8 28.6 2.9 28.6 2.9-5.7-106.5-5.7-109.4c0-2.9 0-28.8 2.9-40.3 2.9-11.5 2.9-37.4 2.9-37.4v-6h-77.1s0 66.2 2.9 86.3c2.9 20.2 8.6 60.4 8.6 60.4l5.5 40.4z"/></defs><clipPath id="SVGID_7_"><use xlink:href="#SVGID_6_" overflow="visible"/></clipPath><g class="st32"><defs><path id="SVGID_8_" d="M24.2-1268.1H1682v5699.9H24.2z"/></defs><clipPath id="SVGID_9_"><use xlink:href="#SVGID_8_" overflow="visible"/></clipPath><path class="st33" d="M287.9 797.2h88.6v207.2h-88.6z"/></g><defs><path id="SVGID_10_" d="M196.2 686.7c0-1.4-2.5-3.3-2.9 0-.3 2.8 2.9 2.9 0 5.7-2.9 2.9-2.9 11.5 0 11.5s28.9 17.2 28.9 17.2 28.9 20.1 34.6 17.2c5.8-2.9 34.6-22.9 40.4-22.9 5.8 0 46.2-17.2 46.2-25.8v-25c0-.5-.1-.9-.2-1.4-.6-2.1-2.2-8.9.2-13.7 2.9-5.7 4.3-24.3-7.2-27.2-11.5-2.9-20.2 0-23.1 5.7-2.9 5.7-2.9 14.3-2.9 20.1 0 3.6 1.1 9.3 2 13.2.5 2.3 2.6 4 5 4h.5c3.3 0 5.9 3.1 5 6.3-.2.7-.5 1.5-.9 2.3-2.9 5.7-51.9 34.4-57.7 37.2-3 1.5-5.2 3-6.7 4.1-1.3 1-3.1 1.3-4.7.8l-42.3-13.1c-.8-.3-1.5-.7-2.1-1.3-3.1-3.3-12.1-13.5-12.1-14.9"/></defs><clipPath id="SVGID_11_"><use xlink:href="#SVGID_10_" overflow="visible"/></clipPath><g class="st34"><defs><path id="SVGID_12_" d="M24.2-1268.1H1682v5699.9H24.2z"/></defs><clipPath id="SVGID_13_"><use xlink:href="#SVGID_12_" overflow="visible"/></clipPath><path class="st35" d="M185.4 615.3h165.8v128.9H185.4z"/></g><g><defs><path id="SVGID_14_" d="M262.6 708.3c-.1.9.6 2.2.9 3 .9 2.6 1.7 5.1 2.5 7.7.5 1.6 5.9 14.6 5.1 15.3 4.4-3.9 9.5-7.1 14.9-9.4 1.3-.5 2.8-1 4.1-.4 1.6.8 1.9 2.9 2 4.7 1.5 23.9 2.1 47.9 1.8 71.9 0 1.7 0 3.4.7 4.9.6 1.2 1.6 2.1 2.6 3 10 8.6 22.8 14.1 36 14.7 13.2.6 26.7-4 36.4-13 .9-.8 1.8-1.8 2.3-2.9.6-1.2.7-2.5.8-3.8 1.5-20.2-5.6-40.3-5-60.6.5-18 7-35.9 3.8-53.6-.5-2.7-1.3-5.5-3.1-7.5-1.4-1.5-3.4-2.5-5.3-3.3-6.5-2.7-13.3-4.5-20.3-5.3 1 .1-1.3 3.9-1.7 4.2-1.4 1.1-3.8 1.5-5.5 1.8-4.7.8-11.2.2-14.5-3.8-.7-.9-1.3-2-2.3-2.6-.9-.5-1.9-.5-2.9-.5-11 .1-21.4 5.5-30 12.3-7.7 6.1-14.2 13.4-21.1 20.4-.6.6-2.2 1.7-2.5 2.5.3.2.3.2.3.3"/></defs><clipPath id="SVGID_15_"><use xlink:href="#SVGID_14_" overflow="visible"/></clipPath><g class="st36"><defs><path id="SVGID_16_" d="M24.2-1268.1H1682v5699.9H24.2z"/></defs><clipPath id="SVGID_17_"><use xlink:href="#SVGID_16_" overflow="visible"/></clipPath><path class="st37" d="M256.8 667.1h122v162.3h-122z"/></g></g><g><defs><path id="SVGID_18_" d="M310.7 608.4h45.8v58.1h-45.8z"/></defs><clipPath id="SVGID_19_"><use xlink:href="#SVGID_18_" overflow="visible"/></clipPath><g class="st38"><defs><path id="SVGID_20_" d="M24.2-1268.1H1682v5699.9H24.2z"/></defs><clipPath id="SVGID_21_"><use xlink:href="#SVGID_20_" overflow="visible"/></clipPath><g class="st39"><defs><path id="SVGID_22_" d="M307.5 603.8h51.8v69.1h-51.8z"/></defs><clipPath id="SVGID_23_"><use xlink:href="#SVGID_22_" overflow="visible"/></clipPath><g class="st40"><defs><path id="SVGID_24_" d="M314.3 652.7s6.3 0 6.3-6.4-3.2-9.6-6.3-6.4c-3.2 3.2-3.2 0-3.2 0s6.3-9.6 3.2-12.8c-3.2-3.2-6.3-6.4 0-12.8s15.8-9.6 28.4 0c12.6 9.6 15.8 16 12.6 25.5-3.2 9.6-12.6 22.3-12.6 22.3s-9.5 9.6-18.9 0l-9.5-9.4z"/></defs><clipPath id="SVGID_25_"><use xlink:href="#SVGID_24_" overflow="visible"/></clipPath><g class="st41"><defs><path id="SVGID_26_" d="M309.8 608.4H357v58.7h-47.2z"/></defs><clipPath id="SVGID_27_"><use xlink:href="#SVGID_26_" overflow="visible"/></clipPath><path class="st42" d="M304.9 602.7h57.4v69.7h-57.4z"/></g></g></g></g></g></g><g><defs><path id="SVGID_28_" d="M864.5 157c19.2 20.2 33 44 34.6 71.5 2.3 38.1-19.3 79.1-1.4 112.8 19.3 36.2 66.4 42.6 83.1 81.3 9.7 22.4 16.9 40.6 14.5 65.8-2.2 23.9-10.7 47.1-22.4 68-5.4 9.7-11.6 18.9-18.5 27.6-36.9 46.6-87.3 82-119.2 132.1-14.8 23.1-26.2 50-48.8 65.5-24.5 16.9-57.3 16.5-86.2 9.4-28.9-7.2-56-20.4-84.9-27.7-56.3-14.1-118.3-4-167.2 27.3-44.6 28.5-76.8 72.4-116.6 107.3-39.8 34.9-94.3 61.7-144.7 45.4-44.1-14.3-71.9-57.3-92.2-99C39 729.4 12.7 602 3 474.7c-8.7-114.8-1.8-238.5 66.1-331.5C121.1 72.1 203.9 27.6 290.2 10S466.1-.1 552.3 17.7c90 18.6 178.2 48.7 256.8 96.2 19.7 12 39.4 26.3 55.4 43.1z"/></defs><clipPath id="SVGID_29_"><use xlink:href="#SVGID_28_" overflow="visible"/></clipPath><linearGradient id="SVGID_30_" gradientUnits="userSpaceOnUse" y1="472.106" x2="995.907" y2="472.106"><stop offset="0" stop-color="#52e5e7"/><stop offset=".689" stop-color="#0130cb"/></linearGradient><path class="st43" d="M864.5 155c19.2 20.2 33 44 34.6 71.5 2.3 38.1-19.3 79.1-1.4 112.8 19.3 36.2 66.4 42.6 83.1 81.3 9.7 22.4 16.9 40.6 14.5 65.8-2.2 23.9-10.7 47.1-22.4 68-5.4 9.7-11.6 18.9-18.5 27.6-36.9 46.6-87.3 82-119.2 132.1-14.8 23.1-26.2 50-48.8 65.5-24.5 16.9-57.3 16.5-86.2 9.4-28.9-7.2-56-20.4-84.9-27.7-56.3-14.1-118.3-4-167.2 27.3-44.6 28.5-76.8 72.4-116.6 107.3-39.8 34.9-94.3 61.7-144.7 45.4-44.1-14.3-71.9-57.3-92.2-99C39 727.4 12.7 600 3 472.7c-8.7-114.8-1.8-238.5 66.1-331.5C121.1 70.1 203.9 25.6 290.2 8s175.9-10.1 262.1 7.7c90 18.6 178.2 48.7 256.8 96.2 19.7 12 39.4 26.3 55.4 43.1z"/><g class="st44"><path transform="rotate(-90 317.56 516.962)" class="st2" d="M299.2 183.5H336v667h-36.8z"/><path class="st2" d="M497.8 378.2h11.8v157.1h-11.8zM590.5 378.2h11.8v157.1h-11.8z"/><path class="st2" d="M497.8 378.2V390h102.6v-11.8h-90.8z"/><path class="st2" d="M552.2 421c-3.3 0-5.9-2.6-5.9-5.9V269.8c0-3.3 2.6-5.9 5.9-5.9 3.3 0 5.9 2.6 5.9 5.9v145.3c0 3.3-2.7 5.9-5.9 5.9zM695.8 263.9h11.8v83h-11.8z"/><path transform="rotate(-90 628.646 269.837)" class="st2" d="M622.7 191.3h11.8v157.1h-11.8z"/><path class="st2" d="M681.1 331.8h41.4v16.4h-41.4z"/><path class="st3" d="M547.7 330.3l-38.3 50.9M547.7 345.7l-27.1 35.5M547.9 360.6l-14.6 20.6M552.4 328.9l38.3 50.9M552.4 344.3l27 35.5M552.2 359.2l14.6 20.6"/><g><path class="st2" d="M377.5 378.3h11.8v157.1h-11.8zM470.1 378.3h11.8v157.1h-11.8z"/><path class="st2" d="M377.5 378.3v11.8h102.6v-11.8h-90.8z"/></g><g><path class="st4" d="M553.7 438.3h442.1v129l-336.2-4.1c.1-.1-6.5-32.2-105.9-124.9z"/><path class="st5" d="M553.7 438.4h442.1v4.4l-438.2-.8-3.9-3.6z"/><path class="st6" d="M995.8 553.4H655.5l-1.8-3h342.1z"/><path class="st7" d="M887.4 405.5h108.4v32.7H887.4z"/><path class="st8" d="M779.1 405.5h108.4v32.7H779.1z"/><path class="st9" d="M670.7 405.5h108.4v32.7H670.7z"/><path class="st10" d="M829.1 307.3h108.4V350H829.1z"/><path class="st11" d="M670.7 372.9h108.4v32.7H670.7z"/><path class="st7" d="M779.1 372.8h108.4v32.7H779.1z"/><path class="st10" d="M887.4 372.8h108.4v32.7H887.4z"/><path class="st12" d="M779.1 340.5h108.4v32.7H779.1z"/><path class="st13" d="M887.4 340.5h108.4v32.7H887.4z"/><path class="st7" d="M233.4 465.5h108.4v32.7H233.4z"/><path class="st8" d="M125.1 465.5h108.4v32.7H125.1z"/><path class="st9" d="M16.7 465.5h108.4v32.7H16.7z"/><path class="st10" d="M179.1 371.3h108.4V404H179.1z"/><path class="st11" d="M16.7 432.9h108.4v32.7H16.7z"/><path class="st7" d="M125.1 432.8h108.4v32.7H125.1z"/><path class="st10" d="M233.4 432.8h108.4v32.7H233.4z"/><path class="st12" d="M125.1 402.5h108.4v32.7H125.1z"/><path class="st13" d="M233.4 402.5h108.4v32.7H233.4z"/></g><g><path class="st2" d="M424.1 275.9h11.8V433h-11.8z"/><path class="st2" d="M409.7 420.5h41.4v16.4h-41.4z"/><path class="st3" d="M427.3 330.4L389 381.2M427.3 345.7l-27 35.5M427.6 360.7l-14.7 20.5"/><g><path class="st3" d="M432.1 329l38.3 50.8M432.1 344.3l27 35.5M431.8 359.3l14.7 20.5"/></g></g><g><path class="st14" d="M427.7 435l-12.1 8.9 6 14.5M433 435l12.1 8.9-6.1 14.5"/></g><g><path class="st14" d="M699.1 347.5l-12.1 9 6 14.5M704.4 347.5l12.1 9-6 14.5"/></g></g><g class="st44"><path class="st16" d="M407.1 681.4H194c-13.3 0-24.1-10.8-24.1-24.1V550.7c0-13.3 10.8-24.1 24.1-24.1h213.1c13.3 0 24.1 10.8 24.1 24.1v106.7c0 13.2-10.8 24-24.1 24z"/><path class="st17" d="M190.5 554.3h90.9v9.6h-90.9z"/><path class="st18" d="M285 631.6h90.9v9.6H285zM291.4 554.3h29v9.6h-29z"/><path class="st17" d="M330.4 554.3h47.9v9.6h-47.9zM346.5 574.5h17.9v9.6h-17.9zM254.3 632h17.9v9.6h-17.9z"/><path class="st18" d="M190.5 574.1h17.9v9.6h-17.9z"/><path class="st17" d="M253.5 613.4h46.9v9.6h-46.9zM224.2 593.8h47.9v9.6h-47.9zM287.5 574.1h47.9v9.6h-47.9z"/><path class="st18" d="M219.9 574.5h56.5v9.6h-56.5zM310.5 613.4H367v9.6h-56.5z"/></g><path class="st46" d="M36.2 839.5L-4.2 731.2h869.6l-47.3 108.3z"/><path class="st47" d="M40.2 667.2h769.1l56.1 64H-4.2z"/><g class="st44"><path class="st21" d="M147.6 729H46.9l43-56.9 85.7-.2z"/><path class="st22" d="M154.1 698.1l-73.2.1 4.5-6.3 71.9-.1z"/><path class="st23" d="M141.8 721.9H63.7l4.5-6.2H145z"/><path class="st24" d="M137.1 679.1l-42.4.1-4.5 6.2 43.1-.1z"/><path class="st23" d="M150.6 679l-3.5 6.3 13.6-.1 3.2-6.2z"/><g><path class="st25" d="M91.9 703.8H76.8l-4.5 6.2h15.4z"/><path class="st24" d="M105.1 703.8L101 710h47l3.2-6.3z"/></g></g><path class="st44 st21" d="M258.7 729H158l26.5-57.1 85.7-.3zM632.4 729.9H531.7l7.9-57.4 85.7-.2zM826.7 729H634.9l-9.7-57.7 163.1-.4z"/><g class="st44"><path class="st25" d="M203 682.4c-.7 1.7-3.4 3.1-6.1 3.1-2.7 0-4.3-1.4-3.6-3.1.7-1.7 3.5-3.1 6.1-3.1s4.3 1.4 3.6 3.1zM220.1 682.4c-.6 1.7-3.3 3.1-5.9 3.1-2.7 0-4.4-1.4-3.7-3.1.6-1.7 3.3-3.1 5.9-3.1s4.3 1.4 3.7 3.1z"/><path class="st23" d="M237.2 682.3c-.5 1.7-3.1 3.1-5.8 3.1-2.7 0-4.4-1.4-3.9-3.1.6-1.7 3.1-3.1 5.8-3.1s4.4 1.4 3.9 3.1z"/><path class="st22" d="M254.3 682.3c-.4 1.7-2.9 3.1-5.6 3.1-2.7 0-4.5-1.4-4-3.1.5-1.7 3-3.1 5.6-3.1s4.4 1.4 4 3.1z"/><g><path class="st25" d="M198.3 694.4c-.7 1.7-3.5 3.1-6.3 3.1s-4.5-1.4-3.7-3.1 3.5-3.1 6.3-3.1c2.7 0 4.3 1.4 3.7 3.1z"/><path class="st24" d="M216 694.4c-.6 1.7-3.3 3.1-6.1 3.1s-4.5-1.4-3.9-3.1 3.4-3.1 6.1-3.1c2.7 0 4.5 1.4 3.9 3.1z"/><path class="st25" d="M233.7 694.3c-.5 1.7-3.2 3.1-6 3.1s-4.6-1.4-4.1-3.1c.6-1.7 3.2-3.1 6-3.1s4.6 1.4 4.1 3.1zM251.4 694.3c-.4 1.7-3 3.1-5.8 3.1s-4.7-1.4-4.2-3.1c.5-1.7 3.1-3.1 5.8-3.1 2.8 0 4.7 1.4 4.2 3.1z"/></g><g><path class="st25" d="M193.6 706.4c-.7 1.7-3.6 3.1-6.5 3.1s-4.6-1.4-3.9-3.1 3.6-3.1 6.5-3.1c2.8 0 4.5 1.4 3.9 3.1z"/><path class="st23" d="M211.9 706.4c-.6 1.7-3.4 3.1-6.3 3.1s-4.7-1.4-4.1-3.1 3.5-3.1 6.3-3.1 4.7 1.3 4.1 3.1z"/><path class="st25" d="M230.2 706.4c-.5 1.7-3.2 3.1-6.1 3.1-2.9 0-4.8-1.4-4.2-3.1.6-1.7 3.3-3.1 6.1-3.1 2.8-.1 4.7 1.3 4.2 3.1zM248.6 706.3c-.4 1.7-3.1 3.1-6 3.1s-4.8-1.4-4.4-3.1c.5-1.7 3.1-3.1 6-3.1s4.8 1.4 4.4 3.1z"/></g><g><path class="st25" d="M188.8 718.4c-.7 1.7-3.6 3.1-6.6 3.1-3 0-4.8-1.4-4.1-3.1.7-1.7 3.7-3.1 6.6-3.1 3 0 4.8 1.4 4.1 3.1zM207.8 718.4c-.6 1.7-3.5 3.1-6.5 3.1s-4.9-1.4-4.2-3.1 3.5-3.1 6.5-3.1c2.9-.1 4.8 1.3 4.2 3.1zM226.7 718.4c-.5 1.7-3.3 3.1-6.3 3.1s-4.9-1.4-4.4-3.1c.6-1.7 3.4-3.1 6.3-3.1 3-.1 4.9 1.3 4.4 3.1zM245.7 718.4c-.4 1.7-3.2 3.1-6.1 3.1-3 0-5-1.4-4.6-3.1.5-1.7 3.2-3.1 6.1-3.1 3-.1 5 1.3 4.6 3.1z"/></g></g><path class="st48" d="M583.4 700.6l-8.1 20.2c-15.8-2.2-26.3-10.5-25.4-20.1 1.1-11.3 16.3-20.7 33.6-20.7s32.4 9.3 33.4 20.6h-33.5z"/><path class="st49" d="M655.8 717.6c1.4-5.8 3.1-12.8 9.1-17.3 6.3-4.8 15.4-.3 20.9 4.3 4 3.4 5.6 6.9 8.7 10.5.7.8 1.6 1.6 2.8 2.2 6.1 2.7 10.9-.9 12.2-3.4 1.5-2.8 1.4-5.9 1.5-8.9 0-4-4.4-17.4 5-16.9 6.1.3 14 9.8 16.2 12.4 3.3 3.7 11.3 16.3 18.4 16.3 3.8 0 5-1.6 4.7-3.6-1-7.8-6.9-15.8-7.1-23.5-.2-4.3 4.4-8.2 12.8-4.4 17.6 7.8 34.7 32.4 34.7 32.4"/><g class="st44"><path class="st21" d="M548.8 730.5l-118.2-63.3-118.1 63.3 118.1 63.4z"/><path class="st28" d="M342 730.5l88.6-47.5 88.7 47.5-88.7 47.5z"/><path class="st21" d="M548.8 730.5v110.9l-118.2 63.3V793.9z"/><path class="st4" d="M312.5 730.5v110.9l118.1 63.3V793.9z"/></g><defs><filter id="Adobe_OpacityMaskFilter_1_" filterUnits="userSpaceOnUse" x="240.3" y="462.8" width="379.7" height="316.1"><feColorMatrix values="1 0 0 0 0 0 1 0 0 0 0 0 1 0 0 0 0 0 1 0"/></filter></defs><mask maskUnits="userSpaceOnUse" x="240.3" y="462.8" width="379.7" height="316.1" id="SVGID_31_"><g class="st50"><linearGradient id="SVGID_32_" gradientUnits="userSpaceOnUse" x1="431.725" y1="463.015" x2="431.725" y2="778.028"><stop offset=".26"/><stop offset="1" stop-color="#fff" stop-opacity=".2"/></linearGradient><path class="st51" d="M203.1 463h457.2v315H203.1z"/></g></mask><path class="st52" d="M342.7 731.4l88.7 47.5 88.6-47.5 100-268.6H240.3z"/><g class="st44"><path class="st22" d="M429.6 664.3l-7.1-12.3h14.2l7.1 12.3z"/><path class="st22" d="M429.6 664.3l-7.1 12.3-7.1-12.3 7.1-12.3 7.1 12.3z"/><path class="st25" d="M422.5 676.6l7.1-12.3h14.2l-7.1 12.3z"/><path class="st22" d="M450.9 676.5l7.1-12.3 7.1 12.3-7.1 12.3z"/><path class="st22" d="M450.9 676.5h-14.2l7.1-12.3H458l-7.1 12.3z"/><path class="st25" d="M436.7 676.5h14.2l7.1 12.3h-14.2z"/><path class="st22" d="M451 701.2h14.2l-7.1 12.3h-14.2zM451 701.2l-7.1-12.3h14.2l7.1 12.3H451z"/><path class="st25" d="M443.9 688.9l7.1 12.3-7.1 12.3-7.1-12.3z"/><g><path class="st22" d="M429.7 713.6l7.1 12.3h-14.2l-7.1-12.3z"/><path class="st22" d="M429.7 713.6l7.1-12.3 7.1 12.3-7.1 12.3-7.1-12.3z"/><path class="st25" d="M436.8 701.3l-7.1 12.3h-14.2l7.1-12.3z"/></g><g><path class="st22" d="M408.3 701.3l-7.1 12.3-7.1-12.3 7.1-12.3z"/><path class="st22" d="M408.3 701.3h14.2l-7.1 12.3h-14.2l7.1-12.3z"/><path class="st25" d="M422.5 701.3h-14.2l-7.1-12.3h14.2z"/></g><g><path class="st22" d="M408.3 676.7h-14.2l7.1-12.3h14.2zM408.3 676.7l7.1 12.3h-14.2l-7.1-12.3h14.2z"/><path class="st25" d="M415.4 689l-7.1-12.3 7.1-12.3 7.1 12.3z"/></g><path class="st24" d="M436.9 676.6h-14.4l-7.2 12.5 7.2 12.4h14.4l7.2-12.4z"/></g></g><g><defs><path id="SVGID_33_" d="M310.8 990.1s-11.4 2.9-14.3 5.8c-2.9 2.9 31.4 2.9 31.4 2.9s-2.9-74.8-5.7-86.3c-2.9-11.5 8.6-66.2 11.4-69.1 2.9-2.9 2.9 5.8 2.9 5.8s0 51.8 5.7 72c5.7 20.1 11.4 48.9 11.4 51.8v14.4s-11.4 2.9-11.4 5.8 28.6 2.9 28.6 2.9-5.7-106.5-5.7-109.4c0-2.9 0-28.8 2.9-40.3 2.9-11.5 2.9-37.4 2.9-37.4v-6h-77.1s0 66.2 2.9 86.3c2.9 20.2 8.6 60.4 8.6 60.4l5.5 40.4z"/></defs><clipPath id="SVGID_34_"><use xlink:href="#SVGID_33_" overflow="visible"/></clipPath><g class="st53"><defs><path id="SVGID_35_" d="M24.2-1268.1H1682v5699.9H24.2z"/></defs><clipPath id="SVGID_36_"><use xlink:href="#SVGID_35_" overflow="visible"/></clipPath><path class="st54" d="M287.9 797.2h88.6v207.2h-88.6z"/></g><defs><path id="SVGID_37_" d="M196.2 686.7c0-1.4-2.5-3.3-2.9 0-.3 2.8 2.9 2.9 0 5.7-2.9 2.9-2.9 11.5 0 11.5s28.9 17.2 28.9 17.2 28.9 20.1 34.6 17.2c5.8-2.9 34.6-22.9 40.4-22.9 5.8 0 46.2-17.2 46.2-25.8v-25c0-.5-.1-.9-.2-1.4-.6-2.1-2.2-8.9.2-13.7 2.9-5.7 4.3-24.3-7.2-27.2-11.5-2.9-20.2 0-23.1 5.7-2.9 5.7-2.9 14.3-2.9 20.1 0 3.6 1.1 9.3 2 13.2.5 2.3 2.6 4 5 4h.5c3.3 0 5.9 3.1 5 6.3-.2.7-.5 1.5-.9 2.3-2.9 5.7-51.9 34.4-57.7 37.2-3 1.5-5.2 3-6.7 4.1-1.3 1-3.1 1.3-4.7.8l-42.3-13.1c-.8-.3-1.5-.7-2.1-1.3-3.1-3.3-12.1-13.5-12.1-14.9"/></defs><clipPath id="SVGID_38_"><use xlink:href="#SVGID_37_" overflow="visible"/></clipPath><g class="st55"><defs><path id="SVGID_39_" d="M24.2-1268.1H1682v5699.9H24.2z"/></defs><clipPath id="SVGID_40_"><use xlink:href="#SVGID_39_" overflow="visible"/></clipPath><path class="st56" d="M185.4 615.3h165.8v128.9H185.4z"/></g><g><defs><path id="SVGID_41_" d="M262.6 708.3c-.1.9.6 2.2.9 3 .9 2.6 1.7 5.1 2.5 7.7.5 1.6 5.9 14.6 5.1 15.3 4.4-3.9 9.5-7.1 14.9-9.4 1.3-.5 2.8-1 4.1-.4 1.6.8 1.9 2.9 2 4.7 1.5 23.9 2.1 47.9 1.8 71.9 0 1.7 0 3.4.7 4.9.6 1.2 1.6 2.1 2.6 3 10 8.6 22.8 14.1 36 14.7 13.2.6 26.7-4 36.4-13 .9-.8 1.8-1.8 2.3-2.9.6-1.2.7-2.5.8-3.8 1.5-20.2-5.6-40.3-5-60.6.5-18 7-35.9 3.8-53.6-.5-2.7-1.3-5.5-3.1-7.5-1.4-1.5-3.4-2.5-5.3-3.3-6.5-2.7-13.3-4.5-20.3-5.3 1 .1-1.3 3.9-1.7 4.2-1.4 1.1-3.8 1.5-5.5 1.8-4.7.8-11.2.2-14.5-3.8-.7-.9-1.3-2-2.3-2.6-.9-.5-1.9-.5-2.9-.5-11 .1-21.4 5.5-30 12.3-7.7 6.1-14.2 13.4-21.1 20.4-.6.6-2.2 1.7-2.5 2.5.3.2.3.2.3.3"/></defs><clipPath id="SVGID_42_"><use xlink:href="#SVGID_41_" overflow="visible"/></clipPath><g class="st57"><defs><path id="SVGID_43_" d="M24.2-1268.1H1682v5699.9H24.2z"/></defs><clipPath id="SVGID_44_"><use xlink:href="#SVGID_43_" overflow="visible"/></clipPath><path class="st58" d="M256.8 667.1h122v162.3h-122z"/></g></g><g><defs><path id="SVGID_45_" d="M310.7 608.4h45.8v58.1h-45.8z"/></defs><clipPath id="SVGID_46_"><use xlink:href="#SVGID_45_" overflow="visible"/></clipPath><g class="st59"><defs><path id="SVGID_47_" d="M24.2-1268.1H1682v5699.9H24.2z"/></defs><clipPath id="SVGID_48_"><use xlink:href="#SVGID_47_" overflow="visible"/></clipPath><g class="st60"><defs><path id="SVGID_49_" d="M307.5 603.8h51.8v69.1h-51.8z"/></defs><clipPath id="SVGID_50_"><use xlink:href="#SVGID_49_" overflow="visible"/></clipPath><g class="st61"><defs><path id="SVGID_51_" d="M314.3 652.7s6.3 0 6.3-6.4-3.2-9.6-6.3-6.4c-3.2 3.2-3.2 0-3.2 0s6.3-9.6 3.2-12.8c-3.2-3.2-6.3-6.4 0-12.8s15.8-9.6 28.4 0c12.6 9.6 15.8 16 12.6 25.5-3.2 9.6-12.6 22.3-12.6 22.3s-9.5 9.6-18.9 0l-9.5-9.4z"/></defs><clipPath id="SVGID_52_"><use xlink:href="#SVGID_51_" overflow="visible"/></clipPath><g class="st62"><defs><path id="SVGID_53_" d="M309.8 608.4H357v58.7h-47.2z"/></defs><clipPath id="SVGID_54_"><use xlink:href="#SVGID_53_" overflow="visible"/></clipPath><path class="st63" d="M304.9 602.7h57.4v69.7h-57.4z"/></g></g></g></g></g></g></svg>