<svg id="Layer_1" xmlns="http://www.w3.org/2000/svg" xmlns:xlink="http://www.w3.org/1999/xlink" viewBox="0 0 378.9 396.3" enable-background="new 0 0 378.9 396.3"><style>.st0{clip-path:url(#SVGID_2_)}.st1{fill:#010f27}.st2{fill:#f2f2f2}.st3,.st4{clip-path:url(#SVGID_4_)}.st3{fill:url(#SVGID_5_)}.st4{opacity:.66}.st5,.st6{fill:#fff}.st6{opacity:.74}.st6,.st7{clip-path:url(#SVGID_4_)}.st8{fill:url(#SVGID_6_)}.st9{fill:#1b0d44}.st10{fill:#110a2d}.st11{fill:#00c4eb}.st12{fill:#f54c43}.st13{fill:#ffaa64}.st14{opacity:.27}.st15{fill:none;stroke:#f54c43;stroke-width:.1719;stroke-linecap:round;stroke-miterlimit:10}.st16{fill:url(#SVGID_7_)}.st17{fill:url(#SVGID_8_)}.st18{fill:url(#SVGID_9_)}.st19{fill:url(#SVGID_10_)}.st20{clip-path:url(#SVGID_4_);fill:none}.st21{fill:#0d1d3a}.st22{filter:url(#Adobe_OpacityMaskFilter)}.st23,.st24{fill-rule:evenodd;clip-rule:evenodd;fill:url(#SVGID_12_)}.st24{mask:url(#SVGID_11_);fill:#fff}.st25{fill:#ff6464}.st26{fill:#ffe38d}.st27{clip-path:url(#SVGID_4_);fill:#f2f2f2}.st28{fill:none;stroke:#fff;stroke-width:.339;stroke-miterlimit:10}.st29{fill:#9dd6e7}.st30{fill:#3360b4}.st31{fill:#4275b6}.st32{opacity:.75;fill:#0f6fff;enable-background:new}.st33,.st34{fill:none;stroke:#1d2761;stroke-width:.6779;stroke-miterlimit:10}.st34{fill:#fff;stroke:#002e61;stroke-width:2.6288}.st35{fill:#20d5d2}.st36{clip-path:url(#SVGID_14_)}.st37{clip-path:url(#SVGID_16_);fill:#ff6464}.st38{clip-path:url(#SVGID_18_)}.st39{clip-path:url(#SVGID_20_);fill:#ffa3a3}.st40{clip-path:url(#SVGID_22_)}.st41{clip-path:url(#SVGID_24_);fill:#00132e}.st42{clip-path:url(#SVGID_26_)}.st43{clip-path:url(#SVGID_28_);enable-background:new}.st44{clip-path:url(#SVGID_30_)}.st45{clip-path:url(#SVGID_32_)}.st46{clip-path:url(#SVGID_34_);fill:#2900aa}.st47{fill:#754c24}.st48{fill:#8c6239}</style><defs><path id="SVGID_1_" d="M0 0h378.9v396.3H0z"/></defs><clipPath id="SVGID_2_"><use xlink:href="#SVGID_1_" overflow="visible"/></clipPath><g class="st0"><path class="st1" d="M390.1 148.9c-3.6-.2-3 5.1-4.2 6.5-1.2 1.4-2.7-4.3-4.1-2.5s.9 7.5.5 7.8c-1 1-4.1-2.5-4.7-.2s5.8 6.8 3.5 7.2c-2.3.4-2.9-2.9-4.1-1.5-1.2 1.4-.1 7 3.1 9 3.3 2.1 9.5 2.5 11.5.5s4.5-4.9 2.3-4.9c-2.1 0-4.5-.6-3.5-1.7.9-.9 7.5-4.5 4.7-5.3-2.8-.8-3.8 1.2-4.2 0-.5-1.2 5.3-4.5 4.9-5.7-.5-1.2-1.9-.4-4.5-.6s2.4-8.3-1.2-8.6z"/><path class="st2" d="M384.3 175.4c.6-4.2 1.3-8.5 2.2-12.7.6-2.7 1.4-5.2 2.3-7.7.3-.7 1.7-3.6.9-4.3l-.3.2c.8.7-.5 3.3-.7 4-1 2.7-1.9 5.2-2.5 8-.9 4.2-1.6 8.4-2.2 12.7 0-.1.3-.1.3-.2z"/></g><g class="st0"><defs><path id="SVGID_3_" d="M396.1 16.6C403.8 24.9 409.3 35 412 46c2.9 12.3-1.2 24.9 3.4 37.2 1.4 3.7 3.4 7.3 3.6 11.2.7 16.3-24.8 26-17.3 43.5 4.3 9.8 7.4 17.8 6.4 28.8-1.2 10.5-4.5 20.7-9.8 29.8-2.4 4.2-5.1 8.3-8.1 12.1-16.2 20.4-38.2 35.9-52.3 57.9-6.5 10.1-11.5 21.9-21.4 28.7-10.8 7.4-25.1 7.2-37.8 4.1s-24.6-8.9-37.2-12.1c-25-6.1-51.5-1.8-73.3 12-19.5 12.5-33.7 31.7-51.1 47s-41.3 27.1-63.4 19.9c-19.4-6.3-31.5-25.1-40.5-43.4-24.5-50.4-36-106.2-40.3-162C-30.8 110.4-39.2 33.4-9.4-7.4 13.3-38.5 61.1-35.3 98.9-43s77.1-4.4 114.9 3.4c39.4 8.1 131.1 4.2 165.6 25.1 8.6 5.2 9.7 23.7 16.7 31.1z"/></defs><clipPath id="SVGID_4_"><use xlink:href="#SVGID_3_" overflow="visible"/></clipPath><linearGradient id="SVGID_5_" gradientUnits="userSpaceOnUse" x1="-31.031" y1="896.324" x2="418.995" y2="896.324" gradientTransform="matrix(1 0 0 -1 0 1056.763)"><stop offset="0" stop-color="#ffe38d"/><stop offset=".689" stop-color="#ff6464"/></linearGradient><path class="st3" d="M396.1 16.6C403.8 24.9 409.3 35 412 46c2.9 12.3-1.2 24.9 3.4 37.2 1.4 3.7 3.4 7.3 3.6 11.2.7 16.3-24.8 26-17.3 43.5 4.3 9.8 7.4 17.8 6.4 28.8-1.2 10.5-4.5 20.7-9.8 29.8-2.4 4.2-5.1 8.3-8.1 12.1-16.2 20.4-38.2 35.9-52.3 57.9-6.5 10.1-11.5 21.9-21.4 28.7-10.8 7.4-25.1 7.2-37.8 4.1s-24.6-8.9-37.2-12.1c-25-6.1-51.5-1.8-73.3 12-19.5 12.5-33.7 31.7-51.1 47s-41.3 27.1-63.4 19.9c-19.4-6.3-31.5-25.1-40.5-43.4-24.5-50.4-36-106.2-40.3-162C-30.8 110.4-39.2 33.4-9.4-7.4 13.3-38.5 61.1-35.3 98.9-43s77.1-4.4 114.9 3.4c39.4 8.1 131.1 4.2 165.6 25.1 8.6 5.2 9.7 23.7 16.7 31.1z"/><path class="st4 st5" d="M-8.7 140.4h.8c20.2.9 41.1 5.2 61.1 2 4.5-.7 6.9-1.9 11-1.7 4.2.2 6.8 1.9 11 2.8 6.3 1.4 13 .9 19.4-.7.5-.1 1-.3 1.3-.8.4-.7-.1-1.5-.7-2-2.6-2.5-6.5-4.7-9.8-5.6-12.2-3.6-24.6-.6-36.6-5.1 10.1-3.9 21.5-1.9 31.7 0 2.3.4 4.4.8 6.4.6 2-.3 4.2-1.3 4.4-3.3.5-8.2-29.9-10.6-35.7-10.7-11.2-.2-20.5.5-31.2-.8 3.3-2.4 6.3-5 8.3-8.5.6-1 1.2-1.8.8-3-.8-2.3-2.6-2.6-5.4-2.6-9.1-.1-17.8-.3-27.3 1.1-9.6 1.4-20.3 4.9-30.3 6.3-4.5 1.4-9.8 2.7-12.4 6.7-1.8 2.7-2 5.3-1.2 8.4 1.9 6.9 6.5 11.5 13.3 14 6.6 2.6 14.1 2.6 21.1 2.9z"/><path class="st6" d="M316.4 52.1c-21.8-2.5-44.3 1.9-66.1-1.6 1.3-1.9 5.5-2 8.8-2.3 3.3-.3 7.3-2.1 5.7-3.8-1-1.1-3.6-1.2-5.7-1.2l-19.8.3c-2 0-4.1.1-5.8-.6-1.7-.6-2.7-2.1-1.5-3 .4-.3.9-.5 1.4-.7 6.2-2.5 12.5-5 18.7-7.5 3.8-1.5 7.8-3.1 12.3-3.5 5.3-.5 10.7.6 15.4 2.2 3.5 1.2 7.8 2.7 11.3 1.4 1.5-.5 2.4-1.5 3.4-2.3 13.4-11.4 43.2-7.3 60.5-2.1 2.3.7 4.8 1.7 5.1 3.2.5 2.4-4.3 3.7-8.1 4.5-3.8.8-8.1 2.9-6.3 5 1.5 1.7 5.5 1.5 8.7 1.1 11.1-1.4 22.6-1.7 33.9-.9 1.3.1 2.7.2 3.4.9.8.7.4 1.7-.2 2.5-4.6 6.6-15 11.1-26.1 13.4-11.1 2.3-23 2.6-34.7 2.9-15.7.4-31.5.8-47.2 1.3 2.6 0 11.5-5.3 14.8-6.2 5.8-1.6 11.9-2.6 18.1-3z"/><g class="st7"><linearGradient id="SVGID_6_" gradientUnits="userSpaceOnUse" x1="206.317" y1="280.888" x2="179.319" y2="19.16"><stop offset=".246" stop-color="#b23f00"/><stop offset=".267" stop-color="#bf5915"/><stop offset=".3" stop-color="#cf7a31"/><stop offset=".337" stop-color="#de9748"/><stop offset=".378" stop-color="#e9ae5b"/><stop offset=".424" stop-color="#f2c06a"/><stop offset=".48" stop-color="#f8cd74"/><stop offset=".555" stop-color="#fcd47a"/><stop offset=".726" stop-color="#fdd67c"/></linearGradient><path class="st8" d="M417.8 276.2C419.9 214 427 152 433.1 90.1c-32 6.7-66.6 15.4-97.5 25.8-31 10.3-61.4 22.3-91.4 35.4-30.1 13.1-59.6 27.4-88.8 42.5-29.3 15.1-58.2 30.8-86.9 47-14.3 8.1-28.6 16.2-42.9 24.4-7.1 4.1-14.2 8.2-21.4 12.3-6.3 3.6-13.3 6.6-18.9 11.2-9.8 7.9-16 19.8-18.3 32-2.9 15.3-.4 31.2 4 46.1 148.4.3 296.8.7 445.2 1 .1-30.7.6-61.1 1.6-91.6z"/><path class="st9" d="M341.5 182.1h-12.4v-51.2l12.4-6.9z"/><path class="st10" d="M341.5 124h24.7v58.1h-24.7z"/><path class="st11" d="M362.5 129.5h1.8v1.8h-1.8z"/><circle class="st12" cx="345.4" cy="130.3" r=".6"/><circle class="st12" cx="347.6" cy="130.3" r=".6"/><circle class="st12" cx="349.9" cy="130.3" r=".6"/><circle class="st13" cx="352.1" cy="130.3" r=".6"/><path class="st11" d="M362.5 133h1.8v1.8h-1.8z"/><circle class="st12" cx="345.4" cy="133.8" r=".6"/><circle class="st12" cx="347.6" cy="133.8" r=".6"/><circle class="st12" cx="349.9" cy="133.8" r=".6"/><circle class="st13" cx="352.1" cy="133.8" r=".6"/><g class="st14"><path class="st15" d="M339.7 127.8l-8.8 5.1M339.7 128.7l-8.8 5.1M339.7 129.6l-8.8 5.1M339.7 130.5l-8.8 5.1M339.7 131.3l-8.8 5.1M339.7 132.2l-8.8 5.1M339.7 133.1l-8.8 5.1M339.7 134l-8.8 5.1M339.7 134.9l-8.8 5.1M339.7 135.7l-8.8 5.2M339.7 136.6l-8.8 5.1M339.7 137.5l-8.8 5.1M339.7 138.4l-8.8 5.1M339.7 139.3l-8.8 5.1M339.7 140.2l-8.8 5.1M339.7 141l-8.8 5.1M339.7 141.9l-8.8 5.1M339.7 142.8l-8.8 5.1M339.7 143.7l-8.8 5.1M339.7 144.6l-8.8 5.1M339.7 145.4l-8.8 5.1M339.7 146.3l-8.8 5.1M339.7 147.2l-8.8 5.1M339.7 148.1l-8.8 5.1M339.7 149l-8.8 5.1M339.7 149.8l-8.8 5.2M339.7 150.7l-8.8 5.1M339.7 151.6l-8.8 5.1M339.7 152.5l-8.8 5.1M339.7 153.4l-8.8 5.1M339.7 154.2l-8.8 5.2M339.7 155.1l-8.8 5.1M339.7 156l-8.8 5.1M339.7 156.9l-8.8 5.1M339.7 157.8l-8.8 5.1M339.7 158.7l-8.8 5.1M339.7 159.5l-8.8 5.1M339.7 160.4l-8.8 5.1M339.7 161.3l-8.8 5.1M339.7 162.2l-8.8 5.1M339.7 163.1l-8.8 5.1M339.7 163.9l-8.8 5.2M339.7 164.8l-8.8 5.1M339.7 165.7l-8.8 5.1M339.7 166.6l-8.8 5.1M339.7 167.5l-8.8 5.1M339.7 168.3l-8.8 5.2M339.7 169.2l-8.8 5.1M339.7 170.1l-8.8 5.1M339.7 171l-8.8 5.1M339.7 171.9l-8.8 5.1M339.7 172.8l-8.8 5.1M339.7 173.6l-8.8 5.1M339.7 174.5l-8.8 5.1M339.7 175.4l-8.8 5.1M339.7 176.3l-8.8 5.1"/></g><linearGradient id="SVGID_7_" gradientUnits="userSpaceOnUse" x1="186.74" y1="329.882" x2="246.901" y2="-2.73"><stop offset=".029" stop-color="#b23f00"/><stop offset=".158" stop-color="#b44200"/><stop offset=".251" stop-color="#bc4b00"/><stop offset=".332" stop-color="#c85b00"/><stop offset=".408" stop-color="#da7100"/><stop offset=".478" stop-color="#f08e00"/><stop offset=".501" stop-color="#f99900"/></linearGradient><path class="st16" d="M417 367.8l6.1-175S204 140.6 172.4 153.1C140.8 165.5-31 222.7-31 222.7v144l448 1.1z"/><linearGradient id="SVGID_8_" gradientUnits="userSpaceOnUse" x1="37.582" y1="167.432" x2="302.786" y2="385.568"><stop offset=".172" stop-color="#fdd67c"/><stop offset=".278" stop-color="#fcd988"/><stop offset=".468" stop-color="#fae3a7"/><stop offset=".598" stop-color="#f9eac0"/><stop offset=".669" stop-color="#fae5ae"/><stop offset=".799" stop-color="#fcdd93"/><stop offset=".913" stop-color="#fdd882"/><stop offset="1" stop-color="#fdd67c"/></linearGradient><path class="st17" d="M-40.2 208.9l173.8-55.5s13.8-4.1 48.3 11S422 225.6 422 225.6l-5 142.1H-32.5l-7.7-158.8z"/><linearGradient id="SVGID_9_" gradientUnits="userSpaceOnUse" x1="-61.731" y1="176.641" x2="98.466" y2="219.383"><stop offset=".029" stop-color="#b23f00"/><stop offset=".07" stop-color="#c55700"/><stop offset=".124" stop-color="#d86f00"/><stop offset=".185" stop-color="#e78200"/><stop offset=".257" stop-color="#f18f00"/><stop offset=".349" stop-color="#f79700"/><stop offset=".535" stop-color="#f99900"/><stop offset=".688" stop-color="#f79700"/><stop offset=".776" stop-color="#f18e00"/><stop offset=".847" stop-color="#e68000"/><stop offset=".909" stop-color="#d66d00"/><stop offset=".965" stop-color="#c25300"/><stop offset="1" stop-color="#b23f00"/></linearGradient><path class="st18" d="M-40.2 208.9s132.4-47.5 175.1-55.8c8.2-1.6 12.6-.5 12.7 1.3.7 11-35.2 31-35.2 31l-150.1 76.8-2.5-53.3z"/><linearGradient id="SVGID_10_" gradientUnits="userSpaceOnUse" x1="57.008" y1="203.215" x2="201.677" y2="364.931"><stop offset=".029" stop-color="#b23f00"/><stop offset=".07" stop-color="#c55700"/><stop offset=".124" stop-color="#d86f00"/><stop offset=".185" stop-color="#e78200"/><stop offset=".257" stop-color="#f18f00"/><stop offset=".349" stop-color="#f79700"/><stop offset=".535" stop-color="#f99900"/><stop offset=".688" stop-color="#f79700"/><stop offset=".776" stop-color="#f18e00"/><stop offset=".847" stop-color="#e68000"/><stop offset=".909" stop-color="#d66d00"/><stop offset=".965" stop-color="#c25300"/><stop offset="1" stop-color="#b23f00"/></linearGradient><path class="st19" d="M-30.5 366.3c54.2 2 109.2 3.8 162.2-7.9 38.3-8.4 74.6-23.7 111.3-37.3 23.2-8.6 47.6-17.2 64.8-35 11.8-12.3 19.5-30.7 13-46.4-6.8-16.2-25.6-23.3-42.5-28-48.9-13.5-99.5-21.2-150.2-20.5-6 .1-13.6-.5-14.6-6.4-16.1 8.2-32.3 15.8-48.4 24.1s-32.2 16.5-48.2 24.7c-8 4.1-16.1 8.2-24.1 12.4-8 4.1-16.3 7.8-24.1 12.4-4 2.3-6.7 4.7-7.9 9.3-1.2 4.5-1.1 9.4-.6 14.1 3 28.1 6.1 56.3 9.3 84.5z"/></g><path class="st20" d="M11.5 82.3C118.8-46.9 348.2 45.1 389.3 66.2c12 6.2 30.8 16.2 35.6 34.7 6.4 25.1-19.5 40.4-28.6 92.9-3.7 21-.2 22.7-4.3 37.3-9.8 34.7-37.7 54.4-56.4 67.7-27 19.1-64.4 45.7-92.9 33-22.9-10.3-20.9-37.6-48.6-46.9-15.2-5.1-29-1.3-39.9 1.7-38.1 10.5-44 35.7-74.6 49.5C53.3 348 18 347.3-2 335.2c-51.9-31.4-53.3-172.5 13.5-252.9z"/><g class="st7"><path class="st21" d="M187.9 154.3l-20.6-11-20.6 11 20.6 11z"/><path class="st21" d="M187.9 154.3v19.3l-20.6 11v-19.3z"/><path class="st9" d="M146.7 154.3v19.3l20.6 11v-19.3z"/><defs><filter id="Adobe_OpacityMaskFilter" filterUnits="userSpaceOnUse" x="134.1" y="107.6" width="66.2" height="55.1"><feColorMatrix values="1 0 0 0 0 0 1 0 0 0 0 0 1 0 0 0 0 0 1 0"/></filter></defs><mask maskUnits="userSpaceOnUse" x="134.1" y="107.6" width="66.2" height="55.1" id="SVGID_11_"><g class="st22"><linearGradient id="SVGID_12_" gradientUnits="userSpaceOnUse" x1="167.472" y1="107.669" x2="167.472" y2="162.569"><stop offset=".26"/><stop offset="1" stop-color="#fff" stop-opacity=".2"/></linearGradient><path class="st23" d="M127.6 107.7h79.7v54.9h-79.7z"/></g></mask><path class="st24" d="M152 154.4l15.4 8.3 15.5-8.3 17.4-46.8h-66.2z"/></g><g class="st7"><path class="st25" d="M167.2 120.9l-2.1-3.6h4.2l2 3.6z"/><path class="st25" d="M167.2 120.9l-2.1 3.6-2.1-3.6 2.1-3.6 2.1 3.6z"/><path class="st13" d="M165.1 124.5l2.1-3.6h4.1l-2 3.6z"/><path class="st25" d="M173.5 124.5l2-3.6 2.1 3.6-2.1 3.6z"/><path class="st25" d="M173.5 124.5h-4.2l2.1-3.6h4.1l-2 3.6z"/><path class="st13" d="M169.3 124.5h4.2l2 3.6h-4.1z"/><path class="st25" d="M173.5 131.7h4.2l-2.1 3.6h-4.2zM173.5 131.7l-2.1-3.6h4.2l2.1 3.6h-4.2z"/><path class="st13" d="M171.4 128.1l2.1 3.6-2.1 3.6-2.1-3.6z"/><g><path class="st25" d="M167.2 135.4l2.1 3.6h-4.2l-2-3.6z"/><path class="st25" d="M167.2 135.4l2.1-3.6 2.1 3.6-2.1 3.6-2.1-3.6z"/><path class="st13" d="M169.3 131.8l-2.1 3.6h-4.1l2-3.6z"/></g><g><path class="st25" d="M160.9 131.8l-2 3.6-2.1-3.6 2.1-3.6z"/><path class="st25" d="M160.9 131.8h4.2l-2.1 3.6h-4.1l2-3.6z"/><path class="st13" d="M165.1 131.8h-4.2l-2-3.6h4.1z"/></g><g><path class="st25" d="M160.9 124.5h-4.1l2-3.6h4.2zM160.9 124.5l2.1 3.6h-4.2l-2-3.6h4.1z"/><path class="st13" d="M163 128.1l-2.1-3.6 2.1-3.6 2.1 3.6z"/></g><path class="st26" d="M169.3 124.5h-4.2l-2.1 3.7 2.1 3.6h4.2l2.2-3.6z"/></g><path class="st27" d="M179.2 61.8c-.7 0-1.2-.5-1.2-1.2v-1.4c0-.7.5-1.2 1.2-1.2s1.2.5 1.2 1.2v1.4c0 .7-.5 1.2-1.2 1.2zM174.9 61.8c-.7 0-1.2-.5-1.2-1.2v-1.4c0-.7.5-1.2 1.2-1.2s1.2.5 1.2 1.2v1.4c0 .7-.6 1.2-1.2 1.2zM170.5 61.8c-.7 0-1.2-.5-1.2-1.2v-1.4c0-.7.5-1.2 1.2-1.2s1.2.5 1.2 1.2v1.4c0 .7-.5 1.2-1.2 1.2zM166.2 61.8c-.7 0-1.2-.5-1.2-1.2v-1.4c0-.7.5-1.2 1.2-1.2s1.2.5 1.2 1.2v1.4c0 .7-.6 1.2-1.2 1.2zM161.8 61.8c-.7 0-1.2-.5-1.2-1.2v-1.4c0-.7.5-1.2 1.2-1.2s1.2.5 1.2 1.2v1.4c0 .7-.5 1.2-1.2 1.2zM157.4 61.8c-.7 0-1.2-.5-1.2-1.2v-1.4c0-.7.5-1.2 1.2-1.2s1.2.5 1.2 1.2v1.4c0 .7-.5 1.2-1.2 1.2zM153.1 61.8c-.7 0-1.2-.5-1.2-1.2v-1.4c0-.7.5-1.2 1.2-1.2s1.2.5 1.2 1.2v1.4c0 .7-.6 1.2-1.2 1.2zM148.7 61.8c-.7 0-1.2-.5-1.2-1.2v-1.4c0-.7.5-1.2 1.2-1.2s1.2.5 1.2 1.2v1.4c0 .7-.5 1.2-1.2 1.2zM144.4 61.8c-.7 0-1.2-.5-1.2-1.2v-1.4c0-.7.5-1.2 1.2-1.2s1.2.5 1.2 1.2v1.4c0 .7-.6 1.2-1.2 1.2zM140 61.8c-.7 0-1.2-.5-1.2-1.2v-1.4c0-.7.5-1.2 1.2-1.2s1.2.5 1.2 1.2v1.4c0 .7-.5 1.2-1.2 1.2zM135.6 61.8c-.7 0-1.2-.5-1.2-1.2v-1.4c0-.7.5-1.2 1.2-1.2s1.2.5 1.2 1.2v1.4c0 .7-.5 1.2-1.2 1.2zM131.3 61.8c-.7 0-1.2-.5-1.2-1.2v-1.4c0-.7.5-1.2 1.2-1.2s1.2.5 1.2 1.2v1.4c0 .7-.5 1.2-1.2 1.2z"/><g class="st7"><path class="st28" d="M161.3 68.1l-5.8 18.2M164.6 68l5.9 18.3"/><path class="st29" d="M154.8 85.1h5.5v5.5h-5.5z"/><path class="st30" d="M160.3 85.1h5.5v5.5h-5.5z"/><path class="st31" d="M165.8 85.1h5.5v5.5h-5.5z"/><g><path class="st29" d="M154.8 96.2h5.5v5.5h-5.5z"/><path class="st31" d="M160.3 96.2h5.5v5.5h-5.5z"/><path class="st30" d="M165.8 96.2h5.5v5.5h-5.5z"/></g><g><path transform="rotate(-180 168.584 93.426)" class="st29" d="M165.8 90.7h5.5v5.5h-5.5z"/><path transform="rotate(-180 163.057 93.426)" class="st30" d="M160.3 90.7h5.5v5.5h-5.5z"/><path transform="rotate(-180 157.53 93.426)" class="st31" d="M154.8 90.7h5.5v5.5h-5.5z"/></g></g><path class="st27" d="M126.9 61.8c-.7 0-1.2-.5-1.2-1.2v-1.4c0-.7.5-1.2 1.2-1.2s1.2.5 1.2 1.2v1.4c0 .7-.5 1.2-1.2 1.2zM186.1 65.9h-1.6c-.7 0-1.3-.6-1.3-1.3v-5.4c0-.7.6-1.3 1.3-1.3h1.6c.7 0 1.3.6 1.3 1.3v5.4c0 .8-.6 1.3-1.3 1.3z"/><g class="st7"><path class="st2" d="M148.9 47.1l4.8 5.8h17.8l-12.2-5.8z"/><path class="st5" d="M158.7 69.2l52.8-.3c1.3 0 2.7-.1 3.7-.9 1.2-1 1.3-3 .6-4.4-.7-1.4-1.9-2.5-3.1-3.6-1.6-1.4-3.3-2.8-4.9-4.2-1.4-1.2-2.9-2.5-4.6-3.1-1.4-.5-3-.7-4.5-.7-4.3-.2-8.6-.2-13-.2h-61.2c-.8 0-1.6 0-2.2-.4-.5-.3-.8-.7-1.2-1.2-1.7-2.2-3.4-4.4-5.2-6.6-.3-.4-.7-.9-1.2-1.2-.6-.4-1.4-.4-2.1-.4-2.6 0-6.5-.6-8.9.3 1.9 4.5 3.1 9 4.5 13.6 1.4 4.7 3.8 9.5 8.1 11.8 3.1 1.6 6.8 1.6 10.4 1.6 10.6 0 21.3-.1 32-.1z"/><path class="st32" d="M206 56.3h-9.5s-.6 1.6 1 2.5h13.7l-3.5-3-1.7.5z"/><path class="st2" d="M114.9 49.2v5H106c-1.4 0-2.5-1.1-2.5-2.5s1.1-2.5 2.5-2.5h8.9zM148.6 63.8l-15 14.5h8.8l32.5-13.9"/></g><g class="st7"><path class="st2" d="M309.2 218l11.3 6.6 34-19.7-11.4-6.5z"/><path class="st10" d="M309.2 220l11.3 6.6v-2l-11.3-6.6zM354.5 204.9v2l-34 19.7v-2z"/><path class="st33" d="M304.1 225.3c-6.6.5-10 .3-10.1-.4-.2-.9 7.2-2.5 7-3.3-.1-.4-2.1-.6-10.5.1"/><path class="st10" d="M315.3 228.3l-7-4c-1.4-.7-3-.7-4.3 0l-1.3.8c-.5.2-.8.7-.9 1.3v2.2c0 .6.4 1 .9 1.3l7 4c1.4.7 3 .7 4.3 0l1.3-.8c.5-.2.8-.7.9-1.3v-2.2c0-.6-.4-1.1-.9-1.3z"/><path class="st2" d="M304 224.2c1.4-.7 3-.7 4.3 0l7 4.1c1.2.7 1.2 1.8 0 2.5l-1.3.8c-1.4.7-3 .7-4.3 0l-7-4c-1.2-.7-1.2-1.8 0-2.5l1.3-.9z"/><path class="st10" d="M339.6 154.8c-.1-.1-.2-.2-.4-.3-.1-.1-.3-.2-.4-.3-.1-.1-.2-.2-.4-.3-.1-.1-.2-.2-.4-.3-.1-.1-.3-.2-.4-.3-.1-.1-.2-.2-.4-.3-.1-.1-.3-.2-.4-.3-.1-.1-.2-.2-.4-.3-.8-.7-2.1-.8-3.5.1L285 180.2c-2.7 1.7-4.3 4.6-4.5 7.8v31.5c0 1.4.5 2.5 1.4 2.9.1.1.2.2.4.3.1.1.3.2.4.3.1.1.2.2.4.3.1.1.3.2.4.3.1.1.2.2.4.3.1.1.3.2.4.3.1.1.2.2.4.3.1.1.2.2.4.3.8.7 2.1.8 3.5-.1l47.9-27.7c2.6-1.7 4.3-4.6 4.5-7.8v-31.5c0-1.4-.5-2.4-1.4-2.9z"/><path class="st34" d="M338.5 156.5c.1 0 .3 0 .3.1.2.4.3.8.3 1.2v31.5c-.2 2.5-1.5 4.7-3.5 6.1l-47.9 27.7c-.3.2-.7.3-1.1.4-.1 0-.3 0-.3-.1-.2-.4-.3-.8-.3-1.2v-31.4c.2-2.5 1.5-4.7 3.5-6.1l47.9-27.7c.4-.3.8-.5 1.1-.5"/><path class="st35" d="M291.5 191.6v2.2l17.4-10v-2.3zM310.9 180.4v2.2l3.8-2.2v-2.2zM305 188.2v2.3l15.5-9v-2.2z"/><path class="st32" d="M318.6 175.9v2.3l9.8-5.7v-2.2zM303.1 189.4v2.2l-5.8 3.3v-2.2z"/><path class="st35" d="M291.5 200.5v2.3l9.7-5.6v-2.3z"/><path class="st32" d="M303.1 193.8v2.3l9.7-5.6v-2.3z"/><path class="st35" d="M314.7 187.1v2.3l17.5-10.1v-2.2z"/><path class="st32" d="M322.5 178.2v2.2l3.8-2.2v-2.3z"/><path class="st35" d="M299.2 200.5v2.3l17.5-10.1v-2.2z"/><path class="st32" d="M318.6 189.4v2.2l3.9-2.2v-2.3zM324.4 186v2.2l9.7-5.6v-2.2z"/></g></g><g class="st0"><path class="st1" d="M325.1 292.4c.4 1.1-.9 2.5-1.8 3.7-3.8 4.9-8.1 9.5-13.1 13.1-5 3.6-11 6.2-17.1 6.5-9.7.5-18.9-4.3-28.5-5.5 1.7-3.8 3.6-7.6 5.9-11.1 2.3-3.6 5-7 8.6-9.2 5.6-3.3 12.5-3.1 19-2.6 8.6.7 17.3 1.6 25.6 4 .8.4 1.3.7 1.4 1.1z"/><path class="st2" d="M265.8 309.8c4.5-1.7 9.1-3.3 13.6-4.8 4.6-1.6 9.1-3.1 13.7-4.6 4.6-1.4 9.2-2.8 13.9-4 2.3-.6 4.7-1 7.1-1.4l7.1-1.1-7.1 1.3c-2.4.4-4.8.8-7.1 1.5-4.7 1.2-9.3 2.7-13.9 4.1-4.6 1.4-9.2 2.9-13.8 4.5l-13.5 4.5zM303.2 291c-.7.9-1.5 1.7-2.2 2.6-.8.8-1.5 1.7-2.2 2.6.4-1.1 1.2-2 1.9-2.8.8-.9 1.6-1.7 2.5-2.4zM311.5 303.5c-1.8 0-3.5-.3-5.2-.6-.9-.2-1.7-.4-2.6-.7-.8-.3-1.7-.6-2.4-1.1.8.4 1.7.6 2.5.8.8.2 1.7.4 2.6.6 1.7.4 3.4.7 5.1 1zM304.1 309.8c-2.3-.7-4.6-1.5-6.8-2.4-2.2-.9-4.4-1.9-6.5-3.2 2.2 1 4.4 2 6.6 2.9l6.7 2.7zM293 289.4c-1.1 1.4-2.2 2.7-3.3 4.2-.5.7-1 1.4-1.5 2.2-.5.7-.9 1.5-1.1 2.4.1-.9.5-1.7.9-2.5s.9-1.5 1.5-2.2c1-1.5 2.1-2.9 3.5-4.1zM292.6 312.7c-2.1-.5-4.2-1.1-6.3-1.9-1-.4-2-.8-3-1.3-.9-.5-2-1.1-2.6-2 .7.8 1.7 1.3 2.7 1.8 1 .5 2 .9 3 1.3 2.1.7 4.2 1.4 6.2 2.1zM282.7 293.8c-.9 1.4-1.7 2.8-2.5 4.3-.4.7-.7 1.5-1 2.2-.3.8-.5 1.6-.6 2.4-.1-.8.1-1.7.3-2.5.2-.8.6-1.6.9-2.3.8-1.5 1.8-2.9 2.9-4.1z"/></g><g class="st0"><path class="st1" d="M261.4 311.5l-.6-.6c-2-2-2.9-4.9-3-7.8-.1-5.9 2.6-11.6 5.7-16.5.1-.2.2-.3.4-.4.4-.1.7.2.9.5 1.4 2.1 1.9 5.1 4 6.6 0-1.6-.7-3.2-1-4.8-.4-1.6-.5-3.4.4-4.8.6-.9 1.4-1.5 2.3-2 2.5-1.6 5.1-3.3 6.3-6 .2-.5.5-1.6 1.1-1.8.9-.4 1.1 2.1 1.3 2.8.1.5 1.4 3 1.3 3.3 1.4-2.5-.2-5.7.9-8.3.8-2 2.8-3.1 4.6-4.4 2.9-2.1 5.3-5 6.8-8.3 1.6 1.6 1.8 4.1 1.7 6.3-.1 3.6-.5 7.2-1.1 10.7-.4 1.9-.9 3.9-2.3 5.2-.3.3-.7.5-.9.8-.2.3-.2.9.1 1.1.2.2.5.1.8.1 1.5-.4 2.5-1.8 3.3-3.1 1.6 4.8.8 10.3-2.1 14.4-.3.4-.5.7-.9 1-.4.3-.9.4-1.3.5-2.3.6-4.7 1.1-7 1.7 2.1-.1 4.2-.2 6.3-.2.3 0 .5 0 .8.1.7.3.6 1.3.4 2.1-1.4 4.6-4.4 8.8-8.5 11.4-4 2.7-9 3.8-13.8 3.2-2.6-.5-5-1.3-6.9-2.8z"/><path class="st5" d="M264.8 312.4c2.4-3.3 4.8-6.5 7.1-9.8 2.3-3.3 4.6-6.6 6.8-10 2.2-3.4 4.4-6.8 6.4-10.3l1.4-2.7c.5-.9.9-1.8 1.3-2.7.5-.9.8-1.9 1.2-2.8.4-.9.6-1.9.9-2.9-.8 4-2.7 7.7-4.6 11.2-2 3.6-4.1 7-6.3 10.4-2.2 3.4-4.5 6.7-6.9 10-2.3 3.2-4.7 6.4-7.3 9.6z"/></g><g class="st0"><path class="st1" d="M200.6 236.3c-7.9 6.4 3.5 16.3 3.7 21.5.2 5.3-13.9-3.8-13.3 2.7.6 6.5 16 13.9 15.9 15.1-.2 4.1-13.3 2.7-10.2 8.4s25 3 20.9 8.3-11.5-.5-11.3 4.8c.2 5.3 13 14.7 23.7 12.8 10.7-1.9 24.4-12.8 24.8-20.9.4-8.1 0-18.7-4.5-14.6s-10.5 7.2-10.4 3.2c.2-3.6 7-23.5-.4-19.9-7.4 3.6-5.5 9.7-8.9 8-3.3-1.6 2.6-19.4-.8-21.1-3.3-1.6-4.8 2.8-10.5 7.2-5.5 4.5-10.8-21.9-18.7-15.5z"/><path class="st2" d="M239.1 302.6c-4.7-6.7-9.2-13.6-13.6-20.6-3.4-5.4-6.7-10.9-9.7-16.6-2.9-5.5-4.8-11.4-7.3-17.1-.6-1.3-2.8-7.3-5-7.2-.3 0-.6.5-.9.5 1.7-.1 3.5 4 4 5.1 2.8 5.5 4.4 11.5 7.2 17.1 5.6 11 12.4 21.4 19.2 31.7 1.7 2.6 3.5 5.1 5.2 7.7l.9-.6z"/></g><g class="st0"><path class="st1" d="M222.1 264.4c.8-.9 2.9-.4 4.5-.1 6.7 1.3 13.4 3.1 19.5 6.3 6.1 3.1 11.6 7.7 15 13.6 5.4 9.3 5.2 20.7 8.9 30.8-4.6.3-9.3.2-13.9-.2-4.7-.5-9.4-1.4-13.4-3.9-6.1-3.8-9.3-10.8-12.1-17.4-3.7-8.8-7.2-17.8-9-27.2 0-1 .2-1.6.5-1.9z"/><path class="st2" d="M269 314c-3.9-3.6-7.8-7.3-11.6-11s-7.6-7.4-11.4-11.2c-3.7-3.8-7.4-7.6-11-11.7-1.8-2-3.4-4.1-4.9-6.3l-4.7-6.5 4.8 6.4c1.6 2.1 3.2 4.3 5 6.2 3.5 4 7.3 7.8 11 11.6s7.5 7.6 11.3 11.3L269 314zM231.7 286.6l3.6.9c1.2.3 2.4.6 3.6.8-1.3.1-2.5-.2-3.7-.4-1.2-.3-2.4-.7-3.5-1.3zM239.8 272.2c.8 1.8 1.5 3.6 2 5.5.2.9.5 1.9.6 2.9.1 1 .3 1.9.2 2.9-.1-1-.2-1.9-.4-2.9-.2-.9-.4-1.9-.7-2.8-.6-1.9-1.2-3.8-1.7-5.6zM249.7 276.3l.6 3.9c.2 1.3.3 2.6.4 4 .1 1.3.2 2.6.2 4 0 1.3 0 2.7-.1 4 0-1.3-.1-2.6-.2-4-.1-1.3-.2-2.6-.3-4l-.6-7.9zM235.3 297.5c1.9.4 3.8.8 5.7 1.1 1 .2 1.9.3 2.9.4 1 .1 1.9.1 2.9-.1-.9.4-1.9.4-2.9.4s-2-.2-2.9-.3c-2-.3-3.9-.8-5.7-1.5zM258.4 286.1c.6 2.3 1 4.7 1.3 7.1.1 1.2.2 2.4.2 3.6 0 1.2-.1 2.5-.7 3.5.2-.6.3-1.1.4-1.7.1-.6 0-1.2 0-1.8 0-1.2-.1-2.4-.3-3.6-.3-2.3-.6-4.7-.9-7.1zM244.7 305.5c.9.1 1.8.1 2.7.2.9 0 1.8.1 2.7.1.9 0 1.8 0 2.7-.1.9-.1 1.8-.3 2.6-.6-.8.5-1.7.7-2.6.9-.9.2-1.8.2-2.8.2-1.6-.1-3.5-.3-5.3-.7z"/></g><g class="st0"><defs><path id="SVGID_13_" d="M344.1 326.9s-3.9 1-4.8 1.9c-1 1 10.6 1 10.6 1s-1-25.3-1.9-29.1c-1-3.9 2.9-22.3 3.9-23.3s1 1.9 1 1.9 0 17.5 1.9 24.3c1.9 6.8 3.9 16.5 3.9 17.5v4.9s-3.9 1-3.9 1.9c0 1 9.6 1 9.6 1s-1.9-35.9-1.9-36.9 0-9.7 1-13.6c1-3.9 1-12.6 1-12.6v-1.9h-26s0 22.3 1 29.1c1 6.8 2.9 20.4 2.9 20.4l1.7 13.5z"/></defs><clipPath id="SVGID_14_"><use xlink:href="#SVGID_13_" overflow="visible"/></clipPath><g class="st36"><defs><path id="SVGID_15_" d="M247.4-435.1h559.4v1923.5H247.4z"/></defs><clipPath id="SVGID_16_"><use xlink:href="#SVGID_15_" overflow="visible"/></clipPath><path class="st37" d="M336.3 261.8h29.9v69.9h-29.9z"/></g><defs><path id="SVGID_17_" d="M305.4 224.5c0-.5-.8-1.1-1 0-.1 1 1 1 0 1.9-1 1-1 3.9 0 3.9s9.7 5.8 9.7 5.8 9.7 6.8 11.7 5.8c1.9-1 11.7-7.7 13.6-7.7 1.9 0 15.6-5.8 15.6-8.7V217c0-.2 0-.3-.1-.5-.2-.7-.8-3 .1-4.6 1-1.9 1.5-8.2-2.4-9.2s-6.8 0-7.8 1.9-1 4.8-1 6.8c0 1.2.4 3.1.7 4.4.2.8.9 1.4 1.7 1.4h.2c1.1 0 2 1 1.7 2.1-.1.2-.2.5-.3.8-1 1.9-17.5 11.6-19.5 12.6-1 .5-1.8 1-2.3 1.4-.5.3-1 .4-1.6.3l-14.3-4.4c-.3-.1-.5-.2-.7-.4-1-1.1-4-4.6-4-5.1"/></defs><clipPath id="SVGID_18_"><use xlink:href="#SVGID_17_" overflow="visible"/></clipPath><g class="st38"><defs><path id="SVGID_19_" d="M247.4-435.1h559.4v1923.5H247.4z"/></defs><clipPath id="SVGID_20_"><use xlink:href="#SVGID_19_" overflow="visible"/></clipPath><path class="st39" d="M301.8 200.5h55.9V244h-55.9z"/></g><g><defs><path id="SVGID_21_" d="M327.8 231.8c0 .3.2.7.3 1 .3.9.6 1.7.9 2.6.2.5 2 4.9 1.7 5.2 1.5-1.3 3.2-2.4 5-3.2.4-.2 1-.4 1.4-.1.5.3.7 1 .7 1.6.5 8.1.7 16.2.6 24.2 0 .6 0 1.2.2 1.7.2.4.5.7.9 1 3.4 2.9 7.7 4.8 12.2 5 4.5.2 9-1.3 12.3-4.4.3-.3.6-.6.8-1 .2-.4.2-.9.3-1.3.5-6.8-1.9-13.6-1.7-20.4.2-6.1 2.4-12.1 1.3-18.1-.2-.9-.4-1.8-1.1-2.5-.5-.5-1.1-.8-1.8-1.1-2.2-.9-4.5-1.5-6.8-1.8.3 0-.4 1.3-.6 1.4-.5.4-1.3.5-1.8.6-1.6.3-3.8.1-4.9-1.3-.2-.3-.4-.7-.8-.9-.3-.2-.6-.2-1-.2-3.7 0-7.2 1.8-10.1 4.2-2.6 2.1-4.8 4.5-7.1 6.9-.3.2-.8.6-.9.9"/></defs><clipPath id="SVGID_22_"><use xlink:href="#SVGID_21_" overflow="visible"/></clipPath><g class="st40"><defs><path id="SVGID_23_" d="M247.4-435.1h559.4v1923.5H247.4z"/></defs><clipPath id="SVGID_24_"><use xlink:href="#SVGID_23_" overflow="visible"/></clipPath><path class="st41" d="M325.9 217.9h41.2v54.8h-41.2z"/></g></g><g><defs><path id="SVGID_25_" d="M344 198.1h15.5v19.6H344z"/></defs><clipPath id="SVGID_26_"><use xlink:href="#SVGID_25_" overflow="visible"/></clipPath><g class="st42"><defs><path id="SVGID_27_" d="M247.4-435.1h559.4v1923.5H247.4z"/></defs><clipPath id="SVGID_28_"><use xlink:href="#SVGID_27_" overflow="visible"/></clipPath><g class="st43"><defs><path id="SVGID_29_" d="M342.9 196.6h17.5v23.3h-17.5z"/></defs><clipPath id="SVGID_30_"><use xlink:href="#SVGID_29_" overflow="visible"/></clipPath><g class="st44"><defs><path id="SVGID_31_" d="M345.3 213.1s2.1 0 2.1-2.2-1.1-3.2-2.1-2.2c-1.1 1.1-1.1 0-1.1 0s2.1-3.2 1.1-4.3c-1.1-1.1-2.1-2.2 0-4.3 2.1-2.2 5.3-3.2 9.6 0s5.3 5.4 4.3 8.6c-1.1 3.2-4.3 7.5-4.3 7.5s-3.2 3.2-6.4 0l-3.2-3.1z"/></defs><clipPath id="SVGID_32_"><use xlink:href="#SVGID_31_" overflow="visible"/></clipPath><g class="st45"><defs><path id="SVGID_33_" d="M343.7 198.1h15.9v19.8h-15.9z"/></defs><clipPath id="SVGID_34_"><use xlink:href="#SVGID_33_" overflow="visible"/></clipPath><path class="st46" d="M342.1 196.2h19.4v23.5h-19.4z"/></g></g></g></g></g><path class="st47" d="M340.6 262H362c3.5 0 6.4-2.9 6.4-6.4v-18.1c0-3.5-2.9-6.4-6.4-6.4h-21.5c-3.5 0-6.4 2.9-6.4 6.4v18.1c.1 3.5 3 6.4 6.5 6.4z"/><path class="st48" d="M338.1 231.2h26.5c2.1 0 3.9-1.7 3.9-3.9v-3.6c0-2.1-1.7-3.9-3.9-3.9h-26.5c-2.1 0-3.9 1.7-3.9 3.9v3.6c0 2.1 1.7 3.9 3.9 3.9z"/></g></svg>