<svg width="236" height="124" viewBox="0 0 236 124" xmlns="http://www.w3.org/2000/svg"><title>Group 2 Copy</title><g fill="none" fill-rule="evenodd"><path fill="#20D5D2" d="M197 116V41h-6v75z"/><path fill="#0F6FFF" d="M197 123v-19h-6v19z"/><path fill="#0F6FFF" d="M197 113V8h-6v105z"/><path fill="#FF6464" d="M197 124v-12h-6v12zM206 121V85h-6v36z"/><path fill="#20D5D2" d="M206 124v-7h-6v7z"/><path fill="#20D5D2" d="M206 124v-7h-6v7zM187 118V58h-6v60z"/><path fill="#20D5D2" d="M187 122V97h-6v25z"/><path fill="#20D5D2" d="M187 122V97h-6v25zM46 123v-17h-6v17z"/><path fill="#20D5D2" d="M46 122V95h-6v27z"/><path fill="#0F6FFF" d="M46 121V88h-6v33z"/><path fill="#FFE38D" d="M37 116V41h-6v75z"/><path fill="#20D5D2" d="M26 118V58h-6v60z"/><path fill="#0F6FFF" d="M26 121V85h-6v36z"/><path fill="#FFE38D" d="M16 116V42h-6v74z"/><path fill="#FF6464" d="M16 124v-7h-6v7z"/><path fill="#FFF" d="M26 122V99h-6v23zM16 123v-17h-6v17z"/><path fill="#0F6FFF" d="M177 121V84h-6v37z"/><path fill="#20D5D2" d="M167 123v-17h-6v17zM159 124v-10h-6v10z"/><path fill="#FFE38D" d="M167 122V95h-6v27z"/><path fill="#0F6FFF" d="M118 119V67h-6v52z"/><path fill="#FFE38D" d="M118 121V88h-6v33z"/><path fill="#FF6464" d="M118 118V60h-6v58z"/><path fill="#FFF" d="M118 124v-7h-6v7z"/><path fill="#0F6FFF" d="M118 122V95h-6v27z"/><path fill="#FFE38D" d="M149 116V39h-6v77z"/><path fill="#0F6FFF" d="M127 123v-20h-6v20z"/><path fill="#FF6464" d="M167 120V74h-6v46z"/><path fill="#0F6FFF" d="M159 112V0h-6v112z"/><path fill="#20D5D2" d="M137 121V85h-6v36z"/><path fill="#20D5D2" d="M137 114V21h-6v93z"/><path fill="#FF6464" d="M127 116V42h-6v74z"/><path fill="#20D5D2" d="M127 124v-7h-6v7z"/><path fill="#FFF" d="M137 121V85h-6v36zM127 123v-17h-6v17zM227 123v-17h-6v17z"/><path fill="#0F6FFF" d="M216 124v-7h-6v7zM236 123v-17h-6v17z"/><path fill="#0F6FFF" d="M216 122V93h-6v29zM236 118V58h-6v60zM98 118V61h-6v57z"/><path fill="#20D5D2" d="M98 116V35h-6v81z"/><path fill="#FFF" d="M98 124v-10h-6v10z"/><path fill="#20D5D2" d="M98 124v-10h-6v10z"/><path fill="#0F6FFF" d="M98 119V65h-6v54z"/><path fill="#FFE38D" d="M108 120V78h-6v42z"/><path fill="#FF6464" d="M87 120V74h-6v46z"/><path fill="#20D5D2" d="M78 121V85h-6v36z"/><path fill="#FFE38D" d="M78 121V85h-6v36z"/><path fill="#0F6FFF" d="M78 124v-7h-6v7z"/><path fill="#20D5D2" d="M67 116V42h-6v74z"/><path fill="#20D5D2" d="M67 116V42h-6v74z"/><path fill="#0F6FFF" d="M78 123v-17h-6v17z"/><path fill="#FFE38D" d="M67 123v-17h-6v17z"/><path fill="#0F6FFF" d="M78 119V70h-6v49z"/><path fill="#FFF" d="M67 123v-17h-6v17z"/><path fill="#0F6FFF" d="M6 120V77H0v43z"/><path fill="#20D5D2" d="M6 120V74H0v46z"/><path fill="#20D5D2" d="M6 124v-10H0v10z"/><path fill="#20D5D2" d="M6 119V65H0v54zM56 124v-10h-6v10z"/><path fill="#FF6464" d="M56 114V16h-6v98z"/><path fill="#20D5D2" d="M227 118V58h-6v60zM216 124v-11h-6v11z"/><path fill="#20D5D2" d="M216 116V42h-6v74z"/></g></svg>