<svg width="459" height="208" viewBox="0 0 459 208" xmlns="http://www.w3.org/2000/svg" xmlns:xlink="http://www.w3.org/1999/xlink"><title>Group 2</title><defs><path d="M19.868 55.528a2 2 0 0 1-.772-.319L1.571 43.18a2 2 0 0 1 0-3.298l17.525-12.032c.24-.164.503-.27.772-.319V10c0-5.523 4.478-10 10-10h164.026c5.522 0 10 4.477 10 10v64c0 5.523-4.478 10-10 10H29.868c-5.522 0-10-4.477-10-10V55.528z" id="b"/><filter x="-6.4%" y="-9.5%" width="112.8%" height="131%" filterUnits="objectBoundingBox" id="a"><feOffset dy="5" in="SourceAlpha" result="shadowOffsetOuter1"/><feGaussianBlur stdDeviation="3.5" in="shadowOffsetOuter1" result="shadowBlurOuter1"/><feColorMatrix values="0 0 0 0 0 0 0 0 0 0 0 0 0 0 0 0 0 0 0.5 0" in="shadowBlurOuter1"/></filter></defs><g fill="none" fill-rule="evenodd"><path fill="#20D5D2" d="M0 34h66v5H0z"/><path fill="#0F6FFF" d="M70 34h17v5H70zM90 34h93v5H90z"/><path fill="#FF6464" d="M190 34h11v5h-11zM0 26h32v5H0z"/><path fill="#20D5D2" d="M36 26h6v5h-6zM46 26h6v5h-6zM54 43h53v5H54zM112 43h22v5h-22zM139 43h22v5h-22zM34 168h15v5H34zM53 168h24v5H53z"/><path fill="#0F6FFF" d="M0 168h29v5H0z"/><path fill="#FFE38D" d="M0 176h66v5H0z"/><path fill="#20D5D2" d="M54 185h53v5H54z"/><path fill="#0F6FFF" d="M137 185h32v5h-32z"/><path fill="#FFE38D" d="M74 194h65v5H74z"/><path fill="#FF6464" d="M143 194h6v5h-6z"/><path fill="#FFF" d="M112 185h20v5h-20zM54 194h15v5H54z"/><path fill="#0F6FFF" d="M0 52h33v5H0z"/><path fill="#20D5D2" d="M45 61h15v5H45zM104 68h9v5h-9z"/><path fill="#FFE38D" d="M63 61h24v5H63z"/><path fill="#0F6FFF" d="M54 104h46v5H54z"/><path fill="#FFE38D" d="M133 104h29v5h-29z"/><path fill="#FF6464" d="M178 104h51v5h-51z"/><path fill="#FFF" d="M167 104h6v5h-6z"/><path fill="#0F6FFF" d="M105 104h24v5h-24z"/><path fill="#FFE38D" d="M54 77h68v5H54z"/><path fill="#0F6FFF" d="M153 96h18v5h-18z"/><path fill="#FF6464" d="M0 61h41v5H0z"/><path fill="#0F6FFF" d="M0 68h99v5H0z"/><path fill="#20D5D2" d="M54 87h32v5H54zM125 87h82v5h-82z"/><path fill="#FF6464" d="M74 96h65v5H74z"/><path fill="#20D5D2" d="M143 96h6v5h-6z"/><path fill="#FFF" d="M89 87h32v5H89zM54 96h15v5H54zM112 8h15v5h-15z"/><path fill="#0F6FFF" d="M167 17h6v5h-6zM0 0h15v5H0zM54 17h26v5H54zM20 0h53v5H20zM0 122h50v5H0z"/><path fill="#20D5D2" d="M54 122h72v5H54z"/><path fill="#FFF" d="M129 122h9v5h-9z"/><path fill="#20D5D2" d="M143 122h9v5h-9z"/><path fill="#0F6FFF" d="M156 122h48v5h-48z"/><path fill="#FFE38D" d="M0 113h37v5H0z"/><path fill="#FF6464" d="M54 131h41v5H54z"/><path fill="#20D5D2" d="M54 139h32v5H54z"/><path fill="#FFE38D" d="M109 139h32v5h-32z"/><path fill="#0F6FFF" d="M191 139h6v5h-6z"/><path fill="#20D5D2" d="M74 149h65v5H74zM143 149h65v5h-65z"/><path fill="#0F6FFF" d="M89 139h15v5H89z"/><path fill="#FFE38D" d="M212 149h15v5h-15z"/><path fill="#0F6FFF" d="M145 139h43v5h-43z"/><path fill="#FFF" d="M54 149h15v5H54z"/><path fill="#0F6FFF" d="M54 203h38v5H54z"/><path fill="#20D5D2" d="M96 203h41v5H96zM143 203h9v5h-9zM156 203h48v5h-48zM0 159h9v5H0z"/><path fill="#FF6464" d="M13 159h87v5H13z"/><path fill="#20D5D2" d="M54 8h53v5H54zM85 17h10v5H85zM98 17h65v5H98z"/><g transform="translate(248 65)"><use fill="#000" filter="url(#a)" xlink:href="#b"/><use fill="#FF6464" xlink:href="#b"/></g><text font-family="IBMPlexSans-Text, IBM Plex Sans" font-size="16" font-weight="500" fill="#FFF" transform="translate(248 65)"><tspan x="35.568" y="37.451">Syntax bug: squash?</tspan></text></g></svg>