<svg width="140" height="121" viewBox="0 0 140 121" xmlns="http://www.w3.org/2000/svg" xmlns:xlink="http://www.w3.org/1999/xlink"><title>Pipes</title><defs><path d="M38.174 58.6a5.608 5.608 0 0 1 5.608-5.605h6.09" id="a"/><path d="M17.14 29.715V14.957c0-3.096 2.343-5.605 5.23-5.605h66.667c2.889 0 5.23 2.509 5.23 5.606v27.461c0 3.093-2.34 5.601-5.228 5.601h-6.152" id="b"/><path d="M91.163 60.01h35.058c3.098 0 5.608 2.145 5.608 4.793v23.482c0 2.646-2.513 4.79-5.607 4.79h-1.22" id="c"/><path d="M17.292 79.42a5.604 5.604 0 0 1-5.606-5.603V28.985v17.373" id="d"/><path d="M114.18 101.952H99.873c-3.097 0-5.607-3.79-5.607-8.47V25.717v26.259" id="e"/><path d="M88.62 111.78H5.61c-3.098 0-5.61-2.144-5.61-4.793V83.507c0-2.648 2.509-4.793 5.61-4.793h7.361" id="f"/><path d="M98.748 111.78h-83.01c-3.098 0-5.61-2.144-5.61-4.793V83.507c0-2.648 2.509-4.793 5.61-4.793h7.361" id="g"/><path d="M59.988 92.112a5.608 5.608 0 0 1 5.608-5.605h6.09" id="h"/><path d="M38.174 58.6a5.608 5.608 0 0 1 5.608-5.605h6.09" id="i"/><path d="M70.895 97.567a5.608 5.608 0 0 1 5.608-5.605h6.09" id="j"/><path d="M114.523 92.891a5.608 5.608 0 0 1 5.608-5.605h6.09" id="k"/><path d="M17.14 47.393a5.608 5.608 0 0 1 5.607-5.605h6.09" id="l"/><path d="M74.79 78.863a5.608 5.608 0 0 1 5.609-5.605h6.09" id="m"/><path d="M102.058 26.647a5.608 5.608 0 0 1 5.608-5.605h6.09" id="n"/><path d="M26.488 53.145a5.608 5.608 0 0 1 5.608-5.605h6.09" id="o"/><path d="M82.581 102.243a5.608 5.608 0 0 1 5.608-5.605h6.09" id="p"/><path d="M68.558 21.042h35.058c3.097 0 5.608 2.146 5.608 4.794v23.482" id="q"/><rect id="r" x="48.302" y="54.554" width="2.524" height="8.406" rx=".864"/><rect id="s" x="10.907" y="74.817" width="2.524" height="8.406" rx=".864"/><rect id="t" x="108.291" y="17.146" width="2.524" height="8.406" rx=".864"/><rect id="u" x="124.651" y="88.845" width="2.524" height="8.406" rx=".864"/><rect id="v" x="92.709" y="98.197" width="2.524" height="8.406" rx=".864"/><rect id="w" x="26.488" y="42.864" width="2.524" height="8.406" rx=".864"/><rect id="x" x="70.116" y="88.066" width="2.524" height="8.406" rx=".864"/><rect id="y" x="73.835" y="68.759" width="2.524" height="8.406" rx=".864"/><rect id="z" x="112.788" y="22.778" width="2.524" height="8.406" rx=".864"/><rect id="A" x="112.788" y="83.566" width="2.524" height="8.406" rx=".864"/><rect id="B" x="81.626" y="92.139" width="2.524" height="8.406" rx=".864"/><rect id="C" x="67.602" y="44.599" width="2.524" height="8.406" rx=".864"/><rect id="D" x="16.184" y="37.585" width="2.524" height="8.406" rx=".864"/><rect id="E" x="16.184" y="24.336" width="2.524" height="8.406" rx=".864"/><rect id="F" x="37.219" y="49.275" width="2.524" height="8.406" rx=".864"/><rect id="G" x="85.698" y="74.817" width="2.524" height="8.406" rx=".864"/><rect id="H" x="9.349" y="107.549" width="2.524" height="8.406" rx=".864"/></defs><g fill="none" fill-rule="evenodd"><g transform="matrix(1 0 0 -1 4.28 112.196)"><use stroke="#00132E" stroke-width="7" xlink:href="#a"/><use stroke="#F0F3F6" stroke-width="2" xlink:href="#a"/></g><g transform="translate(4.28 .6)"><use stroke="#00132E" stroke-width="7" xlink:href="#b"/><use stroke="#F0F3F6" stroke-width="2" xlink:href="#b"/></g><g transform="translate(4.28 .6)"><use stroke="#00132E" stroke-width="7" xlink:href="#c"/><use stroke="#F0F3F6" stroke-width="2" xlink:href="#c"/></g><g fill="#F0F3F6" stroke="#00132E" stroke-linejoin="round" stroke-width="5.39"><path d="M67.773 61.338L53.945 85.549h27.657L95.43 61.338v-.002l-.002.002zM67.772 60.663L53.944 36.451 40.116 60.663l13.829 24.214 13.828-24.214z"/><path d="M53.945 36.45l13.828 24.214H95.43l.001-.002-13.828-24.211z"/></g><g transform="matrix(-1 0 0 1 33.257 .6)"><use stroke="#00132E" stroke-width="7" xlink:href="#d"/><use stroke="#F0F3F6" stroke-width="2" xlink:href="#d"/></g><g transform="matrix(-1 0 0 1 212.726 .6)"><use stroke="#00132E" stroke-width="7" xlink:href="#e"/><use stroke="#F0F3F6" stroke-width="2" xlink:href="#e"/></g><g transform="translate(4.28 .6)"><use stroke="#00132E" stroke-width="7" xlink:href="#f"/><use stroke="#F0F3F6" stroke-width="2" xlink:href="#f"/></g><g transform="matrix(-1 0 0 1 113.155 .6)"><use stroke="#00132E" stroke-width="7" xlink:href="#g"/><use stroke="#F0F3F6" stroke-width="2" xlink:href="#g"/></g><g transform="matrix(1 0 0 -1 4.28 179.22)"><use stroke="#00132E" stroke-width="7" xlink:href="#h"/><use stroke="#F0F3F6" stroke-width="2" xlink:href="#h"/></g><g transform="matrix(1 0 0 -1 4.28 112.196)"><use stroke="#00132E" stroke-width="7" xlink:href="#i"/><use stroke="#F0F3F6" stroke-width="2" xlink:href="#i"/></g><g transform="matrix(-1 0 0 1 157.768 .6)"><use stroke="#00132E" stroke-width="7" xlink:href="#j"/><use stroke="#F0F3F6" stroke-width="2" xlink:href="#j"/></g><g transform="matrix(1 0 0 -1 4.28 180.778)"><use stroke="#00132E" stroke-width="7" xlink:href="#k"/><use stroke="#F0F3F6" stroke-width="2" xlink:href="#k"/></g><g transform="matrix(1 0 0 -1 4.28 89.782)"><use stroke="#00132E" stroke-width="7" xlink:href="#l"/><use stroke="#F0F3F6" stroke-width="2" xlink:href="#l"/></g><g transform="matrix(1 0 0 -1 4.28 152.722)"><use stroke="#00132E" stroke-width="7" xlink:href="#m"/><use stroke="#F0F3F6" stroke-width="2" xlink:href="#m"/></g><g transform="matrix(-1 0 0 1 220.094 .6)"><use stroke="#00132E" stroke-width="7" xlink:href="#n"/><use stroke="#F0F3F6" stroke-width="2" xlink:href="#n"/></g><g transform="matrix(-1 0 0 1 68.954 .6)"><use stroke="#00132E" stroke-width="7" xlink:href="#o"/><use stroke="#F0F3F6" stroke-width="2" xlink:href="#o"/></g><g transform="matrix(1 0 0 -1 4.28 199.483)"><use stroke="#00132E" stroke-width="7" xlink:href="#p"/><use stroke="#F0F3F6" stroke-width="2" xlink:href="#p"/></g><g transform="matrix(-1 0 0 1 182.061 .6)"><use stroke="#00132E" stroke-width="7" xlink:href="#q"/><use stroke="#F0F3F6" stroke-width="2" xlink:href="#q"/></g><g transform="rotate(88 -27.652 79.787)"><path d="M7.14 0A7.137 7.137 0 0 0 .002 7.135a7.137 7.137 0 0 0 7.14 7.132 7.137 7.137 0 0 0 7.14-7.134 7.13 7.13 0 0 0-2.093-5.044A7.143 7.143 0 0 0 7.14 0zM.856 7.133c0-1.04.259-2.064.755-2.979l4.898 2.83a.172.172 0 0 1 0 .298l-4.898 2.83a6.24 6.24 0 0 1-.755-2.979zm6.101 6.265a6.27 6.27 0 0 1-5.164-2.97l4.898-2.83a.173.173 0 0 1 .259.148l.007 5.652zm0-6.887a.172.172 0 0 1-.258.149L1.8 3.829A6.27 6.27 0 0 1 6.957.861v5.65zM7.322.86a6.27 6.27 0 0 1 5.166 2.978L7.59 6.669a.173.173 0 0 1-.258-.148L7.322.86zm0 12.546v-5.66a.172.172 0 0 1 .258-.15l4.899 2.831a6.27 6.27 0 0 1-5.157 2.98zm5.194-3.382l-4.753-2.74a.172.172 0 0 1 0-.298l4.753-2.741a.17.17 0 0 1 .237.069 6.275 6.275 0 0 1 0 5.643.17.17 0 0 1-.237.067z" stroke="#FFAA64" fill="#FFAA64" fill-rule="nonzero"/><ellipse fill="#FFAA64" cx="7.149" cy="7.143" rx="1" ry="1"/><ellipse fill="#FFF" cx="7.151" cy="7.145" rx="1" ry="1"/></g><path d="M53.264 110.65l-.776-2.13-1.395-1.786-1.877-1.266-2.175-.624-2.261.08-2.127.773-1.784 1.394-1.267 1.879-.625 2.18.079 2.267.776 2.13 1.395 1.786 1.877 1.267 2.175.623 2.261-.079 2.126-.773 1.785-1.395 1.267-1.878.625-2.18-.08-2.267zm.319-.065c.193.598.812.428.838 1.16.025.73-.596.608-.754 1.204-.003.631.641.66.439 1.365-.201.7-.753.395-1.088.91-.2.601.406.827-.005 1.436-.407.604-.838.143-1.315.529-.376.51.13.911-.449 1.364-.574.448-.841-.123-1.414.097-.514.368-.157.906-.848 1.158-.685.25-.762-.379-1.377-.345-.6.192-.428.813-1.161.838-.73.026-.608-.597-1.206-.754-.627 0-.657.64-1.361.439-.703-.202-.393-.757-.916-1.091-.595-.193-.821.406-1.428-.003-.607-.41-.14-.842-.534-1.321-.507-.367-.907.133-1.358-.444-.45-.577.128-.843-.1-1.421-.368-.507-.903-.155-1.154-.843-.25-.687.381-.762.345-1.38-.193-.599-.812-.428-.838-1.16-.026-.73.596-.608.754-1.205.003-.63-.641-.659-.439-1.365.2-.7.753-.394 1.088-.91.2-.6-.406-.826.005-1.435.407-.604.838-.143 1.315-.53.376-.509-.13-.91.449-1.363.574-.449.84.123 1.414-.097.514-.369.157-.907.848-1.158.685-.25.762.378 1.376.345.6-.193.429-.813 1.162-.839.73-.025.608.597 1.206.754.627 0 .657-.64 1.361-.438.703.201.393.756.915 1.09.596.193.822-.406 1.429.004.607.409.139.841.534 1.32.507.368.907-.132 1.357.445.45.576-.127.843.1 1.42.368.508.904.155 1.154.844.25.686-.38.762-.344 1.38z" fill="#FFAA64"/><g transform="translate(4.28 .6)"><use fill="#FFAA64" xlink:href="#r"/><rect stroke="#00132E" x="48.802" y="55.054" width="1.524" height="7.406" rx=".762"/></g><g transform="translate(4.28 .6)"><use fill="#FFAA64" xlink:href="#s"/><rect stroke="#00132E" x="11.407" y="75.317" width="1.524" height="7.406" rx=".762"/></g><g transform="translate(4.28 .6)"><use fill="#FFAA64" xlink:href="#t"/><rect stroke="#00132E" x="108.791" y="17.646" width="1.524" height="7.406" rx=".762"/></g><g transform="translate(4.28 .6)"><use fill="#FFAA64" xlink:href="#u"/><rect stroke="#00132E" x="125.151" y="89.345" width="1.524" height="7.406" rx=".762"/></g><g transform="translate(4.28 .6)"><use fill="#FFAA64" xlink:href="#v"/><rect stroke="#00132E" x="93.209" y="98.697" width="1.524" height="7.406" rx=".762"/></g><g transform="translate(4.28 .6)"><use fill="#FFAA64" xlink:href="#w"/><rect stroke="#00132E" x="26.988" y="43.364" width="1.524" height="7.406" rx=".762"/></g><g transform="translate(4.28 .6)"><use fill="#FFAA64" xlink:href="#x"/><rect stroke="#00132E" x="70.616" y="88.566" width="1.524" height="7.406" rx=".762"/></g><g transform="rotate(90 76.936 75.402)"><use fill="#FFAA64" xlink:href="#y"/><rect stroke="#00132E" x="74.335" y="69.259" width="1.524" height="7.406" rx=".762"/></g><g transform="rotate(90 115.89 29.42)"><use fill="#FFAA64" xlink:href="#z"/><rect stroke="#00132E" x="113.288" y="23.278" width="1.524" height="7.406" rx=".762"/></g><g transform="rotate(90 115.89 90.21)"><use fill="#FFAA64" xlink:href="#A"/><rect stroke="#00132E" x="113.288" y="84.066" width="1.524" height="7.406" rx=".762"/></g><g transform="rotate(90 84.727 98.782)"><use fill="#FFAA64" xlink:href="#B"/><rect stroke="#00132E" x="82.126" y="92.639" width="1.524" height="7.406" rx=".762"/></g><g transform="rotate(90 70.703 51.242)"><use fill="#FFAA64" xlink:href="#C"/><rect stroke="#00132E" x="68.102" y="45.099" width="1.524" height="7.406" rx=".762"/></g><g transform="rotate(90 19.285 44.228)"><use fill="#FFAA64" xlink:href="#D"/><rect stroke="#00132E" x="16.684" y="38.085" width="1.524" height="7.406" rx=".762"/></g><g transform="rotate(90 19.285 30.98)"><use fill="#FFAA64" xlink:href="#E"/><rect stroke="#00132E" x="16.684" y="24.836" width="1.524" height="7.406" rx=".762"/></g><g transform="rotate(90 40.32 55.918)"><use fill="#FFAA64" xlink:href="#F"/><rect stroke="#00132E" x="37.719" y="49.775" width="1.524" height="7.406" rx=".762"/></g><g transform="translate(4.28 .6)"><use fill="#FFAA64" xlink:href="#G"/><rect stroke="#00132E" x="86.198" y="75.317" width="1.524" height="7.406" rx=".762"/></g><g transform="translate(4.28 .6)"><use fill="#FFAA64" xlink:href="#H"/><rect stroke="#00132E" x="9.849" y="108.049" width="1.524" height="7.406" rx=".762"/></g><g transform="rotate(88 30.287 33.19)"><path d="M7.14 0A7.137 7.137 0 0 0 .002 7.135a7.137 7.137 0 0 0 7.14 7.132 7.137 7.137 0 0 0 7.14-7.134 7.13 7.13 0 0 0-2.093-5.044A7.143 7.143 0 0 0 7.14 0zM.856 7.133c0-1.04.259-2.064.755-2.979l4.898 2.83a.172.172 0 0 1 0 .298l-4.898 2.83a6.24 6.24 0 0 1-.755-2.979zm6.101 6.265a6.27 6.27 0 0 1-5.164-2.97l4.898-2.83a.173.173 0 0 1 .259.148l.007 5.652zm0-6.887a.172.172 0 0 1-.258.149L1.8 3.829A6.27 6.27 0 0 1 6.957.861v5.65zM7.322.86a6.27 6.27 0 0 1 5.166 2.978L7.59 6.669a.173.173 0 0 1-.258-.148L7.322.86zm0 12.546v-5.66a.172.172 0 0 1 .258-.15l4.899 2.831a6.27 6.27 0 0 1-5.157 2.98zm5.194-3.382l-4.753-2.74a.172.172 0 0 1 0-.298l4.753-2.741a.17.17 0 0 1 .237.069 6.275 6.275 0 0 1 0 5.643.17.17 0 0 1-.237.067z" stroke="#FFAA64" fill="#FFAA64" fill-rule="nonzero"/><ellipse fill="#FFAA64" cx="7.149" cy="7.143" rx="1" ry="1"/><ellipse fill="#FFF" cx="7.151" cy="7.145" rx="1" ry="1"/></g><path d="M62.613 7.778l-.776-2.131-1.395-1.786-1.877-1.266-2.176-.624-2.26.079-2.127.774-1.784 1.394-1.267 1.879-.625 2.18.079 2.266.775 2.131 1.396 1.786 1.877 1.266 2.175.624 2.26-.079 2.127-.774 1.784-1.394 1.268-1.879.625-2.18-.08-2.266zm.318-.066c.193.598.813.427.839 1.16.025.73-.596.608-.754 1.204-.003.631.64.66.439 1.365-.201.7-.754.395-1.088.91-.2.6.406.827-.005 1.436-.408.604-.838.143-1.315.529-.376.51.13.911-.45 1.364-.573.448-.84-.123-1.413.096-.514.369-.158.907-.848 1.158-.685.25-.762-.378-1.377-.345-.6.193-.428.814-1.162.84-.73.025-.607-.598-1.205-.755-.628 0-.657.64-1.361.439-.703-.202-.393-.757-.916-1.091-.595-.193-.821.406-1.428-.003-.607-.41-.14-.842-.534-1.321-.507-.367-.907.132-1.358-.444-.45-.577.128-.844-.1-1.422-.368-.506-.903-.154-1.154-.842-.25-.687.381-.763.345-1.38-.193-.599-.813-.428-.838-1.161-.026-.73.596-.608.754-1.204.003-.631-.642-.66-.44-1.365.202-.7.754-.395 1.089-.91.2-.6-.406-.826.005-1.436.407-.604.838-.143 1.315-.528.376-.51-.13-.912.448-1.365.575-.448.842.124 1.415-.096.514-.369.157-.907.847-1.158.686-.25.762.378 1.377.345.6-.193.429-.813 1.162-.84.73-.025.608.598 1.205.755.628 0 .658-.64 1.362-.439.703.202.392.757.915 1.091.596.193.822-.406 1.429.003.606.41.139.842.534 1.322.506.366.907-.133 1.357.444.45.576-.127.843.1 1.42.368.507.904.155 1.154.843.25.687-.38.763-.345 1.38z" fill="#FFAA64"/><g><g transform="rotate(88 33.192 91.535)"><path d="M4.868 0A4.866 4.866 0 0 0 0 4.865 4.866 4.866 0 0 0 4.87 9.727 4.862 4.862 0 1 0 4.868 0zM.584 4.864c0-.71.176-1.408.514-2.032l3.34 1.93a.117.117 0 0 1 0 .203l-3.34 1.93a4.255 4.255 0 0 1-.514-2.031zm4.16 4.27A4.276 4.276 0 0 1 1.222 7.11l3.34-1.93a.118.118 0 0 1 .176.101l.006 3.854zm0-4.695a.117.117 0 0 1-.177.102l-3.34-1.93A4.276 4.276 0 0 1 4.745.587V4.44zM4.992.587a4.276 4.276 0 0 1 3.523 2.03l-3.34 1.93A.118.118 0 0 1 5 4.446L4.992.587zm0 8.554v-3.86a.117.117 0 0 1 .177-.101l3.34 1.93a4.276 4.276 0 0 1-3.517 2.031zm3.542-2.306L5.293 4.966a.117.117 0 0 1 0-.202l3.24-1.869a.116.116 0 0 1 .162.047c.61 1.21.61 2.637 0 3.848a.116.116 0 0 1-.161.045z" stroke="#FFAA64" stroke-width=".7" fill="#FFAA64" fill-rule="nonzero"/><ellipse fill="#FFAA64" cx="4.875" cy="4.87" rx="1" ry="1"/><ellipse fill="#FFF" cx="4.876" cy="4.872" rx="1" ry="1"/></g><path d="M123.659 59.269l-.53-1.453-.95-1.218-1.28-.863-1.483-.425-1.542.054-1.45.527-1.216.95-.864 1.282-.426 1.486.054 1.546.528 1.453.952 1.217 1.28.863 1.483.426 1.541-.054 1.45-.528 1.216-.95.864-1.281.427-1.487-.054-1.545zm.217-.045c.132.408.554.291.572.791.017.497-.407.414-.514.82-.002.431.437.45.299.932-.137.477-.514.269-.742.62-.136.41.277.564-.003.979-.278.412-.572.097-.897.36-.256.348.089.622-.306.93-.391.306-.573-.083-.964.067-.35.25-.107.618-.578.789-.467.17-.52-.258-.939-.235-.409.131-.292.554-.792.572-.498.017-.414-.407-.822-.514-.428 0-.448.436-.928.299-.48-.138-.268-.516-.624-.744-.406-.132-.56.277-.974-.002-.414-.28-.095-.574-.364-.901-.346-.25-.619.09-.926-.303-.307-.393.087-.575-.068-.969-.25-.345-.616-.105-.787-.574-.17-.468.26-.52.235-.941-.131-.408-.554-.292-.571-.792-.018-.497.406-.414.514-.82.002-.43-.437-.45-.3-.931.137-.478.514-.27.742-.62.136-.41-.277-.564.004-.98.277-.411.57-.097.896-.36.257-.348-.089-.622.306-.93.392-.306.574.084.965-.066.35-.251.107-.618.577-.79.468-.17.52.258.94.236.408-.132.291-.555.791-.572.498-.018.414.407.822.514.428 0 .448-.437.928-.3.48.138.268.517.624.745.406.131.56-.277.975.002.413.279.094.573.364.9.345.25.618-.09.925.303.307.393-.087.575.068.97.251.345.616.104.787.574.17.468-.26.52-.235.94z" fill="#FFAA64"/></g></g></svg>