<svg width="180" height="180" viewBox="0 0 180 180" xmlns="http://www.w3.org/2000/svg"><title>github-logo (1)</title><path d="M167.927 45.948c-8.048-14.135-18.965-25.326-32.753-33.575C121.384 4.123 106.33 0 90 0 73.671 0 58.611 4.125 44.824 12.373c-13.79 8.249-24.706 19.44-32.754 33.575C4.024 60.083 0 75.518 0 92.253c0 20.103 5.722 38.18 17.168 54.236 11.445 16.057 26.23 27.168 44.354 33.334 2.11.401 3.671.12 4.687-.84 1.016-.96 1.523-2.162 1.523-3.602 0-.24-.02-2.402-.06-6.487-.04-4.085-.058-7.648-.058-10.689l-2.696.478c-1.718.323-3.886.46-6.504.42-2.616-.037-5.332-.318-8.144-.84-2.813-.518-5.43-1.72-7.852-3.601-2.42-1.882-4.139-4.346-5.155-7.387l-1.172-2.764c-.78-1.84-2.01-3.885-3.69-6.126-1.68-2.243-3.38-3.763-5.098-4.564l-.82-.602a8.688 8.688 0 0 1-1.523-1.443c-.469-.56-.82-1.12-1.054-1.681-.235-.562-.04-1.023.585-1.384.626-.362 1.758-.537 3.399-.537l2.343.359c1.562.32 3.495 1.28 5.8 2.882 2.305 1.602 4.199 3.684 5.684 6.245 1.797 3.284 3.963 5.787 6.504 7.509 2.538 1.722 5.097 2.582 7.675 2.582 2.577 0 4.803-.2 6.68-.6a22.915 22.915 0 0 0 5.272-1.802c.703-5.368 2.618-9.491 5.741-12.374-4.452-.48-8.455-1.202-12.01-2.163-3.554-.961-7.227-2.522-11.015-4.687-3.79-2.16-6.935-4.845-9.434-8.047-2.5-3.203-4.551-7.409-6.152-12.613-1.6-5.206-2.402-11.212-2.402-18.019 0-9.691 3.087-17.939 9.259-24.746-2.891-7.287-2.618-15.455.82-24.504 2.265-.722 5.625-.18 10.078 1.621 4.453 1.802 7.714 3.346 9.785 4.626 2.07 1.28 3.73 2.363 4.98 3.243 7.267-2.082 14.767-3.123 22.5-3.123 7.734 0 15.235 1.041 22.502 3.123l4.453-2.882c3.045-1.923 6.641-3.685 10.78-5.286 4.14-1.601 7.306-2.042 9.495-1.32 3.514 9.049 3.827 17.217.935 24.503 6.172 6.808 9.26 15.057 9.26 24.747 0 6.806-.804 12.831-2.403 18.077-1.6 5.247-3.67 9.449-6.208 12.614-2.541 3.164-5.706 5.827-9.494 7.988-3.79 2.162-7.463 3.723-11.016 4.685-3.556.962-7.559 1.685-12.011 2.165 4.06 3.603 6.092 9.289 6.092 17.056v25.345c0 1.44.488 2.641 1.466 3.602.976.959 2.518 1.241 4.628.84 18.126-6.166 32.912-17.277 44.356-33.334C174.276 130.43 180 112.353 180 92.25c-.004-16.733-4.03-32.167-12.073-46.302z" fill="#110A2D" fill-rule="nonzero"/></svg>