<svg width="126" height="125" viewBox="0 0 126 125" xmlns="http://www.w3.org/2000/svg"><title>Group 19</title><g fill="none" fill-rule="evenodd"><path d="M63 122c33.137 0 60-26.863 60-60S96.137 2 63 2 3 28.863 3 62s26.863 60 60 60z" stroke="#FFAA64" stroke-width="5" stroke-dasharray="14,47,7"/><g stroke="#00132E" stroke-linejoin="round" stroke-width="5.39"><path d="M79.234 80.654L68.756 99.19h20.956l10.478-18.536v-.001l-.002.001zM79.232 80.138L68.755 61.6 58.277 80.138l10.479 18.537 10.478-18.537zM68.756 61.6l10.478 18.538h20.955l.001-.001-10.478-18.536z"/><g><path d="M79.234 44.855L68.756 63.391h20.956l10.478-18.536v-.001l-.002.001zM79.232 44.338L68.755 25.802 58.277 44.338l10.479 18.538 10.478-18.538z"/><path d="M68.756 25.802l10.478 18.537h20.955l.001-.001-10.478-18.536z"/></g><g><path d="M46.766 64.545L36.288 83.08h20.957l10.478-18.535-.001-.002-.001.002zM46.765 64.028L36.287 45.49 25.81 64.028l10.478 18.538 10.478-18.538zM36.288 45.491l10.478 18.537h20.956L57.246 45.49z"/></g></g></g></svg>