<svg width="156" height="90" viewBox="0 0 156 90" xmlns="http://www.w3.org/2000/svg"><title>Group</title><g stroke-width="5.39" fill="none" fill-rule="evenodd" stroke-linejoin="round"><g stroke="#FFAA64"><path d="M79.848 45.586L55.529 87h48.639l24.318-41.414-.001-.003-.002.003zM79.456 44.416L55.236 3l-24.22 41.416 24.221 41.417L79.46 44.416zM55.53 3l24.319 41.417h48.636l.001-.003L104.17 3z"/></g><g stroke="#00132E"><path d="M27.513 45.585L15.257 66.583H39.77l12.256-20.998v-.002l-.002.002zM27.512 45L15.256 24 3 45l12.257 21 12.257-21zM15.257 24l12.257 21h24.512l.001-.001L39.771 24z"/></g><g stroke="#00132E"><path d="M79.459 45.585L67.202 66.583h24.514l12.257-20.998-.001-.002-.001.002zM79.458 45L67.202 24 54.946 45l12.256 21L79.46 45z"/><path d="M67.202 24L79.46 45h24.513v-.001L91.718 24z"/></g><g stroke="#00132E"><path d="M128.486 45.585L116.23 66.583h24.513L153 45.585v-.002l-.002.002zM128.485 45l-12.256-21-12.256 21 12.257 21 12.256-21zM116.23 24l12.257 21h24.512l.001-.001L140.744 24z"/></g></g></svg>