<svg width="239" height="283" viewBox="0 0 239 283" xmlns="http://www.w3.org/2000/svg" xmlns:xlink="http://www.w3.org/1999/xlink"><title>Group 4</title><defs><path id="b" d="M50.797 5.852h38.854v2.692H50.797z"/><filter x="-32.2%" y="-315.7%" width="164.3%" height="1028.6%" filterUnits="objectBoundingBox" id="a"><feOffset dy="4" in="SourceAlpha" result="shadowOffsetOuter1"/><feGaussianBlur stdDeviation="3.5" in="shadowOffsetOuter1" result="shadowBlurOuter1"/><feColorMatrix values="0 0 0 0 0 0 0 0 0 0 0 0 0 0 0 0 0 0 0.5 0" in="shadowBlurOuter1"/></filter><path id="d" d="M32.533 5.852h15.608v2.692H32.533z"/><filter x="-80.1%" y="-315.7%" width="260.2%" height="1028.6%" filterUnits="objectBoundingBox" id="c"><feOffset dy="4" in="SourceAlpha" result="shadowOffsetOuter1"/><feGaussianBlur stdDeviation="3.5" in="shadowOffsetOuter1" result="shadowBlurOuter1"/><feColorMatrix values="0 0 0 0 0 0 0 0 0 0 0 0 0 0 0 0 0 0 0.5 0" in="shadowBlurOuter1"/></filter><path id="f" d="M0 6h29.888v2.692H0z"/><filter x="-41.8%" y="-315.7%" width="183.6%" height="1028.6%" filterUnits="objectBoundingBox" id="e"><feOffset dy="4" in="SourceAlpha" result="shadowOffsetOuter1"/><feGaussianBlur stdDeviation="3.5" in="shadowOffsetOuter1" result="shadowBlurOuter1"/><feColorMatrix values="0 0 0 0 0 0 0 0 0 0 0 0 0 0 0 0 0 0 0.5 0" in="shadowBlurOuter1"/></filter><path id="h" d="M127.509.467h21.253v2.692h-21.253z"/><filter x="-58.8%" y="-315.7%" width="217.6%" height="1028.6%" filterUnits="objectBoundingBox" id="g"><feOffset dy="4" in="SourceAlpha" result="shadowOffsetOuter1"/><feGaussianBlur stdDeviation="3.5" in="shadowOffsetOuter1" result="shadowBlurOuter1"/><feColorMatrix values="0 0 0 0 0 0 0 0 0 0 0 0 0 0 0 0 0 0 0.5 0" in="shadowBlurOuter1"/></filter><path id="j" d="M109.244.467h15.608v2.692h-15.608z"/><filter x="-80.1%" y="-315.7%" width="260.2%" height="1028.6%" filterUnits="objectBoundingBox" id="i"><feOffset dy="4" in="SourceAlpha" result="shadowOffsetOuter1"/><feGaussianBlur stdDeviation="3.5" in="shadowOffsetOuter1" result="shadowBlurOuter1"/><feColorMatrix values="0 0 0 0 0 0 0 0 0 0 0 0 0 0 0 0 0 0 0.5 0" in="shadowBlurOuter1"/></filter><path id="l" d="M44.488.467H76.7v2.692H44.488z"/><filter x="-38.8%" y="-315.7%" width="177.6%" height="1028.6%" filterUnits="objectBoundingBox" id="k"><feOffset dy="4" in="SourceAlpha" result="shadowOffsetOuter1"/><feGaussianBlur stdDeviation="3.5" in="shadowOffsetOuter1" result="shadowBlurOuter1"/><feColorMatrix values="0 0 0 0 0 0 0 0 0 0 0 0 0 0 0 0 0 0 0.5 0" in="shadowBlurOuter1"/></filter><path id="n" d="M36.186.467h5.645v2.692h-5.645z"/><filter x="-221.4%" y="-315.7%" width="542.8%" height="1028.6%" filterUnits="objectBoundingBox" id="m"><feOffset dy="4" in="SourceAlpha" result="shadowOffsetOuter1"/><feGaussianBlur stdDeviation="3.5" in="shadowOffsetOuter1" result="shadowBlurOuter1"/><feColorMatrix values="0 0 0 0 0 0 0 0 0 0 0 0 0 0 0 0 0 0 0.5 0" in="shadowBlurOuter1"/></filter><path id="p" d="M0 .667h33.208v2.692H0z"/><filter x="-37.6%" y="-315.7%" width="175.3%" height="1028.6%" filterUnits="objectBoundingBox" id="o"><feOffset dy="4" in="SourceAlpha" result="shadowOffsetOuter1"/><feGaussianBlur stdDeviation="3.5" in="shadowOffsetOuter1" result="shadowBlurOuter1"/><feColorMatrix values="0 0 0 0 0 0 0 0 0 0 0 0 0 0 0 0 0 0 0.5 0" in="shadowBlurOuter1"/></filter><path id="r" d="M97.621.467h8.966v2.692h-8.966z"/><filter x="-139.4%" y="-315.7%" width="378.8%" height="1028.6%" filterUnits="objectBoundingBox" id="q"><feOffset dy="4" in="SourceAlpha" result="shadowOffsetOuter1"/><feGaussianBlur stdDeviation="3.5" in="shadowOffsetOuter1" result="shadowBlurOuter1"/><feColorMatrix values="0 0 0 0 0 0 0 0 0 0 0 0 0 0 0 0 0 0 0.5 0" in="shadowBlurOuter1"/></filter><path id="t" d="M79.357.467h15.608v2.692H79.357z"/><filter x="-80.1%" y="-315.7%" width="260.2%" height="1028.6%" filterUnits="objectBoundingBox" id="s"><feOffset dy="4" in="SourceAlpha" result="shadowOffsetOuter1"/><feGaussianBlur stdDeviation="3.5" in="shadowOffsetOuter1" result="shadowBlurOuter1"/><feColorMatrix values="0 0 0 0 0 0 0 0 0 0 0 0 0 0 0 0 0 0 0.5 0" in="shadowBlurOuter1"/></filter><path id="v" d="M76.7 11.236h18.265v2.692H76.7z"/><filter x="-68.4%" y="-315.7%" width="236.9%" height="1028.6%" filterUnits="objectBoundingBox" id="u"><feOffset dy="4" in="SourceAlpha" result="shadowOffsetOuter1"/><feGaussianBlur stdDeviation="3.5" in="shadowOffsetOuter1" result="shadowBlurOuter1"/><feColorMatrix values="0 0 0 0 0 0 0 0 0 0 0 0 0 0 0 0 0 0 0.5 0" in="shadowBlurOuter1"/></filter><path id="x" d="M64.081 11.236h9.963v2.692h-9.963z"/><filter x="-125.5%" y="-315.7%" width="350.9%" height="1028.6%" filterUnits="objectBoundingBox" id="w"><feOffset dy="4" in="SourceAlpha" result="shadowOffsetOuter1"/><feGaussianBlur stdDeviation="3.5" in="shadowOffsetOuter1" result="shadowBlurOuter1"/><feColorMatrix values="0 0 0 0 0 0 0 0 0 0 0 0 0 0 0 0 0 0 0.5 0" in="shadowBlurOuter1"/></filter><path id="z" d="M115.554 5.852h33.208v2.692h-33.208z"/><filter x="-37.6%" y="-315.7%" width="175.3%" height="1028.6%" filterUnits="objectBoundingBox" id="y"><feOffset dy="4" in="SourceAlpha" result="shadowOffsetOuter1"/><feGaussianBlur stdDeviation="3.5" in="shadowOffsetOuter1" result="shadowBlurOuter1"/><feColorMatrix values="0 0 0 0 0 0 0 0 0 0 0 0 0 0 0 0 0 0 0.5 0" in="shadowBlurOuter1"/></filter><path id="B" d="M92.308 5.852h8.966v2.692h-8.966z"/><filter x="-139.4%" y="-315.7%" width="378.8%" height="1028.6%" filterUnits="objectBoundingBox" id="A"><feOffset dy="4" in="SourceAlpha" result="shadowOffsetOuter1"/><feGaussianBlur stdDeviation="3.5" in="shadowOffsetOuter1" result="shadowBlurOuter1"/><feColorMatrix values="0 0 0 0 0 0 0 0 0 0 0 0 0 0 0 0 0 0 0.5 0" in="shadowBlurOuter1"/></filter><path id="D" d="M103.931 5.852h8.966v2.692h-8.966z"/><filter x="-139.4%" y="-315.7%" width="378.8%" height="1028.6%" filterUnits="objectBoundingBox" id="C"><feOffset dy="4" in="SourceAlpha" result="shadowOffsetOuter1"/><feGaussianBlur stdDeviation="3.5" in="shadowOffsetOuter1" result="shadowBlurOuter1"/><feColorMatrix values="0 0 0 0 0 0 0 0 0 0 0 0 0 0 0 0 0 0 0.5 0" in="shadowBlurOuter1"/></filter><path id="F" d="M97.621 11.236h18.265v2.692H97.621z"/><filter x="-68.4%" y="-315.7%" width="236.9%" height="1028.6%" filterUnits="objectBoundingBox" id="E"><feOffset dy="4" in="SourceAlpha" result="shadowOffsetOuter1"/><feGaussianBlur stdDeviation="3.5" in="shadowOffsetOuter1" result="shadowBlurOuter1"/><feColorMatrix values="0 0 0 0 0 0 0 0 0 0 0 0 0 0 0 0 0 0 0.5 0" in="shadowBlurOuter1"/></filter><path id="H" d="M118.543 11.236h23.246v2.692h-23.246z"/><filter x="-53.8%" y="-315.7%" width="207.5%" height="1028.6%" filterUnits="objectBoundingBox" id="G"><feOffset dy="4" in="SourceAlpha" result="shadowOffsetOuter1"/><feGaussianBlur stdDeviation="3.5" in="shadowOffsetOuter1" result="shadowBlurOuter1"/><feColorMatrix values="0 0 0 0 0 0 0 0 0 0 0 0 0 0 0 0 0 0 0.5 0" in="shadowBlurOuter1"/></filter><path id="J" d="M29.876 11.236h31.548v2.692H29.876z"/><filter x="-39.6%" y="-315.7%" width="179.2%" height="1028.6%" filterUnits="objectBoundingBox" id="I"><feOffset dy="4" in="SourceAlpha" result="shadowOffsetOuter1"/><feGaussianBlur stdDeviation="3.5" in="shadowOffsetOuter1" result="shadowBlurOuter1"/><feColorMatrix values="0 0 0 0 0 0 0 0 0 0 0 0 0 0 0 0 0 0 0.5 0" in="shadowBlurOuter1"/></filter><path id="L" d="M0 11.333h26.561v2.692H0z"/><filter x="-47.1%" y="-315.7%" width="194.1%" height="1028.6%" filterUnits="objectBoundingBox" id="K"><feOffset dy="4" in="SourceAlpha" result="shadowOffsetOuter1"/><feGaussianBlur stdDeviation="3.5" in="shadowOffsetOuter1" result="shadowBlurOuter1"/><feColorMatrix values="0 0 0 0 0 0 0 0 0 0 0 0 0 0 0 0 0 0 0.5 0" in="shadowBlurOuter1"/></filter><path id="N" d="M118 217h40v2h-40z"/><filter x="-31.2%" y="-425%" width="162.5%" height="1350%" filterUnits="objectBoundingBox" id="M"><feOffset dy="4" in="SourceAlpha" result="shadowOffsetOuter1"/><feGaussianBlur stdDeviation="3.5" in="shadowOffsetOuter1" result="shadowBlurOuter1"/><feColorMatrix values="0 0 0 0 0 0 0 0 0 0 0 0 0 0 0 0 0 0 0.5 0" in="shadowBlurOuter1"/></filter><path id="P" d="M160 217h15v2h-15z"/><filter x="-83.3%" y="-425%" width="266.7%" height="1350%" filterUnits="objectBoundingBox" id="O"><feOffset dy="4" in="SourceAlpha" result="shadowOffsetOuter1"/><feGaussianBlur stdDeviation="3.5" in="shadowOffsetOuter1" result="shadowBlurOuter1"/><feColorMatrix values="0 0 0 0 0 0 0 0 0 0 0 0 0 0 0 0 0 0 0.5 0" in="shadowBlurOuter1"/></filter><path id="R" d="M177 217h9v2h-9z"/><filter x="-138.9%" y="-425%" width="377.8%" height="1350%" filterUnits="objectBoundingBox" id="Q"><feOffset dy="4" in="SourceAlpha" result="shadowOffsetOuter1"/><feGaussianBlur stdDeviation="3.5" in="shadowOffsetOuter1" result="shadowBlurOuter1"/><feColorMatrix values="0 0 0 0 0 0 0 0 0 0 0 0 0 0 0 0 0 0 0.5 0" in="shadowBlurOuter1"/></filter><path id="T" d="M189 217h15v2h-15z"/><filter x="-83.3%" y="-425%" width="266.7%" height="1350%" filterUnits="objectBoundingBox" id="S"><feOffset dy="4" in="SourceAlpha" result="shadowOffsetOuter1"/><feGaussianBlur stdDeviation="3.5" in="shadowOffsetOuter1" result="shadowBlurOuter1"/><feColorMatrix values="0 0 0 0 0 0 0 0 0 0 0 0 0 0 0 0 0 0 0.5 0" in="shadowBlurOuter1"/></filter><path id="V" d="M106 217h9v2h-9z"/><filter x="-138.9%" y="-425%" width="377.8%" height="1350%" filterUnits="objectBoundingBox" id="U"><feOffset dy="4" in="SourceAlpha" result="shadowOffsetOuter1"/><feGaussianBlur stdDeviation="3.5" in="shadowOffsetOuter1" result="shadowBlurOuter1"/><feColorMatrix values="0 0 0 0 0 0 0 0 0 0 0 0 0 0 0 0 0 0 0.5 0" in="shadowBlurOuter1"/></filter><path id="X" d="M94 217h9v2h-9z"/><filter x="-138.9%" y="-425%" width="377.8%" height="1350%" filterUnits="objectBoundingBox" id="W"><feOffset dy="4" in="SourceAlpha" result="shadowOffsetOuter1"/><feGaussianBlur stdDeviation="3.5" in="shadowOffsetOuter1" result="shadowBlurOuter1"/><feColorMatrix values="0 0 0 0 0 0 0 0 0 0 0 0 0 0 0 0 0 0 0.5 0" in="shadowBlurOuter1"/></filter><path id="Z" d="M55 211h3v2h-3z"/><filter x="-416.7%" y="-425%" width="933.3%" height="1350%" filterUnits="objectBoundingBox" id="Y"><feOffset dy="4" in="SourceAlpha" result="shadowOffsetOuter1"/><feGaussianBlur stdDeviation="3.5" in="shadowOffsetOuter1" result="shadowBlurOuter1"/><feColorMatrix values="0 0 0 0 0 0 0 0 0 0 0 0 0 0 0 0 0 0 0.5 0" in="shadowBlurOuter1"/></filter><path id="ab" d="M65 211h14v2H65z"/><filter x="-89.3%" y="-425%" width="278.6%" height="1350%" filterUnits="objectBoundingBox" id="aa"><feOffset dy="4" in="SourceAlpha" result="shadowOffsetOuter1"/><feGaussianBlur stdDeviation="3.5" in="shadowOffsetOuter1" result="shadowBlurOuter1"/><feColorMatrix values="0 0 0 0 0 0 0 0 0 0 0 0 0 0 0 0 0 0 0.5 0" in="shadowBlurOuter1"/></filter><path id="ad" d="M82 211h15v2H82z"/><filter x="-83.3%" y="-425%" width="266.7%" height="1350%" filterUnits="objectBoundingBox" id="ac"><feOffset dy="4" in="SourceAlpha" result="shadowOffsetOuter1"/><feGaussianBlur stdDeviation="3.5" in="shadowOffsetOuter1" result="shadowBlurOuter1"/><feColorMatrix values="0 0 0 0 0 0 0 0 0 0 0 0 0 0 0 0 0 0 0.5 0" in="shadowBlurOuter1"/></filter><path id="af" d="M113 211h15v2h-15z"/><filter x="-83.3%" y="-425%" width="266.7%" height="1350%" filterUnits="objectBoundingBox" id="ae"><feOffset dy="4" in="SourceAlpha" result="shadowOffsetOuter1"/><feGaussianBlur stdDeviation="3.5" in="shadowOffsetOuter1" result="shadowBlurOuter1"/><feColorMatrix values="0 0 0 0 0 0 0 0 0 0 0 0 0 0 0 0 0 0 0.5 0" in="shadowBlurOuter1"/></filter><path id="ah" d="M131 211h22v2h-22z"/><filter x="-56.8%" y="-425%" width="213.6%" height="1350%" filterUnits="objectBoundingBox" id="ag"><feOffset dy="4" in="SourceAlpha" result="shadowOffsetOuter1"/><feGaussianBlur stdDeviation="3.5" in="shadowOffsetOuter1" result="shadowBlurOuter1"/><feColorMatrix values="0 0 0 0 0 0 0 0 0 0 0 0 0 0 0 0 0 0 0.5 0" in="shadowBlurOuter1"/></filter><path id="aj" d="M160 211h11v2h-11z"/><filter x="-113.6%" y="-425%" width="327.3%" height="1350%" filterUnits="objectBoundingBox" id="ai"><feOffset dy="4" in="SourceAlpha" result="shadowOffsetOuter1"/><feGaussianBlur stdDeviation="3.5" in="shadowOffsetOuter1" result="shadowBlurOuter1"/><feColorMatrix values="0 0 0 0 0 0 0 0 0 0 0 0 0 0 0 0 0 0 0.5 0" in="shadowBlurOuter1"/></filter><path id="al" d="M174 211h32v2h-32z"/><filter x="-39.1%" y="-425%" width="178.1%" height="1350%" filterUnits="objectBoundingBox" id="ak"><feOffset dy="4" in="SourceAlpha" result="shadowOffsetOuter1"/><feGaussianBlur stdDeviation="3.5" in="shadowOffsetOuter1" result="shadowBlurOuter1"/><feColorMatrix values="0 0 0 0 0 0 0 0 0 0 0 0 0 0 0 0 0 0 0.5 0" in="shadowBlurOuter1"/></filter><path id="an" d="M100 211h9v2h-9z"/><filter x="-138.9%" y="-425%" width="377.8%" height="1350%" filterUnits="objectBoundingBox" id="am"><feOffset dy="4" in="SourceAlpha" result="shadowOffsetOuter1"/><feGaussianBlur stdDeviation="3.5" in="shadowOffsetOuter1" result="shadowBlurOuter1"/><feColorMatrix values="0 0 0 0 0 0 0 0 0 0 0 0 0 0 0 0 0 0 0.5 0" in="shadowBlurOuter1"/></filter><path id="ap" d="M91 222h18v2H91z"/><filter x="-69.4%" y="-425%" width="238.9%" height="1350%" filterUnits="objectBoundingBox" id="ao"><feOffset dy="4" in="SourceAlpha" result="shadowOffsetOuter1"/><feGaussianBlur stdDeviation="3.5" in="shadowOffsetOuter1" result="shadowBlurOuter1"/><feColorMatrix values="0 0 0 0 0 0 0 0 0 0 0 0 0 0 0 0 0 0 0.5 0" in="shadowBlurOuter1"/></filter><path id="ar" d="M113 222h18v2h-18z"/><filter x="-69.4%" y="-425%" width="238.9%" height="1350%" filterUnits="objectBoundingBox" id="aq"><feOffset dy="4" in="SourceAlpha" result="shadowOffsetOuter1"/><feGaussianBlur stdDeviation="3.5" in="shadowOffsetOuter1" result="shadowBlurOuter1"/><feColorMatrix values="0 0 0 0 0 0 0 0 0 0 0 0 0 0 0 0 0 0 0.5 0" in="shadowBlurOuter1"/></filter><path id="at" d="M133 222h14v2h-14z"/><filter x="-89.3%" y="-425%" width="278.6%" height="1350%" filterUnits="objectBoundingBox" id="as"><feOffset dy="4" in="SourceAlpha" result="shadowOffsetOuter1"/><feGaussianBlur stdDeviation="3.5" in="shadowOffsetOuter1" result="shadowBlurOuter1"/><feColorMatrix values="0 0 0 0 0 0 0 0 0 0 0 0 0 0 0 0 0 0 0.5 0" in="shadowBlurOuter1"/></filter><path id="av" d="M65 222h23v2H65z"/><filter x="-54.3%" y="-425%" width="208.7%" height="1350%" filterUnits="objectBoundingBox" id="au"><feOffset dy="4" in="SourceAlpha" result="shadowOffsetOuter1"/><feGaussianBlur stdDeviation="3.5" in="shadowOffsetOuter1" result="shadowBlurOuter1"/><feColorMatrix values="0 0 0 0 0 0 0 0 0 0 0 0 0 0 0 0 0 0 0.5 0" in="shadowBlurOuter1"/></filter><path id="ax" d="M55 217h36v2H55z"/><filter x="-34.7%" y="-425%" width="169.4%" height="1350%" filterUnits="objectBoundingBox" id="aw"><feOffset dy="4" in="SourceAlpha" result="shadowOffsetOuter1"/><feGaussianBlur stdDeviation="3.5" in="shadowOffsetOuter1" result="shadowBlurOuter1"/><feColorMatrix values="0 0 0 0 0 0 0 0 0 0 0 0 0 0 0 0 0 0 0.5 0" in="shadowBlurOuter1"/></filter><path id="az" d="M106 217h9v2h-9z"/><filter x="-138.9%" y="-425%" width="377.8%" height="1350%" filterUnits="objectBoundingBox" id="ay"><feOffset dy="4" in="SourceAlpha" result="shadowOffsetOuter1"/><feGaussianBlur stdDeviation="3.5" in="shadowOffsetOuter1" result="shadowBlurOuter1"/><feColorMatrix values="0 0 0 0 0 0 0 0 0 0 0 0 0 0 0 0 0 0 0.5 0" in="shadowBlurOuter1"/></filter><path id="aB" d="M94 217h9v2h-9z"/><filter x="-138.9%" y="-425%" width="377.8%" height="1350%" filterUnits="objectBoundingBox" id="aA"><feOffset dy="4" in="SourceAlpha" result="shadowOffsetOuter1"/><feGaussianBlur stdDeviation="3.5" in="shadowOffsetOuter1" result="shadowBlurOuter1"/><feColorMatrix values="0 0 0 0 0 0 0 0 0 0 0 0 0 0 0 0 0 0 0.5 0" in="shadowBlurOuter1"/></filter><path id="aD" d="M91 222h18v2H91z"/><filter x="-69.4%" y="-425%" width="238.9%" height="1350%" filterUnits="objectBoundingBox" id="aC"><feOffset dy="4" in="SourceAlpha" result="shadowOffsetOuter1"/><feGaussianBlur stdDeviation="3.5" in="shadowOffsetOuter1" result="shadowBlurOuter1"/><feColorMatrix values="0 0 0 0 0 0 0 0 0 0 0 0 0 0 0 0 0 0 0.5 0" in="shadowBlurOuter1"/></filter><path id="aF" d="M55 222h34v2H55z"/><filter x="-36.8%" y="-425%" width="173.5%" height="1350%" filterUnits="objectBoundingBox" id="aE"><feOffset dy="4" in="SourceAlpha" result="shadowOffsetOuter1"/><feGaussianBlur stdDeviation="3.5" in="shadowOffsetOuter1" result="shadowBlurOuter1"/><feColorMatrix values="0 0 0 0 0 0 0 0 0 0 0 0 0 0 0 0 0 0 0.5 0" in="shadowBlurOuter1"/></filter><path id="aH" d="M36.14 100.282h9.32v2.646h-9.32z"/><filter x="-134.1%" y="-321.3%" width="368.2%" height="1044.9%" filterUnits="objectBoundingBox" id="aG"><feOffset dy="4" in="SourceAlpha" result="shadowOffsetOuter1"/><feGaussianBlur stdDeviation="3.5" in="shadowOffsetOuter1" result="shadowBlurOuter1"/><feColorMatrix values="0 0 0 0 0 0 0 0 0 0 0 0 0 0 0 0 0 0 0.5 0" in="shadowBlurOuter1"/></filter><path id="aJ" d="M69.761 100.282h9.32v2.646h-9.32z"/><filter x="-134.1%" y="-321.3%" width="368.2%" height="1044.9%" filterUnits="objectBoundingBox" id="aI"><feOffset dy="4" in="SourceAlpha" result="shadowOffsetOuter1"/><feGaussianBlur stdDeviation="3.5" in="shadowOffsetOuter1" result="shadowBlurOuter1"/><feColorMatrix values="0 0 0 0 0 0 0 0 0 0 0 0 0 0 0 0 0 0 0.5 0" in="shadowBlurOuter1"/></filter><path id="aL" d="M81.744 100.282h6.325v2.646h-6.325z"/><filter x="-197.6%" y="-321.3%" width="495.3%" height="1044.9%" filterUnits="objectBoundingBox" id="aK"><feOffset dy="4" in="SourceAlpha" result="shadowOffsetOuter1"/><feGaussianBlur stdDeviation="3.5" in="shadowOffsetOuter1" result="shadowBlurOuter1"/><feColorMatrix values="0 0 0 0 0 0 0 0 0 0 0 0 0 0 0 0 0 0 0.5 0" in="shadowBlurOuter1"/></filter><path id="aN" d="M0 100.241h32.954v2.646H0z"/><filter x="-37.9%" y="-321.3%" width="175.9%" height="1044.9%" filterUnits="objectBoundingBox" id="aM"><feOffset dy="4" in="SourceAlpha" result="shadowOffsetOuter1"/><feGaussianBlur stdDeviation="3.5" in="shadowOffsetOuter1" result="shadowBlurOuter1"/><feColorMatrix values="0 0 0 0 0 0 0 0 0 0 0 0 0 0 0 0 0 0 0.5 0" in="shadowBlurOuter1"/></filter><path id="aP" d="M48.124 100.282h18.974v2.646H48.124z"/><filter x="-65.9%" y="-321.3%" width="231.8%" height="1044.9%" filterUnits="objectBoundingBox" id="aO"><feOffset dy="4" in="SourceAlpha" result="shadowOffsetOuter1"/><feGaussianBlur stdDeviation="3.5" in="shadowOffsetOuter1" result="shadowBlurOuter1"/><feColorMatrix values="0 0 0 0 0 0 0 0 0 0 0 0 0 0 0 0 0 0 0.5 0" in="shadowBlurOuter1"/></filter><path id="aR" d="M0 105.483h38.946v2.646H0z"/><filter x="-32.1%" y="-321.3%" width="164.2%" height="1044.9%" filterUnits="objectBoundingBox" id="aQ"><feOffset dy="4" in="SourceAlpha" result="shadowOffsetOuter1"/><feGaussianBlur stdDeviation="3.5" in="shadowOffsetOuter1" result="shadowBlurOuter1"/><feColorMatrix values="0 0 0 0 0 0 0 0 0 0 0 0 0 0 0 0 0 0 0.5 0" in="shadowBlurOuter1"/></filter><path id="aT" d="M42.132 105.573h8.988v2.646h-8.988z"/><filter x="-139.1%" y="-321.3%" width="378.2%" height="1044.9%" filterUnits="objectBoundingBox" id="aS"><feOffset dy="4" in="SourceAlpha" result="shadowOffsetOuter1"/><feGaussianBlur stdDeviation="3.5" in="shadowOffsetOuter1" result="shadowBlurOuter1"/><feColorMatrix values="0 0 0 0 0 0 0 0 0 0 0 0 0 0 0 0 0 0 0.5 0" in="shadowBlurOuter1"/></filter><path id="aV" d="M53.783 105.573h8.988v2.646h-8.988z"/><filter x="-139.1%" y="-321.3%" width="378.2%" height="1044.9%" filterUnits="objectBoundingBox" id="aU"><feOffset dy="4" in="SourceAlpha" result="shadowOffsetOuter1"/><feGaussianBlur stdDeviation="3.5" in="shadowOffsetOuter1" result="shadowBlurOuter1"/><feColorMatrix values="0 0 0 0 0 0 0 0 0 0 0 0 0 0 0 0 0 0 0.5 0" in="shadowBlurOuter1"/></filter><path id="aX" d="M65.433 105.573h28.96v2.646h-28.96z"/><filter x="-43.2%" y="-321.3%" width="186.3%" height="1044.9%" filterUnits="objectBoundingBox" id="aW"><feOffset dy="4" in="SourceAlpha" result="shadowOffsetOuter1"/><feGaussianBlur stdDeviation="3.5" in="shadowOffsetOuter1" result="shadowBlurOuter1"/><feColorMatrix values="0 0 0 0 0 0 0 0 0 0 0 0 0 0 0 0 0 0 0.5 0" in="shadowBlurOuter1"/></filter><path id="aZ" d="M0 110.724h35.95v2.646H0z"/><filter x="-34.8%" y="-321.3%" width="169.5%" height="1044.9%" filterUnits="objectBoundingBox" id="aY"><feOffset dy="4" in="SourceAlpha" result="shadowOffsetOuter1"/><feGaussianBlur stdDeviation="3.5" in="shadowOffsetOuter1" result="shadowBlurOuter1"/><feColorMatrix values="0 0 0 0 0 0 0 0 0 0 0 0 0 0 0 0 0 0 0.5 0" in="shadowBlurOuter1"/></filter><path id="bb" d="M39.136 110.865h3.329v2.646h-3.329z"/><filter x="-375.5%" y="-321.3%" width="851%" height="1044.9%" filterUnits="objectBoundingBox" id="ba"><feOffset dy="4" in="SourceAlpha" result="shadowOffsetOuter1"/><feGaussianBlur stdDeviation="3.5" in="shadowOffsetOuter1" result="shadowBlurOuter1"/><feColorMatrix values="0 0 0 0 0 0 0 0 0 0 0 0 0 0 0 0 0 0 0.5 0" in="shadowBlurOuter1"/></filter><path id="bd" d="M45.128 110.865h3.329v2.646h-3.329z"/><filter x="-375.5%" y="-321.3%" width="851%" height="1044.9%" filterUnits="objectBoundingBox" id="bc"><feOffset dy="4" in="SourceAlpha" result="shadowOffsetOuter1"/><feGaussianBlur stdDeviation="3.5" in="shadowOffsetOuter1" result="shadowBlurOuter1"/><feColorMatrix values="0 0 0 0 0 0 0 0 0 0 0 0 0 0 0 0 0 0 0.5 0" in="shadowBlurOuter1"/></filter><path id="bf" d="M51.12 110.865h23.301v2.646H51.12z"/><filter x="-53.6%" y="-321.3%" width="207.3%" height="1044.9%" filterUnits="objectBoundingBox" id="be"><feOffset dy="4" in="SourceAlpha" result="shadowOffsetOuter1"/><feGaussianBlur stdDeviation="3.5" in="shadowOffsetOuter1" result="shadowBlurOuter1"/><feColorMatrix values="0 0 0 0 0 0 0 0 0 0 0 0 0 0 0 0 0 0 0.5 0" in="shadowBlurOuter1"/></filter><path id="bh" d="M77.084 110.865h21.304v2.646H77.084z"/><filter x="-58.7%" y="-321.3%" width="217.3%" height="1044.9%" filterUnits="objectBoundingBox" id="bg"><feOffset dy="4" in="SourceAlpha" result="shadowOffsetOuter1"/><feGaussianBlur stdDeviation="3.5" in="shadowOffsetOuter1" result="shadowBlurOuter1"/><feColorMatrix values="0 0 0 0 0 0 0 0 0 0 0 0 0 0 0 0 0 0 0.5 0" in="shadowBlurOuter1"/></filter><path id="bj" d="M57 179h9v2h-9z"/><filter x="-138.9%" y="-425%" width="377.8%" height="1350%" filterUnits="objectBoundingBox" id="bi"><feOffset dy="4" in="SourceAlpha" result="shadowOffsetOuter1"/><feGaussianBlur stdDeviation="3.5" in="shadowOffsetOuter1" result="shadowBlurOuter1"/><feColorMatrix values="0 0 0 0 0 0 0 0 0 0 0 0 0 0 0 0 0 0 0.5 0" in="shadowBlurOuter1"/></filter><path id="bl" d="M58 170h5v2h-5z"/><filter x="-250%" y="-425%" width="600%" height="1350%" filterUnits="objectBoundingBox" id="bk"><feOffset dy="4" in="SourceAlpha" result="shadowOffsetOuter1"/><feGaussianBlur stdDeviation="3.5" in="shadowOffsetOuter1" result="shadowBlurOuter1"/><feColorMatrix values="0 0 0 0 0 0 0 0 0 0 0 0 0 0 0 0 0 0 0.5 0" in="shadowBlurOuter1"/></filter><path id="bn" d="M62 166h10v2H62z"/><filter x="-125%" y="-425%" width="350%" height="1350%" filterUnits="objectBoundingBox" id="bm"><feOffset dy="4" in="SourceAlpha" result="shadowOffsetOuter1"/><feGaussianBlur stdDeviation="3.5" in="shadowOffsetOuter1" result="shadowBlurOuter1"/><feColorMatrix values="0 0 0 0 0 0 0 0 0 0 0 0 0 0 0 0 0 0 0.5 0" in="shadowBlurOuter1"/></filter><path id="bp" d="M154 222h23v2h-23z"/><filter x="-54.3%" y="-425%" width="208.7%" height="1350%" filterUnits="objectBoundingBox" id="bo"><feOffset dy="4" in="SourceAlpha" result="shadowOffsetOuter1"/><feGaussianBlur stdDeviation="3.5" in="shadowOffsetOuter1" result="shadowBlurOuter1"/><feColorMatrix values="0 0 0 0 0 0 0 0 0 0 0 0 0 0 0 0 0 0 0.5 0" in="shadowBlurOuter1"/></filter><path id="br" d="M179 222h25v2h-25z"/><filter x="-50%" y="-425%" width="200%" height="1350%" filterUnits="objectBoundingBox" id="bq"><feOffset dy="4" in="SourceAlpha" result="shadowOffsetOuter1"/><feGaussianBlur stdDeviation="3.5" in="shadowOffsetOuter1" result="shadowBlurOuter1"/><feColorMatrix values="0 0 0 0 0 0 0 0 0 0 0 0 0 0 0 0 0 0 0.5 0" in="shadowBlurOuter1"/></filter><path id="bt" d="M.156 148.163h18.811v2.68H.156z"/><filter x="-66.5%" y="-317.1%" width="232.9%" height="1032.7%" filterUnits="objectBoundingBox" id="bs"><feOffset dy="4" in="SourceAlpha" result="shadowOffsetOuter1"/><feGaussianBlur stdDeviation="3.5" in="shadowOffsetOuter1" result="shadowBlurOuter1"/><feColorMatrix values="0 0 0 0 0 0 0 0 0 0 0 0 0 0 0 0 0 0 0.5 0" in="shadowBlurOuter1"/></filter><path id="bv" d="M33.37 148h18.811v2.68H33.37z"/><filter x="-66.5%" y="-317.1%" width="232.9%" height="1032.7%" filterUnits="objectBoundingBox" id="bu"><feOffset dy="4" in="SourceAlpha" result="shadowOffsetOuter1"/><feGaussianBlur stdDeviation="3.5" in="shadowOffsetOuter1" result="shadowBlurOuter1"/><feColorMatrix values="0 0 0 0 0 0 0 0 0 0 0 0 0 0 0 0 0 0 0.5 0" in="shadowBlurOuter1"/></filter><path id="bx" d="M11.123 153.31h41.251v2.68H11.123z"/><filter x="-30.3%" y="-317.1%" width="160.6%" height="1032.7%" filterUnits="objectBoundingBox" id="bw"><feOffset dy="4" in="SourceAlpha" result="shadowOffsetOuter1"/><feGaussianBlur stdDeviation="3.5" in="shadowOffsetOuter1" result="shadowBlurOuter1"/><feColorMatrix values="0 0 0 0 0 0 0 0 0 0 0 0 0 0 0 0 0 0 0.5 0" in="shadowBlurOuter1"/></filter><path id="bz" d="M21.607 148.163h8.91v2.68h-8.91z"/><filter x="-140.3%" y="-317.1%" width="380.6%" height="1032.7%" filterUnits="objectBoundingBox" id="by"><feOffset dy="4" in="SourceAlpha" result="shadowOffsetOuter1"/><feGaussianBlur stdDeviation="3.5" in="shadowOffsetOuter1" result="shadowBlurOuter1"/><feColorMatrix values="0 0 0 0 0 0 0 0 0 0 0 0 0 0 0 0 0 0 0.5 0" in="shadowBlurOuter1"/></filter><path id="bB" d="M.156 153.524h3.3v2.68h-3.3z"/><filter x="-378.8%" y="-317.1%" width="857.6%" height="1032.7%" filterUnits="objectBoundingBox" id="bA"><feOffset dy="4" in="SourceAlpha" result="shadowOffsetOuter1"/><feGaussianBlur stdDeviation="3.5" in="shadowOffsetOuter1" result="shadowBlurOuter1"/><feColorMatrix values="0 0 0 0 0 0 0 0 0 0 0 0 0 0 0 0 0 0 0.5 0" in="shadowBlurOuter1"/></filter><path id="bD" d="M34.807 158.885h4.95v2.68h-4.95z"/><filter x="-252.5%" y="-317.1%" width="605%" height="1032.7%" filterUnits="objectBoundingBox" id="bC"><feOffset dy="4" in="SourceAlpha" result="shadowOffsetOuter1"/><feGaussianBlur stdDeviation="3.5" in="shadowOffsetOuter1" result="shadowBlurOuter1"/><feColorMatrix values="0 0 0 0 0 0 0 0 0 0 0 0 0 0 0 0 0 0 0.5 0" in="shadowBlurOuter1"/></filter><path id="bF" d="M42.531 158.619h9.9v2.68h-9.9z"/><filter x="-126.3%" y="-317.1%" width="352.5%" height="1032.7%" filterUnits="objectBoundingBox" id="bE"><feOffset dy="4" in="SourceAlpha" result="shadowOffsetOuter1"/><feGaussianBlur stdDeviation="3.5" in="shadowOffsetOuter1" result="shadowBlurOuter1"/><feColorMatrix values="0 0 0 0 0 0 0 0 0 0 0 0 0 0 0 0 0 0 0.5 0" in="shadowBlurOuter1"/></filter><path id="bH" d="M16.656 158.885h15.51v2.68h-15.51z"/><filter x="-80.6%" y="-317.1%" width="261.2%" height="1032.7%" filterUnits="objectBoundingBox" id="bG"><feOffset dy="4" in="SourceAlpha" result="shadowOffsetOuter1"/><feGaussianBlur stdDeviation="3.5" in="shadowOffsetOuter1" result="shadowBlurOuter1"/><feColorMatrix values="0 0 0 0 0 0 0 0 0 0 0 0 0 0 0 0 0 0 0.5 0" in="shadowBlurOuter1"/></filter><path id="bJ" d="M49 200h14v2H49z"/><filter x="-89.3%" y="-425%" width="278.6%" height="1350%" filterUnits="objectBoundingBox" id="bI"><feOffset dy="4" in="SourceAlpha" result="shadowOffsetOuter1"/><feGaussianBlur stdDeviation="3.5" in="shadowOffsetOuter1" result="shadowBlurOuter1"/><feColorMatrix values="0 0 0 0 0 0 0 0 0 0 0 0 0 0 0 0 0 0 0.5 0" in="shadowBlurOuter1"/></filter><path id="bL" d="M45 178h23v2H45z"/><filter x="-54.3%" y="-425%" width="208.7%" height="1350%" filterUnits="objectBoundingBox" id="bK"><feOffset dy="4" in="SourceAlpha" result="shadowOffsetOuter1"/><feGaussianBlur stdDeviation="3.5" in="shadowOffsetOuter1" result="shadowBlurOuter1"/><feColorMatrix values="0 0 0 0 0 0 0 0 0 0 0 0 0 0 0 0 0 0 0.5 0" in="shadowBlurOuter1"/></filter><path id="bN" d="M65 175h3v2h-3z"/><filter x="-416.7%" y="-425%" width="933.3%" height="1350%" filterUnits="objectBoundingBox" id="bM"><feOffset dy="4" in="SourceAlpha" result="shadowOffsetOuter1"/><feGaussianBlur stdDeviation="3.5" in="shadowOffsetOuter1" result="shadowBlurOuter1"/><feColorMatrix values="0 0 0 0 0 0 0 0 0 0 0 0 0 0 0 0 0 0 0.5 0" in="shadowBlurOuter1"/></filter><path id="bP" d="M65 181h3v2h-3z"/><filter x="-416.7%" y="-425%" width="933.3%" height="1350%" filterUnits="objectBoundingBox" id="bO"><feOffset dy="4" in="SourceAlpha" result="shadowOffsetOuter1"/><feGaussianBlur stdDeviation="3.5" in="shadowOffsetOuter1" result="shadowBlurOuter1"/><feColorMatrix values="0 0 0 0 0 0 0 0 0 0 0 0 0 0 0 0 0 0 0.5 0" in="shadowBlurOuter1"/></filter></defs><g fill="none" fill-rule="evenodd"><g transform="matrix(-1 0 0 1 219.449 146)"><use fill="#000" filter="url(#a)" xlink:href="#b"/><use fill="#FFE38D" xlink:href="#b"/></g><g transform="matrix(-1 0 0 1 159.674 146)"><use fill="#000" filter="url(#c)" xlink:href="#d"/><use fill="#20D5D2" xlink:href="#d"/></g><g transform="matrix(-1 0 0 1 108.888 146)"><use fill="#000" filter="url(#e)" xlink:href="#f"/><use fill="#FFF" xlink:href="#f"/></g><g transform="matrix(-1 0 0 1 355.272 146)"><use fill="#000" filter="url(#g)" xlink:href="#h"/><use fill="#0F6FFF" xlink:href="#h"/></g><g transform="matrix(-1 0 0 1 313.097 146)"><use fill="#000" filter="url(#i)" xlink:href="#j"/><use fill="#FF6464" xlink:href="#j"/></g><g transform="matrix(-1 0 0 1 200.188 146)"><use fill="#000" filter="url(#k)" xlink:href="#l"/><use fill="#0F6FFF" xlink:href="#l"/></g><g transform="matrix(-1 0 0 1 157.017 146)"><use fill="#000" filter="url(#m)" xlink:href="#n"/><use fill="#0F6FFF" xlink:href="#n"/></g><g transform="matrix(-1 0 0 1 112.208 146)"><use fill="#000" filter="url(#o)" xlink:href="#p"/><use fill="#FF6464" xlink:href="#p"/></g><g transform="matrix(-1 0 0 1 283.21 146)"><use fill="#000" filter="url(#q)" xlink:href="#r"/><use fill="#20D5D2" xlink:href="#r"/></g><g transform="matrix(-1 0 0 1 253.322 146)"><use fill="#000" filter="url(#s)" xlink:href="#t"/><use fill="#20D5D2" xlink:href="#t"/></g><g transform="matrix(-1 0 0 1 250.665 146)"><use fill="#000" filter="url(#u)" xlink:href="#v"/><use fill="#0F6FFF" xlink:href="#v"/></g><g transform="matrix(-1 0 0 1 217.124 146)"><use fill="#000" filter="url(#w)" xlink:href="#x"/><use fill="#FF6464" xlink:href="#x"/></g><g transform="matrix(-1 0 0 1 343.316 146)"><use fill="#000" filter="url(#y)" xlink:href="#z"/><use fill="#20D5D2" xlink:href="#z"/></g><g transform="matrix(-1 0 0 1 272.582 146)"><use fill="#000" filter="url(#A)" xlink:href="#B"/><use fill="#20D5D2" xlink:href="#B"/></g><g transform="matrix(-1 0 0 1 295.828 146)"><use fill="#000" filter="url(#C)" xlink:href="#D"/><use fill="#FFF" xlink:href="#D"/></g><g transform="matrix(-1 0 0 1 292.508 146)"><use fill="#000" filter="url(#E)" xlink:href="#F"/><use fill="#20D5D2" xlink:href="#F"/></g><g transform="matrix(-1 0 0 1 339.331 146)"><use fill="#000" filter="url(#G)" xlink:href="#H"/><use fill="#FFE38D" xlink:href="#H"/></g><g transform="matrix(-1 0 0 1 170.3 146)"><use fill="#000" filter="url(#I)" xlink:href="#J"/><use fill="#0F6FFF" xlink:href="#J"/></g><g transform="matrix(-1 0 0 1 105.561 146)"><use fill="#000" filter="url(#K)" xlink:href="#L"/><use fill="#20D5D2" xlink:href="#L"/></g><path fill="#20D5D2" d="M235.733 160.601h2.657v30.624h-2.657zM235.733 146.131h2.657v11.779h-2.657zM230.751 191.226h2.657v-3.702h-2.657z"/><path fill="#FFE38D" d="M230.751 185.168h2.657v-12.452h-2.657z"/><path fill="#0F6FFF" d="M230.751 157.236h2.657v12.788h-2.657z"/><path fill="#FF6464" d="M230.751 146.131h2.657v8.413h-2.657z"/><path fill="#20D5D2" d="M225.106 176.755h2.657v14.639h-2.657z"/><path fill="#FFF" d="M225.106 164.808h2.657v9.423h-2.657z"/><path fill="#0F6FFF" d="M225.106 157.236h2.657v4.88h-2.657z"/><path fill="#FFF" d="M160 185h2v-21h-2z"/><path fill="#0F6FFF" d="M156 191h2v-27h-2z"/><path fill="#20D5D2" d="M150 185h2v-22h-2z"/><path fill="#0F6FFF" d="M156 209h2v-14h-2z"/><path fill="#20D5D2" d="M160 214h2v-26h-2z"/><path fill="#FFE38D" d="M150 209h2v-21h-2z"/><g transform="translate(6)"><use fill="#000" filter="url(#M)" xlink:href="#N"/><use fill="#FF6464" xlink:href="#N"/></g><g transform="translate(6)"><use fill="#000" filter="url(#O)" xlink:href="#P"/><use fill="#20D5D2" xlink:href="#P"/></g><g transform="translate(6)"><use fill="#000" filter="url(#Q)" xlink:href="#R"/><use fill="#FFF" xlink:href="#R"/></g><g transform="translate(6)"><use fill="#000" filter="url(#S)" xlink:href="#T"/><use fill="#20D5D2" xlink:href="#T"/></g><g transform="translate(6)"><use fill="#000" filter="url(#U)" xlink:href="#V"/><use fill="#20D5D2" xlink:href="#V"/></g><g transform="translate(6)"><use fill="#000" filter="url(#W)" xlink:href="#X"/><use fill="#FFF" xlink:href="#X"/></g><g transform="translate(6)"><use fill="#000" filter="url(#Y)" xlink:href="#Z"/><use fill="#0F6FFF" xlink:href="#Z"/></g><g transform="translate(6)"><use fill="#000" filter="url(#aa)" xlink:href="#ab"/><use fill="#0F6FFF" xlink:href="#ab"/></g><g transform="translate(6)"><use fill="#000" filter="url(#ac)" xlink:href="#ad"/><use fill="#0F6FFF" xlink:href="#ad"/></g><g transform="translate(6)"><use fill="#000" filter="url(#ae)" xlink:href="#af"/><use fill="#0F6FFF" xlink:href="#af"/></g><g transform="translate(6)"><use fill="#000" filter="url(#ag)" xlink:href="#ah"/><use fill="#0F6FFF" xlink:href="#ah"/></g><g transform="translate(6)"><use fill="#000" filter="url(#ai)" xlink:href="#aj"/><use fill="#0F6FFF" xlink:href="#aj"/></g><g transform="translate(6)"><use fill="#000" filter="url(#ak)" xlink:href="#al"/><use fill="#FFE38D" xlink:href="#al"/></g><g transform="translate(6)"><use fill="#000" filter="url(#am)" xlink:href="#an"/><use fill="#20D5D2" xlink:href="#an"/></g><g transform="translate(6)"><use fill="#000" filter="url(#ao)" xlink:href="#ap"/><use fill="#20D5D2" xlink:href="#ap"/></g><g transform="translate(6)"><use fill="#000" filter="url(#aq)" xlink:href="#ar"/><use fill="#0F6FFF" xlink:href="#ar"/></g><g transform="translate(6)"><use fill="#000" filter="url(#as)" xlink:href="#at"/><use fill="#0F6FFF" xlink:href="#at"/></g><g transform="translate(6)"><use fill="#000" filter="url(#au)" xlink:href="#av"/><use fill="#0F6FFF" xlink:href="#av"/></g><g transform="translate(6)"><use fill="#000" filter="url(#aw)" xlink:href="#ax"/><use fill="#20D5D2" xlink:href="#ax"/></g><g transform="translate(6)"><use fill="#000" filter="url(#ay)" xlink:href="#az"/><use fill="#20D5D2" xlink:href="#az"/></g><g transform="translate(6)"><use fill="#000" filter="url(#aA)" xlink:href="#aB"/><use fill="#FFF" xlink:href="#aB"/></g><g transform="translate(6)"><use fill="#000" filter="url(#aC)" xlink:href="#aD"/><use fill="#20D5D2" xlink:href="#aD"/></g><g transform="translate(6)"><use fill="#000" filter="url(#aE)" xlink:href="#aF"/><use fill="#0F6FFF" xlink:href="#aF"/></g><path fill="#20D5D2" d="M175.725 30.914h2.663V11.318h-2.663zM175.725 45.797h2.663V33.56h-2.663z"/><path fill="#0F6FFF" d="M175.725 93.422h2.663V58.034h-2.663z"/><path fill="#20D5D2" d="M175.725 55.388h2.663v-6.945h-2.663z"/><path fill="#FF6464" d="M175.725 119.22h2.663V96.067h-2.663z"/><path fill="#0F6FFF" d="M170.732 21.985h2.663V11.732h-2.663z"/><path fill="#20D5D2" d="M170.732 42.16h2.663V24.63h-2.663z"/><path fill="#0F6FFF" d="M170.732 62.334h2.663v-17.53h-2.663zM170.732 69.279h2.663v-4.3h-2.663zM170.732 76.224h2.663v-4.299h-2.663zM170.732 113.928h2.663V78.54h-2.663z"/><path fill="#20D5D2" d="M165.073 56.05h2.663V42.325h-2.663zM165.073 108.305h2.663V94.91h-2.663z"/><path fill="#FFE38D" d="M165.073 92.43h2.663V58.861h-2.663z"/><path fill="#0F6FFF" d="M165.073 39.679h2.663V11.732h-2.663z"/><g transform="translate(80 11)"><use fill="#000" filter="url(#aG)" xlink:href="#aH"/><use fill="#FFF" xlink:href="#aH"/></g><g transform="translate(80 11)"><use fill="#000" filter="url(#aI)" xlink:href="#aJ"/><use fill="#20D5D2" xlink:href="#aJ"/></g><g transform="translate(80 11)"><use fill="#000" filter="url(#aK)" xlink:href="#aL"/><use fill="#20D5D2" xlink:href="#aL"/></g><g transform="translate(80 11)"><use fill="#000" filter="url(#aM)" xlink:href="#aN"/><use fill="#0F6FFF" xlink:href="#aN"/></g><g transform="translate(80 11)"><use fill="#000" filter="url(#aO)" xlink:href="#aP"/><use fill="#0F6FFF" xlink:href="#aP"/></g><g transform="translate(80 11)"><use fill="#000" filter="url(#aQ)" xlink:href="#aR"/><use fill="#FFE38D" xlink:href="#aR"/></g><g transform="translate(80 11)"><use fill="#000" filter="url(#aS)" xlink:href="#aT"/><use fill="#0F6FFF" xlink:href="#aT"/></g><g transform="translate(80 11)"><use fill="#000" filter="url(#aU)" xlink:href="#aV"/><use fill="#0F6FFF" xlink:href="#aV"/></g><g transform="translate(80 11)"><use fill="#000" filter="url(#aW)" xlink:href="#aX"/><use fill="#0F6FFF" xlink:href="#aX"/></g><g transform="translate(80 11)"><use fill="#000" filter="url(#aY)" xlink:href="#aZ"/><use fill="#0F6FFF" xlink:href="#aZ"/></g><g transform="translate(80 11)"><use fill="#000" filter="url(#ba)" xlink:href="#bb"/><use fill="#20D5D2" xlink:href="#bb"/></g><g transform="translate(80 11)"><use fill="#000" filter="url(#bc)" xlink:href="#bd"/><use fill="#20D5D2" xlink:href="#bd"/></g><g transform="translate(80 11)"><use fill="#000" filter="url(#be)" xlink:href="#bf"/><use fill="#FF6464" xlink:href="#bf"/></g><g transform="translate(80 11)"><use fill="#000" filter="url(#bg)" xlink:href="#bh"/><use fill="#20D5D2" xlink:href="#bh"/></g><g transform="rotate(90 64.5 183)"><use fill="#000" filter="url(#bi)" xlink:href="#bj"/><use fill="#FFE38D" xlink:href="#bj"/></g><g transform="rotate(90 63.5 174)"><use fill="#000" filter="url(#bk)" xlink:href="#bl"/><use fill="#20D5D2" xlink:href="#bl"/></g><g transform="rotate(90 70 170)"><use fill="#000" filter="url(#bm)" xlink:href="#bn"/><use fill="#20D5D2" xlink:href="#bn"/></g><g transform="translate(6)"><use fill="#000" filter="url(#bo)" xlink:href="#bp"/><use fill="#0F6FFF" xlink:href="#bp"/></g><g transform="translate(6)"><use fill="#000" filter="url(#bq)" xlink:href="#br"/><use fill="#20D5D2" xlink:href="#br"/></g><g transform="translate(6)"><use fill="#000" filter="url(#bs)" xlink:href="#bt"/><use fill="#20D5D2" xlink:href="#bt"/></g><g transform="translate(6)"><use fill="#000" filter="url(#bu)" xlink:href="#bv"/><use fill="#20D5D2" xlink:href="#bv"/></g><g transform="translate(6)"><use fill="#000" filter="url(#bw)" xlink:href="#bx"/><use fill="#FFE38D" xlink:href="#bx"/></g><g transform="translate(6)"><use fill="#000" filter="url(#by)" xlink:href="#bz"/><use fill="#0F6FFF" xlink:href="#bz"/></g><g transform="translate(6)"><use fill="#000" filter="url(#bA)" xlink:href="#bB"/><use fill="#FFF" xlink:href="#bB"/></g><g transform="translate(6)"><use fill="#000" filter="url(#bC)" xlink:href="#bD"/><use fill="#20D5D2" xlink:href="#bD"/></g><g transform="translate(6)"><use fill="#000" filter="url(#bE)" xlink:href="#bF"/><use fill="#0F6FFF" xlink:href="#bF"/></g><g transform="translate(6)"><use fill="#000" filter="url(#bG)" xlink:href="#bH"/><use fill="#20D5D2" xlink:href="#bH"/></g><g transform="rotate(90 59 204)"><use fill="#000" filter="url(#bI)" xlink:href="#bJ"/><use fill="#0F6FFF" xlink:href="#bJ"/></g><g transform="rotate(90 59.5 182)"><use fill="#000" filter="url(#bK)" xlink:href="#bL"/><use fill="#FF6464" xlink:href="#bL"/></g><g transform="rotate(90 69.5 179)"><use fill="#000" filter="url(#bM)" xlink:href="#bN"/><use fill="#0F6FFF" xlink:href="#bN"/></g><g transform="rotate(90 69.5 185)"><use fill="#000" filter="url(#bO)" xlink:href="#bP"/><use fill="#0F6FFF" xlink:href="#bP"/></g><path fill="#20D5D2" d="M66 188h2v26h-2zM71 187h2v22h-2z"/><path fill="#0F6FFF" d="M61 137h2v24h-2zM66 152h2v14h-2zM71 148h2v11h-2z"/><path fill="#20D5D2" d="M71 115h2v31h-2zM71 93h2v21h-2z"/><path fill="#20D5D2" d="M71 93h2v21h-2zM66 129h2v21h-2z"/><path fill="#0F6FFF" d="M66 112h2v14h-2zM66 102h2v8h-2z"/><path fill="#FFF" d="M61 124h2v9h-2z"/><path fill="#20D5D2" d="M61 117h2v4h-2zM61 112h2v4h-2z"/><path fill="#0F6FFF" d="M61 84h2v26h-2z"/><path fill="#FFE38D" d="M156 249h2v-27h-2z"/><path fill="#0F6FFF" d="M160 243h2v-16h-2zM160 255h2v-9h-2zM150 269h2v-27h-2z"/><path fill="#FFE38D" d="M150 232h2v-5h-2z"/><path fill="#20D5D2" d="M150 239h2v-5h-2zM156 266h2v-14h-2z"/><path fill="#FF6464" d="M156 283h2v-14h-2z"/><path fill="#0F6FFF" d="M160 270h2v-11h-2z"/><g><path fill="#20D5D2" d="M71.857 75.224h2.594v12.325h-2.594zM71.857 60.048h2.594v12.658h-2.594z"/><path fill="#0F6FFF" d="M71.857 50.81h2.594v6.995h-2.594z"/><path fill="#20D5D2" d="M71.857 38.272h2.594v10.326h-2.594zM71.857 24.415h2.594v11.658h-2.594z"/><path fill="#0F6FFF" d="M71.857 5.279h2.594v16.322h-2.594z"/><path fill="#FF6464" d="M66.714 79.184h2.594v17.654h-2.594z"/><path fill="#0F6FFF" d="M66.714 65.327h2.594v17.654h-2.594zM66.714 44.871h2.594v17.654h-2.594zM66.714 5.279h2.594v10.326h-2.594z"/><path fill="#FFE38D" d="M66.714 17.816h2.594v24.982h-2.594zM61.571 55.429h2.594v23.317h-2.594z"/><path fill="#20D5D2" d="M61.571 44.211h2.594v8.327h-2.594z"/><path fill="#0F6FFF" d="M61.571 23.755h2.594v17.654h-2.594z"/><path fill="#20D5D2" d="M61.571 5.279h2.594v16.322h-2.594zM59 0h17.508v2.665H59z"/></g></g></svg>