<svg width="173" height="85" viewBox="0 0 173 85" xmlns="http://www.w3.org/2000/svg"><title>Group</title><g fill="none" fill-rule="evenodd"><g fill="#FFAA64"><path d="M136.636 61.442h5.874v15.771h-5.874z"/><path d="M139.153 58.952h1v3.32h-1zM139.153 76.383h1v3.32h-1zM166.427 66.196h5.874v15.842h-5.874z"/><path d="M168.912 63.518h1v3.347h-1zM168.912 80.922h1v3.347h-1zM144.188 63.102h5.874v11.206h-5.874zM158.874 62.272h5.874v7.055h-5.874zM151.741 55.632h5.874v22.826h-5.874zM146.706 55.217h1v7.885h-1z"/><path d="M161.391 59.367h1v7.885h-1zM153.84 52.727h1v5.395h-1zM146.706 73.063h1v3.32h-1zM161.391 67.668h1v3.32h-1zM153.84 77.628h1v5.395h-1z"/></g><path stroke="#00132E" stroke-width="3" stroke-linecap="round" stroke-linejoin="round" d="M43.964 43.23h30.052l15.536-28.587h12.734M71.042 43.23h30.052l15.536 28.588h12.734"/><g fill="#FFAA64"><path d="M109.229 0h2.195v19.82h-2.195zM113.619 1.723h2.195v18.096h-2.195zM118.01 8.33h2.195v11.49h-2.195zM122.4 2.585h2.195v17.234H122.4zM126.79 14.075h2.195v5.745h-2.195z"/></g><g fill="#F0F3F6" stroke="#00132E" stroke-linejoin="round" stroke-width="5.39"><path d="M32.16 43.232l-14.58 25.1h29.161l14.58-25.1v-.002l-.002.002zM32.159 42.532l-14.58-25.1L3 42.532l14.58 25.103 14.58-25.103zM17.58 17.432l14.581 25.101h29.16v-.001l-14.579-25.1z"/></g></g></svg>