<svg width="398" height="463" viewBox="0 0 398 463" xmlns="http://www.w3.org/2000/svg"><title>Group 26</title><defs><linearGradient x1="50%" y1="0%" x2="50%" y2="100%" id="a"><stop stop-color="#F8F8F8" offset="0%"/><stop stop-color="#FFF" offset="100%"/></linearGradient></defs><g fill="none" fill-rule="evenodd"><path fill="#0D1D3A" d="M324 281.5L200 215 76 281.5 200 348z"/><path fill="#0D1D3A" d="M199 347.183V463l124-66.183V281z"/><path fill="#1B0D44" d="M76 396.817L200 463V347.183L76 281z"/><path d="M108.288 281.86l92.836 49.778 92.837-49.779L398.74.282H.998z" fill="url(#a)" opacity=".523" transform="translate(-1)"/><path fill="#FF6464" d="M198.667 81L186 59h25.336L224 81h-.003z"/><path fill="#FF6464" d="M199 80.5L186.5 102 174 80.5 186.5 59z"/><path fill="#FFAA64" d="M186 102l12.667-22h25.33l.003.003L211.333 102z"/><path fill="#FF6464" d="M236 101.5L248.5 80l12.5 21.5-12.5 21.5z"/><path fill="#FF6464" d="M236.33 102H211l12.664-22H249l-12.667 22z"/><path fill="#FFAA64" d="M211 102h25.333L249 124h-25.333z"/><path fill="#FF6464" d="M236.668 146H262l-12.666 22H224h.003zM236.667 145.997L224 124h25.333L262 146h-25.333z"/><path fill="#FFAA64" d="M224.499 124L237 145.503 224.501 167h-.002L212 145.503z"/><path fill="#FF6464" d="M199.332 167L212 189h-25.334L174 167h.003z"/><path fill="#FF6464" d="M199.003 167.5l12.5-21.5L224 167.5 211.503 189 199 167.5z"/><path fill="#FFAA64" d="M212 146l-12.67 22H174l12.667-22z"/><path fill="#FF6464" d="M161 145.5L148.497 167 136 145.5l12.497-21.5h.003zM161.67 146H187l-12.664 22H149z"/><path fill="#FFAA64" d="M187 146h-25.332L149 124h25.332z"/><path fill="#FF6464" d="M161.333 103H136l12.664-22H174z"/><path fill="#FF6464" d="M161.332 102L174 124h-25.335L136 102h25.335z"/><path fill="#FFAA64" d="M173.499 124L161 102.5 173.499 81 186 102.5z"/><path fill="#FFE38D" d="M212.25 102h-25.5L174 124l12.75 22h25.5L225 124z"/></g></svg>