<svg xmlns="http://www.w3.org/2000/svg" viewBox="0 0 1079.53 521.22"><defs><style>.cls-1{fill:url(#linear-gradient)}.cls-14,.cls-2,.cls-3,.cls-35,.cls-6{fill:none}.cls-2{clip-rule:evenodd}.cls-4{isolation:isolate}.cls-5{fill:#110a2d}.cls-35,.cls-6{stroke:#110a2d;stroke-width:2px}.cls-14,.cls-35,.cls-6{stroke-miterlimit:10}.cls-34,.cls-7{fill-rule:evenodd}.cls-7{fill:url(#linear-gradient-2)}.cls-8{fill:#1b0d44}.cls-9{fill:#0d1d3a}.cls-10{fill:#ff6464}.cls-11{fill:#65cdc9}.cls-12{fill:#ffe38d}.cls-13{fill:#ffaa64}.cls-14{stroke:#ff6464;stroke-width:.66px}.cls-15{clip-path:url(#clip-path)}.cls-16{clip-path:url(#clip-path-2)}.cls-17{clip-path:url(#clip-path-3)}.cls-18{fill:#ffa3a3}.cls-19{clip-path:url(#clip-path-5)}.cls-20{fill:#00132e}.cls-21{clip-path:url(#clip-path-7)}.cls-22{clip-path:url(#clip-path-9)}.cls-23{clip-path:url(#clip-path-10)}.cls-24{clip-path:url(#clip-path-11)}.cls-25{fill:#2900aa}.cls-26{fill:#080516}.cls-27{fill:#f54c43}.cls-28{fill:#9dd6e7}.cls-29{fill:#3360b4}.cls-30{fill:#00c4eb;mix-blend-mode:multiply}.cls-31{fill:#006ed5}.cls-32{fill:#1a1a1a}.cls-33{mask:url(#mask)}.cls-34{fill:#fff}.cls-35{stroke-linecap:round}</style><linearGradient id="linear-gradient" x1="935.54" y1="874.66" x2="935.54" y2="1087.92" gradientUnits="userSpaceOnUse"><stop offset=".26"/><stop offset="1" stop-color="#fff" stop-opacity=".2"/></linearGradient><linearGradient id="linear-gradient-2" x1="352.27" y1="1018.51" x2="1431.8" y2="1018.51" gradientUnits="userSpaceOnUse"><stop offset="0" stop-color="#52e5e7"/><stop offset=".69" stop-color="#0130cb"/></linearGradient><clipPath id="clip-path" transform="translate(-352.27 -677.65)"><path class="cls-2" d="M723.4 1191.28s6 1.52 7.53 3-16.57 1.52-16.57 1.52 1.5-39.47 3-45.55-4.52-34.92-6-36.44-1.51 3-1.51 3 0 27.33-3 38-6 25.81-6 27.33v7.59s6 1.52 6 3-15.07 1.51-15.07 1.51 3-56.18 3-57.69 0-15.19-1.5-21.26-1.51-19.74-1.51-19.74v-3h40.69s0 34.92-1.51 45.54-4.52 31.89-4.52 31.89z"/></clipPath><clipPath id="clip-path-2" transform="translate(-352.27 -677.65)"><path class="cls-3" d="M0 0h874.56v3006.89H0z"/></clipPath><clipPath id="clip-path-3" transform="translate(-352.27 -677.65)"><path class="cls-2" d="M783.83 1031.23c0-.76 1.32-1.75 1.52 0 .17 1.5-1.52 1.51 0 3s1.52 6 0 6-15.22 9.07-15.22 9.07-15.23 10.58-18.27 9.07-18.27-12.09-21.32-12.09-24.36-9.07-24.36-13.6v-13.21a3 3 0 0 1 .1-.73c.32-1.1 1.18-4.69-.1-7.22-1.52-3-2.28-12.85 3.81-14.36s10.66 0 12.18 3 1.52 7.55 1.52 10.57a38.94 38.94 0 0 1-1 6.95 2.71 2.71 0 0 1-2.65 2.12h-.24a2.67 2.67 0 0 0-2.65 3.31 6.14 6.14 0 0 0 .48 1.22c1.52 3 27.41 18.14 30.45 19.65a22.69 22.69 0 0 1 3.52 2.15 2.75 2.75 0 0 0 2.46.44l22.3-6.92a2.59 2.59 0 0 0 1.12-.68c1.66-1.67 6.38-7.08 6.38-7.83"/></clipPath><clipPath id="clip-path-5" transform="translate(-352.27 -677.65)"><path class="cls-2" d="M748.83 1042.64a4.4 4.4 0 0 1-.47 1.56c-.44 1.34-.89 2.69-1.34 4-.27.82-3.09 7.72-2.69 8.08a27.6 27.6 0 0 0-7.87-5 2.65 2.65 0 0 0-2.17-.21c-.85.43-1 1.55-1.08 2.5q-1.19 18.93-.94 37.91a5.7 5.7 0 0 1-.37 2.6 5.27 5.27 0 0 1-1.37 1.57 31.68 31.68 0 0 1-19 7.75 26.7 26.7 0 0 1-19.2-6.84 4.28 4.28 0 0 1-1.67-3.55c-.8-10.68 2.94-21.25 2.64-32-.26-9.49-3.7-19-2-28.29a7.76 7.76 0 0 1 1.65-3.95 8 8 0 0 1 2.79-1.72 37.76 37.76 0 0 1 10.7-2.77c-.54.06.69 2.08.88 2.23a6.73 6.73 0 0 0 2.89.92c2.49.4 5.93.13 7.65-2a5.09 5.09 0 0 1 1.22-1.35 3.07 3.07 0 0 1 1.53-.27c5.81.08 11.28 2.88 15.83 6.51 4 3.22 7.49 7.09 11.11 10.76.31.32 1.18.9 1.3 1.32a.29.29 0 0 1 0 .09"/></clipPath><clipPath id="clip-path-7" transform="translate(-352.27 -677.65)"><path class="cls-3" d="M699.27 989.96h24.18v30.67h-24.18z"/></clipPath><clipPath id="clip-path-9" transform="translate(-352.27 -677.65)"><path class="cls-3" d="M697.82 987.52h27.33v36.44h-27.33z"/></clipPath><clipPath id="clip-path-10" transform="translate(-352.27 -677.65)"><path class="cls-2" d="M721.53 1013.34a3.28 3.28 0 0 1-3.34-3.37c0-3.36 1.67-5.05 3.34-3.36s1.66 0 1.66 0-3.33-5.05-1.66-6.73 3.33-3.37 0-6.74-8.33-5-15 0-8.34 8.42-6.67 13.47 6.67 11.78 6.67 11.78 5 5 10 0z"/></clipPath><clipPath id="clip-path-11" transform="translate(-352.27 -677.65)"><path class="cls-3" d="M699.04 989.95h24.9v30.97h-24.9z"/></clipPath><mask id="mask" x="428.52" y="196.83" width="309.5" height="214.03" maskUnits="userSpaceOnUse"><path class="cls-1" d="M780.79 874.66h309.5v213.26h-309.5z" transform="translate(-352.27 -677.65)"/></mask></defs><title>mid page</title><g class="cls-4"><g id="Layer_2" data-name="Layer 2"><g id="Layer_1-2" data-name="Layer 1"><path class="cls-5" d="M515.15 114.26h11.83v157.09h-11.83zM607.8 114.26h11.83v157.09H607.8z"/><path class="cls-5" d="M515.15 114.26v11.83h102.6v-11.83h-102.6z"/><rect class="cls-5" x="563.59" width="11.83" height="157.09" rx="5.92" ry="5.92"/><path class="cls-5" d="M713.18 0h11.83v83.02h-11.83z"/><path class="cls-5" transform="rotate(-90 483.3 520.88)" d="M992.35 605.03h11.83v157.09h-11.83z"/><path class="cls-5" d="M698.4 67.88h41.4v16.39h-41.4z"/><path class="cls-6" d="M565.02 66.4l-38.32 50.83M565.02 81.73l-27.03 35.5M565.28 96.65l-14.66 20.58M569.77 65.01l38.32 50.83M569.77 80.34l27.02 35.5M569.51 95.26l14.66 20.58"/><path class="cls-5" transform="rotate(-90 347.215 768.005)" d="M843.79 762.19h36.78v337.02h-36.78z"/><path class="cls-5" d="M394.82 114.34h11.83v157.09h-11.83zM487.46 114.34h11.83v157.09h-11.83z"/><path class="cls-5" d="M394.82 114.34v11.83h102.6v-11.83h-102.6z"/><path class="cls-7" d="M1277.81 917.09q-270.88 28-512.53 14c-241.65-14-445.74 48.84-408.63 85s558.45 129 739.8 97.43 335.35-29 335.35-52.92q0-23.94-153.99-143.51z" transform="translate(-352.27 -677.65)"/><path class="cls-8" d="M315.53 451.91l-27.34-73.34h588.67l-32 73.34H315.53z"/><path class="cls-9" d="M318.19 335.24h520.67l38 43.33H288.19l30-43.33z"/><path class="cls-9" d="M390.91 377.06h-68.17l29.14-38.49 57.99-.15-18.96 38.64z"/><path class="cls-10" d="M395.33 356.13l-49.55.06 3.06-4.21 48.66-.08-2.17 4.23z"/><path class="cls-11" d="M387.01 372.27l-52.91.01 3.05-4.21 52.03-.02-2.17 4.22z"/><path class="cls-12" d="M383.79 343.27l-28.67.07-3.06 4.21 29.21-.06 2.52-4.22z"/><path class="cls-11" d="M392.93 343.25l-2.35 4.22 9.22-.02 2.18-4.22-9.05.02z"/><path class="cls-13" d="M353.23 360.02l-10.23.01-3.06 4.21 10.41-.01 2.88-4.21z"/><path class="cls-12" d="M362.13 360.01l-2.72 4.21 31.76-.02 2.17-4.23-31.21.04z"/><path class="cls-9" d="M466.17 377.06H398l17.9-38.66 58-.15-7.73 38.81zM719.1 377.67h-68.17l5.37-38.85 58-.16 4.8 39.01zM850.65 377.06h-129.8l-6.63-39.03 110.42-.3 26.01 39.33z"/><path class="cls-13" d="M780.69 1023.19c-.46 1.17-2.31 2.12-4.14 2.12s-2.9-.94-2.41-2.1 2.35-2.12 4.14-2.12 2.87.91 2.41 2.1zM792.27 1023.17c-.4 1.17-2.2 2.12-4 2.12s-3-.94-2.52-2.11 2.24-2.12 4-2.12 2.92.94 2.52 2.11z" transform="translate(-352.27 -677.65)"/><path class="cls-11" d="M803.86 1023.14c-.34 1.17-2.09 2.12-3.92 2.13s-3-.94-2.62-2.11 2.13-2.12 3.92-2.13 2.96.97 2.62 2.11z" transform="translate(-352.27 -677.65)"/><path class="cls-10" d="M815.45 1023.12c-.28 1.17-2 2.12-3.81 2.13s-3-1-2.74-2.12 2-2.12 3.82-2.12 3.01.99 2.73 2.11z" transform="translate(-352.27 -677.65)"/><path class="cls-13" d="M777.5 1031.31c-.46 1.17-2.37 2.12-4.25 2.12s-3-.94-2.53-2.11 2.39-2.12 4.25-2.12 3.03.94 2.53 2.11z" transform="translate(-352.27 -677.65)"/><path class="cls-12" d="M789.5 1031.29c-.4 1.17-2.26 2.12-4.15 2.12s-3.06-.94-2.63-2.11 2.29-2.12 4.14-2.12 3.04.94 2.64 2.11z" transform="translate(-352.27 -677.65)"/><path class="cls-13" d="M801.5 1031.27c-.34 1.17-2.15 2.12-4 2.12s-3.11-.94-2.74-2.11 2.18-2.12 4-2.12 3.08.94 2.74 2.11zM813.5 1031.25c-.28 1.17-2 2.13-3.93 2.13s-3.16-1-2.85-2.12 2.07-2.12 3.93-2.12 3.13.94 2.85 2.11zM774.31 1039.42c-.46 1.17-2.42 2.12-4.37 2.12s-3.14-.94-2.64-2.11 2.44-2.12 4.36-2.12 3.11.95 2.65 2.11z" transform="translate(-352.27 -677.65)"/><path class="cls-11" d="M786.72 1039.41c-.4 1.17-2.31 2.12-4.26 2.12s-3.18-.94-2.75-2.11 2.34-2.12 4.26-2.12 3.15.94 2.75 2.11z" transform="translate(-352.27 -677.65)"/><path class="cls-13" d="M799.13 1039.4c-.34 1.17-2.2 2.12-4.15 2.12s-3.23-.94-2.86-2.11 2.23-2.12 4.15-2.12 3.2.94 2.86 2.11zM811.55 1039.39c-.28 1.17-2.1 2.12-4 2.12s-3.28-1-3-2.12 2.12-2.12 4-2.12 3.28.95 3 2.12zM771.12 1047.54c-.46 1.17-2.47 2.11-4.49 2.11s-3.25-.94-2.76-2.11 2.5-2.11 4.49-2.11 3.22.94 2.76 2.11zM783.94 1047.53c-.4 1.17-2.36 2.12-4.37 2.12s-3.31-1-2.87-2.11 2.39-2.12 4.37-2.12 3.27.94 2.87 2.11zM796.77 1047.53c-.34 1.17-2.25 2.12-4.27 2.12s-3.35-1-3-2.12 2.29-2.12 4.27-2.12 3.34.95 3 2.12zM809.6 1047.52c-.29 1.17-2.15 2.12-4.17 2.12s-3.39-.94-3.08-2.11 2.18-2.12 4.16-2.13 3.37.95 3.09 2.12z" transform="translate(-352.27 -677.65)"/><path class="cls-11" d="M1038.24 1035.49l-5.49 13.64c-10.7-1.46-17.81-7.13-17.17-13.61.75-7.67 11-14 22.72-14s21.91 6.29 22.6 14z" transform="translate(-352.27 -677.65)"/><path class="cls-14" d="M1087.25 1047c.92-4 2.11-8.69 6.16-11.68 4.23-3.21 10.44-.18 14.12 2.92 2.74 2.27 3.78 4.67 5.87 7.08a5.53 5.53 0 0 0 1.92 1.49 6.38 6.38 0 0 0 8.27-2.31c1-1.87 1-4 1-6 0-2.73-3-11.81 3.41-11.45 4.11.24 9.45 6.66 11 8.43 2.2 2.5 7.64 11 12.49 11 2.54 0 3.37-1.09 3.21-2.46-.66-5.25-4.64-10.67-4.8-15.91-.14-2.94 3-5.54 8.63-3 11.9 5.29 23.48 21.94 23.48 21.94" transform="translate(-352.27 -677.65)"/><path class="cls-15 cls-16 cls-10" d="M336.44 411.9h46.76v109.32h-46.76z"/><path class="cls-17 cls-16 cls-18" d="M349.8 315.94h87.46v68.02H349.8z"/><path class="cls-19 cls-16 cls-20" d="M335.23 343.27h64.38v85.63h-64.38z"/><path class="cls-21 cls-16 cls-4 cls-22 cls-23 cls-24 cls-25" d="M343.96 309.27h30.25v36.75h-30.25z"/><path class="cls-8" d="M923.33 852h442.11v129l-336.16-4.13s-6.52-32.18-105.95-124.87z" transform="translate(-352.27 -677.65)"/><path class="cls-26" d="M923.33 852.11h442.11v4.42l-438.23-.79z" transform="translate(-352.27 -677.65)"/><path class="cls-27" d="M1013.17 289.51H672.8l-1.71-3.05h342.08v3.05z"/><path class="cls-28" d="M904.79 141.61h108.38v32.73H904.79z"/><path class="cls-29" d="M796.41 141.61h108.38v32.73H796.41z"/><path class="cls-28" d="M688.03 141.61h108.38v32.73H688.03z"/><path class="cls-30" d="M796.41 43.35h108.38v32.73H796.41z"/><path class="cls-31" d="M688.03 108.97h108.38v32.73H688.03z"/><path class="cls-28" d="M796.41 108.89h108.38v32.73H796.41z"/><path class="cls-30" d="M904.79 108.89h108.38v32.73H904.79z"/><path class="cls-29" d="M796.41 76.16h108.38v32.73H796.41z"/><path class="cls-31" d="M904.79 78.54h108.38v32.73H904.79z"/><path class="cls-9" d="M662.53 378.11l-80-42.87-80 42.87 80 42.87 80-42.87z"/><path class="cls-32" d="M522.53 378.11l60-32.15 60 32.15-60 32.16-60-32.16z"/><path class="cls-9" d="M662.53 378.11v75.03l-80 42.87v-75.03l80-42.87z"/><path class="cls-8" d="M502.53 378.11v75.03l80 42.87v-75.03l-80-42.87z"/><path class="cls-33 cls-34" d="M523.04 378.7l60 32.16 60-32.16 67.71-181.87H453.7l69.34 181.87z"/><path class="cls-10" d="M581.8 333.27l-4.8-8.32h9.61l4.81 8.32h-9.62z"/><path class="cls-10" d="M581.8 333.27l-4.8 8.33-4.81-8.33 4.81-8.32 4.8 8.32z"/><path class="cls-13" d="M577 341.6l4.8-8.33h9.62l-4.81 8.33H577z"/><path class="cls-10" d="M596.27 341.56l4.81-8.32 4.8 8.32-4.8 8.33-4.81-8.33z"/><path class="cls-10" d="M596.27 341.56h-9.61l4.81-8.32h9.61l-4.81 8.32z"/><path class="cls-13" d="M586.66 341.56h9.61l4.81 8.33h-9.61l-4.81-8.33z"/><path class="cls-10" d="M596.33 358.24h9.61l-4.8 8.32h-9.62l4.81-8.32zM596.33 358.24l-4.81-8.33h9.62l4.8 8.33h-9.61z"/><path class="cls-13" d="M591.52 349.91l4.81 8.33-4.81 8.32-4.8-8.32 4.8-8.33z"/><path class="cls-10" d="M581.92 366.62l4.8 8.33h-9.61l-4.81-8.33h9.62z"/><path class="cls-10" d="M581.92 366.62l4.8-8.32 4.81 8.32-4.81 8.33-4.8-8.33z"/><path class="cls-13" d="M586.72 358.3l-4.8 8.32h-9.62l4.81-8.32h9.61z"/><path class="cls-10" d="M567.45 358.33l-4.81 8.33-4.8-8.33 4.8-8.32 4.81 8.32z"/><path class="cls-10" d="M567.45 358.34h9.61l-4.81 8.32h-9.61l4.81-8.33v.01z"/><path class="cls-13" d="M577.06 358.33h-9.61l-4.81-8.32h9.61l4.81 8.32z"/><path class="cls-10" d="M567.39 341.66h-9.61l4.81-8.32h9.61l-4.81 8.32zM567.39 341.66l4.81 8.32h-9.61l-4.81-8.32h9.61z"/><path class="cls-13" d="M572.2 349.98l-4.81-8.32 4.81-8.32 4.8 8.32-4.8 8.32z"/><path class="cls-12" d="M586.79 341.6h-9.76l-4.87 8.44 4.87 8.45h9.76l4.87-8.45-4.87-8.44z"/><path class="cls-5" d="M441.46 11.97h11.83v157.09h-11.83z"/><path class="cls-5" d="M427.06 156.58h41.4v16.39h-41.4z"/><path class="cls-6" d="M444.68 66.48l-38.32 50.83M444.68 81.81l-27.02 35.5M444.94 96.73l-14.66 20.58M449.43 65.09l38.32 50.84M449.43 80.43l27.02 35.5M449.17 95.34l14.66 20.59"/><path class="cls-35" d="M445 171.05l-12.1 8.96 6.05 14.5M450.34 171.05l12.1 8.96-6.05 14.5M716.43 83.61l-12.1 8.96 6.05 14.5M721.77 83.61l12.1 8.96-6.05 14.5"/></g></g></g></svg>