<svg xmlns="http://www.w3.org/2000/svg" viewBox="0 0 978.84 483.49"><defs><style>.cls-1,.cls-2,.cls-23{fill:none}.cls-1{clip-rule:evenodd}.cls-3{fill:#ffe38d}.cls-4{fill-rule:evenodd;fill:url(#linear-gradient)}.cls-5{fill:#00132e}.cls-21,.cls-6{fill:#110a2d}.cls-7{fill:url(#linear-gradient-2)}.cls-8{fill:#4d4d4d}.cls-9{fill:#f54c43}.cls-10{fill:#3d85ff}.cls-11{fill:#ccc}.cls-12{fill:#999}.cls-13{fill:#010f27}.cls-14{fill:#00534d}.cls-15{fill:#8cc63f}.cls-16{fill:#52e5e7}.cls-17{fill:#666}.cls-18{fill:#1b0d44}.cls-19{fill:#1a1a1a}.cls-20{fill:#fff}.cls-21{stroke:#110a2d}.cls-21,.cls-23{stroke-miterlimit:10;stroke-width:.84px}.cls-22{fill:#004034}.cls-23{stroke:#fff;stroke-linecap:round}.cls-24{fill:#f2f6f7}.cls-25{fill:#f2f2f2}.cls-26{fill:#f7f7f7}.cls-27{clip-path:url(#clip-path)}.cls-28{clip-path:url(#clip-path-2)}.cls-29{fill:#ff6464}.cls-30{clip-path:url(#clip-path-3)}.cls-31{fill:#ffa3a3}.cls-32{clip-path:url(#clip-path-5)}.cls-33{clip-path:url(#clip-path-7)}.cls-34{isolation:isolate}.cls-35{clip-path:url(#clip-path-9)}.cls-36{clip-path:url(#clip-path-10)}.cls-37{clip-path:url(#clip-path-11)}.cls-38{fill:#2900aa}</style><linearGradient id="linear-gradient" x1="228.99" y1="932.99" x2="1207.82" y2="932.99" gradientUnits="userSpaceOnUse"><stop offset="0" stop-color="#52e5e7"/><stop offset=".69" stop-color="#0130cb"/></linearGradient><linearGradient id="linear-gradient-2" x1="338.39" y1="266.91" x2="479.48" y2="266.91" gradientUnits="userSpaceOnUse"><stop offset="0" stop-color="#002e61"/><stop offset=".27" stop-color="#012c5f"/><stop offset="1" stop-color="#110a2d"/></linearGradient><clipPath id="clip-path" transform="translate(-228.99 -571.05)"><path class="cls-1" d="M608.47 1002s5.07 1.28 6.34 2.56-13.95 1.28-13.95 1.28 1.27-33.21 2.54-38.32-3.8-29.37-5.07-30.65-1.27 2.56-1.27 2.56 0 23-2.53 31.92-5.08 21.72-5.08 23v6.39s5.08 1.27 5.08 2.55-12.68 1.28-12.68 1.28 2.53-47.26 2.53-48.53 0-12.77-1.26-17.88-1.27-16.6-1.27-16.6V919h34.22s0 29.37-1.26 38.31L611 984.14z"/></clipPath><clipPath id="clip-path-2" transform="translate(-228.99 -571.05)"><path class="cls-2" d="M0 0h735.61v2529.17H0z"/></clipPath><clipPath id="clip-path-3" transform="translate(-228.99 -571.05)"><path class="cls-1" d="M659.3 867.39c0-.64 1.11-1.47 1.28 0 .14 1.26-1.28 1.27 0 2.54s1.28 5.09 0 5.09-12.81 7.62-12.81 7.62-12.8 8.9-15.36 7.63S617 880.1 614.48 880.1 594 872.48 594 868.66v-11.11a2.49 2.49 0 0 1 .08-.61c.27-.93 1-4-.08-6.08-1.28-2.54-1.92-10.8 3.2-12.07s9 0 10.24 2.54 1.29 6.36 1.29 8.9a33.8 33.8 0 0 1-.87 5.85 2.28 2.28 0 0 1-2.23 1.78h-.21a2.25 2.25 0 0 0-2.23 2.78 7.33 7.33 0 0 0 .41 1c1.28 2.54 23 15.25 25.61 16.53a18.86 18.86 0 0 1 3 1.8 2.29 2.29 0 0 0 2.07.37l18.72-5.79a2.26 2.26 0 0 0 1-.57c1.39-1.41 5.36-6 5.36-6.59"/></clipPath><clipPath id="clip-path-5" transform="translate(-228.99 -571.05)"><path class="cls-1" d="M629.86 877a3.81 3.81 0 0 1-.39 1.31c-.38 1.13-.76 2.27-1.13 3.4-.23.69-2.6 6.5-2.27 6.8a23.39 23.39 0 0 0-6.61-4.17 2.28 2.28 0 0 0-1.83-.18c-.71.37-.86 1.31-.91 2.11q-1 15.91-.79 31.89a4.77 4.77 0 0 1-.31 2.19 4.49 4.49 0 0 1-1.15 1.31 26.66 26.66 0 0 1-16 6.53 22.47 22.47 0 0 1-16.14-5.76 4.31 4.31 0 0 1-1.05-1.28 4.66 4.66 0 0 1-.36-1.7c-.67-9 2.48-17.88 2.23-26.89-.23-8-3.11-15.93-1.71-23.79a6.46 6.46 0 0 1 1.39-3.32 6.58 6.58 0 0 1 2.34-1.45 31.93 31.93 0 0 1 9-2.33c-.45 0 .58 1.74.74 1.87a5.57 5.57 0 0 0 2.43.78c2.1.34 5 .11 6.44-1.67a4.42 4.42 0 0 1 1-1.13 2.48 2.48 0 0 1 1.29-.23c4.89.06 9.49 2.42 13.31 5.48a109.38 109.38 0 0 1 9.35 9c.26.26 1 .76 1.1 1.11v.07"/></clipPath><clipPath id="clip-path-7" transform="translate(-228.99 -571.05)"><path class="cls-2" d="M588.17 832.68h20.34v25.8h-20.34z"/></clipPath><clipPath id="clip-path-9" transform="translate(-228.99 -571.05)"><path class="cls-2" d="M586.96 830.63h22.99v30.65h-22.99z"/></clipPath><clipPath id="clip-path-10" transform="translate(-228.99 -571.05)"><path class="cls-1" d="M606.9 852.34a2.76 2.76 0 0 1-2.81-2.83c0-2.83 1.4-4.24 2.81-2.83s1.4 0 1.4 0-2.81-4.24-1.4-5.66 2.8-2.83 0-5.66-7-4.25-12.61 0-7 7.08-5.61 11.32 5.61 9.91 5.61 9.91 4.2 4.25 8.4 0z"/></clipPath><clipPath id="clip-path-11" transform="translate(-228.99 -571.05)"><path class="cls-2" d="M587.98 832.67h20.94v26.05h-20.94z"/></clipPath></defs><title>mid-page 2</title><g id="Layer_2" data-name="Layer 2"><g id="Layer_1-2" data-name="Layer 1"><circle class="cls-3" cx="456.4" cy="46.28" r="46.28"/><path class="cls-4" d="M1068.19 811.45Q822.6 845 603.47 828.22C384.36 811.45 199.31 886.76 233 930.05s506.35 154.58 670.79 116.78 304.07-34.76 304.07-63.42q-.04-28.67-139.67-171.96z" transform="translate(-228.99 -571.05)"/><path class="cls-5" d="M479.48 212.65l-141.09-81.46L479.5 49.91l141.06 81.28-141.08 81.46z"/><path class="cls-6" d="M620.56 131.16v190.06l-141.08 81.45V212.59l141.08-81.43z"/><path class="cls-7" d="M338.39 131.2v189.97l141.09 81.46V212.57L338.39 131.2z"/><path class="cls-8" d="M374.22 154.65l-1.29.75v21.72l65.83 38.01 1.4-.91v-21.6l-65.94-37.97z"/><path class="cls-6" d="M372.93 155.4v21.72l65.83 38.01v-21.72l-65.83-38.01z"/><ellipse class="cls-9" cx="662.77" cy="768.42" rx=".6" ry="1.04" transform="rotate(-30 -517.323 910.184)"/><ellipse class="cls-9" cx="662.77" cy="771.62" rx=".6" ry="1.04" transform="rotate(-30 -517.32 913.384)"/><ellipse class="cls-9" cx="662.77" cy="774.81" rx=".6" ry="1.04" transform="matrix(.87 -.5 .5 .87 -527.6 -135.86)"/><ellipse class="cls-9" cx="662.77" cy="778.01" rx=".6" ry="1.04" transform="matrix(.87 -.5 .5 .87 -529.2 -135.43)"/><ellipse class="cls-9" cx="659.94" cy="766.82" rx=".6" ry="1.04" transform="rotate(-30 -520.136 908.59)"/><ellipse class="cls-9" cx="659.94" cy="770.02" rx=".6" ry="1.04" transform="matrix(.87 -.5 .5 .87 -525.58 -137.91)"/><ellipse class="cls-9" cx="659.94" cy="773.22" rx=".6" ry="1.04" transform="rotate(-30 -520.131 914.991)"/><ellipse class="cls-9" cx="659.94" cy="776.41" rx=".6" ry="1.04" transform="rotate(-30 -520.147 918.187)"/><ellipse class="cls-9" cx="657.31" cy="765.22" rx=".6" ry="1.04" transform="matrix(.87 -.5 .5 .87 -523.53 -139.87)"/><ellipse class="cls-9" cx="657.31" cy="768.42" rx=".6" ry="1.04" transform="rotate(-30 -522.764 910.186)"/><ellipse class="cls-9" cx="657.31" cy="771.62" rx=".6" ry="1.04" transform="matrix(.87 -.5 .5 .87 -526.73 -139.02)"/><ellipse class="cls-9" cx="657.31" cy="774.81" rx=".6" ry="1.04" transform="matrix(.87 -.5 .5 .87 -528.33 -138.59)"/><ellipse class="cls-9" cx="654.49" cy="763.62" rx=".6" ry="1.04" transform="rotate(-30 -525.598 905.387)"/><ellipse class="cls-9" cx="654.49" cy="766.82" rx=".6" ry="1.04" transform="rotate(-30 -525.595 908.587)"/><ellipse class="cls-9" cx="654.49" cy="770.02" rx=".6" ry="1.04" transform="rotate(-30 -525.593 911.788)"/><ellipse class="cls-9" cx="654.49" cy="773.22" rx=".6" ry="1.04" transform="rotate(-30 -525.59 914.988)"/><ellipse class="cls-9" cx="651.86" cy="762.02" rx=".6" ry="1.04" transform="matrix(.87 -.5 .5 .87 -522.67 -143.03)"/><ellipse class="cls-9" cx="651.86" cy="765.22" rx=".6" ry="1.04" transform="matrix(.87 -.5 .5 .87 -524.26 -142.6)"/><ellipse class="cls-9" cx="651.86" cy="768.42" rx=".6" ry="1.04" transform="matrix(.87 -.5 .5 .87 -525.86 -142.17)"/><ellipse class="cls-9" cx="651.86" cy="771.62" rx=".6" ry="1.04" transform="matrix(.87 -.5 .5 .87 -527.46 -141.74)"/><ellipse class="cls-9" cx="649.03" cy="760.42" rx=".6" ry="1.04" transform="rotate(-30 -531.04 902.188)"/><ellipse class="cls-9" cx="649.03" cy="763.62" rx=".6" ry="1.04" transform="rotate(-29.9 -530.3 906.15)"/><ellipse class="cls-9" cx="649.03" cy="766.82" rx=".6" ry="1.04" transform="matrix(.87 -.5 .5 .87 -525.44 -143.8)"/><ellipse class="cls-9" cx="649.03" cy="770.02" rx=".6" ry="1.04" transform="matrix(.87 -.5 .5 .87 -527.04 -143.37)"/><ellipse class="cls-9" cx="646.4" cy="758.83" rx=".6" ry="1.04" transform="rotate(-30 -533.676 900.602)"/><ellipse class="cls-9" cx="646.4" cy="762.02" rx=".6" ry="1.04" transform="matrix(.87 -.5 .5 .87 -523.4 -145.76)"/><ellipse class="cls-9" cx="646.4" cy="765.22" rx=".6" ry="1.04" transform="rotate(-30 -533.69 906.998)"/><ellipse class="cls-9" cx="646.4" cy="768.42" rx=".6" ry="1.04" transform="rotate(-30 -533.682 910.18)"/><ellipse class="cls-9" cx="643.58" cy="757.23" rx=".6" ry="1.04" transform="matrix(.87 -.5 .5 .87 -521.38 -147.81)"/><ellipse class="cls-9" cx="643.58" cy="760.42" rx=".6" ry="1.04" transform="matrix(.87 -.5 .5 .87 -522.97 -147.38)"/><ellipse class="cls-9" cx="643.58" cy="763.62" rx=".6" ry="1.04" transform="rotate(-30 -536.497 905.386)"/><ellipse class="cls-9" cx="643.58" cy="766.82" rx=".6" ry="1.04" transform="matrix(.87 -.5 .5 .87 -526.17 -146.52)"/><ellipse class="cls-9" cx="640.95" cy="755.63" rx=".6" ry="1.04" transform="rotate(-30 -539.137 897.399)"/><ellipse class="cls-9" cx="640.95" cy="758.83" rx=".6" ry="1.04" transform="matrix(.87 -.5 .5 .87 -522.53 -148.91)"/><ellipse class="cls-9" cx="640.95" cy="762.02" rx=".6" ry="1.04" transform="rotate(-30 -539.132 903.8)"/><ellipse class="cls-9" cx="640.95" cy="765.22" rx=".6" ry="1.04" transform="rotate(-30 -539.149 906.996)"/><ellipse class="cls-9" cx="638.12" cy="754.03" rx=".6" ry="1.04" transform="matrix(.87 -.5 .5 .87 -520.51 -150.97)"/><ellipse class="cls-9" cx="638.12" cy="757.23" rx=".6" ry="1.04" transform="rotate(-30 -541.966 899)"/><ellipse class="cls-9" cx="638.12" cy="760.42" rx=".6" ry="1.04" transform="matrix(.87 -.5 .5 .87 -523.71 -150.11)"/><ellipse class="cls-9" cx="638.12" cy="763.62" rx=".6" ry="1.04" transform="rotate(-30 -541.957 905.383)"/><ellipse class="cls-9" cx="635.49" cy="752.43" rx=".6" ry="1.04" transform="rotate(-30 -544.599 894.195)"/><ellipse class="cls-9" cx="635.49" cy="755.63" rx=".6" ry="1.04" transform="matrix(.87 -.5 .5 .87 -521.66 -152.07)"/><ellipse class="cls-9" cx="635.49" cy="758.83" rx=".6" ry="1.04" transform="rotate(-30 -544.594 900.596)"/><ellipse class="cls-9" cx="635.49" cy="762.02" rx=".6" ry="1.04" transform="rotate(-30 -544.592 903.797)"/><ellipse class="cls-9" cx="632.67" cy="750.83" rx=".6" ry="1.04" transform="rotate(-30 -547.412 892.601)"/><ellipse class="cls-9" cx="632.67" cy="754.03" rx=".6" ry="1.04" transform="rotate(-30 -547.41 895.802)"/><ellipse class="cls-9" cx="632.67" cy="757.23" rx=".6" ry="1.04" transform="rotate(-30 -547.426 898.998)"/><ellipse class="cls-9" cx="632.67" cy="760.42" rx=".6" ry="1.04" transform="rotate(-30 -547.423 902.198)"/><ellipse class="cls-9" cx="630.03" cy="749.23" rx=".6" ry="1.04" transform="rotate(-30 -550.042 890.997)"/><ellipse class="cls-9" cx="630.03" cy="752.43" rx=".6" ry="1.04" transform="matrix(.87 -.5 .5 .87 -520.79 -155.22)"/><ellipse class="cls-9" cx="630.03" cy="755.63" rx=".6" ry="1.04" transform="rotate(-30 -550.056 897.393)"/><ellipse class="cls-9" cx="630.03" cy="758.83" rx=".6" ry="1.04" transform="rotate(-30 -550.053 900.594)"/><ellipse class="cls-9" cx="627.21" cy="747.63" rx=".6" ry="1.04" transform="matrix(.87 -.5 .5 .87 -518.77 -157.28)"/><ellipse class="cls-9" cx="627.21" cy="750.83" rx=".6" ry="1.04" transform="rotate(-30 -552.871 892.599)"/><ellipse class="cls-9" cx="627.21" cy="754.03" rx=".6" ry="1.04" transform="rotate(-30 -552.869 895.8)"/><ellipse class="cls-9" cx="627.21" cy="757.23" rx=".6" ry="1.04" transform="rotate(-30 -552.866 899)"/><ellipse class="cls-9" cx="624.58" cy="746.03" rx=".6" ry="1.04" transform="rotate(-30 -555.508 887.812)"/><ellipse class="cls-9" cx="624.58" cy="749.23" rx=".6" ry="1.04" transform="rotate(-30 -555.501 890.994)"/><ellipse class="cls-9" cx="624.58" cy="752.43" rx=".6" ry="1.04" transform="rotate(-30 -555.499 894.195)"/><ellipse class="cls-9" cx="624.58" cy="755.63" rx=".6" ry="1.04" transform="matrix(.87 -.5 .5 .87 -523.12 -157.52)"/><ellipse class="cls-9" cx="621.76" cy="744.43" rx=".6" ry="1.04" transform="rotate(-30 -558.316 886.2)"/><ellipse class="cls-9" cx="621.76" cy="747.63" rx=".6" ry="1.04" transform="rotate(-30 -558.333 889.395)"/><ellipse class="cls-9" cx="621.76" cy="750.83" rx=".6" ry="1.04" transform="matrix(.87 -.5 .5 .87 -521.1 -159.58)"/><ellipse class="cls-9" cx="621.76" cy="754.03" rx=".6" ry="1.04" transform="matrix(.87 -.5 .5 .87 -522.7 -159.15)"/><ellipse class="cls-9" cx="619.12" cy="742.84" rx=".6" ry="1.04" transform="rotate(-30 -560.97 884.609)"/><ellipse class="cls-9" cx="619.12" cy="746.03" rx=".6" ry="1.04" transform="rotate(-30 -560.968 887.81)"/><ellipse class="cls-9" cx="619.12" cy="749.23" rx=".6" ry="1.04" transform="rotate(-30 -560.96 890.991)"/><ellipse class="cls-9" cx="619.12" cy="752.43" rx=".6" ry="1.04" transform="rotate(-30 -560.958 894.192)"/><ellipse class="cls-9" cx="616.3" cy="741.24" rx=".6" ry="1.04" transform="matrix(.87 -.5 .5 .87 -517.04 -163.59)"/><ellipse class="cls-9" cx="616.3" cy="744.43" rx=".6" ry="1.04" transform="matrix(.87 -.5 .5 .87 -518.63 -163.16)"/><ellipse class="cls-9" cx="616.3" cy="747.63" rx=".6" ry="1.04" transform="rotate(-30 -563.773 889.397)"/><ellipse class="cls-9" cx="616.3" cy="750.83" rx=".6" ry="1.04" transform="rotate(-30 -563.77 892.598)"/><path class="cls-10" d="M382.33 167l-4.7-2.72v10.87l4.7 2.71V167z"/><path class="cls-11" d="M663 697.75a.51.51 0 0 1 0-.22.63.63 0 0 1 .35-.27 1.54 1.54 0 0 1 1.1 0 .66.66 0 0 1 .43.35.89.89 0 0 1 0 .28v4.57c0 .21 0 .44-.09.61a.84.84 0 0 1-.48.3 1.58 1.58 0 0 1-1-.1.53.53 0 0 1-.31-.27.9.9 0 0 1 0-.28v-4.82a.76.76 0 0 1 0-.15z" transform="translate(-228.99 -571.05)"/><path class="cls-12" d="M660.91 698.14c.09-.18.19-.36.26-.53.27-.61.5-1.24.76-1.86l1.23-3 .75-1.83v-.06l.48 1.17 1.06 2.56 1 2.51c.13.32.26.64.4 1a2.12 2.12 0 0 1 .31.87 1.66 1.66 0 0 1-1 1.34 5.21 5.21 0 0 1-4.65 0 2 2 0 0 1-.87-.92 1.54 1.54 0 0 1 .27-1.25z" transform="translate(-228.99 -571.05)"/><path class="cls-13" d="M786 700.87a.54.54 0 0 1 0-.22.68.68 0 0 1 .35-.27 1.63 1.63 0 0 1 1.09 0 .64.64 0 0 1 .44.36.83.83 0 0 1 0 .28v4.57a.92.92 0 0 1-.09.61.88.88 0 0 1-.48.29 1.61 1.61 0 0 1-1.06-.09.61.61 0 0 1-.3-.27.64.64 0 0 1 0-.28V701a.76.76 0 0 1 .05-.13z" transform="translate(-228.99 -571.05)"/><path class="cls-14" d="M783.88 701.27c.09-.19.19-.37.26-.54.27-.61.5-1.24.76-1.86l1.22-3 .76-1.83v-.06l.48 1.17 1.06 2.56 1 2.51c.13.32.26.64.4 1a2.12 2.12 0 0 1 .31.87 1.66 1.66 0 0 1-1 1.34 5.15 5.15 0 0 1-4.65 0 1.85 1.85 0 0 1-.87-.92 1.47 1.47 0 0 1 .27-1.24z" transform="translate(-228.99 -571.05)"/><path class="cls-13" d="M801.41 698.56a1.19 1.19 0 0 1 .94-1.13 3.76 3.76 0 0 1 2.56-.06 1.54 1.54 0 0 1 1 .83 1.84 1.84 0 0 1 .08.66v10.69a2.25 2.25 0 0 1-.21 1.43 2.1 2.1 0 0 1-1.13.68 3.75 3.75 0 0 1-2.47-.22 1.32 1.32 0 0 1-.7-.61 1.6 1.6 0 0 1-.09-.66v-11.25c.01-.12.01-.24.02-.36z" transform="translate(-228.99 -571.05)"/><path class="cls-15" d="M796.52 699.49c.2-.42.43-.84.61-1.25.62-1.43 1.15-2.91 1.75-4.35l2.88-6.95 1.77-4.28s.07-.12.06-.13l1.13 2.74 2.47 6 2.42 5.87c.31.74.6 1.49.94 2.22a5 5 0 0 1 .72 2 3.9 3.9 0 0 1-2.27 3.14 12.05 12.05 0 0 1-10.88 0 4.48 4.48 0 0 1-2-2.14 3.53 3.53 0 0 1 .4-2.87z" transform="translate(-228.99 -571.05)"/><path class="cls-16" d="M708.47 675.06l88.69 51a11.3 11.3 0 0 1 5.67 9.8v237.68l-47.18 27.24-.16-237.38a11.88 11.88 0 0 0-5.94-10.28l-88.19-50.87z" transform="translate(-228.99 -571.05)"/><path class="cls-17" d="M738.51 662.14s-10.47 13.09-21.82 4.15a14.44 14.44 0 0 1-1.16-9.59c1.16-5.65 4.72-22.39 4.72-22.39l2.63-8h2.83l7.35 12.4z" transform="translate(-228.99 -571.05)"/><path class="cls-12" d="M725.33 627l-.71 2.17s-.16 2.1-.39 3.45 0 8.52 0 8.52 1.18 10.94 2.28 12.35a74.06 74.06 0 0 1 3.91 7.49l4.8 4.35 3.29-3.19-3.86-16.6-1.59-6.83-7.35-12.4z" transform="translate(-228.99 -571.05)"/><path class="cls-6" d="M385.42 117.1l47.03 27.15 82.3-47.51-70.55-40.73-82.29 47.52 23.51 13.57z"/><path class="cls-18" d="M361.91 103.53v13.81l70.54 40.73v-13.82l-70.54-40.72z"/><path class="cls-18" d="M514.75 96.74v13.81l-82.3 47.52v-13.82l82.3-47.51z"/><path class="cls-10" d="M505.26 105.67v6.79l5.88-3.4v-6.78l-5.88 3.39z"/><ellipse class="cls-9" cx="668.84" cy="718.73" rx="2.6" ry="1.5" transform="rotate(-60 59.808 631.51)"/><ellipse class="cls-9" cx="674.72" cy="715.54" rx="2.6" ry="1.5" transform="matrix(.5 -.87 .87 .5 -511.3 371.04)"/><ellipse class="cls-9" cx="680.36" cy="712.35" rx="2.6" ry="1.5" transform="matrix(.5 -.87 .87 .5 -505.72 374.34)"/><ellipse class="cls-19" cx="685.93" cy="709.16" rx="2.6" ry="1.5" transform="rotate(-60 76.892 621.94)"/><path class="cls-16" d="M455.98 144.72l-.02-13.92-67.55-42.58 44.04-25.67 70.66 40.91-.33 14-46.8 27.26z"/><path class="cls-12" d="M697.08 647s3.76 7.37 1.41 10.19S683 667.68 683 667.68s-11.6 3.91-16.46 3-9.4-5.52-9.87-6.52-1.53-8-1.53-8 6.06-32.45 6.38-33.08 4 0 4 0l-1-11.5.15-1.83 6.59 2.51 4.44-14.42 13.58 18 .47-5.64 7.22-4.27 12.38 29.66s1.88 1.88-4.55 5.33-7.72 6.08-7.72 6.08z" transform="translate(-228.99 -571.05)"/><path class="cls-17" d="M467.94 34.83l-4.57 5.77v17.13l-3.11-12.99.76-5.97 6.92-3.94zM446.44 27.48l.83 19.78-2.56-4.42-1.72-2.24 3.45-13.12z"/><path class="cls-17" d="M676.09 624.24l.46 1.4 2.78 8.63 3.14 6.58 2 8.16 2.19 8.15 1.88 7.21s-7.57 4.5-9 4.34zM674.12 670s-.89-6.29-1.21-6.92a43.35 43.35 0 0 1-.94-4.86L671 650l-1.54-4-1.25-3.61-.78-9.13-1.73-20.22v-2.78l-1.07-.62.82 13.33h-4l-1.9 14.88-2.08 5.46-1.8 9.74s-1.27 5.17-.73 7.06 1.95 7.81 7.11 9.87c4.77 1.92 12.07.02 12.07.02zM633 691.58s-7.43 1-10.91-3.2a24.63 24.63 0 0 1-4.57-8.86v-5.41l4.57-18.65 2.63-10v-3.91l2.09-1 .74-5.33 1.41-3.77 8.76 2.59 2.63 2.2 6.93 23.9s.5 4.19.5 4.45 3.48 11.23 3.48 11.23 1.25 4.92-1.16 6.69-10.67 10.24-17.1 9.07z" transform="translate(-228.99 -571.05)"/><path class="cls-12" d="M628.67 633.51s.7.94 1.25 1.65a19.27 19.27 0 0 1 1.41 2.5v3.06l1.58 7.31s.25 7.45 0 8.89-.87 12.64-.72 15.82.24 13.2.83 14.06a30.05 30.05 0 0 1 1.57 4.88s5.52-1 6.93-2.54 6.13-3.94 6.2-4.66 4.84-1.74 3.83-7.27-2-6.72-2-6.72l-1.76-6.39-.46-4-3.61-12.46-2.28-7.85-1-3.59-2.63-2.2-8.81-2.61z" transform="translate(-228.99 -571.05)"/><path class="cls-17" d="M649.27 692.93s-4.54.64-6.66-1.95a15 15 0 0 1-2.8-5.42v-3.31l2.8-11.39 1.6-6.13v-2.4l1.28-.62.45-3.26.86-2.3 5.35 1.59 1.61 1.34 4.24 14.6s.3 2.56.3 2.72 2.13 6.86 2.13 6.86.76 3-.71 4.09-6.54 6.29-10.45 5.58z" transform="translate(-228.99 -571.05)"/><path class="cls-12" d="M646.6 657.45s.43.57.77 1a12.55 12.55 0 0 1 .86 1.54v1.86l1 4.47s.15 4.55 0 5.43-.53 7.73-.44 9.67.15 8.06.51 8.59a17.78 17.78 0 0 1 1 3s3.37-.6 4.23-1.55 3.75-2.41 3.79-2.85 3-1.06 2.34-4.44-1.23-4.11-1.23-4.11l-1.07-3.9-.28-2.46-2.21-7.61-1.39-4.8-.64-2.19-1.61-1.34-5.35-1.59z" transform="translate(-228.99 -571.05)"/><path d="M455.96 226.19v135.75l-93.98-54.34-.27-135.83 94.25 54.42z"/><path class="cls-20" d="M455.93 335l-94.02-54.51.07 27.11 93.95 54.34V335z"/><path class="cls-21" d="M455.93 335l-94.02-54.51.07 27.11 93.95 54.34V335z"/><path class="cls-20" d="M361.71 171.77l23.56 13.6v108.78l-23.29 13.45-.27-135.83z"/><path class="cls-21" d="M361.71 171.77l23.56 13.6v108.78l-23.29 13.45-.27-135.83z"/><path class="cls-13" d="M688.13 741a.65.65 0 0 1 0-.2.59.59 0 0 1 .33-.25 1.52 1.52 0 0 1 1 0 .62.62 0 0 1 .41.34.77.77 0 0 1 0 .26v4.31c0 .2 0 .41-.08.57a.85.85 0 0 1-.46.28 1.54 1.54 0 0 1-1-.09.49.49 0 0 1-.28-.25.57.57 0 0 1 0-.26V741z" transform="translate(-228.99 -571.05)"/><path class="cls-22" d="M686.16 741.41l.25-.5c.25-.58.46-1.18.7-1.76l1.16-2.8.72-1.72.45 1.1 1 2.41 1 2.36c.13.3.24.6.38.9a2 2 0 0 1 .29.82 1.57 1.57 0 0 1-.9 1.26 4.89 4.89 0 0 1-4.38 0 1.8 1.8 0 0 1-.83-.87 1.43 1.43 0 0 1 .16-1.2z" transform="translate(-228.99 -571.05)"/><path class="cls-13" d="M693 740.73a.89.89 0 0 1 .07-.28.82.82 0 0 1 .45-.34 2.07 2.07 0 0 1 1.39 0 .85.85 0 0 1 .56.45 1.11 1.11 0 0 1 0 .36v5.83a1.23 1.23 0 0 1-.11.78 1.17 1.17 0 0 1-.62.37 2.09 2.09 0 0 1-1.35-.12.77.77 0 0 1-.38-.33.9.9 0 0 1 0-.36v-6.33z" transform="translate(-228.99 -571.05)"/><path class="cls-22" d="M690.3 741.24c.12-.24.24-.46.34-.68.34-.79.63-1.59 1-2.38l1.56-3.78 1-2.33v-.08l.62 1.49 1.34 3.26 1.32 3.2c.17.41.33.81.51 1.21a2.71 2.71 0 0 1 .4 1.11 2.15 2.15 0 0 1-1.23 1.71 6.57 6.57 0 0 1-5.92 0 2.45 2.45 0 0 1-1.12-1.17 1.92 1.92 0 0 1 .18-1.56z" transform="translate(-228.99 -571.05)"/><path class="cls-13" d="M706.56 743.93a.65.65 0 0 1 .51-.62 2 2 0 0 1 1.4 0 .84.84 0 0 1 .55.45.9.9 0 0 1 .05.36v5.83a1.19 1.19 0 0 1-.11.77 1.05 1.05 0 0 1-.61.37A2 2 0 0 1 707 751a.75.75 0 0 1-.38-.34.85.85 0 0 1-.05-.36v-6.32z" transform="translate(-228.99 -571.05)"/><path class="cls-22" d="M703.89 744.44c.12-.24.24-.47.33-.69.35-.78.64-1.58 1-2.37l1.57-3.79 1-2.33v-.07l.61 1.49 1.35 3.26 1.32 3.2c.17.4.32.81.51 1.21a2.64 2.64 0 0 1 .39 1.11 2.13 2.13 0 0 1-1.22 1.71 6.59 6.59 0 0 1-5.93 0 2.52 2.52 0 0 1-1.11-1.17 1.92 1.92 0 0 1 .18-1.56z" transform="translate(-228.99 -571.05)"/><path class="cls-13" d="M754.88 680a.58.58 0 0 1 0-.18.54.54 0 0 1 .29-.22 1.32 1.32 0 0 1 .9 0 .53.53 0 0 1 .35.3.58.58 0 0 1 0 .23v3.74a.8.8 0 0 1-.07.51.71.71 0 0 1-.4.23 1.27 1.27 0 0 1-.86-.07.42.42 0 0 1-.25-.22.58.58 0 0 1 0-.23v-3.94s.04-.09.04-.15z" transform="translate(-228.99 -571.05)"/><path class="cls-22" d="M753.16 680.35c.07-.15.15-.3.21-.44.23-.5.41-1 .62-1.53l1-2.43.62-1.5v-.05l.4 1 .86 2.1.85 2c.11.26.21.53.33.78a1.74 1.74 0 0 1 .26.72 1.39 1.39 0 0 1-.79 1.1 4.28 4.28 0 0 1-3.82 0 1.63 1.63 0 0 1-.71-.76 1.23 1.23 0 0 1 .17-.99z" transform="translate(-228.99 -571.05)"/><path class="cls-23" d="M473.6 146.67l19.52 11.4M495.14 152.37l27.14 15.84"/><path class="cls-23" d="M753.35 750.69s6.38 3.4 6.4 10.18M712 681.15s6.38 3.4 6.39 10.18M685.39 697.16s6.38 3.4 6.39 10.18M762.9 744.67s6.38 3.41 6.39 10.19M791.32 728.85s6.38 3.4 6.4 10.18" transform="translate(-228.99 -571.05)"/><path class="cls-23" d="M530.76 194.45v23.08M540.3 186.78v8.04M535.42 193.14v9.2M537.11 216.06v65.75M557.97 209.47v30.22M546.25 252.09v60.56M568.73 185.85v30.21M557.97 155.4l-32.08-17.29M566.95 258.82v70.93M556.99 305.64v40.66M495.14 133.43l34.21 21.22M435.49 108.26l23.29 15.49M493.89 104.89l-19.3-12.26"/><path class="cls-13" d="M776 965a8.09 8.09 0 0 0 .61-.56 11.16 11.16 0 0 0 2.94-7.66c.11-5.75-2.59-11.43-5.57-16.2a.89.89 0 0 0-.39-.4c-.35-.13-.69.2-.9.51-1.41 2.11-1.83 5-3.89 6.45a23.8 23.8 0 0 1 1-4.75 6.18 6.18 0 0 0-.42-4.71 7.14 7.14 0 0 0-2.24-2c-2.41-1.59-5-3.23-6.21-5.86-.22-.49-.51-1.52-1.07-1.76-.92-.38-1.08 2-1.31 2.77-.15.44-1.42 3-1.26 3.25-1.33-2.42.17-5.58-.84-8.15-.78-2-2.79-3.08-4.5-4.32a20.63 20.63 0 0 1-6.64-8.14c-1.59 1.53-1.74 4-1.67 6.2a68.24 68.24 0 0 0 1.11 10.48c.35 1.87.85 3.86 2.29 5.09a3.72 3.72 0 0 1 .85.83.83.83 0 0 1-.13 1.08 1 1 0 0 1-.78 0c-1.46-.37-2.42-1.74-3.24-3a16.12 16.12 0 0 0 2 14.12 3.51 3.51 0 0 0 .89.95 4.1 4.1 0 0 0 1.28.47l6.86 1.63-6.17-.25a1.63 1.63 0 0 0-.76.09c-.68.31-.62 1.3-.41 2a20.25 20.25 0 0 0 21.9 14.36A12.75 12.75 0 0 0 776 965z" transform="translate(-228.99 -571.05)"/><path class="cls-20" d="M772.66 965.93q-3.74-4.65-7.24-9.47c-2.34-3.21-4.6-6.49-6.81-9.79s-4.26-6.72-6.18-10.21a41.52 41.52 0 0 1-4.48-11c.29.95.49 1.93.87 2.84s.71 1.85 1.17 2.74.84 1.79 1.31 2.66l1.42 2.62q3 5.16 6.25 10.12c2.17 3.32 4.43 6.59 6.71 9.84s4.61 6.45 6.98 9.65z" transform="translate(-228.99 -571.05)"/><path class="cls-24" d="M387.12 268.79l32.29 18.65 32.29-18.65-32.29-18.64-32.29 18.64z"/><path class="cls-25" d="M419.38 287.4v37.29l32.3-18.64.05-37.26-32.35 18.61z"/><path class="cls-26" d="M387.09 268.78l32.29 18.64v37.29l-32.29-18.64v-37.29z"/><path class="cls-27 cls-28 cls-29" d="M350.31 345.4h39.33v91.95h-39.33z"/><path class="cls-30 cls-28 cls-31" d="M361.55 264.69h73.56v57.21h-73.56z"/><path class="cls-32 cls-28 cls-5" d="M349.29 287.68h54.15v72.03h-54.15z"/><path class="cls-33 cls-28 cls-34 cls-35 cls-36 cls-37 cls-38" d="M356.63 259.08h25.45v30.91h-25.45z"/></g></g></svg>