<?xml version="1.0" encoding="UTF-8"?>
<svg width="1440px" height="130px" viewBox="0 0 1440 130" version="1.1" xmlns="http://www.w3.org/2000/svg" xmlns:xlink="http://www.w3.org/1999/xlink">
    <!-- Generator: Sketch 49.3 (51167) - http://www.bohemiancoding.com/sketch -->
    <title>Learn More</title>
    <desc>Created with Sketch.</desc>
    <defs>
        <polygon id="path-1" points="196.489588 8.34377895 215.482822 8.34377895 215.482822 27.8035895 196.489588 27.8035895"></polygon>
    </defs>
    <g id="Page-1" stroke="none" stroke-width="1" fill="none" fill-rule="evenodd">
        <g id="Learn-More" transform="translate(0.000000, -3060.000000)">
            <g id="Footer" transform="translate(-6.000000, 3084.000000)">
                <g id="Group-15">
                    <path d="M0,68.7272727 C174.496861,93.0933373 308.995478,101.578186 403.495851,94.1818182 C606.335158,78.3059646 836.990232,9.36271591e-15 1013.77075,0 C1198.45039,0 1345.5268,22.9090909 1455,68.7272727 L1455,636 L0,636 L0,68.7272727 Z" id="Rectangle-5-Copy" fill="#00132E"></path>
                    <g id="Group-10" transform="translate(384.000000, 251.000000)">
                        <g id="Group-7" transform="translate(201.000000, 214.000000)">
                            <g id="Group-Copy" transform="translate(0.000000, 1.431579)">
                                <polygon id="Fill-1" fill="#FF6464" points="15.4446473 5.65788632 12.3548548 0.332054737 18.5344398 0.332054737 21.6242324 5.65788632 21.6238728 5.65824421 21.6235131 5.65788632"></polygon>
                                <polygon id="Fill-2" fill="#FF6464" points="15.4442877 5.65788632 12.3548548 10.98336 9.26506224 5.65788632 12.3548548 0.332054737 15.4446473 5.65788632"></polygon>
                                <polygon id="Fill-3" fill="#FFAA64" points="12.3549267 10.9836821 15.4447192 5.65785053 21.6232254 5.65785053 21.6235851 5.65820842 18.5345118 10.9836821"></polygon>
                                <polygon id="Fill-4" fill="#FF6464" points="24.746462 10.9607768 27.8362545 5.63494526 30.9256874 10.9607768 27.8362545 16.2866084 27.8355353 16.2866084 27.8358949 16.2862505"></polygon>
                                <polygon id="Fill-5" fill="#FF6464" points="24.7461024 10.9604189 18.5672365 10.9604189 21.6566694 5.63494526 27.8362545 5.63494526 24.746462 10.9607768"></polygon>
                                <polygon id="Fill-6" fill="#FFAA64" points="18.5670207 10.9607768 24.7466058 10.9607768 27.8356791 16.2862505 27.8353195 16.2866084 21.6568133 16.2866084"></polygon>
                                <polygon id="Fill-7" fill="#FF6464" points="24.782639 21.6292968 30.9622241 21.6292968 27.8724315 26.9551284 21.6932061 26.9551284 21.6928465 26.9547705 21.6932061 26.9547705"></polygon>
                                <polygon id="Fill-8" fill="#FF6464" points="24.7829986 21.6289389 21.6935657 16.3034653 27.8724315 16.3034653 30.9622241 21.6292968 24.782639 21.6292968"></polygon>
                                <polygon id="Fill-9" fill="#FFAA64" points="21.693278 16.3035011 24.7827109 21.6293326 21.693278 26.9548063 21.6929184 26.9548063 18.6034855 21.6293326"></polygon>
                                <polygon id="Fill-10" fill="#FF6464" points="9.33831535 26.9950695 12.4273887 32.3209011 18.6069737 32.3209011 15.5175408 26.9950695 9.33867497 26.9950695 9.33831535 26.9943537"></polygon>
                                <polygon id="Fill-11" fill="#FF6464" points="15.5177925 26.9950695 15.5174329 26.9950695 18.6068658 32.3209011 21.697018 26.9950695 18.6072254 21.6692379"></polygon>
                                <polygon id="Fill-12" fill="#FFAA64" points="18.6070816 21.6689516 15.5172891 26.9947832 9.33878285 26.9947832 9.33842324 26.9944253 12.4274965 21.6689516"></polygon>
                                <polygon id="Fill-13" fill="#FF6464" points="3.12614938 16.3659179 0.0367164592 21.6921074 3.12614938 27.0179389 6.21522268 21.6921074 3.12614938 16.3666337 3.12650899 16.3659179"></polygon>
                                <polygon id="Fill-14" fill="#FF6464" points="6.21586999 21.6923579 12.3947358 21.6923579 9.3053029 27.0178316 3.12607746 27.0178316 6.21551037 21.692"></polygon>
                                <polygon id="Fill-15" fill="#FFAA64" points="12.3949516 21.6920358 6.21536653 21.6920358 3.12629322 16.3665621 3.12665284 16.3662042 9.30515906 16.3662042"></polygon>
                                <polygon id="Fill-16" fill="#FF6464" points="3.08957676 5.69746947 0.00014384509 11.0236589 6.17936929 11.0236589 9.26880221 5.69782737 9.26916183 5.69782737 9.26916183 5.69746947"></polygon>
                                <polygon id="Fill-17" fill="#FF6464" points="0 11.02348 3.08943292 16.3493116 9.26829876 16.3493116 6.17922545 11.0238379 6.17958506 11.02348"></polygon>
                                <polygon id="Fill-18" fill="#FFAA64" points="9.2690899 16.3492758 6.17929737 11.0234442 9.26873029 5.69797053 9.2690899 5.69797053 12.3585228 11.0234442"></polygon>
                                <polygon id="Fill-19" fill="#FFE38D" points="18.6477898 10.9836821 12.3783015 10.9836821 9.24391701 16.3875347 12.3783015 21.7910295 18.6477898 21.7910295 21.7828935 16.3875347"></polygon>
                            </g>
                            <g id="Group-45-Copy" transform="translate(44.232365, 0.000000)">
                                <path d="M27.1106279,15.7710611 L27.1106279,26.5877137 C27.1106279,27.0132505 26.7643209,27.3579032 26.337101,27.3579032 L25.421527,27.3579032 C24.9939474,27.3579032 24.6476404,27.0132505 24.6476404,26.5877137 L24.6476404,15.7710611 C24.6476404,12.4659032 22.7445698,10.7204505 20.0953029,10.7204505 C17.2219972,10.7204505 14.9086086,12.4659032 14.9086086,17.0709347 L14.9086086,26.5877137 C14.9086086,27.0132505 14.5619419,27.3579032 14.134722,27.3579032 L13.2195076,27.3579032 C12.7922877,27.3579032 12.445621,27.0132505 12.445621,26.5877137 L12.445621,15.7710611 C12.445621,12.4659032 10.7291895,10.7204505 8.07992254,10.7204505 C5.39289627,10.7204505 2.70658921,12.4659032 2.70658921,17.0709347 L2.70658921,26.5877137 C2.70658921,27.0132505 2.36028216,27.3579032 1.93270263,27.3579032 L1.01712863,27.3579032 C0.589908714,27.3579032 0.24360166,27.0132505 0.24360166,26.5877137 L0.24360166,10.5214611 C0.24360166,9.56480842 1.02252282,8.78960842 1.98376763,8.78960842 C2.38293776,8.78960842 2.70658921,9.11135579 2.70658921,9.50861895 L2.70658921,10.6800084 C2.70658921,10.9301768 3.02232918,11.0353979 3.17732227,10.8385558 C4.58232918,9.05946105 6.40916183,8.34367158 8.41580083,8.34367158 C10.8618866,8.34367158 12.7843762,9.41842947 13.8768797,11.3242189 C13.9772116,11.4995874 14.2174329,11.5092505 14.3317898,11.3424716 C15.7274467,9.30139789 17.8804481,8.34367158 20.1330622,8.34367158 C24.2376819,8.34367158 27.1106279,11.1291663 27.1106279,15.7710611" id="Fill-20" fill="#FFFFFF"></path>
                                <path d="M33.119397,8.78950105 C33.7997842,8.78950105 34.3507109,9.33815368 34.3507109,10.0149326 L34.3507109,26.1323642 C34.3507109,26.8091432 33.7997842,27.3577958 33.119397,27.3577958 C32.4390097,27.3577958 31.8877234,26.8091432 31.8877234,26.1323642 L31.8877234,10.0149326 C31.8877234,9.33815368 32.4390097,8.78950105 33.119397,8.78950105 M31.3285256,3.07034316 C31.3285256,2.10474316 32.1117621,1.28766947 33.119397,1.28766947 C34.1270318,1.28766947 34.9102683,2.10474316 34.9102683,3.07034316 C34.9102683,4.03594316 34.1270318,4.85265895 33.119397,4.85265895 C32.1117621,4.85265895 31.3285256,4.03594316 31.3285256,3.07034316" id="Fill-22" fill="#FFFFFF"></path>
                                <path d="M38.4556542,18.0734337 C38.4556542,12.5772442 42.6350733,8.34370737 48.2694855,8.34370737 C51.4826252,8.34370737 54.2717815,9.80427579 55.8281853,12.1152021 C56.2068575,12.6770968 56.0338838,13.4419179 55.4437593,13.7786968 C54.9237593,14.0757495 54.2512835,13.9469074 53.9078534,13.4580232 C52.812473,11.89796 50.9493195,10.8722337 48.7686279,10.7358758 C44.4888769,10.4685284 40.7978119,14.0381705 40.9218783,18.3039179 C41.039112,22.31556 44.2051425,25.4267389 48.2694855,25.4267389 C50.7008271,25.4267389 52.7200526,24.33516 53.9995546,22.6670126 C54.3624039,22.19316 55.0064703,22.03676 55.5243126,22.3363179 L55.6027082,22.3817705 C56.1985864,22.7267811 56.3571757,23.5091389 55.9518921,24.0638758 C54.2667469,26.3694337 51.4520581,27.8035179 48.2694855,27.8035179 C42.6350733,27.8035179 38.4556542,23.5699811 38.4556542,18.0734337" id="Fill-24" fill="#FFFFFF"></path>
                                <path d="M68.5321162,9.74296842 L68.5321162,9.77267368 C68.5321162,10.3567579 68.1005809,10.8574526 67.5180083,10.9318947 C64.9208852,11.2640211 62.6362656,12.9536421 62.6362656,17.034 L62.6362656,26.1320421 C62.6362656,26.8091789 62.0849793,27.3578316 61.4049516,27.3578316 C60.7249239,27.3578316 60.1736376,26.8091789 60.1736376,26.1320421 L60.1736376,9.54970526 C60.1736376,9.12989474 60.5156293,8.78953684 60.9378147,8.78953684 L61.8720885,8.78953684 C62.2942739,8.78953684 62.6362656,9.12989474 62.6362656,9.54970526 C62.6362656,10.2182526 63.4392808,10.5582526 63.924758,10.0965684 C64.8550761,9.21256842 65.9821024,8.75983158 67.199751,8.58303158 C67.9027939,8.48103158 68.5321162,9.03541053 68.5321162,9.74296842" id="Fill-26" fill="#FFFFFF"></path>
                                <path d="M86.815834,18.2160547 C86.8906335,14.0236758 83.6516017,10.7167284 79.4585173,10.7206653 C75.50026,10.7238863 72.1864288,13.9921811 72.1159447,17.9308126 C72.0407856,22.1231916 75.2798174,25.4304968 79.4729018,25.42656 C83.4311591,25.4233389 86.7453499,22.1546863 86.815834,18.2160547 M69.6518783,18.0736126 C69.6518783,12.5774232 74.0175768,8.34388632 79.4657095,8.34388632 C84.9138423,8.34388632 89.2799004,12.5774232 89.2799004,18.0736126 C89.2799004,23.5698021 84.9138423,27.8036968 79.4657095,27.8036968 C74.0175768,27.8036968 69.6518783,23.5698021 69.6518783,18.0736126" id="Fill-28" fill="#FFFFFF"></path>
                                <path d="M92.2655131,18.0734337 C92.2655131,12.5772442 96.4445726,8.34370737 102.079344,8.34370737 C105.285651,8.34370737 108.070133,9.79819158 109.627975,12.1005284 C110.01348,12.6699389 109.836191,13.4458547 109.238155,13.7872863 C108.727145,14.0793284 108.064019,13.9540653 107.727781,13.4726968 C106.63384,11.9040442 104.765651,10.8725916 102.578487,10.7358758 C98.2983762,10.4685284 94.6073112,14.0381705 94.7317372,18.3039179 C94.848971,22.31556 98.0146418,25.4267389 102.079344,25.4267389 C104.510326,25.4267389 106.529911,24.33516 107.809414,22.6670126 C108.172263,22.19316 108.816329,22.03676 109.334172,22.3363179 L109.412567,22.3817705 C110.008086,22.7267811 110.167035,23.5091389 109.761391,24.0638758 C108.076246,26.3694337 105.261557,27.8035179 102.079344,27.8035179 C96.4445726,27.8035179 92.2655131,23.5699811 92.2655131,18.0734337" id="Fill-30" fill="#FFFFFF"></path>
                                <path d="M115.214703,0.247734737 C115.89473,0.247734737 116.446017,0.796387368 116.446017,1.47316632 L116.446017,26.1321137 C116.446017,26.8092505 115.89473,27.3579032 115.214703,27.3579032 C114.534315,27.3579032 113.983029,26.8092505 113.983029,26.1321137 L113.983029,1.47316632 C113.983029,0.796387368 114.534315,0.247734737 115.214703,0.247734737" id="Fill-32" fill="#FFFFFF"></path>
                                <path d="M122.901784,8.78950105 C123.582172,8.78950105 124.133458,9.33815368 124.133458,10.0149326 L124.133458,26.1323642 C124.133458,26.8091432 123.582172,27.3577958 122.901784,27.3577958 C122.221397,27.3577958 121.67047,26.8091432 121.67047,26.1323642 L121.67047,10.0149326 C121.67047,9.33815368 122.221397,8.78950105 122.901784,8.78950105 M121.110913,3.07034316 C121.110913,2.10474316 121.894509,1.28766947 122.901784,1.28766947 C123.909419,1.28766947 124.692656,2.10474316 124.692656,3.07034316 C124.692656,4.03594316 123.909419,4.85265895 122.901784,4.85265895 C121.894509,4.85265895 121.110913,4.03594316 121.110913,3.07034316" id="Fill-34" fill="#FFFFFF"></path>
                                <path d="M156.224254,15.7710611 L156.224254,26.1321137 C156.224254,26.8092505 155.672968,27.3579032 154.992941,27.3579032 C154.312913,27.3579032 153.761267,26.8092505 153.761267,26.1321137 L153.761267,15.7710611 C153.761267,12.4659032 151.858556,10.7204505 149.208929,10.7204505 C146.335624,10.7204505 144.022235,12.4659032 144.022235,17.0709347 L144.022235,26.1321137 C144.022235,26.8092505 143.470949,27.3579032 142.790921,27.3579032 C142.110534,27.3579032 141.559607,26.8092505 141.559607,26.1321137 L141.559607,15.7710611 C141.559607,12.4659032 139.842816,10.7204505 137.193549,10.7204505 C134.506882,10.7204505 131.820216,12.4659032 131.820216,17.0709347 L131.820216,26.1321137 C131.820216,26.8092505 131.26857,27.3579032 130.588902,27.3579032 C129.908515,27.3579032 129.357228,26.8092505 129.357228,26.1321137 L129.357228,9.46459789 C129.357228,9.09167158 129.661101,8.78960842 130.035817,8.78960842 L130.995264,8.78960842 C131.450534,8.78960842 131.820216,9.15716632 131.820216,9.61061895 C131.820216,10.2025768 132.533687,10.5078611 132.962705,10.0973558 C134.257671,8.85760842 135.828819,8.34367158 137.529427,8.34367158 C139.768376,8.34367158 141.568598,9.24413474 142.695264,10.8578821 C142.956703,11.2325979 143.487131,11.2565768 143.773024,10.9001137 C145.165444,9.16289263 147.163812,8.34367158 149.246689,8.34367158 C153.351308,8.34367158 156.224254,11.1291663 156.224254,15.7710611" id="Fill-36" fill="#FFFFFF"></path>
                                <path d="M177.045975,18.2155179 C177.120775,14.0231389 173.881383,10.7165495 169.688658,10.7204863 C165.730401,10.7244232 162.41657,13.9927179 162.346445,17.9313495 C162.271646,22.1237284 165.510678,25.4306758 169.703402,25.4267389 C173.662019,25.4228021 176.97621,22.1545074 177.045975,18.2155179 M179.510041,10.0147179 L179.510041,26.1325074 C179.510041,26.8092863 178.958755,27.3575811 178.278728,27.3575811 C177.5987,27.3575811 177.047414,26.8092863 177.047414,26.1325074 L177.047414,23.7181495 C175.480221,26.2065916 172.830595,27.8035179 169.509571,27.8035179 C164.248077,27.8035179 159.882019,23.5699811 159.882019,18.0734337 C159.882019,12.5772442 164.248077,8.34370737 169.509571,8.34370737 C172.830595,8.34370737 175.480221,9.94063368 177.047414,12.4287179 L177.047414,10.0147179 C177.047414,9.33793895 177.5987,8.78964421 178.278728,8.78964421 C178.958755,8.78964421 179.510041,9.33793895 179.510041,10.0147179" id="Fill-38" fill="#FFFFFF"></path>
                                <path d="M190.371317,11.1661368 C189.751704,11.1661368 189.249685,11.6657579 189.249685,12.2824105 L189.249685,22.4187053 C189.249685,25.2492947 190.627361,25.3670421 193.461109,25.2535895 C194.095466,25.2281789 194.623018,25.7367474 194.623018,26.3691474 C194.623018,26.945 194.178537,27.4278 193.602437,27.4839895 C189.209408,27.9138211 186.786697,26.5645579 186.786697,22.4187053 L186.786697,12.2824105 C186.786697,11.6657579 186.284678,11.1661368 185.665425,11.1661368 L184.06299,11.1661368 C183.40382,11.1661368 182.869076,10.6343053 182.869076,9.97792632 C182.869076,9.32154737 183.40382,8.78935789 184.06299,8.78935789 L185.665425,8.78935789 C186.284678,8.78935789 186.786697,8.28973684 186.786697,7.67308421 L186.786697,5.16102105 C186.786697,4.66891579 187.110349,4.23514737 187.583239,4.09234737 L187.802963,4.02613684 C188.523267,3.80925263 189.249685,4.34537895 189.249685,5.09445263 L189.249685,7.67308421 C189.249685,8.28973684 189.751704,8.78935789 190.371317,8.78935789 L193.501386,8.78935789 C194.120999,8.78935789 194.623018,9.28897895 194.623018,9.90563158 L194.623018,10.0498632 C194.623018,10.6665158 194.120999,11.1661368 193.501386,11.1661368 L190.371317,11.1661368 Z" id="Fill-40" fill="#FFFFFF"></path>
                                <mask id="mask-2" fill="white">
                                    <use xlink:href="#path-1"></use>
                                </mask>
                                <g id="Clip-43"></g>
                                <path d="M200.401815,16.9221579 L211.591165,16.9221579 C212.32945,16.9221579 212.859519,16.2088737 212.645909,15.5056105 C211.686462,12.3489789 209.043668,10.7202 206.22862,10.7202 C202.842866,10.7202 200.292852,12.6342211 199.349588,15.5027474 C199.119436,16.2031474 199.661372,16.9221579 200.401815,16.9221579 M215.483253,18.1479474 L215.483253,18.1590421 C215.482534,18.7885789 214.969367,19.2989368 214.336448,19.2989368 L199.027015,19.2989368 C199.549533,23.0868947 202.497278,25.4268105 206.453018,25.4268105 C208.919602,25.4268105 210.75938,24.4644316 211.884609,23.1058632 C212.264,22.6474 212.926407,22.5418211 213.441372,22.8424526 C214.105936,23.2300526 214.261649,24.1290842 213.752797,24.7049368 C212.093903,26.5820947 209.567983,27.8035895 206.415618,27.8035895 C200.519768,27.8035895 196.489588,23.681 196.489588,18.0735053 C196.489588,12.6145368 200.444968,8.34377895 206.22862,8.34377895 C211.938191,8.34377895 215.483253,13.0597579 215.483253,18.1479474" id="Fill-42" fill="#FFFFFF" mask="url(#mask-2)"></path>
                            </g>
                        </g>
                        <g id="github-logo-(1)" transform="translate(0.000000, 11.000000)" fill="#FFFFFF" fill-rule="nonzero">
                            <path d="M74.6342687,20.421371 C71.0573577,14.1390805 66.2055064,9.16538238 60.0774377,5.49915463 C53.9484569,1.83273988 47.2574371,0 39.9996352,0 C32.7427453,0 26.0495364,1.83330087 19.9218326,5.49915463 C13.7932167,9.16519539 8.94154775,14.1390805 5.36463678,20.421371 C1.78827307,26.7034745 0,33.5635802 0,41.001501 C0,49.9361313 2.54294874,57.9703797 7.63012318,65.1063033 C12.7167504,72.2427878 19.2879196,77.1809569 27.3430837,79.9213714 C28.2807277,80.0997648 28.9748396,79.9742911 29.4261491,79.548129 C29.8776411,79.121406 30.1031135,78.5869737 30.1031135,77.9470762 C30.1031135,77.8403019 30.0941748,76.8797076 30.0768448,75.0641713 C30.0589676,73.248635 30.0505762,71.6647857 30.0505762,70.3133714 L28.8526175,70.525798 C28.0888208,70.6692233 27.1252731,70.7299967 25.9619743,70.7127931 C24.7992229,70.6961506 23.5921431,70.5712378 22.3423769,70.3389898 C21.0920633,70.1087987 19.9291294,69.5749274 18.8526631,68.7384979 C17.7767441,67.9020684 17.0129473,66.8072116 16.5614554,65.4556103 L16.0406434,64.2270519 C15.6934962,63.4091349 15.1469629,62.5005253 14.4003138,61.5045889 C13.6536646,60.5077175 12.8986241,59.8319169 12.1348274,59.476065 L11.7701678,59.2084749 C11.527183,59.0306425 11.3017107,58.816159 11.0932034,58.5672684 C10.8848787,58.3183778 10.7289087,58.0693002 10.6247463,57.8198486 C10.5204015,57.57021 10.6068691,57.3654503 10.8850611,57.2048214 C11.1632531,57.0441925 11.6660054,56.9662155 12.395507,56.9662155 L13.436766,57.1257224 C14.1312428,57.2683998 14.9902633,57.6945618 16.014922,58.4068265 C17.0390335,59.1185302 17.8809064,60.0437824 18.5407232,61.1822092 C19.3397272,62.6418936 20.3023628,63.754141 21.4313664,64.5195124 C22.5594578,65.2848837 23.6968528,65.6669149 24.8424567,65.6669149 C25.9880605,65.6669149 26.9775121,65.5779052 27.811176,65.4008207 C28.6439279,65.2228013 29.425237,64.9552112 30.1547386,64.5995463 C30.4672258,62.2138616 31.3180373,60.3811218 32.7064436,59.1000177 C30.7275406,58.8868432 28.9483885,58.5657724 27.3680754,58.1388624 C25.7886744,57.7113914 24.1565537,57.0176392 22.4728079,56.0557359 C20.7881499,55.0951416 19.3906226,53.9022993 18.2798612,52.4792659 C17.1689173,51.0554845 16.2571771,49.1862805 15.5459176,46.873337 C14.8342933,44.5594585 14.47839,41.8902891 14.47839,38.8650809 C14.47839,34.5576466 15.8501959,30.8921668 18.5932605,27.8665846 C17.3082869,24.6282019 17.4295969,20.9978772 18.9575552,16.9759846 C19.9645191,16.6552878 21.4578174,16.8959506 23.4367204,17.6964771 C25.4159883,18.4973775 26.8651407,19.1834628 27.7856371,19.7523022 C28.7061335,20.3209546 29.4436616,20.8028412 29.9993159,21.1936612 C33.2290797,20.2685959 36.5620938,19.8059698 39.9992703,19.8059698 C43.4364468,19.8059698 46.7701906,20.2685959 50.0001368,21.1936612 L51.9792222,19.9129311 C53.3326036,19.0583631 54.930794,18.2752272 56.7699626,17.5633365 C58.6102256,16.8518198 60.0174212,16.6558488 60.99009,16.9765456 C62.5519786,20.9986252 62.6911658,24.6287629 61.4058274,27.8671456 C64.1487096,30.8927278 65.5210628,34.5591426 65.5210628,38.8656419 C65.5210628,41.8908501 65.1638825,44.5684343 64.4533527,46.9000773 C63.7419108,49.2320944 62.8223265,51.0994284 61.694235,52.5060062 C60.5648666,53.912397 59.1584007,55.0958896 57.4746549,56.0562969 C55.7905442,57.0174522 54.1578763,57.7112044 52.5784752,58.1386754 C50.9983445,58.5661464 49.2191925,58.8874041 47.2402895,59.1009527 C49.0451629,60.7020055 49.947782,63.2292455 49.947782,66.6815508 L49.947782,77.9455802 C49.947782,78.5854778 50.164863,79.119723 50.5993898,79.5466331 C51.0333694,79.9727951 51.7187251,80.0982689 52.656369,79.9196885 C60.7126276,77.1796479 67.2837969,72.2412919 72.3702417,65.1048073 C77.4561392,57.9688838 80,49.9346353 80,41.000005 C79.9981758,33.5630192 78.2089906,26.7034745 74.6342687,20.421371 Z" id="Shape"></path>
                        </g>
                        <g id="facebook" transform="translate(152.000000, 11.000000)" fill="#475993" fill-rule="nonzero">
                            <path d="M69.2195653,0 L10.780239,0 C4.82659589,0 0,4.82636477 0,10.7801599 L0,69.2194487 C0,75.1732438 4.82640019,79.9996086 10.780239,79.9996086 L39.6022359,79.9996086 L39.6513571,51.4120767 L32.2242744,51.4120767 C31.2590726,51.4120767 30.4756779,50.6316232 30.4719596,49.6664286 L30.4363418,40.451481 C30.4326235,39.4810024 31.2183666,38.6923295 32.1888523,38.6923295 L39.6024316,38.6923295 L39.6024316,29.78835 C39.6024316,19.4553656 45.9132307,13.8289774 55.1309857,13.8289774 L62.694864,13.8289774 C63.6626099,13.8289774 64.4473745,14.6135405 64.4473745,15.581475 L64.4473745,23.3515661 C64.4473745,24.3191092 63.663197,25.1034766 62.6958426,25.1040637 L58.0539893,25.1062164 C53.0410852,25.1062164 52.0704038,27.4882824 52.0704038,30.9840798 L52.0704038,38.6925252 L63.085485,38.6925252 C64.1350343,38.6925252 64.9493499,39.6089905 64.8256663,40.6512911 L63.733454,49.8662387 C63.6289492,50.748065 62.8811723,51.4124681 61.9932727,51.4124681 L52.1195249,51.4124681 L52.0704038,80 L69.2199567,80 C75.1735998,80 80,75.1736352 80,69.2200358 L80,10.7801599 C79.9998043,4.82636477 75.1734041,0 69.2195653,0 Z" id="Shape"></path>
                        </g>
                        <g id="overflowing" transform="translate(304.000000, 11.000000)" fill-rule="nonzero">
                            <g id="Group" transform="translate(8.421053, 0.000000)" fill="#FFC107">
                                <rect id="Rectangle-path" x="0.125380117" y="63.285614" width="31.5234308" height="6.73185185"></rect>
                                <rect id="Rectangle-path" transform="translate(46.932863, 16.261420) rotate(170.154318) translate(-46.932863, -16.261420) " x="43.5667631" y="0.49878694" width="6.73219996" height="31.5252663"></rect>
                                <polygon id="Shape" points="1.02362573 51.0794542 32.4123197 53.9738012 31.7935283 60.6757115 0.404834308 57.7863548"></polygon>
                                <rect id="Rectangle-path" transform="translate(18.384347, 44.346046) rotate(105.046570) translate(-18.384347, -44.346046) " x="15.018552" y="28.5848116" width="6.73159039" height="31.5224688"></rect>
                                <polygon id="Shape" points="11.3035478 21.4722807 38.4555166 37.4860039 35.037193 43.2846784 7.88023392 27.2709552"></polygon>
                                <polygon id="Shape" points="27.3522027 6.72608187 45.1125146 32.7702144 39.5533723 36.562807 21.7880702 10.5186745"></polygon>
                            </g>
                            <polygon id="Shape" fill="#B0BEC5" points="49.9755166 79.9979727 0.0729824561 79.9979727 0.0729824561 50.0564522 5.06323587 50.0564522 5.06323587 75.0077193 44.9852632 75.0077193 44.9852632 50.0564522 49.9755166 50.0564522"></polygon>
                        </g>
                        <g id="slack" transform="translate(438.000000, 11.000000)" fill-rule="nonzero">
                            <path d="M51.8803125,4.92640625 C50.6653125,1.18640625 46.6453125,-0.86359375 42.9003125,0.35140625 C39.1553125,1.56640625 37.1103125,5.58640625 38.3253125,9.33140625 L56.7503125,66.0264063 C58.0153125,69.5214062 61.7903125,71.4864063 65.4203125,70.4464063 C69.2003125,69.3564063 71.5103125,65.3414063 70.3003125,61.6264063 C70.2553125,61.4814063 51.8803125,4.92640625 51.8803125,4.92640625 Z" id="Shape" fill="#FFC107"></path>
                            <path d="M23.3303125,14.2064063 C22.1103125,10.4614062 18.0903125,8.41140625 14.3503125,9.63140625 C10.6103125,10.8514063 8.5553125,14.8664063 9.7753125,18.6114063 L28.2003125,75.3014062 C29.4653125,78.7964062 33.2403125,80.7614062 36.8703125,79.7214063 C40.6503125,78.6314062 42.9603125,74.6164062 41.7503125,70.9014063 C41.7053125,70.7614063 23.3303125,14.2064063 23.3303125,14.2064063 Z" id="Shape" fill="#4CAF50"></path>
                            <path d="M75.0753125,51.8814063 C78.8203125,50.6664063 80.8653125,46.6464063 79.6503125,42.9014063 C78.4353125,39.1564063 74.4153125,37.1114063 70.6703125,38.3264063 L13.9753125,56.7564063 C10.4803125,58.0214063 8.5153125,61.7964063 9.5553125,65.4264063 C10.6453125,69.2064063 14.6603125,71.5164063 18.3753125,70.3064063 C18.5203125,70.2564063 75.0753125,51.8814063 75.0753125,51.8814063 Z" id="Shape" fill="#EC407A"></path>
                            <path d="M25.7903125,67.8964062 C29.4803125,66.6964062 34.2353125,65.1514062 39.3403125,63.4914062 C38.1403125,59.8014062 36.5953125,55.0464062 34.9353125,49.9414062 L21.3853125,54.3464063 L25.7903125,67.8964062 Z" id="Shape" fill="#472A49"></path>
                            <path d="M54.3453125,58.6164063 C59.4703125,56.9514063 64.2303125,55.4064063 67.8953125,54.2114063 C66.6953125,50.5214063 65.1503125,45.7614063 63.4903125,40.6564063 L49.9403125,45.0614063 L54.3453125,58.6164063 Z" id="Shape" fill="#CC2027"></path>
                            <path d="M65.7953125,23.3314063 C69.5403125,22.1164062 71.5853125,18.0964063 70.3703125,14.3514062 C69.1553125,10.6064062 65.1353125,8.56140625 61.3903125,9.77640625 L4.7003125,28.2014062 C1.2003125,29.4664062 -0.7646875,33.2414063 0.2803125,36.8714062 C1.3703125,40.6514062 5.3853125,42.9564063 9.1003125,41.7514063 C9.2403125,41.7064063 65.7953125,23.3314063 65.7953125,23.3314063 Z" id="Shape" fill="#2196F3"></path>
                            <path d="M16.5103125,39.3414062 C20.2003125,38.1414062 24.9603125,36.5964063 30.0653125,34.9364062 C28.4003125,29.8164062 26.8553125,25.0564062 25.6603125,21.3864063 L12.1103125,25.7914063 L16.5103125,39.3414062 Z" id="Shape" fill="#1A937D"></path>
                            <path d="M45.0653125,30.0664062 C50.1903125,28.4014063 54.9503125,26.8564062 58.6203125,25.6614062 C56.9553125,20.5364062 55.4053125,15.7764062 54.2153125,12.1064062 L40.6603125,16.5114063 L45.0653125,30.0664062 Z" id="Shape" fill="#65863A"></path>
                        </g>
                        <g id="twitter" transform="translate(590.000000, 0.000000)" fill="#76A9EA" fill-rule="nonzero">
                            <path d="M94.4168421,9.39883041 C92.2851462,10.3440936 90.0722807,11.0898246 87.8016374,11.6297076 C90.3036257,9.25216374 92.1847953,6.27836257 93.2460819,2.95906433 C93.5490058,2.01146199 92.5197661,1.19204678 91.6640936,1.6994152 C88.5052632,3.57309942 85.1026901,4.97871345 81.5506433,5.87766082 C81.3445614,5.92982456 81.1319298,5.95625731 80.9185965,5.95625731 C80.2715789,5.95625731 79.6425731,5.71602339 79.1478363,5.28 C75.368655,1.94923977 70.5080702,0.114853801 65.4617544,0.114853801 C63.2781287,0.114853801 61.0734503,0.455204678 58.9087719,1.12654971 C52.2018713,3.20678363 47.0269006,8.73918129 45.4032749,15.5649123 C44.794152,18.1251462 44.6292398,20.6877193 44.9127485,23.1812865 C44.9452632,23.4678363 44.8098246,23.6678363 44.7263158,23.7616374 C44.5796491,23.9260819 44.3716959,24.0203509 44.1557895,24.0203509 C44.1316959,24.0203509 44.1069006,24.0191813 44.0823392,24.0168421 C29.4011696,22.6528655 16.1623392,15.579883 6.80444444,4.10105263 C6.32725146,3.51555556 5.41216374,3.58736842 5.03181287,4.23976608 C3.19929825,7.38362573 2.23087719,10.9794152 2.23087719,14.6383626 C2.23087719,20.245848 4.48374269,25.5302924 8.39695906,29.3826901 C6.75134503,28.9925146 5.15859649,28.3780117 3.67906433,27.5562573 C2.96327485,27.1585965 2.0825731,27.6697076 2.07251462,28.4884211 C1.97005848,36.8187135 6.84725146,44.2311111 14.1534503,47.5688889 C14.0063158,47.5723977 13.8591813,47.5740351 13.7118129,47.5740351 C12.5536842,47.5740351 11.3810526,47.4622222 10.2269006,47.2416374 C9.42081871,47.0877193 8.74362573,47.8523977 8.99391813,48.6339181 C11.3653801,56.0376608 17.740117,61.4949708 25.368655,62.7340351 C19.0374269,66.9840936 11.6645614,69.2259649 3.99087719,69.2259649 L1.59859649,69.2245614 C0.861520468,69.2245614 0.238128655,69.7050292 0.0502923977,70.4189474 C-0.134736842,71.1221053 0.206081871,71.8638596 0.834619883,72.2294737 C9.48163743,77.2617544 19.3447953,79.9214035 29.3621053,79.9214035 C38.1305263,79.9214035 46.3326316,78.1812865 53.7408187,74.7497076 C60.5321637,71.6037427 66.5335673,67.1066667 71.5782456,61.3833918 C76.2776608,56.0519298 79.9525146,49.8973099 82.5003509,43.0907602 C84.9291228,36.6025731 86.2128655,29.6795322 86.2128655,23.0699415 L86.2128655,22.7550877 C86.2126316,21.6938012 86.6926316,20.6952047 87.5300585,20.0154386 C90.7078363,17.4353216 93.4750877,14.3981287 95.7546199,10.9883041 C96.3564912,10.0879532 95.4072515,8.95953216 94.4168421,9.39883041 Z" id="Shape"></path>
                        </g>
                        <text id="Fast,-incremental,-i" font-family="IBMPlexSans-LightItalic, IBM Plex Sans" font-size="18" font-style="italic" font-weight="300" fill="#FDFFFC">
                            <tspan x="116.012" y="289">Fast, incremental, intelligent, end-to-end  development. </tspan>
                        </text>
                    </g>
                </g>
            </g>
        </g>
    </g>
</svg>