<?xml version="1.0" encoding="UTF-8"?>
<svg width="460px" height="341px" viewBox="0 0 460 341" version="1.1" xmlns="http://www.w3.org/2000/svg" xmlns:xlink="http://www.w3.org/1999/xlink">
    <!-- Generator: Sketch 50.2 (55047) - http://www.bohemiancoding.com/sketch -->
    <title>Group 3</title>
    <desc>Created with Sketch.</desc>
    <defs>
        <linearGradient x1="50%" y1="0%" x2="100%" y2="50%" id="linearGradient-1">
            <stop stop-color="#8BE1D5" offset="0%"></stop>
            <stop stop-color="#55AFFF" offset="100%"></stop>
        </linearGradient>
    </defs>
    <g id="Page-1" stroke="none" stroke-width="1" fill="none" fill-rule="evenodd">
        <g id="Deep-Dive-Iterative-Development" transform="translate(-832.000000, -388.000000)" fill="url(#linearGradient-1)">
            <g id="Group-3" transform="translate(1062.000000, 558.500000) scale(-1, 1) translate(-1062.000000, -558.500000) translate(832.000000, 388.000000)">
                <rect id="Rectangle-7-Copy-2" opacity="0.5484375" x="0" y="290" width="59" height="10"></rect>
                <rect id="Rectangle-7-Copy-2" x="385" y="331" width="72" height="10"></rect>
                <rect id="Rectangle-7-Copy-2" x="301" y="331" width="43" height="10"></rect>
                <rect id="Rectangle-7-Copy-2" x="342" y="311" width="90" height="10"></rect>
                <rect id="Rectangle-7-Copy-2" x="329" y="311" width="8" height="10"></rect>
                <rect id="Rectangle-7-Copy-2" x="350" y="331" width="28" height="10"></rect>
                <rect id="Rectangle-7-Copy-2" x="362" y="37" width="68" height="10"></rect>
                <rect id="Rectangle-7-Copy-2" x="290" y="37" width="68" height="10"></rect>
                <rect id="Rectangle-7-Copy-2" x="268" y="37" width="13" height="10"></rect>
                <rect id="Rectangle-7-Copy-3" x="404" y="20" width="56" height="10"></rect>
                <rect id="Rectangle-7-Copy-2" x="414" y="1.77635684e-14" width="43" height="10"></rect>
                <rect id="Rectangle-7-Copy-2" x="340" y="1.77635684e-14" width="43" height="10"></rect>
                <rect id="Rectangle-7-Copy-2" x="389" y="1.77635684e-14" width="20" height="10"></rect>
                <rect id="Rectangle-7-Copy-2" x="274" y="1.77635684e-14" width="59" height="10"></rect>
                <rect id="Rectangle-7-Copy-2" x="209" y="1.77635684e-14" width="43" height="10"></rect>
                <rect id="Rectangle-7-Copy-2" opacity="0.5484375" x="133" y="1.77635684e-14" width="43" height="10"></rect>
                <rect id="Rectangle-7-Copy-2" opacity="0.5484375" x="184" y="1.77635684e-14" width="20" height="10"></rect>
                <rect id="Rectangle-7-Copy-2" x="408" y="290" width="52" height="10"></rect>
                <rect id="Rectangle-7-Copy-2" x="344" y="290" width="56" height="10"></rect>
                <rect id="Rectangle-7-Copy-2" x="325" y="290" width="12" height="10"></rect>
                <rect id="Rectangle-7-Copy-2" x="232" y="290" width="65" height="10"></rect>
                <rect id="Rectangle-7-Copy-3" x="404" y="272" width="56" height="10"></rect>
                <rect id="Rectangle-7-Copy-2" x="414" y="255" width="43" height="10"></rect>
                <rect id="Rectangle-7-Copy-2" x="340" y="255" width="43" height="10"></rect>
                <rect id="Rectangle-7-Copy-2" x="389" y="255" width="20" height="10"></rect>
                <rect id="Rectangle-7-Copy-2" x="274" y="255" width="59" height="10"></rect>
                <rect id="Rectangle-7-Copy-2" x="244" y="99" width="136" height="10"></rect>
                <rect id="Rectangle-7-Copy-2" x="422" y="76" width="36" height="10"></rect>
                <rect id="Rectangle-7-Copy-2" x="385" y="99" width="72" height="10"></rect>
                <rect id="Rectangle-7-Copy-2" x="404" y="76" width="13" height="10"></rect>
                <rect id="Rectangle-7-Copy-2" stroke="#979797" x="309.5" y="76.5" width="89" height="9"></rect>
                <rect id="Rectangle-7-Copy-2" x="414" y="155" width="21" height="10"></rect>
                <rect id="Rectangle-7-Copy-2" x="277" y="155" width="130" height="10"></rect>
                <rect id="Rectangle-7-Copy-2" x="260" y="155" width="13" height="10"></rect>
                <rect id="Rectangle-7-Copy-2" x="228" y="155" width="13" height="10"></rect>
                <rect id="Rectangle-7-Copy-2" opacity="0.5484375" x="27" y="155" width="95" height="10"></rect>
                <rect id="Rectangle-7-Copy-2" x="385" y="134" width="72" height="10"></rect>
                <rect id="Rectangle-7-Copy-2" x="349" y="134" width="31" height="10"></rect>
                <rect id="Rectangle-7-Copy-2" x="334" y="134" width="8" height="10"></rect>
                <rect id="Rectangle-7-Copy-2" x="300" y="134" width="31" height="10"></rect>
                <rect id="Rectangle-7-Copy-2" x="358" y="213" width="72" height="10"></rect>
                <rect id="Rectangle-7-Copy-2" x="277" y="213" width="72" height="10"></rect>
                <rect id="Rectangle-7-Copy-2" x="213" y="213" width="59" height="10"></rect>
                <rect id="Rectangle-7-Copy-2" opacity="0.5484375" x="39" y="76" width="65" height="10"></rect>
                <rect id="Rectangle-7-Copy-2" x="296" y="196" width="9" height="10"></rect>
                <rect id="Rectangle-7-Copy-2" x="422" y="196" width="36" height="10"></rect>
                <rect id="Rectangle-7-Copy-2" x="404" y="196" width="13" height="10"></rect>
                <rect id="Rectangle-7-Copy-2" x="309" y="196" width="90" height="10"></rect>
                <rect id="Rectangle-5" opacity="0.5484375" x="140" y="331" width="41" height="10"></rect>
                <rect id="Rectangle-5" opacity="0.5484375" x="91" y="331" width="43" height="10"></rect>
                <rect id="Rectangle-7-Copy-2" opacity="0.5484375" x="97" y="34" width="43" height="10"></rect>
            </g>
        </g>
    </g>
</svg>