<?xml version="1.0" encoding="utf-8"?>
<!-- Generator: Adobe Illustrator 21.0.2, SVG Export Plug-In . SVG Version: 6.00 Build 0)  -->
<svg version="1.1" id="Layer_1" xmlns="http://www.w3.org/2000/svg" xmlns:xlink="http://www.w3.org/1999/xlink" x="0px" y="0px"
	 viewBox="0 0 1084 525" style="enable-background:new 0 0 1084 525;" xml:space="preserve">
<style type="text/css">
	.st0{fill:#16112D;}
	.st1{fill:none;stroke:#16112D;stroke-width:2;stroke-miterlimit:10;}
	.st2{fill-rule:evenodd;clip-rule:evenodd;fill:url(#SVGID_1_);}
	.st3{fill:#1B1145;}
	.st4{fill:#0E1E39;}
	.st5{fill:#F16465;}
	.st6{fill:#6BC8C6;}
	.st7{fill:#FDE38D;}
	.st8{fill:#FAA966;}
	.st9{fill:none;stroke:#F16465;stroke-width:0.6574;stroke-miterlimit:10;}
	.st10{clip-path:url(#SVGID_3_);}
	.st11{clip-path:url(#SVGID_5_);fill:#F16465;}
	.st12{clip-path:url(#SVGID_7_);}
	.st13{clip-path:url(#SVGID_9_);fill:#F7A2A4;}
	.st14{clip-path:url(#SVGID_11_);}
	.st15{clip-path:url(#SVGID_13_);fill:#08172E;}
	.st16{clip-path:url(#SVGID_15_);}
	.st17{clip-path:url(#SVGID_17_);enable-background:new    ;}
	.st18{clip-path:url(#SVGID_19_);}
	.st19{clip-path:url(#SVGID_21_);}
	.st20{clip-path:url(#SVGID_23_);fill:#3C3292;}
	.st21{fill:#100F19;}
	.st22{fill:#F04F45;}
	.st23{fill:#9ED5E6;}
	.st24{fill:#3961AD;}
	.st25{fill:#1AC2E9;}
	.st26{fill:#326EB6;}
	.st27{fill:#1A1A1A;}
	.st28{filter:url(#Adobe_OpacityMaskFilter);}
	.st29{fill-rule:evenodd;clip-rule:evenodd;fill:url(#SVGID_25_);}
	.st30{mask:url(#SVGID_24_);fill-rule:evenodd;clip-rule:evenodd;fill:#FFFFFF;}
	.st31{fill-rule:evenodd;clip-rule:evenodd;fill:#FFFFFF;}
	.st32{fill:none;stroke:#16112D;stroke-width:2;stroke-linecap:round;stroke-miterlimit:10;}
</style>
<g>
	<g>
		<rect x="517.6" y="116.7" class="st0" width="11.8" height="157.1"/>
		<rect x="610.3" y="116.7" class="st0" width="11.8" height="157.1"/>
		<polygon class="st0" points="517.6,116.7 517.6,128.6 620.2,128.6 620.2,116.7 529.5,116.7 		"/>
	</g>
	<path class="st0" d="M572,159.6L572,159.6c-3.3,0-5.9-2.6-5.9-5.9V8.4c0-3.3,2.6-5.9,5.9-5.9l0,0c3.3,0,5.9,2.6,5.9,5.9v145.3
		C577.9,156.9,575.2,159.6,572,159.6z"/>
	<rect x="715.7" y="2.5" class="st0" width="11.8" height="83"/>
	
		<rect x="642.5" y="-70.1" transform="matrix(6.123234e-17 -1 1 6.123234e-17 640.0588 656.8718)" class="st0" width="11.8" height="157.1"/>
	<rect x="700.9" y="70.4" class="st0" width="41.4" height="16.4"/>
	<g>
		<line class="st1" x1="567.5" y1="68.9" x2="529.2" y2="119.7"/>
		<line class="st1" x1="567.5" y1="84.2" x2="540.5" y2="119.7"/>
		<line class="st1" x1="567.7" y1="99.1" x2="553.1" y2="119.7"/>
	</g>
	<g>
		<line class="st1" x1="572.2" y1="67.5" x2="610.6" y2="118.3"/>
		<line class="st1" x1="572.2" y1="82.8" x2="599.3" y2="118.3"/>
		<line class="st1" x1="572" y1="97.7" x2="586.6" y2="118.3"/>
	</g>
	
		<rect x="494" y="87" transform="matrix(3.086249e-11 -1 1 3.086249e-11 256.848 767.9109)" class="st0" width="36.8" height="337"/>
	<g>
		<rect x="397.3" y="116.8" class="st0" width="11.8" height="157.1"/>
		<rect x="489.9" y="116.8" class="st0" width="11.8" height="157.1"/>
		<polygon class="st0" points="397.3,116.8 397.3,128.7 499.9,128.7 499.9,116.8 409.1,116.8 		"/>
	</g>
	<linearGradient id="SVGID_1_" gradientUnits="userSpaceOnUse" x1="2.474" y1="343.3454" x2="1082" y2="343.3454">
		<stop  offset="0" style="stop-color:#72CCD6"/>
		<stop  offset="2.695994e-02" style="stop-color:#70C4D3"/>
		<stop  offset="0.689" style="stop-color:#344DA1"/>
	</linearGradient>
	<path class="st2" d="M928,241.9c-180.6,18.7-351.4,23.3-512.5,14c-241.7-14-445.7,48.8-408.6,85s558.4,129,739.8,97.4
		s335.3-29,335.3-52.9C1082,369.5,1030.7,321.6,928,241.9z"/>
	<polygon class="st3" points="318,454.4 290.7,381.1 879.3,381.1 847.3,454.4 	"/>
	<polygon class="st4" points="320.7,337.7 841.3,337.7 879.3,381.1 290.7,381.1 	"/>
	<g>
		<polygon class="st4" points="393.4,379.6 325.2,379.6 354.4,341.1 412.3,340.9 		"/>
		<polygon class="st5" points="397.8,358.6 348.3,358.7 351.3,354.5 400,354.4 		"/>
		<polygon class="st6" points="389.5,374.8 336.6,374.8 339.6,370.6 391.7,370.5 		"/>
		<g>
			<polygon class="st7" points="386.3,345.8 357.6,345.8 354.5,350 383.7,350 			"/>
			<polygon class="st6" points="395.4,345.7 393.1,350 402.3,349.9 404.5,345.7 			"/>
		</g>
		<g>
			<polygon class="st8" points="355.7,362.5 345.5,362.5 342.4,366.7 352.8,366.7 			"/>
			<polygon class="st7" points="364.6,362.5 361.9,366.7 393.6,366.7 395.8,362.5 			"/>
		</g>
	</g>
	<g>
		<polygon class="st4" points="468.6,379.6 400.5,379.6 418.4,340.9 476.4,340.7 		"/>
	</g>
	<g>
		<polygon class="st4" points="721.6,380.2 653.4,380.2 658.8,341.3 716.8,341.2 		"/>
	</g>
	<g>
		<polygon class="st4" points="853.1,379.6 723.3,379.6 716.7,340.5 827.1,340.2 		"/>
	</g>
	<g>
		<g>
			<path class="st8" d="M430.9,348c-0.5,1.2-2.3,2.1-4.1,2.1c-1.8,0-2.9-0.9-2.4-2.1c0.5-1.2,2.3-2.1,4.1-2.1
				C430.3,345.9,431.3,346.9,430.9,348z"/>
			<path class="st8" d="M442.5,348c-0.4,1.2-2.2,2.1-4,2.1c-1.8,0-3-0.9-2.5-2.1c0.4-1.2,2.2-2.1,4-2.1
				C441.7,345.9,442.9,346.8,442.5,348z"/>
			<path class="st6" d="M454.1,348c-0.3,1.2-2.1,2.1-3.9,2.1c-1.8,0-3-0.9-2.6-2.1c0.4-1.2,2.1-2.1,3.9-2.1
				C453.2,345.9,454.4,346.8,454.1,348z"/>
			<path class="st5" d="M465.7,348c-0.3,1.2-2,2.1-3.8,2.1c-1.8,0-3-0.9-2.7-2.1c0.3-1.2,2-2.1,3.8-2.1
				C464.7,345.8,465.9,346.8,465.7,348z"/>
		</g>
		<g>
			<path class="st8" d="M427.7,356.1c-0.5,1.2-2.4,2.1-4.3,2.1s-3-0.9-2.5-2.1c0.5-1.2,2.4-2.1,4.3-2.1
				C427,354,428.2,355,427.7,356.1z"/>
			<path class="st7" d="M439.7,356.1c-0.4,1.2-2.3,2.1-4.1,2.1c-1.9,0-3.1-0.9-2.6-2.1s2.3-2.1,4.1-2.1
				C438.9,354,440.1,355,439.7,356.1z"/>
			<path class="st8" d="M451.7,356.1c-0.3,1.2-2.1,2.1-4,2.1c-1.9,0-3.1-0.9-2.7-2.1s2.2-2.1,4-2.1C450.8,354,452,354.9,451.7,356.1
				z"/>
			<path class="st8" d="M463.7,356.1c-0.3,1.2-2,2.1-3.9,2.1s-3.2-0.9-2.8-2.1c0.3-1.2,2.1-2.1,3.9-2.1S464,354.9,463.7,356.1z"/>
		</g>
		<g>
			<path class="st8" d="M424.5,364.3c-0.5,1.2-2.4,2.1-4.4,2.1c-2,0-3.1-0.9-2.6-2.1c0.5-1.2,2.4-2.1,4.4-2.1
				C423.8,362.1,425,363.1,424.5,364.3z"/>
			<path class="st6" d="M436.9,364.2c-0.4,1.2-2.3,2.1-4.3,2.1c-2,0-3.2-0.9-2.8-2.1c0.4-1.2,2.3-2.1,4.3-2.1
				C436.1,362.1,437.3,363.1,436.9,364.2z"/>
			<path class="st8" d="M449.3,364.2c-0.3,1.2-2.2,2.1-4.2,2.1c-2,0-3.2-0.9-2.9-2.1c0.4-1.2,2.2-2.1,4.2-2.1
				C448.4,362.1,449.7,363.1,449.3,364.2z"/>
			<path class="st8" d="M461.7,364.2c-0.3,1.2-2.1,2.1-4,2.1c-2,0-3.3-0.9-3-2.1c0.3-1.2,2.1-2.1,4-2.1S462,363.1,461.7,364.2z"/>
		</g>
		<g>
			<path class="st8" d="M421.3,372.4c-0.5,1.2-2.5,2.1-4.5,2.1c-2,0-3.3-0.9-2.8-2.1c0.5-1.2,2.5-2.1,4.5-2.1
				C420.5,370.3,421.8,371.2,421.3,372.4z"/>
			<path class="st8" d="M434.1,372.4c-0.4,1.2-2.4,2.1-4.4,2.1s-3.3-0.9-2.9-2.1s2.4-2.1,4.4-2.1S434.5,371.2,434.1,372.4z"/>
			<path class="st8" d="M447,372.4c-0.3,1.2-2.3,2.1-4.3,2.1c-2,0-3.3-0.9-3-2.1c0.4-1.2,2.3-2.1,4.3-2.1
				C446,370.2,447.3,371.2,447,372.4z"/>
			<path class="st8" d="M459.8,372.4c-0.3,1.2-2.1,2.1-4.2,2.1c-2,0-3.4-0.9-3.1-2.1s2.2-2.1,4.2-2.1
				C458.7,370.2,460.1,371.2,459.8,372.4z"/>
		</g>
	</g>
	<path class="st6" d="M688.4,360.3L683,374c-10.7-1.5-17.8-7.1-17.2-13.6c0.8-7.7,11-14,22.7-14c11.7,0,21.9,6.3,22.6,14
		L688.4,360.3z"/>
	<path class="st9" d="M737.5,371.9c0.9-3.9,2.1-8.7,6.2-11.7c4.2-3.2,10.4-0.2,14.1,2.9c2.7,2.3,3.8,4.7,5.9,7.1
		c0.5,0.5,1.1,1.1,1.9,1.5c4.1,1.8,7.3-0.6,8.3-2.3c1-1.9,1-4,1-6.1c0-2.7-3-11.8,3.4-11.5c4.1,0.2,9.5,6.7,11,8.4
		c2.2,2.5,7.6,11,12.5,11c2.5,0,3.4-1.1,3.2-2.5c-0.7-5.3-4.6-10.7-4.8-15.9c-0.1-2.9,3-5.5,8.6-3c11.9,5.3,23.5,21.9,23.5,21.9"/>
	<g>
		<g>
			<defs>
				<path id="SVGID_2_" d="M373.6,516.1c0,0,6,1.5,7.5,3c1.5,1.5-16.6,1.5-16.6,1.5s1.5-39.5,3-45.6c1.5-6.1-4.5-34.9-6-36.4
					c-1.5-1.5-1.5,3-1.5,3s0,27.3-3,38c-3,10.6-6,25.8-6,27.3v7.6c0,0,6,1.5,6,3c0,1.5-15.1,1.5-15.1,1.5s3-56.2,3-57.7
					c0-1.5,0-15.2-1.5-21.3c-1.5-6.1-1.5-19.7-1.5-19.7v-3h40.7c0,0,0,34.9-1.5,45.5c-1.5,10.6-4.5,31.9-4.5,31.9L373.6,516.1z"/>
			</defs>
			<clipPath id="SVGID_3_">
				<use xlink:href="#SVGID_2_"  style="overflow:visible;"/>
			</clipPath>
			<g class="st10">
				<defs>
					<rect id="SVGID_4_" x="-349.8" y="-675.2" width="874.6" height="3006.9"/>
				</defs>
				<clipPath id="SVGID_5_">
					<use xlink:href="#SVGID_4_"  style="overflow:visible;"/>
				</clipPath>
				<rect x="338.9" y="414.4" class="st11" width="46.8" height="109.3"/>
			</g>
		</g>
		<g>
			<defs>
				<path id="SVGID_6_" d="M434,356.1c0-0.8,1.3-1.7,1.5,0c0.2,1.5-1.5,1.5,0,3c1.5,1.5,1.5,6,0,6c-1.5,0-15.2,9.1-15.2,9.1
					s-15.2,10.6-18.3,9.1c-3-1.5-18.3-12.1-21.3-12.1c-3,0-24.4-9.1-24.4-13.6v-13.2c0-0.3,0-0.5,0.1-0.7c0.3-1.1,1.2-4.7-0.1-7.2
					c-1.5-3-2.3-12.8,3.8-14.4c6.1-1.5,10.7,0,12.2,3c1.5,3,1.5,7.6,1.5,10.6c0,1.9-0.6,4.9-1,6.9c-0.3,1.2-1.4,2.1-2.7,2.1H370
					c-1.7,0-3.1,1.6-2.6,3.3c0.1,0.4,0.3,0.8,0.5,1.2c1.5,3,27.4,18.1,30.4,19.6c1.6,0.8,2.8,1.6,3.5,2.1c0.7,0.5,1.6,0.7,2.5,0.4
					l22.3-6.9c0.4-0.1,0.8-0.4,1.1-0.7C429.3,362.2,434,356.8,434,356.1"/>
			</defs>
			<clipPath id="SVGID_7_">
				<use xlink:href="#SVGID_6_"  style="overflow:visible;"/>
			</clipPath>
			<g class="st12">
				<defs>
					<rect id="SVGID_8_" x="-349.8" y="-675.2" width="874.6" height="3006.9"/>
				</defs>
				<clipPath id="SVGID_9_">
					<use xlink:href="#SVGID_8_"  style="overflow:visible;"/>
				</clipPath>
				<rect x="352.3" y="318.4" class="st13" width="87.5" height="68"/>
			</g>
		</g>
		<g>
			<defs>
				<path id="SVGID_10_" d="M399,367.5c0.1,0.5-0.3,1.2-0.5,1.6c-0.4,1.3-0.9,2.7-1.3,4c-0.3,0.8-3.1,7.7-2.7,8.1
					c-2.3-2.1-5-3.8-7.9-5c-0.7-0.3-1.5-0.5-2.2-0.2c-0.9,0.4-1,1.6-1.1,2.5c-0.8,12.6-1.1,25.3-0.9,37.9c0,0.9,0,1.8-0.4,2.6
					c-0.3,0.6-0.8,1.1-1.4,1.6c-5.3,4.5-12,7.5-19,7.8c-7,0.3-14.1-2.1-19.2-6.8c-0.5-0.4-1-0.9-1.2-1.5c-0.3-0.6-0.4-1.3-0.4-2
					c-0.8-10.7,2.9-21.3,2.6-32c-0.3-9.5-3.7-18.9-2-28.3c0.3-1.4,0.7-2.9,1.6-3.9c0.8-0.8,1.8-1.3,2.8-1.7c3.4-1.4,7-2.4,10.7-2.8
					c-0.5,0.1,0.7,2.1,0.9,2.2c0.7,0.6,2,0.8,2.9,0.9c2.5,0.4,5.9,0.1,7.6-2c0.4-0.5,0.7-1,1.2-1.3c0.5-0.3,1-0.3,1.5-0.3
					c5.8,0.1,11.3,2.9,15.8,6.5c4,3.2,7.5,7.1,11.1,10.8C398,366.4,398.9,367,399,367.5C399,367.4,399,367.4,399,367.5"/>
			</defs>
			<clipPath id="SVGID_11_">
				<use xlink:href="#SVGID_10_"  style="overflow:visible;"/>
			</clipPath>
			<g class="st14">
				<defs>
					<rect id="SVGID_12_" x="-349.8" y="-675.2" width="874.6" height="3006.9"/>
				</defs>
				<clipPath id="SVGID_13_">
					<use xlink:href="#SVGID_12_"  style="overflow:visible;"/>
				</clipPath>
				<rect x="337.7" y="345.8" class="st15" width="64.4" height="85.6"/>
			</g>
		</g>
		<g>
			<defs>
				<rect id="SVGID_14_" x="349.5" y="314.8" width="24.2" height="30.7"/>
			</defs>
			<clipPath id="SVGID_15_">
				<use xlink:href="#SVGID_14_"  style="overflow:visible;"/>
			</clipPath>
			<g class="st16">
				<defs>
					<rect id="SVGID_16_" x="-349.8" y="-675.2" width="874.6" height="3006.9"/>
				</defs>
				<clipPath id="SVGID_17_">
					<use xlink:href="#SVGID_16_"  style="overflow:visible;"/>
				</clipPath>
				<g class="st17">
					<g>
						<defs>
							<rect id="SVGID_18_" x="348" y="312.4" width="27.3" height="36.4"/>
						</defs>
						<clipPath id="SVGID_19_">
							<use xlink:href="#SVGID_18_"  style="overflow:visible;"/>
						</clipPath>
						<g class="st18">
							<defs>
								<path id="SVGID_20_" d="M371.7,338.2c0,0-3.3,0-3.3-3.4s1.7-5,3.3-3.4c1.7,1.7,1.7,0,1.7,0s-3.3-5-1.7-6.7
									c1.7-1.7,3.3-3.4,0-6.7c-3.3-3.4-8.3-5-15,0c-6.7,5-8.3,8.4-6.7,13.5c1.7,5.1,6.7,11.8,6.7,11.8s5,5,10,0L371.7,338.2z"/>
							</defs>
							<clipPath id="SVGID_21_">
								<use xlink:href="#SVGID_20_"  style="overflow:visible;"/>
							</clipPath>
							<g class="st19">
								<defs>
									<rect id="SVGID_22_" x="349.2" y="314.8" width="24.9" height="31"/>
								</defs>
								<clipPath id="SVGID_23_">
									<use xlink:href="#SVGID_22_"  style="overflow:visible;"/>
								</clipPath>
								<rect x="346.4" y="311.8" class="st20" width="30.3" height="36.7"/>
							</g>
						</g>
					</g>
				</g>
			</g>
		</g>
	</g>
	<g>
		<g>
			<path class="st3" d="M573.5,176.8h442.1v129l-336.2-4.1C679.5,301.7,673,269.5,573.5,176.8z"/>
			<path class="st21" d="M573.5,177h442.1v4.4l-438.2-0.8C577.4,180.6,574.8,178.2,573.5,177z"/>
			<polygon class="st22" points="1015.6,292 675.3,292 673.6,289 1015.6,289 			"/>
		</g>
		<rect x="907.3" y="144.1" class="st23" width="108.4" height="32.7"/>
		<rect x="798.9" y="144.1" class="st24" width="108.4" height="32.7"/>
		<rect x="690.5" y="144.1" class="st23" width="108.4" height="32.7"/>
		<rect x="798.9" y="45.8" class="st25" width="108.4" height="32.7"/>
		<rect x="690.5" y="111.5" class="st26" width="108.4" height="32.7"/>
		<rect x="798.9" y="111.4" class="st23" width="108.4" height="32.7"/>
		<rect x="907.3" y="111.4" class="st25" width="108.4" height="32.7"/>
		<rect x="798.9" y="78.7" class="st24" width="108.4" height="32.7"/>
		<rect x="907.3" y="81" class="st26" width="108.4" height="32.7"/>
	</g>
	<g>
		<polygon class="st4" points="665,380.6 585,337.7 505,380.6 585,423.5 		"/>
		<polygon class="st27" points="525,380.6 585,348.5 645,380.6 585,412.8 		"/>
		<polygon class="st4" points="665,380.6 665,455.6 585,498.5 585,423.5 		"/>
		<polygon class="st3" points="505,380.6 505,455.6 585,498.5 585,423.5 		"/>
	</g>
	<defs>
		<filter id="Adobe_OpacityMaskFilter" filterUnits="userSpaceOnUse" x="456.2" y="199.3" width="257.1" height="214">
			<feColorMatrix  type="matrix" values="1 0 0 0 0  0 1 0 0 0  0 0 1 0 0  0 0 0 1 0"/>
		</filter>
	</defs>
	<mask maskUnits="userSpaceOnUse" x="456.2" y="199.3" width="257.1" height="214" id="SVGID_24_">
		<g class="st28">
			<linearGradient id="SVGID_25_" gradientUnits="userSpaceOnUse" x1="585.7477" y1="199.5" x2="585.7477" y2="412.7576">
				<stop  offset="0.2595" style="stop-color:#010101"/>
				<stop  offset="1" style="stop-color:#FFFFFF;stop-opacity:0.2"/>
			</linearGradient>
			<rect x="431" y="199.5" class="st29" width="309.5" height="213.3"/>
		</g>
	</mask>
	<polygon class="st30" points="525.5,381.2 585.5,413.4 645.5,381.2 713.2,199.3 456.2,199.3 	"/>
	<path class="st31" d="M861.5,223.5"/>
	<g>
		<g>
			<polygon class="st5" points="584.3,335.8 579.5,327.4 589.1,327.4 593.9,335.8 593.9,335.8 593.9,335.8 			"/>
			<polygon class="st5" points="584.3,335.8 579.5,344.1 574.7,335.8 579.5,327.4 584.3,335.8 			"/>
			<polygon class="st8" points="579.5,344.1 584.3,335.8 593.9,335.8 593.9,335.8 589.1,344.1 			"/>
		</g>
		<g>
			<polygon class="st5" points="598.7,344.1 603.6,335.7 608.4,344.1 603.6,352.4 603.6,352.4 603.6,352.4 			"/>
			<polygon class="st5" points="598.7,344.1 589.1,344.1 593.9,335.7 603.6,335.7 598.7,344.1 			"/>
			<polygon class="st8" points="589.1,344.1 598.7,344.1 603.6,352.4 603.6,352.4 593.9,352.4 			"/>
		</g>
		<g>
			<polygon class="st5" points="598.8,360.7 608.4,360.7 603.6,369.1 594,369.1 594,369.1 594,369.1 			"/>
			<polygon class="st5" points="598.8,360.7 594,352.4 603.6,352.4 608.4,360.7 598.8,360.7 			"/>
			<polygon class="st8" points="594,352.4 598.8,360.7 594,369.1 594,369.1 589.2,360.7 			"/>
		</g>
		<g>
			<polygon class="st5" points="584.4,369.1 589.2,377.4 579.6,377.4 574.8,369.1 574.8,369.1 574.8,369.1 			"/>
			<polygon class="st5" points="584.4,369.1 589.2,360.8 594,369.1 589.2,377.4 584.4,369.1 			"/>
			<polygon class="st8" points="589.2,360.8 584.4,369.1 574.8,369.1 574.8,369.1 579.6,360.8 			"/>
		</g>
		<g>
			<polygon class="st5" points="569.9,360.8 565.1,369.2 560.3,360.8 565.1,352.5 565.1,352.5 565.1,352.5 			"/>
			<polygon class="st5" points="569.9,360.8 579.5,360.8 574.7,369.2 565.1,369.2 569.9,360.8 			"/>
			<polygon class="st8" points="579.5,360.8 569.9,360.8 565.1,352.5 565.1,352.5 574.7,352.5 			"/>
		</g>
		<g>
			<polygon class="st5" points="569.9,344.2 560.3,344.2 565.1,335.8 574.7,335.8 574.7,335.8 574.7,335.8 			"/>
			<polygon class="st5" points="569.9,344.2 574.7,352.5 565.1,352.5 560.3,344.2 569.9,344.2 			"/>
			<polygon class="st8" points="574.7,352.5 569.9,344.2 574.7,335.8 574.7,335.8 579.5,344.2 			"/>
		</g>
		<polygon class="st7" points="589.3,344.1 579.5,344.1 574.6,352.5 579.5,361 589.3,361 594.1,352.5 		"/>
	</g>
	<g>
		<g>
			<rect x="443.9" y="14.5" class="st0" width="11.8" height="157.1"/>
			<rect x="429.5" y="159.1" class="st0" width="41.4" height="16.4"/>
		</g>
		<g>
			<line class="st1" x1="447.2" y1="69" x2="408.8" y2="119.8"/>
			<line class="st1" x1="447.2" y1="84.3" x2="420.1" y2="119.8"/>
			<line class="st1" x1="447.4" y1="99.2" x2="432.8" y2="119.8"/>
		</g>
		<g>
			<line class="st1" x1="451.9" y1="67.6" x2="490.2" y2="118.4"/>
			<line class="st1" x1="451.9" y1="82.9" x2="478.9" y2="118.4"/>
			<line class="st1" x1="451.6" y1="97.8" x2="466.3" y2="118.4"/>
		</g>
	</g>
	<g>
		<polyline class="st32" points="447.5,173.5 435.4,182.5 441.4,197 		"/>
		<polyline class="st32" points="452.8,173.5 464.9,182.5 458.9,197 		"/>
	</g>
	<g>
		<polyline class="st32" points="718.9,86.1 706.8,95.1 712.9,109.6 		"/>
		<polyline class="st32" points="724.2,86.1 736.3,95.1 730.3,109.6 		"/>
	</g>
</g>
</svg>
