<?xml version="1.0" encoding="utf-8"?>
<!-- Generator: Adobe Illustrator 21.0.2, SVG Export Plug-In . SVG Version: 6.00 Build 0)  -->
<svg version="1.1" id="Layer_1" xmlns="http://www.w3.org/2000/svg" xmlns:xlink="http://www.w3.org/1999/xlink" x="0px" y="0px"
	 viewBox="0 0 379 397" style="enable-background:new 0 0 379 397;" xml:space="preserve">
<style type="text/css">
	.st0{clip-path:url(#SVGID_2_);}
	.st1{clip-path:url(#SVGID_4_);fill:url(#SVGID_5_);}
	.st2{clip-path:url(#SVGID_4_);}
	.st3{fill:#16112D;}
	.st4{fill:none;stroke:#16112D;stroke-width:0.9904;stroke-miterlimit:10;}
	.st5{fill:#1B1145;}
	.st6{fill:#100F19;}
	.st7{fill:#F04F45;}
	.st8{fill:#9ED5E6;}
	.st9{fill:#36BFBF;}
	.st10{fill:#F16465;}
	.st11{fill:#FCE18C;}
	.st12{fill:#46C1C4;}
	.st13{fill:#F16464;}
	.st14{fill:none;stroke:#16112D;stroke-width:0.9904;stroke-linecap:round;stroke-miterlimit:10;}
	.st15{clip-path:url(#SVGID_4_);fill-rule:evenodd;clip-rule:evenodd;fill:#FFFFFF;}
	.st16{fill:#FFFFFF;stroke:#1C3260;stroke-width:4.3814;stroke-miterlimit:10;}
	.st17{fill:#4DC3C6;}
	.st18{opacity:0.75;fill:#446DB5;enable-background:new    ;}
	.st19{clip-path:url(#SVGID_4_);fill:#1B1145;}
	.st20{clip-path:url(#SVGID_4_);fill:#0E1E39;}
	.st21{fill:#0E1E39;}
	.st22{fill:#6BC8C6;}
	.st23{fill:#FDE38D;}
	.st24{fill:#FAA966;}
	.st25{clip-path:url(#SVGID_4_);fill:#6BC8C6;}
	.st26{clip-path:url(#SVGID_4_);fill:none;stroke:#F16465;stroke-width:0.4809;stroke-miterlimit:10;}
	.st27{fill:#1A1A1A;}
	.st28{filter:url(#Adobe_OpacityMaskFilter);}
	.st29{clip-path:url(#SVGID_4_);fill-rule:evenodd;clip-rule:evenodd;fill:url(#SVGID_7_);}
	.st30{clip-path:url(#SVGID_4_);mask:url(#SVGID_6_);fill-rule:evenodd;clip-rule:evenodd;fill:#FFFFFF;}
	.st31{clip-path:url(#SVGID_9_);}
	.st32{clip-path:url(#SVGID_11_);fill:#F16465;}
	.st33{clip-path:url(#SVGID_13_);}
	.st34{clip-path:url(#SVGID_15_);fill:#F7A2A4;}
	.st35{clip-path:url(#SVGID_17_);}
	.st36{clip-path:url(#SVGID_19_);fill:#08172E;}
	.st37{clip-path:url(#SVGID_21_);}
	.st38{clip-path:url(#SVGID_23_);enable-background:new    ;}
	.st39{clip-path:url(#SVGID_25_);}
	.st40{clip-path:url(#SVGID_27_);}
	.st41{clip-path:url(#SVGID_29_);fill:#3C3292;}
</style>
<g>
	<defs>
		<rect id="SVGID_1_" x="0.1" y="0.6" width="378.9" height="396.3"/>
	</defs>
	<clipPath id="SVGID_2_">
		<use xlink:href="#SVGID_1_"  style="overflow:visible;"/>
	</clipPath>
	<g class="st0">
		<defs>
			<path id="SVGID_3_" d="M396.9,4.6c9.5,10,16.3,21.8,17.1,35.4c1.1,18.9-9.6,39.2-0.7,55.9c9.5,17.9,32.9,21.1,41.2,40.3
				c4.8,11.1,8.3,20.1,7.2,32.6c-1.1,11.9-5.3,23.3-11.1,33.7c-2.7,4.8-5.7,9.4-9.2,13.7c-18.3,23.1-43.2,40.6-59,65.4
				c-7.3,11.5-13,24.7-24.2,32.5c-12.2,8.4-28.4,8.2-42.7,4.6c-14.3-3.6-27.7-10.1-42-13.7c-27.9-7-58.6-2-82.8,13.5
				c-22.1,14.1-38,35.9-57.7,53.1c-19.7,17.3-46.7,30.6-71.6,22.5c-21.8-7.1-35.6-28.4-45.7-49c-27.6-56.9-40.7-120-45.5-183
				C-34,105.1-30.6,43.9,3.1-2.2c25.7-35.2,66.8-57.3,109.5-66s87.1-5,129.8,3.8c44.5,9.2,88.2,24.1,127.2,47.7
				C379.2-10.8,389-3.7,396.9,4.6z"/>
		</defs>
		<clipPath id="SVGID_4_">
			<use xlink:href="#SVGID_3_"  style="overflow:visible;"/>
		</clipPath>
		<linearGradient id="SVGID_5_" gradientUnits="userSpaceOnUse" x1="-31.1811" y1="160.6954" x2="462" y2="160.6954">
			<stop  offset="0" style="stop-color:#72CCD6"/>
			<stop  offset="2.695994e-02" style="stop-color:#70C4D3"/>
			<stop  offset="0.689" style="stop-color:#344DA1"/>
		</linearGradient>
		<path class="st1" d="M396.9,3.6c9.5,10,16.3,21.8,17.1,35.4c1.1,18.9-9.6,39.2-0.7,55.9c9.5,17.9,32.9,21.1,41.2,40.3
			c4.8,11.1,8.3,20.1,7.2,32.6c-1.1,11.9-5.3,23.3-11.1,33.7c-2.7,4.8-5.7,9.4-9.2,13.7c-18.3,23.1-43.2,40.6-59,65.4
			c-7.3,11.5-13,24.7-24.2,32.5c-12.2,8.4-28.4,8.2-42.7,4.6c-14.3-3.6-27.7-10.1-42-13.7c-27.9-7-58.6-2-82.8,13.5
			c-22.1,14.1-38,35.9-57.7,53.1c-19.7,17.3-46.7,30.6-71.6,22.5c-21.8-7.1-35.6-28.4-45.7-49c-27.6-56.9-40.7-120-45.5-183
			C-34,104.1-30.6,42.9,3.1-3.2c25.7-35.2,66.8-57.3,109.5-66s87.1-5,129.8,3.8c44.5,9.2,88.2,24.1,127.2,47.7
			C379.2-11.8,389-4.7,396.9,3.6z"/>
		<g class="st2">
			
				<rect x="117" y="17.8" transform="matrix(3.076123e-11 -1 1 3.076123e-11 -56.8309 308.9859)" class="st3" width="18.2" height="330.3"/>
			<g>
				<rect x="215.3" y="114.2" class="st3" width="5.9" height="77.8"/>
				<rect x="261.2" y="114.2" class="st3" width="5.9" height="77.8"/>
				<polygon class="st3" points="215.3,114.2 215.3,120 266.1,120 266.1,114.2 221.2,114.2 				"/>
			</g>
			<path class="st3" d="M242.3,135.4L242.3,135.4c-1.6,0-2.9-1.3-2.9-2.9V60.5c0-1.6,1.3-2.9,2.9-2.9l0,0c1.6,0,2.9,1.3,2.9,2.9
				v71.9C245.2,134.1,243.9,135.4,242.3,135.4z"/>
			<rect x="313.4" y="57.6" class="st3" width="5.9" height="41.1"/>
			
				<rect x="277.2" y="21.6" transform="matrix(6.123234e-17 -1 1 6.123234e-17 219.5996 340.6599)" class="st3" width="5.9" height="77.8"/>
			<rect x="306.1" y="91.2" class="st3" width="20.5" height="8.1"/>
			<g>
				<line class="st4" x1="240" y1="90.5" x2="221.1" y2="115.7"/>
				<line class="st4" x1="240" y1="98.1" x2="226.6" y2="115.7"/>
				<line class="st4" x1="240.2" y1="105.5" x2="232.9" y2="115.7"/>
			</g>
			<g>
				<line class="st4" x1="242.4" y1="89.8" x2="261.4" y2="115"/>
				<line class="st4" x1="242.4" y1="97.4" x2="255.8" y2="115"/>
				<line class="st4" x1="242.3" y1="104.8" x2="249.5" y2="115"/>
			</g>
			<g>
				<rect x="155.7" y="114.2" class="st3" width="5.9" height="77.8"/>
				<rect x="201.6" y="114.2" class="st3" width="5.9" height="77.8"/>
				<polygon class="st3" points="155.7,114.2 155.7,120.1 206.6,120.1 206.6,114.2 161.6,114.2 				"/>
			</g>
			<g>
				<g>
					<path class="st5" d="M192,163.9H411v63.9l-166.5-2C244.5,225.8,241.3,209.8,192,163.9z"/>
					<path class="st6" d="M192,164H411v2.2l-217-0.4C193.9,165.8,192.7,164.6,192,164z"/>
					<polygon class="st7" points="411,221 242.4,221 241.6,219.5 411,219.5 					"/>
				</g>
				<rect x="357.3" y="147.7" class="st8" width="53.7" height="16.2"/>
				<rect x="303.6" y="147.7" class="st9" width="53.7" height="16.2"/>
				<rect x="249.9" y="147.7" class="st10" width="53.7" height="16.2"/>
				<rect x="328.4" y="99.1" class="st11" width="53.7" height="21.2"/>
				<rect x="249.9" y="131.6" class="st12" width="53.7" height="16.2"/>
				<rect x="303.6" y="131.5" class="st8" width="53.7" height="16.2"/>
				<rect x="357.3" y="131.5" class="st11" width="53.7" height="16.2"/>
				<rect x="303.6" y="115.5" class="st13" width="53.7" height="16.2"/>
				<rect x="357.3" y="115.5" class="st12" width="53.7" height="16.2"/>
				<rect x="84.4" y="157.4" class="st8" width="53.7" height="16.2"/>
				<rect x="30.8" y="157.4" class="st9" width="53.7" height="16.2"/>
				<rect x="-22.9" y="157.4" class="st10" width="53.7" height="16.2"/>
				<rect x="57.5" y="110.8" class="st11" width="53.7" height="16.2"/>
				<rect x="-22.9" y="141.3" class="st12" width="53.7" height="16.2"/>
				<rect x="30.8" y="141.2" class="st8" width="53.7" height="16.2"/>
				<rect x="84.4" y="141.2" class="st11" width="53.7" height="16.2"/>
				<rect x="30.8" y="126.2" class="st13" width="53.7" height="16.2"/>
				<rect x="84.4" y="126.2" class="st12" width="53.7" height="16.2"/>
			</g>
			<g>
				<g>
					<rect x="178.8" y="63.5" class="st3" width="5.9" height="77.8"/>
					<rect x="171.7" y="135.1" class="st3" width="20.5" height="8.1"/>
				</g>
				<g>
					<line class="st4" x1="180.4" y1="90.5" x2="161.5" y2="115.7"/>
					<line class="st4" x1="180.4" y1="98.1" x2="167.1" y2="115.7"/>
					<line class="st4" x1="180.6" y1="105.5" x2="173.3" y2="115.7"/>
				</g>
				<g>
					<line class="st4" x1="182.8" y1="89.8" x2="201.8" y2="115"/>
					<line class="st4" x1="182.8" y1="97.4" x2="196.2" y2="115"/>
					<line class="st4" x1="182.7" y1="104.8" x2="189.9" y2="115"/>
				</g>
			</g>
			<g>
				<polyline class="st14" points="180.6,142.3 174.6,146.7 177.6,153.9 				"/>
				<polyline class="st14" points="183.2,142.3 189.2,146.7 186.2,153.9 				"/>
			</g>
			<g>
				<polyline class="st14" points="315,99 309,103.4 312,110.6 				"/>
				<polyline class="st14" points="317.7,99 323.6,103.4 320.7,110.6 				"/>
			</g>
		</g>
		<path class="st15" d="M420.3,218.5"/>
		<g class="st2">
			<g>
				<path class="st16" d="M170.4,264.4H64.9c-6.6,0-11.9-5.3-11.9-11.9v-52.8c0-6.6,5.3-11.9,11.9-11.9h105.5
					c6.6,0,11.9,5.3,11.9,11.9v52.8C182.3,259,177,264.4,170.4,264.4z"/>
			</g>
			<rect x="63.2" y="201.4" class="st17" width="45" height="4.7"/>
			<rect x="109.9" y="239.7" class="st18" width="45" height="4.7"/>
			<rect x="113.1" y="201.4" class="st18" width="14.4" height="4.7"/>
			<rect x="132.4" y="201.4" class="st17" width="23.7" height="4.7"/>
			<rect x="140.4" y="211.4" class="st17" width="8.9" height="4.7"/>
			<rect x="94.8" y="239.9" class="st17" width="8.9" height="4.7"/>
			<rect x="63.2" y="211.2" class="st18" width="8.9" height="4.7"/>
			<rect x="94.4" y="230.7" class="st17" width="23.2" height="4.7"/>
			<rect x="79.8" y="221" class="st17" width="23.7" height="4.7"/>
			<rect x="111.2" y="211.2" class="st17" width="23.7" height="4.7"/>
			<rect x="77.7" y="211.4" class="st18" width="28" height="4.7"/>
			<rect x="122.6" y="230.7" class="st18" width="28" height="4.7"/>
		</g>
		<polygon class="st19" points="-13.2,342.7 -33.2,289 397.4,289 374,342.7 		"/>
		<polygon class="st20" points="-11.3,257.3 369.6,257.3 397.4,289 -33.2,289 		"/>
		<g class="st2">
			<polygon class="st21" points="41.9,287.9 -8,287.9 13.3,259.7 55.8,259.6 			"/>
			<polygon class="st10" points="45.1,272.6 8.9,272.6 11.1,269.6 46.7,269.5 			"/>
			<polygon class="st22" points="39,284.4 0.3,284.4 2.6,281.3 40.6,281.3 			"/>
			<g>
				<polygon class="st23" points="36.7,263.2 15.7,263.2 13.5,266.3 34.8,266.3 				"/>
				<polygon class="st22" points="43.4,263.2 41.7,266.3 48.4,266.2 50,263.2 				"/>
			</g>
			<g>
				<polygon class="st24" points="14.3,275.4 6.9,275.4 4.6,278.5 12.2,278.5 				"/>
				<polygon class="st23" points="20.8,275.4 18.9,278.5 42.1,278.5 43.7,275.4 				"/>
			</g>
		</g>
		<g class="st2">
			<polygon class="st21" points="97,287.9 47.1,287.9 60.2,259.6 102.6,259.5 			"/>
		</g>
		<g class="st2">
			<polygon class="st21" points="282,288.3 232.1,288.3 236,259.9 278.5,259.8 			"/>
		</g>
		<g class="st2">
			<polygon class="st21" points="378.2,287.9 283.2,287.9 278.4,259.3 359.2,259.1 			"/>
		</g>
		<g class="st2">
			<g>
				<path class="st24" d="M69.3,264.8c-0.3,0.9-1.7,1.5-3,1.6c-1.3,0-2.1-0.7-1.8-1.5c0.4-0.9,1.7-1.5,3-1.6S69.7,264,69.3,264.8z"
					/>
				<path class="st24" d="M77.8,264.8c-0.3,0.9-1.6,1.6-2.9,1.6s-2.2-0.7-1.8-1.5s1.6-1.5,2.9-1.6S78.1,264,77.8,264.8z"/>
				<path class="st22" d="M86.3,264.8c-0.2,0.9-1.5,1.6-2.9,1.6s-2.2-0.7-1.9-1.5c0.3-0.9,1.6-1.6,2.9-1.6S86.5,264,86.3,264.8z"/>
				<path class="st10" d="M94.8,264.8c-0.2,0.9-1.5,1.6-2.8,1.6c-1.3,0-2.2-0.7-2-1.5c0.2-0.9,1.5-1.6,2.8-1.6S95,263.9,94.8,264.8z
					"/>
			</g>
			<g>
				<path class="st24" d="M67,270.8c-0.3,0.9-1.7,1.5-3.1,1.6s-2.2-0.7-1.8-1.5c0.4-0.9,1.8-1.5,3.1-1.6
					C66.5,269.2,67.3,269.9,67,270.8z"/>
				<path class="st23" d="M75.8,270.8c-0.3,0.9-1.6,1.5-3,1.6c-1.4,0-2.2-0.7-1.9-1.5s1.7-1.5,3-1.6
					C75.2,269.2,76.1,269.9,75.8,270.8z"/>
				<path class="st24" d="M84.6,270.8c-0.2,0.9-1.6,1.6-3,1.6s-2.3-0.7-2-1.5c0.3-0.9,1.6-1.6,3-1.6
					C83.9,269.2,84.8,269.9,84.6,270.8z"/>
				<path class="st24" d="M93.3,270.7c-0.2,0.9-1.5,1.6-2.9,1.6c-1.4,0-2.3-0.7-2.1-1.5c0.2-0.9,1.5-1.6,2.9-1.6
					C92.6,269.2,93.5,269.9,93.3,270.7z"/>
			</g>
			<g>
				<path class="st24" d="M64.7,276.7c-0.3,0.9-1.8,1.5-3.2,1.5c-1.4,0-2.3-0.7-1.9-1.5s1.8-1.5,3.2-1.5
					C64.1,275.2,65,275.9,64.7,276.7z"/>
				<path class="st22" d="M73.7,276.7c-0.3,0.9-1.7,1.5-3.1,1.6c-1.4,0-2.3-0.7-2-1.5s1.7-1.5,3.1-1.6
					C73.1,275.2,74,275.9,73.7,276.7z"/>
				<path class="st24" d="M82.8,276.7c-0.2,0.9-1.6,1.6-3,1.6c-1.4,0-2.4-0.7-2.1-1.5c0.3-0.9,1.6-1.5,3-1.6S83.1,275.8,82.8,276.7z
					"/>
				<path class="st24" d="M91.9,276.7c-0.2,0.9-1.5,1.6-3,1.6c-1.4,0-2.4-0.7-2.2-1.5c0.2-0.9,1.6-1.6,3-1.6
					C91.1,275.1,92.1,275.8,91.9,276.7z"/>
			</g>
			<g>
				<path class="st24" d="M62.3,282.7c-0.3,0.9-1.8,1.5-3.3,1.5s-2.4-0.7-2-1.5c0.4-0.9,1.8-1.5,3.3-1.5S62.7,281.8,62.3,282.7z"/>
				<path class="st24" d="M71.7,282.6c-0.3,0.9-1.7,1.5-3.2,1.5s-2.4-0.7-2.1-1.5c0.3-0.9,1.8-1.5,3.2-1.5S72,281.8,71.7,282.6z"/>
				<path class="st24" d="M81.1,282.6c-0.2,0.9-1.6,1.5-3.1,1.6c-1.5,0-2.5-0.7-2.2-1.5c0.3-0.9,1.7-1.5,3.1-1.6
					S81.3,281.8,81.1,282.6z"/>
				<path class="st24" d="M90.5,282.6c-0.2,0.9-1.6,1.6-3,1.6s-2.5-0.7-2.3-1.5c0.2-0.9,1.6-1.6,3-1.6S90.7,281.8,90.5,282.6z"/>
			</g>
		</g>
		<path class="st25" d="M257.7,273.8l-4,10c-7.8-1.1-13-5.2-12.6-10c0.6-5.6,8.1-10.2,16.6-10.3c8.6,0,16,4.6,16.5,10.2L257.7,273.8
			z"/>
		<path class="st26" d="M293.6,282.3c0.7-2.9,1.5-6.4,4.5-8.5c3.1-2.4,7.6-0.1,10.3,2.1c2,1.7,2.8,3.4,4.3,5.2
			c0.4,0.4,0.8,0.8,1.4,1.1c3,1.4,5.4-0.4,6.1-1.7c0.7-1.4,0.7-2.9,0.7-4.4c0-2-2.2-8.6,2.5-8.4c3,0.2,6.9,4.9,8,6.2
			c1.6,1.8,5.6,8.1,9.1,8.1c1.9,0,2.5-0.8,2.4-1.8c-0.5-3.8-3.4-7.8-3.5-11.6c-0.1-2.1,2.2-4,6.3-2.2c8.7,3.9,17.2,16,17.2,16"/>
		<g class="st2">
			<polygon class="st21" points="240.6,288.7 182.1,257.3 123.5,288.7 182.1,320 			"/>
			<polygon class="st27" points="138.2,288.7 182.1,265.2 226,288.7 182.1,312.2 			"/>
			<polygon class="st21" points="240.6,288.7 240.6,343.6 182.1,374.9 182.1,320 			"/>
			<polygon class="st5" points="123.5,288.7 123.5,343.6 182.1,374.9 182.1,320 			"/>
		</g>
		<defs>
			<filter id="Adobe_OpacityMaskFilter" filterUnits="userSpaceOnUse" x="87.8" y="156.1" width="188" height="156.6">
				<feColorMatrix  type="matrix" values="1 0 0 0 0  0 1 0 0 0  0 0 1 0 0  0 0 0 1 0"/>
			</filter>
		</defs>
		<mask maskUnits="userSpaceOnUse" x="87.8" y="156.1" width="188" height="156.6" id="SVGID_6_">
			<g class="st28">
				<linearGradient id="SVGID_7_" gradientUnits="userSpaceOnUse" x1="182.6128" y1="156.1933" x2="182.6128" y2="312.1903">
					<stop  offset="0.2595" style="stop-color:#010101"/>
					<stop  offset="1" style="stop-color:#FFFFFF;stop-opacity:0.2"/>
				</linearGradient>
				<rect x="69.4" y="156.2" class="st29" width="226.4" height="156"/>
			</g>
		</mask>
		<polygon class="st30" points="138.5,289.1 182.4,312.6 226.3,289.1 275.9,156.1 87.8,156.1 		"/>
		<g class="st2">
			<g>
				<polygon class="st10" points="181.5,255.9 178,249.8 185.1,249.8 188.6,255.9 188.6,255.9 188.6,255.9 				"/>
				<polygon class="st10" points="181.5,255.9 178,262 174.5,255.9 178,249.8 181.5,255.9 				"/>
				<polygon class="st24" points="178,262 181.5,255.9 188.6,255.9 188.6,255.9 185.1,262 				"/>
			</g>
			<g>
				<polygon class="st10" points="192.1,261.9 195.6,255.8 199.2,261.9 195.6,268 195.6,268 195.6,268 				"/>
				<polygon class="st10" points="192.1,261.9 185.1,261.9 188.6,255.8 195.6,255.8 192.1,261.9 				"/>
				<polygon class="st24" points="185.1,261.9 192.1,261.9 195.6,268 195.6,268 188.6,268 				"/>
			</g>
			<g>
				<polygon class="st10" points="192.2,274.1 199.2,274.1 195.7,280.2 188.6,280.2 188.6,280.2 188.6,280.2 				"/>
				<polygon class="st10" points="192.2,274.1 188.6,268 195.7,268 199.2,274.1 192.2,274.1 				"/>
				<polygon class="st24" points="188.6,268 192.2,274.1 188.6,280.2 188.6,280.2 185.1,274.1 				"/>
			</g>
			<g>
				<polygon class="st10" points="181.6,280.3 185.1,286.4 178.1,286.4 174.6,280.3 174.6,280.3 174.6,280.3 				"/>
				<polygon class="st10" points="181.6,280.3 185.1,274.2 188.7,280.3 185.1,286.4 181.6,280.3 				"/>
				<polygon class="st24" points="185.1,274.2 181.6,280.3 174.6,280.3 174.6,280.3 178.1,274.2 				"/>
			</g>
			<g>
				<polygon class="st10" points="171,274.2 167.5,280.3 164,274.2 167.5,268.1 167.5,268.1 167.5,268.1 				"/>
				<polygon class="st10" points="171,274.2 178.1,274.2 174.6,280.3 167.5,280.3 171,274.2 				"/>
				<polygon class="st24" points="178.1,274.2 171,274.2 167.5,268.1 167.5,268.1 174.6,268.1 				"/>
			</g>
			<g>
				<polygon class="st10" points="171,262 164,262 167.5,255.9 174.5,255.9 174.5,255.9 174.5,255.9 				"/>
				<polygon class="st10" points="171,262 174.5,268.1 167.5,268.1 164,262 171,262 				"/>
				<polygon class="st24" points="174.5,268.1 171,262 174.5,255.9 174.5,255.9 178,262 				"/>
			</g>
			<polygon class="st23" points="185.2,262 178,262 174.5,268.1 178,274.3 185.2,274.3 188.7,268.1 			"/>
		</g>
	</g>
</g>
<g>
	<g>
		<defs>
			<path id="SVGID_8_" d="M139,393c0,0-5,1.2-6.2,2.5c-1.2,1.2,13.6,1.2,13.6,1.2s-1.2-32.4-2.5-37.4c-1.2-5,3.7-28.7,5-29.9
				c1.2-1.2,1.2,2.5,1.2,2.5s0,22.5,2.5,31.2c2.5,8.7,5,21.2,5,22.5v6.2c0,0-5,1.2-5,2.5c0,1.2,12.4,1.2,12.4,1.2
				s-2.5-46.2-2.5-47.4c0-1.2,0-12.5,1.2-17.5c1.2-5,1.2-16.2,1.2-16.2v-2.5h-33.4c0,0,0,28.7,1.2,37.4c1.2,8.7,3.7,26.2,3.7,26.2
				L139,393z"/>
		</defs>
		<clipPath id="SVGID_9_">
			<use xlink:href="#SVGID_8_"  style="overflow:visible;"/>
		</clipPath>
		<g class="st31">
			<defs>
				<rect id="SVGID_10_" x="14.8" y="-585.9" width="718.6" height="2470.8"/>
			</defs>
			<clipPath id="SVGID_11_">
				<use xlink:href="#SVGID_10_"  style="overflow:visible;"/>
			</clipPath>
			<rect x="129.1" y="309.4" class="st32" width="38.4" height="89.8"/>
		</g>
	</g>
	<g>
		<defs>
			<path id="SVGID_12_" d="M89.3,261.5c0-0.6-1.1-1.4-1.3,0c-0.1,1.2,1.3,1.2,0,2.5c-1.2,1.2-1.2,5,0,5c1.3,0,12.5,7.5,12.5,7.5
				s12.5,8.7,15,7.5c2.5-1.2,15-9.9,17.5-9.9c2.5,0,20-7.5,20-11.2v-10.9c0-0.2,0-0.4-0.1-0.6c-0.3-0.9-1-3.9,0.1-5.9
				c1.3-2.5,1.9-10.6-3.1-11.8c-5-1.2-8.8,0-10,2.5c-1.3,2.5-1.3,6.2-1.3,8.7c0,1.5,0.5,4,0.8,5.7c0.2,1,1.1,1.7,2.2,1.7h0.2
				c1.4,0,2.6,1.3,2.2,2.7c-0.1,0.3-0.2,0.6-0.4,1c-1.3,2.5-22.5,14.9-25,16.1c-1.3,0.6-2.3,1.3-2.9,1.8c-0.6,0.4-1.3,0.6-2,0.4
				l-18.3-5.7c-0.3-0.1-0.7-0.3-0.9-0.6C93.2,266.6,89.3,262.1,89.3,261.5"/>
		</defs>
		<clipPath id="SVGID_13_">
			<use xlink:href="#SVGID_12_"  style="overflow:visible;"/>
		</clipPath>
		<g class="st33">
			<defs>
				<rect id="SVGID_14_" x="14.8" y="-585.9" width="718.6" height="2470.8"/>
			</defs>
			<clipPath id="SVGID_15_">
				<use xlink:href="#SVGID_14_"  style="overflow:visible;"/>
			</clipPath>
			<rect x="84.7" y="230.6" class="st34" width="71.9" height="55.9"/>
		</g>
	</g>
	<g>
		<defs>
			<path id="SVGID_16_" d="M118.1,270.9c-0.1,0.4,0.3,0.9,0.4,1.3c0.4,1.1,0.7,2.2,1.1,3.3c0.2,0.7,2.5,6.3,2.2,6.6
				c1.9-1.7,4.1-3.1,6.5-4.1c0.6-0.2,1.2-0.5,1.8-0.2c0.7,0.4,0.8,1.3,0.9,2.1c0.6,10.4,0.9,20.8,0.8,31.2c0,0.7,0,1.5,0.3,2.1
				c0.3,0.5,0.7,0.9,1.1,1.3c4.3,3.7,9.9,6.1,15.6,6.4c5.7,0.2,11.6-1.7,15.8-5.6c0.4-0.4,0.8-0.8,1-1.2c0.3-0.5,0.3-1.1,0.4-1.7
				c0.7-8.8-2.4-17.5-2.2-26.3c0.2-7.8,3-15.6,1.7-23.2c-0.2-1.2-0.5-2.4-1.4-3.2c-0.6-0.7-1.5-1.1-2.3-1.4c-2.8-1.2-5.8-2-8.8-2.3
				c0.4,0-0.6,1.7-0.7,1.8c-0.6,0.5-1.6,0.6-2.4,0.8c-2,0.3-4.9,0.1-6.3-1.6c-0.3-0.4-0.6-0.9-1-1.1c-0.4-0.2-0.8-0.2-1.3-0.2
				c-4.8,0.1-9.3,2.4-13,5.4c-3.3,2.6-6.2,5.8-9.1,8.8C118.9,270,118.2,270.5,118.1,270.9C118.1,270.8,118.1,270.9,118.1,270.9"/>
		</defs>
		<clipPath id="SVGID_17_">
			<use xlink:href="#SVGID_16_"  style="overflow:visible;"/>
		</clipPath>
		<g class="st35">
			<defs>
				<rect id="SVGID_18_" x="14.8" y="-585.9" width="718.6" height="2470.8"/>
			</defs>
			<clipPath id="SVGID_19_">
				<use xlink:href="#SVGID_18_"  style="overflow:visible;"/>
			</clipPath>
			<rect x="115.6" y="253" class="st36" width="52.9" height="70.4"/>
		</g>
	</g>
	<g>
		<defs>
			<rect id="SVGID_20_" x="139" y="227.6" width="19.9" height="25.2"/>
		</defs>
		<clipPath id="SVGID_21_">
			<use xlink:href="#SVGID_20_"  style="overflow:visible;"/>
		</clipPath>
		<g class="st37">
			<defs>
				<rect id="SVGID_22_" x="14.8" y="-585.9" width="718.6" height="2470.8"/>
			</defs>
			<clipPath id="SVGID_23_">
				<use xlink:href="#SVGID_22_"  style="overflow:visible;"/>
			</clipPath>
			<g class="st38">
				<g>
					<defs>
						<rect id="SVGID_24_" x="137.6" y="225.6" width="22.5" height="29.9"/>
					</defs>
					<clipPath id="SVGID_25_">
						<use xlink:href="#SVGID_24_"  style="overflow:visible;"/>
					</clipPath>
					<g class="st39">
						<defs>
							<path id="SVGID_26_" d="M140.5,246.8c0,0,2.7,0,2.7-2.8s-1.4-4.1-2.7-2.8c-1.4,1.4-1.4,0-1.4,0s2.7-4.1,1.4-5.5
								c-1.4-1.4-2.7-2.8,0-5.5c2.7-2.8,6.8-4.1,12.3,0c5.5,4.1,6.8,6.9,5.5,11.1c-1.4,4.2-5.5,9.7-5.5,9.7s-4.1,4.1-8.2,0
								L140.5,246.8z"/>
						</defs>
						<clipPath id="SVGID_27_">
							<use xlink:href="#SVGID_26_"  style="overflow:visible;"/>
						</clipPath>
						<g class="st40">
							<defs>
								<rect id="SVGID_28_" x="138.6" y="227.6" width="20.5" height="25.5"/>
							</defs>
							<clipPath id="SVGID_29_">
								<use xlink:href="#SVGID_28_"  style="overflow:visible;"/>
							</clipPath>
							<rect x="136.5" y="225.1" class="st41" width="24.9" height="30.2"/>
						</g>
					</g>
				</g>
			</g>
		</g>
	</g>
</g>
</svg>
