<?xml version="1.0" encoding="utf-8"?>
<!-- Generator: Adobe Illustrator 21.0.2, SVG Export Plug-In . SVG Version: 6.00 Build 0)  -->
<svg version="1.1" id="Layer_1" xmlns="http://www.w3.org/2000/svg" xmlns:xlink="http://www.w3.org/1999/xlink" x="0px" y="0px"
	 viewBox="0 0 378.9 396.3" style="enable-background:new 0 0 378.9 396.3;" xml:space="preserve">
<style type="text/css">
	.st0{clip-path:url(#SVGID_2_);fill:url(#SVGID_3_);}
	.st1{clip-path:url(#SVGID_2_);}
	.st2{fill:#1B0D44;}
	.st3{fill:#29ABE2;}
	.st4{fill:#4D4D4D;}
	.st5{fill:#F54C43;}
	.st6{fill:#FFAA64;}
	.st7{opacity:0.27;}
	.st8{fill:none;stroke:#F54C43;stroke-width:0.3468;stroke-linecap:round;stroke-miterlimit:10;}
	.st9{fill:#010F27;}
	.st10{fill:none;stroke:#010F27;stroke-width:1.251;stroke-miterlimit:10;}
	.st11{fill:#F2F2F2;}
	.st12{fill:#FFFFFF;stroke:#002E61;stroke-width:3.8585;stroke-miterlimit:10;}
	.st13{fill:#00132E;}
	.st14{opacity:0.29;}
	.st15{fill:none;stroke:#FFFFFF;stroke-width:0.4423;stroke-miterlimit:10;}
	.st16{opacity:0.66;}
	.st17{fill:#FFFFFF;}
	.st18{opacity:0.45;fill:#00132E;}
	.st19{opacity:0.74;fill:#FFFFFF;}
	.st20{fill:#0D1D3A;}
	.st21{clip-path:url(#SVGID_2_);fill:#20D5D2;}
	.st22{opacity:0.75;clip-path:url(#SVGID_2_);fill:#0F6FFF;enable-background:new    ;}
	.st23{clip-path:url(#SVGID_5_);}
	.st24{clip-path:url(#SVGID_7_);fill:#FF6464;}
	.st25{clip-path:url(#SVGID_9_);}
	.st26{clip-path:url(#SVGID_11_);fill:#FFA3A3;}
	.st27{clip-path:url(#SVGID_13_);}
	.st28{clip-path:url(#SVGID_15_);fill:#00132E;}
	.st29{clip-path:url(#SVGID_17_);}
	.st30{clip-path:url(#SVGID_19_);enable-background:new    ;}
	.st31{clip-path:url(#SVGID_21_);}
	.st32{clip-path:url(#SVGID_23_);}
	.st33{clip-path:url(#SVGID_25_);fill:#2900AA;}
	.st34{fill:#8C6239;}
	.st35{fill:#754C24;}
</style>
<g>
	<defs>
		<rect id="SVGID_1_" width="378.9" height="396.3"/>
	</defs>
	<clipPath id="SVGID_2_">
		<use xlink:href="#SVGID_1_"  style="overflow:visible;"/>
	</clipPath>
	
		<linearGradient id="SVGID_3_" gradientUnits="userSpaceOnUse" x1="-10.3612" y1="1219.34" x2="409.8767" y2="1219.34" gradientTransform="matrix(1 0 0 -1 0 1395.1639)">
		<stop  offset="0" style="stop-color:#FFE38D"/>
		<stop  offset="0.689" style="stop-color:#FF6464"/>
	</linearGradient>
	<path class="st0" d="M388.5,41.5c7.2,7.7,12.3,17.2,14.8,27.4c2.7,11.5-1.1,23.2,3.2,34.7c1.3,3.5,3.1,6.8,3.3,10.5
		c0.6,15.3-23.1,24.3-16.1,40.6c4,9.2,6.9,16.6,5.9,26.9c-1.1,9.8-4.2,19.3-9.2,27.8c-2.2,4-4.8,7.7-7.6,11.3
		c-15.1,19.1-35.7,33.6-48.8,54.1c-6,9.5-10.7,20.5-20,26.8c-10,6.9-23.4,6.8-35.3,3.8c-11.8-2.9-22.9-8.3-34.7-11.3
		c-23.4-5.7-48.1-1.7-68.4,11.2C157.5,317,144.3,335,128,349.3s-38.6,25.3-59.2,18.6C50.7,362,39.4,344.4,31,327.3
		C8.2,280.3-2.6,228.2-6.6,176.1c-3.6-47-11.4-118.9,16.4-157C31.1-10,75.7-7,111-14.1s72-4.1,107.3,3.2
		c36.8,7.6,122.4,3.9,154.6,23.4C380.9,17.3,382,34.6,388.5,41.5z"/>
	<g class="st1">
		<g>
			<polygon class="st2" points="302.5,293.5 327.4,293.5 327.4,210 327.4,190.1 302.5,176.2 			"/>
			
				<rect x="252.7" y="176.2" transform="matrix(-1 -4.479673e-11 4.479673e-11 -1 555.1915 469.6915)" class="st3" width="49.8" height="117.3"/>
		</g>
		<g>
			
				<rect x="256.5" y="187.3" transform="matrix(-1 -4.417989e-11 4.417989e-11 -1 516.5918 378.1243)" class="st4" width="3.6" height="3.6"/>
			<circle class="st5" cx="294.5" cy="188.8" r="1.3"/>
			<circle class="st5" cx="290.1" cy="188.8" r="1.3"/>
			<circle class="st5" cx="285.6" cy="188.8" r="1.3"/>
			<circle class="st6" cx="281.1" cy="188.8" r="1.3"/>
		</g>
		<g>
			
				<rect x="256.5" y="194.4" transform="matrix(-1 -4.669033e-11 4.669033e-11 -1 516.5918 392.4245)" class="st4" width="3.6" height="3.6"/>
			<circle class="st5" cx="294.5" cy="196" r="1.3"/>
			<circle class="st5" cx="290.1" cy="196" r="1.3"/>
			<circle class="st5" cx="285.6" cy="196" r="1.3"/>
			<circle class="st6" cx="281.1" cy="196" r="1.3"/>
		</g>
		<g class="st7">
			<line class="st8" x1="306" y1="183.9" x2="323.9" y2="194.2"/>
			<line class="st8" x1="306" y1="185.7" x2="323.9" y2="196"/>
			<line class="st8" x1="306" y1="187.5" x2="323.9" y2="197.8"/>
			<line class="st8" x1="306" y1="189.2" x2="323.9" y2="199.5"/>
			<line class="st8" x1="306" y1="191" x2="323.9" y2="201.3"/>
			<line class="st8" x1="306" y1="192.8" x2="323.9" y2="203.1"/>
			<line class="st8" x1="306" y1="194.6" x2="323.9" y2="204.9"/>
			<line class="st8" x1="306" y1="196.4" x2="323.9" y2="206.7"/>
			<line class="st8" x1="306" y1="198.1" x2="323.9" y2="208.4"/>
			<line class="st8" x1="306" y1="199.9" x2="323.9" y2="210.2"/>
			<line class="st8" x1="306" y1="201.7" x2="323.9" y2="212"/>
			<line class="st8" x1="306" y1="203.5" x2="323.9" y2="213.8"/>
			<line class="st8" x1="306" y1="205.2" x2="323.9" y2="215.5"/>
			<line class="st8" x1="306" y1="207" x2="323.9" y2="217.3"/>
			<line class="st8" x1="306" y1="208.8" x2="323.9" y2="219.1"/>
			<line class="st8" x1="306" y1="210.6" x2="323.9" y2="220.9"/>
			<line class="st8" x1="306" y1="212.3" x2="323.9" y2="222.7"/>
			<line class="st8" x1="306" y1="214.1" x2="323.9" y2="224.4"/>
			<line class="st8" x1="306" y1="215.9" x2="323.9" y2="226.2"/>
			<line class="st8" x1="306" y1="217.7" x2="323.9" y2="228"/>
			<line class="st8" x1="306" y1="219.5" x2="323.9" y2="229.8"/>
			<line class="st8" x1="306" y1="221.2" x2="323.9" y2="231.5"/>
			<line class="st8" x1="306" y1="223" x2="323.9" y2="233.3"/>
			<line class="st8" x1="306" y1="224.8" x2="323.9" y2="235.1"/>
			<line class="st8" x1="306" y1="226.6" x2="323.9" y2="236.9"/>
			<line class="st8" x1="306" y1="228.3" x2="323.9" y2="238.7"/>
			<line class="st8" x1="306" y1="230.1" x2="323.9" y2="240.4"/>
			<line class="st8" x1="306" y1="231.9" x2="323.9" y2="242.2"/>
			<line class="st8" x1="306" y1="233.7" x2="323.9" y2="244"/>
			<line class="st8" x1="306" y1="235.5" x2="323.9" y2="245.8"/>
			<line class="st8" x1="306" y1="237.2" x2="323.9" y2="247.5"/>
			<line class="st8" x1="306" y1="239" x2="323.9" y2="249.3"/>
			<line class="st8" x1="306" y1="240.8" x2="323.9" y2="251.1"/>
			<line class="st8" x1="306" y1="242.6" x2="323.9" y2="252.9"/>
			<line class="st8" x1="306" y1="244.3" x2="323.9" y2="254.7"/>
			<line class="st8" x1="306" y1="246.1" x2="323.9" y2="256.4"/>
			<line class="st8" x1="306" y1="247.9" x2="323.9" y2="258.2"/>
			<line class="st8" x1="306" y1="249.7" x2="323.9" y2="260"/>
			<line class="st8" x1="306" y1="251.5" x2="323.9" y2="261.8"/>
			<line class="st8" x1="306" y1="253.2" x2="323.9" y2="263.5"/>
			<line class="st8" x1="306" y1="255" x2="323.9" y2="265.3"/>
			<line class="st8" x1="306" y1="256.8" x2="323.9" y2="267.1"/>
			<line class="st8" x1="306" y1="258.6" x2="323.9" y2="268.9"/>
			<line class="st8" x1="306" y1="260.3" x2="323.9" y2="270.6"/>
			<line class="st8" x1="306" y1="262.1" x2="323.9" y2="272.4"/>
			<line class="st8" x1="306" y1="263.9" x2="323.9" y2="274.2"/>
			<line class="st8" x1="306" y1="265.7" x2="323.9" y2="276"/>
			<line class="st8" x1="306" y1="267.5" x2="323.9" y2="277.8"/>
			<line class="st8" x1="306" y1="269.2" x2="323.9" y2="279.5"/>
			<line class="st8" x1="306" y1="271" x2="323.9" y2="281.3"/>
			<line class="st8" x1="306" y1="272.8" x2="323.9" y2="283.1"/>
			<line class="st8" x1="306" y1="274.6" x2="323.9" y2="284.9"/>
			<line class="st8" x1="306" y1="276.3" x2="323.9" y2="286.6"/>
			<line class="st8" x1="306" y1="278.1" x2="323.9" y2="288.4"/>
			<line class="st8" x1="306" y1="279.9" x2="323.9" y2="290.2"/>
			<line class="st8" x1="306" y1="281.7" x2="323.9" y2="292"/>
		</g>
	</g>
	<g class="st1">
		<path class="st9" d="M87.8,263.9c0.2,0.1,0.5,0,0.5-0.3c0.4-2.5,2.2-15.2-1.1-14.8c-3.6,0.5-6.6,7.7-3.9,11.1
			C85.3,262.5,87,263.5,87.8,263.9z"/>
		<path class="st9" d="M78.3,281c-0.1-0.2,0.1-0.4,0.4-0.4c2.6,0.2,15.4,1.1,14.2,4.2c-1.3,3.4-9,4.8-11.7,1.4
			C79.1,283.7,78.5,281.8,78.3,281z"/>
		<path class="st9" d="M90.8,265.2c0,0,12.1-0.9,9.5,2.8c-2.6,3.7-10.7,4.6-13,0.8C85,265,86.8,265.2,90.8,265.2z"/>
		<path class="st9" d="M79.5,288.2c0,0,10.5,4.3,7.1,6.6c-3.4,2.3-10.6-0.4-11.2-4.8C74.7,285.6,76.2,286.5,79.5,288.2z"/>
		<path class="st9" d="M67.9,305.6c0,0,10.5,4.3,7.1,6.6c-3.4,2.3-10.6-0.4-11.2-4.8C63.1,303,64.5,303.9,67.9,305.6z"/>
		<path class="st9" d="M78.1,272.6c0,0-3.3-11.7-5.9-8s-0.7,11.7,3.7,12.5C80.2,278,79.4,276.4,78.1,272.6z"/>
		<path class="st9" d="M63.9,292.8c0,0,6.7,8.5,2.5,7.5s-8.9-6.6-7-9.2S61.9,289.9,63.9,292.8z"/>
		<path class="st9" d="M98.3,257.3c1.7-1,3.3-2.2,4.3-3.8c0.4-0.7,0.9-1.4,1.1-2.2c0.3-0.8,0.4-1.6,0.5-2.4c0.1-0.8,0-1.6-0.2-2.4
			c-0.1-0.4-0.2-0.9-0.6-1.1c-0.4-0.3-1-0.2-1.4,0c-0.9,0.3-1.6,0.9-2.4,1.4c-2,1.6-3.8,3.5-5.5,5.5c-1.5,1.8-2.9,3.7-3.7,5.8
			c-0.3,0.6-0.4,1.5,0.1,2c0.3,0.3,0.7,0.3,1.1,0.3s0.8-0.3,1.1-0.4c1.8-0.9,3.7-1.6,5.4-2.6C98.3,257.3,98.3,257.3,98.3,257.3z"/>
		<path class="st9" d="M83.5,269.3c0,0-3.3-18.4-6.1-13.5c-1.4,2.5-1.1,5.5-0.2,8.1c0.5,1.5,1.3,2.8,2.3,4c0.5,0.6,1.1,1.1,1.6,1.6
			c0.4,0.4,1.3,1.3,2,1.2C83.7,270.7,83.6,269.8,83.5,269.3z"/>
		<path class="st9" d="M60.8,307.3c0,0-6.1-14.6-7.5-10c-0.7,2.3,0.1,4.8,1.3,6.8c0.7,1.1,1.6,2.1,2.6,2.8c0.5,0.4,1.1,0.7,1.7,1
			c0.4,0.2,1.4,0.9,1.8,0.7C61.3,308.4,61,307.7,60.8,307.3z"/>
		<path class="st9" d="M71.8,293.7c0,0-4.9-13.4-6.3-9.3c-0.7,2-0.1,4.3,0.9,6.2c0.6,1,1.3,1.9,2.3,2.7c0.5,0.4,0.9,0.7,1.4,1
			c0.4,0.2,1.2,0.8,1.6,0.7C72.2,294.7,71.9,294.1,71.8,293.7z"/>
		<path class="st9" d="M76.2,284.4c0,0-7.8-17-9.2-11.5c-0.7,2.8,0.3,5.6,1.8,7.9c0.8,1.3,2,2.4,3.2,3.3c0.6,0.4,1.3,0.8,2,1.1
			c0.5,0.2,1.6,1,2.2,0.7C76.7,285.6,76.3,284.8,76.2,284.4z"/>
		<path class="st9" d="M83.2,271.5c0,0,18.1,4.6,13,7c-2.6,1.2-5.6,0.7-8.1-0.4c-1.4-0.6-2.7-1.5-3.8-2.6c-0.5-0.5-1-1.1-1.5-1.8
			c-0.3-0.5-1.2-1.4-1.1-2C81.9,271.1,82.8,271.4,83.2,271.5z"/>
		<path class="st9" d="M71.8,296.1c0,0,14.1,6.4,9.6,7.6c-2.3,0.6-4.7-0.2-6.6-1.5c-1.1-0.7-2-1.6-2.7-2.7c-0.4-0.5-0.7-1.1-0.9-1.6
			c-0.2-0.4-0.8-1.3-0.6-1.8C70.8,295.6,71.5,295.9,71.8,296.1z"/>
		<path class="st10" d="M92.4,258.3c0,0-11.7,13.4-13.7,19.9c-2.3,7.3-5.3,14.4-10.2,20.2c-6.1,7.3-13.6,15-12.4,20.5"/>
	</g>
	<g class="st1">
		<path class="st9" d="M326.6,289c0.4,1.1-0.9,2.6-1.8,3.8c-3.9,4.9-8.2,9.7-13.3,13.4c-5.1,3.7-11.2,6.3-17.5,6.7
			c-9.9,0.5-19.2-4.4-29.1-5.6c1.7-3.9,3.7-7.7,6-11.3c2.3-3.6,5.1-7.2,8.8-9.4c5.7-3.4,12.8-3.1,19.4-2.6c8.8,0.7,17.6,1.6,26.1,4
			C326,288.2,326.4,288.6,326.6,289z"/>
		<path class="st11" d="M256.4,307l6.9-2.5l7-2.4c4.7-1.6,9.3-3.1,14-4.6c4.7-1.5,9.4-2.9,14.2-4.1c2.4-0.6,4.8-1,7.2-1.4l7.3-1.1
			l-7.3,1.3c-2.4,0.4-4.8,0.8-7.2,1.5c-4.8,1.2-9.4,2.7-14.1,4.2c-4.7,1.5-9.4,3-14,4.6L256.4,307z"/>
		<path class="st11" d="M294.5,287.9c-0.4,0.4-0.8,0.9-1.1,1.3l-1.1,1.3c-0.4,0.4-0.8,0.9-1.1,1.3c-0.4,0.4-0.7,0.9-1.1,1.4
			c0.2-0.5,0.5-1,0.9-1.5c0.3-0.5,0.7-0.9,1.1-1.4c0.4-0.4,0.8-0.9,1.2-1.2C293.6,288.6,294.1,288.2,294.5,287.9z"/>
		<path class="st11" d="M303,300.6c-0.9,0-1.8-0.1-2.7-0.2c-0.9-0.1-1.8-0.3-2.7-0.4c-0.9-0.2-1.8-0.4-2.6-0.7
			c-0.9-0.3-1.7-0.6-2.5-1.1c0.2,0.1,0.4,0.2,0.6,0.3l0.6,0.2c0.4,0.1,0.9,0.3,1.3,0.4c0.9,0.2,1.7,0.4,2.6,0.6
			c0.9,0.2,1.8,0.3,2.6,0.5L303,300.6z"/>
		<path class="st11" d="M295.5,307c-1.2-0.3-2.3-0.7-3.5-1.2c-1.2-0.4-2.3-0.9-3.4-1.3c-1.1-0.5-2.3-1-3.4-1.5
			c-1.1-0.5-2.2-1.1-3.2-1.7c1.1,0.5,2.2,1,3.3,1.5c1.1,0.5,2.2,1,3.4,1.4c1.1,0.5,2.3,0.9,3.4,1.4
			C293.2,306.1,294.3,306.5,295.5,307z"/>
		<path class="st11" d="M284.1,286.2l-1.7,2.1c-0.6,0.7-1.1,1.4-1.7,2.1c-0.5,0.7-1.1,1.5-1.5,2.2l-0.3,0.6l-0.3,0.6
			c-0.1,0.2-0.2,0.4-0.3,0.6c-0.1,0.2-0.1,0.4-0.2,0.6c0.1-0.9,0.5-1.8,0.9-2.6c0.4-0.8,0.9-1.6,1.5-2.3c0.5-0.7,1.1-1.4,1.7-2.1
			C282.8,287.5,283.4,286.8,284.1,286.2z"/>
		<path class="st11" d="M283.7,310c-1.1-0.2-2.2-0.5-3.2-0.8c-1.1-0.3-2.1-0.7-3.2-1.1c-1-0.4-2.1-0.8-3.1-1.4
			c-0.5-0.3-1-0.5-1.4-0.9c-0.4-0.3-0.9-0.7-1.2-1.2c0.3,0.4,0.8,0.8,1.3,1c0.5,0.3,1,0.5,1.5,0.8c1,0.5,2,0.9,3.1,1.3
			c1,0.4,2.1,0.8,3.1,1.1L283.7,310z"/>
		<path class="st11" d="M273.6,290.7c-0.4,0.7-0.9,1.4-1.3,2.2c-0.4,0.7-0.8,1.5-1.2,2.2c-0.4,0.7-0.7,1.5-1,2.3
			c-0.1,0.2-0.1,0.4-0.2,0.6c-0.1,0.2-0.1,0.4-0.2,0.6c0,0.2-0.1,0.4-0.1,0.6c0,0.2-0.1,0.4-0.1,0.6c-0.1-0.8,0.1-1.7,0.3-2.5
			c0.2-0.8,0.6-1.6,1-2.4c0.4-0.8,0.8-1.5,1.3-2.2C272.5,292,273,291.3,273.6,290.7z"/>
	</g>
	<g class="st1">
		<path class="st9" d="M250.4,259.6c-6,1.4-2.3,9.8-3.6,12.8c-1.3,2.9-6.6-5.7-8-2c-1.4,3.7,5.1,11.8,4.8,12.5c-1.2,2.2-8-2-7.8,2
			s12.9,8.2,9.3,10s-6.2-3.3-7.4-0.3c-1.3,2.9,3.3,11.5,9.7,13.2c6.4,1.7,16.7-0.6,19.1-5c2.3-4.4,4.9-10.2,1.4-9.2
			c-3.5,1-7.7,1.2-6.5-1c1-1.9,10-11,5-11s-5.6,3.9-7,2.1c-1.4-1.8,6.5-10,5.1-11.8c-1.4-1.8-3.4,0.3-7.7,1.2
			C252.4,274,256.4,258.2,250.4,259.6z"/>
		<g>
			<path class="st11" d="M254.1,306c-0.8-5-1.5-10-2.1-15c-0.4-3.9-0.8-7.8-1-11.8c-0.1-1.7-0.1-3.4,0-5c0.1-2.1,0.4-4.1,0.5-6.2
				c0-1.4,0.1-3-0.4-4.3c-0.1-0.2-0.2-0.7-0.5-0.8c-0.1-0.1-0.4,0.4-0.6,0.3c0.9,0.4,0.9,2.9,0.9,3.6c0.1,3.8-0.6,7.5-0.5,11.3
				c0.2,7.5,1.2,15.1,2.3,22.5c0.3,1.9,0.6,3.8,0.9,5.7C253.5,306.3,254.1,306.1,254.1,306L254.1,306z"/>
		</g>
	</g>
	<g class="st1">
		<path class="st12" d="M203.8,219.4h-92.7c-5.8,0-10.5-4.7-10.5-10.5v-46.7c0-5.8,4.7-10.5,10.5-10.5h92.7
			c5.8,0,10.5,4.7,10.5,10.5v46.7C214.3,214.7,209.6,219.4,203.8,219.4z"/>
	</g>
	<g class="st1">
		<g>
			<polygon class="st13" points="378.8,225.8 378.8,-37.3 332.1,-37.3 333.5,274.2 			"/>
			<g class="st14">
				<path class="st15" d="M344.8,274.8c1.5-14.7,1.8-27,1.8-36.3c0-2.7-0.1-13-1.2-26.5c-0.9-11.8-1.8-16.7-2.9-30.7
					c-0.6-8.1-1-14.8-1.2-19.2"/>
				<path class="st15" d="M375.5-25c-0.5,7.8-1,18.5-0.9,31.3c0,3.4,0.1,7.4,0.6,22.4c0.3,8.4,0.7,19.3,1.2,32.1"/>
				<path class="st15" d="M370.5,105.6c-0.7-6.4-1.6-16-2.1-27.7c-0.3-8.5-0.2-13.6-0.3-28.3c0-7-0.1-16.9-0.3-28.9"/>
				<path class="st15" d="M365.8-3.8c0.3-3.6,0.4-7.5,0.3-11.8c-0.2-5.4-0.7-10.2-1.5-14.4"/>
				<path class="st15" d="M345.4-4.1c0.1,3.8,0.3,9.9,0.9,17.4c1.3,16.7,3,19.3,2.9,29.8c0,2.4-0.5,4.7-1.2,13.2
					c-0.5,5.7-0.7,8.5-0.8,10.4c-0.6,11.4,1.1,24.1,2.7,24.2c1.3,0,2.7-8.8,2.9-15c0.3-5.7-0.3-10.5-0.9-13.9"/>
				<path class="st15" d="M359.9,90c-2.3,8.6-2.1,15.2-1.5,19.8c0.5,3.6,1.4,6.9,1.8,12.7c0.3,4.7,0,8.6-0.3,11.2"/>
				<path class="st15" d="M369,281.3c-1.3-11.5-2.3-23.4-2.9-35.7c-0.1-2.3-0.2-4.5-0.3-6.8"/>
				<path class="st15" d="M365.8,228.5c-0.8-4.7-1.1-8.7-1.2-12.1c-0.2-7.1,0.7-10.6,0.9-18.9c0.1-4.7-0.1-8.8-0.3-12.1"/>
				<path class="st15" d="M337.2,130.6c0.5-5.5,1-14.1,0.3-24.8c-0.7-10.8-2-15.4-2.7-25.1c-0.4-6.7-0.6-16.7,1.2-29.2"/>
			</g>
		</g>
		<g>
			<g>
				<g class="st16">
					<path class="st17" d="M41.5,96.8c0.3,0,0.6,0,0.8,0c20.6,0.9,41.9,5.3,62.3,2c4.5-0.7,7-1.9,11.2-1.7c4.3,0.2,6.9,2,11.2,2.9
						c6.4,1.4,13.2,1,19.7-0.7c0.5-0.1,1.1-0.3,1.3-0.8c0.4-0.7-0.2-1.5-0.7-2.1c-2.7-2.6-6.6-4.7-10-5.7
						c-12.5-3.7-25.1-0.6-37.3-5.2c10.3-4,21.9-1.9,32.3,0c2.3,0.4,4.5,0.9,6.5,0.6c2-0.3,4.3-1.3,4.4-3.3
						c0.5-8.4-30.5-10.8-36.4-11c-11.4-0.2-20.9,0.6-31.8-0.8c3.4-2.5,6.4-5.1,8.5-8.7c0.6-1,1.2-1.9,0.8-3
						c-0.9-2.4-2.6-2.6-5.5-2.6c-9.2-0.1-18.1-0.3-27.9,1.1c-9.8,1.4-20.7,5-30.8,6.4c-4.6,1.4-10,2.8-12.7,6.9
						c-1.8,2.8-2.1,5.4-1.2,8.6c1.9,7.1,6.6,11.7,13.6,14.3C26.6,96.5,34.3,96.5,41.5,96.8z"/>
				</g>
				<g>
					<polygon class="st18" points="267.1,165.2 267.1,-153.2 254.8,-153.2 255,176.2 267.1,176.2 					"/>
					<polygon class="st18" points="329.9,279 329.9,-17.5 303.9,-17.5 304.2,289.3 329.9,289.3 					"/>
					<polygon class="st18" points="73.8,354 73.8,-44.1 64.7,-44.1 64.8,367.9 73.8,367.9 					"/>
					<polygon class="st18" points="394.9,267 394.9,-51.3 384.4,-51.3 384.5,278 394.9,278 					"/>
				</g>
				<path class="st19" d="M157.2,46.1c-22.2-2.5-45.2,1.9-67.4-1.6c1.3-1.9,5.6-2,9-2.3s7.5-2.1,5.8-3.9c-1.1-1.1-3.7-1.2-5.8-1.2
					c-6.7,0.1-13.4,0.2-20.1,0.4c-2,0-4.1,0.1-5.9-0.6s-2.8-2.1-1.5-3.1c0.4-0.3,0.9-0.5,1.4-0.7c6.3-2.5,12.7-5.1,19-7.6
					c3.9-1.6,7.9-3.2,12.6-3.6c5.4-0.5,10.9,0.6,15.7,2.2c3.6,1.2,8,2.7,11.5,1.4c1.5-0.5,2.4-1.5,3.4-2.4
					c13.6-11.6,44-7.5,61.7-2.2c2.4,0.7,4.9,1.7,5.2,3.3c0.5,2.4-4.4,3.8-8.2,4.5c-3.8,0.8-8.3,3-6.4,5.1c1.5,1.7,5.7,1.5,8.8,1.1
					c11.3-1.4,23-1.7,34.5-0.9c1.3,0.1,2.7,0.2,3.5,0.9c0.9,0.7,0.4,1.8-0.2,2.6c-4.7,6.7-15.3,11.3-26.6,13.6
					c-11.3,2.3-23.4,2.7-35.4,3c-16.1,0.4-32.1,0.9-48.2,1.3c2.6,0,11.8-5.4,15-6.3C144.6,47.6,150.9,46.6,157.2,46.1z"/>
				<path class="st19" d="M297.6,109.2c-22.2-2.5-45.2,1.9-67.4-1.6c1.3-1.9,5.6-2,9-2.3c3.4-0.3,7.5-2.1,5.8-3.9
					c-1.1-1.1-3.7-1.2-5.8-1.2c-6.7,0.1-13.4,0.2-20.1,0.4c-2,0-4.1,0.1-5.9-0.6c-1.7-0.6-2.8-2.1-1.5-3.1c0.4-0.3,0.9-0.5,1.4-0.7
					c6.3-2.5,12.7-5.1,19-7.6c3.9-1.6,7.9-3.2,12.6-3.6c5.4-0.5,10.9,0.6,15.7,2.2c3.6,1.2,8,2.7,11.5,1.4c1.5-0.5,2.4-1.5,3.4-2.4
					c13.6-11.6,44-7.5,61.7-2.2c2.4,0.7,4.9,1.7,5.2,3.3c0.5,2.4-4.4,3.8-8.2,4.5c-3.8,0.8-8.3,3-6.4,5.1c1.5,1.7,5.7,1.5,8.8,1.1
					c11.3-1.4,23-1.7,34.5-0.9c1.3,0.1,2.7,0.2,3.5,0.9c0.9,0.7,0.4,1.8-0.2,2.6c-4.7,6.7-15.3,11.3-26.6,13.6
					c-11.3,2.3-23.4,2.7-35.4,3c-16.1,0.4-32.1,0.9-48.2,1.3c2.6,0,11.8-5.4,15-6.3C285,110.7,291.3,109.6,297.6,109.2z"/>
				<g>
					<g>
						<path class="st9" d="M101.1,36.5c-0.2,1.1-2,1.8-3.4,2.4c-5.9,2.4-11.9,4.3-18.2,5S66.7,43.8,61,41
							c-8.9-4.4-14.5-13.4-22.5-19.3c3.4-2.6,7-4.9,10.8-6.8c3.8-2,7.9-3.7,12.3-3.8c6.6-0.1,12.6,3.6,18.1,7.3
							c7.3,4.9,14.5,10.1,20.7,16.4C101,35.5,101.2,36,101.1,36.5z"/>
						<path class="st11" d="M39.8,21.9l7.3,1.3l7.3,1.3c4.8,0.9,9.7,1.9,14.5,2.9c4.8,1.1,9.6,2.1,14.4,3.4c2.4,0.6,4.7,1.5,7,2.4
							l6.9,2.6l-7-2.5c-2.3-0.8-4.6-1.7-7-2.3c-4.7-1.3-9.5-2.3-14.4-3.4c-4.8-1-9.6-2-14.4-3L39.8,21.9z"/>
						<path class="st11" d="M82.5,24.2c-0.5,0.2-1.1,0.4-1.6,0.6l-1.6,0.6c-0.5,0.2-1.1,0.4-1.6,0.6c-0.5,0.2-1.1,0.4-1.6,0.6
							c0.5-0.4,1-0.6,1.5-0.9c0.5-0.3,1.1-0.5,1.6-0.7c0.6-0.2,1.1-0.4,1.7-0.5C81.3,24.4,81.9,24.2,82.5,24.2z"/>
						<path class="st11" d="M83.5,39.4c-0.8-0.5-1.5-1-2.2-1.5c-0.7-0.5-1.4-1.1-2.1-1.7c-0.7-0.6-1.3-1.2-1.9-1.9
							c-0.6-0.7-1.2-1.4-1.6-2.2c0.1,0.2,0.3,0.3,0.4,0.5l0.4,0.5c0.3,0.3,0.6,0.7,0.9,1c0.6,0.6,1.3,1.2,2,1.8
							c0.7,0.6,1.4,1.2,2,1.7L83.5,39.4z"/>
						<path class="st11" d="M73.8,41.3c-0.9-0.9-1.7-1.8-2.5-2.7c-0.8-0.9-1.6-1.9-2.3-2.8c-0.7-1-1.5-2-2.2-3c-0.7-1-1.4-2-1.9-3.1
							c0.7,1,1.4,2,2.2,3c0.7,1,1.5,1.9,2.2,2.9c0.7,1,1.5,1.9,2.3,2.9C72.3,39.3,73.1,40.3,73.8,41.3z"/>
						<path class="st11" d="M74.2,17.6l-2.5,1c-0.8,0.3-1.7,0.7-2.5,1c-0.8,0.4-1.6,0.7-2.4,1.2l-0.6,0.3l-0.6,0.4
							c-0.2,0.1-0.4,0.3-0.5,0.4c-0.2,0.1-0.3,0.3-0.5,0.5c0.5-0.8,1.3-1.3,2.1-1.8c0.8-0.5,1.6-0.9,2.4-1.2c0.8-0.4,1.7-0.7,2.5-1
							C72.4,18,73.3,17.8,74.2,17.6z"/>
						<path class="st11" d="M62.2,38c-0.8-0.7-1.6-1.5-2.4-2.3c-0.8-0.8-1.5-1.6-2.2-2.5c-0.7-0.9-1.4-1.8-2-2.7
							c-0.3-0.5-0.6-1-0.8-1.5c-0.2-0.5-0.4-1.1-0.4-1.6c0.1,0.6,0.3,1.1,0.6,1.5c0.3,0.5,0.6,0.9,0.9,1.4c0.6,0.9,1.3,1.8,2,2.6
							c0.7,0.9,1.4,1.7,2.1,2.5L62.2,38z"/>
						<path class="st11" d="M62.9,16.2c-0.7,0.4-1.5,0.8-2.2,1.2c-0.7,0.4-1.4,0.9-2.1,1.3c-0.7,0.5-1.4,0.9-2,1.5
							c-0.2,0.1-0.3,0.3-0.5,0.4c-0.1,0.1-0.3,0.3-0.4,0.4c-0.1,0.2-0.3,0.3-0.4,0.5c-0.1,0.2-0.3,0.3-0.4,0.5
							c0.4-0.8,0.9-1.4,1.5-2c0.6-0.6,1.3-1.1,2-1.6c0.7-0.5,1.4-0.9,2.2-1.3C61.3,16.8,62.1,16.5,62.9,16.2z"/>
					</g>
					<g>
						<path class="st9" d="M97.7,23.3c-0.2,0.8-1.6,1.1-2.6,1.4c-4.4,1.2-8.9,2.1-13.4,2.1c-4.5,0-9.1-1.1-12.9-3.6
							c-6-3.9-9.2-10.8-14.4-15.6c2.6-1.5,5.4-2.9,8.3-4c2.9-1.1,6-2,9.1-1.7c4.7,0.5,8.7,3.6,12.3,6.7c4.8,4.1,9.5,8.4,13.4,13.4
							C97.7,22.6,97.8,23,97.7,23.3z"/>
						<path class="st11" d="M55.1,7.8l5.1,1.5l5.1,1.6c3.4,1.1,6.7,2.1,10.1,3.3c3.3,1.2,6.7,2.3,10,3.7c1.6,0.6,3.2,1.5,4.8,2.3
							l4.7,2.4L90,20.2c-1.6-0.8-3.2-1.6-4.8-2.2c-3.3-1.3-6.6-2.5-10-3.6c-3.3-1.1-6.7-2.3-10.1-3.3L55.1,7.8z"/>
						<path class="st11" d="M85.4,12.9c-0.4,0.1-0.8,0.2-1.2,0.3l-1.2,0.3c-0.8,0.2-1.6,0.4-2.4,0.6c0.4-0.2,0.7-0.4,1.1-0.5
							c0.4-0.1,0.8-0.2,1.2-0.3c0.4-0.1,0.8-0.2,1.2-0.2C84.5,13,84.9,12.9,85.4,12.9z"/>
						<path class="st11" d="M84.9,23.9c-0.5-0.4-1-0.8-1.5-1.3c-0.5-0.4-0.9-0.9-1.4-1.4c-0.4-0.5-0.8-1-1.2-1.5
							c-0.4-0.5-0.7-1.1-1-1.7c0.3,0.6,0.7,1.1,1.1,1.6c0.4,0.5,0.8,1,1.3,1.5c0.4,0.5,0.9,0.9,1.3,1.4L84.9,23.9z"/>
						<path class="st11" d="M77.8,24.4c-0.5-0.7-1-1.4-1.5-2.2c-0.5-0.7-1-1.5-1.4-2.2c-0.4-0.8-0.9-1.5-1.3-2.3
							c-0.4-0.8-0.8-1.6-1.1-2.4c0.9,1.5,1.7,3.1,2.7,4.6c0.4,0.8,0.9,1.5,1.4,2.3L77.8,24.4z"/>
						<path class="st11" d="M80,7.5c-1.3,0.3-2.5,0.6-3.7,1C75.6,8.7,75,9,74.4,9.2c-0.6,0.2-1.2,0.5-1.7,0.9c0.4-0.5,1-0.8,1.6-1.1
							c0.6-0.3,1.2-0.5,1.8-0.7c0.6-0.2,1.3-0.3,1.9-0.5C78.7,7.7,79.4,7.6,80,7.5z"/>
						<path class="st11" d="M69.7,21.1c-0.5-0.6-1-1.2-1.5-1.9c-0.5-0.6-0.9-1.3-1.4-2c-0.4-0.7-0.8-1.4-1.2-2.1
							c-0.3-0.7-0.7-1.5-0.6-2.3c0,0.4,0.1,0.8,0.3,1.1c0.1,0.4,0.3,0.7,0.5,1.1c0.4,0.7,0.8,1.4,1.2,2c0.4,0.7,0.9,1.3,1.3,2
							L69.7,21.1z"/>
						<path class="st11" d="M72,5.6c-0.6,0.2-1.1,0.5-1.7,0.7c-0.6,0.2-1.1,0.5-1.6,0.8c-0.5,0.3-1.1,0.6-1.6,0.9
							c-0.5,0.3-1,0.7-1.4,1.2c0.3-0.5,0.8-0.9,1.3-1.3c0.5-0.4,1-0.7,1.6-1c0.5-0.3,1.1-0.5,1.7-0.7C70.9,5.9,71.5,5.8,72,5.6z"/>
					</g>
					<g>
						<path class="st9" d="M174.2,16.9c-0.7-0.4-0.7-1.8-0.8-2.9c-0.2-4.5-0.1-9.1,1-13.5c1-4.4,3.1-8.7,6.4-11.8
							c5.1-4.9,12.5-6.6,18.4-10.6c0.9,2.9,1.6,5.9,2.1,9c0.4,3.1,0.6,6.3-0.4,9.2c-1.5,4.5-5.5,7.7-9.3,10.5
							c-5.1,3.8-10.3,7.4-16.1,10.1C174.9,17.1,174.5,17.1,174.2,16.9z"/>
						<path class="st11" d="M198.8-21.1l-2.6,4.6l-2.7,4.6c-1.8,3.1-3.6,6.1-5.4,9.1c-1.9,3-3.7,6-5.8,8.9c-1,1.5-2.1,2.8-3.3,4.2
							l-3.4,4l3.3-4.1c1.1-1.4,2.2-2.7,3.2-4.2c2-2.9,3.9-5.9,5.7-8.9c1.9-3,3.7-6,5.5-9.1L198.8-21.1z"/>
						<path class="st11" d="M187,7.2c0-0.4,0-0.8,0-1.2l0-1.2c0-0.8,0-1.6-0.1-2.5c0.1,0.4,0.2,0.8,0.3,1.2c0.1,0.4,0.1,0.8,0.1,1.3
							c0,0.4,0,0.8-0.1,1.2C187.2,6.4,187.1,6.8,187,7.2z"/>
						<path class="st11" d="M176.5,4.3c0.5-0.4,1-0.8,1.6-1.1c0.5-0.4,1.1-0.7,1.6-1c0.6-0.3,1.1-0.6,1.7-0.9
							c0.6-0.2,1.2-0.5,1.9-0.6c-0.6,0.2-1.2,0.5-1.8,0.7c-0.6,0.3-1.1,0.6-1.7,0.9c-0.6,0.3-1.1,0.6-1.7,1L176.5,4.3z"/>
						<path class="st11" d="M177.5-2.7c0.8-0.4,1.6-0.7,2.4-1c0.8-0.3,1.7-0.6,2.5-0.9c0.8-0.3,1.7-0.5,2.5-0.8
							c0.9-0.2,1.7-0.4,2.6-0.6c-1.7,0.5-3.4,1-5,1.6c-0.8,0.3-1.7,0.6-2.5,0.8L177.5-2.7z"/>
						<path class="st11" d="M193.5,3.2c-0.1-1.3-0.1-2.6-0.2-3.9c0-0.6-0.1-1.3-0.2-1.9c-0.1-0.6-0.2-1.3-0.5-1.9
							c0.4,0.5,0.6,1.2,0.7,1.8c0.1,0.6,0.2,1.3,0.3,1.9c0,0.7,0.1,1.3,0,2C193.6,1.9,193.6,2.5,193.5,3.2z"/>
						<path class="st11" d="M182.5-9.8c0.7-0.4,1.4-0.7,2.2-1.1c0.7-0.3,1.5-0.6,2.2-0.9c0.8-0.3,1.5-0.5,2.3-0.7
							c0.8-0.2,1.6-0.3,2.4-0.1c-0.4-0.1-0.8,0-1.2,0c-0.4,0.1-0.8,0.2-1.2,0.3c-0.8,0.2-1.5,0.5-2.3,0.7c-0.8,0.3-1.5,0.6-2.2,0.8
							L182.5-9.8z"/>
						<path class="st11" d="M197.1-4.2c-0.1-0.6-0.2-1.2-0.3-1.8c-0.1-0.6-0.2-1.2-0.4-1.8c-0.1-0.6-0.3-1.2-0.5-1.7
							c-0.2-0.6-0.5-1.1-0.8-1.6c0.4,0.4,0.7,1,1,1.5c0.3,0.6,0.4,1.1,0.6,1.7c0.1,0.6,0.3,1.2,0.3,1.8
							C197.1-5.4,197.1-4.8,197.1-4.2z"/>
					</g>
					<g>
						<path class="st9" d="M302.5,42.4c-0.7-0.4-0.7-1.8-0.8-2.9c-0.2-4.5-0.1-9.1,1-13.5s3.1-8.7,6.4-11.8
							c5.1-4.9,12.5-6.6,18.4-10.6c0.9,2.9,1.6,5.9,2.1,9c0.4,3.1,0.6,6.3-0.4,9.2c-1.5,4.5-5.5,7.7-9.3,10.5
							c-5.1,3.8-10.3,7.4-16.1,10.1C303.2,42.6,302.8,42.6,302.5,42.4z"/>
						<path class="st11" d="M327,4.3L324.4,9l-2.7,4.6c-1.8,3.1-3.6,6.1-5.4,9.1c-1.9,3-3.7,6-5.8,8.9c-1,1.5-2.1,2.8-3.3,4.2
							l-3.4,4l3.3-4.1c1.1-1.4,2.2-2.7,3.2-4.2c2-2.9,3.9-5.9,5.7-8.9c1.9-3,3.7-6,5.5-9.1L327,4.3z"/>
						<path class="st11" d="M315.3,32.7c0-0.4,0-0.8,0-1.2l0-1.2c0-0.8,0-1.6-0.1-2.5c0.1,0.4,0.2,0.8,0.3,1.2
							c0.1,0.4,0.1,0.8,0.1,1.3c0,0.4,0,0.8-0.1,1.2C315.4,31.9,315.4,32.3,315.3,32.7z"/>
						<path class="st11" d="M304.7,29.8c0.5-0.4,1-0.8,1.6-1.1c0.5-0.4,1.1-0.7,1.6-1c0.6-0.3,1.1-0.6,1.7-0.9
							c0.6-0.2,1.2-0.5,1.9-0.6c-0.6,0.2-1.2,0.5-1.8,0.7c-0.6,0.3-1.1,0.6-1.7,0.9c-0.6,0.3-1.1,0.6-1.7,1L304.7,29.8z"/>
						<path class="st11" d="M305.8,22.7c0.8-0.4,1.6-0.7,2.4-1c0.8-0.3,1.7-0.6,2.5-0.9c0.8-0.3,1.7-0.5,2.5-0.8
							c0.9-0.2,1.7-0.4,2.6-0.6c-1.7,0.5-3.4,1-5,1.6c-0.8,0.3-1.7,0.6-2.5,0.8L305.8,22.7z"/>
						<path class="st11" d="M321.7,28.7c-0.1-1.3-0.1-2.6-0.2-3.9c0-0.6-0.1-1.3-0.2-1.9c-0.1-0.6-0.2-1.3-0.5-1.9
							c0.4,0.5,0.6,1.2,0.7,1.8c0.1,0.6,0.2,1.3,0.3,1.9c0,0.7,0.1,1.3,0,2C321.9,27.4,321.8,28,321.7,28.7z"/>
						<path class="st11" d="M310.8,15.6c0.7-0.4,1.4-0.7,2.2-1.1c0.7-0.3,1.5-0.6,2.2-0.9c0.8-0.3,1.5-0.5,2.3-0.7
							c0.8-0.2,1.6-0.3,2.4-0.1c-0.4-0.1-0.8,0-1.2,0c-0.4,0.1-0.8,0.2-1.2,0.3c-0.8,0.2-1.5,0.5-2.3,0.7c-0.8,0.3-1.5,0.6-2.2,0.8
							L310.8,15.6z"/>
						<path class="st11" d="M325.4,21.3c-0.1-0.6-0.2-1.2-0.3-1.8c-0.1-0.6-0.2-1.2-0.4-1.8c-0.1-0.6-0.3-1.2-0.5-1.7
							c-0.2-0.6-0.5-1.1-0.8-1.6c0.4,0.4,0.7,1,1,1.5c0.3,0.6,0.4,1.1,0.6,1.7c0.1,0.6,0.3,1.2,0.3,1.8
							C325.3,20.1,325.4,20.7,325.4,21.3z"/>
					</g>
					<g>
						<path class="st9" d="M323.2,41.4c-0.5-0.2-0.7-1.1-0.9-1.7c-0.7-2.8-1.2-5.8-1.1-8.7s0.8-5.9,2.5-8.3
							c2.6-3.8,7.1-5.8,10.3-9.1c1,1.7,1.8,3.5,2.4,5.4c0.7,1.9,1.2,3.9,1,5.9c-0.4,3-2.5,5.6-4.5,7.8c-2.7,3-5.6,6-8.9,8.4
							C323.7,41.4,323.4,41.5,323.2,41.4z"/>
						<path class="st11" d="M333.8,14.2c-0.7,2.2-1.4,4.3-2.1,6.5c-0.7,2.2-1.5,4.3-2.2,6.5c-0.8,2.1-1.6,4.3-2.5,6.4
							c-0.4,1.1-1,2.1-1.5,3.1l-1.6,3l1.6-3c0.5-1,1.1-2,1.5-3.1c0.9-2.1,1.7-4.2,2.4-6.4c0.8-2.1,1.5-4.3,2.3-6.4L333.8,14.2z"/>
						<path class="st11" d="M330.1,33.6c-0.1-0.5-0.2-1.1-0.3-1.6c-0.1-0.5-0.2-1-0.4-1.6c0.3,0.5,0.4,1,0.5,1.5
							C330,32.6,330.1,33.1,330.1,33.6z"/>
						<path class="st11" d="M323,33.2c0.5-0.6,1.1-1.2,1.7-1.8c0.3-0.3,0.6-0.5,1-0.8c0.3-0.2,0.7-0.5,1.1-0.6
							c-0.4,0.2-0.7,0.4-1,0.7c-0.3,0.3-0.6,0.5-1,0.8C324.2,32,323.6,32.6,323,33.2z"/>
						<path class="st11" d="M322.8,28.6c0.9-0.7,1.9-1.3,2.9-1.8c0.5-0.3,1-0.6,1.5-0.8c0.5-0.3,1-0.5,1.6-0.7
							c-0.5,0.3-1,0.5-1.5,0.8c-0.5,0.3-1,0.6-1.5,0.8L322.8,28.6z"/>
						<path class="st11" d="M333.6,30.3c-0.2-0.8-0.4-1.6-0.6-2.4c-0.1-0.4-0.2-0.8-0.4-1.2c-0.1-0.4-0.3-0.8-0.6-1.1
							c0.3,0.3,0.5,0.7,0.7,1.1c0.2,0.4,0.3,0.8,0.4,1.2C333.4,28.6,333.6,29.4,333.6,30.3z"/>
						<path class="st11" d="M325,23.4c0.8-0.7,1.6-1.3,2.5-1.8c0.4-0.3,0.9-0.5,1.4-0.7c0.5-0.2,1-0.4,1.5-0.4
							c-0.3,0-0.5,0.1-0.7,0.2c-0.2,0.1-0.5,0.2-0.7,0.3c-0.5,0.2-0.9,0.5-1.3,0.8C326.7,22.3,325.9,22.9,325,23.4z"/>
						<path class="st11" d="M335,25.1c-0.1-0.4-0.3-0.7-0.4-1.1c-0.1-0.4-0.3-0.7-0.5-1.1c-0.2-0.4-0.3-0.7-0.6-1
							c-0.2-0.3-0.4-0.6-0.7-0.9c0.3,0.2,0.6,0.5,0.8,0.8c0.2,0.3,0.4,0.7,0.6,1C334.6,23.6,334.8,24.4,335,25.1z"/>
					</g>
					<g>
						<path class="st9" d="M395.1,68.3c-0.6,0.5-2,0-3-0.4c-4.3-1.5-8.5-3.4-12.1-6.1c-3.7-2.7-6.8-6.2-8.5-10.4
							c-2.6-6.6-1.4-14.1-2.8-21.1c3.1,0.3,6.1,0.8,9.1,1.5c3,0.8,6,1.8,8.4,3.9c3.6,3.1,5,8,6.2,12.6c1.5,6.1,2.9,12.4,3.2,18.7
							C395.5,67.7,395.4,68.1,395.1,68.3z"/>
						<path class="st11" d="M369.3,31.1l3.3,4.2l3.2,4.2c2.1,2.8,4.3,5.6,6.4,8.5c2.1,2.9,4.1,5.7,6,8.7c1,1.5,1.8,3.1,2.6,4.6
							l2.4,4.7l-2.5-4.7c-0.8-1.6-1.7-3.1-2.6-4.6c-1.9-3-4-5.8-6.1-8.7c-2.1-2.9-4.2-5.7-6.3-8.5L369.3,31.1z"/>
						<path class="st11" d="M391.1,52.7c-0.4-0.1-0.8-0.3-1.2-0.5l-1.1-0.5c-0.8-0.3-1.5-0.6-2.3-0.9c0.4,0,0.8,0.1,1.2,0.2
							c0.4,0.1,0.8,0.3,1.2,0.4c0.4,0.2,0.8,0.3,1.1,0.5C390.4,52.3,390.7,52.5,391.1,52.7z"/>
						<path class="st11" d="M384.3,61.4c-0.2-0.6-0.3-1.2-0.5-1.9c-0.1-0.6-0.2-1.3-0.3-1.9c-0.1-0.6-0.1-1.3-0.1-1.9
							c0-0.6,0-1.3,0.2-1.9c-0.1,0.6,0,1.3,0,1.9c0,0.6,0.1,1.3,0.2,1.9c0.1,0.6,0.2,1.3,0.3,1.9L384.3,61.4z"/>
						<path class="st11" d="M378.2,57.7c0-0.9,0-1.8,0-2.6c0-0.9,0.1-1.8,0.1-2.6c0.1-0.9,0.1-1.8,0.3-2.6c0.1-0.9,0.3-1.7,0.5-2.6
							c-0.2,1.7-0.3,3.5-0.5,5.2c-0.1,0.9-0.1,1.8-0.2,2.6L378.2,57.7z"/>
						<path class="st11" d="M389.8,45.2c-1.2-0.4-2.4-0.9-3.7-1.3c-0.6-0.2-1.2-0.4-1.9-0.5c-0.6-0.2-1.3-0.3-1.9-0.2
							c0.6-0.2,1.3-0.1,2,0c0.6,0.1,1.3,0.3,1.9,0.5c0.6,0.2,1.2,0.4,1.8,0.7C388.6,44.6,389.2,44.9,389.8,45.2z"/>
						<path class="st11" d="M373.5,50.4c-0.1-0.8-0.1-1.6-0.2-2.4c0-0.8,0-1.6,0-2.4c0.1-0.8,0.1-1.6,0.2-2.4
							c0.2-0.8,0.3-1.6,0.8-2.3c-0.2,0.3-0.3,0.7-0.4,1.1c-0.1,0.4-0.1,0.8-0.2,1.2c-0.1,0.8-0.1,1.6-0.2,2.4c0,0.8-0.1,1.6-0.1,2.4
							L373.5,50.4z"/>
						<path class="st11" d="M384.4,39.1c-0.6-0.1-1.2-0.3-1.8-0.4c-0.6-0.1-1.2-0.2-1.8-0.3c-0.6-0.1-1.2-0.2-1.8-0.2
							c-0.6,0-1.2,0-1.8,0.1c0.6-0.2,1.2-0.3,1.8-0.3c0.6,0,1.2,0,1.8,0.1c0.6,0.1,1.2,0.2,1.8,0.4
							C383.2,38.6,383.8,38.8,384.4,39.1z"/>
					</g>
					<g>
						<path class="st9" d="M166.7,7.6c-0.5-0.2-0.6-1-0.7-1.6c-0.5-2.6-0.8-5.2-0.6-7.8s1-5.2,2.6-7.3c2.5-3.3,6.6-4.9,9.6-7.7
							c0.8,1.6,1.4,3.3,1.9,5c0.5,1.7,0.9,3.5,0.6,5.3c-0.5,2.7-5.9,9.1-4.4,6.8c4.4-6.8-5.3,5.1-8.3,7.2
							C167.1,7.6,166.9,7.7,166.7,7.6z"/>
						<path class="st11" d="M177.5-16.3c-0.7,1.9-1.4,3.8-2.2,5.7c-0.8,1.9-1.5,3.8-2.3,5.7c-0.8,1.9-1.6,3.8-2.5,5.6
							c-0.4,0.9-1,1.8-1.5,2.7L167.3,6l1.6-2.6c0.5-0.9,1-1.8,1.5-2.7c0.9-1.8,1.7-3.7,2.5-5.6c0.8-1.9,1.6-3.8,2.4-5.7L177.5-16.3z
							"/>
						<path class="st11" d="M173.2,0.9c-0.1-0.5-0.1-1-0.2-1.4c-0.1-0.5-0.1-0.9-0.2-1.4c0.2,0.4,0.3,0.9,0.4,1.4
							C173.2,0,173.2,0.5,173.2,0.9z"/>
						<path class="st11" d="M166.9,0.2c0.5-0.6,1.1-1,1.7-1.5c0.3-0.2,0.6-0.4,0.9-0.6c0.3-0.2,0.7-0.4,1-0.5
							c-0.3,0.2-0.6,0.4-1,0.6c-0.3,0.2-0.6,0.4-0.9,0.7C168-0.8,167.5-0.3,166.9,0.2z"/>
						<path class="st11" d="M166.9-3.9c0.9-0.6,1.7-1,2.7-1.5c0.9-0.5,1.8-0.9,2.8-1.2C170.5-5.8,168.7-4.8,166.9-3.9z"/>
						<path class="st11" d="M176.5-1.9c-0.1-0.7-0.3-1.5-0.4-2.2c-0.1-0.4-0.2-0.7-0.3-1.1c-0.1-0.4-0.2-0.7-0.5-1
							c0.3,0.3,0.4,0.6,0.6,1c0.1,0.4,0.2,0.7,0.3,1.1C176.4-3.4,176.5-2.7,176.5-1.9z"/>
						<path class="st11" d="M169.1-8.4c0.7-0.6,1.5-1.1,2.3-1.5c0.4-0.2,0.8-0.4,1.3-0.6c0.4-0.2,0.9-0.3,1.4-0.3
							c-0.5,0-0.9,0.2-1.3,0.4c-0.4,0.2-0.8,0.4-1.2,0.6C170.7-9.4,169.9-8.9,169.1-8.4z"/>
						<path class="st11" d="M178-6.4c-0.2-0.7-0.4-1.3-0.7-2c-0.1-0.3-0.3-0.6-0.4-0.9c-0.2-0.3-0.4-0.6-0.6-0.8
							c0.3,0.2,0.5,0.5,0.7,0.8c0.2,0.3,0.3,0.6,0.5,0.9C177.7-7.8,177.9-7.1,178-6.4z"/>
					</g>
				</g>
				<g>
					<path class="st13" d="M57,361.8l0-380.1H-0.6l0.4,244.8C3.4,278.6,16.7,327.9,57,361.8z"/>
					<path class="st13" d="M45.6,223.3c0,0,16.8-43.7,31.8-46.2c15-2.5,31.2-10.9,33.6-17.3c0,0-5.5-1.1-5.5-1.1
						c-6.9,5.1-14.5,10.3-23.4,9.9c-11.6-0.5-22.5,4.5-30.1,13.1c-13.9,15.9-13.3,15.5-20.1,25.2"/>
					<g class="st14">
						<path class="st15" d="M18.4,291.1c0-2.7-0.1-13-1.2-26.5c-0.9-11.8-1.8-16.7-2.9-30.7c-0.6-8.1-1-14.8-1.2-19.2"/>
						<path class="st15" d="M47.3,27.5c-0.5,7.8-1,18.5-0.9,31.3c0,3.4,0.1,7.4,0.6,22.4c0.3,8.4,0.7,19.3,1.2,32.1"/>
						<path class="st15" d="M42.3,158.1c-0.7-6.4-1.6-16-2.1-27.7c-0.3-8.5-0.2-13.6-0.3-28.3c0-7-0.1-16.9-0.3-28.9"/>
						<path class="st15" d="M37.6,48.8c0.3-3.6,0.4-7.5,0.3-11.8c-0.2-5.4-0.7-10.2-1.5-14.4"/>
						<path class="st15" d="M17.3,48.5c0.1,3.8,0.3,9.9,0.9,17.4c1.3,16.7,3,19.3,2.9,29.8c0,2.4-0.5,4.7-1.2,13.2
							c-0.5,5.7-0.7,8.5-0.8,10.4c-0.6,11.4,1.1,24.1,2.7,24.2c1.3,0,2.7-8.8,2.9-15c0.3-5.7-0.3-10.5-0.9-13.9"/>
						<path class="st15" d="M31.7,142.5c-2.3,8.6-2.1,15.2-1.5,19.8c0.5,3.6,1.4,6.9,1.8,12.7c0.3,4.7,0,8.6-0.3,11.2"/>
						<path class="st15" d="M40.9,333.9c-1.3-11.5-2.3-23.4-2.9-35.7c-0.1-2.3-0.2-4.5-0.3-6.8"/>
						<path class="st15" d="M37.6,281.1c-0.8-4.7-1.1-8.7-1.2-12.1c-0.2-7.1,0.7-10.6,0.9-18.9c0.1-4.7-0.1-8.8-0.3-12.1"/>
						<path class="st15" d="M9,183.2c0.5-5.5,1-14.1,0.3-24.8c-0.7-10.8-2-15.4-2.7-25.1c-0.4-6.7-0.6-16.7,1.2-29.2"/>
					</g>
				</g>
			</g>
			<g>
				<polygon class="st20" points="248,282.5 248,-23.4 192.9,-23.4 193.5,293.1 248,293.1 				"/>
				<g class="st14">
					<path class="st15" d="M210.6,290.5c1.5-14.7,1.8-27,1.8-36.3c0-2.7-0.1-13-1.2-26.5c-0.9-11.8-1.8-16.7-2.9-30.7
						c-0.6-8.1-1-14.8-1.2-19.2"/>
					<path class="st15" d="M241.3-9.4c-0.5,7.8-1,18.5-0.9,31.3c0,3.4,0.1,7.4,0.6,22.4c0.3,8.4,0.7,19.3,1.2,32.1"/>
					<path class="st15" d="M236.3,121.2c-0.7-6.4-1.6-16-2.1-27.7c-0.3-8.5-0.2-13.6-0.3-28.3c0-7-0.1-16.9-0.3-28.9"/>
					<path class="st15" d="M231.5,11.8c0.3-3.6,0.4-7.5,0.3-11.8c-0.2-5.4-0.7-10.2-1.5-14.4"/>
					<path class="st15" d="M211.2,11.5c0.1,3.8,0.3,9.9,0.9,17.4c1.3,16.7,3,19.3,2.9,29.8c0,2.4-0.5,4.7-1.2,13.2
						c-0.5,5.7-0.7,8.5-0.8,10.4c-0.6,11.4,1.1,24.1,2.7,24.2c1.3,0,2.7-8.8,2.9-15c0.3-5.7-0.3-10.5-0.9-13.9"/>
					<path class="st15" d="M225.6,105.6c-2.3,8.6-2.1,15.2-1.5,19.8c0.5,3.6,1.4,6.9,1.8,12.7c0.3,4.7,0,8.6-0.3,11.2"/>
					<path class="st15" d="M234.8,296.9c-1.3-11.5-2.3-23.4-2.9-35.7c-0.1-2.3-0.2-4.5-0.3-6.8"/>
					<path class="st15" d="M231.5,244.2c-0.8-4.7-1.1-8.7-1.2-12.1c-0.2-7.1,0.7-10.6,0.9-18.9c0.1-4.7-0.1-8.8-0.3-12.1"/>
					<path class="st15" d="M202.9,146.3c0.5-5.5,1-14.1,0.3-24.8c-0.7-10.8-2-15.4-2.7-25.1c-0.4-6.7-0.6-16.7,1.2-29.2"/>
				</g>
				<path class="st20" d="M244.6,90.9c0,0,21.7-30.4,25.2-31.9c3.5-1.5,11.7-3.5,11.7-3.5l-2.9-7.1c0,0-15.9,3.4-19,7.1
					c-3.1,3.7-17.2,14.9-17.2,14.9L244.6,90.9z"/>
				<path class="st20" d="M200.3,165.7c0,0-12.3-19.5-18.5-19.5s-19.9-7.9-19.9-7.9l1.8-5l9.7,3.2c0,0,20.6,4.4,30.2,16.8
					C213.2,165.8,200.3,165.7,200.3,165.7z"/>
			</g>
		</g>
	</g>
	<g class="st1">
		<path class="st9" d="M254.1,305.9c-0.2-0.2-0.4-0.4-0.6-0.6c-2.1-2.1-3-5-3-8c-0.1-6,2.7-11.9,5.8-16.8c0.1-0.2,0.2-0.3,0.4-0.4
			c0.4-0.1,0.7,0.2,0.9,0.5c1.5,2.2,1.9,5.2,4,6.7c0-1.7-0.7-3.3-1-4.9c-0.4-1.6-0.5-3.5,0.4-4.9c0.6-0.9,1.5-1.5,2.3-2.1
			c2.5-1.6,5.2-3.4,6.4-6.1c0.2-0.5,0.5-1.6,1.1-1.8c1-0.4,1.1,2.1,1.4,2.9c0.1,0.5,1.5,3.1,1.3,3.4c1.4-2.5-0.2-5.8,0.9-8.5
			c0.8-2,2.9-3.2,4.7-4.5c3-2.2,5.4-5.1,6.9-8.4c1.7,1.6,1.8,4.1,1.7,6.4c-0.1,3.6-0.5,7.3-1.2,10.9c-0.4,1.9-0.9,4-2.4,5.3
			c-0.3,0.3-0.7,0.5-0.9,0.9c-0.2,0.4-0.2,0.9,0.1,1.1c0.2,0.2,0.5,0.1,0.8,0.1c1.5-0.4,2.5-1.8,3.4-3.1c1.6,4.9,0.8,10.5-2.1,14.7
			c-0.3,0.4-0.5,0.7-0.9,1c-0.4,0.3-0.9,0.4-1.3,0.5c-2.4,0.6-4.7,1.1-7.1,1.7c2.1-0.1,4.3-0.2,6.4-0.3c0.3,0,0.5,0,0.8,0.1
			c0.7,0.3,0.6,1.3,0.4,2.1c-1.4,4.7-4.5,8.9-8.6,11.6c-4.1,2.7-9.2,3.9-14.1,3.3C258.5,308.3,256,307.5,254.1,305.9z"/>
		<path class="st17" d="M257.6,306.8c1.2-1.7,2.4-3.3,3.6-5c1.2-1.7,2.4-3.3,3.6-5c2.4-3.4,4.7-6.8,7-10.2c2.3-3.4,4.5-6.9,6.5-10.5
			c1-1.8,2-3.6,2.8-5.5c0.9-1.9,1.7-3.8,2.1-5.8c-0.4,2-1.1,4-1.9,5.9c-0.8,1.9-1.8,3.7-2.7,5.6c-2,3.6-4.2,7.1-6.4,10.6
			c-2.3,3.4-4.6,6.8-7.1,10.2C262.7,300.3,260.2,303.6,257.6,306.8z"/>
	</g>
	<g class="st1">
		<path class="st9" d="M55.2,368.9c-0.2-0.2-0.4-0.4-0.6-0.6c-2.1-2.1-3-5-3-8c-0.1-6,2.7-11.9,5.8-16.8c0.1-0.2,0.2-0.3,0.4-0.4
			c0.4-0.1,0.7,0.2,0.9,0.5c1.5,2.2,1.9,5.2,4,6.7c0-1.7-0.7-3.3-1-4.9c-0.4-1.6-0.5-3.5,0.4-4.9c0.6-0.9,1.5-1.5,2.3-2.1
			c2.5-1.6,5.2-3.4,6.4-6.1c0.2-0.5,0.5-1.6,1.1-1.8c1-0.4,1.1,2.1,1.4,2.9c0.1,0.5,1.5,3.1,1.3,3.4c1.4-2.5-0.2-5.8,0.9-8.5
			c0.8-2,2.9-3.2,4.7-4.5c3-2.2,5.4-5.1,6.9-8.4c1.7,1.6,1.8,4.1,1.7,6.4c-0.1,3.6-0.5,7.3-1.2,10.9c-0.4,1.9-0.9,4-2.4,5.3
			c-0.3,0.3-0.7,0.5-0.9,0.9c-0.2,0.4-0.2,0.9,0.1,1.1c0.2,0.2,0.5,0.1,0.8,0.1c1.5-0.4,2.5-1.8,3.4-3.1c1.6,4.9,0.8,10.5-2.1,14.7
			c-0.3,0.4-0.5,0.7-0.9,1c-0.4,0.3-0.9,0.4-1.3,0.5c-2.4,0.6-4.7,1.1-7.1,1.7c2.1-0.1,4.3-0.2,6.4-0.3c0.3,0,0.5,0,0.8,0.1
			c0.7,0.3,0.6,1.3,0.4,2.1c-1.4,4.7-4.5,8.9-8.6,11.6c-4.1,2.7-9.2,3.9-14.1,3.3C59.6,371.3,57.1,370.5,55.2,368.9z"/>
		<path class="st17" d="M58.7,369.9c2.6-3.2,5.1-6.5,7.5-9.8c2.4-3.3,4.8-6.7,7.1-10.2c2.2-3.5,4.4-7,6.4-10.6
			c1-1.8,1.9-3.7,2.7-5.6c0.8-1.9,1.6-3.8,1.9-5.9c-0.5,2-1.2,3.9-2.1,5.8c-0.9,1.9-1.8,3.7-2.8,5.5c-2,3.6-4.2,7.1-6.5,10.5
			c-2.2,3.5-4.6,6.8-7,10.2c-1.2,1.7-2.4,3.4-3.6,5C61.2,366.5,59.9,368.2,58.7,369.9z"/>
	</g>
	<g class="st1">
		<path class="st9" d="M189.9,232.1c-8.1,6.5,3.6,16.6,3.8,21.9c0.2,5.4-14.2-3.8-13.6,2.8c0.6,6.6,16.3,14.1,16.2,15.4
			c-0.2,4.1-13.6,2.8-10.4,8.6s25.5,3.1,21.3,8.4s-11.7-0.5-11.5,4.9c0.2,5.4,13.2,15,24.2,13s24.9-13,25.3-21.3
			c0.4-8.3,0-19-4.5-14.9c-4.5,4.1-10.7,7.4-10.6,3.2c0.2-3.7,7.1-23.9-0.4-20.3c-7.5,3.7-5.6,9.9-9,8.2c-3.4-1.7,2.6-19.8-0.8-21.5
			c-3.4-1.7-4.9,2.9-10.7,7.4C203.3,252.4,198,225.5,189.9,232.1z"/>
		<g>
			<path class="st11" d="M229.2,299.7c-4.8-6.9-9.4-13.8-13.8-20.9c-3.5-5.6-6.9-11.3-10-17.1c-1.3-2.4-2.5-4.9-3.6-7.5
				c-1.4-3.2-2.4-6.6-3.8-9.8c-1-2.2-2.1-4.7-3.8-6.5c-0.3-0.3-0.8-0.9-1.3-0.9c-0.3,0-0.6,0.5-1,0.6c0.4,0,0.8,0.4,1.1,0.6
				c1.3,1.2,2.2,2.9,3,4.5c1.7,3.4,2.9,7,4.2,10.5c0.9,2.4,2,4.7,3.2,7c5.7,11.2,12.6,21.8,19.6,32.3c1.7,2.6,3.5,5.2,5.3,7.8
				C228.2,300.3,229.2,299.7,229.2,299.7L229.2,299.7z"/>
		</g>
	</g>
	<g class="st1">
		<path class="st9" d="M234,275.8c0.6-0.3,1.5,0.2,2.2,0.7c3.1,1.7,6.1,3.7,8.6,6.2c2.5,2.5,4.5,5.6,5.3,9.1
			c1.2,5.4-0.7,11.1-0.5,16.6c-2.3-0.6-4.6-1.4-6.8-2.3c-2.2-1-4.4-2.2-6-4c-2.4-2.9-2.9-6.8-3.2-10.5c-0.4-4.9-0.7-9.9-0.1-14.8
			C233.6,276.2,233.8,275.9,234,275.8z"/>
		<path class="st11" d="M249.2,307.7l-2-3.6l-2-3.7c-1.3-2.4-2.6-4.9-3.8-7.3c-1.2-2.5-2.5-5-3.6-7.5c-0.6-1.3-1-2.6-1.4-3.9
			l-1.3-3.9l1.4,3.9c0.4,1.3,0.9,2.6,1.5,3.9c1.1,2.5,2.4,5,3.6,7.5c1.2,2.5,2.5,4.9,3.8,7.4L249.2,307.7z"/>
		<path class="st11" d="M235.2,288.3c0.6,0.3,1.1,0.7,1.7,1c0.3,0.2,0.5,0.3,0.8,0.5c0.3,0.2,0.6,0.3,0.8,0.5
			c-0.3-0.1-0.6-0.2-0.9-0.3c-0.3-0.1-0.6-0.3-0.9-0.5C236.2,289.1,235.6,288.7,235.2,288.3z"/>
		<path class="st11" d="M241.5,282.4c0.1,1,0.2,2,0.1,3c0,0.5-0.1,1-0.1,1.5c-0.1,0.5-0.2,1-0.4,1.5c0.1-0.5,0.2-1,0.2-1.5
			c0-0.5,0.1-1,0.1-1.5C241.4,284.4,241.4,283.4,241.5,282.4z"/>
		<path class="st11" d="M245.7,286c-0.2,1.4-0.4,2.7-0.7,4.1c-0.2,0.7-0.3,1.3-0.5,2c-0.2,0.7-0.4,1.3-0.7,2c0.4-1.3,0.7-2.7,1-4
			L245.7,286z"/>
		<path class="st11" d="M235.2,294.2c0.9,0.5,1.8,1,2.7,1.5c0.4,0.2,0.9,0.5,1.4,0.7c0.5,0.2,0.9,0.4,1.4,0.4c-0.5,0-1-0.1-1.5-0.3
			c-0.5-0.2-0.9-0.4-1.4-0.6c-0.4-0.2-0.9-0.5-1.3-0.8C236,294.8,235.6,294.5,235.2,294.2z"/>
		<path class="st11" d="M248.4,292.3c-0.1,1.3-0.2,2.5-0.5,3.7c-0.1,0.6-0.3,1.2-0.5,1.8c-0.2,0.6-0.4,1.2-0.9,1.6
			c0.2-0.2,0.4-0.5,0.5-0.8c0.1-0.3,0.2-0.6,0.3-0.9c0.2-0.6,0.3-1.2,0.4-1.8C248,294.7,248.2,293.5,248.4,292.3z"/>
		<path class="st11" d="M238.6,299.6c0.4,0.2,0.9,0.4,1.3,0.5c0.4,0.2,0.9,0.3,1.3,0.5c0.4,0.1,0.9,0.3,1.4,0.4
			c0.5,0.1,0.9,0.1,1.4,0.1c-0.5,0.1-1,0.1-1.4,0c-0.5-0.1-0.9-0.2-1.4-0.3C240.3,300.5,239.4,300.2,238.6,299.6z"/>
	</g>
	<rect x="109.6" y="163.9" class="st21" width="39.5" height="4.2"/>
	<rect x="149.1" y="181.2" class="st22" width="39.5" height="4.2"/>
	<rect x="150.7" y="197.6" class="st22" width="39.5" height="4.2"/>
	<rect x="153.5" y="163.9" class="st22" width="12.6" height="4.2"/>
	<rect x="170.4" y="163.9" class="st21" width="20.9" height="4.2"/>
	<rect x="177.4" y="172.7" class="st21" width="7.8" height="4.2"/>
	<rect x="137.3" y="197.8" class="st21" width="7.8" height="4.2"/>
	<rect x="109.6" y="172.5" class="st22" width="7.8" height="4.2"/>
	<rect x="137" y="189.7" class="st21" width="20.4" height="4.2"/>
	<rect x="124.2" y="181.1" class="st21" width="20.9" height="4.2"/>
	<rect x="151.8" y="172.5" class="st21" width="20.9" height="4.2"/>
	<rect x="122.4" y="172.7" class="st22" width="24.6" height="4.2"/>
	<rect x="161.8" y="189.7" class="st22" width="24.6" height="4.2"/>
	<g class="st1">
		<g>
			<g>
				<defs>
					<path id="SVGID_4_" d="M128.3,385.6c0,0,6,1.5,7.5,3c1.5,1.5-16.5,1.5-16.5,1.5s1.5-39.3,3-45.3c1.5-6-4.5-34.8-6-36.3
						c-1.5-1.5-1.5,3-1.5,3s0,27.2-3,37.8c-3,10.6-6,25.7-6,27.2v7.6c0,0,6,1.5,6,3c0,1.5-15,1.5-15,1.5s3-55.9,3-57.4
						c0-1.5,0-15.1-1.5-21.2c-1.5-6-1.5-19.6-1.5-19.6v-3h40.5c0,0,0,34.7-1.5,45.3c-1.5,10.6-4.5,31.7-4.5,31.7L128.3,385.6z"/>
				</defs>
				<clipPath id="SVGID_5_">
					<use xlink:href="#SVGID_4_"  style="overflow:visible;"/>
				</clipPath>
				<g class="st23">
					<defs>
						<rect id="SVGID_6_" x="-591.5" y="-799.8" width="870.3" height="2992.1"/>
					</defs>
					<clipPath id="SVGID_7_">
						<use xlink:href="#SVGID_6_"  style="overflow:visible;"/>
					</clipPath>
					<rect x="93.8" y="284.4" class="st24" width="46.5" height="108.8"/>
				</g>
			</g>
			<g>
				<defs>
					<path id="SVGID_8_" d="M188.5,226.3c0-0.8,1.3-1.7,1.5,0c0.2,1.5-1.5,1.5,0,3c1.5,1.5,1.5,6,0,6c-1.5,0-15.1,9-15.1,9
						s-15.2,10.5-18.2,9c-3-1.5-18.2-12-21.2-12c-3,0-24.2-9-24.2-13.5v-13.1c0-0.2,0-0.5,0.1-0.7c0.3-1.1,1.2-4.7-0.1-7.2
						c-1.5-3-2.3-12.8,3.8-14.3c6.1-1.5,10.6,0,12.1,3c1.5,3,1.5,7.5,1.5,10.5c0,1.9-0.6,4.9-1,6.9c-0.3,1.2-1.4,2.1-2.6,2.1h-0.2
						c-1.7,0-3.1,1.6-2.6,3.3c0.1,0.4,0.3,0.8,0.5,1.2c1.5,3,27.3,18,30.3,19.6c1.6,0.8,2.7,1.6,3.5,2.1c0.7,0.5,1.6,0.7,2.5,0.4
						l22.2-6.9c0.4-0.1,0.8-0.4,1.1-0.7C183.8,232.5,188.5,227.1,188.5,226.3"/>
				</defs>
				<clipPath id="SVGID_9_">
					<use xlink:href="#SVGID_8_"  style="overflow:visible;"/>
				</clipPath>
				<g class="st25">
					<defs>
						<rect id="SVGID_10_" x="-591.5" y="-799.8" width="870.3" height="2992.1"/>
					</defs>
					<clipPath id="SVGID_11_">
						<use xlink:href="#SVGID_10_"  style="overflow:visible;"/>
					</clipPath>
					<rect x="107.1" y="188.9" class="st26" width="87" height="67.7"/>
				</g>
			</g>
			<g>
				<defs>
					<path id="SVGID_12_" d="M153.7,237.7c0.1,0.5-0.3,1.1-0.5,1.6c-0.4,1.3-0.9,2.7-1.3,4c-0.3,0.8-3.1,7.7-2.7,8
						c-2.3-2.1-5-3.7-7.8-4.9c-0.7-0.3-1.5-0.5-2.2-0.2c-0.8,0.4-1,1.5-1.1,2.5c-0.8,12.6-1.1,25.1-0.9,37.7c0,0.9,0,1.8-0.4,2.6
						c-0.3,0.6-0.8,1.1-1.4,1.6c-5.3,4.5-12,7.4-18.9,7.7c-6.9,0.3-14-2.1-19.1-6.8c-0.5-0.4-0.9-0.9-1.2-1.5
						c-0.3-0.6-0.4-1.3-0.4-2c-0.8-10.6,2.9-21.2,2.6-31.8c-0.3-9.4-3.7-18.9-2-28.1c0.3-1.4,0.7-2.9,1.6-3.9
						c0.7-0.8,1.8-1.3,2.8-1.7c3.4-1.4,7-2.4,10.6-2.8c-0.5,0.1,0.7,2.1,0.9,2.2c0.7,0.6,2,0.8,2.9,0.9c2.5,0.4,5.9,0.1,7.6-2
						c0.4-0.5,0.7-1,1.2-1.3c0.5-0.3,1-0.3,1.5-0.3c5.8,0.1,11.2,2.9,15.8,6.5c4,3.2,7.5,7.1,11.1,10.7
						C152.6,236.6,153.5,237.2,153.7,237.7C153.6,237.6,153.6,237.7,153.7,237.7"/>
				</defs>
				<clipPath id="SVGID_13_">
					<use xlink:href="#SVGID_12_"  style="overflow:visible;"/>
				</clipPath>
				<g class="st27">
					<defs>
						<rect id="SVGID_14_" x="-591.5" y="-799.8" width="870.3" height="2992.1"/>
					</defs>
					<clipPath id="SVGID_15_">
						<use xlink:href="#SVGID_14_"  style="overflow:visible;"/>
					</clipPath>
					<rect x="92.6" y="216.1" class="st28" width="64.1" height="85.2"/>
				</g>
			</g>
			<g>
				<defs>
					<rect id="SVGID_16_" x="104.3" y="185.3" width="24.1" height="30.5"/>
				</defs>
				<clipPath id="SVGID_17_">
					<use xlink:href="#SVGID_16_"  style="overflow:visible;"/>
				</clipPath>
				<g class="st29">
					<defs>
						<rect id="SVGID_18_" x="-591.5" y="-799.8" width="870.3" height="2992.1"/>
					</defs>
					<clipPath id="SVGID_19_">
						<use xlink:href="#SVGID_18_"  style="overflow:visible;"/>
					</clipPath>
					<g class="st30">
						<g>
							<defs>
								<rect id="SVGID_20_" x="102.9" y="182.8" width="27.2" height="36.3"/>
							</defs>
							<clipPath id="SVGID_21_">
								<use xlink:href="#SVGID_20_"  style="overflow:visible;"/>
							</clipPath>
							<g class="st31">
								<defs>
									<path id="SVGID_22_" d="M126.5,208.5c0,0-3.3,0-3.3-3.3s1.7-5,3.3-3.3c1.7,1.7,1.7,0,1.7,0s-3.3-5-1.7-6.7
										c1.7-1.7,3.3-3.3,0-6.7c-3.3-3.3-8.3-5-14.9,0c-6.6,5-8.3,8.4-6.6,13.4c1.7,5,6.6,11.7,6.6,11.7s5,5,9.9,0L126.5,208.5z"/>
								</defs>
								<clipPath id="SVGID_23_">
									<use xlink:href="#SVGID_22_"  style="overflow:visible;"/>
								</clipPath>
								<g class="st32">
									<defs>
										<rect id="SVGID_24_" x="104.1" y="185.3" width="24.8" height="30.8"/>
									</defs>
									<clipPath id="SVGID_25_">
										<use xlink:href="#SVGID_24_"  style="overflow:visible;"/>
									</clipPath>
									<rect x="101.3" y="182.2" class="st33" width="30.1" height="36.6"/>
								</g>
							</g>
						</g>
					</g>
				</g>
			</g>
		</g>
		<path class="st34" d="M137,236.7H95.8c-3.3,0-6-2.7-6-6v-5.6c0-3.3,2.7-6,6-6H137c3.3,0,6,2.7,6,6v5.6
			C143,234,140.3,236.7,137,236.7z"/>
		<path class="st35" d="M133.8,284.6h-33.4c-5.5,0-9.9-4.4-9.9-9.9v-28.1c0-5.5,4.4-9.9,9.9-9.9h33.4c5.5,0,9.9,4.4,9.9,9.9v28.1
			C143.7,280.2,139.3,284.6,133.8,284.6z"/>
	</g>
</g>
</svg>
