<?xml version="1.0" encoding="utf-8"?>
<!-- Generator: Adobe Illustrator 21.0.2, SVG Export Plug-In . SVG Version: 6.00 Build 0)  -->
<svg version="1.1" id="Layer_1" xmlns="http://www.w3.org/2000/svg" xmlns:xlink="http://www.w3.org/1999/xlink" x="0px" y="0px"
	 viewBox="0 0 378.9 388.3" style="enable-background:new 0 0 378.9 388.3;" xml:space="preserve">
<style type="text/css">
	.st0{clip-path:url(#SVGID_2_);}
	.st1{fill:url(#SVGID_3_);}
	.st2{fill:#F2F2F2;}
	.st3{fill:#110A2D;}
	.st4{fill:none;stroke:#1D2761;stroke-width:1.0656;stroke-miterlimit:10;}
	.st5{fill:#010F27;}
	.st6{fill:#9DD6E7;}
	.st7{opacity:0.99;}
	.st8{fill:url(#SVGID_4_);}
	.st9{fill:url(#SVGID_5_);}
	.st10{fill:url(#SVGID_6_);}
	.st11{opacity:0.68;}
	.st12{fill:url(#SVGID_7_);}
	.st13{fill:url(#SVGID_8_);}
	.st14{fill:url(#SVGID_9_);}
	.st15{fill:url(#SVGID_10_);}
	.st16{fill:url(#SVGID_11_);}
	.st17{fill:url(#SVGID_12_);}
	.st18{fill:url(#SVGID_13_);}
	.st19{fill:url(#SVGID_14_);}
	.st20{fill:url(#SVGID_15_);}
	.st21{fill:url(#SVGID_16_);}
	.st22{fill:url(#SVGID_17_);}
	.st23{opacity:0.51;}
	.st24{fill:#FFFFFF;stroke:#002E61;stroke-width:4.132;stroke-miterlimit:10;}
	.st25{fill:#FFA3A3;}
	.st26{fill:#00132E;}
	.st27{fill:#F54C43;}
	.st28{fill:url(#SVGID_18_);}
	.st29{fill:url(#SVGID_19_);}
	.st30{fill:#E6E6E6;}
	.st31{fill:#4275B6;}
	.st32{fill:#3360B4;}
	.st33{fill:#006ED5;}
	.st34{fill:#4DA4D2;}
	.st35{fill:#00C4EB;}
	.st36{fill:#1B0D44;}
	.st37{fill:#080516;}
	.st38{fill:none;stroke:#FFFFFF;stroke-width:0.3078;stroke-miterlimit:10;}
	.st39{fill:#FFAA64;}
	.st40{opacity:0.27;}
	.st41{fill:none;stroke:#F54C43;stroke-width:0.1658;stroke-linecap:round;stroke-miterlimit:10;}
	.st42{fill:none;stroke:#F54C43;stroke-width:0.1066;stroke-linecap:round;stroke-miterlimit:10;}
	.st43{fill:none;stroke:#00C4EB;stroke-width:0.3197;stroke-linecap:round;stroke-miterlimit:10;}
	.st44{fill:#20D5D2;}
	.st45{opacity:0.75;fill:#0F6FFF;enable-background:new    ;}
</style>
<g id="Layer_1-2_1_">
	<g>
		<defs>
			<rect id="SVGID_1_" width="378.9" height="388.3"/>
		</defs>
		<clipPath id="SVGID_2_">
			<use xlink:href="#SVGID_1_"  style="overflow:visible;"/>
		</clipPath>
		<g class="st0">
			
				<linearGradient id="SVGID_3_" gradientUnits="userSpaceOnUse" x1="-29.5988" y1="179.5337" x2="420.4268" y2="179.5337" gradientTransform="matrix(1 0 0 -1 0 350.5858)">
				<stop  offset="0" style="stop-color:#52E5E7"/>
				<stop  offset="0.69" style="stop-color:#0130CB"/>
			</linearGradient>
			<path class="st1" d="M397.6,27.2c7.7,8.3,13.2,18.4,15.9,29.4c2.9,12.3-1.2,24.9,3.4,37.2c1.4,3.7,3.4,7.3,3.6,11.2
				c0.7,16.3-24.8,26-17.3,43.5c4.3,9.8,7.4,17.8,6.4,28.8c-1.2,10.5-4.5,20.7-9.8,29.8c-2.4,4.2-5.1,8.3-8.1,12.1
				c-16.2,20.4-38.2,35.9-52.3,57.9c-6.5,10.1-11.5,21.9-21.4,28.7c-10.8,7.4-25.1,7.2-37.8,4.1c-12.7-3.1-24.6-8.9-37.2-12.1
				c-25-6.1-51.5-1.8-73.3,12c-19.5,12.5-33.7,31.7-51.1,47c-17.4,15.3-41.3,27.1-63.4,19.9c-19.4-6.3-31.5-25.1-40.5-43.4
				c-24.5-50.4-36-106.2-40.3-162C-29.4,121-37.7,44-8,3.2c22.7-31.2,70.5-27.9,108.3-35.6s77.1-4.4,114.9,3.4
				c39.4,8.1,131.1,4.2,165.6,25.1C389.4,1.3,390.6,19.8,397.6,27.2z"/>
			<polygon class="st2" points="52,297.5 69.8,307.7 123.2,276.9 105.4,266.6 			"/>
			<polygon class="st3" points="52,300.6 69.8,310.9 69.8,307.7 52,297.5 			"/>
			<polygon class="st3" points="123.2,276.9 123.2,280.1 69.8,310.9 69.8,307.7 			"/>
			<path class="st4" d="M44,309c-10.4,0.7-15.7,0.5-15.9-0.6c-0.3-1.4,11.3-3.9,11.1-5.2c-0.1-0.7-3.4-1-16.5,0.1"/>
			<path class="st3" d="M61.7,313.5l-11-6.4c-2.1-1.1-4.7-1.1-6.8,0l-2.1,1.2c-0.8,0.4-1.3,1.1-1.4,2v3.4c0.1,0.9,0.6,1.6,1.4,2
				l11,6.4c2.1,1.1,4.7,1.1,6.8,0l2.1-1.2c0.8-0.4,1.3-1.1,1.4-2v-3.4C63,314.7,62.5,313.9,61.7,313.5z"/>
			<path class="st2" d="M43.9,307.1c2.1-1.1,4.7-1.1,6.8,0l11,6.4c1.9,1.1,1.9,2.8,0,3.9l-2.1,1.2c-2.1,1.1-4.7,1.1-6.8,0l-11-6.4
				c-1.9-1.1-1.9-2.8,0-3.9L43.9,307.1z"/>
			<path class="st5" d="M145.3,281.5c-6.1,0.3-4.1,9.1-5.8,11.7c-1.8,2.6-5.3-6.7-7.4-3.4c-2,3.3,2.8,12.3,2.3,12.9
				c-1.5,1.9-7.4-3.4-7.9,0.4c-0.5,3.9,10.9,10.3,7.1,11.4s-5.3-4.3-7.1-1.7c-1.8,2.6,1,11.7,6.8,14.5c5.8,2.9,16.2,2.5,19.3-1.2
				s6.6-9,3.1-8.6c-3.6,0.4-7.6-0.3-6.1-2.2c1.4-1.7,11.7-8.8,6.9-9.7c-4.8-0.9-6.1,2.7-7.1,0.7c-1-2,8.1-8.4,7.1-10.4
				c-1-2-3.3-0.4-7.6-0.3C144.5,295.8,151.3,281.2,145.3,281.5z"/>
			<path class="st2" d="M140.2,326.7c0.2-7.1,0.6-14.2,1.4-21.2c0.4-4.4,1.3-8.8,2.5-13c0.3-1.1,2.4-6.8,0.8-7.9
				c-0.1-0.1-0.5,0.4-0.6,0.3c1.5,1-0.4,6.3-0.7,7.4c-1.2,4.4-2.1,9-2.6,13.6c-0.8,7-1.2,14.1-1.4,21.2
				C139.6,327,140.2,326.9,140.2,326.7L140.2,326.7z"/>
			<path class="st5" d="M164.7,311.2c0.3,0.3,0.1,1-0.1,1.5c-0.6,2.2-1.4,4.3-2.5,6.2c-1.1,2-2.8,3.6-4.8,4.6
				c-3.2,1.5-6.9,1.2-10.3,2.2c0-1.5,0.2-3,0.4-4.5c0.2-1.5,0.7-3,1.6-4.3c1.4-1.9,3.8-2.8,6-3.6c3-1.1,6-1.8,9.1-2.3
				C164.3,311,164.6,311,164.7,311.2z"/>
			<path class="st2" d="M147.3,325.4c2.6-2.4,5.2-4.7,7.8-7c1.3-1.1,2.7-2.2,4.1-3.3s2.9-1.9,4.4-2.8c-1.5,1-3,1.8-4.4,2.9
				c-1.4,1.1-2.7,2.2-4.1,3.3C152.6,320.7,149.9,323,147.3,325.4z"/>
			<path class="st2" d="M157.2,313.8c-0.2,0.8-0.6,1.6-0.7,2.4c0-0.4,0.1-0.8,0.2-1.2C156.8,314.6,157,314.2,157.2,313.8z"/>
			<path class="st2" d="M161.7,316.8c-0.6,0.2-1.2,0.4-1.8,0.5c-0.6,0.1-1.3,0.2-1.9,0.1c0.6,0,1.3-0.1,1.9-0.2
				C160.5,317.1,161.1,316.9,161.7,316.8z"/>
			<path class="st2" d="M160.1,319.9c-0.9,0.1-1.7,0.1-2.6,0.1c-0.9,0-1.7,0-2.6-0.2C156.7,320,158.4,319.9,160.1,319.9z"/>
			<path class="st2" d="M153.5,314.7c-0.2,0.6-0.4,1.2-0.5,1.9c-0.1,0.3-0.2,0.6-0.2,0.9c0,0.3,0,0.6,0,0.9
				c-0.1-0.6-0.1-1.3,0.1-1.9C153.1,315.9,153.3,315.3,153.5,314.7z"/>
			<path class="st2" d="M156.7,322.5c-0.8,0.1-1.6,0.2-2.4,0.2c-0.4,0-0.8,0-1.2,0c-0.4,0-0.8-0.1-1.2-0.3c0.4,0.2,0.8,0.2,1.2,0.2
				c0.4,0,0.8,0,1.2,0C155.1,322.7,155.9,322.6,156.7,322.5z"/>
			<path class="st2" d="M150.7,317.6c-0.1,0.6-0.2,1.2-0.2,1.8c-0.1,0.6,0,1.2,0.1,1.8c-0.2-0.6-0.3-1.2-0.2-1.8
				C150.4,318.8,150.5,318.2,150.7,317.6z"/>
			<path class="st6" d="M225.9,203.9c11.2,1,22.1,2.5,22.1,3.4c-0.1,1.2-24,0.3-24,1.5c-0.1,1.7,42.8,5.3,42.7,7
				c-0.1,1.8-47.6-0.3-47.8,2.1c-0.2,2.4,49.1,7.7,48.9,9.5c-0.1,1.7-54.9-2.5-55.1-0.3c-0.2,2,44,8.1,43.8,9.5
				c-0.2,1.4-45-4.4-45.8,0c-0.5,3,20.3,9.1,19.8,11.3c-0.6,2.5-29.9-3.9-30.5-1.2c-0.4,1.9,13.2,6.1,12.7,8.8
				c-0.3,1.8-6.5,1.8-15.8,1.8c-26.6,0.2-32.9,0.6-33.1-0.9c-0.4-2.7,19.3-6.9,18.9-9.5c-0.5-3.1-30.6,0.1-30.8-1.8
				c-0.2-1.7,23.1-5.1,22.9-7.3c-0.2-2.5-32.4-1-32.5-2.7c-0.1-1.7,37.4-5.6,37.3-7.3c-0.1-1.7-31.8,0-32-2.4
				c-0.2-2,19.9-4.7,19.8-6.7c-0.2-2.4-30.4-1.1-30.5-2.7c-0.1-1.7,29.8-4.1,29.7-6.4c-0.1-2.3-30.5-1.8-30.5-3.4
				C135.9,204.2,179.1,199.6,225.9,203.9z"/>
			<path class="st6" d="M354.2,198.1c1.6,0,3.3,0.2,4.9,0.4c0,0.1-5.4,0-5.4,0.2c0,0.2,9.6,0.6,9.6,0.8c0,0.2-10.7,0-10.7,0.2
				s11,0.9,10.9,1c0,0.2-12.3-0.3-12.3,0c0,0.3,9.8,0.9,9.8,1.1c0,0.2-10.1-0.5-10.3,0c-0.2,0.5,4.5,1,4.4,1.3s-6.7-0.4-6.8-0.1
				c-0.1,0.3,3,0.7,2.9,1c-0.1,0.3-1.4,0.2-3.6,0.2c-5.9,0-7.4,0.1-7.4-0.1s4.3-0.8,4.2-1.1c-0.1-0.3-6.8,0-6.9-0.2
				c0-0.2,5.2-0.6,5.1-0.8s-7.2-0.1-7.3-0.3s8.4-0.6,8.3-0.8s-7.1,0-7.1-0.3s4.5-0.5,4.4-0.7c0-0.2-6.8-0.1-6.8-0.3
				c0-0.2,6.7-0.5,6.6-0.7s-6.8-0.2-6.8-0.4C334.2,198.2,343.7,197.6,354.2,198.1z"/>
			<path class="st6" d="M295.4,196.9c1.7,0,3.3,0.2,4.9,0.5c0,0.2-5.4,0-5.4,0.2c0,0.2,9.6,0.8,9.6,1.1c0,0.3-10.7,0-10.7,0.3
				c0,0.3,11,1.2,10.9,1.5c0,0.3-12.3-0.4-12.3,0c0,0.4,9.8,1.3,9.8,1.5s-10.1-0.7-10.3,0c-0.1,0.5,4.5,1.4,4.4,1.8
				c-0.1,0.3-6.7-0.6-6.8-0.2c-0.1,0.4,3,1,2.9,1.4c-0.1,0.4-1.4,0.3-3.6,0.3c-5.9,0-7.4,0.1-7.4-0.1c-0.1-0.4,4.3-1.1,4.2-1.5
				s-6.9,0-6.9-0.3c0-0.3,5.2-0.8,5.1-1.2c0-0.4-7.2-0.2-7.3-0.4c0-0.3,8.4-0.9,8.3-1.2c0-0.3-7.1,0-7.1-0.4s4.5-0.7,4.4-1
				s-6.8-0.2-6.8-0.4c0-0.2,6.7-0.7,6.6-1c0-0.4-6.8-0.3-6.8-0.5C275.4,197,284.9,196.2,295.4,196.9z"/>
			<g>
				<g class="st7">
					
						<linearGradient id="SVGID_4_" gradientUnits="userSpaceOnUse" x1="-13402.5732" y1="209.9251" x2="-13175.0312" y2="209.9251" gradientTransform="matrix(-1 0 0 -1 -12992.2393 350.5858)">
						<stop  offset="0" style="stop-color:#002E61"/>
						<stop  offset="0.27" style="stop-color:#012C5F"/>
						<stop  offset="1" style="stop-color:#110A2D"/>
					</linearGradient>
					<path class="st8" d="M376.7,137.8l-68.2-45.1l-125.7,91.9l227.3,4.1C410.1,188.6,415.2,166.7,376.7,137.8z"/>
					
						<linearGradient id="SVGID_5_" gradientUnits="userSpaceOnUse" x1="-13242.8848" y1="201.0157" x2="-13065.6924" y2="201.0157" gradientTransform="matrix(-1 0 0 -1 -12992.2393 350.5858)">
						<stop  offset="0" style="stop-color:#002E61"/>
						<stop  offset="0.27" style="stop-color:#012C5F"/>
						<stop  offset="1" style="stop-color:#110A2D"/>
					</linearGradient>
					<polyline class="st9" points="218.7,156.2 168.4,114.3 73.5,184.8 250.6,184.8 220.3,156.8 					"/>
					
						<linearGradient id="SVGID_6_" gradientUnits="userSpaceOnUse" x1="-13056.5469" y1="161.6608" x2="-13056.5469" y2="286.5571" gradientTransform="matrix(-1 0 0 -1 -12992.2393 350.5858)">
						<stop  offset="0" style="stop-color:#002E61"/>
						<stop  offset="0.27" style="stop-color:#012C5F"/>
						<stop  offset="1" style="stop-color:#110A2D"/>
					</linearGradient>
					<path class="st10" d="M149.7,186.6L39.3,64l-60.4,59.4l0.3,65.5L149.7,186.6z"/>
				</g>
			</g>
			<g>
				<g class="st11">
					
						<linearGradient id="SVGID_7_" gradientUnits="userSpaceOnUse" x1="5981.3682" y1="189.3419" x2="5981.4985" y2="189.3419" gradientTransform="matrix(1 0 0 -1 -5584.0298 350.5858)">
						<stop  offset="0" style="stop-color:#002E61"/>
						<stop  offset="1" style="stop-color:#110A2D"/>
					</linearGradient>
					<path class="st12" d="M397.5,161.3c0-0.1-0.1-0.1-0.1-0.2L397.5,161.3z"/>
					
						<linearGradient id="SVGID_8_" gradientUnits="userSpaceOnUse" x1="5987.7021" y1="173.7256" x2="5987.8447" y2="173.7256" gradientTransform="matrix(1 0 0 -1 -5584.0298 350.5858)">
						<stop  offset="0" style="stop-color:#002E61"/>
						<stop  offset="1" style="stop-color:#110A2D"/>
					</linearGradient>
					<path class="st13" d="M403.8,176.9c0,0-0.1-0.1-0.1-0.1C403.7,176.9,403.8,177,403.8,176.9z"/>
					
						<linearGradient id="SVGID_9_" gradientUnits="userSpaceOnUse" x1="5944.3457" y1="183.5819" x2="5944.4048" y2="183.5819" gradientTransform="matrix(1 0 0 -1 -5584.0298 350.5858)">
						<stop  offset="0" style="stop-color:#002E61"/>
						<stop  offset="1" style="stop-color:#110A2D"/>
					</linearGradient>
					<path class="st14" d="M360.4,167.1c0,0,0-0.1-0.1-0.1L360.4,167.1z"/>
					
						<linearGradient id="SVGID_10_" gradientUnits="userSpaceOnUse" x1="5937.7271" y1="179.4412" x2="5937.7271" y2="179.4412" gradientTransform="matrix(1 0 0 -1 -5584.0298 350.5858)">
						<stop  offset="0" style="stop-color:#002E61"/>
						<stop  offset="1" style="stop-color:#110A2D"/>
					</linearGradient>
					<path class="st15" d="M353.7,171.2C353.7,171.2,353.7,171.2,353.7,171.2C353.7,171,353.7,171.2,353.7,171.2z"/>
					
						<linearGradient id="SVGID_11_" gradientUnits="userSpaceOnUse" x1="5950.4902" y1="183.3096" x2="5950.5498" y2="183.3096" gradientTransform="matrix(1 0 0 -1 -5584.0298 350.5858)">
						<stop  offset="0" style="stop-color:#002E61"/>
						<stop  offset="1" style="stop-color:#110A2D"/>
					</linearGradient>
					<path class="st16" d="M366.5,167.3c0,0,0-0.1-0.1-0.1L366.5,167.3z"/>
					
						<linearGradient id="SVGID_12_" gradientUnits="userSpaceOnUse" x1="5965.2422" y1="196.1674" x2="5965.3018" y2="196.1674" gradientTransform="matrix(1 0 0 -1 -5584.0298 350.5858)">
						<stop  offset="0" style="stop-color:#002E61"/>
						<stop  offset="1" style="stop-color:#110A2D"/>
					</linearGradient>
					<path class="st17" d="M381.2,154.4C381.2,154.4,381.2,154.4,381.2,154.4C381.2,154.5,381.2,154.5,381.2,154.4z"/>
					
						<linearGradient id="SVGID_13_" gradientUnits="userSpaceOnUse" x1="5923.1641" y1="182.0072" x2="5923.1641" y2="182.0072" gradientTransform="matrix(1 0 0 -1 -5584.0298 350.5858)">
						<stop  offset="0" style="stop-color:#002E61"/>
						<stop  offset="1" style="stop-color:#110A2D"/>
					</linearGradient>
					<path class="st18" d="M339.1,168.5L339.1,168.5L339.1,168.5z"/>
					
						<linearGradient id="SVGID_14_" gradientUnits="userSpaceOnUse" x1="5917.7656" y1="178.1297" x2="5917.7656" y2="178.1297" gradientTransform="matrix(1 0 0 -1 -5584.0298 350.5858)">
						<stop  offset="0" style="stop-color:#002E61"/>
						<stop  offset="1" style="stop-color:#110A2D"/>
					</linearGradient>
					<path class="st19" d="M333.7,172.5"/>
					
						<linearGradient id="SVGID_15_" gradientUnits="userSpaceOnUse" x1="5928.1133" y1="188.2171" x2="5928.1494" y2="188.2171" gradientTransform="matrix(1 0 0 -1 -5584.0298 350.5858)">
						<stop  offset="0" style="stop-color:#002E61"/>
						<stop  offset="1" style="stop-color:#110A2D"/>
					</linearGradient>
					<path class="st20" d="M344.1,162.3L344.1,162.3C344.1,162.4,344.1,162.4,344.1,162.3z"/>
					
						<linearGradient id="SVGID_16_" gradientUnits="userSpaceOnUse" x1="5952.9053" y1="178.6507" x2="5952.9053" y2="178.6507" gradientTransform="matrix(1 0 0 -1 -5584.0298 350.5858)">
						<stop  offset="0" style="stop-color:#002E61"/>
						<stop  offset="1" style="stop-color:#110A2D"/>
					</linearGradient>
					<path class="st21" d="M368.9,171.9"/>
					
						<linearGradient id="SVGID_17_" gradientUnits="userSpaceOnUse" x1="5890.2422" y1="181.7355" x2="5964.2754" y2="181.7355" gradientTransform="matrix(1 0 0 -1 -5584.0298 350.5858)">
						<stop  offset="0" style="stop-color:#002E61"/>
						<stop  offset="1" style="stop-color:#110A2D"/>
					</linearGradient>
					<path class="st22" d="M378.1,182.3l-1.3-2.4c0.4,0,0.8,0.1,1.2,0.2c-0.3-0.4-1.1-1.3-1.5-1.8c-0.5-0.5-2.3-3.3-1.9-3
						c0.4,0.3,1.5,1,1.5,1c-0.7-1-1.4-2.1-2-3.2c-0.4-1,1,0,1,0c-0.8-0.8-1.5-1.6-2.1-2.5c-0.2-0.4-1.2-2.2-0.5-1.9l1,0.6l-3-5.2
						c-0.1-0.2,0.8,0,1.2,0.3c-0.8-1.2-5.4-8.6-5.4-8.6v1c0,0-0.8,1.7-1.8,3.5c-1-1-2.2-2.5-2.2-2.5l1.8,0.7l-2.6-2.5l1,0.2
						c0,0-3.7-6.3-3.6-5.8c0.1,0.4-2.8,6.4-3.3,7.3c0.3-0.2,0.6-0.3,0.9-0.4c0,0.7-0.2,1.3-0.4,1.9c-0.6,0.8-1.3,1.4-2,2l1.1-0.3
						c0,0,1.5,0.2,0.7,0.7c-0.7,0.7-1.2,1.5-1.5,2.4c0,0,1.1-0.4,0.8,0.5c-0.3,0.9-0.7,2.1-0.7,2.1h1.2c-0.3,0.3-0.6,0.6-0.8,0.9
						l-0.1-0.1c0,0,0,0.1,0,0.1c-0.1,0.2-0.2,0.4-0.3,0.6c-0.2-0.5-0.4-0.8-0.4-0.9c0,0,0.5,0,0.7,0.2c-0.5-0.8-3.2-5.9-3.2-5.9v0.7
						c-0.7,1.8-1.6,3.6-2.6,5.4c-0.4,0.2,1-0.2,1-0.2c-0.5,1-1.1,1.9-1.9,2.8c-0.4,0.2,0.8-0.2,0.8-0.2c-0.4,1.1-0.8,2.2-1.3,3.2
						c0.3-0.1,0.6-0.1,0.8-0.2c-0.2,0.6-0.5,1.1-0.9,1.5c-0.3,0.2-0.4,0.4,0,0.2c0.2,0,0.1,0.2,0,0.5l-1-0.8l0.6,0.1
						c0,0-2.1-3.1-2.1-2.9c-0.6,1.2-1.2,2.5-1.9,3.6c0.2-0.1,0.3-0.2,0.5-0.2c0,0.3-0.1,0.7-0.2,1c-0.3,0.4-0.7,0.7-1.2,1l0.6-0.1
						c0,0,0.9,0.1,0.4,0.4c-0.3,0.2-0.5,0.4-0.6,0.7c-0.3-0.5-0.5-1-0.7-1.5c-0.2-0.7,0.5,0,0.5,0c-0.4-0.6-0.8-1.1-1.1-1.8
						c-0.1-0.3-0.6-1.6-0.2-1.3l0.5,0.4c0,0-1.5-3.4-1.6-3.6s0.4,0,0.6,0.2c-0.4-0.8-2.8-5.9-2.8-5.9v0.7c-0.6,1.8-1.4,3.6-2.2,5.4
						c-0.3,0.2,0.9-0.2,0.9-0.2s-0.8,1.6-1.3,2.4c-0.4-1-1.2-2.7-1.2-2.8c0-0.1,0.4,0,0.6,0.2c-0.4-0.8-2.8-5.9-2.8-5.9v0.7
						c-0.6,1.8-1.4,3.6-2.2,5.4c-0.3,0.2,0.9-0.2,0.9-0.2c-0.4,1-1,1.9-1.6,2.8c-0.4,0.2,0.7-0.2,0.7-0.2c-0.3,1.1-0.7,2.2-1.1,3.2
						c0.3-0.1,0.5-0.1,0.7-0.2c-0.2,0.5-0.4,1-0.7,1.5c-0.1-0.3-0.4-1-0.2-0.8l0.4,0.3c0,0-1-2.3-1.1-2.4c0-0.1,0.3,0,0.4,0.2
						c-0.3-0.6-1.9-4.1-1.9-4.1v0.5c-0.4,1.3-1,2.5-1.6,3.7c-0.2,0.1,0.6-0.1,0.6-0.1s-0.6,1.2-0.9,1.7c-0.5-0.6-1.3-1.9-1.3-1.9
						s1.3,0.5,1,0.3c-0.3-0.6-0.5-1.2-0.7-1.8c0,0,0.7,0.3,0.5,0s-0.5-1.4-0.5-1.4s1.2,0.6,0.9,0.3c-0.6-1-1-2.1-1.3-3.2
						c0.2-0.1,1.1,0.2,1.1,0.2c-0.6-0.9-1.2-1.9-1.7-2.9l1,0.7l-1.5-2.3l0.6,0.1c0,0-2.1-5.7-2.1-5.4c0,0.4-1.6,5.9-1.9,6.7
						c0.1-0.2,0.3-0.3,0.5-0.4c0,0.6-0.1,1.2-0.2,1.8c-0.3,0.7-0.7,1.3-1.2,1.8l0.6-0.2c0,0,0.8,0.2,0.4,0.6
						c-0.4,0.7-0.7,1.4-0.8,2.1c0,0,0.6-0.3,0.4,0.5v0.1l-1.1-1.1l0.6,0.1c0,0-2.3-3.8-2.2-3.6c0,0.3-1.7,3.9-2,4.5
						c0.2-0.1,0.3-0.2,0.5-0.2c0,0.4-0.1,0.8-0.3,1.2c-0.3,0.5-0.8,0.9-1.3,1.2l0.7-0.2c0,0,0.9,0.1,0.4,0.4
						c-0.4,0.4-0.7,0.9-0.9,1.4c0,0,0.7-0.2,0.5,0.3v0.1l-1.5-1l0.6,0.1c0,0-2.3-2.7-2.2-2.5c-0.6,1.1-1.3,2.1-2,3.1
						c0.2-0.1,0.4-0.1,0.5-0.2c0,0.3-0.1,0.6-0.3,0.8c-0.4,0.3-0.8,0.6-1.3,0.8l0.7-0.1c0,0,0.9,0,0.4,0.3c-0.4,0.3-0.7,0.6-0.9,1
						c0,0,0.7-0.2,0.5,0.2c-0.2,0.4-0.4,0.9-0.4,0.9h0.7c-0.3,0.2-0.5,0.4-0.7,0.7c-0.1,0.2-0.2,0.5-0.2,0.8c0,0,0.6-0.2,0.6,0
						c0,0.2-0.7,1.2-0.5,1c0.1-0.2,0.9-0.2,0.9-0.2l-0.3,0.4h-1.4v5.2h74v-5.2L378.1,182.3z M323.6,180.6c0,0-0.1,0.4-0.2,0.8
						c-0.1-0.2-0.1-0.4-0.2-0.6L323.6,180.6z M323.5,179.5c0.1,0,0.1,0,0,0.2C323.5,179.6,323.5,179.5,323.5,179.5L323.5,179.5z
						 M363.3,160.7c0.3-0.1,0.6-0.1,0.8,0l-0.5,0.9C363.4,161.2,363.2,160.8,363.3,160.7L363.3,160.7z M347.4,175.6l-0.1,0.2
						l-0.4-0.4L347.4,175.6z M343,179.8L343,179.8L343,179.8L343,179.8z M342.2,178.1c0.1,0.1,0.2,0.2,0.3,0.2l-0.1,0.2h0.2l0.3,0.2
						c0,0,0,0.1,0,0.1c-0.1,0.1-0.1,0.3-0.2,0.5C342.3,178.5,342,177.9,342.2,178.1L342.2,178.1z M335.5,173.2l-0.1,0.4l-0.1-0.3
						L335.5,173.2z M335.4,173.6l-0.2,0.8c-0.1-0.3-0.2-0.7-0.3-1h0.2L335.4,173.6z M334.9,173.3
						C334.9,173.3,334.9,173.3,334.9,173.3L334.9,173.3C334.8,173.2,334.9,173.2,334.9,173.3L334.9,173.3z M324.3,176.3v0.2
						c-0.1,0-0.1-0.1-0.1-0.1L324.3,176.3z M324.2,176.6c-0.1,0.4-0.3,1-0.5,1.4c-0.2-0.5-0.3-1-0.4-1.6
						C323.7,176.5,324,176.5,324.2,176.6L324.2,176.6z M323.7,178.3c0,0.1-0.1,0.1-0.1,0.2c0.2,0,0.3-0.1,0.5-0.2
						c-0.1,0.4-0.3,0.7-0.5,1.1l0,0c-0.1-0.6-0.2-1.2-0.2-1.2C323.4,178.2,323.5,178.2,323.7,178.3L323.7,178.3z M323.5,180.2
						c-0.1,0.2-0.1,0.4-0.2,0.5c-0.1-0.4-0.2-0.8-0.2-0.8L323.5,180.2z M323.3,182.1c0,0.1-0.1,0.1-0.1,0.2l0,0c0-0.1,0-0.2,0-0.3
						L323.3,182.1z M312.7,179.8L312.7,179.8L312.7,179.8L312.7,179.8z M318.3,173.8l-0.1,0.2c0-0.1,0-0.1-0.1-0.2H318.3z
						 M318,172.2l-0.1,0.3c-0.3-0.3-0.5-0.6-0.5-0.6L318,172.2z M313.2,177.3c-0.1,0.1-0.2,0.2-0.3,0.3l-0.2-0.3H313.2z M313,176.2
						l-0.1,0.4c-0.4-0.3-0.9-0.7-0.9-0.7L313,176.2z M308,182.2L308,182.2l-0.3,0.1C307.9,182.2,308.2,182,308,182.2L308,182.2z"/>
				</g>
			</g>
			<g>
				<g class="st23">
					<path class="st3" d="M-8.3,140c0.1-0.1,0.1-0.2,0.2-0.3C-8.2,140-8.3,140.1-8.3,140z"/>
					<path class="st3" d="M-19.5,166.9c0-0.1,0.1-0.1,0.2-0.2C-19.4,166.9-19.5,167-19.5,166.9z"/>
					<path class="st3" d="M57.6,149.9c0-0.1,0.1-0.1,0.1-0.2C57.6,149.9,57.6,149.9,57.6,149.9z"/>
					<path class="st3" d="M69.5,157c0,0,0-0.1,0.1-0.1C69.5,157,69.4,157,69.5,157z"/>
					<path class="st3" d="M46.7,150.4c0-0.1,0.1-0.1,0.1-0.2C46.7,150.3,46.7,150.4,46.7,150.4z"/>
					<path class="st3" d="M20.5,128.1c0,0,0.1,0.1,0.1,0.2C20.6,128.2,20.6,128.2,20.5,128.1z"/>
					<path class="st3" d="M95.3,152.5L95.3,152.5C95.4,152.6,95.3,152.6,95.3,152.5z"/>
					<path class="st3" d="M104.9,159.2C104.9,159.2,104.9,159.2,104.9,159.2L104.9,159.2z"/>
					<path class="st3" d="M86.4,141.8c0,0,0,0.1,0,0.1C86.4,141.9,86.5,141.9,86.4,141.8z"/>
					<path class="st3" d="M42.5,158.3L42.5,158.3C42.5,158.4,42.6,158.4,42.5,158.3z"/>
					<path class="st3" d="M-20.4,180.4l6,8.4l135.1-1.7l20.8-0.4l-24.9-11.6c-0.8-0.4-1.5-0.8-2.4-1l-8.3-2.6l-0.5-0.7
						c0,0,1.3,0,1.6,0.3s-0.9-1.3-1-1.7c-0.1-0.4,1,0,1,0c-0.1-0.5-0.2-0.9-0.4-1.3c-0.3-0.5-0.7-0.9-1.2-1.2h1.2l-0.8-1.6
						c-0.3-0.7,0.8-0.4,0.8-0.4c-0.4-0.7-0.9-1.3-1.6-1.7c-0.9-0.4,0.8-0.5,0.8-0.5l1.2,0.2c-0.8-0.4-1.6-0.9-2.2-1.4
						c-0.3-0.4-0.4-0.9-0.5-1.4c0.3,0,0.7,0.1,1,0.3c-1.3-1.7-2.5-3.5-3.6-5.3c0.1-0.3-3.9,4.3-3.9,4.3l1.1-0.1l-2.5,1.8v-0.1
						c-0.3-0.9,0.8-0.6,0.8-0.6c-0.3-0.9-0.9-1.8-1.6-2.5c-0.9-0.6,0.8-0.7,0.8-0.7l1.2,0.3c-0.9-0.6-1.6-1.3-2.2-2.1
						c-0.3-0.6-0.4-1.3-0.5-2c0.4,0.1,0.7,0.2,1,0.4c-0.5-0.9-3.6-7.3-3.6-7.7c0.1-0.4-4,6.1-4,6.1l1.1-0.2l-1.9,1.8v-0.1
						c-0.3-1.4,0.8-0.8,0.8-0.8c-0.3-1.3-0.9-2.6-1.6-3.7c-0.8-0.8,0.7-1.1,0.7-1.1l1.1,0.4c-0.8-0.9-1.5-2-2-3.1
						c-0.3-1-0.4-2-0.4-3c0.4,0.1,0.7,0.3,0.9,0.6c-0.4-1.3-3.4-10.9-3.3-11.5c0-0.6-3.6,9.2-3.6,9.2l1-0.2l-2.6,4l1.8-1.2
						c-0.9,1.7-1.9,3.4-3,4.9c0,0,1.6-0.7,1.8-0.4c0.3,0.3-1.7,5.1-2.2,5.5c-0.5,0.4,1.6-0.6,1.6-0.6s-0.7,1.8-1,2.4
						c-0.3,0.5,1-0.1,1-0.1c-0.2,1.1-0.6,2.2-1.2,3.2c-0.5,0.3,1.8-0.5,1.8-0.5s-1.4,2.3-2.2,3.4c-0.6-1-1.2-2-1.7-3
						c0,0,1.4,0.5,1,0.3c-0.4-0.2-2.7-6.4-2.7-6.4V151c0,0-2.9,6.1-3.4,7c0.2-0.2,0.8-0.4,0.7-0.3l-1.9,4.2l0.7-0.5
						c0.4-0.3-0.1,0.9-0.3,1.4c-0.5-0.8-1-1.7-1.3-2.6c0.4,0.2,0.9,0.3,1.3,0.4c-0.3-0.2-2-5.5-2-5.5s1.9,0.6,1.3,0.3
						c-0.7-0.3-3-4.8-3-4.8s2.1,0.7,1.5,0.4c-0.6-0.3-4-9.2-4-9.2v-1.2c0,0-4.2,8.8-5,10.2c0.3-0.3,1.2-0.6,1-0.4l-2.2,4.8
						c-0.9-1.3-2.4-4.2-2.4-4.2s2.1,0.7,1.5,0.4c-0.6-0.3-4-9.2-4-9.2v-1.2c0,0-4.2,8.8-5,10.2c0.3-0.3,1.2-0.6,1.1-0.4
						s-2.8,6.1-2.8,6.1l0.9-0.7c0.6-0.5-0.3,1.7-0.4,2.2c-0.6,1-1.2,2-2,3c0,0,1.3-1.3,0.9-0.1c-0.3,0.9-0.7,1.8-1.2,2.6
						c-0.3-0.5-0.7-0.9-1.1-1.3c-0.8-0.4,0.7-0.6,0.7-0.6l1.2,0.2c-0.8-0.4-1.5-1-2.1-1.7c-0.2-0.5-0.4-1.1-0.4-1.6
						c0.3,0,0.7,0.2,0.9,0.3c-1.2-2-2.4-4.1-3.4-6.3c0-0.4-3.7,5-3.7,5l1-0.1l-1.7,1.4c-0.2-0.6-0.3-1,0-0.9c0.7,0.2,0.6,0,0-0.4
						c-0.6-0.4-1.5-2.6-1.5-2.6c0.5,0.2,1,0.3,1.5,0.4c-0.9-1.8-1.6-3.6-2.3-5.5c0,0,2.2,0.6,1.4,0.3c-0.7-0.3-3.3-4.8-3.3-4.8
						s2.4,0.7,1.7,0.4c-0.6-0.3-4.5-9.2-4.5-9.2v-1.2c0,0-4.7,8.8-5.6,10.2c0.4-0.3,1.3-0.6,1.2-0.4c-0.1,0.1-0.4,0.7-0.8,1.5
						c-0.1-0.3-0.3-0.7-0.5-1l0.1-0.1l-0.1,0.1c-0.4-0.6-0.9-1.1-1.4-1.6H23c0,0-0.7-2.1-1.3-3.7c-0.5-1.6,1.4-0.9,1.4-0.9
						s-1.2-3.1-2.6-4c-1.4-0.9,1.2-1.2,1.2-1.2l2,0.4c0,0-2.9-2-3.6-3.4c-0.4-1-0.7-2.2-0.8-3.3c0.6,0.1,1.1,0.3,1.6,0.7
						c-0.8-1.5-5.9-11.8-5.8-12.6c0.1-0.7-6.4,10-6.4,10l1.8-0.3l-4.5,4.3l3.2-1.3c0,0-2.3,2.6-4,4.2c-1.7-3.1-3.1-5.9-3.1-5.9V126
						c0,0-8.1,12.8-9.6,14.9c0.6-0.5,2.2-0.9,2-0.5c-0.2,0.4-5.4,8.9-5.4,8.9l1.8-1c1.2-0.7-0.6,2.5-0.9,3.2c-1.2,1.6-2.4,3-3.8,4.4
						c0,0,2.5-1.8,1.8-0.1c-1,1.9-2.2,3.8-3.6,5.5c0,0,2-1.1,2.7-1.6s-2.2,4-3.4,5.1c-0.8,0.8-2.2,2.5-2.7,3.1
						c0.7-0.2,1.3-0.3,2-0.3l-2.3,4.1L-20.4,180.4z M78,168.8c-0.1,0.4-0.2,0.7-0.3,1c-0.2-0.7-0.3-1.4-0.3-1.4L78,168.8z
						 M77.5,166.9c0-0.2,0-0.3,0.1-0.3S77.5,166.8,77.5,166.9z M6.4,136c-0.3-0.5-0.6-1-0.9-1.6c0.5-0.1,1-0.1,1.5,0
						C7.2,134.4,6.9,135.1,6.4,136z M36,159.5l-0.6,0.6c0-0.1-0.1-0.2-0.1-0.3L36,159.5z M43.1,167.1L43.1,167.1H43H43.1z
						 M43.7,166.1c-0.1-0.3-0.2-0.5-0.3-0.8c0-0.1,0-0.1,0-0.2l0.5-0.4c0.1,0,0.3,0,0.4,0.1l-0.1-0.3c0.2-0.2,0.4-0.3,0.5-0.4
						C44.7,164,44.3,165,43.7,166.1L43.7,166.1z M56.7,155.8l-0.2,0.5l-0.2-0.7L56.7,155.8z M57.2,155.9l0.3,0.1
						c-0.1,0.6-0.3,1.2-0.6,1.8c-0.2-0.5-0.3-1-0.4-1.3L57.2,155.9z M57.5,155.9L57.5,155.9c-0.1,0-0.1-0.1-0.2-0.1
						C57.5,155.7,57.6,155.8,57.5,155.9L57.5,155.9z M76.5,161.1c-0.1,0.1-0.2,0.2-0.2,0.2c-0.1-0.2-0.1-0.4-0.1-0.4L76.5,161.1z
						 M77.8,161.3c0,0.9-0.2,1.8-0.6,2.7c-0.3-0.7-0.6-1.8-0.8-2.4C76.8,161.5,77.3,161.4,77.8,161.3L77.8,161.3z M78,164.4
						c0,0-0.2,1-0.4,2l0,0c-0.4-0.5-0.7-1.2-0.9-1.8c0.3,0.1,0.6,0.2,0.9,0.3c-0.1-0.1-0.1-0.3-0.2-0.4
						C77.6,164.4,77.8,164.4,78,164.4L78,164.4z M78.3,167.2c0,0-0.1,0.7-0.3,1.4c-0.1-0.2-0.2-0.5-0.3-0.9L78.3,167.2z M78.3,171
						c0,0,0,0.2-0.1,0.5c0,0,0,0,0-0.1c-0.1-0.1-0.2-0.2-0.2-0.3L78.3,171z M87.2,156.9c0,0.1-0.1,0.2-0.1,0.3
						c-0.1-0.2-0.2-0.3-0.2-0.3H87.2z M88.4,153.7c0,0-0.4,0.4-0.9,1c0-0.2-0.1-0.4-0.1-0.6L88.4,153.7z M96.5,167.2L96.5,167.2h0.2
						H96.5z M96.5,163c-0.1,0.1-0.2,0.3-0.4,0.5c-0.1-0.2-0.3-0.3-0.5-0.5H96.5z M97.9,160.4c0,0-0.7,0.6-1.5,1.2
						c-0.1-0.2-0.2-0.5-0.2-0.7L97.9,160.4z M105.8,171.5h-0.5l-0.1-0.1C104.9,170.9,105.4,171.2,105.8,171.5z"/>
				</g>
			</g>
			<path class="st3" d="M99.9,198.2c-0.2-0.2-0.4-0.3-0.6-0.4c-0.2-0.2-0.4-0.3-0.6-0.4c-0.2-0.2-0.4-0.3-0.6-0.4
				c-0.2-0.2-0.4-0.3-0.6-0.4c-0.2-0.2-0.4-0.3-0.6-0.4c-0.2-0.2-0.4-0.3-0.6-0.4c-0.2-0.2-0.4-0.3-0.6-0.4
				c-0.2-0.2-0.4-0.3-0.6-0.4c-1.3-1.1-3.3-1.2-5.5,0.1l-75.3,43.5c-4.2,2.7-6.8,7.2-7.1,12.2V300c0,2.3,0.8,3.9,2.1,4.6
				c0.2,0.2,0.4,0.3,0.6,0.4c0.2,0.2,0.4,0.3,0.6,0.4c0.2,0.2,0.4,0.3,0.6,0.4c0.2,0.2,0.4,0.3,0.6,0.4c0.2,0.2,0.4,0.3,0.6,0.4
				c0.2,0.2,0.4,0.3,0.6,0.4c0.2,0.2,0.4,0.3,0.6,0.4c0.2,0.2,0.4,0.3,0.6,0.4c1.3,1.1,3.3,1.2,5.5-0.1L95,264.4
				c4.1-2.7,6.8-7.2,7-12.2v-49.5C102,200.5,101.2,198.8,99.9,198.2z"/>
			<path class="st24" d="M98.2,200.7c0.2,0,0.4,0.1,0.5,0.2c0.3,0.6,0.5,1.2,0.4,1.9v49.5c-0.3,3.9-2.3,7.5-5.6,9.6l-75.3,43.5
				c-0.5,0.3-1.1,0.5-1.7,0.6c-0.2,0-0.4-0.1-0.5-0.2c-0.3-0.6-0.5-1.2-0.4-1.9v-49.4c0.3-3.9,2.3-7.5,5.6-9.6l75.3-43.5
				C97,201,97.6,200.8,98.2,200.7"/>
			<path class="st25" d="M71.1,339.1c-0.4,0-0.7,0-1.2,0c-6.8-0.2-12.2-7-15.4-12.9c-2.1-3.8-4.2-8.5-2.5-12.5
				c1.7-4,0.7-9.5-2.4-5.9c-1.4,1.6-4.5,3.9-4.7,4.7c-0.7,2.1-0.1,4.6,0.3,6.8c0.9,5.1,0.9,7.4,1.8,10.8c0.8,3.2,1.9,6.3,3.2,9.3
				c2.2,5.2,5.8,9.7,10.3,13.1c5.2,3.7,12.8,1.4,15.2,11.3c1.3,4.8,1.4,9.9,0.5,14.8c11.9-7.6,24.4-14.2,37.3-19.8
				c5.6-2.4,11.6-4.7,15.7-9.3c1-0.8,1.5-2.1,1.4-3.4c-0.3-1.3-1.6-2-2.7-2.6c-5.2-2.7-10.2-5.9-14.9-9.5c-4.6-3.5-9.4-7.6-15.2-7.7
				C88.1,326.2,80.8,338.6,71.1,339.1z"/>
			<path class="st25" d="M106.6,279.9c-7.2-0.7-10.9,2.7-14,8.6c-0.8,1.5-0.2,5.5-0.2,7.6c0,4.4,0.1,12.3,3.3,15.2
				c2.4,2,3.6,0.7,5,2.8c1.5,2.1,0.6,4.9-0.2,7c-1,2.7-5.6,4.9-7.1,5.9c-2.5,1.7-8.4,4.6-9.3,5.7c-9.2,11.2-15.5,37,3.1,41.7
				c5.5,1.4,5.1-14.8,21.4-9.4c1.3,0.4,8.8,1.4,10.7-1.5c12.6-20.5,9.8-65.5-7.6-81.6C108.3,278.9,108.2,280.1,106.6,279.9z"/>
			<path class="st26" d="M71.4,337.7h-0.3c-3.3,0.6-7,0.1-9.5-2.2c-1.9-1.8-3-4.5-5.5-5.1c-2-0.5-4.1,0.7-5.7,2
				c-1.3,0.9-2.1,2.4-1.9,4c0.3,1.4,0.7,2.8,1.2,4.2c1.1,3,2.8,5.6,5,7.9c1.4,1.5,3,2.7,4.8,3.7c4.7,2.7,10.8,3.8,13.9,8.3
				c1.8,2.8,2.5,6.1,2,9.4c-0.5,3.2-1.4,6.4-2.7,9.4c10.6-0.7,21-3,30.9-6.8c9.9-3.9,18.8-10.1,25.8-18.1c1.7-2,3.4-4.3,3.5-7
				c0.1-1-0.2-2-0.9-2.8c-0.8-0.6-1.8-1-2.7-1.1c-8.4-1.7-15.8-6.8-22.1-12.7c-2.6-2.4-5.3-5.1-8.8-5.3c-2.6-0.2-5.1,1.2-7.4,2.5
				l-10.6,5.8C77.6,335.6,74.6,336.9,71.4,337.7z"/>
			<path class="st27" d="M92,291.2c0.3-7.1,4.4-11.5,11.4-13s15.4,4.7,18.8,8.9c4.6,5.6,4,9.7,8.3,14c3.9,3.9,8.8,4.3,12.9,7.4
				c5.8,4.4,6.4,11.1,11.6,16c5.4,5.2,12.3,3.7,18.1,9.2c5.4,5.1,10.5,13.4,8.4,22.2c-4.1,17-24.2,24.8-40,22.3
				c-16.1-2.5-30.2-13.1-31.8-29.1c-0.4-3.6,1.6-6.2-0.2-9.9c-1.8-3.7-4.7-3.9-7.4-7.6c-4.4-6-3-15.8-4.9-23.7
				C96.1,303.1,91.8,296.6,92,291.2z"/>
			<polygon class="st3" points="286.4,201.1 317.8,172.1 349.2,201.1 349.2,171.2 286.4,171.2 			"/>
			
				<linearGradient id="SVGID_18_" gradientUnits="userSpaceOnUse" x1="-13346.4229" y1="183.0432" x2="-13273.668" y2="183.0432" gradientTransform="matrix(-1 0 0 -1 -12992.2402 350.5858)">
				<stop  offset="0" style="stop-color:#002E61"/>
				<stop  offset="0.27" style="stop-color:#012C5F"/>
				<stop  offset="1" style="stop-color:#110A2D"/>
			</linearGradient>
			<rect x="281.4" y="163.7" class="st28" width="72.8" height="7.7"/>
			
				<linearGradient id="SVGID_19_" gradientUnits="userSpaceOnUse" x1="-13335.4707" y1="199.2339" x2="-13284.6084" y2="199.2339" gradientTransform="matrix(-1 0 0 -1 -12992.2402 350.5858)">
				<stop  offset="0" style="stop-color:#002E61"/>
				<stop  offset="0.27" style="stop-color:#012C5F"/>
				<stop  offset="1" style="stop-color:#110A2D"/>
			</linearGradient>
			<rect x="292.4" y="139.3" class="st29" width="50.9" height="24.2"/>
			<rect x="332" y="146.8" class="st2" width="3.5" height="3.5"/>
			<rect x="325.6" y="146.8" class="st2" width="3.5" height="3.5"/>
			<rect x="319.3" y="146.8" class="st2" width="3.5" height="3.5"/>
			<rect x="312.9" y="146.8" class="st2" width="3.5" height="3.5"/>
			<rect x="306.5" y="146.8" class="st2" width="3.5" height="3.5"/>
			<rect x="300.2" y="146.8" class="st2" width="3.5" height="3.5"/>
			<rect x="166.4" y="118" class="st30" width="58.1" height="48.1"/>
			<rect x="207.1" y="156.8" class="st31" width="11.6" height="11.6"/>
			<rect x="195.5" y="156.8" class="st32" width="11.6" height="11.6"/>
			<rect x="183.9" y="156.8" class="st33" width="11.6" height="11.6"/>
			<rect x="172.3" y="156.8" class="st32" width="11.6" height="11.6"/>
			<rect x="160.7" y="156.8" class="st34" width="11.6" height="11.6"/>
			<rect x="218.7" y="156.8" class="st33" width="11.6" height="11.6"/>
			<rect x="160.7" y="133.5" class="st32" width="11.6" height="11.6"/>
			<rect x="172.3" y="133.5" class="st31" width="11.6" height="11.6"/>
			<rect x="183.9" y="133.5" class="st35" width="11.6" height="11.6"/>
			<rect x="195.5" y="133.5" class="st34" width="11.6" height="11.6"/>
			<rect x="207.1" y="133.5" class="st6" width="11.6" height="11.6"/>
			<rect x="218.7" y="133.5" class="st35" width="11.6" height="11.6"/>
			<rect x="207.1" y="145.2" class="st33" width="11.6" height="11.6"/>
			<rect x="195.5" y="145.2" class="st6" width="11.6" height="11.6"/>
			<rect x="183.9" y="145.2" class="st32" width="11.6" height="11.6"/>
			<rect x="172.3" y="145.2" class="st33" width="11.6" height="11.6"/>
			<rect x="160.7" y="145.2" class="st6" width="11.6" height="11.6"/>
			<rect x="218.7" y="145.2" class="st32" width="11.6" height="11.6"/>
			<path class="st36" d="M253.3,172.3c0,0-34.5,31.6-42.3,58.7h-15.5v-68.4L253.3,172.3z"/>
			<path class="st3" d="M137.7,172.3c0,0,34.5,31.6,42.3,58.7h15.5v-68.4L137.7,172.3z"/>
			<polygon class="st37" points="137.7,172.3 137.7,169.4 195.5,159.4 253.3,169.7 253.3,172.3 195.5,162.6 			"/>
			<rect x="217.4" y="123.2" class="st37" width="2.9" height="2.9"/>
			<rect x="212.2" y="123.2" class="st37" width="2.9" height="2.9"/>
			<rect x="207.1" y="123.2" class="st37" width="2.9" height="2.9"/>
			<rect x="201.9" y="123.2" class="st37" width="2.9" height="2.9"/>
			<rect x="196.7" y="123.2" class="st37" width="2.9" height="2.9"/>
			<rect x="191.6" y="123.2" class="st37" width="2.9" height="2.9"/>
			<rect x="186.4" y="123.2" class="st37" width="2.9" height="2.9"/>
			<rect x="181.2" y="123.2" class="st37" width="2.9" height="2.9"/>
			<rect x="176.1" y="123.2" class="st37" width="2.9" height="2.9"/>
			<rect x="170.9" y="123.2" class="st37" width="2.9" height="2.9"/>
			<path class="st30" d="M186.8,115.2h-10.7l0,0V89l0,0h8.5c1.2,0,2.1,1,2.1,2.1V115.2L186.8,115.2z"/>
			<polygon class="st37" points="166.3,118.1 224.7,118.1 227.9,113.2 163,113.2 			"/>
			<rect x="176.1" y="96.1" class="st27" width="10.7" height="1.3"/>
			<path class="st27" d="M212.4,227.6l-16.9-3.1l-16.9,3.1c0,0-0.6-1.5-0.7-1.9s17.7-3.7,17.7-3.7l17.7,3.7
				C213.2,225.7,212.5,227.3,212.4,227.6z"/>
			
				<rect x="282.6" y="58.5" transform="matrix(0.6525 -0.7578 0.7578 0.6525 19.4571 251.3571)" class="st3" width="2.5" height="92"/>
			<rect x="287.7" y="48" transform="matrix(0.3751 -0.927 0.927 0.3751 105.2479 318.1431)" class="st3" width="1.7" height="66"/>
			<polyline class="st38" points="340.8,139.3 319.9,88.3 264.5,63.3 			"/>
			<path class="st3" d="M319.9,144.5L319.9,144.5c-1.4,0-2.6-1.1-2.6-2.6V89.4c0-1.4,1.1-2.6,2.6-2.6h0c1.4,0,2.6,1.1,2.6,2.6V142
				C322.5,143.4,321.3,144.5,319.9,144.5z"/>
			
				<rect x="231.2" y="66.8" transform="matrix(0.893 -0.4501 0.4501 0.893 -8.5542 112.1988)" class="st3" width="1" height="14.7"/>
			
				<rect x="219.9" y="77.3" transform="matrix(0.893 -0.4501 0.4501 0.893 -13.147 107.8708)" class="st3" width="0.8" height="8.6"/>
			
				<rect x="245.2" y="65.4" transform="matrix(0.893 -0.4501 0.4501 0.893 -5.117 117.9855)" class="st3" width="0.8" height="8.7"/>
			<polyline class="st38" points="200.5,96.1 228.3,67.5 269.5,62.8 			"/>
			<path class="st3" d="M206.7,97.4l62.7-31.6c1.1-0.5,1.5-1.9,1-2.9l0,0c-0.5-1.1-1.9-1.5-2.9-1l-67.3,34l-1.2,0.6L206.7,97.4z"/>
			<polygon class="st36" points="319.7,294.7 331.3,294.7 331.3,255.9 331.3,246.6 319.7,240.1 			"/>
			<rect x="296.5" y="240.1" class="st3" width="23.2" height="54.6"/>
			<rect x="298.3" y="245.3" class="st35" width="1.7" height="1.7"/>
			<circle class="st27" cx="316" cy="246" r="0.6"/>
			<circle class="st27" cx="313.9" cy="246" r="0.6"/>
			<circle class="st27" cx="311.8" cy="246" r="0.6"/>
			<circle class="st39" cx="309.7" cy="246" r="0.6"/>
			<rect x="298.3" y="248.6" class="st35" width="1.7" height="1.7"/>
			<circle class="st27" cx="316" cy="249.4" r="0.6"/>
			<circle class="st27" cx="313.9" cy="249.4" r="0.6"/>
			<circle class="st27" cx="311.8" cy="249.4" r="0.6"/>
			<circle class="st39" cx="309.7" cy="249.4" r="0.6"/>
			<g class="st40">
				<line class="st41" x1="321.3" y1="243.7" x2="329.6" y2="248.5"/>
				<line class="st41" x1="321.3" y1="244.6" x2="329.6" y2="249.4"/>
				<line class="st41" x1="321.3" y1="245.4" x2="329.6" y2="250.2"/>
				<line class="st41" x1="321.3" y1="246.2" x2="329.6" y2="251"/>
				<line class="st41" x1="321.3" y1="247" x2="329.6" y2="251.8"/>
				<line class="st41" x1="321.3" y1="247.9" x2="329.6" y2="252.7"/>
				<line class="st41" x1="321.3" y1="248.7" x2="329.6" y2="253.5"/>
				<line class="st41" x1="321.3" y1="249.5" x2="329.6" y2="254.3"/>
				<line class="st41" x1="321.3" y1="250.3" x2="329.6" y2="255.1"/>
				<line class="st41" x1="321.3" y1="251.2" x2="329.6" y2="256"/>
				<line class="st41" x1="321.3" y1="252" x2="329.6" y2="256.8"/>
				<line class="st41" x1="321.3" y1="252.8" x2="329.6" y2="257.6"/>
				<line class="st41" x1="321.3" y1="253.7" x2="329.6" y2="258.4"/>
				<line class="st41" x1="321.3" y1="254.5" x2="329.6" y2="259.3"/>
				<line class="st41" x1="321.3" y1="255.3" x2="329.6" y2="260.1"/>
				<line class="st41" x1="321.3" y1="256.1" x2="329.6" y2="260.9"/>
				<line class="st41" x1="321.3" y1="257" x2="329.6" y2="261.8"/>
				<line class="st41" x1="321.3" y1="257.8" x2="329.6" y2="262.6"/>
				<line class="st41" x1="321.3" y1="258.6" x2="329.6" y2="263.4"/>
				<line class="st41" x1="321.3" y1="259.4" x2="329.6" y2="264.2"/>
				<line class="st41" x1="321.3" y1="260.3" x2="329.6" y2="265.1"/>
				<line class="st41" x1="321.3" y1="261.1" x2="329.6" y2="265.9"/>
				<line class="st41" x1="321.3" y1="261.9" x2="329.6" y2="266.7"/>
				<line class="st41" x1="321.3" y1="262.8" x2="329.6" y2="267.6"/>
				<line class="st41" x1="321.3" y1="263.6" x2="329.6" y2="268.4"/>
				<line class="st41" x1="321.3" y1="264.4" x2="329.6" y2="269.2"/>
				<line class="st41" x1="321.3" y1="265.2" x2="329.6" y2="270"/>
				<line class="st41" x1="321.3" y1="266.1" x2="329.6" y2="270.9"/>
				<line class="st41" x1="321.3" y1="266.9" x2="329.6" y2="271.7"/>
				<line class="st41" x1="321.3" y1="267.7" x2="329.6" y2="272.5"/>
				<line class="st41" x1="321.3" y1="268.5" x2="329.6" y2="273.3"/>
				<line class="st41" x1="321.3" y1="269.4" x2="329.6" y2="274.2"/>
				<line class="st41" x1="321.3" y1="270.2" x2="329.6" y2="275"/>
				<line class="st41" x1="321.3" y1="271" x2="329.6" y2="275.8"/>
				<line class="st41" x1="321.3" y1="271.8" x2="329.6" y2="276.6"/>
				<line class="st41" x1="321.3" y1="272.7" x2="329.6" y2="277.5"/>
				<line class="st41" x1="321.3" y1="273.5" x2="329.6" y2="278.3"/>
				<line class="st41" x1="321.3" y1="274.3" x2="329.6" y2="279.1"/>
				<line class="st41" x1="321.3" y1="275.2" x2="329.6" y2="280"/>
				<line class="st41" x1="321.3" y1="276" x2="329.6" y2="280.8"/>
				<line class="st41" x1="321.3" y1="276.8" x2="329.6" y2="281.6"/>
				<line class="st41" x1="321.3" y1="277.6" x2="329.6" y2="282.4"/>
				<line class="st41" x1="321.3" y1="278.5" x2="329.6" y2="283.3"/>
				<line class="st41" x1="321.3" y1="279.3" x2="329.6" y2="284.1"/>
				<line class="st41" x1="321.3" y1="280.1" x2="329.6" y2="284.9"/>
				<line class="st41" x1="321.3" y1="281" x2="329.6" y2="285.7"/>
				<line class="st41" x1="321.3" y1="281.8" x2="329.6" y2="286.6"/>
				<line class="st41" x1="321.3" y1="282.6" x2="329.6" y2="287.4"/>
				<line class="st41" x1="321.3" y1="283.4" x2="329.6" y2="288.2"/>
				<line class="st41" x1="321.3" y1="284.3" x2="329.6" y2="289.1"/>
				<line class="st41" x1="321.3" y1="285.1" x2="329.6" y2="289.9"/>
				<line class="st41" x1="321.3" y1="285.9" x2="329.6" y2="290.7"/>
				<line class="st41" x1="321.3" y1="286.7" x2="329.6" y2="291.5"/>
				<line class="st41" x1="321.3" y1="287.6" x2="329.6" y2="292.4"/>
				<line class="st41" x1="321.3" y1="288.4" x2="329.6" y2="293.2"/>
				<line class="st41" x1="321.3" y1="289.2" x2="329.6" y2="294"/>
			</g>
			<polygon class="st36" points="342.7,294.5 350.1,294.5 350.1,269.7 350.1,263.8 342.7,259.7 			"/>
			<rect x="328" y="259.7" class="st3" width="14.8" height="34.7"/>
			<rect x="329.1" y="263" class="st35" width="1.1" height="1.1"/>
			<circle class="st27" cx="340.4" cy="263.5" r="0.4"/>
			<circle class="st27" cx="339.1" cy="263.5" r="0.4"/>
			<circle class="st27" cx="337.7" cy="263.5" r="0.4"/>
			<circle class="st39" cx="336.4" cy="263.5" r="0.4"/>
			<rect x="329.1" y="265.1" class="st35" width="1.1" height="1.1"/>
			<circle class="st27" cx="340.4" cy="265.6" r="0.4"/>
			<circle class="st27" cx="339.1" cy="265.6" r="0.4"/>
			<circle class="st27" cx="337.7" cy="265.6" r="0.4"/>
			<circle class="st39" cx="336.4" cy="265.6" r="0.4"/>
			<g class="st40">
				<line class="st42" x1="343.8" y1="262" x2="349.1" y2="265.1"/>
				<line class="st42" x1="343.8" y1="262.5" x2="349.1" y2="265.6"/>
				<line class="st42" x1="343.8" y1="263.1" x2="349.1" y2="266.1"/>
				<line class="st42" x1="343.8" y1="263.6" x2="349.1" y2="266.6"/>
				<line class="st42" x1="343.8" y1="264.1" x2="349.1" y2="267.2"/>
				<line class="st42" x1="343.8" y1="264.6" x2="349.1" y2="267.7"/>
				<line class="st42" x1="343.8" y1="265.2" x2="349.1" y2="268.2"/>
				<line class="st42" x1="343.8" y1="265.7" x2="349.1" y2="268.7"/>
				<line class="st42" x1="343.8" y1="266.2" x2="349.1" y2="269.3"/>
				<line class="st42" x1="343.8" y1="266.7" x2="349.1" y2="269.8"/>
				<line class="st42" x1="343.8" y1="267.3" x2="349.1" y2="270.3"/>
				<line class="st42" x1="343.8" y1="267.8" x2="349.1" y2="270.8"/>
				<line class="st42" x1="343.8" y1="268.3" x2="349.1" y2="271.4"/>
				<line class="st42" x1="343.8" y1="268.8" x2="349.1" y2="271.9"/>
				<line class="st42" x1="343.8" y1="269.4" x2="349.1" y2="272.4"/>
				<line class="st42" x1="343.8" y1="269.9" x2="349.1" y2="273"/>
				<line class="st42" x1="343.8" y1="270.4" x2="349.1" y2="273.5"/>
				<line class="st42" x1="343.8" y1="271" x2="349.1" y2="274"/>
				<line class="st42" x1="343.8" y1="271.5" x2="349.1" y2="274.5"/>
				<line class="st42" x1="343.8" y1="272" x2="349.1" y2="275.1"/>
				<line class="st42" x1="343.8" y1="272.5" x2="349.1" y2="275.6"/>
				<line class="st42" x1="343.8" y1="273.1" x2="349.1" y2="276.1"/>
				<line class="st42" x1="343.8" y1="273.6" x2="349.1" y2="276.6"/>
				<line class="st42" x1="343.8" y1="274.1" x2="349.1" y2="277.2"/>
				<line class="st42" x1="343.8" y1="274.6" x2="349.1" y2="277.7"/>
				<line class="st42" x1="343.8" y1="275.2" x2="349.1" y2="278.2"/>
				<line class="st42" x1="343.8" y1="275.7" x2="349.1" y2="278.7"/>
				<line class="st42" x1="343.8" y1="276.2" x2="349.1" y2="279.3"/>
				<line class="st42" x1="343.8" y1="276.7" x2="349.1" y2="279.8"/>
				<line class="st42" x1="343.8" y1="277.3" x2="349.1" y2="280.3"/>
				<line class="st42" x1="343.8" y1="277.8" x2="349.1" y2="280.8"/>
				<line class="st42" x1="343.8" y1="278.3" x2="349.1" y2="281.4"/>
				<line class="st42" x1="343.8" y1="278.8" x2="349.1" y2="281.9"/>
				<line class="st42" x1="343.8" y1="279.4" x2="349.1" y2="282.4"/>
				<line class="st42" x1="343.8" y1="279.9" x2="349.1" y2="283"/>
				<line class="st42" x1="343.8" y1="280.4" x2="349.1" y2="283.5"/>
				<line class="st42" x1="343.8" y1="281" x2="349.1" y2="284"/>
				<line class="st42" x1="343.8" y1="281.5" x2="349.1" y2="284.5"/>
				<line class="st42" x1="343.8" y1="282" x2="349.1" y2="285.1"/>
				<line class="st42" x1="343.8" y1="282.5" x2="349.1" y2="285.6"/>
				<line class="st42" x1="343.8" y1="283.1" x2="349.1" y2="286.1"/>
				<line class="st42" x1="343.8" y1="283.6" x2="349.1" y2="286.6"/>
				<line class="st42" x1="343.8" y1="284.1" x2="349.1" y2="287.2"/>
				<line class="st42" x1="343.8" y1="284.6" x2="349.1" y2="287.7"/>
				<line class="st42" x1="343.8" y1="285.2" x2="349.1" y2="288.2"/>
				<line class="st42" x1="343.8" y1="285.7" x2="349.1" y2="288.7"/>
				<line class="st42" x1="343.8" y1="286.2" x2="349.1" y2="289.3"/>
				<line class="st42" x1="343.8" y1="286.7" x2="349.1" y2="289.8"/>
				<line class="st42" x1="343.8" y1="287.3" x2="349.1" y2="290.3"/>
				<line class="st42" x1="343.8" y1="287.8" x2="349.1" y2="290.9"/>
				<line class="st42" x1="343.8" y1="288.3" x2="349.1" y2="291.4"/>
				<line class="st42" x1="343.8" y1="288.9" x2="349.1" y2="291.9"/>
				<line class="st42" x1="343.8" y1="289.4" x2="349.1" y2="292.4"/>
				<line class="st42" x1="343.8" y1="289.9" x2="349.1" y2="293"/>
				<line class="st42" x1="343.8" y1="290.4" x2="349.1" y2="293.5"/>
				<line class="st42" x1="343.8" y1="291" x2="349.1" y2="294"/>
			</g>
			<g class="st23">
				<line class="st43" x1="229.3" y1="135.3" x2="219.9" y2="135.3"/>
				<line class="st43" x1="229.3" y1="136.1" x2="219.9" y2="136.1"/>
				<line class="st43" x1="229.3" y1="136.9" x2="219.9" y2="136.9"/>
				<line class="st43" x1="229.3" y1="137.7" x2="219.9" y2="137.7"/>
				<line class="st43" x1="229.3" y1="138.5" x2="219.9" y2="138.5"/>
				<line class="st43" x1="229.3" y1="139.3" x2="219.9" y2="139.3"/>
				<line class="st43" x1="229.3" y1="140.1" x2="219.9" y2="140.1"/>
				<line class="st43" x1="229.3" y1="140.9" x2="219.9" y2="140.9"/>
				<line class="st43" x1="229.3" y1="141.7" x2="219.9" y2="141.7"/>
				<line class="st43" x1="229.3" y1="142.5" x2="219.9" y2="142.5"/>
				<line class="st43" x1="229.3" y1="143.3" x2="219.9" y2="143.3"/>
			</g>
			<g class="st23">
				<line class="st43" x1="194.5" y1="146.9" x2="185.1" y2="146.9"/>
				<line class="st43" x1="194.5" y1="147.7" x2="185.1" y2="147.7"/>
				<line class="st43" x1="194.5" y1="148.5" x2="185.1" y2="148.5"/>
				<line class="st43" x1="194.5" y1="149.3" x2="185.1" y2="149.3"/>
				<line class="st43" x1="194.5" y1="150.1" x2="185.1" y2="150.1"/>
				<line class="st43" x1="194.5" y1="150.9" x2="185.1" y2="150.9"/>
				<line class="st43" x1="194.5" y1="151.7" x2="185.1" y2="151.7"/>
				<line class="st43" x1="194.5" y1="152.5" x2="185.1" y2="152.5"/>
				<line class="st43" x1="194.5" y1="153.3" x2="185.1" y2="153.3"/>
				<line class="st43" x1="194.5" y1="154.2" x2="185.1" y2="154.2"/>
				<line class="st43" x1="194.5" y1="155" x2="185.1" y2="155"/>
			</g>
			<g class="st23">
				<line class="st43" x1="171.3" y1="135.3" x2="161.8" y2="135.3"/>
				<line class="st43" x1="171.3" y1="136.1" x2="161.8" y2="136.1"/>
				<line class="st43" x1="171.3" y1="136.9" x2="161.8" y2="136.9"/>
				<line class="st43" x1="171.3" y1="137.7" x2="161.8" y2="137.7"/>
				<line class="st43" x1="171.3" y1="138.5" x2="161.8" y2="138.5"/>
				<line class="st43" x1="171.3" y1="139.3" x2="161.8" y2="139.3"/>
				<line class="st43" x1="171.3" y1="140.1" x2="161.8" y2="140.1"/>
				<line class="st43" x1="171.3" y1="140.9" x2="161.8" y2="140.9"/>
				<line class="st43" x1="171.3" y1="141.7" x2="161.8" y2="141.7"/>
				<line class="st43" x1="171.3" y1="142.5" x2="161.8" y2="142.5"/>
				<line class="st43" x1="171.3" y1="143.3" x2="161.8" y2="143.3"/>
			</g>
			<path class="st5" d="M338.3,294c0.4,1.1-0.9,2.5-1.8,3.7c-3.7,5-8.1,9.4-13.1,13.1c-5,3.8-10.9,6-17.1,6.5
				c-9.7,0.5-18.9-4.3-28.5-5.5c1.7-3.8,3.6-7.6,5.9-11.1c2.3-3.6,5-7,8.6-9.2c5.6-3.3,12.5-3.1,18.9-2.6c8.6,0.7,17.3,1.6,25.6,4
				C337.5,293.1,338,293.5,338.3,294z"/>
			<path class="st2" d="M279,311.4c4.5-1.7,9.1-3.3,13.6-4.8c4.6-1.6,9.1-3.1,13.7-4.6c4.6-1.4,9.2-2.8,13.9-4
				c2.3-0.6,4.7-1,7.1-1.4l7.1-1.1l-7.1,1.3c-2.4,0.4-4.8,0.8-7.1,1.4c-4.7,1.2-9.3,2.7-13.9,4.1s-9.2,2.9-13.8,4.5L279,311.4z"/>
			<path class="st2" d="M316.4,292.6c-0.4,0.4-0.7,0.9-1.1,1.3l-1.1,1.3c-0.4,0.4-0.7,0.9-1.1,1.3c-0.4,0.4-0.7,0.9-1.1,1.3
				c0.5-1,1.1-2,1.9-2.8C314.7,294.1,315.5,293.3,316.4,292.6z"/>
			<path class="st2" d="M324.7,305.1c-1.8-0.1-3.5-0.3-5.2-0.6c-1.7-0.3-3.4-0.9-5-1.8c0.8,0.3,1.6,0.6,2.5,0.8
				c0.8,0.2,1.7,0.4,2.6,0.6c0.9,0.2,1.7,0.3,2.6,0.5L324.7,305.1z"/>
			<path class="st2" d="M317.3,311.4c-2.3-0.7-4.6-1.5-6.8-2.4c-2.2-0.9-4.4-2-6.5-3.2C308.4,307.8,312.9,309.5,317.3,311.4z"/>
			<path class="st2" d="M306.2,291l-1.7,2.1c-0.6,0.7-1.1,1.4-1.6,2.1c-0.5,0.7-1,1.4-1.5,2.2c-0.5,0.7-0.9,1.5-1.2,2.4
				c0.1-0.9,0.4-1.7,0.9-2.5c0.4-0.8,0.9-1.5,1.5-2.2C303.6,293.5,304.8,292.2,306.2,291z"/>
			<path class="st2" d="M305.8,314.3c-2.1-0.5-4.2-1.1-6.3-1.9c-1-0.4-2-0.8-3-1.3c-1-0.5-1.9-1.2-2.6-2c0.3,0.4,0.8,0.8,1.3,1
				c0.5,0.3,0.9,0.5,1.4,0.8c1,0.5,2,0.9,3,1.3s2,0.8,3.1,1.1L305.8,314.3z"/>
			<path class="st2" d="M295.9,295.4c-0.4,0.7-0.9,1.4-1.3,2.1c-0.4,0.7-0.8,1.4-1.2,2.2c-0.4,0.7-0.7,1.5-0.9,2.2
				c-0.3,0.8-0.5,1.6-0.6,2.4c0-1.7,0.4-3.3,1.3-4.8C293.9,298,294.8,296.6,295.9,295.4z"/>
			<path class="st5" d="M274.2,271.1c-5.9,1.4-2.3,9.6-3.6,12.5c-1.3,2.9-6.5-5.6-7.9-2c-1.4,3.6,5,11.6,4.7,12.2
				c-1.2,2.1-7.9-2-7.6,1.9s12.7,8.1,9.1,9.8s-6.1-3.2-7.3-0.3s3.2,11.2,9.5,13s16.4-0.6,18.7-4.9c2.3-4.3,4.7-10,1.4-9
				c-3.4,1-7.5,1.2-6.4-1c1-1.9,9.8-10.8,4.9-10.8c-4.9,0-5.5,3.8-6.8,2c-1.4-1.8,6.4-9.8,5-11.5c-1.4-1.7-3.3,0.3-7.5,1.2
				C276.2,285.3,280.2,269.6,274.2,271.1z"/>
			<path class="st2" d="M277.9,316.5c-1.2-7.1-2.1-14.2-2.7-21.4c-0.4-4.5-0.4-8.9,0-13.4c0.1-1.2,0.9-6.7-0.7-7.5
				c-0.1,0-0.4,0.4-0.6,0.3c1.6,0.7,0.8,5.9,0.8,7c-0.4,4.6-0.4,9.2,0,13.8c0.6,7.2,1.5,14.3,2.7,21.4
				C277.3,316.7,277.9,316.6,277.9,316.5L277.9,316.5z"/>
			<polygon class="st44" points="24.2,255.9 24.2,259.4 51.6,243.6 51.6,240.1 			"/>
			<polygon class="st44" points="54.6,238.3 54.6,241.9 60.7,238.3 60.7,234.8 			"/>
			<polygon class="st44" points="45.5,250.6 45.5,254.2 69.9,240.1 69.9,236.6 			"/>
			<polygon class="st45" points="66.8,231.3 66.8,234.8 82.2,225.9 82.2,222.4 			"/>
			<polygon class="st45" points="42.4,252.4 42.4,255.9 33.3,261.2 33.3,257.7 			"/>
			<polygon class="st44" points="24.2,270 24.2,273.5 39.4,264.7 39.4,261.2 			"/>
			<polygon class="st45" points="42.4,259.4 42.4,263 57.7,254.2 57.7,250.6 			"/>
			<polygon class="st44" points="60.7,248.9 60.7,252.4 88.1,236.6 88.1,233.1 			"/>
			<polygon class="st45" points="72.9,234.8 72.9,238.3 79,234.8 79,231.3 			"/>
			<polygon class="st44" points="36.4,270 36.3,273.5 63.8,257.7 63.8,254.2 			"/>
			<polygon class="st45" points="66.8,252.4 66.8,255.9 72.9,252.4 72.9,248.9 			"/>
			<polygon class="st45" points="75.9,247.1 75.9,250.6 91.2,241.9 91.2,238.3 			"/>
		</g>
	</g>
</g>
</svg>
