<?xml version="1.0" encoding="utf-8"?>
<!-- Generator: Adobe Illustrator 21.0.2, SVG Export Plug-In . SVG Version: 6.00 Build 0)  -->
<svg version="1.1" id="Layer_1" xmlns="http://www.w3.org/2000/svg" xmlns:xlink="http://www.w3.org/1999/xlink" x="0px" y="0px"
	 viewBox="0 0 1000 948.2" style="enable-background:new 0 0 1000 948.2;" xml:space="preserve">
<style type="text/css">
	.st0{fill:url(#SVGID_1_);}
	.st1{fill:#F2F2F2;}
	.st2{fill:#110A2D;}
	.st3{fill:none;stroke:#1D2761;stroke-width:2.462;stroke-miterlimit:10;}
	.st4{fill:#010F27;}
	.st5{fill:#9DD6E7;}
	.st6{filter:url(#Adobe_OpacityMaskFilter);}
	.st7{fill:url(#SVGID_3_);}
	.st8{opacity:0.99;mask:url(#SVGID_2_);}
	.st9{fill:url(#SVGID_4_);}
	.st10{fill:url(#SVGID_5_);}
	.st11{fill:url(#SVGID_6_);}
	.st12{filter:url(#Adobe_OpacityMaskFilter_1_);}
	.st13{fill:url(#SVGID_8_);}
	.st14{opacity:0.68;mask:url(#SVGID_7_);}
	.st15{fill:url(#SVGID_9_);}
	.st16{fill:url(#SVGID_10_);}
	.st17{fill:url(#SVGID_11_);}
	.st18{fill:url(#SVGID_12_);}
	.st19{fill:url(#SVGID_13_);}
	.st20{fill:url(#SVGID_14_);}
	.st21{fill:url(#SVGID_15_);}
	.st22{fill:url(#SVGID_16_);}
	.st23{fill:url(#SVGID_17_);}
	.st24{fill:url(#SVGID_18_);}
	.st25{fill:url(#SVGID_19_);}
	.st26{filter:url(#Adobe_OpacityMaskFilter_2_);}
	.st27{fill:url(#SVGID_21_);}
	.st28{opacity:0.51;mask:url(#SVGID_20_);}
	.st29{fill:#F2F2F2;stroke:#002E61;stroke-width:10.415;stroke-miterlimit:10;}
	.st30{fill:#FFA3A3;}
	.st31{fill:#00132E;}
	.st32{fill:#F54C43;}
	.st33{fill:url(#SVGID_22_);}
	.st34{fill:url(#SVGID_23_);}
	.st35{fill:#E6E6E6;}
	.st36{fill:#4275B6;}
	.st37{fill:#3360B4;}
	.st38{fill:#006ED5;}
	.st39{fill:#4DA4D2;}
	.st40{fill:#00C4EB;}
	.st41{fill:#1B0D44;}
	.st42{fill:#080516;}
	.st43{fill:none;stroke:#FFFFFF;stroke-width:0.7219;stroke-miterlimit:10;}
	.st44{fill:#FFAA64;}
	.st45{opacity:0.27;}
	.st46{fill:none;stroke:#F54C43;stroke-width:0.372;stroke-linecap:round;stroke-miterlimit:10;}
	.st47{fill:none;stroke:#F54C43;stroke-width:0.2368;stroke-linecap:round;stroke-miterlimit:10;}
	.st48{opacity:0.51;}
	.st49{fill:none;stroke:#00C4EB;stroke-width:0.7439;stroke-linecap:round;stroke-miterlimit:10;}
	.st50{fill:url(#SVGID_24_);}
	.st51{fill:url(#SVGID_25_);}
	.st52{fill:#20D5D2;}
	.st53{opacity:0.75;fill:#0F6FFF;enable-background:new    ;}
</style>
<g>
	<linearGradient id="SVGID_1_" gradientUnits="userSpaceOnUse" x1="2.7637" y1="474.1063" x2="998.6702" y2="474.1063">
		<stop  offset="0" style="stop-color:#52E5E7"/>
		<stop  offset="0.689" style="stop-color:#0130CB"/>
	</linearGradient>
	<path class="st0" d="M867.3,157c19.2,20.2,33,44,34.6,71.5c2.3,38.1-19.3,79.1-1.4,112.8c19.3,36.2,66.4,42.6,83.1,81.3
		c9.7,22.4,16.9,40.6,14.5,65.8c-2.2,23.9-10.7,47.1-22.4,68c-5.4,9.7-11.6,18.9-18.5,27.6c-36.9,46.6-87.3,82-119.2,132.1
		c-14.8,23.1-26.2,50-48.8,65.5c-24.5,16.9-57.3,16.5-86.2,9.4c-28.9-7.2-56-20.4-84.9-27.7c-56.3-14.1-118.3-4-167.2,27.3
		c-44.6,28.5-76.8,72.4-116.6,107.3c-39.8,34.9-94.3,61.7-144.7,45.4c-44.1-14.3-71.9-57.3-92.2-99C41.8,729.4,15.5,602,5.8,474.7
		C-3,359.9,4,236.2,71.9,143.2C123.8,72.1,206.7,27.6,293,10s175.9-10.1,262.1,7.7c90,18.6,178.2,48.7,256.8,96.2
		C831.5,125.9,851.3,140.2,867.3,157z"/>
	<g>
		<polygon class="st1" points="173.9,760.6 214.9,784.3 338,713.2 297,689.5 		"/>
		<polygon class="st2" points="173.9,767.9 214.9,791.5 214.9,784.3 173.9,760.6 		"/>
		<polygon class="st2" points="338,713.2 338,720.5 214.9,791.5 214.9,784.3 		"/>
	</g>
	<g>
		<path class="st3" d="M155.4,786.9c-23.9,1.7-36.2,1.3-36.7-1.4c-0.6-3.3,26-9,25.5-11.9c-0.3-1.5-7.8-2.3-38,0.3"/>
		<path class="st2" d="M196.2,797.7L170.8,783c-4.3-2.5-11.3-2.5-15.6,0l-4.9,2.8c-2.2,1.3-3.2,2.9-3.2,4.6c0,0,0,0.1,0,0.1
			c0,0,0,0.1,0,0.1c0,0,0,0.1,0,0.1c0,0,0,0.1,0,0.1c0,0,0,0.1,0,0.1c0,0,0,0.1,0,0.1c0,0,0,0.1,0,0.1c0,0,0,0.1,0,0.1
			c0,0,0,0.1,0,0.1c0,0,0,0.1,0,0.1c0,0,0,0.1,0,0.1c0,0,0,0.1,0,0.1c0,0,0,0.1,0,0.1c0,0,0,0.1,0,0.1c0,0,0,0.1,0,0.1
			c0,0,0,0.1,0,0.1c0,0,0,0.1,0,0.1c0,0,0,0.1,0,0.1c0,0,0,0.1,0,0.1c0,0,0,0.1,0,0.1c0,0,0,0.1,0,0.1c0,0,0,0.1,0,0.1
			c0,0,0,0.1,0,0.1c0,0,0,0.1,0,0.1c0,0,0,0.1,0,0.1c0,0,0,0.1,0,0.1c0,0,0,0.1,0,0.1c0,0,0,0.1,0,0.1c0,0,0,0.1,0,0.1
			c0,0,0,0.1,0,0.1c0,0,0,0.1,0,0.1c0,0,0,0.1,0,0.1c0,0,0,0.1,0,0.1c0,0,0,0.1,0,0.1c0,0,0,0.1,0,0.1c0,0,0,0.1,0,0.1
			c0,0,0,0.1,0,0.1c0,0,0,0.1,0,0.1c0,0,0,0.1,0,0.1c0,0,0,0.1,0,0.1c0,0,0,0.1,0,0.1c0,0,0,0.1,0,0.1c0,0,0,0.1,0,0.1
			c0,0,0,0.1,0,0.1c0,0,0,0.1,0,0.1c0,0,0,0.1,0,0.1c0,0,0,0.1,0,0.1c0,0,0,0.1,0,0.1c0,0,0,0.1,0,0.1c0,0,0,0.1,0,0.1
			c0,0,0,0.1,0,0.1c0,0,0,0.1,0,0.1c0,0,0,0.1,0,0.1c0,0,0,0.1,0,0.1c0,0,0,0.1,0,0.1c0,0,0,0.1,0,0.1c0,0,0,0.1,0,0.1
			c0,0,0,0.1,0,0.1c0,0,0,0.1,0,0.1c0,0,0,0.1,0,0.1c0,0,0,0.1,0,0.1c0,0,0,0.1,0,0.1c0,0,0,0.1,0,0.1c0,0,0,0.1,0,0.1
			c0,0,0,0.1,0,0.1c0,0,0,0.1,0,0.1c0,0,0,0.1,0,0.1c0,0,0,0.1,0,0.1c0,0,0,0.1,0,0.1c0,0,0,0.1,0,0.1c0,0,0,0.1,0,0.1
			c0,0,0,0.1,0,0.1c0,0,0,0.1,0,0.1c0,0,0,0.1,0,0.1c0,0,0,0.1,0,0.1c0,0,0,0.1,0,0.1c0,0,0,0.1,0,0.1c0,0,0,0.1,0,0.1
			c0,0,0,0.1,0,0.1c0,0,0,0.1,0,0.1c0,0,0,0.1,0,0.1c0,0,0,0.1,0,0.1c0,0,0,0.1,0,0.1c0,0,0,0.1,0,0.1c0,0,0,0.1,0,0.1
			c0,0,0,0.1,0,0.1c0,0,0,0.1,0,0.1c0,0,0,0.1,0,0.1c0,0,0,0.1,0,0.1c0,0,0,0.1,0,0.1c0,0,0,0.1,0,0.1c0,0,0,0.1,0,0.1
			c0,0,0,0.1,0,0.1c0,0,0,0.1,0,0.1c0,0,0,0.1,0,0.1c0,0,0,0.1,0,0.1c0,0,0,0.1,0,0.1c0,0,0,0.1,0,0.1c0,0,0,0.1,0,0.1
			c0,0,0,0.1,0,0.1c0,1.6,1.1,3.3,3.2,4.6l25.4,14.7c4.3,2.5,11.3,2.5,15.6,0l4.9-2.8c2.2-1.3,3.2-2.9,3.2-4.6c0,0,0-0.1,0-0.1
			c0,0,0-0.1,0-0.1c0,0,0-0.1,0-0.1c0,0,0-0.1,0-0.1c0,0,0-0.1,0-0.1c0,0,0-0.1,0-0.1c0,0,0-0.1,0-0.1c0,0,0-0.1,0-0.1
			c0,0,0-0.1,0-0.1c0,0,0-0.1,0-0.1c0,0,0-0.1,0-0.1c0,0,0-0.1,0-0.1c0,0,0-0.1,0-0.1c0,0,0-0.1,0-0.1c0,0,0-0.1,0-0.1
			c0,0,0-0.1,0-0.1c0,0,0-0.1,0-0.1c0,0,0-0.1,0-0.1c0,0,0-0.1,0-0.1c0,0,0-0.1,0-0.1c0,0,0-0.1,0-0.1c0,0,0-0.1,0-0.1
			c0,0,0-0.1,0-0.1c0,0,0-0.1,0-0.1c0,0,0-0.1,0-0.1c0,0,0-0.1,0-0.1c0,0,0-0.1,0-0.1c0,0,0-0.1,0-0.1c0,0,0-0.1,0-0.1
			c0,0,0-0.1,0-0.1c0,0,0-0.1,0-0.1c0,0,0-0.1,0-0.1c0,0,0-0.1,0-0.1c0,0,0-0.1,0-0.1c0,0,0-0.1,0-0.1c0,0,0-0.1,0-0.1
			c0,0,0-0.1,0-0.1c0,0,0-0.1,0-0.1c0,0,0-0.1,0-0.1c0,0,0-0.1,0-0.1c0,0,0-0.1,0-0.1c0,0,0-0.1,0-0.1c0,0,0-0.1,0-0.1
			c0,0,0-0.1,0-0.1c0,0,0-0.1,0-0.1c0,0,0-0.1,0-0.1c0,0,0-0.1,0-0.1c0,0,0-0.1,0-0.1c0,0,0-0.1,0-0.1c0,0,0-0.1,0-0.1
			c0,0,0-0.1,0-0.1c0,0,0-0.1,0-0.1c0,0,0-0.1,0-0.1c0,0,0-0.1,0-0.1c0,0,0-0.1,0-0.1c0,0,0-0.1,0-0.1c0,0,0-0.1,0-0.1
			c0,0,0-0.1,0-0.1c0,0,0-0.1,0-0.1c0,0,0-0.1,0-0.1c0,0,0-0.1,0-0.1c0,0,0-0.1,0-0.1c0,0,0-0.1,0-0.1c0,0,0-0.1,0-0.1
			c0,0,0-0.1,0-0.1c0,0,0-0.1,0-0.1c0,0,0-0.1,0-0.1c0,0,0-0.1,0-0.1c0,0,0-0.1,0-0.1c0,0,0-0.1,0-0.1c0,0,0-0.1,0-0.1
			c0,0,0-0.1,0-0.1c0,0,0-0.1,0-0.1c0,0,0-0.1,0-0.1c0,0,0-0.1,0-0.1c0,0,0-0.1,0-0.1c0,0,0-0.1,0-0.1c0,0,0-0.1,0-0.1
			c0,0,0-0.1,0-0.1c0,0,0-0.1,0-0.1c0,0,0-0.1,0-0.1c0,0,0-0.1,0-0.1c0,0,0-0.1,0-0.1c0,0,0-0.1,0-0.1c0,0,0-0.1,0-0.1
			c0,0,0-0.1,0-0.1c0,0,0-0.1,0-0.1c0,0,0-0.1,0-0.1c0,0,0-0.1,0-0.1c0,0,0-0.1,0-0.1c0,0,0-0.1,0-0.1c0,0,0-0.1,0-0.1
			c0,0,0-0.1,0-0.1c0,0,0-0.1,0-0.1c0,0,0-0.1,0-0.1c0,0,0-0.1,0-0.1c0,0,0-0.1,0-0.1c0,0,0-0.1,0-0.1c0,0,0-0.1,0-0.1
			c0,0,0-0.1,0-0.1C199.4,800.6,198.4,798.9,196.2,797.7z"/>
		<g>
			<path class="st1" d="M155.2,782.9c4.3-2.5,11.3-2.5,15.6,0l25.4,14.7c4.3,2.5,4.3,6.5,0,9l-4.9,2.8c-4.3,2.5-11.3,2.5-15.6,0
				l-25.4-14.7c-4.3-2.5-4.3-6.5,0-9L155.2,782.9z"/>
		</g>
	</g>
	<g>
		<path class="st4" d="M388.9,723.7c-14,0.6-9.4,20.9-13.5,26.9c-4.1,6-12.3-15.5-17-7.9c-4.7,7.6,6.4,28.4,5.3,29.8
			c-3.5,4.3-17-7.9-18.1,1c-1.2,8.9,25.1,23.8,16.4,26.3c-8.8,2.5-12.3-9.9-16.4-3.9c-4.1,6,2.3,26.9,15.8,33.5
			c13.5,6.6,37.4,5.8,44.5-2.9s15.2-20.7,7-19.8c-8.2,0.8-17.6-0.6-14-5c3.1-3.9,26.9-20.2,15.8-22.3c-11.1-2.1-14,6.2-16.4,1.6
			c-2.3-4.5,18.7-19.4,16.4-24c-2.3-4.5-7.6-0.8-17.6-0.6C387.1,756.5,402.9,723.1,388.9,723.7z"/>
		<g>
			<g>
				<path class="st1" d="M377.1,828.1c0.3-11.3,0.9-22.5,1.8-33.8c0.7-8.8,1.5-17.7,2.8-26.5c0.6-3.8,1.2-7.5,2.1-11.2
					c1.1-4.5,2.7-8.9,3.7-13.4c0.7-3.2,1.6-6.8,1.1-10.2c-0.1-0.6-0.2-1.7-0.8-2.1c-0.2-0.1-1.1,0.9-1.3,0.7c2,1.3,0.6,7.2,0.3,8.8
					c-1.4,8.5-4.6,16.5-6,25c-2.8,16.7-3.8,33.7-4.6,50.6c-0.2,4.3-0.4,8.5-0.5,12.8C375.9,828.6,377.1,828.3,377.1,828.1
					L377.1,828.1z"/>
			</g>
		</g>
	</g>
	<g>
		<path class="st4" d="M433.7,792.2c0.7,0.7,0.2,2.2-0.2,3.4c-1.4,5-3.1,9.9-5.8,14.4c-2.7,4.4-6.4,8.3-11.1,10.6
			c-7.3,3.6-16,2.8-23.8,5c0-3.5,0.3-7,1-10.5c0.6-3.5,1.6-7,3.7-9.9c3.2-4.4,8.7-6.4,13.8-8.1c6.9-2.3,13.8-4.4,21-5.2
			C433,791.8,433.5,791.9,433.7,792.2z"/>
		<g>
			<path class="st1" d="M393.6,824.9c3-2.8,5.9-5.5,9-8.1c3-2.7,6.1-5.4,9.1-8c3.1-2.6,6.2-5.2,9.4-7.6c1.6-1.2,3.3-2.3,5-3.4
				l5.2-3.2l-5.1,3.3c-1.7,1.1-3.4,2.2-5,3.4c-3.2,2.4-6.3,5.1-9.4,7.7c-3.1,2.6-6.1,5.2-9.2,7.9L393.6,824.9z"/>
		</g>
		<g>
			<path class="st1" d="M416.4,798.2c-0.1,0.5-0.3,0.9-0.4,1.4l-0.5,1.3c-0.2,0.4-0.3,0.9-0.4,1.3c-0.1,0.5-0.3,0.9-0.4,1.4
				c0-1,0.3-1.9,0.5-2.8C415.5,799.9,415.9,799,416.4,798.2z"/>
		</g>
		<g>
			<path class="st1" d="M426.9,805.1c-1.4,0.5-2.8,0.9-4.3,1.2c-1.4,0.3-2.9,0.5-4.4,0.3c0.7,0,1.5-0.1,2.2-0.2
				c0.7-0.1,1.4-0.2,2.2-0.4c0.7-0.1,1.4-0.3,2.2-0.5L426.9,805.1z"/>
		</g>
		<g>
			<path class="st1" d="M423.2,812.4c-2,0.2-4,0.3-6,0.3c-2,0-4,0-6-0.4C415.2,812.5,419.2,812.4,423.2,812.4z"/>
		</g>
		<g>
			<path class="st1" d="M407.9,800.3l-0.6,2.1c-0.2,0.7-0.4,1.4-0.6,2.1c-0.2,0.7-0.3,1.4-0.5,2.2c-0.1,0.7-0.2,1.5-0.1,2.2
				c-0.2-0.7-0.2-1.5-0.1-2.2c0.1-0.7,0.2-1.5,0.4-2.2C406.9,803.1,407.3,801.7,407.9,800.3z"/>
		</g>
		<g>
			<path class="st1" d="M415.2,818.4c-1.8,0.3-3.6,0.5-5.5,0.6c-0.9,0-1.8,0-2.8-0.1c-0.9-0.1-1.9-0.2-2.6-0.7
				c0.4,0.2,0.8,0.3,1.3,0.4c0.4,0.1,0.9,0.1,1.4,0.1c0.9,0,1.8,0,2.7,0c0.9,0,1.8-0.1,2.7-0.1L415.2,818.4z"/>
		</g>
		<g>
			<path class="st1" d="M401.4,807c-0.1,0.7-0.2,1.4-0.3,2.1c-0.1,0.7-0.2,1.4-0.2,2.1c-0.1,0.7-0.1,1.4,0,2.1c0,0.7,0.1,1.4,0.3,2
				c-0.6-1.3-0.7-2.7-0.6-4.1C400.7,809.7,401,808.3,401.4,807z"/>
		</g>
	</g>
	<path class="st5" d="M870.6,531.5c5.8,0.3,11.4,0.6,11.4,0.9c0,0.3-12.4,0.1-12.4,0.4c0,0.4,22.1,1.3,22,1.8
		c0,0.5-24.6-0.1-24.6,0.5c-0.1,0.6,25.3,2,25.2,2.4c-0.1,0.5-28.3-0.6-28.4-0.1c-0.1,0.5,22.7,2.1,22.6,2.4
		c-0.1,0.3-23.2-1.1-23.6,0c-0.3,0.8,10.5,2.3,10.2,2.9c-0.3,0.6-15.4-1-15.7-0.3c-0.2,0.5,6.8,1.6,6.6,2.3
		c-0.2,0.5-3.3,0.5-8.2,0.5c-13.7,0-16.9,0.2-17.1-0.2c-0.2-0.7,10-1.8,9.8-2.4c-0.2-0.8-15.8,0-15.9-0.5
		c-0.1-0.4,11.9-1.3,11.8-1.9c-0.1-0.7-16.7-0.3-16.8-0.7c-0.1-0.5,19.3-1.4,19.2-1.9c-0.1-0.4-16.4,0-16.5-0.6
		c-0.1-0.5,10.3-1.2,10.2-1.7c-0.1-0.6-15.7-0.3-15.7-0.7c-0.1-0.4,15.3-1.1,15.3-1.6c0-0.6-15.7-0.5-15.7-0.9
		C824.2,531.5,846.4,530.3,870.6,531.5z"/>
	<path class="st5" d="M735,528.8c5.8,0.4,11.4,0.9,11.4,1.2c0,0.4-12.4,0.1-12.4,0.5c0,0.6,22.1,1.9,22,2.5c0,0.7-24.6-0.1-24.6,0.8
		c-0.1,0.9,25.3,2.8,25.2,3.4c-0.1,0.7-28.3-0.9-28.4-0.1c-0.1,0.7,22.7,2.9,22.6,3.4c-0.1,0.5-23.2-1.6-23.6,0
		c-0.3,1.1,10.5,3.3,10.2,4.1c-0.3,0.9-15.4-1.4-15.7-0.4c-0.2,0.7,6.8,2.2,6.6,3.2c-0.2,0.6-3.3,0.6-8.2,0.7
		c-13.7,0.1-16.9,0.2-17.1-0.3c-0.2-1,10-2.5,9.8-3.4c-0.2-1.1-15.8,0-15.9-0.7c-0.1-0.6,11.9-1.9,11.8-2.6
		c-0.1-0.9-16.7-0.4-16.8-1c-0.1-0.7,19.3-2,19.2-2.6c-0.1-0.6-16.4,0-16.5-0.9c-0.1-0.7,10.3-1.7,10.2-2.4
		c-0.1-0.9-15.7-0.4-15.7-1c-0.1-0.6,15.3-1.5,15.3-2.3c0-0.8-15.7-0.6-15.7-1.2C688.6,528.9,710.8,527.2,735,528.8z"/>
	<defs>
		<filter id="Adobe_OpacityMaskFilter" filterUnits="userSpaceOnUse" x="1.2" y="195.2" width="998.9" height="288.2">
			<feFlood  style="flood-color:white;flood-opacity:1" result="back"/>
			<feBlend  in="SourceGraphic" in2="back" mode="normal"/>
		</filter>
	</defs>
	<mask maskUnits="userSpaceOnUse" x="1.2" y="195.2" width="998.9" height="288.2" id="SVGID_2_">
		<g class="st6">
			
				<linearGradient id="SVGID_3_" gradientUnits="userSpaceOnUse" x1="-5438.7534" y1="505.8548" x2="-5438.7534" y2="378.9114" gradientTransform="matrix(-1 0 0 1 -4951.1685 0)">
				<stop  offset="0.3294" style="stop-color:#000000"/>
				<stop  offset="1" style="stop-color:#FFFFFF;stop-opacity:0.2"/>
			</linearGradient>
			<polygon class="st7" points="-38.6,505.9 1013.8,505.9 1013.8,378.9 -38.6,378.9 			"/>
		</g>
	</mask>
	<g class="st8">
		
			<linearGradient id="SVGID_4_" gradientUnits="userSpaceOnUse" x1="-5951.2021" y1="371.8295" x2="-5426.5552" y2="371.8295" gradientTransform="matrix(-1 0 0 1 -4951.1685 0)">
			<stop  offset="0" style="stop-color:#002E61"/>
			<stop  offset="0.2672" style="stop-color:#012C5F"/>
			<stop  offset="1" style="stop-color:#110A2D"/>
		</linearGradient>
		<path class="st9" d="M922.4,365.2l-157.3-104L475.4,473l524.2,9.5C999.5,482.4,1011.1,431.8,922.4,365.2z"/>
		
			<linearGradient id="SVGID_5_" gradientUnits="userSpaceOnUse" x1="-5582.9893" y1="392.3518" x2="-5174.4995" y2="392.3518" gradientTransform="matrix(-1 0 0 1 -4951.1685 0)">
			<stop  offset="0" style="stop-color:#002E61"/>
			<stop  offset="0.2672" style="stop-color:#012C5F"/>
			<stop  offset="1" style="stop-color:#110A2D"/>
		</linearGradient>
		<polyline class="st10" points="558.2,407.7 442.3,311.1 223.3,473.7 631.8,473.7 561.9,409.1 		"/>
		
			<linearGradient id="SVGID_6_" gradientUnits="userSpaceOnUse" x1="-5151.3154" y1="483.3743" x2="-5151.3154" y2="195.1775" gradientTransform="matrix(-1 0 0 1 -4951.1685 0)">
			<stop  offset="0" style="stop-color:#002E61"/>
			<stop  offset="0.2672" style="stop-color:#012C5F"/>
			<stop  offset="1" style="stop-color:#110A2D"/>
		</linearGradient>
		<path class="st11" d="M399.1,477.7L144.6,195.2L5.5,332c0,0-9.2,103.3-0.7,133.8S399.1,477.7,399.1,477.7z"/>
	</g>
	<defs>
		<filter id="Adobe_OpacityMaskFilter_1_" filterUnits="userSpaceOnUse" x="819" y="385.2" width="170.7" height="85.5">
			<feFlood  style="flood-color:white;flood-opacity:1" result="back"/>
			<feBlend  in="SourceGraphic" in2="back" mode="normal"/>
		</filter>
	</defs>
	<mask maskUnits="userSpaceOnUse" x="819" y="385.2" width="170.7" height="85.5" id="SVGID_7_">
		<g class="st12">
			
				<linearGradient id="SVGID_8_" gradientUnits="userSpaceOnUse" x1="-5858.0063" y1="475.0323" x2="-5858.0063" y2="436.2219" gradientTransform="matrix(-1 0 0 1 -4951.1685 0)">
				<stop  offset="0.2672" style="stop-color:#000000"/>
				<stop  offset="1" style="stop-color:#FFFFFF;stop-opacity:0.3"/>
			</linearGradient>
			<polygon class="st13" points="810.6,475 1003.1,475 1003.1,436.2 810.6,436.2 			"/>
		</g>
	</mask>
	<g class="st14">
		
			<linearGradient id="SVGID_9_" gradientUnits="userSpaceOnUse" x1="6554.0034" y1="419.2749" x2="6554.3052" y2="419.2749" gradientTransform="matrix(1 0 0 1 -5584.0293 0)">
			<stop  offset="0" style="stop-color:#002E61"/>
			<stop  offset="1" style="stop-color:#110A2D"/>
		</linearGradient>
		<path class="st15" d="M970.3,419.5c0-0.1-0.1-0.2-0.3-0.4C970.2,419.4,970.3,419.5,970.3,419.5z"/>
		
			<linearGradient id="SVGID_10_" gradientUnits="userSpaceOnUse" x1="6568.6094" y1="455.2677" x2="6568.9316" y2="455.2677" gradientTransform="matrix(1 0 0 1 -5584.0293 0)">
			<stop  offset="0" style="stop-color:#002E61"/>
			<stop  offset="1" style="stop-color:#110A2D"/>
		</linearGradient>
		<path class="st16" d="M984.9,455.4c0-0.1-0.1-0.2-0.3-0.3C984.8,455.4,984.9,455.5,984.9,455.4z"/>
		
			<linearGradient id="SVGID_11_" gradientUnits="userSpaceOnUse" x1="6468.646" y1="432.5562" x2="6468.8022" y2="432.5562" gradientTransform="matrix(1 0 0 1 -5584.0293 0)">
			<stop  offset="0" style="stop-color:#002E61"/>
			<stop  offset="1" style="stop-color:#110A2D"/>
		</linearGradient>
		<path class="st17" d="M884.8,432.7c0-0.1-0.1-0.2-0.2-0.3C884.7,432.6,884.8,432.7,884.8,432.7z"/>
		
			<linearGradient id="SVGID_12_" gradientUnits="userSpaceOnUse" x1="6453.2954" y1="442.1097" x2="6453.4023" y2="442.1097" gradientTransform="matrix(1 0 0 1 -5584.0293 0)">
			<stop  offset="0" style="stop-color:#002E61"/>
			<stop  offset="1" style="stop-color:#110A2D"/>
		</linearGradient>
		<path class="st18" d="M869.4,442.2c0-0.1-0.1-0.1-0.1-0.2C869.3,442.2,869.4,442.2,869.4,442.2z"/>
		
			<linearGradient id="SVGID_13_" gradientUnits="userSpaceOnUse" x1="6482.8105" y1="433.1855" x2="6482.9663" y2="433.1855" gradientTransform="matrix(1 0 0 1 -5584.0293 0)">
			<stop  offset="0" style="stop-color:#002E61"/>
			<stop  offset="1" style="stop-color:#110A2D"/>
		</linearGradient>
		<path class="st19" d="M898.9,433.3c0-0.1-0.1-0.2-0.2-0.3C898.9,433.3,898.9,433.4,898.9,433.3z"/>
		
			<linearGradient id="SVGID_14_" gradientUnits="userSpaceOnUse" x1="6516.8335" y1="403.5389" x2="6516.9629" y2="403.5389" gradientTransform="matrix(1 0 0 1 -5584.0293 0)">
			<stop  offset="0" style="stop-color:#002E61"/>
			<stop  offset="1" style="stop-color:#110A2D"/>
		</linearGradient>
		<path class="st20" d="M932.9,403.4c-0.1,0.1-0.1,0.1-0.1,0.2C932.8,403.7,932.8,403.6,932.9,403.4z"/>
		
			<linearGradient id="SVGID_15_" gradientUnits="userSpaceOnUse" x1="6419.7534" y1="436.1806" x2="6419.8325" y2="436.1806" gradientTransform="matrix(1 0 0 1 -5584.0293 0)">
			<stop  offset="0" style="stop-color:#002E61"/>
			<stop  offset="1" style="stop-color:#110A2D"/>
		</linearGradient>
		<path class="st21" d="M835.8,436.1c0,0-0.1,0.1-0.1,0.1C835.7,436.3,835.7,436.2,835.8,436.1z"/>
		
			<linearGradient id="SVGID_16_" gradientUnits="userSpaceOnUse" x1="6407.3066" y1="445.1524" x2="6407.3853" y2="445.1524" gradientTransform="matrix(1 0 0 1 -5584.0293 0)">
			<stop  offset="0" style="stop-color:#002E61"/>
			<stop  offset="1" style="stop-color:#110A2D"/>
		</linearGradient>
		<path class="st22" d="M823.4,445.1C823.3,445.1,823.3,445.2,823.4,445.1C823.3,445.2,823.3,445.2,823.4,445.1z"/>
		
			<linearGradient id="SVGID_17_" gradientUnits="userSpaceOnUse" x1="6431.2339" y1="421.8702" x2="6431.3066" y2="421.8702" gradientTransform="matrix(1 0 0 1 -5584.0293 0)">
			<stop  offset="0" style="stop-color:#002E61"/>
			<stop  offset="1" style="stop-color:#110A2D"/>
		</linearGradient>
		<path class="st23" d="M847.3,421.8c0,0.1-0.1,0.1-0.1,0.2C847.2,422,847.2,421.9,847.3,421.8z"/>
		
			<linearGradient id="SVGID_18_" gradientUnits="userSpaceOnUse" x1="6488.3013" y1="443.9743" x2="6488.376" y2="443.9743" gradientTransform="matrix(1 0 0 1 -5584.0293 0)">
			<stop  offset="0" style="stop-color:#002E61"/>
			<stop  offset="1" style="stop-color:#110A2D"/>
		</linearGradient>
		<path class="st24" d="M904.3,443.9c0,0-0.1,0.1-0.1,0.1C904.3,444.1,904.3,444,904.3,443.9z"/>
		
			<linearGradient id="SVGID_19_" gradientUnits="userSpaceOnUse" x1="6403.041" y1="427.9265" x2="6573.7109" y2="427.9265" gradientTransform="matrix(1 0 0 1 -5584.0293 0)">
			<stop  offset="0" style="stop-color:#002E61"/>
			<stop  offset="1" style="stop-color:#110A2D"/>
		</linearGradient>
		<path class="st25" d="M984.6,458.7l-3-5.4c0,0,1.9,0.1,2.6,0.4c-0.7-0.8-2.4-3.1-3.5-4.2c-1.5-1.5-5.3-7.6-4.4-6.9
			c0.9,0.7,3.5,2.2,3.5,2.2s-3.7-5-4.6-7.3c-0.9-2.3,2.4,0.1,2.4,0.1s-4.6-4.9-4.9-5.9c-0.4-1-2.7-5.2-1.1-4.3s2.4,1.3,2.4,1.3
			s-6.6-11.3-6.9-11.9c-0.3-0.5,1.8,0.1,2.6,0.7c-1.9-2.8-12.5-19.9-12.5-19.9v2.3c0,0-1.9,3.8-4.1,8c-2.2-2.2-5.1-5.7-5.1-5.7
			l4.1,1.7l-5.9-5.8l2.3,0.4c0,0-8.5-14.4-8.4-13.5c0.1,0.9-6.6,14.8-7.6,16.8c0.5-0.6,2.1-0.9,2.1-0.9s-0.1,2.6-1,4.4
			c-0.9,1.8-4.7,4.5-4.7,4.5l2.5-0.6c0,0,3.4,0.4,1.6,1.6c-1.8,1.2-3.4,5.4-3.4,5.4s2.5-0.9,1.8,1.2c-0.7,2.1-1.6,4.9-1.6,4.9h2.6
			c0,0-1,0.8-1.8,2.2c0-0.1-0.1-0.1-0.1-0.2c0,0.1,0.1,0.1,0.1,0.2c-0.2,0.4-0.5,0.8-0.6,1.3c-0.5-1.1-0.9-1.9-1-2
			c-0.2-0.4,1.1,0.1,1.5,0.5c-1.1-1.9-7.3-13.7-7.3-13.7v1.6c0,0-5,11.9-5.9,12.4s2.3-0.5,2.3-0.5s-3.3,6.1-4.3,6.5
			c-1,0.4,1.9-0.4,1.9-0.4s-2.6,7.2-2.9,7.4c-0.4,0.2,1.9-0.5,1.9-0.5s-1.2,3-2,3.5c-0.8,0.5-0.9,0.8,0,0.5c0.3-0.1,0.2,0.5,0,1.2
			l-2.2-1.8l1.4,0.2c0,0-4.9-7.2-4.9-6.7c0.1,0.4-3.8,7.4-4.4,8.4c0.3-0.3,1.2-0.4,1.2-0.4s-0.1,1.3-0.6,2.2
			c-0.5,0.9-2.7,2.3-2.7,2.3l1.5-0.3c0,0,2,0.2,0.9,0.8c-0.6,0.3-1.1,1.1-1.5,1.7c-0.6-1.1-1.3-2.6-1.5-3.5
			c-0.5-1.6,1.2,0.1,1.2,0.1s-2.4-3.4-2.5-4c-0.2-0.7-1.4-3.6-0.6-2.9c0.8,0.6,1.2,0.9,1.2,0.9s-3.4-7.7-3.6-8.2
			c-0.2-0.4,0.9,0.1,1.4,0.5c-1-1.9-6.5-13.7-6.5-13.7v1.6c0,0-4.4,11.9-5.2,12.4c-0.8,0.4,2-0.5,2-0.5s-1.8,3.8-3,5.6
			c-1-2.3-2.7-6.2-2.8-6.5c-0.2-0.4,0.9,0.1,1.4,0.5c-1-1.9-6.5-13.7-6.5-13.7v1.6c0,0-4.4,11.9-5.2,12.4c-0.8,0.4,2-0.5,2-0.5
			s-2.9,6.1-3.8,6.5c-0.8,0.4,1.7-0.4,1.7-0.4s-2.3,7.2-2.6,7.4s1.7-0.5,1.7-0.5s-0.9,2.7-1.6,3.4c-0.2-0.6-0.9-2.3-0.3-1.9
			c0.6,0.4,0.8,0.6,0.8,0.6s-2.3-5.3-2.5-5.6c-0.1-0.2,0.6,0,0.9,0.3c-0.7-1.3-4.4-9.4-4.4-9.4v1.1c0,0-3.1,8.2-3.6,8.5
			c-0.5,0.3,1.4-0.3,1.4-0.3s-1.4,2.9-2.2,4c-1.1-1.4-2.9-4.5-2.9-4.5s3,1.1,2.3,0.7c-0.6-0.4-1.6-4.3-1.6-4.3s1.6,0.8,1.2,0.1
			c-0.4-0.7-1.2-3.1-1.2-3.1s2.6,1.3,2,0.8c-0.6-0.6-3.3-7.1-2.9-7.4c0.4-0.3,2.4,0.6,2.4,0.6c-1.1-1.1-3.9-6.6-3.9-6.6l2.3,1.6
			l-3.3-5.3l1.3,0.3c0,0-4.8-13.2-4.7-12.3c0.1,0.8-3.7,13.6-4.3,15.4c0.3-0.6,1.2-0.8,1.2-0.8s-0.1,2.4-0.6,4
			c-0.5,1.7-2.7,4.2-2.7,4.2l1.4-0.6c0,0,1.9,0.3,0.9,1.5s-1.9,4.9-1.9,4.9s1.4-0.8,1,1.1c0,0.1,0,0.1,0,0.2l-2.5-2.4l1.4,0.2
			c0,0-5.2-8.8-5.1-8.2c0.1,0.5-4,9.1-4.6,10.3c0.3-0.4,1.3-0.5,1.3-0.5s-0.1,1.6-0.6,2.7c-0.5,1.1-2.9,2.8-2.9,2.8l1.6-0.4
			c0,0,2.1,0.2,1,1s-2.1,3.3-2.1,3.3s1.5-0.5,1.1,0.7c0,0.1,0,0.1-0.1,0.2l-3.4-2.3l1.4,0.2c0,0-5.2-6.1-5.1-5.7
			c0.1,0.4-4,6.3-4.6,7.1c0.3-0.3,1.3-0.4,1.3-0.4s-0.1,1.1-0.6,1.9s-2.9,1.9-2.9,1.9l1.6-0.3c0,0,2.1,0.2,1,0.7s-2.1,2.3-2.1,2.3
			s1.5-0.4,1.1,0.5s-1,2.1-1,2.1h1.6c0,0-1.1,0.6-1.6,1.6c-0.4,1-0.6,1.8-0.6,1.8s1.4-0.5,1.3,0c-0.1,0.5-1.6,2.6-1.3,2.2
			c0.3-0.4,2-0.4,2-0.4l-0.6,1H819v12h170.7v-12H984.6z M859.3,454.7c0,0-0.2,0.9-0.4,1.8c-0.2-0.4-0.3-0.9-0.4-1.4L859.3,454.7z
			 M859,452.2c0.1-0.1,0.1,0.1,0.1,0.4C859,452.4,859,452.3,859,452.2z M950.6,409c0.3-0.2,1.1-0.1,1.9,0.1
			c-0.4,0.7-0.8,1.4-1.1,2.1C950.7,410,950.3,409.1,950.6,409z M913.9,443.1c-0.1,0.2-0.1,0.3-0.2,0.5c-0.5-0.5-0.8-0.8-0.8-0.8
			L913.9,443.1z M903.9,452.8c0,0-0.1,0-0.2,0.1c0,0,0-0.1-0.1-0.1H903.9z M901.9,448.8c0.1,0.2,0.4,0.4,0.6,0.6
			c-0.1,0.2-0.2,0.3-0.2,0.3s0.2-0.1,0.5-0.1c0.2,0.2,0.4,0.4,0.6,0.5c0,0.1,0,0.1-0.1,0.2c-0.1,0.3-0.3,0.7-0.4,1.1
			C902.2,450,901.6,448.5,901.9,448.8z M886.6,437.5c0,0-0.1,0.3-0.3,0.9c-0.1-0.2-0.2-0.4-0.3-0.7
			C886.4,437.6,886.6,437.5,886.6,437.5z M886.3,438.5c-0.2,0.5-0.4,1.1-0.6,1.8c-0.2-0.7-0.7-1.8-0.7-2.4c0.1,0,0.3-0.1,0.4-0.1
			C885.8,438.2,886.1,438.4,886.3,438.5z M885.2,437.7c-0.1,0.1-0.1,0.1-0.2,0.2c0,0,0,0,0,0C885,437.7,885,437.6,885.2,437.7z
			 M860.8,444.6c0,0-0.1,0.2-0.1,0.5c-0.1-0.1-0.2-0.2-0.3-0.3C860.6,444.7,860.8,444.6,860.8,444.6z M860.5,445.4
			c-0.3,0.8-0.7,2.3-1.1,3.2c-0.7-1-0.8-3.6-0.8-3.6S860,445.4,860.5,445.4z M859.2,449.3c-0.1,0.2-0.2,0.4-0.2,0.4
			c-0.2,0.1,1.2-0.3,1.2-0.3s-0.7,2.1-1.2,2.4c0,0,0,0-0.1,0c-0.3-1.3-0.6-2.7-0.6-2.7S858.8,449.3,859.2,449.3z M858.8,453.6
			c-0.1,0.4-0.3,0.8-0.4,1.2c-0.2-1-0.4-1.9-0.4-1.9S858.3,453.3,858.8,453.6z M858.4,458.2c-0.1,0.2-0.2,0.4-0.2,0.4
			c0,0-0.1,0-0.1,0.1c-0.1-0.4-0.1-0.6-0.1-0.6S858.1,458.1,858.4,458.2z M834.1,452.8c0,0,0.1,0,0.2,0c0,0,0,0.1,0,0.1
			C834.2,452.9,834.1,452.8,834.1,452.8z M846.8,439.2c0,0-0.1,0.1-0.3,0.4c-0.1-0.2-0.1-0.3-0.1-0.4H846.8z M846.1,435.5
			c-0.1,0.3-0.1,0.5-0.2,0.8c-0.6-0.7-1.1-1.3-1.1-1.3L846.1,435.5z M835.4,447.3c0,0-0.3,0.2-0.6,0.6c-0.2-0.2-0.4-0.4-0.5-0.6
			H835.4z M834.7,444.5c-0.1,0.3-0.2,0.6-0.3,0.9c-1-0.8-2-1.6-2-1.6L834.7,444.5z M823.3,458.5c0,0.1-0.1,0.1-0.1,0.2h-0.7
			C822.9,458.4,823.5,458,823.3,458.5z"/>
	</g>
	<defs>
		<filter id="Adobe_OpacityMaskFilter_2_" filterUnits="userSpaceOnUse" x="0" y="313.7" width="335.5" height="210.5">
			<feFlood  style="flood-color:white;flood-opacity:1" result="back"/>
			<feBlend  in="SourceGraphic" in2="back" mode="normal"/>
		</filter>
	</defs>
	<mask maskUnits="userSpaceOnUse" x="0" y="313.7" width="335.5" height="210.5" id="SVGID_20_">
		<g class="st26">
			
				<linearGradient id="SVGID_21_" gradientUnits="userSpaceOnUse" x1="-5106.4395" y1="524.2756" x2="-5106.4395" y2="426.2791" gradientTransform="matrix(-1 0 0 1 -4951.1685 0)">
				<stop  offset="0" style="stop-color:#000000"/>
				<stop  offset="0.625" style="stop-color:#080808"/>
				<stop  offset="1" style="stop-color:#FFFFFF;stop-opacity:0.4"/>
			</linearGradient>
			<polygon class="st27" points="-35.7,524.3 346.3,524.3 346.3,426.3 -35.7,426.3 			"/>
		</g>
	</mask>
	<g class="st28">
		<path class="st2" d="M29,370.4c0.1-0.2,0.3-0.4,0.5-0.6C29.2,370.3,29,370.5,29,370.4z"/>
		<path class="st2" d="M3.1,432.2c0.1-0.2,0.3-0.3,0.6-0.4C3.2,432.2,3,432.4,3.1,432.2z"/>
		<path class="st2" d="M180.8,393.1c0-0.1,0.1-0.3,0.3-0.4C180.9,393.1,180.8,393.2,180.8,393.1z"/>
		<path class="st2" d="M208.1,409.5c0-0.1,0.1-0.2,0.2-0.3C208.2,409.5,208.1,409.6,208.1,409.5z"/>
		<path class="st2" d="M155.6,394.2c0-0.1,0.1-0.3,0.3-0.4C155.7,394.1,155.6,394.3,155.6,394.2z"/>
		<path class="st2" d="M95.3,342.8c0.1,0.1,0.2,0.2,0.2,0.4C95.6,343.2,95.5,343.1,95.3,342.8z"/>
		<path class="st2" d="M267.7,399.1c0.1,0.1,0.1,0.1,0.1,0.2C267.9,399.3,267.8,399.3,267.7,399.1z"/>
		<path class="st2" d="M289.8,414.5c0.1,0,0.1,0.1,0.1,0.1C289.9,414.7,289.9,414.7,289.8,414.5z"/>
		<path class="st2" d="M247.3,374.4c0.1,0.1,0.1,0.2,0.1,0.3C247.5,374.8,247.4,374.7,247.3,374.4z"/>
		<path class="st2" d="M146,412.5c0.1,0.1,0.1,0.1,0.1,0.2C146.2,412.7,146.1,412.7,146,412.5z"/>
		<path class="st2" d="M0,460.9l45.4,63.3c0,0,62.1-46.5,163.1-37.2c101,9.3,128.3-9.7,115.1-14.3c-12.3-4.3-55.7-10.9-61.7-11.8h35
			l38.3-0.8c0.3,0,0.4-0.4,0.1-0.5l-0.2-0.1l0.4,0c0,0-0.2,0-0.5,0l-19.2-10.8c-1.7-1-3.6-1.8-5.6-2.4l-19.1-5.9l-1.1-1.7
			c0,0,3,0,3.6,0.6c0.6,0.7-2.1-3-2.2-3.9c-0.2-0.8,2.3,0,2.3,0s-0.2-1.4-1-3c-0.8-1.7-2.8-2.8-2.8-2.8h2.8c0,0-1-2.1-1.8-3.6
			c-0.7-1.5,1.9-0.9,1.9-0.9s-1.7-3-3.7-3.9c-2-0.9,1.8-1.2,1.8-1.2l2.8,0.4c0,0-4.2-2-5.1-3.3c-0.9-1.3-1.1-3.2-1.1-3.2
			s1.7,0.2,2.3,0.7c-1.1-1.4-8.4-11.7-8.2-12.3c0.1-0.7-9.1,9.9-9.1,9.9l2.5-0.3l-6,4c0-0.1-0.1-0.2-0.1-0.3
			c-0.7-2.2,1.9-1.3,1.9-1.3s-1.7-4.4-3.7-5.7c-2-1.3,1.8-1.7,1.8-1.7l2.8,0.6c0,0-4.2-2.8-5.1-4.8s-1.1-4.6-1.1-4.6
			s1.7,0.3,2.3,0.9c-1.1-2.1-8.4-16.8-8.2-17.7c0.1-1-9.1,14.2-9.1,14.2l2.5-0.4l-4.4,4.2c0-0.1,0-0.2-0.1-0.3
			c-0.7-3.3,1.8-1.9,1.8-1.9s-1.6-6.6-3.4-8.5c-1.8-1.9,1.6-2.5,1.6-2.5l2.6,1c0,0-3.8-4.3-4.7-7.2c-0.9-2.9-1-7-1-7
			s1.6,0.5,2.1,1.4c-1-3.1-7.7-25.1-7.6-26.5c0.1-1.5-8.4,21.3-8.4,21.3l2.3-0.6l-5.9,9.1l4.1-2.7c0,0-5,9.5-6.9,11.4
			c0,0,3.6-1.5,4.3-1c0.7,0.6-4,11.8-5.1,12.8c-1.1,1,3.6-1.4,3.6-1.4s-1.5,4.3-2.2,5.4c-0.7,1.2,2.2-0.2,2.2-0.2s-1.7,6.6-2.8,7.3
			c-1.1,0.8,4.1-1.2,4.1-1.2s-3.2,5.2-5.1,7.7c-1.4-2-3.9-6.9-3.9-6.9s3.3,1.1,2.4,0.6c-0.9-0.5-6.3-14.7-6.3-14.7V393
			c0,0-6.7,14-7.9,16.3c0.5-0.5,1.9-1,1.7-0.6c-0.2,0.5-4.4,9.7-4.4,9.7s0.5-0.4,1.5-1.1c0.9-0.7-0.3,2.2-0.6,3.3
			c-1.3-1.2-2.9-5.9-2.9-5.9s3.6,1.2,3,0.9c-0.6-0.3-4.6-12.7-4.6-12.7s4.4,1.4,2.9,0.7c-1.5-0.7-6.7-11.1-6.7-11.1s4.9,1.6,3.5,0.9
			c-1.3-0.7-9.2-21.3-9.2-21.3v-2.8c0,0-9.7,20.3-11.5,23.6c0.7-0.8,2.7-1.5,2.4-0.9c-0.2,0.5-3.2,7.2-5,11.1
			c-2.1-3.1-5.4-9.6-5.4-9.6s4.9,1.6,3.5,0.9c-1.3-0.7-9.2-21.3-9.2-21.3v-2.8c0,0-9.7,20.3-11.5,23.6c0.7-0.8,2.7-1.5,2.4-0.9
			c-0.3,0.7-6.4,14-6.4,14s0.7-0.5,2.2-1.6c1.5-1.1-0.7,3.9-1,5.1c-0.3,1.2-4.5,6.9-4.5,6.9s3-2.9,2.2-0.1c-0.5,1.5-1.7,4-2.7,6
			c-0.7-1.1-1.6-2.4-2.6-2.9c-1.9-1.1,1.7-1.4,1.7-1.4l2.6,0.5c0,0-3.9-2.3-4.8-3.9c-0.9-1.6-1-3.8-1-3.8s1.6,0.2,2.1,0.8
			c-1-1.7-7.9-13.7-7.8-14.5c0.1-0.8-8.6,11.6-8.6,11.6l2.4-0.3l-3.9,3.2c-0.4-1.3-0.6-2.3,0-2.1c1.6,0.6,1.4,0,0-0.9
			c-1.4-0.9-3.5-6.1-3.5-6.1s4.1,1.2,3.4,0.9c-0.7-0.3-5.2-12.7-5.2-12.7s5,1.4,3.3,0.7c-1.7-0.7-7.6-11.1-7.6-11.1s5.5,1.6,4,0.9
			c-1.5-0.7-10.5-21.3-10.5-21.3V358c0,0-11,20.3-13,23.6c0.8-0.8,3.1-1.5,2.7-0.9c-0.1,0.2-0.8,1.6-1.8,3.5
			c-0.3-0.8-0.7-1.6-1.1-2.3c0.1-0.1,0.1-0.2,0.2-0.3c-0.1,0.1-0.2,0.2-0.2,0.3c-1.5-2.3-3.3-3.7-3.3-3.7h4.6c0,0-1.7-4.8-2.9-8.4
			c-1.2-3.6,3.2-2.1,3.2-2.1s-2.8-7.2-6.1-9.3c-3.2-2.1,2.9-2.7,2.9-2.7l4.5,1.1c0,0-6.8-4.6-8.3-7.8c-1.5-3.2-1.8-7.6-1.8-7.6
			s2.8,0.5,3.7,1.5c-1.8-3.4-13.7-27.4-13.4-28.9C82.1,312.1,67,337,67,337l4.1-0.6l-10.5,9.9l7.3-3c0,0-5.1,6-9,9.8
			c-3.8-7.1-7.2-13.7-7.2-13.7v-4c0,0-18.7,29.5-22.2,34.3c1.4-1.1,5.2-2.1,4.7-1.3c-0.6,1.1-12.3,20.4-12.3,20.4s1.4-0.8,4.2-2.3
			s-1.3,5.7-1.9,7.4c-0.6,1.7-8.8,10.1-8.8,10.1s5.8-4.2,4.2-0.2s-8.1,12.6-8.1,12.6s4.5-2.5,6.2-3.8c1.6-1.3-5.2,9.3-7.8,11.8
			c-2,1.9-5,5.8-6.3,7.3c1.3-0.6,4.6-0.7,4.6-0.7L3,440.3L0,460.9z M226.9,434.2c-0.2,0.8-0.5,1.7-0.8,2.4c-0.4-1.6-0.7-3.2-0.7-3.2
			L226.9,434.2z M225.8,429.8c-0.1-0.5-0.1-0.8,0.2-0.7C225.9,429.3,225.8,429.5,225.8,429.8z M61.9,358.5c-0.7-1.2-1.3-2.4-2-3.6
			c1.5-0.3,2.9-0.4,3.4-0.1C63.7,354.9,63.1,356.5,61.9,358.5z M130.2,412.8c0,0-0.6,0.6-1.4,1.4c-0.1-0.3-0.2-0.5-0.3-0.8
			L130.2,412.8z M146.6,430.2c0,0.1-0.1,0.1-0.1,0.2c-0.2-0.1-0.3-0.2-0.3-0.2H146.6z M147.9,427.8c-0.2-0.6-0.5-1.3-0.7-1.8
			c-0.1-0.1-0.1-0.3-0.1-0.4c0.3-0.2,0.7-0.5,1.1-0.8c0.4,0,0.9,0.1,0.9,0.1s-0.1-0.2-0.3-0.6c0.4-0.4,0.8-0.7,1.1-1
			C150.3,422.8,149.2,425.3,147.9,427.8z M177.9,404.1c-0.2,0.5-0.4,0.9-0.5,1.2c-0.3-0.9-0.5-1.5-0.5-1.5S177.3,404,177.9,404.1z
			 M179,404.5c0.3,0.1,0.6,0.2,0.8,0.2c-0.1,0.9-0.9,2.9-1.3,4.1c-0.4-1.2-0.8-2.3-1-3.1C177.7,405.4,178.3,405,179,404.5z
			 M179.8,404.5C179.8,404.5,179.8,404.5,179.8,404.5c-0.1-0.1-0.2-0.2-0.4-0.3C179.7,404.1,179.8,404.2,179.8,404.5z M223.5,416.4
			c-0.2,0.2-0.4,0.4-0.6,0.6c-0.2-0.5-0.3-0.8-0.3-0.8S223.1,416.3,223.5,416.4z M226.5,416.8c0,0-0.2,4.4-1.4,6.2
			c-0.6-1.7-1.4-4.1-1.9-5.6C224.1,417.4,226.5,416.8,226.5,416.8z M227,424c0,0-0.5,2.3-1,4.6c0,0-0.1-0.1-0.1-0.1
			c-0.9-0.6-2.1-4.2-2.1-4.2s2.5,0.8,2.1,0.6c-0.1,0-0.2-0.3-0.4-0.7C226.2,424.1,227,424,227,424z M227.7,430.3
			c0,0-0.2,1.5-0.7,3.3c-0.2-0.5-0.5-1.3-0.8-2C227,431,227.7,430.3,227.7,430.3z M227.7,439.2c0,0-0.1,0.4-0.2,1.1
			c0-0.1-0.1-0.1-0.1-0.2c-0.1-0.1-0.3-0.3-0.4-0.7C227.4,439.3,227.7,439.2,227.7,439.2z M248.2,406.8c0,0.2-0.1,0.4-0.3,0.7
			c-0.3-0.4-0.5-0.7-0.5-0.7H248.2z M251,399.4c0,0-0.8,1-2,2.3c-0.1-0.5-0.2-0.9-0.3-1.4L251,399.4z M269.8,430.4
			c0-0.1,0-0.1-0.1-0.2c0.2,0,0.4-0.1,0.4-0.1S270,430.3,269.8,430.4z M269.8,420.7c-0.2,0.3-0.5,0.7-0.9,1.1
			c-0.6-0.7-1.1-1.1-1.1-1.1H269.8z M273.1,414.8c0,0-1.7,1.4-3.5,2.7c-0.2-0.5-0.4-1.1-0.5-1.6L273.1,414.8z M290.8,440.3h-1.3
			c-0.1-0.1-0.2-0.3-0.2-0.3C288.8,439.1,290,439.8,290.8,440.3z"/>
	</g>
	<path class="st2" d="M278.3,513.5c-0.5-0.4-1-0.8-1.5-1.1c-0.5-0.4-1-0.8-1.5-1.1c-0.5-0.4-1-0.8-1.5-1.1c-0.5-0.4-1-0.8-1.5-1.1
		c-0.5-0.4-1-0.8-1.5-1.1c-0.5-0.4-1-0.8-1.5-1.1c-0.5-0.4-1-0.8-1.5-1.1c-0.5-0.4-1-0.8-1.5-1.1c-3.3-2.8-8.3-3-13.9,0.2L61.9,615
		c-9.8,5.6-17.8,19.5-17.8,30.8v124.8c0,5.8,2.1,9.8,5.4,11.6c0.5,0.4,1,0.8,1.5,1.1c0.5,0.4,1,0.8,1.5,1.1c0.5,0.4,1,0.8,1.5,1.1
		c0.5,0.4,1,0.8,1.5,1.1c0.5,0.4,1,0.8,1.5,1.1c0.5,0.4,1,0.8,1.5,1.1c0.5,0.4,1,0.8,1.5,1.1c0.5,0.4,1,0.8,1.5,1.1
		c3.3,2.8,8.3,3,13.9-0.2l190.2-109.8c9.8-5.6,17.8-19.5,17.8-30.8V525.1C283.7,519.3,281.6,515.3,278.3,513.5z"/>
	<path class="st29" d="M274,520c0.8,0,1.1,0.3,1.4,0.6c0.7,0.9,1.1,2.6,1.1,4.7v124.8c0,8.7-6.6,20-14.1,24.4L72.3,784.2
		c-2.1,1.2-3.5,1.4-4.2,1.4c-0.8,0-1.1-0.3-1.4-0.6c-0.7-0.9-1.1-2.6-1.1-4.7V655.6c0-8.7,6.6-20,14.1-24.4l190.2-109.8
		C271.9,520.2,273.3,520,274,520"/>
	<g>
		<g>
			<path class="st30" d="M212.9,848.1c0,0-52.8,6-57.3-60.3s0-78.9,0-78.9s2.2-14.1,0-11.2s-4.5,17.9-4.5,17.9s-13.4,3.7-14.9,9.7
				c-1.5,6,4.5,13.4,4.5,13.4l1.5,37.9c0,0-6.7,91.5,48.4,106.4c55.1,14.9,36.2,64.3,36.2,64.3l57.6-33.1c0,0,102.6-41.7,63.1-49.1
				s-55.8-46.9-72.2-42.4C259,827.2,241.1,843.3,212.9,848.1z"/>
		</g>
		<path class="st30" d="M297.7,717.3c-12.7-1.7-27.3,7.1-32,19.3c-1.2,3.1-1.1,8-0.7,17.9c0.6,20.5,1.1,30.9,7.4,35.7
			c4.6,3.5,8.3,1.8,11.2,6c3.3,4.8,1.5,12-0.7,16.4c-2.8,5.5-7.3,8-17.1,13.4c-16.2,8.8-20.2,10.6-22.3,11.9
			c-21.9,13.3-30.9,96.9,6.7,101.9c11,1.5,12.9-34.1,50.6-24.7c3,0.7,20,4.7,25.3-2.8c37.5-52.6,10.4-171-17.1-190.4
			C303.6,718.1,297.7,717.3,297.7,717.3z"/>
		<path class="st31" d="M213.2,847.1c-5.4,0.8-10,0.7-16.1-0.3c-14.1-2.4-24.9-13.8-36-23.1c-2.2-1.8-4.5-3.6-7.2-4.3
			c-2.7-0.6-6.1,0.4-7.2,2.9c-0.7,1.5-0.5,3.3-0.3,5c1.5,10.3,5.1,20.3,10.6,29.2c5.3,8.6,12.4,16.3,21.3,21.2
			c11.5,6.3,25.7,7.9,35.5,16.8c7.2,6.5,10.9,16.3,11.4,25.9s-2.6,18.8-6.3,27.8c7.8,0.2,15.5-0.8,23.3-2
			c17.2-2.7,34.3-7.6,50.3-14.1c23.2-9.5,44.6-24.2,59.6-44.2c3.5-4.7,7.1-11.2,5.1-17.1c-0.7-2.1-1.5-3.4-3.8-4
			c-3.3-0.8-6.6-1.4-9.8-2.4c-6.6-2-13-4.8-19-8.2c-1.5-0.9-3-1.8-4.5-2.7c-9.5-6.2-17.8-14.1-26.1-21.9c-4.2-4-8.8-8.2-14.6-8.9
			c-3.2-0.4-6.3,0.4-9.4,1.3c-12.4,3.8-23.5,10.8-35.2,16.2C227.9,843.3,220.6,845.9,213.2,847.1z"/>
		<path class="st32" d="M264.2,743.3c0.4-13.9,8.2-26.8,26.8-29.8c18-2.9,36.2,12.3,43.9,22.3c10.3,13.4,6.5,20.7,17.9,32
			c10.2,10.2,17.7,8.6,29.8,17.1c17.2,12.2,11.1,23.5,26,37.2c15.8,14.5,26.4,7.2,41.7,20.1c14.1,11.9,22.8,33.3,20.1,51.3
			c-5.3,34.8-53.4,58.9-93.7,52.8c-41.4-6.2-76.1-44.4-72.9-68.4c0.7-5.4,3.8-13.6,0-23.1c-3.8-9.5-10.3-9.6-17.1-17.9
			c-10.9-13.3-2.4-23.3-10.4-55.1C271.4,763.6,263.8,754.1,264.2,743.3z"/>
	</g>
	<g>
		<polygon class="st2" points="714.4,538.4 786.6,471.5 858.9,538.4 858.9,469.5 714.4,469.5 		"/>
		
			<linearGradient id="SVGID_22_" gradientUnits="userSpaceOnUse" x1="-5821.6665" y1="461.0995" x2="-5653.9404" y2="461.0995" gradientTransform="matrix(-1 0 0 1 -4951.1685 0)">
			<stop  offset="0" style="stop-color:#002E61"/>
			<stop  offset="0.2672" style="stop-color:#012C5F"/>
			<stop  offset="1" style="stop-color:#110A2D"/>
		</linearGradient>
		<polygon class="st33" points="702.8,470 870.5,470 870.5,452.2 702.8,452.2 		"/>
		
			<linearGradient id="SVGID_23_" gradientUnits="userSpaceOnUse" x1="-5796.4243" y1="423.7765" x2="-5679.1821" y2="423.7765" gradientTransform="matrix(-1 0 0 1 -4951.1685 0)">
			<stop  offset="0" style="stop-color:#002E61"/>
			<stop  offset="0.2672" style="stop-color:#012C5F"/>
			<stop  offset="1" style="stop-color:#110A2D"/>
		</linearGradient>
		<polygon class="st34" points="728,451.7 845.3,451.7 845.3,395.9 728,395.9 		"/>
		<g>
			
				<rect x="819.3" y="413.4" transform="matrix(-1 -4.488511e-11 4.488511e-11 -1 1646.5959 834.7656)" class="st1" width="8" height="8"/>
			
				<rect x="804.6" y="413.4" transform="matrix(-1 -4.511292e-11 4.511292e-11 -1 1617.2655 834.7656)" class="st1" width="8" height="8"/>
			
				<rect x="790" y="413.4" transform="matrix(-1 -4.499924e-11 4.499924e-11 -1 1587.9351 834.7656)" class="st1" width="8" height="8"/>
			
				<rect x="775.3" y="413.4" transform="matrix(-1 -4.465729e-11 4.465729e-11 -1 1558.6046 834.7656)" class="st1" width="8" height="8"/>
			
				<rect x="760.6" y="413.4" transform="matrix(-1 -4.465729e-11 4.465729e-11 -1 1529.2743 834.7656)" class="st1" width="8" height="8"/>
			
				<rect x="746" y="413.4" transform="matrix(-1 -4.488511e-11 4.488511e-11 -1 1499.9438 834.7656)" class="st1" width="8" height="8"/>
		</g>
	</g>
	<g>
		<g>
			
				<rect x="437.7" y="347" transform="matrix(-1 -4.488155e-11 4.488155e-11 -1 1009.2095 804.8115)" class="st35" width="133.9" height="110.8"/>
			<g>
				
					<rect x="531.5" y="436.3" transform="matrix(-1 -4.469148e-11 4.469148e-11 -1 1089.7396 899.2903)" class="st36" width="26.8" height="26.8"/>
				
					<rect x="504.7" y="436.3" transform="matrix(-1 -4.509871e-11 4.509871e-11 -1 1036.1769 899.2903)" class="st37" width="26.8" height="26.8"/>
				
					<rect x="477.9" y="436.3" transform="matrix(-1 -4.482737e-11 4.482737e-11 -1 982.6141 899.2903)" class="st38" width="26.8" height="26.8"/>
				
					<rect x="451.1" y="436.3" transform="matrix(-1 -4.496327e-11 4.496327e-11 -1 929.0513 899.2903)" class="st37" width="26.8" height="26.8"/>
				
					<rect x="424.4" y="436.3" transform="matrix(-1 -4.482737e-11 4.482737e-11 -1 875.4885 899.2903)" class="st39" width="26.8" height="26.8"/>
				
					<rect x="558.3" y="436.3" transform="matrix(-1 -4.482737e-11 4.482737e-11 -1 1143.3025 899.2903)" class="st38" width="26.8" height="26.8"/>
				<rect x="424.4" y="382.7" class="st37" width="26.8" height="26.8"/>
				<rect x="451.1" y="382.7" class="st36" width="26.8" height="26.8"/>
				<rect x="477.9" y="382.7" class="st40" width="26.8" height="26.8"/>
				<rect x="504.7" y="382.7" class="st39" width="26.8" height="26.8"/>
				<rect x="531.5" y="382.7" class="st5" width="26.8" height="26.8"/>
				<rect x="558.3" y="382.7" class="st40" width="26.8" height="26.8"/>
				
					<rect x="531.5" y="409.5" transform="matrix(-1 -4.475943e-11 4.475943e-11 -1 1089.7396 845.7275)" class="st38" width="26.8" height="26.8"/>
				
					<rect x="504.7" y="409.5" transform="matrix(-1 -4.509871e-11 4.509871e-11 -1 1036.1769 845.7275)" class="st5" width="26.8" height="26.8"/>
				
					<rect x="477.9" y="409.5" transform="matrix(-1 -4.469148e-11 4.469148e-11 -1 982.6141 845.7275)" class="st37" width="26.8" height="26.8"/>
				
					<rect x="451.1" y="409.5" transform="matrix(-1 -4.509871e-11 4.509871e-11 -1 929.0513 845.7275)" class="st38" width="26.8" height="26.8"/>
				
					<rect x="424.4" y="409.5" transform="matrix(-1 -4.475943e-11 4.475943e-11 -1 875.4885 845.7275)" class="st5" width="26.8" height="26.8"/>
				
					<rect x="558.3" y="409.5" transform="matrix(-1 -4.503121e-11 4.503121e-11 -1 1143.3025 845.7275)" class="st37" width="26.8" height="26.8"/>
			</g>
			<path class="st41" d="M637.9,472c0,0-79.6,72.9-97.5,135.4h-35.7V449.6L637.9,472z"/>
			<path class="st2" d="M371.5,472c0,0,79.6,72.9,97.5,135.4h35.7V449.6L371.5,472z"/>
			<polygon class="st42" points="371.5,472 371.5,465.3 504.7,442.2 637.9,466 637.9,472 504.7,449.6 			"/>
			<g>
				
					<rect x="555.1" y="358.9" transform="matrix(-1 -4.455559e-11 4.455559e-11 -1 1116.8931 724.4673)" class="st42" width="6.7" height="6.7"/>
				
					<rect x="543.2" y="358.9" transform="matrix(-1 -4.591406e-11 4.591406e-11 -1 1093.0874 724.4673)" class="st42" width="6.7" height="6.7"/>
				
					<rect x="531.3" y="358.9" transform="matrix(-1 -4.482737e-11 4.482737e-11 -1 1069.2816 724.4673)" class="st42" width="6.7" height="6.7"/>
				
					<rect x="519.4" y="358.9" transform="matrix(-1 -4.618584e-11 4.618584e-11 -1 1045.476 724.4673)" class="st42" width="6.7" height="6.7"/>
				
					<rect x="507.5" y="358.9" transform="matrix(-1 -4.482737e-11 4.482737e-11 -1 1021.6703 724.4673)" class="st42" width="6.7" height="6.7"/>
				
					<rect x="495.6" y="358.9" transform="matrix(-1 -4.455559e-11 4.455559e-11 -1 997.8646 724.4673)" class="st42" width="6.7" height="6.7"/>
				
					<rect x="483.7" y="358.9" transform="matrix(-1 -4.482737e-11 4.482737e-11 -1 974.0589 724.4673)" class="st42" width="6.7" height="6.7"/>
				
					<rect x="471.8" y="358.9" transform="matrix(-1 -4.482737e-11 4.482737e-11 -1 950.2532 724.4673)" class="st42" width="6.7" height="6.7"/>
				
					<rect x="459.9" y="358.9" transform="matrix(-1 -4.482737e-11 4.482737e-11 -1 926.4476 724.4673)" class="st42" width="6.7" height="6.7"/>
				
					<rect x="448" y="358.9" transform="matrix(-1 -4.482737e-11 4.482737e-11 -1 902.6419 724.4673)" class="st42" width="6.7" height="6.7"/>
			</g>
			<path class="st35" d="M460.1,340.3h24.5V285c0-2.7-2.2-4.9-4.9-4.9h-19.6V340.3z"/>
			<polygon class="st42" points="437.3,347 571.9,347 579.4,335.8 429.8,335.8 			"/>
		</g>
		<g>
			
				<rect x="459.9" y="296.4" transform="matrix(-1 -4.452717e-11 4.452717e-11 -1 944.4878 595.8498)" class="st32" width="24.7" height="3"/>
			<path class="st32" d="M543.7,599.5l-39-7.2l-39,7.2c0,0-1.3-3.3-1.7-4.3s40.7-8.5,40.7-8.5l40.7,8.5
				C545.4,595.2,544,598.8,543.7,599.5z"/>
		</g>
	</g>
	<g>
		
			<rect x="705.3" y="209.6" transform="matrix(-0.6525 0.7578 -0.7578 -0.6525 1409.4456 -15.0383)" class="st2" width="5.7" height="212"/>
		
			<rect x="643.2" y="259.6" transform="matrix(-0.927 -0.3751 0.3751 -0.927 1287.96 773.8843)" class="st2" width="152.2" height="4"/>
		<polyline class="st43" points="839.7,395.9 791.5,278.5 663.7,220.9 		"/>
		<path class="st2" d="M791.5,408.1L791.5,408.1c3.3,0,5.9-2.6,5.9-5.9V280.9c0-3.3-2.6-5.9-5.9-5.9l0,0c-3.3,0-5.9,2.6-5.9,5.9
			v121.2C785.6,405.4,788.2,408.1,791.5,408.1z"/>
		<g>
			
				<rect x="586.9" y="228.7" transform="matrix(-0.893 0.45 -0.45 -0.893 1223.6948 200.274)" class="st2" width="2.2" height="33.8"/>
			
				<rect x="560.9" y="252.9" transform="matrix(-0.893 0.45 -0.45 -0.893 1181.7659 244.8451)" class="st2" width="1.8" height="19.9"/>
			
				<rect x="619.2" y="225.5" transform="matrix(-0.893 0.45 -0.45 -0.893 1279.8076 166.9775)" class="st2" width="1.8" height="20.2"/>
			<polyline class="st43" points="516.2,296.3 580.3,230.4 675.2,219.6 			"/>
			<path class="st2" d="M530.4,299.3l144.5-72.8c2.5-1.3,3.5-4.3,2.2-6.8v0c-1.3-2.5-4.3-3.5-6.8-2.2l-155.3,78.3l-2.7,1.4
				L530.4,299.3z"/>
		</g>
	</g>
	<g>
		<g>
			<polygon class="st41" points="791,754.3 817.7,754.3 817.7,664.7 817.7,643.3 791,628.4 			"/>
			
				<rect x="737.6" y="628.4" transform="matrix(-1 -4.489488e-11 4.489488e-11 -1 1528.5199 1382.7)" class="st2" width="53.4" height="125.8"/>
		</g>
		<g>
			
				<rect x="741.6" y="640.3" transform="matrix(-1 -4.493040e-11 4.493040e-11 -1 1487.1146 1284.4771)" class="st40" width="3.9" height="3.9"/>
			<circle class="st32" cx="782.4" cy="642" r="1.4"/>
			<circle class="st32" cx="777.6" cy="642" r="1.4"/>
			<circle class="st32" cx="772.8" cy="642" r="1.4"/>
			<circle class="st44" cx="768" cy="642" r="1.4"/>
		</g>
		<g>
			
				<rect x="741.6" y="648" transform="matrix(-1 -4.539847e-11 4.539847e-11 -1 1487.1146 1299.8167)" class="st40" width="3.9" height="3.9"/>
			<circle class="st32" cx="782.4" cy="649.7" r="1.4"/>
			<circle class="st32" cx="777.6" cy="649.7" r="1.4"/>
			<circle class="st32" cx="772.8" cy="649.7" r="1.4"/>
			<circle class="st44" cx="768" cy="649.7" r="1.4"/>
		</g>
		<g class="st45">
			<line class="st46" x1="794.7" y1="636.7" x2="813.9" y2="647.8"/>
			<line class="st46" x1="794.7" y1="638.6" x2="813.9" y2="649.7"/>
			<line class="st46" x1="794.7" y1="640.5" x2="813.9" y2="651.6"/>
			<line class="st46" x1="794.7" y1="642.4" x2="813.9" y2="653.5"/>
			<line class="st46" x1="794.7" y1="644.3" x2="813.9" y2="655.4"/>
			<line class="st46" x1="794.7" y1="646.2" x2="813.9" y2="657.3"/>
			<line class="st46" x1="794.7" y1="648.2" x2="813.9" y2="659.2"/>
			<line class="st46" x1="794.7" y1="650.1" x2="813.9" y2="661.1"/>
			<line class="st46" x1="794.7" y1="652" x2="813.9" y2="663"/>
			<line class="st46" x1="794.7" y1="653.9" x2="813.9" y2="664.9"/>
			<line class="st46" x1="794.7" y1="655.8" x2="813.9" y2="666.8"/>
			<line class="st46" x1="794.7" y1="657.7" x2="813.9" y2="668.7"/>
			<line class="st46" x1="794.7" y1="659.6" x2="813.9" y2="670.6"/>
			<line class="st46" x1="794.7" y1="661.5" x2="813.9" y2="672.6"/>
			<line class="st46" x1="794.7" y1="663.4" x2="813.9" y2="674.5"/>
			<line class="st46" x1="794.7" y1="665.3" x2="813.9" y2="676.4"/>
			<line class="st46" x1="794.7" y1="667.2" x2="813.9" y2="678.3"/>
			<line class="st46" x1="794.7" y1="669.1" x2="813.9" y2="680.2"/>
			<line class="st46" x1="794.7" y1="671" x2="813.9" y2="682.1"/>
			<line class="st46" x1="794.7" y1="672.9" x2="813.9" y2="684"/>
			<line class="st46" x1="794.7" y1="674.8" x2="813.9" y2="685.9"/>
			<line class="st46" x1="794.7" y1="676.8" x2="813.9" y2="687.8"/>
			<line class="st46" x1="794.7" y1="678.7" x2="813.9" y2="689.7"/>
			<line class="st46" x1="794.7" y1="680.6" x2="813.9" y2="691.6"/>
			<line class="st46" x1="794.7" y1="682.5" x2="813.9" y2="693.5"/>
			<line class="st46" x1="794.7" y1="684.4" x2="813.9" y2="695.4"/>
			<line class="st46" x1="794.7" y1="686.3" x2="813.9" y2="697.3"/>
			<line class="st46" x1="794.7" y1="688.2" x2="813.9" y2="699.2"/>
			<line class="st46" x1="794.7" y1="690.1" x2="813.9" y2="701.2"/>
			<line class="st46" x1="794.7" y1="692" x2="813.9" y2="703.1"/>
			<line class="st46" x1="794.7" y1="693.9" x2="813.9" y2="705"/>
			<line class="st46" x1="794.7" y1="695.8" x2="813.9" y2="706.9"/>
			<line class="st46" x1="794.7" y1="697.7" x2="813.9" y2="708.8"/>
			<line class="st46" x1="794.7" y1="699.6" x2="813.9" y2="710.7"/>
			<line class="st46" x1="794.7" y1="701.5" x2="813.9" y2="712.6"/>
			<line class="st46" x1="794.7" y1="703.4" x2="813.9" y2="714.5"/>
			<line class="st46" x1="794.7" y1="705.4" x2="813.9" y2="716.4"/>
			<line class="st46" x1="794.7" y1="707.3" x2="813.9" y2="718.3"/>
			<line class="st46" x1="794.7" y1="709.2" x2="813.9" y2="720.2"/>
			<line class="st46" x1="794.7" y1="711.1" x2="813.9" y2="722.1"/>
			<line class="st46" x1="794.7" y1="713" x2="813.9" y2="724"/>
			<line class="st46" x1="794.7" y1="714.9" x2="813.9" y2="725.9"/>
			<line class="st46" x1="794.7" y1="716.8" x2="813.9" y2="727.8"/>
			<line class="st46" x1="794.7" y1="718.7" x2="813.9" y2="729.8"/>
			<line class="st46" x1="794.7" y1="720.6" x2="813.9" y2="731.7"/>
			<line class="st46" x1="794.7" y1="722.5" x2="813.9" y2="733.6"/>
			<line class="st46" x1="794.7" y1="724.4" x2="813.9" y2="735.5"/>
			<line class="st46" x1="794.7" y1="726.3" x2="813.9" y2="737.4"/>
			<line class="st46" x1="794.7" y1="728.2" x2="813.9" y2="739.3"/>
			<line class="st46" x1="794.7" y1="730.1" x2="813.9" y2="741.2"/>
			<line class="st46" x1="794.7" y1="732" x2="813.9" y2="743.1"/>
			<line class="st46" x1="794.7" y1="734" x2="813.9" y2="745"/>
			<line class="st46" x1="794.7" y1="735.9" x2="813.9" y2="746.9"/>
			<line class="st46" x1="794.7" y1="737.8" x2="813.9" y2="748.8"/>
			<line class="st46" x1="794.7" y1="739.7" x2="813.9" y2="750.7"/>
			<line class="st46" x1="794.7" y1="741.6" x2="813.9" y2="752.6"/>
		</g>
	</g>
	<g>
		<g>
			<polygon class="st41" points="844.1,753.7 861.1,753.7 861.1,696.6 861.1,683 844.1,673.6 			"/>
			
				<rect x="810.1" y="673.6" transform="matrix(-1 -4.488599e-11 4.488599e-11 -1 1654.213 1427.2191)" class="st2" width="34" height="80.1"/>
		</g>
		<g>
			
				<rect x="812.7" y="681.1" transform="matrix(-1 -4.484025e-11 4.484025e-11 -1 1627.8502 1364.6807)" class="st40" width="2.5" height="2.5"/>
			<circle class="st32" cx="838.7" cy="682.2" r="0.9"/>
			<circle class="st32" cx="835.6" cy="682.2" r="0.9"/>
			<circle class="st32" cx="832.6" cy="682.2" r="0.9"/>
			<circle class="st44" cx="829.5" cy="682.2" r="0.9"/>
		</g>
		<g>
			
				<rect x="812.7" y="686" transform="matrix(-1 -4.484025e-11 4.484025e-11 -1 1627.8502 1374.4474)" class="st40" width="2.5" height="2.5"/>
			<circle class="st32" cx="838.7" cy="687.1" r="0.9"/>
			<circle class="st32" cx="835.6" cy="687.1" r="0.9"/>
			<circle class="st32" cx="832.6" cy="687.1" r="0.9"/>
			<circle class="st44" cx="829.5" cy="687.1" r="0.9"/>
		</g>
		<g class="st45">
			<line class="st47" x1="846.5" y1="678.8" x2="858.7" y2="685.9"/>
			<line class="st47" x1="846.5" y1="680" x2="858.7" y2="687.1"/>
			<line class="st47" x1="846.5" y1="681.2" x2="858.7" y2="688.3"/>
			<line class="st47" x1="846.5" y1="682.5" x2="858.7" y2="689.5"/>
			<line class="st47" x1="846.5" y1="683.7" x2="858.7" y2="690.7"/>
			<line class="st47" x1="846.5" y1="684.9" x2="858.7" y2="691.9"/>
			<line class="st47" x1="846.5" y1="686.1" x2="858.7" y2="693.1"/>
			<line class="st47" x1="846.5" y1="687.3" x2="858.7" y2="694.4"/>
			<line class="st47" x1="846.5" y1="688.5" x2="858.7" y2="695.6"/>
			<line class="st47" x1="846.5" y1="689.7" x2="858.7" y2="696.8"/>
			<line class="st47" x1="846.5" y1="691" x2="858.7" y2="698"/>
			<line class="st47" x1="846.5" y1="692.2" x2="858.7" y2="699.2"/>
			<line class="st47" x1="846.5" y1="693.4" x2="858.7" y2="700.4"/>
			<line class="st47" x1="846.5" y1="694.6" x2="858.7" y2="701.6"/>
			<line class="st47" x1="846.5" y1="695.8" x2="858.7" y2="702.9"/>
			<line class="st47" x1="846.5" y1="697" x2="858.7" y2="704.1"/>
			<line class="st47" x1="846.5" y1="698.2" x2="858.7" y2="705.3"/>
			<line class="st47" x1="846.5" y1="699.5" x2="858.7" y2="706.5"/>
			<line class="st47" x1="846.5" y1="700.7" x2="858.7" y2="707.7"/>
			<line class="st47" x1="846.5" y1="701.9" x2="858.7" y2="708.9"/>
			<line class="st47" x1="846.5" y1="703.1" x2="858.7" y2="710.1"/>
			<line class="st47" x1="846.5" y1="704.3" x2="858.7" y2="711.4"/>
			<line class="st47" x1="846.5" y1="705.5" x2="858.7" y2="712.6"/>
			<line class="st47" x1="846.5" y1="706.7" x2="858.7" y2="713.8"/>
			<line class="st47" x1="846.5" y1="708" x2="858.7" y2="715"/>
			<line class="st47" x1="846.5" y1="709.2" x2="858.7" y2="716.2"/>
			<line class="st47" x1="846.5" y1="710.4" x2="858.7" y2="717.4"/>
			<line class="st47" x1="846.5" y1="711.6" x2="858.7" y2="718.6"/>
			<line class="st47" x1="846.5" y1="712.8" x2="858.7" y2="719.9"/>
			<line class="st47" x1="846.5" y1="714" x2="858.7" y2="721.1"/>
			<line class="st47" x1="846.5" y1="715.2" x2="858.7" y2="722.3"/>
			<line class="st47" x1="846.5" y1="716.5" x2="858.7" y2="723.5"/>
			<line class="st47" x1="846.5" y1="717.7" x2="858.7" y2="724.7"/>
			<line class="st47" x1="846.5" y1="718.9" x2="858.7" y2="725.9"/>
			<line class="st47" x1="846.5" y1="720.1" x2="858.7" y2="727.1"/>
			<line class="st47" x1="846.5" y1="721.3" x2="858.7" y2="728.4"/>
			<line class="st47" x1="846.5" y1="722.5" x2="858.7" y2="729.6"/>
			<line class="st47" x1="846.5" y1="723.7" x2="858.7" y2="730.8"/>
			<line class="st47" x1="846.5" y1="725" x2="858.7" y2="732"/>
			<line class="st47" x1="846.5" y1="726.2" x2="858.7" y2="733.2"/>
			<line class="st47" x1="846.5" y1="727.4" x2="858.7" y2="734.4"/>
			<line class="st47" x1="846.5" y1="728.6" x2="858.7" y2="735.6"/>
			<line class="st47" x1="846.5" y1="729.8" x2="858.7" y2="736.8"/>
			<line class="st47" x1="846.5" y1="731" x2="858.7" y2="738.1"/>
			<line class="st47" x1="846.5" y1="732.2" x2="858.7" y2="739.3"/>
			<line class="st47" x1="846.5" y1="733.5" x2="858.7" y2="740.5"/>
			<line class="st47" x1="846.5" y1="734.7" x2="858.7" y2="741.7"/>
			<line class="st47" x1="846.5" y1="735.9" x2="858.7" y2="742.9"/>
			<line class="st47" x1="846.5" y1="737.1" x2="858.7" y2="744.1"/>
			<line class="st47" x1="846.5" y1="738.3" x2="858.7" y2="745.3"/>
			<line class="st47" x1="846.5" y1="739.5" x2="858.7" y2="746.6"/>
			<line class="st47" x1="846.5" y1="740.7" x2="858.7" y2="747.8"/>
			<line class="st47" x1="846.5" y1="741.9" x2="858.7" y2="749"/>
			<line class="st47" x1="846.5" y1="743.2" x2="858.7" y2="750.2"/>
			<line class="st47" x1="846.5" y1="744.4" x2="858.7" y2="751.4"/>
			<line class="st47" x1="846.5" y1="745.6" x2="858.7" y2="752.6"/>
		</g>
	</g>
	<g class="st48">
		<line class="st49" x1="582.7" y1="386.7" x2="561" y2="386.7"/>
		<line class="st49" x1="582.7" y1="388.6" x2="561" y2="388.6"/>
		<line class="st49" x1="582.7" y1="390.4" x2="561" y2="390.4"/>
		<line class="st49" x1="582.7" y1="392.3" x2="561" y2="392.3"/>
		<line class="st49" x1="582.7" y1="394.1" x2="561" y2="394.1"/>
		<line class="st49" x1="582.7" y1="396" x2="561" y2="396"/>
		<line class="st49" x1="582.7" y1="397.9" x2="561" y2="397.9"/>
		<line class="st49" x1="582.7" y1="399.7" x2="561" y2="399.7"/>
		<line class="st49" x1="582.7" y1="401.6" x2="561" y2="401.6"/>
		<line class="st49" x1="582.7" y1="403.4" x2="561" y2="403.4"/>
		<line class="st49" x1="582.7" y1="405.3" x2="561" y2="405.3"/>
	</g>
	<g class="st48">
		<line class="st49" x1="502.4" y1="413.5" x2="480.7" y2="413.5"/>
		<line class="st49" x1="502.4" y1="415.3" x2="480.7" y2="415.3"/>
		<line class="st49" x1="502.4" y1="417.2" x2="480.7" y2="417.2"/>
		<line class="st49" x1="502.4" y1="419.1" x2="480.7" y2="419.1"/>
		<line class="st49" x1="502.4" y1="420.9" x2="480.7" y2="420.9"/>
		<line class="st49" x1="502.4" y1="422.8" x2="480.7" y2="422.8"/>
		<line class="st49" x1="502.4" y1="424.6" x2="480.7" y2="424.6"/>
		<line class="st49" x1="502.4" y1="426.5" x2="480.7" y2="426.5"/>
		<line class="st49" x1="502.4" y1="428.4" x2="480.7" y2="428.4"/>
		<line class="st49" x1="502.4" y1="430.2" x2="480.7" y2="430.2"/>
		<line class="st49" x1="502.4" y1="432.1" x2="480.7" y2="432.1"/>
	</g>
	<g class="st48">
		<line class="st49" x1="448.8" y1="386.7" x2="427.1" y2="386.7"/>
		<line class="st49" x1="448.8" y1="388.6" x2="427.1" y2="388.6"/>
		<line class="st49" x1="448.8" y1="390.4" x2="427.1" y2="390.4"/>
		<line class="st49" x1="448.8" y1="392.3" x2="427.1" y2="392.3"/>
		<line class="st49" x1="448.8" y1="394.1" x2="427.1" y2="394.1"/>
		<line class="st49" x1="448.8" y1="396" x2="427.1" y2="396"/>
		<line class="st49" x1="448.8" y1="397.9" x2="427.1" y2="397.9"/>
		<line class="st49" x1="448.8" y1="399.7" x2="427.1" y2="399.7"/>
		<line class="st49" x1="448.8" y1="401.6" x2="427.1" y2="401.6"/>
		<line class="st49" x1="448.8" y1="403.4" x2="427.1" y2="403.4"/>
		<line class="st49" x1="448.8" y1="405.3" x2="427.1" y2="405.3"/>
	</g>
	<g>
		<path class="st4" d="M833.9,752.7c0.9,2.4-2,5.9-4.1,8.5c-8.9,11.2-18.6,21.9-30.2,30.2c-11.6,8.3-25.2,14.3-39.5,15
			c-22.4,1.2-43.5-10-65.7-12.7c3.8-8.9,8.4-17.4,13.6-25.5c5.3-8.2,11.4-16.2,19.8-21.1c12.9-7.6,28.8-7,43.8-5.9
			c19.9,1.5,39.8,3.6,59,9.1C832.5,750.9,833.5,751.7,833.9,752.7z"/>
		<g>
			<path class="st1" d="M697.1,792.7l15.7-5.7l15.7-5.5c10.5-3.6,21.1-7.1,31.7-10.5c10.6-3.3,21.2-6.6,32-9.3
				c5.4-1.4,10.9-2.3,16.4-3.2l16.5-2.6l-16.4,3c-5.5,0.9-10.9,1.9-16.3,3.4c-10.7,2.8-21.4,6.1-32,9.5
				c-10.6,3.3-21.2,6.8-31.7,10.3L697.1,792.7z"/>
		</g>
		<g>
			<path class="st1" d="M783.4,749.4c-0.8,1-1.7,2-2.6,3l-2.6,2.9c-0.9,1-1.7,1.9-2.6,2.9c-0.8,1-1.6,2-2.4,3.1
				c0.5-1.2,1.2-2.4,1.9-3.4c0.7-1.1,1.6-2.1,2.4-3.1c0.9-1,1.8-1.9,2.7-2.8C781.4,751,782.4,750.2,783.4,749.4z"/>
		</g>
		<g>
			<path class="st1" d="M802.6,778.1c-2,0-4.1-0.2-6.1-0.5c-2-0.2-4-0.6-6-1c-2-0.4-4-0.9-5.9-1.5c-1.9-0.6-3.9-1.4-5.6-2.5
				c0.5,0.2,0.9,0.4,1.4,0.6l1.4,0.5c1,0.3,1.9,0.6,2.9,0.8c2,0.5,3.9,1,5.9,1.3c2,0.4,4,0.8,6,1.2L802.6,778.1z"/>
		</g>
		<g>
			<path class="st1" d="M785.6,792.7c-2.7-0.8-5.3-1.7-7.9-2.6c-2.6-0.9-5.2-2-7.7-3c-2.5-1.1-5.1-2.2-7.6-3.4
				c-2.5-1.2-5-2.5-7.3-3.9c2.5,1.2,5,2.3,7.6,3.4c2.5,1.1,5.1,2.2,7.6,3.2c2.5,1.1,5.1,2.1,7.7,3.2
				C780.4,790.5,783,791.6,785.6,792.7z"/>
		</g>
		<g>
			<path class="st1" d="M759.8,745.7l-3.8,4.8c-1.3,1.6-2.5,3.2-3.7,4.8c-1.2,1.6-2.4,3.3-3.5,5l-0.8,1.3l-0.7,1.3
				c-0.2,0.5-0.4,0.9-0.6,1.4c-0.2,0.5-0.3,1-0.5,1.5c0.2-2.1,1.1-4,2.1-5.8c1-1.8,2.1-3.5,3.4-5.2c1.2-1.6,2.5-3.2,3.9-4.7
				C756.8,748.6,758.3,747.1,759.8,745.7z"/>
		</g>
		<g>
			<path class="st1" d="M759,799.3c-2.5-0.5-4.9-1.2-7.3-1.9c-2.4-0.7-4.8-1.6-7.2-2.4c-2.3-0.9-4.7-1.9-6.9-3.1
				c-1.1-0.6-2.2-1.2-3.3-2c-1-0.8-2-1.6-2.7-2.7c0.8,1,1.8,1.7,2.9,2.4c1.1,0.7,2.2,1.2,3.3,1.7c2.3,1.1,4.6,2,6.9,2.9
				c2.3,0.9,4.7,1.7,7.1,2.6L759,799.3z"/>
		</g>
		<g>
			<path class="st1" d="M736,755.7c-1,1.6-2,3.2-3,4.9c-0.9,1.6-1.9,3.3-2.7,5c-0.9,1.7-1.7,3.4-2.3,5.2c-0.2,0.4-0.3,0.9-0.5,1.3
				c-0.1,0.5-0.3,0.9-0.4,1.4c-0.1,0.5-0.2,0.9-0.3,1.4c-0.1,0.5-0.1,0.9-0.2,1.4c-0.2-1.9,0.2-3.9,0.8-5.7c0.5-1.9,1.3-3.6,2.2-5.3
				c0.9-1.7,1.8-3.4,2.9-5C733.6,758.7,734.7,757.1,736,755.7z"/>
		</g>
	</g>
	<g>
		<path class="st4" d="M686.2,699.6c-13.7,3.3-5.2,22.3-8.1,28.9s-15-12.9-18.1-4.5s11.6,26.7,10.8,28.2c-2.6,4.9-18.1-4.5-17.6,4.4
			c0.5,8.9,29.2,18.6,21.1,22.7c-8.1,4.1-13.9-7.4-16.8-0.8c-2.9,6.7,7.4,25.9,21.9,29.9c14.5,4,37.9-1.4,43.1-11.2
			s11-23.2,3.1-20.8c-7.9,2.4-17.4,2.7-14.7-2.2c2.3-4.4,22.6-25,11.3-24.9c-11.3,0.1-12.6,8.7-15.8,4.7c-3.2-4,14.7-22.6,11.5-26.6
			c-3.2-4-7.6,0.6-17.4,2.7C690.7,732.2,699.9,696.4,686.2,699.6z"/>
		<g>
			<g>
				<path class="st1" d="M694.6,804.5c-1.9-11.2-3.4-22.5-4.7-33.8c-1-8.8-1.9-17.7-2.2-26.6c-0.2-3.8-0.2-7.6,0-11.4
					c0.2-4.7,1-9.3,1.1-14c0.1-3.2,0.2-6.7-0.9-9.8c-0.2-0.5-0.5-1.6-1.1-1.9c-0.3-0.1-1,0.9-1.3,0.7c2.1,0.8,1.9,6.7,2,8.2
					c0.3,8.6-1.3,17-1.1,25.6c0.4,17,2.7,34,5.1,50.9c0.6,4.3,1.2,8.5,2,12.8C693.3,805,694.6,804.6,694.6,804.5L694.6,804.5z"/>
			</g>
		</g>
	</g>
	<linearGradient id="SVGID_24_" gradientUnits="userSpaceOnUse" x1="158.9088" y1="768.9307" x2="158.9088" y2="768.9307">
		<stop  offset="0" style="stop-color:#52E5E7"/>
		<stop  offset="0.689" style="stop-color:#0130CB"/>
	</linearGradient>
	<path class="st50" d="M158.9,768.9"/>
	<linearGradient id="SVGID_25_" gradientUnits="userSpaceOnUse" x1="155.5783" y1="787.8049" x2="155.5783" y2="787.8049">
		<stop  offset="0" style="stop-color:#52E5E7"/>
		<stop  offset="0.689" style="stop-color:#0130CB"/>
	</linearGradient>
	<path class="st51" d="M155.6,787.8"/>
	<g>
		<polygon class="st52" points="82.5,661.9 82.5,671.2 155.1,629.3 155.1,620 		"/>
		<polygon class="st52" points="163.1,615.4 163.1,624.7 179.2,615.4 179.2,606.1 		"/>
		<polygon class="st52" points="139,647.9 139,657.2 203.4,620 203.4,610.7 		"/>
		<polygon class="st53" points="195.4,596.8 195.4,606.1 236.2,582.5 236.2,573.2 		"/>
		<polygon class="st53" points="130.9,652.6 130.9,661.9 106.7,675.8 106.7,666.5 		"/>
		<polygon class="st52" points="82.5,699.1 82.5,708.4 122.8,685.1 122.8,675.8 		"/>
		<polygon class="st53" points="130.8,671.2 130.8,680.5 171.2,657.2 171.2,647.9 		"/>
		<polygon class="st52" points="179.2,643.3 179.2,652.6 251.8,610.7 251.8,601.4 		"/>
		<polygon class="st53" points="211.5,606.1 211.5,615.4 227.6,606.1 227.6,596.8 		"/>
		<polygon class="st52" points="114.8,699.1 114.7,708.4 187.3,666.5 187.3,657.2 		"/>
		<polygon class="st53" points="195.4,652.6 195.4,661.9 211.5,652.6 211.5,643.3 		"/>
		<polygon class="st53" points="219.5,638.6 219.5,647.9 259.8,624.7 259.8,615.4 		"/>
	</g>
</g>
</svg>
