<?xml version="1.0" encoding="utf-8"?>
<!-- Generator: Adobe Illustrator 21.0.2, SVG Export Plug-In . SVG Version: 6.00 Build 0)  -->
<svg version="1.1" id="Layer_1" xmlns="http://www.w3.org/2000/svg" xmlns:xlink="http://www.w3.org/1999/xlink" x="0px" y="0px"
	 viewBox="0 0 1082 760.5" style="enable-background:new 0 0 1082 760.5;" xml:space="preserve">
<style type="text/css">
	.st0{fill:url(#SVGID_1_);}
	.st1{opacity:0.66;}
	.st2{fill:#FFFFFF;}
	.st3{opacity:0.74;fill:#FFFFFF;}
	.st4{clip-path:url(#SVGID_3_);}
	.st5{fill:url(#SVGID_4_);}
	.st6{fill:#1B0D44;}
	.st7{fill:#110A2D;}
	.st8{fill:#00C4EB;}
	.st9{fill:#F54C43;}
	.st10{fill:#FFAA64;}
	.st11{opacity:0.27;}
	.st12{fill:none;stroke:#F54C43;stroke-width:0.3962;stroke-linecap:round;stroke-miterlimit:10;}
	.st13{fill:url(#SVGID_5_);}
	.st14{fill:url(#SVGID_6_);}
	.st15{fill:url(#SVGID_7_);}
	.st16{fill:url(#SVGID_8_);}
	.st17{fill:#010F27;}
	.st18{fill:#F2F2F2;}
	.st19{fill:#0D1D3A;}
	.st20{filter:url(#Adobe_OpacityMaskFilter);}
	.st21{fill-rule:evenodd;clip-rule:evenodd;fill:url(#SVGID_10_);}
	.st22{mask:url(#SVGID_9_);fill-rule:evenodd;clip-rule:evenodd;fill:#FFFFFF;}
	.st23{fill:#FF6464;}
	.st24{fill:#FFE38D;}
	.st25{fill:none;stroke:#FFFFFF;stroke-width:0.7814;stroke-miterlimit:10;}
	.st26{fill:#9DD6E7;}
	.st27{fill:#3360B4;}
	.st28{fill:#4275B6;}
	.st29{opacity:0.75;fill:#0F6FFF;enable-background:new    ;}
	.st30{fill:none;stroke:#1D2761;stroke-width:1.5624;stroke-miterlimit:10;}
	.st31{fill:#FFFFFF;stroke:#002E61;stroke-width:6.0586;stroke-miterlimit:10;}
	.st32{fill:#20D5D2;}
	.st33{clip-path:url(#SVGID_12_);}
	.st34{clip-path:url(#SVGID_14_);fill:#FF6464;}
	.st35{clip-path:url(#SVGID_16_);}
	.st36{clip-path:url(#SVGID_18_);fill:#FFA3A3;}
	.st37{clip-path:url(#SVGID_20_);}
	.st38{clip-path:url(#SVGID_22_);fill:#00132E;}
	.st39{clip-path:url(#SVGID_24_);}
	.st40{clip-path:url(#SVGID_26_);enable-background:new    ;}
	.st41{clip-path:url(#SVGID_28_);}
	.st42{clip-path:url(#SVGID_30_);}
	.st43{clip-path:url(#SVGID_32_);fill:#2900AA;}
	.st44{fill:#754C24;}
	.st45{fill:#8C6239;}
</style>
<linearGradient id="SVGID_1_" gradientUnits="userSpaceOnUse" x1="8.6677" y1="380.2462" x2="1081.9895" y2="380.2462">
	<stop  offset="0" style="stop-color:#FFE38D"/>
	<stop  offset="0.689" style="stop-color:#FF6464"/>
</linearGradient>
<path class="st0" d="M127.1,155.7C374.4-142.1,903,70,997.6,118.7c27.8,14.3,71.1,37.4,82,80c14.8,57.8-44.9,93.2-66,214
	c-8.5,48.4-0.5,52.4-10,86c-22.5,80-86.9,125.4-130,156c-62.1,44.1-148.5,105.4-214,76c-52.9-23.7-48.2-86.7-112-108
	c-35-11.7-66.8-2.9-92,4c-87.7,24.2-101.5,82.2-172,114c-60.6,27.4-142,25.9-188-2C-23.6,666.3-26.8,341.2,127.1,155.7z"/>
<g class="st1">
	<path class="st2" d="M80.6,289.8c0.6,0,1.4,0,1.9,0.1c46.6,2.1,94.8,12,140.9,4.6c10.3-1.7,15.9-4.4,25.3-3.9
		c9.7,0.5,15.7,4.5,25.2,6.5c14.6,3.1,29.9,2.2,44.6-1.6c1.1-0.3,2.4-0.7,2.9-1.8c0.8-1.7-0.3-3.5-1.6-4.6
		c-6.1-5.8-14.9-10.7-22.5-13c-28.2-8.4-56.8-1.4-84.3-11.8c23.3-9.1,49.5-4.4,73.1,0c5.3,1,10.1,1.9,14.7,1.3
		c4.6-0.7,9.8-3,10.1-7.5c1.2-18.9-68.9-24.5-82.3-24.8c-25.8-0.5-47.2,1.3-72-1.7c7.7-5.6,14.6-11.5,19.1-19.7
		c1.3-2.4,2.8-4.2,1.9-6.8c-1.9-5.4-5.9-5.9-12.4-6c-20.9-0.3-40.9-0.6-63,2.5c-22.1,3.2-46.9,11.3-69.7,14.5
		c-10.4,3.2-22.6,6.2-28.7,15.6c-4.1,6.3-4.7,12.3-2.8,19.4c4.3,16,14.9,26.4,30.7,32.3C47.1,289,64.3,289,80.6,289.8z"/>
</g>
<path class="st3" d="M829.8,86.1c-50.2-5.7-102.2,4.4-152.3-3.6c2.9-4.4,12.6-4.6,20.3-5.2s16.9-4.7,13.1-8.8
	c-2.4-2.6-8.3-2.8-13.1-2.7c-15.2,0.3-30.4,0.5-45.5,0.8c-4.5,0.1-9.4,0.1-13.3-1.3s-6.2-4.8-3.5-7c0.8-0.7,2-1.1,3.1-1.6
	c14.4-5.7,28.7-11.5,43.1-17.2c8.8-3.5,18-7.1,28.4-8.2c12.3-1.2,24.7,1.4,35.6,5.1c8.1,2.8,18,6.2,26,3.3c3.4-1.2,5.4-3.4,7.7-5.3
	c30.8-26.3,99.5-16.9,139.5-4.9c5.3,1.6,11.1,3.9,11.8,7.4c1.1,5.5-9.9,8.5-18.6,10.3c-8.7,1.8-18.8,6.7-14.4,11.6
	c3.5,3.9,12.8,3.4,19.9,2.5c25.6-3.1,52.1-3.8,78.1-2.1c2.9,0.2,6.2,0.5,7.8,2c1.9,1.7,0.9,4-0.4,5.9C992.6,82,968.6,92.4,943,97.7
	c-25.6,5.3-53,6-80,6.7c-36.3,1-72.6,1.9-108.9,2.9c5.9,0,26.6-12.1,34-14.2C801.3,89.5,815.5,87.2,829.8,86.1z"/>
<g>
	<defs>
		<path id="SVGID_2_" d="M127.1,155.7C374.4-142.1,903,70,997.6,118.7c27.8,14.3,71.1,37.4,82,80c14.8,57.8-44.9,93.2-66,214
			c-8.5,48.4-0.5,52.4-10,86c-22.5,80-86.9,125.4-130,156c-62.1,44.1-148.5,105.4-214,76c-52.9-23.7-48.2-86.7-112-108
			c-35-11.7-66.8-2.9-92,4c-87.7,24.2-101.5,82.2-172,114c-60.6,27.4-142,25.9-188-2C-23.6,666.3-26.8,341.2,127.1,155.7z"/>
	</defs>
	<clipPath id="SVGID_3_">
		<use xlink:href="#SVGID_2_"  style="overflow:visible;"/>
	</clipPath>
	<g class="st4">
		<linearGradient id="SVGID_4_" gradientUnits="userSpaceOnUse" x1="576.8604" y1="601.6258" x2="514.6376" y2="-1.5877">
			<stop  offset="0.2457" style="stop-color:#B23F00"/>
			<stop  offset="0.267" style="stop-color:#BF5915"/>
			<stop  offset="0.3" style="stop-color:#CF7A31"/>
			<stop  offset="0.3368" style="stop-color:#DE9748"/>
			<stop  offset="0.3776" style="stop-color:#E9AE5B"/>
			<stop  offset="0.4242" style="stop-color:#F2C06A"/>
			<stop  offset="0.4802" style="stop-color:#F8CD74"/>
			<stop  offset="0.555" style="stop-color:#FCD47A"/>
			<stop  offset="0.7262" style="stop-color:#FDD67C"/>
		</linearGradient>
		<path class="st5" d="M1064.3,590.9c4.8-143.2,21.2-286.3,35.3-429c-73.7,15.4-153.4,35.5-224.8,59.4
			c-71.4,23.9-141.6,51.4-210.6,81.6c-69.3,30.3-137.4,63.2-204.7,97.8c-67.5,34.7-134.1,71.1-200.3,108.2
			c-33.1,18.6-66,37.3-98.9,56.2c-16.4,9.4-32.8,18.8-49.2,28.3c-14.5,8.3-30.6,15.2-43.6,25.7c-22.5,18.2-36.8,45.5-42.2,73.7
			c-6.7,35.3-0.9,71.9,9.3,106.3c342,0.8,684,1.6,1026,2.3C1060.7,731.3,1062,661.1,1064.3,590.9z"/>
		<g>
			<g>
				<polygon class="st6" points="888.4,374 859.9,374 859.9,278.6 859.9,255.9 888.4,240 				"/>
				<rect x="888.4" y="240" class="st7" width="56.9" height="134"/>
			</g>
			<g>
				<rect x="936.8" y="252.6" class="st8" width="4.1" height="4.1"/>
				<circle class="st9" cx="897.5" cy="254.5" r="1.5"/>
				<circle class="st9" cx="902.6" cy="254.5" r="1.5"/>
				<circle class="st9" cx="907.7" cy="254.5" r="1.5"/>
				<circle class="st10" cx="912.8" cy="254.5" r="1.5"/>
			</g>
			<g>
				<rect x="936.8" y="260.8" class="st8" width="4.1" height="4.1"/>
				<circle class="st9" cx="897.5" cy="262.6" r="1.5"/>
				<circle class="st9" cx="902.6" cy="262.6" r="1.5"/>
				<circle class="st9" cx="907.7" cy="262.6" r="1.5"/>
				<circle class="st10" cx="912.8" cy="262.6" r="1.5"/>
			</g>
			<g class="st11">
				<line class="st12" x1="884.3" y1="248.8" x2="863.9" y2="260.6"/>
				<line class="st12" x1="884.3" y1="250.9" x2="863.9" y2="262.6"/>
				<line class="st12" x1="884.3" y1="252.9" x2="863.9" y2="264.7"/>
				<line class="st12" x1="884.3" y1="254.9" x2="863.9" y2="266.7"/>
				<line class="st12" x1="884.3" y1="257" x2="863.9" y2="268.7"/>
				<line class="st12" x1="884.3" y1="259" x2="863.9" y2="270.8"/>
				<line class="st12" x1="884.3" y1="261" x2="863.9" y2="272.8"/>
				<line class="st12" x1="884.3" y1="263" x2="863.9" y2="274.8"/>
				<line class="st12" x1="884.3" y1="265.1" x2="863.9" y2="276.9"/>
				<line class="st12" x1="884.3" y1="267.1" x2="863.9" y2="278.9"/>
				<line class="st12" x1="884.3" y1="269.1" x2="863.9" y2="280.9"/>
				<line class="st12" x1="884.3" y1="271.2" x2="863.9" y2="282.9"/>
				<line class="st12" x1="884.3" y1="273.2" x2="863.9" y2="285"/>
				<line class="st12" x1="884.3" y1="275.2" x2="863.9" y2="287"/>
				<line class="st12" x1="884.3" y1="277.3" x2="863.9" y2="289"/>
				<line class="st12" x1="884.3" y1="279.3" x2="863.9" y2="291.1"/>
				<line class="st12" x1="884.3" y1="281.3" x2="863.9" y2="293.1"/>
				<line class="st12" x1="884.3" y1="283.4" x2="863.9" y2="295.1"/>
				<line class="st12" x1="884.3" y1="285.4" x2="863.9" y2="297.2"/>
				<line class="st12" x1="884.3" y1="287.4" x2="863.9" y2="299.2"/>
				<line class="st12" x1="884.3" y1="289.4" x2="863.9" y2="301.2"/>
				<line class="st12" x1="884.3" y1="291.5" x2="863.9" y2="303.3"/>
				<line class="st12" x1="884.3" y1="293.5" x2="863.9" y2="305.3"/>
				<line class="st12" x1="884.3" y1="295.5" x2="863.9" y2="307.3"/>
				<line class="st12" x1="884.3" y1="297.6" x2="863.9" y2="309.3"/>
				<line class="st12" x1="884.3" y1="299.6" x2="863.9" y2="311.4"/>
				<line class="st12" x1="884.3" y1="301.6" x2="863.9" y2="313.4"/>
				<line class="st12" x1="884.3" y1="303.7" x2="863.9" y2="315.4"/>
				<line class="st12" x1="884.3" y1="305.7" x2="863.9" y2="317.5"/>
				<line class="st12" x1="884.3" y1="307.7" x2="863.9" y2="319.5"/>
				<line class="st12" x1="884.3" y1="309.8" x2="863.9" y2="321.5"/>
				<line class="st12" x1="884.3" y1="311.8" x2="863.9" y2="323.6"/>
				<line class="st12" x1="884.3" y1="313.8" x2="863.9" y2="325.6"/>
				<line class="st12" x1="884.3" y1="315.8" x2="863.9" y2="327.6"/>
				<line class="st12" x1="884.3" y1="317.9" x2="863.9" y2="329.7"/>
				<line class="st12" x1="884.3" y1="319.9" x2="863.9" y2="331.7"/>
				<line class="st12" x1="884.3" y1="321.9" x2="863.9" y2="333.7"/>
				<line class="st12" x1="884.3" y1="324" x2="863.9" y2="335.7"/>
				<line class="st12" x1="884.3" y1="326" x2="863.9" y2="337.8"/>
				<line class="st12" x1="884.3" y1="328" x2="863.9" y2="339.8"/>
				<line class="st12" x1="884.3" y1="330.1" x2="863.9" y2="341.8"/>
				<line class="st12" x1="884.3" y1="332.1" x2="863.9" y2="343.9"/>
				<line class="st12" x1="884.3" y1="334.1" x2="863.9" y2="345.9"/>
				<line class="st12" x1="884.3" y1="336.2" x2="863.9" y2="347.9"/>
				<line class="st12" x1="884.3" y1="338.2" x2="863.9" y2="350"/>
				<line class="st12" x1="884.3" y1="340.2" x2="863.9" y2="352"/>
				<line class="st12" x1="884.3" y1="342.2" x2="863.9" y2="354"/>
				<line class="st12" x1="884.3" y1="344.3" x2="863.9" y2="356.1"/>
				<line class="st12" x1="884.3" y1="346.3" x2="863.9" y2="358.1"/>
				<line class="st12" x1="884.3" y1="348.3" x2="863.9" y2="360.1"/>
				<line class="st12" x1="884.3" y1="350.4" x2="863.9" y2="362.1"/>
				<line class="st12" x1="884.3" y1="352.4" x2="863.9" y2="364.2"/>
				<line class="st12" x1="884.3" y1="354.4" x2="863.9" y2="366.2"/>
				<line class="st12" x1="884.3" y1="356.5" x2="863.9" y2="368.2"/>
				<line class="st12" x1="884.3" y1="358.5" x2="863.9" y2="370.3"/>
				<line class="st12" x1="884.3" y1="360.5" x2="863.9" y2="372.3"/>
			</g>
		</g>
		<linearGradient id="SVGID_5_" gradientUnits="userSpaceOnUse" x1="531.7407" y1="714.5439" x2="670.3953" y2="-52.0385">
			<stop  offset="2.904548e-02" style="stop-color:#B23F00"/>
			<stop  offset="0.1578" style="stop-color:#B44200"/>
			<stop  offset="0.2507" style="stop-color:#BC4B00"/>
			<stop  offset="0.3324" style="stop-color:#C85B00"/>
			<stop  offset="0.4076" style="stop-color:#DA7100"/>
			<stop  offset="0.4777" style="stop-color:#F08E00"/>
			<stop  offset="0.5009" style="stop-color:#F99900"/>
		</linearGradient>
		<path class="st13" d="M1062.5,801.8l14.1-403.2c0,0-505-120.3-577.9-91.6C425.8,335.7,29.9,467.6,29.9,467.6l0,331.8L1062.5,801.8
			z"/>
		<linearGradient id="SVGID_6_" gradientUnits="userSpaceOnUse" x1="185.9728" y1="372.1398" x2="797.1943" y2="874.8834">
			<stop  offset="0.1722" style="stop-color:#FDD67C"/>
			<stop  offset="0.2781" style="stop-color:#FCD988"/>
			<stop  offset="0.4677" style="stop-color:#FAE3A7"/>
			<stop  offset="0.598" style="stop-color:#F9EAC0"/>
			<stop  offset="0.6689" style="stop-color:#FAE5AE"/>
			<stop  offset="0.7987" style="stop-color:#FCDD93"/>
			<stop  offset="0.9134" style="stop-color:#FDD882"/>
			<stop  offset="1" style="stop-color:#FDD67C"/>
		</linearGradient>
		<path class="st14" d="M6.7,467.7l400.7-128c0,0,31.8-9.5,111.2,25.4c79.5,35,553.3,141,553.3,141l-11.5,327.6H24.4L6.7,467.7z"/>
		<linearGradient id="SVGID_7_" gradientUnits="userSpaceOnUse" x1="-71.917" y1="403.3643" x2="297.2928" y2="501.8718">
			<stop  offset="2.904548e-02" style="stop-color:#B23F00"/>
			<stop  offset="7.032724e-02" style="stop-color:#C55700"/>
			<stop  offset="0.124" style="stop-color:#D86F00"/>
			<stop  offset="0.1849" style="stop-color:#E78200"/>
			<stop  offset="0.2565" style="stop-color:#F18F00"/>
			<stop  offset="0.3488" style="stop-color:#F79700"/>
			<stop  offset="0.5348" style="stop-color:#F99900"/>
			<stop  offset="0.688" style="stop-color:#F79700"/>
			<stop  offset="0.7757" style="stop-color:#F18E00"/>
			<stop  offset="0.8468" style="stop-color:#E68000"/>
			<stop  offset="0.9091" style="stop-color:#D66D00"/>
			<stop  offset="0.965" style="stop-color:#C25300"/>
			<stop  offset="1" style="stop-color:#B23F00"/>
		</linearGradient>
		<path class="st15" d="M-22.3,477.7c0,0,305.1-109.4,403.5-128.6c18.8-3.6,29-1.2,29.3,2.9c1.6,25.4-81,71.5-81,71.5L-16.4,600.7
			L-22.3,477.7z"/>
		<linearGradient id="SVGID_8_" gradientUnits="userSpaceOnUse" x1="192.7437" y1="467.6091" x2="526.1658" y2="840.3218">
			<stop  offset="2.904548e-02" style="stop-color:#B23F00"/>
			<stop  offset="7.032724e-02" style="stop-color:#C55700"/>
			<stop  offset="0.124" style="stop-color:#D86F00"/>
			<stop  offset="0.1849" style="stop-color:#E78200"/>
			<stop  offset="0.2565" style="stop-color:#F18F00"/>
			<stop  offset="0.3488" style="stop-color:#F79700"/>
			<stop  offset="0.5348" style="stop-color:#F99900"/>
			<stop  offset="0.688" style="stop-color:#F79700"/>
			<stop  offset="0.7757" style="stop-color:#F18E00"/>
			<stop  offset="0.8468" style="stop-color:#E68000"/>
			<stop  offset="0.9091" style="stop-color:#D66D00"/>
			<stop  offset="0.965" style="stop-color:#C25300"/>
			<stop  offset="1" style="stop-color:#B23F00"/>
		</linearGradient>
		<path class="st16" d="M-9,843.5c125,4.7,251.6,8.8,373.7-18.1c88.2-19.4,171.9-54.6,256.5-86c53.5-19.8,109.7-39.5,149.3-80.6
			c27.2-28.2,45-70.8,29.9-107c-15.7-37.4-58.9-53.8-98-64.6c-112.6-31.1-229.3-48.8-346.1-47.2c-13.7,0.2-31.4-1.2-33.5-14.7
			c-37.1,19-74.4,36.5-111.5,55.4s-74.1,38-111.2,56.9c-18.5,9.5-37.1,19-55.6,28.5c-18.4,9.4-37.7,18.1-55.6,28.5
			c-9.2,5.4-15.4,10.7-18.3,21.5c-2.9,10.5-2.5,21.7-1.4,32.4C-23.5,713.5-16.3,778.5-9,843.5z"/>
	</g>
</g>
<g>
	<path class="st17" d="M834.7,692c0.9,2.4-2,5.9-4.1,8.5c-8.9,11.2-18.6,21.9-30.2,30.2c-11.6,8.3-25.2,14.3-39.5,15
		c-22.4,1.2-43.5-10-65.7-12.7c3.8-8.9,8.4-17.4,13.6-25.5c5.3-8.2,11.4-16.2,19.8-21.1c12.9-7.6,28.8-7,43.8-5.9
		c19.9,1.5,39.8,3.6,59,9.1C833.4,690.2,834.4,691.1,834.7,692z"/>
	<g>
		<path class="st18" d="M698,732.1l15.7-5.7l15.7-5.5c10.5-3.6,21.1-7.1,31.7-10.5c10.6-3.3,21.2-6.6,32-9.3
			c5.4-1.4,10.9-2.3,16.4-3.2l16.5-2.6l-16.4,3c-5.5,0.9-10.9,1.9-16.3,3.4c-10.7,2.8-21.4,6.1-32,9.5c-10.6,3.3-21.2,6.8-31.7,10.3
			L698,732.1z"/>
	</g>
	<g>
		<path class="st18" d="M784.3,688.8c-0.8,1-1.7,2-2.6,3l-2.6,2.9c-0.9,1-1.7,1.9-2.6,2.9c-0.8,1-1.6,2-2.4,3.1
			c0.5-1.2,1.2-2.4,1.9-3.4c0.7-1.1,1.6-2.1,2.4-3.1c0.9-1,1.8-1.9,2.7-2.8C782.2,690.4,783.2,689.5,784.3,688.8z"/>
	</g>
	<g>
		<path class="st18" d="M803.5,717.5c-2,0-4.1-0.2-6.1-0.5c-2-0.2-4-0.6-6-1c-2-0.4-4-0.9-5.9-1.5c-1.9-0.6-3.9-1.4-5.6-2.5
			c0.5,0.2,0.9,0.4,1.4,0.6l1.4,0.5c1,0.3,1.9,0.6,2.9,0.8c2,0.5,3.9,1,5.9,1.3c2,0.4,4,0.8,6,1.2L803.5,717.5z"/>
	</g>
	<g>
		<path class="st18" d="M786.4,732c-2.7-0.8-5.3-1.7-7.9-2.6c-2.6-0.9-5.2-2-7.7-3c-2.5-1.1-5.1-2.2-7.6-3.4c-2.5-1.2-5-2.5-7.3-3.9
			c2.5,1.2,5,2.3,7.6,3.4c2.5,1.1,5.1,2.2,7.6,3.2c2.5,1.1,5.1,2.1,7.7,3.2C781.3,729.9,783.9,731,786.4,732z"/>
	</g>
	<g>
		<path class="st18" d="M760.6,685.1l-3.8,4.8c-1.3,1.6-2.5,3.2-3.7,4.8c-1.2,1.6-2.4,3.3-3.5,5l-0.8,1.3l-0.7,1.3
			c-0.2,0.5-0.4,0.9-0.6,1.4c-0.2,0.5-0.3,1-0.5,1.5c0.2-2.1,1.1-4,2.1-5.8c1-1.8,2.1-3.5,3.4-5.2c1.2-1.6,2.5-3.2,3.9-4.7
			C757.7,687.9,759.1,686.4,760.6,685.1z"/>
	</g>
	<g>
		<path class="st18" d="M759.9,738.7c-2.5-0.5-4.9-1.2-7.3-1.9c-2.4-0.7-4.8-1.6-7.2-2.4c-2.3-0.9-4.7-1.9-6.9-3.1
			c-1.1-0.6-2.2-1.2-3.3-2c-1-0.8-2-1.6-2.7-2.7c0.8,1,1.8,1.7,2.9,2.4c1.1,0.7,2.2,1.2,3.3,1.7c2.3,1.1,4.6,2,6.9,2.9
			c2.3,0.9,4.7,1.7,7.1,2.6L759.9,738.7z"/>
	</g>
	<g>
		<path class="st18" d="M736.9,695.1c-1,1.6-2,3.2-3,4.9c-0.9,1.6-1.9,3.3-2.7,5c-0.9,1.7-1.7,3.4-2.3,5.2c-0.2,0.4-0.3,0.9-0.5,1.3
			c-0.1,0.5-0.3,0.9-0.4,1.4c-0.1,0.5-0.2,0.9-0.3,1.4c-0.1,0.5-0.1,0.9-0.2,1.4c-0.2-1.9,0.2-3.9,0.8-5.7c0.5-1.9,1.3-3.6,2.2-5.3
			c0.9-1.7,1.8-3.4,2.9-5C734.5,698.1,735.6,696.5,736.9,695.1z"/>
	</g>
</g>
<g>
	<path class="st17" d="M687.9,735.9c-0.5-0.4-1-0.9-1.4-1.3c-4.6-4.7-6.8-11.4-6.9-18c-0.3-13.5,6.1-26.8,13.1-38
		c0.2-0.4,0.5-0.8,0.9-0.9c0.8-0.3,1.6,0.5,2.1,1.2c3.3,4.9,4.3,11.7,9.1,15.1c-0.1-3.8-1.5-7.4-2.4-11.1c-0.9-3.7-1.1-7.9,1-11.1
		c1.3-2,3.3-3.4,5.3-4.7c5.7-3.7,11.8-7.6,14.6-13.7c0.5-1.1,1.2-3.6,2.5-4.1c2.2-0.9,2.5,4.8,3.1,6.5c0.3,1,3.3,6.9,2.9,7.6
		c3.1-5.7-0.4-13.1,2-19.1c1.8-4.6,6.6-7.2,10.6-10.1c6.7-4.9,12.1-11.5,15.6-19.1c3.7,3.6,4.1,9.4,3.9,14.5
		c-0.2,8.2-1.1,16.5-2.6,24.6c-0.8,4.4-2,9.1-5.4,12c-0.7,0.6-1.5,1.1-2,2s-0.5,2,0.3,2.5c0.5,0.3,1.2,0.3,1.8,0.1
		c3.4-0.9,5.7-4.1,7.6-7.1c3.7,11,1.9,23.6-4.8,33.1c-0.6,0.8-1.2,1.7-2.1,2.2c-0.9,0.6-2,0.9-3,1.1c-5.4,1.3-10.7,2.5-16.1,3.8
		c4.8-0.2,9.7-0.4,14.5-0.6c0.6,0,1.2,0,1.8,0.2c1.6,0.7,1.5,3,1,4.7c-3.2,10.7-10.2,20.2-19.5,26.3c-9.3,6.1-20.8,8.8-31.9,7.4
		C697.8,741.3,692.2,739.4,687.9,735.9z"/>
	<g>
		<path class="st2" d="M695.8,737.9c2.8-3.8,5.5-7.5,8.2-11.3c2.7-3.8,5.5-7.6,8.1-11.4c5.4-7.6,10.7-15.3,15.8-23.1
			c5.1-7.8,10.1-15.7,14.7-23.8c2.3-4,4.5-8.2,6.4-12.4c2-4.2,3.7-8.5,4.8-13.1c-0.8,4.6-2.5,9-4.3,13.3c-1.9,4.3-4,8.5-6.2,12.6
			c-4.5,8.2-9.4,16.1-14.5,23.9c-5.2,7.8-10.5,15.4-16,23C707.3,723.2,701.7,730.7,695.8,737.9z"/>
	</g>
</g>
<g>
	<path class="st17" d="M963.4,309.4c-8.3-0.5-6.8,11.8-9.6,15c-2.8,3.3-6.3-9.9-9.5-5.7c-3.2,4.2,2,17.2,1.3,17.9
		c-2.3,2.3-9.5-5.7-10.8-0.5c-1.2,5.2,13.4,15.6,8,16.6c-5.3,0.9-6.6-6.6-9.4-3.4c-2.8,3.3-0.3,16,7.3,20.8
		c7.5,4.8,21.8,5.8,26.5,1.1c4.7-4.7,10.3-11.3,5.4-11.3c-4.9,0-10.3-1.5-8-3.8c2.1-2.1,17.2-10.3,10.7-12.2
		c-6.4-1.9-8.7,2.8-9.8-0.1c-1.1-2.8,12.3-10.3,11.2-13.2c-1.1-2.8-4.4-1-10.3-1.5C960.3,328.7,971.7,309.9,963.4,309.4z"/>
	<g>
		<g>
			<path class="st18" d="M949.9,370.4c0.9-6.7,2-13.4,3.2-20.1c0.9-5.1,2-10.3,3.3-15.3c1.3-5,3.4-9.5,5-14.3
				c0.4-1.1,2.4-5.9,0.9-7.1c-0.1-0.1-0.7,0.5-0.8,0.4c1.1,0.9-0.1,4.2-0.3,5.2c-1.4,4.9-3.7,9.5-5.1,14.4
				c-2.7,9.7-4.3,19.7-5.9,29.6c-0.4,2.5-0.8,5.1-1.1,7.6C949.2,370.6,949.9,370.6,949.9,370.4L949.9,370.4z"/>
		</g>
	</g>
</g>
<g>
	<path class="st17" d="M547.7,562.6c-18.3,14.8,8.2,37.5,8.6,49.6s-32-8.7-30.7,6.3c1.3,15,36.9,31.9,36.7,34.9
		c-0.4,9.3-30.7,6.3-23.4,19.4s57.6,7,48.2,19.1c-9.4,12.1-26.4-1.2-26,11s29.9,33.9,54.6,29.4s56.3-29.4,57.1-48.1
		c0.8-18.7-0.1-43-10.3-33.7c-10.2,9.3-24.3,16.6-23.9,7.3c0.4-8.4,16.1-54.1-0.9-45.8s-12.8,22.3-20.5,18.5s5.9-44.8-1.8-48.6
		s-11.1,6.4-24.3,16.6C578.1,608.7,566.1,547.8,547.7,562.6z"/>
	<g>
		<g>
			<path class="st18" d="M636.5,715.6c-10.8-15.5-21.2-31.3-31.2-47.3c-7.9-12.7-15.7-25.5-22.7-38.7c-2.9-5.5-5.7-11.1-8.2-16.9
				c-3.1-7.3-5.4-14.9-8.6-22.2c-2.2-5.1-4.7-10.7-8.6-14.7c-0.7-0.7-1.9-2.1-3-2c-0.8,0.1-1.4,1.2-2.2,1.2c0.9-0.1,1.9,0.9,2.4,1.4
				c3,2.7,5,6.6,6.8,10.2c3.9,7.7,6.5,15.8,9.6,23.8c2.1,5.4,4.6,10.7,7.3,15.8c12.9,25.3,28.6,49.4,44.3,73
				c3.9,5.9,7.9,11.8,11.9,17.6C634.4,716.9,636.4,715.5,636.5,715.6L636.5,715.6z"/>
		</g>
	</g>
</g>
<g>
	<path class="st17" d="M597.3,627.3c1.9-2.2,6.8-1,10.4-0.3c15.5,3.1,30.9,7.3,44.9,14.5c14,7.2,26.7,17.7,34.7,31.3
		c12.4,21.4,12,47.8,20.6,71c-10.6,0.7-21.3,0.5-31.9-0.5c-10.7-1.1-21.7-3.1-30.8-8.9c-14-8.8-21.4-24.8-27.8-40.1
		c-8.5-20.3-16.5-41-20.7-62.6C596.2,629.6,596.5,628.2,597.3,627.3z"/>
	<g>
		<path class="st18" d="M705.5,741.7L692,729.1l-13.3-12.7c-8.8-8.5-17.6-17.2-26.2-25.9c-8.6-8.8-17.2-17.6-25.3-26.8
			c-4.1-4.6-7.8-9.6-11.4-14.5L605,634.2l11.2,14.7c3.7,4.9,7.4,9.8,11.5,14.3c8.2,9.2,16.8,17.9,25.4,26.7
			c8.6,8.8,17.4,17.4,26.1,26L705.5,741.7z"/>
	</g>
	<g>
		<path class="st18" d="M619.5,678.6c2.8,0.6,5.6,1.4,8.4,2.1c1.4,0.4,2.8,0.7,4.2,1c1.4,0.3,2.8,0.6,4.2,0.8
			c-2.9,0.2-5.8-0.3-8.6-1C624.8,680.8,622.1,679.9,619.5,678.6z"/>
	</g>
	<g>
		<path class="st18" d="M638.1,645.3c1,2,1.8,4.1,2.6,6.2c0.8,2.1,1.5,4.2,2.1,6.4c0.6,2.2,1.1,4.4,1.5,6.6c0.3,2.2,0.6,4.5,0.4,6.7
			c-0.1-0.6-0.1-1.1-0.2-1.7l-0.2-1.7c-0.2-1.1-0.4-2.2-0.6-3.3c-0.5-2.2-1-4.3-1.6-6.5c-0.6-2.2-1.2-4.3-1.9-6.4L638.1,645.3z"/>
	</g>
	<g>
		<path class="st18" d="M661,654.8c0.6,3,1,6,1.4,9.1c0.4,3,0.7,6.1,1,9.1c0.2,3.1,0.4,6.1,0.5,9.2c0.1,3.1,0,6.1-0.2,9.2
			c-0.1-3.1-0.3-6.1-0.5-9.1c-0.2-3-0.4-6.1-0.7-9.1c-0.2-3-0.5-6.1-0.8-9.1C661.5,660.9,661.2,657.8,661,654.8z"/>
	</g>
	<g>
		<path class="st18" d="M627.7,703.7l6.6,1.4c2.2,0.4,4.4,0.9,6.6,1.2c2.2,0.4,4.4,0.7,6.7,0.9l1.7,0.1l1.7,0c0.6,0,1.1-0.1,1.7-0.1
			c0.6-0.1,1.1-0.2,1.7-0.3c-2.1,0.9-4.5,0.9-6.7,0.9c-2.3-0.1-4.5-0.3-6.8-0.7c-2.2-0.4-4.4-0.9-6.6-1.5
			C632,705.2,629.8,704.5,627.7,703.7z"/>
	</g>
	<g>
		<path class="st18" d="M680.9,677.5c0.7,2.7,1.3,5.4,1.8,8.2c0.5,2.7,0.9,5.5,1.2,8.3c0.3,2.8,0.5,5.6,0.4,8.4
			c0,1.4-0.1,2.8-0.3,4.2c-0.2,1.4-0.5,2.8-1.3,4c0.6-1.3,0.8-2.6,0.9-4c0.1-1.4,0.1-2.8,0.1-4.1c-0.1-2.8-0.3-5.5-0.6-8.3
			c-0.3-2.8-0.7-5.5-1-8.3L680.9,677.5z"/>
	</g>
	<g>
		<path class="st18" d="M649.5,722.1c1.1,0.1,2.1,0.2,3.2,0.2c1,0.1,2.1,0.2,3.1,0.2c2.1,0.1,4.2,0.2,6.3,0.2c2.1,0,4.2-0.1,6.3-0.3
			c0.5,0,1-0.1,1.5-0.2c0.5-0.1,1-0.2,1.5-0.3c0.5-0.1,1-0.2,1.5-0.4c0.5-0.2,1-0.4,1.5-0.5c-1.8,1.1-3.9,1.7-6,2.1
			c-2.1,0.4-4.2,0.5-6.4,0.6c-2.1,0-4.2-0.1-6.3-0.4C653.6,722.9,651.6,722.6,649.5,722.1z"/>
	</g>
</g>
<g>
	<polygon class="st19" points="637.8,402.2 597.5,380.6 557.1,402.2 597.5,423.8 	"/>
	<polygon class="st19" points="637.8,402.2 637.8,440 597.5,461.7 597.5,423.8 	"/>
	<polygon class="st6" points="557.1,402.2 557.1,440 597.5,461.7 597.5,423.8 	"/>
	<defs>
		<filter id="Adobe_OpacityMaskFilter" filterUnits="userSpaceOnUse" x="532.5" y="310.8" width="129.6" height="107.9">
			<feColorMatrix  type="matrix" values="1 0 0 0 0  0 1 0 0 0  0 0 1 0 0  0 0 0 1 0"/>
		</filter>
	</defs>
	<mask maskUnits="userSpaceOnUse" x="532.5" y="310.8" width="129.6" height="107.9" id="SVGID_9_">
		<g class="st20">
			<linearGradient id="SVGID_10_" gradientUnits="userSpaceOnUse" x1="597.8472" y1="310.8619" x2="597.8472" y2="418.4206">
				<stop  offset="0.2595" style="stop-color:#000000"/>
				<stop  offset="1" style="stop-color:#FFFFFF;stop-opacity:0.2"/>
			</linearGradient>
			<rect x="519.8" y="310.9" class="st21" width="156.1" height="107.6"/>
		</g>
	</mask>
	<polygon class="st22" points="567.5,402.5 597.7,418.7 628,402.5 662.1,310.8 532.5,310.8 	"/>
</g>
<g>
	<g>
		<polygon class="st23" points="597.3,345.3 593.2,338.2 601.4,338.2 605.4,345.3 605.4,345.3 605.4,345.3 		"/>
		<polygon class="st23" points="597.3,345.3 593.2,352.4 589.1,345.3 593.2,338.2 597.3,345.3 		"/>
		<polygon class="st10" points="593.2,352.4 597.3,345.3 605.4,345.3 605.4,345.3 601.4,352.4 		"/>
	</g>
	<g>
		<polygon class="st23" points="609.6,352.3 613.7,345.2 617.7,352.3 613.7,359.4 613.7,359.4 613.7,359.4 		"/>
		<polygon class="st23" points="609.6,352.3 601.4,352.3 605.5,345.2 613.7,345.2 609.6,352.3 		"/>
		<polygon class="st10" points="601.4,352.3 609.6,352.3 613.7,359.4 613.7,359.4 605.5,359.4 		"/>
	</g>
	<g>
		<polygon class="st23" points="609.6,366.5 617.8,366.5 613.7,373.6 605.5,373.6 605.5,373.6 605.5,373.6 		"/>
		<polygon class="st23" points="609.6,366.5 605.5,359.4 613.7,359.4 617.8,366.5 609.6,366.5 		"/>
		<polygon class="st10" points="605.5,359.4 609.6,366.5 605.5,373.6 605.5,373.6 601.4,366.5 		"/>
	</g>
	<g>
		<polygon class="st23" points="597.4,373.6 601.5,380.7 593.3,380.7 589.2,373.6 589.2,373.6 589.2,373.6 		"/>
		<polygon class="st23" points="597.4,373.6 601.5,366.5 605.5,373.6 601.5,380.7 597.4,373.6 		"/>
		<polygon class="st10" points="601.5,366.5 597.4,373.6 589.2,373.6 589.2,373.6 593.3,366.5 		"/>
	</g>
	<g>
		<polygon class="st23" points="585.1,366.6 581,373.7 576.9,366.6 581,359.5 581,359.5 581,359.5 		"/>
		<polygon class="st23" points="585.1,366.6 593.2,366.6 589.2,373.7 581,373.7 585.1,366.6 		"/>
		<polygon class="st10" points="593.2,366.6 585.1,366.6 581,359.5 581,359.5 589.2,359.5 		"/>
	</g>
	<g>
		<polygon class="st23" points="585,352.4 576.8,352.4 580.9,345.3 589.1,345.3 589.1,345.3 589.1,345.3 		"/>
		<polygon class="st23" points="585,352.4 589.1,359.5 580.9,359.5 576.8,352.4 585,352.4 		"/>
		<polygon class="st10" points="589.1,359.5 585,352.4 589.1,345.3 589.1,345.3 593.2,352.4 		"/>
	</g>
	<polygon class="st24" points="601.5,352.4 593.2,352.4 589.1,359.5 593.2,366.7 601.5,366.7 605.7,359.5 	"/>
</g>
<path class="st18" d="M633.6,198.5L633.6,198.5c-1.5,0-2.8-1.2-2.8-2.8v-3.2c0-1.5,1.2-2.8,2.8-2.8l0,0c1.5,0,2.8,1.2,2.8,2.8v3.2
	C636.4,197.3,635.1,198.5,633.6,198.5z"/>
<path class="st18" d="M623.6,198.5L623.6,198.5c-1.5,0-2.8-1.2-2.8-2.8v-3.2c0-1.5,1.2-2.8,2.8-2.8l0,0c1.5,0,2.8,1.2,2.8,2.8v3.2
	C626.3,197.3,625.1,198.5,623.6,198.5z"/>
<path class="st18" d="M613.5,198.5L613.5,198.5c-1.5,0-2.8-1.2-2.8-2.8v-3.2c0-1.5,1.2-2.8,2.8-2.8l0,0c1.5,0,2.8,1.2,2.8,2.8v3.2
	C616.3,197.3,615,198.5,613.5,198.5z"/>
<path class="st18" d="M603.5,198.5L603.5,198.5c-1.5,0-2.8-1.2-2.8-2.8v-3.2c0-1.5,1.2-2.8,2.8-2.8l0,0c1.5,0,2.8,1.2,2.8,2.8v3.2
	C606.2,197.3,605,198.5,603.5,198.5z"/>
<path class="st18" d="M593.4,198.5L593.4,198.5c-1.5,0-2.8-1.2-2.8-2.8v-3.2c0-1.5,1.2-2.8,2.8-2.8l0,0c1.5,0,2.8,1.2,2.8,2.8v3.2
	C596.2,197.3,595,198.5,593.4,198.5z"/>
<path class="st18" d="M583.4,198.5L583.4,198.5c-1.5,0-2.8-1.2-2.8-2.8v-3.2c0-1.5,1.2-2.8,2.8-2.8l0,0c1.5,0,2.8,1.2,2.8,2.8v3.2
	C586.1,197.3,584.9,198.5,583.4,198.5z"/>
<path class="st18" d="M573.3,198.5L573.3,198.5c-1.5,0-2.8-1.2-2.8-2.8v-3.2c0-1.5,1.2-2.8,2.8-2.8l0,0c1.5,0,2.8,1.2,2.8,2.8v3.2
	C576.1,197.3,574.9,198.5,573.3,198.5z"/>
<path class="st18" d="M563.3,198.5L563.3,198.5c-1.5,0-2.8-1.2-2.8-2.8v-3.2c0-1.5,1.2-2.8,2.8-2.8l0,0c1.5,0,2.8,1.2,2.8,2.8v3.2
	C566.1,197.3,564.8,198.5,563.3,198.5z"/>
<path class="st18" d="M553.2,198.5L553.2,198.5c-1.5,0-2.8-1.2-2.8-2.8v-3.2c0-1.5,1.2-2.8,2.8-2.8l0,0c1.5,0,2.8,1.2,2.8,2.8v3.2
	C556,197.3,554.8,198.5,553.2,198.5z"/>
<path class="st18" d="M543.2,198.5L543.2,198.5c-1.5,0-2.8-1.2-2.8-2.8v-3.2c0-1.5,1.2-2.8,2.8-2.8l0,0c1.5,0,2.8,1.2,2.8,2.8v3.2
	C546,197.3,544.7,198.5,543.2,198.5z"/>
<path class="st18" d="M533.2,198.5L533.2,198.5c-1.5,0-2.8-1.2-2.8-2.8v-3.2c0-1.5,1.2-2.8,2.8-2.8l0,0c1.5,0,2.8,1.2,2.8,2.8v3.2
	C535.9,197.3,534.7,198.5,533.2,198.5z"/>
<path class="st18" d="M523.1,198.5L523.1,198.5c-1.5,0-2.8-1.2-2.8-2.8v-3.2c0-1.5,1.2-2.8,2.8-2.8l0,0c1.5,0,2.8,1.2,2.8,2.8v3.2
	C525.9,197.3,524.6,198.5,523.1,198.5z"/>
<g>
	<line class="st25" x1="592.2" y1="213.1" x2="579" y2="255"/>
	<line class="st25" x1="600" y1="212.7" x2="613.5" y2="255"/>
	<g>
		<g>
			<rect x="577.2" y="252.3" class="st26" width="12.7" height="12.7"/>
			<rect x="590" y="252.3" class="st27" width="12.7" height="12.7"/>
			<rect x="602.7" y="252.3" class="st28" width="12.7" height="12.7"/>
		</g>
		<g>
			<rect x="577.2" y="277.8" class="st26" width="12.7" height="12.7"/>
			<rect x="590" y="277.8" class="st28" width="12.7" height="12.7"/>
			<rect x="602.7" y="277.8" class="st27" width="12.7" height="12.7"/>
		</g>
		<g>
			
				<rect x="602.7" y="265.1" transform="matrix(-1 -4.483537e-11 4.483537e-11 -1 1218.1366 542.8747)" class="st26" width="12.7" height="12.7"/>
			
				<rect x="590" y="265.1" transform="matrix(-1 -4.469282e-11 4.469282e-11 -1 1192.6584 542.8747)" class="st27" width="12.7" height="12.7"/>
			
				<rect x="577.2" y="265.1" transform="matrix(-1 -4.469282e-11 4.469282e-11 -1 1167.1803 542.8747)" class="st28" width="12.7" height="12.7"/>
		</g>
	</g>
</g>
<path class="st18" d="M513.1,198.5L513.1,198.5c-1.5,0-2.8-1.2-2.8-2.8v-3.2c0-1.5,1.2-2.8,2.8-2.8h0c1.5,0,2.8,1.2,2.8,2.8v3.2
	C515.8,197.3,514.6,198.5,513.1,198.5z"/>
<path class="st18" d="M649.5,208.1h-3.6c-1.6,0-2.9-1.3-2.9-2.9v-12.5c0-1.6,1.3-2.9,2.9-2.9h3.6c1.6,0,2.9,1.3,2.9,2.9v12.5
	C652.5,206.8,651.2,208.1,649.5,208.1z"/>
<g>
	<polygon class="st18" points="563.6,164.7 574.7,178 615.9,178 587.6,164.7 	"/>
	<path class="st2" d="M586.3,215.5c40.5-0.2,81.1-0.4,121.6-0.6c3,0,6.2-0.1,8.4-2c2.8-2.4,3-6.8,1.5-10.1c-1.5-3.3-4.4-5.8-7.2-8.2
		c-3.8-3.2-7.6-6.4-11.3-9.7c-3.3-2.8-6.7-5.7-10.7-7.2c-3.3-1.2-6.9-1.5-10.4-1.7c-9.9-0.5-19.9-0.5-29.9-0.5c-47,0-94.1,0-141.1,0
		c-1.8,0-3.6,0-5.1-0.9c-1.1-0.7-2-1.7-2.7-2.7c-4-5.1-7.9-10.2-11.9-15.3c-0.8-1-1.6-2.1-2.8-2.7c-1.5-0.8-3.2-0.8-4.9-0.8
		c-6.1,0-15-1.4-20.5,0.7c4.3,10.3,7.2,20.7,10.5,31.4c3.3,10.8,8.7,21.9,18.8,27.1c7.2,3.7,15.7,3.8,23.9,3.7
		C537,215.8,561.7,215.7,586.3,215.5z"/>
	<path class="st29" d="M695.3,185.9h-21.9c0,0-1.3,3.7,2.4,5.7h31.6l-8-6.8L695.3,185.9z"/>
	<path class="st18" d="M485.4,169.5V181H465c-3.2,0-5.7-2.6-5.7-5.7v0c0-3.2,2.6-5.7,5.7-5.7H485.4z"/>
	<polyline class="st18" points="562.9,203.1 528.5,236.5 548.7,236.5 623.6,204.4 	"/>
</g>
<g>
	<polygon class="st18" points="813.1,468.6 839.2,483.6 917.5,438.4 891.4,423.4 	"/>
	<polygon class="st7" points="813.1,473.2 839.2,488.3 839.2,483.6 813.1,468.6 	"/>
	<polygon class="st7" points="917.5,438.4 917.5,443.1 839.2,488.3 839.2,483.6 	"/>
	<path class="st30" d="M801.3,485.4c-15.2,1.1-23,0.8-23.3-0.9c-0.4-2.1,16.5-5.7,16.2-7.6c-0.2-1-4.9-1.5-24.1,0.2"/>
	<path class="st7" d="M827.3,492.2l-16.1-9.3c-3.1-1.6-6.8-1.6-9.9,0l-3.1,1.7c-1.2,0.5-1.9,1.6-2,2.9v5c0.1,1.3,0.9,2.4,2,2.9
		l16.2,9.3c3.1,1.6,6.8,1.6,9.9,0l3.1-1.7c1.2-0.5,1.9-1.6,2-2.9v-5C829.2,493.8,828.4,492.7,827.3,492.2z"/>
	<path class="st18" d="M801.2,482.8c3.1-1.6,6.8-1.6,9.9,0l16.1,9.3c2.7,1.6,2.7,4.2,0,5.7l-3.1,1.7c-3.1,1.6-6.8,1.6-9.9,0
		l-16.2-9.3c-2.7-1.6-2.7-4.2,0-5.7L801.2,482.8z"/>
	<path class="st7" d="M883.3,323c-0.3-0.2-0.6-0.4-0.9-0.6c-0.3-0.2-0.6-0.5-0.9-0.6c-0.3-0.2-0.6-0.4-0.9-0.6
		c-0.3-0.2-0.6-0.4-0.9-0.6c-0.3-0.2-0.6-0.5-0.9-0.6c-0.3-0.2-0.6-0.4-0.9-0.6c-0.3-0.2-0.6-0.5-0.9-0.6c-0.3-0.2-0.6-0.4-0.9-0.6
		c-1.9-1.6-4.8-1.7-8.1,0.2L757.7,382c-6.1,4-10,10.6-10.4,17.9v72.5c0,3.3,1.2,5.7,3.1,6.7c0.3,0.2,0.6,0.4,0.9,0.6
		c0.3,0.2,0.6,0.4,0.9,0.6c0.3,0.2,0.6,0.4,0.9,0.6c0.3,0.2,0.6,0.4,0.9,0.6c0.3,0.2,0.6,0.4,0.9,0.6c0.3,0.2,0.6,0.5,0.9,0.6
		c0.3,0.2,0.6,0.5,0.9,0.6c0.3,0.2,0.6,0.4,0.9,0.6c1.9,1.6,4.8,1.7,8.1-0.2l110.5-63.8c6.1-4,9.9-10.6,10.3-17.9v-72.5
		C886.4,326.4,885.2,324,883.3,323z"/>
	<path class="st31" d="M880.8,326.7c0.3,0,0.6,0.1,0.8,0.3c0.5,0.8,0.7,1.8,0.6,2.7v72.5c-0.4,5.7-3.4,10.9-8.2,14.1l-110.5,63.7
		c-0.7,0.5-1.6,0.8-2.4,0.8c-0.3,0-0.6-0.1-0.8-0.3c-0.5-0.8-0.7-1.8-0.6-2.7v-72.4c0.4-5.7,3.4-10.9,8.2-14.1l110.5-63.8
		C879.1,327.2,879.9,326.9,880.8,326.7"/>
	<polygon class="st32" points="772.3,407.7 772.3,412.8 812.5,389.6 812.5,384.5 	"/>
	<polygon class="st32" points="817,381.9 817,387.1 825.9,381.9 825.9,376.7 	"/>
	<polygon class="st32" points="803.6,399.9 803.6,405.1 839.3,384.5 839.3,379.3 	"/>
	<polygon class="st29" points="834.8,371.6 834.8,376.7 857.4,363.7 857.4,358.5 	"/>
	<polygon class="st29" points="799.1,402.5 799.1,407.7 785.7,415.4 785.7,410.2 	"/>
	<polygon class="st32" points="772.3,428.3 772.3,433.5 794.6,420.6 794.6,415.4 	"/>
	<polygon class="st29" points="799.1,412.8 799.1,418 821.4,405.1 821.4,399.9 	"/>
	<polygon class="st32" points="825.9,397.4 825.9,402.5 866.1,379.3 866.1,374.2 	"/>
	<polygon class="st29" points="843.7,376.7 843.7,381.9 852.7,376.7 852.7,371.6 	"/>
	<polygon class="st32" points="790.2,428.3 790.2,433.5 830.4,410.2 830.4,405.1 	"/>
	<polygon class="st29" points="834.8,402.5 834.8,407.7 843.7,402.5 843.7,397.4 	"/>
	<polygon class="st29" points="848.2,394.8 848.2,399.9 870.5,387.1 870.5,381.9 	"/>
</g>
<g>
	<g>
		<g>
			<defs>
				<path id="SVGID_11_" d="M910,730.3c0,0-8.9,2.2-11.1,4.5c-2.2,2.2,24.4,2.2,24.4,2.2s-2.2-58.2-4.4-67.2
					c-2.2-9,6.7-51.5,8.9-53.7c2.2-2.2,2.2,4.5,2.2,4.5s0,40.3,4.4,56c4.4,15.7,8.9,38.1,8.9,40.3V728c0,0-8.9,2.2-8.9,4.5
					c0,2.2,22.2,2.2,22.2,2.2s-4.4-82.8-4.4-85.1c0-2.2,0-22.4,2.2-31.3c2.2-9,2.2-29.1,2.2-29.1v-4.5h-60c0,0,0,51.5,2.2,67.2
					c2.2,15.7,6.7,47,6.7,47L910,730.3z"/>
			</defs>
			<clipPath id="SVGID_12_">
				<use xlink:href="#SVGID_11_"  style="overflow:visible;"/>
			</clipPath>
			<g class="st33">
				<defs>
					<rect id="SVGID_13_" x="687.1" y="-1026" width="1289.4" height="4433.1"/>
				</defs>
				<clipPath id="SVGID_14_">
					<use xlink:href="#SVGID_13_"  style="overflow:visible;"/>
				</clipPath>
				<rect x="892.2" y="580.3" class="st34" width="68.9" height="161.2"/>
			</g>
		</g>
		<g>
			<defs>
				<path id="SVGID_15_" d="M820.9,494.3c0-1.1-2-2.6-2.2,0c-0.3,2.2,2.2,2.2,0,4.5c-2.2,2.2-2.2,8.9,0,8.9
					c2.2,0,22.4,13.4,22.4,13.4s22.4,15.6,26.9,13.4c4.5-2.2,26.9-17.8,31.4-17.8c4.5,0,35.9-13.4,35.9-20.1v-19.5
					c0-0.4,0-0.7-0.1-1.1c-0.5-1.6-1.7-6.9,0.1-10.6c2.2-4.5,3.4-18.9-5.6-21.2c-9-2.2-15.7,0-18,4.5c-2.2,4.5-2.2,11.1-2.2,15.6
					c0,2.8,0.9,7.2,1.5,10.2c0.4,1.8,2,3.1,3.9,3.1h0.4c2.6,0,4.6,2.4,3.9,4.9c-0.2,0.6-0.4,1.2-0.7,1.8c-2.2,4.5-40.4,26.7-44.9,29
					c-2.3,1.2-4.1,2.3-5.2,3.2c-1,0.8-2.4,1-3.6,0.6l-32.9-10.2c-0.6-0.2-1.2-0.5-1.7-1C827.8,503.4,820.9,495.4,820.9,494.3"/>
			</defs>
			<clipPath id="SVGID_16_">
				<use xlink:href="#SVGID_15_"  style="overflow:visible;"/>
			</clipPath>
			<g class="st35">
				<defs>
					<rect id="SVGID_17_" x="687.1" y="-1026" width="1289.4" height="4433.1"/>
				</defs>
				<clipPath id="SVGID_18_">
					<use xlink:href="#SVGID_17_"  style="overflow:visible;"/>
				</clipPath>
				<rect x="812.5" y="438.8" class="st36" width="128.9" height="100.3"/>
			</g>
		</g>
		<g>
			<defs>
				<path id="SVGID_19_" d="M872.5,511.1c-0.1,0.7,0.5,1.7,0.7,2.3c0.7,2,1.3,4,2,6c0.4,1.2,4.6,11.4,4,11.9
					c3.4-3.1,7.4-5.5,11.6-7.3c1-0.4,2.2-0.8,3.2-0.3c1.3,0.6,1.5,2.3,1.6,3.7c1.2,18.6,1.6,37.3,1.4,55.9c0,1.3,0,2.7,0.6,3.8
					c0.5,0.9,1.2,1.6,2,2.3c7.8,6.7,17.8,11,28,11.4c10.3,0.4,20.8-3.1,28.3-10.1c0.7-0.7,1.4-1.4,1.8-2.2c0.5-0.9,0.6-2,0.6-3
					c1.2-15.7-4.3-31.3-3.9-47.1c0.4-14,5.5-27.9,3-41.7c-0.4-2.1-1-4.3-2.4-5.8c-1.1-1.2-2.6-1.9-4.1-2.5c-5-2.1-10.4-3.5-15.8-4.1
					c0.8,0.1-1,3.1-1.3,3.3c-1.1,0.8-2.9,1.2-4.3,1.4c-3.7,0.6-8.7,0.2-11.3-2.9c-0.6-0.7-1-1.5-1.8-2c-0.7-0.4-1.5-0.4-2.3-0.4
					c-8.6,0.1-16.6,4.3-23.3,9.6c-6,4.8-11,10.5-16.4,15.9c-0.5,0.5-1.7,1.3-1.9,1.9C872.5,511,872.5,511.1,872.5,511.1"/>
			</defs>
			<clipPath id="SVGID_20_">
				<use xlink:href="#SVGID_19_"  style="overflow:visible;"/>
			</clipPath>
			<g class="st37">
				<defs>
					<rect id="SVGID_21_" x="687.1" y="-1026" width="1289.4" height="4433.1"/>
				</defs>
				<clipPath id="SVGID_22_">
					<use xlink:href="#SVGID_21_"  style="overflow:visible;"/>
				</clipPath>
				<rect x="868" y="479.1" class="st38" width="94.9" height="126.2"/>
			</g>
		</g>
		<g>
			<defs>
				<rect id="SVGID_23_" x="909.9" y="433.5" width="35.7" height="45.2"/>
			</defs>
			<clipPath id="SVGID_24_">
				<use xlink:href="#SVGID_23_"  style="overflow:visible;"/>
			</clipPath>
			<g class="st39">
				<defs>
					<rect id="SVGID_25_" x="687.1" y="-1026" width="1289.4" height="4433.1"/>
				</defs>
				<clipPath id="SVGID_26_">
					<use xlink:href="#SVGID_25_"  style="overflow:visible;"/>
				</clipPath>
				<g class="st40">
					<g>
						<defs>
							<rect id="SVGID_27_" x="907.4" y="429.9" width="40.3" height="53.7"/>
						</defs>
						<clipPath id="SVGID_28_">
							<use xlink:href="#SVGID_27_"  style="overflow:visible;"/>
						</clipPath>
						<g class="st41">
							<defs>
								<path id="SVGID_29_" d="M912.7,467.9c0,0,4.9,0,4.9-5s-2.5-7.4-4.9-5c-2.5,2.5-2.5,0-2.5,0s4.9-7.4,2.5-9.9
									c-2.5-2.5-4.9-5,0-9.9c4.9-5,12.3-7.4,22.1,0c9.8,7.4,12.3,12.4,9.8,19.8c-2.5,7.4-9.8,17.4-9.8,17.4s-7.4,7.4-14.7,0
									L912.7,467.9z"/>
							</defs>
							<clipPath id="SVGID_30_">
								<use xlink:href="#SVGID_29_"  style="overflow:visible;"/>
							</clipPath>
							<g class="st42">
								<defs>
									<rect id="SVGID_31_" x="909.2" y="433.4" width="36.7" height="45.7"/>
								</defs>
								<clipPath id="SVGID_32_">
									<use xlink:href="#SVGID_31_"  style="overflow:visible;"/>
								</clipPath>
								<rect x="905.4" y="429" class="st43" width="44.6" height="54.2"/>
							</g>
						</g>
					</g>
				</g>
			</g>
		</g>
	</g>
	<path class="st44" d="M901.9,580.7h49.4c8.1,0,14.7-6.6,14.7-14.7v-41.7c0-8.1-6.6-14.7-14.7-14.7h-49.4c-8.1,0-14.7,6.6-14.7,14.7
		V566C887.2,574.1,893.8,580.7,901.9,580.7z"/>
	<path class="st45" d="M896.1,509.6h61c4.9,0,8.9-4,8.9-8.9v-8.3c0-4.9-4-8.9-8.9-8.9h-61c-4.9,0-8.9,4-8.9,8.9v8.3
		C887.2,505.6,891.2,509.6,896.1,509.6z"/>
</g>
</svg>
