<?xml version="1.0" encoding="utf-8"?>
<!-- Generator: Adobe Illustrator 21.0.2, SVG Export Plug-In . SVG Version: 6.00 Build 0)  -->
<svg version="1.1" id="Layer_1" xmlns="http://www.w3.org/2000/svg" xmlns:xlink="http://www.w3.org/1999/xlink" x="0px" y="0px"
	 viewBox="0 0 378.9 396.3" style="enable-background:new 0 0 378.9 396.3;" xml:space="preserve">
<style type="text/css">
	.st0{clip-path:url(#SVGID_2_);}
	.st1{fill:#010F27;}
	.st2{fill:#F2F2F2;}
	.st3{clip-path:url(#SVGID_4_);fill:url(#SVGID_5_);}
	.st4{opacity:0.66;clip-path:url(#SVGID_4_);}
	.st5{fill:#FFFFFF;}
	.st6{opacity:0.74;clip-path:url(#SVGID_4_);fill:#FFFFFF;}
	.st7{clip-path:url(#SVGID_4_);}
	.st8{fill:url(#SVGID_6_);}
	.st9{fill:#1B0D44;}
	.st10{fill:#110A2D;}
	.st11{fill:#00C4EB;}
	.st12{fill:#F54C43;}
	.st13{fill:#FFAA64;}
	.st14{opacity:0.27;}
	.st15{fill:none;stroke:#F54C43;stroke-width:0.1719;stroke-linecap:round;stroke-miterlimit:10;}
	.st16{fill:url(#SVGID_7_);}
	.st17{fill:url(#SVGID_8_);}
	.st18{fill:url(#SVGID_9_);}
	.st19{fill:url(#SVGID_10_);}
	.st20{clip-path:url(#SVGID_4_);fill:none;}
	.st21{fill:#0D1D3A;}
	.st22{filter:url(#Adobe_OpacityMaskFilter);}
	.st23{fill-rule:evenodd;clip-rule:evenodd;fill:url(#SVGID_12_);}
	.st24{mask:url(#SVGID_11_);fill-rule:evenodd;clip-rule:evenodd;fill:#FFFFFF;}
	.st25{fill:#FF6464;}
	.st26{fill:#FFE38D;}
	.st27{clip-path:url(#SVGID_4_);fill:#F2F2F2;}
	.st28{fill:none;stroke:#FFFFFF;stroke-width:0.339;stroke-miterlimit:10;}
	.st29{fill:#9DD6E7;}
	.st30{fill:#3360B4;}
	.st31{fill:#4275B6;}
	.st32{opacity:0.75;fill:#0F6FFF;enable-background:new    ;}
	.st33{fill:none;stroke:#1D2761;stroke-width:0.6779;stroke-miterlimit:10;}
	.st34{fill:#FFFFFF;stroke:#002E61;stroke-width:2.6288;stroke-miterlimit:10;}
	.st35{fill:#20D5D2;}
	.st36{clip-path:url(#SVGID_14_);}
	.st37{clip-path:url(#SVGID_16_);fill:#FF6464;}
	.st38{clip-path:url(#SVGID_18_);}
	.st39{clip-path:url(#SVGID_20_);fill:#FFA3A3;}
	.st40{clip-path:url(#SVGID_22_);}
	.st41{clip-path:url(#SVGID_24_);fill:#00132E;}
	.st42{clip-path:url(#SVGID_26_);}
	.st43{clip-path:url(#SVGID_28_);enable-background:new    ;}
	.st44{clip-path:url(#SVGID_30_);}
	.st45{clip-path:url(#SVGID_32_);}
	.st46{clip-path:url(#SVGID_34_);fill:#2900AA;}
	.st47{fill:#754C24;}
	.st48{fill:#8C6239;}
</style>
<g>
	<defs>
		<rect id="SVGID_1_" width="378.9" height="396.3"/>
	</defs>
	<clipPath id="SVGID_2_">
		<use xlink:href="#SVGID_1_"  style="overflow:visible;"/>
	</clipPath>
	<g class="st0">
		<path class="st1" d="M390.1,148.9c-3.6-0.2-3,5.1-4.2,6.5c-1.2,1.4-2.7-4.3-4.1-2.5s0.9,7.5,0.5,7.8c-1,1-4.1-2.5-4.7-0.2
			s5.8,6.8,3.5,7.2c-2.3,0.4-2.9-2.9-4.1-1.5c-1.2,1.4-0.1,7,3.1,9c3.3,2.1,9.5,2.5,11.5,0.5c2-2,4.5-4.9,2.3-4.9
			c-2.1,0-4.5-0.6-3.5-1.7c0.9-0.9,7.5-4.5,4.7-5.3c-2.8-0.8-3.8,1.2-4.2,0c-0.5-1.2,5.3-4.5,4.9-5.7c-0.5-1.2-1.9-0.4-4.5-0.6
			S393.7,149.2,390.1,148.9z"/>
		<g>
			<g>
				<path class="st2" d="M384.3,175.4c0.6-4.2,1.3-8.5,2.2-12.7c0.6-2.7,1.4-5.2,2.3-7.7c0.3-0.7,1.7-3.6,0.9-4.3
					c0,0-0.3,0.2-0.3,0.2c0.8,0.7-0.5,3.3-0.7,4c-1,2.7-1.9,5.2-2.5,8c-0.9,4.2-1.6,8.4-2.2,12.7C384,175.5,384.3,175.5,384.3,175.4
					L384.3,175.4z"/>
			</g>
		</g>
	</g>
	<g class="st0">
		<defs>
			<path id="SVGID_3_" d="M396.1,16.6c7.7,8.3,13.2,18.4,15.9,29.4c2.9,12.3-1.2,24.9,3.4,37.2c1.4,3.7,3.4,7.3,3.6,11.2
				c0.7,16.3-24.8,26-17.3,43.5c4.3,9.8,7.4,17.8,6.4,28.8c-1.2,10.5-4.5,20.7-9.8,29.8c-2.4,4.2-5.1,8.3-8.1,12.1
				c-16.2,20.4-38.2,35.9-52.3,57.9c-6.5,10.1-11.5,21.9-21.4,28.7c-10.8,7.4-25.1,7.2-37.8,4.1s-24.6-8.9-37.2-12.1
				c-25-6.1-51.5-1.8-73.3,12c-19.5,12.5-33.7,31.7-51.1,47c-17.4,15.3-41.3,27.1-63.4,19.9c-19.4-6.3-31.5-25.1-40.5-43.4
				c-24.5-50.4-36-106.2-40.3-162C-30.8,110.4-39.2,33.4-9.4-7.4C13.3-38.5,61.1-35.3,98.9-43s77.1-4.4,114.9,3.4
				c39.4,8.1,131.1,4.2,165.6,25.1C388-9.3,389.1,9.2,396.1,16.6z"/>
		</defs>
		<clipPath id="SVGID_4_">
			<use xlink:href="#SVGID_3_"  style="overflow:visible;"/>
		</clipPath>
		
			<linearGradient id="SVGID_5_" gradientUnits="userSpaceOnUse" x1="-31.0308" y1="896.3243" x2="418.9948" y2="896.3243" gradientTransform="matrix(1 0 0 -1 0 1056.7629)">
			<stop  offset="0" style="stop-color:#FFE38D"/>
			<stop  offset="0.689" style="stop-color:#FF6464"/>
		</linearGradient>
		<path class="st3" d="M396.1,16.6c7.7,8.3,13.2,18.4,15.9,29.4c2.9,12.3-1.2,24.9,3.4,37.2c1.4,3.7,3.4,7.3,3.6,11.2
			c0.7,16.3-24.8,26-17.3,43.5c4.3,9.8,7.4,17.8,6.4,28.8c-1.2,10.5-4.5,20.7-9.8,29.8c-2.4,4.2-5.1,8.3-8.1,12.1
			c-16.2,20.4-38.2,35.9-52.3,57.9c-6.5,10.1-11.5,21.9-21.4,28.7c-10.8,7.4-25.1,7.2-37.8,4.1s-24.6-8.9-37.2-12.1
			c-25-6.1-51.5-1.8-73.3,12c-19.5,12.5-33.7,31.7-51.1,47c-17.4,15.3-41.3,27.1-63.4,19.9c-19.4-6.3-31.5-25.1-40.5-43.4
			c-24.5-50.4-36-106.2-40.3-162C-30.8,110.4-39.2,33.4-9.4-7.4C13.3-38.5,61.1-35.3,98.9-43s77.1-4.4,114.9,3.4
			c39.4,8.1,131.1,4.2,165.6,25.1C388-9.3,389.1,9.2,396.1,16.6z"/>
		<g class="st4">
			<path class="st5" d="M-8.7,140.4c0.2,0,0.6,0,0.8,0c20.2,0.9,41.1,5.2,61.1,2c4.5-0.7,6.9-1.9,11-1.7c4.2,0.2,6.8,1.9,11,2.8
				c6.3,1.4,13,0.9,19.4-0.7c0.5-0.1,1-0.3,1.3-0.8c0.4-0.7-0.1-1.5-0.7-2c-2.6-2.5-6.5-4.7-9.8-5.6c-12.2-3.6-24.6-0.6-36.6-5.1
				c10.1-3.9,21.5-1.9,31.7,0c2.3,0.4,4.4,0.8,6.4,0.6c2-0.3,4.2-1.3,4.4-3.3c0.5-8.2-29.9-10.6-35.7-10.7
				c-11.2-0.2-20.5,0.5-31.2-0.8c3.3-2.4,6.3-5,8.3-8.5c0.6-1,1.2-1.8,0.8-3c-0.8-2.3-2.6-2.6-5.4-2.6c-9.1-0.1-17.8-0.3-27.3,1.1
				c-9.6,1.4-20.3,4.9-30.3,6.3c-4.5,1.4-9.8,2.7-12.4,6.7c-1.8,2.7-2,5.3-1.2,8.4c1.9,6.9,6.5,11.5,13.3,14
				C-23.2,140.1-15.7,140.1-8.7,140.4z"/>
		</g>
		<path class="st6" d="M316.4,52.1c-21.8-2.5-44.3,1.9-66.1-1.6c1.3-1.9,5.5-2,8.8-2.3c3.3-0.3,7.3-2.1,5.7-3.8
			c-1-1.1-3.6-1.2-5.7-1.2c-6.6,0.1-13.2,0.2-19.8,0.3c-2,0-4.1,0.1-5.8-0.6c-1.7-0.6-2.7-2.1-1.5-3c0.4-0.3,0.9-0.5,1.4-0.7
			c6.2-2.5,12.5-5,18.7-7.5c3.8-1.5,7.8-3.1,12.3-3.5c5.3-0.5,10.7,0.6,15.4,2.2c3.5,1.2,7.8,2.7,11.3,1.4c1.5-0.5,2.4-1.5,3.4-2.3
			c13.4-11.4,43.2-7.3,60.5-2.1c2.3,0.7,4.8,1.7,5.1,3.2c0.5,2.4-4.3,3.7-8.1,4.5c-3.8,0.8-8.1,2.9-6.3,5c1.5,1.7,5.5,1.5,8.7,1.1
			c11.1-1.4,22.6-1.7,33.9-0.9c1.3,0.1,2.7,0.2,3.4,0.9c0.8,0.7,0.4,1.7-0.2,2.5c-4.6,6.6-15,11.1-26.1,13.4
			c-11.1,2.3-23,2.6-34.7,2.9c-15.7,0.4-31.5,0.8-47.2,1.3c2.6,0,11.5-5.3,14.8-6.2C304.1,53.5,310.2,52.5,316.4,52.1z"/>
		<g class="st7">
			<linearGradient id="SVGID_6_" gradientUnits="userSpaceOnUse" x1="206.3171" y1="280.8884" x2="179.3192" y2="19.1597">
				<stop  offset="0.2457" style="stop-color:#B23F00"/>
				<stop  offset="0.267" style="stop-color:#BF5915"/>
				<stop  offset="0.3" style="stop-color:#CF7A31"/>
				<stop  offset="0.3368" style="stop-color:#DE9748"/>
				<stop  offset="0.3776" style="stop-color:#E9AE5B"/>
				<stop  offset="0.4242" style="stop-color:#F2C06A"/>
				<stop  offset="0.4802" style="stop-color:#F8CD74"/>
				<stop  offset="0.555" style="stop-color:#FCD47A"/>
				<stop  offset="0.7262" style="stop-color:#FDD67C"/>
			</linearGradient>
			<path class="st8" d="M417.8,276.2c2.1-62.2,9.2-124.2,15.3-186.1c-32,6.7-66.6,15.4-97.5,25.8c-31,10.3-61.4,22.3-91.4,35.4
				c-30.1,13.1-59.6,27.4-88.8,42.5c-29.3,15.1-58.2,30.8-86.9,47c-14.3,8.1-28.6,16.2-42.9,24.4c-7.1,4.1-14.2,8.2-21.4,12.3
				c-6.3,3.6-13.3,6.6-18.9,11.2c-9.8,7.9-16,19.8-18.3,32c-2.9,15.3-0.4,31.2,4,46.1c148.4,0.3,296.8,0.7,445.2,1
				C416.3,337.1,416.8,306.7,417.8,276.2z"/>
			<g>
				<g>
					<polygon class="st9" points="341.5,182.1 329.1,182.1 329.1,140.7 329.1,130.9 341.5,124 					"/>
					<rect x="341.5" y="124" class="st10" width="24.7" height="58.1"/>
				</g>
				<g>
					<rect x="362.5" y="129.5" class="st11" width="1.8" height="1.8"/>
					<circle class="st12" cx="345.4" cy="130.3" r="0.6"/>
					<circle class="st12" cx="347.6" cy="130.3" r="0.6"/>
					<circle class="st12" cx="349.9" cy="130.3" r="0.6"/>
					<circle class="st13" cx="352.1" cy="130.3" r="0.6"/>
				</g>
				<g>
					<rect x="362.5" y="133" class="st11" width="1.8" height="1.8"/>
					<circle class="st12" cx="345.4" cy="133.8" r="0.6"/>
					<circle class="st12" cx="347.6" cy="133.8" r="0.6"/>
					<circle class="st12" cx="349.9" cy="133.8" r="0.6"/>
					<circle class="st13" cx="352.1" cy="133.8" r="0.6"/>
				</g>
				<g class="st14">
					<line class="st15" x1="339.7" y1="127.8" x2="330.9" y2="132.9"/>
					<line class="st15" x1="339.7" y1="128.7" x2="330.9" y2="133.8"/>
					<line class="st15" x1="339.7" y1="129.6" x2="330.9" y2="134.7"/>
					<line class="st15" x1="339.7" y1="130.5" x2="330.9" y2="135.6"/>
					<line class="st15" x1="339.7" y1="131.3" x2="330.9" y2="136.4"/>
					<line class="st15" x1="339.7" y1="132.2" x2="330.9" y2="137.3"/>
					<line class="st15" x1="339.7" y1="133.1" x2="330.9" y2="138.2"/>
					<line class="st15" x1="339.7" y1="134" x2="330.9" y2="139.1"/>
					<line class="st15" x1="339.7" y1="134.9" x2="330.9" y2="140"/>
					<line class="st15" x1="339.7" y1="135.7" x2="330.9" y2="140.9"/>
					<line class="st15" x1="339.7" y1="136.6" x2="330.9" y2="141.7"/>
					<line class="st15" x1="339.7" y1="137.5" x2="330.9" y2="142.6"/>
					<line class="st15" x1="339.7" y1="138.4" x2="330.9" y2="143.5"/>
					<line class="st15" x1="339.7" y1="139.3" x2="330.9" y2="144.4"/>
					<line class="st15" x1="339.7" y1="140.2" x2="330.9" y2="145.3"/>
					<line class="st15" x1="339.7" y1="141" x2="330.9" y2="146.1"/>
					<line class="st15" x1="339.7" y1="141.9" x2="330.9" y2="147"/>
					<line class="st15" x1="339.7" y1="142.8" x2="330.9" y2="147.9"/>
					<line class="st15" x1="339.7" y1="143.7" x2="330.9" y2="148.8"/>
					<line class="st15" x1="339.7" y1="144.6" x2="330.9" y2="149.7"/>
					<line class="st15" x1="339.7" y1="145.4" x2="330.9" y2="150.5"/>
					<line class="st15" x1="339.7" y1="146.3" x2="330.9" y2="151.4"/>
					<line class="st15" x1="339.7" y1="147.2" x2="330.9" y2="152.3"/>
					<line class="st15" x1="339.7" y1="148.1" x2="330.9" y2="153.2"/>
					<line class="st15" x1="339.7" y1="149" x2="330.9" y2="154.1"/>
					<line class="st15" x1="339.7" y1="149.8" x2="330.9" y2="155"/>
					<line class="st15" x1="339.7" y1="150.7" x2="330.9" y2="155.8"/>
					<line class="st15" x1="339.7" y1="151.6" x2="330.9" y2="156.7"/>
					<line class="st15" x1="339.7" y1="152.5" x2="330.9" y2="157.6"/>
					<line class="st15" x1="339.7" y1="153.4" x2="330.9" y2="158.5"/>
					<line class="st15" x1="339.7" y1="154.2" x2="330.9" y2="159.4"/>
					<line class="st15" x1="339.7" y1="155.1" x2="330.9" y2="160.2"/>
					<line class="st15" x1="339.7" y1="156" x2="330.9" y2="161.1"/>
					<line class="st15" x1="339.7" y1="156.9" x2="330.9" y2="162"/>
					<line class="st15" x1="339.7" y1="157.8" x2="330.9" y2="162.9"/>
					<line class="st15" x1="339.7" y1="158.7" x2="330.9" y2="163.8"/>
					<line class="st15" x1="339.7" y1="159.5" x2="330.9" y2="164.6"/>
					<line class="st15" x1="339.7" y1="160.4" x2="330.9" y2="165.5"/>
					<line class="st15" x1="339.7" y1="161.3" x2="330.9" y2="166.4"/>
					<line class="st15" x1="339.7" y1="162.2" x2="330.9" y2="167.3"/>
					<line class="st15" x1="339.7" y1="163.1" x2="330.9" y2="168.2"/>
					<line class="st15" x1="339.7" y1="163.9" x2="330.9" y2="169.1"/>
					<line class="st15" x1="339.7" y1="164.8" x2="330.9" y2="169.9"/>
					<line class="st15" x1="339.7" y1="165.7" x2="330.9" y2="170.8"/>
					<line class="st15" x1="339.7" y1="166.6" x2="330.9" y2="171.7"/>
					<line class="st15" x1="339.7" y1="167.5" x2="330.9" y2="172.6"/>
					<line class="st15" x1="339.7" y1="168.3" x2="330.9" y2="173.5"/>
					<line class="st15" x1="339.7" y1="169.2" x2="330.9" y2="174.3"/>
					<line class="st15" x1="339.7" y1="170.1" x2="330.9" y2="175.2"/>
					<line class="st15" x1="339.7" y1="171" x2="330.9" y2="176.1"/>
					<line class="st15" x1="339.7" y1="171.9" x2="330.9" y2="177"/>
					<line class="st15" x1="339.7" y1="172.8" x2="330.9" y2="177.9"/>
					<line class="st15" x1="339.7" y1="173.6" x2="330.9" y2="178.7"/>
					<line class="st15" x1="339.7" y1="174.5" x2="330.9" y2="179.6"/>
					<line class="st15" x1="339.7" y1="175.4" x2="330.9" y2="180.5"/>
					<line class="st15" x1="339.7" y1="176.3" x2="330.9" y2="181.4"/>
				</g>
			</g>
			<linearGradient id="SVGID_7_" gradientUnits="userSpaceOnUse" x1="186.7401" y1="329.8825" x2="246.901" y2="-2.7304">
				<stop  offset="2.904548e-02" style="stop-color:#B23F00"/>
				<stop  offset="0.1578" style="stop-color:#B44200"/>
				<stop  offset="0.2507" style="stop-color:#BC4B00"/>
				<stop  offset="0.3324" style="stop-color:#C85B00"/>
				<stop  offset="0.4076" style="stop-color:#DA7100"/>
				<stop  offset="0.4777" style="stop-color:#F08E00"/>
				<stop  offset="0.5009" style="stop-color:#F99900"/>
			</linearGradient>
			<path class="st16" d="M417,367.8l6.1-175c0,0-219.1-52.2-250.7-39.7C140.8,165.5-31,222.7-31,222.7l0,144L417,367.8z"/>
			<linearGradient id="SVGID_8_" gradientUnits="userSpaceOnUse" x1="37.5824" y1="167.4321" x2="302.7857" y2="385.5678">
				<stop  offset="0.1722" style="stop-color:#FDD67C"/>
				<stop  offset="0.2781" style="stop-color:#FCD988"/>
				<stop  offset="0.4677" style="stop-color:#FAE3A7"/>
				<stop  offset="0.598" style="stop-color:#F9EAC0"/>
				<stop  offset="0.6689" style="stop-color:#FAE5AE"/>
				<stop  offset="0.7987" style="stop-color:#FCDD93"/>
				<stop  offset="0.9134" style="stop-color:#FDD882"/>
				<stop  offset="1" style="stop-color:#FDD67C"/>
			</linearGradient>
			<path class="st17" d="M-40.2,208.9l173.8-55.5c0,0,13.8-4.1,48.3,11S422,225.6,422,225.6l-5,142.1H-32.5L-40.2,208.9z"/>
			<linearGradient id="SVGID_9_" gradientUnits="userSpaceOnUse" x1="-61.7308" y1="176.6412" x2="98.4659" y2="219.3827">
				<stop  offset="2.904548e-02" style="stop-color:#B23F00"/>
				<stop  offset="7.032724e-02" style="stop-color:#C55700"/>
				<stop  offset="0.124" style="stop-color:#D86F00"/>
				<stop  offset="0.1849" style="stop-color:#E78200"/>
				<stop  offset="0.2565" style="stop-color:#F18F00"/>
				<stop  offset="0.3488" style="stop-color:#F79700"/>
				<stop  offset="0.5348" style="stop-color:#F99900"/>
				<stop  offset="0.688" style="stop-color:#F79700"/>
				<stop  offset="0.7757" style="stop-color:#F18E00"/>
				<stop  offset="0.8468" style="stop-color:#E68000"/>
				<stop  offset="0.9091" style="stop-color:#D66D00"/>
				<stop  offset="0.965" style="stop-color:#C25300"/>
				<stop  offset="1" style="stop-color:#B23F00"/>
			</linearGradient>
			<path class="st18" d="M-40.2,208.9c0,0,132.4-47.5,175.1-55.8c8.2-1.6,12.6-0.5,12.7,1.3c0.7,11-35.2,31-35.2,31l-150.1,76.8
				L-40.2,208.9z"/>
			<linearGradient id="SVGID_10_" gradientUnits="userSpaceOnUse" x1="57.0081" y1="203.2148" x2="201.6768" y2="364.9313">
				<stop  offset="2.904548e-02" style="stop-color:#B23F00"/>
				<stop  offset="7.032724e-02" style="stop-color:#C55700"/>
				<stop  offset="0.124" style="stop-color:#D86F00"/>
				<stop  offset="0.1849" style="stop-color:#E78200"/>
				<stop  offset="0.2565" style="stop-color:#F18F00"/>
				<stop  offset="0.3488" style="stop-color:#F79700"/>
				<stop  offset="0.5348" style="stop-color:#F99900"/>
				<stop  offset="0.688" style="stop-color:#F79700"/>
				<stop  offset="0.7757" style="stop-color:#F18E00"/>
				<stop  offset="0.8468" style="stop-color:#E68000"/>
				<stop  offset="0.9091" style="stop-color:#D66D00"/>
				<stop  offset="0.965" style="stop-color:#C25300"/>
				<stop  offset="1" style="stop-color:#B23F00"/>
			</linearGradient>
			<path class="st19" d="M-30.5,366.3c54.2,2,109.2,3.8,162.2-7.9c38.3-8.4,74.6-23.7,111.3-37.3c23.2-8.6,47.6-17.2,64.8-35
				c11.8-12.3,19.5-30.7,13-46.4c-6.8-16.2-25.6-23.3-42.5-28c-48.9-13.5-99.5-21.2-150.2-20.5c-6,0.1-13.6-0.5-14.6-6.4
				c-16.1,8.2-32.3,15.8-48.4,24.1s-32.2,16.5-48.2,24.7c-8,4.1-16.1,8.2-24.1,12.4c-8,4.1-16.3,7.8-24.1,12.4
				c-4,2.3-6.7,4.7-7.9,9.3c-1.2,4.5-1.1,9.4-0.6,14.1C-36.8,309.9-33.7,338.1-30.5,366.3z"/>
		</g>
		<path class="st20" d="M11.5,82.3C118.8-46.9,348.2,45.1,389.3,66.2c12,6.2,30.8,16.2,35.6,34.7c6.4,25.1-19.5,40.4-28.6,92.9
			c-3.7,21-0.2,22.7-4.3,37.3c-9.8,34.7-37.7,54.4-56.4,67.7c-27,19.1-64.4,45.7-92.9,33c-22.9-10.3-20.9-37.6-48.6-46.9
			c-15.2-5.1-29-1.3-39.9,1.7c-38.1,10.5-44,35.7-74.6,49.5c-26.3,11.9-61.6,11.2-81.6-0.9C-53.9,303.8-55.3,162.7,11.5,82.3z"/>
		<g class="st7">
			<polygon class="st21" points="187.9,154.3 167.3,143.3 146.7,154.3 167.3,165.3 			"/>
			<polygon class="st21" points="187.9,154.3 187.9,173.6 167.3,184.6 167.3,165.3 			"/>
			<polygon class="st9" points="146.7,154.3 146.7,173.6 167.3,184.6 167.3,165.3 			"/>
			<defs>
				<filter id="Adobe_OpacityMaskFilter" filterUnits="userSpaceOnUse" x="134.1" y="107.6" width="66.2" height="55.1">
					<feColorMatrix  type="matrix" values="1 0 0 0 0  0 1 0 0 0  0 0 1 0 0  0 0 0 1 0"/>
				</filter>
			</defs>
			<mask maskUnits="userSpaceOnUse" x="134.1" y="107.6" width="66.2" height="55.1" id="SVGID_11_">
				<g class="st22">
					<linearGradient id="SVGID_12_" gradientUnits="userSpaceOnUse" x1="167.4722" y1="107.6688" x2="167.4722" y2="162.5693">
						<stop  offset="0.2595" style="stop-color:#000000"/>
						<stop  offset="1" style="stop-color:#FFFFFF;stop-opacity:0.2"/>
					</linearGradient>
					<rect x="127.6" y="107.7" class="st23" width="79.7" height="54.9"/>
				</g>
			</mask>
			<polygon class="st24" points="152,154.4 167.4,162.7 182.9,154.4 200.3,107.6 134.1,107.6 			"/>
		</g>
		<g class="st7">
			<g>
				<polygon class="st25" points="167.2,120.9 165.1,117.3 169.3,117.3 171.3,120.9 171.3,120.9 171.3,120.9 				"/>
				<polygon class="st25" points="167.2,120.9 165.1,124.5 163,120.9 165.1,117.3 167.2,120.9 				"/>
				<polygon class="st13" points="165.1,124.5 167.2,120.9 171.3,120.9 171.3,120.9 169.3,124.5 				"/>
			</g>
			<g>
				<polygon class="st25" points="173.5,124.5 175.5,120.9 177.6,124.5 175.5,128.1 175.5,128.1 175.5,128.1 				"/>
				<polygon class="st25" points="173.5,124.5 169.3,124.5 171.4,120.9 175.5,120.9 173.5,124.5 				"/>
				<polygon class="st13" points="169.3,124.5 173.5,124.5 175.5,128.1 175.5,128.1 171.4,128.1 				"/>
			</g>
			<g>
				<polygon class="st25" points="173.5,131.7 177.7,131.7 175.6,135.3 171.4,135.3 171.4,135.3 171.4,135.3 				"/>
				<polygon class="st25" points="173.5,131.7 171.4,128.1 175.6,128.1 177.7,131.7 173.5,131.7 				"/>
				<polygon class="st13" points="171.4,128.1 173.5,131.7 171.4,135.3 171.4,135.3 169.3,131.7 				"/>
			</g>
			<g>
				<polygon class="st25" points="167.2,135.4 169.3,139 165.1,139 163.1,135.4 163.1,135.4 163.1,135.4 				"/>
				<polygon class="st25" points="167.2,135.4 169.3,131.8 171.4,135.4 169.3,139 167.2,135.4 				"/>
				<polygon class="st13" points="169.3,131.8 167.2,135.4 163.1,135.4 163.1,135.4 165.1,131.8 				"/>
			</g>
			<g>
				<polygon class="st25" points="160.9,131.8 158.9,135.4 156.8,131.8 158.9,128.2 158.9,128.2 158.9,128.2 				"/>
				<polygon class="st25" points="160.9,131.8 165.1,131.8 163,135.4 158.9,135.4 160.9,131.8 				"/>
				<polygon class="st13" points="165.1,131.8 160.9,131.8 158.9,128.2 158.9,128.2 163,128.2 				"/>
			</g>
			<g>
				<polygon class="st25" points="160.9,124.5 156.8,124.5 158.8,120.9 163,120.9 163,120.9 163,120.9 				"/>
				<polygon class="st25" points="160.9,124.5 163,128.1 158.8,128.1 156.8,124.5 160.9,124.5 				"/>
				<polygon class="st13" points="163,128.1 160.9,124.5 163,120.9 163,120.9 165.1,124.5 				"/>
			</g>
			<polygon class="st26" points="169.3,124.5 165.1,124.5 163,128.2 165.1,131.8 169.3,131.8 171.5,128.2 			"/>
		</g>
		<path class="st27" d="M179.2,61.8L179.2,61.8c-0.7,0-1.2-0.5-1.2-1.2v-1.4c0-0.7,0.5-1.2,1.2-1.2l0,0c0.7,0,1.2,0.5,1.2,1.2v1.4
			C180.4,61.3,179.9,61.8,179.2,61.8z"/>
		<path class="st27" d="M174.9,61.8L174.9,61.8c-0.7,0-1.2-0.5-1.2-1.2v-1.4c0-0.7,0.5-1.2,1.2-1.2l0,0c0.7,0,1.2,0.5,1.2,1.2v1.4
			C176.1,61.3,175.5,61.8,174.9,61.8z"/>
		<path class="st27" d="M170.5,61.8L170.5,61.8c-0.7,0-1.2-0.5-1.2-1.2v-1.4c0-0.7,0.5-1.2,1.2-1.2l0,0c0.7,0,1.2,0.5,1.2,1.2v1.4
			C171.7,61.3,171.2,61.8,170.5,61.8z"/>
		<path class="st27" d="M166.2,61.8L166.2,61.8c-0.7,0-1.2-0.5-1.2-1.2v-1.4c0-0.7,0.5-1.2,1.2-1.2l0,0c0.7,0,1.2,0.5,1.2,1.2v1.4
			C167.4,61.3,166.8,61.8,166.2,61.8z"/>
		<path class="st27" d="M161.8,61.8L161.8,61.8c-0.7,0-1.2-0.5-1.2-1.2v-1.4c0-0.7,0.5-1.2,1.2-1.2l0,0c0.7,0,1.2,0.5,1.2,1.2v1.4
			C163,61.3,162.5,61.8,161.8,61.8z"/>
		<path class="st27" d="M157.4,61.8L157.4,61.8c-0.7,0-1.2-0.5-1.2-1.2v-1.4c0-0.7,0.5-1.2,1.2-1.2l0,0c0.7,0,1.2,0.5,1.2,1.2v1.4
			C158.6,61.3,158.1,61.8,157.4,61.8z"/>
		<path class="st27" d="M153.1,61.8L153.1,61.8c-0.7,0-1.2-0.5-1.2-1.2v-1.4c0-0.7,0.5-1.2,1.2-1.2l0,0c0.7,0,1.2,0.5,1.2,1.2v1.4
			C154.3,61.3,153.7,61.8,153.1,61.8z"/>
		<path class="st27" d="M148.7,61.8L148.7,61.8c-0.7,0-1.2-0.5-1.2-1.2v-1.4c0-0.7,0.5-1.2,1.2-1.2l0,0c0.7,0,1.2,0.5,1.2,1.2v1.4
			C149.9,61.3,149.4,61.8,148.7,61.8z"/>
		<path class="st27" d="M144.4,61.8L144.4,61.8c-0.7,0-1.2-0.5-1.2-1.2v-1.4c0-0.7,0.5-1.2,1.2-1.2l0,0c0.7,0,1.2,0.5,1.2,1.2v1.4
			C145.6,61.3,145,61.8,144.4,61.8z"/>
		<path class="st27" d="M140,61.8L140,61.8c-0.7,0-1.2-0.5-1.2-1.2v-1.4c0-0.7,0.5-1.2,1.2-1.2l0,0c0.7,0,1.2,0.5,1.2,1.2v1.4
			C141.2,61.3,140.7,61.8,140,61.8z"/>
		<path class="st27" d="M135.6,61.8L135.6,61.8c-0.7,0-1.2-0.5-1.2-1.2v-1.4c0-0.7,0.5-1.2,1.2-1.2h0c0.7,0,1.2,0.5,1.2,1.2v1.4
			C136.8,61.3,136.3,61.8,135.6,61.8z"/>
		<path class="st27" d="M131.3,61.8L131.3,61.8c-0.7,0-1.2-0.5-1.2-1.2v-1.4c0-0.7,0.5-1.2,1.2-1.2l0,0c0.7,0,1.2,0.5,1.2,1.2v1.4
			C132.5,61.3,132,61.8,131.3,61.8z"/>
		<g class="st7">
			<line class="st28" x1="161.3" y1="68.1" x2="155.5" y2="86.3"/>
			<line class="st28" x1="164.6" y1="68" x2="170.5" y2="86.3"/>
			<g>
				<g>
					<rect x="154.8" y="85.1" class="st29" width="5.5" height="5.5"/>
					<rect x="160.3" y="85.1" class="st30" width="5.5" height="5.5"/>
					<rect x="165.8" y="85.1" class="st31" width="5.5" height="5.5"/>
				</g>
				<g>
					<rect x="154.8" y="96.2" class="st29" width="5.5" height="5.5"/>
					<rect x="160.3" y="96.2" class="st31" width="5.5" height="5.5"/>
					<rect x="165.8" y="96.2" class="st30" width="5.5" height="5.5"/>
				</g>
				<g>
					
						<rect x="165.8" y="90.7" transform="matrix(-1 -4.508495e-11 4.508495e-11 -1 337.1678 186.853)" class="st29" width="5.5" height="5.5"/>
					
						<rect x="160.3" y="90.7" transform="matrix(-1 -4.343960e-11 4.343960e-11 -1 326.1131 186.853)" class="st30" width="5.5" height="5.5"/>
					
						<rect x="154.8" y="90.7" transform="matrix(-1 -4.343960e-11 4.343960e-11 -1 315.0584 186.853)" class="st31" width="5.5" height="5.5"/>
				</g>
			</g>
		</g>
		<path class="st27" d="M126.9,61.8L126.9,61.8c-0.7,0-1.2-0.5-1.2-1.2v-1.4c0-0.7,0.5-1.2,1.2-1.2h0c0.7,0,1.2,0.5,1.2,1.2v1.4
			C128.1,61.3,127.6,61.8,126.9,61.8z"/>
		<path class="st27" d="M186.1,65.9h-1.6c-0.7,0-1.3-0.6-1.3-1.3v-5.4c0-0.7,0.6-1.3,1.3-1.3h1.6c0.7,0,1.3,0.6,1.3,1.3v5.4
			C187.4,65.4,186.8,65.9,186.1,65.9z"/>
		<g class="st7">
			<polygon class="st2" points="148.9,47.1 153.7,52.9 171.5,52.9 159.3,47.1 			"/>
			<path class="st5" d="M158.7,69.2c17.6-0.1,35.2-0.2,52.8-0.3c1.3,0,2.7-0.1,3.7-0.9c1.2-1,1.3-3,0.6-4.4
				c-0.7-1.4-1.9-2.5-3.1-3.6c-1.6-1.4-3.3-2.8-4.9-4.2c-1.4-1.2-2.9-2.5-4.6-3.1c-1.4-0.5-3-0.7-4.5-0.7c-4.3-0.2-8.6-0.2-13-0.2
				c-20.4,0-40.8,0-61.2,0c-0.8,0-1.6,0-2.2-0.4c-0.5-0.3-0.8-0.7-1.2-1.2c-1.7-2.2-3.4-4.4-5.2-6.6c-0.3-0.4-0.7-0.9-1.2-1.2
				c-0.6-0.4-1.4-0.4-2.1-0.4c-2.6,0-6.5-0.6-8.9,0.3c1.9,4.5,3.1,9,4.5,13.6c1.4,4.7,3.8,9.5,8.1,11.8c3.1,1.6,6.8,1.6,10.4,1.6
				C137.3,69.3,148,69.2,158.7,69.2z"/>
			<path class="st32" d="M206,56.3h-9.5c0,0-0.6,1.6,1,2.5h13.7l-3.5-3L206,56.3z"/>
			<path class="st2" d="M114.9,49.2v5h-8.9c-1.4,0-2.5-1.1-2.5-2.5v0c0-1.4,1.1-2.5,2.5-2.5H114.9z"/>
			<polyline class="st2" points="148.6,63.8 133.6,78.3 142.4,78.3 174.9,64.4 			"/>
		</g>
		<g class="st7">
			<polygon class="st2" points="309.2,218 320.5,224.6 354.5,204.9 343.1,198.4 			"/>
			<polygon class="st10" points="309.2,220 320.5,226.6 320.5,224.6 309.2,218 			"/>
			<polygon class="st10" points="354.5,204.9 354.5,206.9 320.5,226.6 320.5,224.6 			"/>
			<path class="st33" d="M304.1,225.3c-6.6,0.5-10,0.3-10.1-0.4c-0.2-0.9,7.2-2.5,7-3.3c-0.1-0.4-2.1-0.6-10.5,0.1"/>
			<path class="st10" d="M315.3,228.3l-7-4c-1.4-0.7-3-0.7-4.3,0l-1.3,0.8c-0.5,0.2-0.8,0.7-0.9,1.3v2.2c0,0.6,0.4,1,0.9,1.3l7,4
				c1.4,0.7,3,0.7,4.3,0l1.3-0.8c0.5-0.2,0.8-0.7,0.9-1.3v-2.2C316.2,229,315.8,228.5,315.3,228.3z"/>
			<path class="st2" d="M304,224.2c1.4-0.7,3-0.7,4.3,0l7,4.1c1.2,0.7,1.2,1.8,0,2.5l-1.3,0.8c-1.4,0.7-3,0.7-4.3,0l-7-4
				c-1.2-0.7-1.2-1.8,0-2.5L304,224.2z"/>
			<path class="st10" d="M339.6,154.8c-0.1-0.1-0.2-0.2-0.4-0.3c-0.1-0.1-0.3-0.2-0.4-0.3c-0.1-0.1-0.2-0.2-0.4-0.3
				c-0.1-0.1-0.2-0.2-0.4-0.3c-0.1-0.1-0.3-0.2-0.4-0.3c-0.1-0.1-0.2-0.2-0.4-0.3c-0.1-0.1-0.3-0.2-0.4-0.3
				c-0.1-0.1-0.2-0.2-0.4-0.3c-0.8-0.7-2.1-0.8-3.5,0.1l-47.9,27.7c-2.7,1.7-4.3,4.6-4.5,7.8v31.5c0,1.4,0.5,2.5,1.4,2.9
				c0.1,0.1,0.2,0.2,0.4,0.3c0.1,0.1,0.3,0.2,0.4,0.3c0.1,0.1,0.2,0.2,0.4,0.3c0.1,0.1,0.3,0.2,0.4,0.3c0.1,0.1,0.2,0.2,0.4,0.3
				c0.1,0.1,0.3,0.2,0.4,0.3c0.1,0.1,0.2,0.2,0.4,0.3c0.1,0.1,0.2,0.2,0.4,0.3c0.8,0.7,2.1,0.8,3.5-0.1l47.9-27.7
				c2.6-1.7,4.3-4.6,4.5-7.8v-31.5C341,156.3,340.5,155.3,339.6,154.8z"/>
			<path class="st34" d="M338.5,156.5c0.1,0,0.3,0,0.3,0.1c0.2,0.4,0.3,0.8,0.3,1.2v31.5c-0.2,2.5-1.5,4.7-3.5,6.1l-47.9,27.7
				c-0.3,0.2-0.7,0.3-1.1,0.4c-0.1,0-0.3,0-0.3-0.1c-0.2-0.4-0.3-0.8-0.3-1.2v-31.4c0.2-2.5,1.5-4.7,3.5-6.1l47.9-27.7
				C337.8,156.7,338.2,156.5,338.5,156.5"/>
			<polygon class="st35" points="291.5,191.6 291.5,193.8 308.9,183.8 308.9,181.5 			"/>
			<polygon class="st35" points="310.9,180.4 310.9,182.6 314.7,180.4 314.7,178.2 			"/>
			<polygon class="st35" points="305,188.2 305,190.5 320.5,181.5 320.5,179.3 			"/>
			<polygon class="st32" points="318.6,175.9 318.6,178.2 328.4,172.5 328.4,170.3 			"/>
			<polygon class="st32" points="303.1,189.4 303.1,191.6 297.3,194.9 297.3,192.7 			"/>
			<polygon class="st35" points="291.5,200.5 291.5,202.8 301.2,197.2 301.2,194.9 			"/>
			<polygon class="st32" points="303.1,193.8 303.1,196.1 312.8,190.5 312.8,188.2 			"/>
			<polygon class="st35" points="314.7,187.1 314.7,189.4 332.2,179.3 332.2,177.1 			"/>
			<polygon class="st32" points="322.5,178.2 322.5,180.4 326.3,178.2 326.3,175.9 			"/>
			<polygon class="st35" points="299.2,200.5 299.2,202.8 316.7,192.7 316.7,190.5 			"/>
			<polygon class="st32" points="318.6,189.4 318.6,191.6 322.5,189.4 322.5,187.1 			"/>
			<polygon class="st32" points="324.4,186 324.4,188.2 334.1,182.6 334.1,180.4 			"/>
		</g>
	</g>
	<g class="st0">
		<path class="st1" d="M325.1,292.4c0.4,1.1-0.9,2.5-1.8,3.7c-3.8,4.9-8.1,9.5-13.1,13.1c-5,3.6-11,6.2-17.1,6.5
			c-9.7,0.5-18.9-4.3-28.5-5.5c1.7-3.8,3.6-7.6,5.9-11.1c2.3-3.6,5-7,8.6-9.2c5.6-3.3,12.5-3.1,19-2.6c8.6,0.7,17.3,1.6,25.6,4
			C324.5,291.7,325,292,325.1,292.4z"/>
		<g>
			<path class="st2" d="M265.8,309.8c4.5-1.7,9.1-3.3,13.6-4.8c4.6-1.6,9.1-3.1,13.7-4.6c4.6-1.4,9.2-2.8,13.9-4
				c2.3-0.6,4.7-1,7.1-1.4l7.1-1.1l-7.1,1.3c-2.4,0.4-4.8,0.8-7.1,1.5c-4.7,1.2-9.3,2.7-13.9,4.1c-4.6,1.4-9.2,2.9-13.8,4.5
				L265.8,309.8z"/>
		</g>
		<g>
			<path class="st2" d="M303.2,291c-0.7,0.9-1.5,1.7-2.2,2.6c-0.8,0.8-1.5,1.7-2.2,2.6c0.4-1.1,1.2-2,1.9-2.8
				C301.5,292.5,302.3,291.7,303.2,291z"/>
		</g>
		<g>
			<path class="st2" d="M311.5,303.5c-1.8,0-3.5-0.3-5.2-0.6c-0.9-0.2-1.7-0.4-2.6-0.7c-0.8-0.3-1.7-0.6-2.4-1.1
				c0.8,0.4,1.7,0.6,2.5,0.8c0.8,0.2,1.7,0.4,2.6,0.6C308.1,302.9,309.8,303.2,311.5,303.5z"/>
		</g>
		<g>
			<path class="st2" d="M304.1,309.8c-2.3-0.7-4.6-1.5-6.8-2.4c-2.2-0.9-4.4-1.9-6.5-3.2c2.2,1,4.4,2,6.6,2.9L304.1,309.8z"/>
		</g>
		<g>
			<path class="st2" d="M293,289.4c-1.1,1.4-2.2,2.7-3.3,4.2c-0.5,0.7-1,1.4-1.5,2.2c-0.5,0.7-0.9,1.5-1.1,2.4
				c0.1-0.9,0.5-1.7,0.9-2.5c0.4-0.8,0.9-1.5,1.5-2.2C290.5,292,291.6,290.6,293,289.4z"/>
		</g>
		<g>
			<path class="st2" d="M292.6,312.7c-2.1-0.5-4.2-1.1-6.3-1.9c-1-0.4-2-0.8-3-1.3c-0.9-0.5-2-1.1-2.6-2c0.7,0.8,1.7,1.3,2.7,1.8
				c1,0.5,2,0.9,3,1.3C288.5,311.3,290.6,312,292.6,312.7z"/>
		</g>
		<g>
			<path class="st2" d="M282.7,293.8c-0.9,1.4-1.7,2.8-2.5,4.3c-0.4,0.7-0.7,1.5-1,2.2c-0.3,0.8-0.5,1.6-0.6,2.4
				c-0.1-0.8,0.1-1.7,0.3-2.5c0.2-0.8,0.6-1.6,0.9-2.3C280.6,296.4,281.6,295,282.7,293.8z"/>
		</g>
	</g>
	<g class="st0">
		<path class="st1" d="M261.4,311.5c-0.2-0.2-0.4-0.4-0.6-0.6c-2-2-2.9-4.9-3-7.8c-0.1-5.9,2.6-11.6,5.7-16.5
			c0.1-0.2,0.2-0.3,0.4-0.4c0.4-0.1,0.7,0.2,0.9,0.5c1.4,2.1,1.9,5.1,4,6.6c0-1.6-0.7-3.2-1-4.8c-0.4-1.6-0.5-3.4,0.4-4.8
			c0.6-0.9,1.4-1.5,2.3-2c2.5-1.6,5.1-3.3,6.3-6c0.2-0.5,0.5-1.6,1.1-1.8c0.9-0.4,1.1,2.1,1.3,2.8c0.1,0.5,1.4,3,1.3,3.3
			c1.4-2.5-0.2-5.7,0.9-8.3c0.8-2,2.8-3.1,4.6-4.4c2.9-2.1,5.3-5,6.8-8.3c1.6,1.6,1.8,4.1,1.7,6.3c-0.1,3.6-0.5,7.2-1.1,10.7
			c-0.4,1.9-0.9,3.9-2.3,5.2c-0.3,0.3-0.7,0.5-0.9,0.8c-0.2,0.3-0.2,0.9,0.1,1.1c0.2,0.2,0.5,0.1,0.8,0.1c1.5-0.4,2.5-1.8,3.3-3.1
			c1.6,4.8,0.8,10.3-2.1,14.4c-0.3,0.4-0.5,0.7-0.9,1c-0.4,0.3-0.9,0.4-1.3,0.5c-2.3,0.6-4.7,1.1-7,1.7c2.1-0.1,4.2-0.2,6.3-0.2
			c0.3,0,0.5,0,0.8,0.1c0.7,0.3,0.6,1.3,0.4,2.1c-1.4,4.6-4.4,8.8-8.5,11.4c-4,2.7-9,3.8-13.8,3.2
			C265.7,313.8,263.3,313,261.4,311.5z"/>
		<g>
			<path class="st5" d="M264.8,312.4c2.4-3.3,4.8-6.5,7.1-9.8c2.3-3.3,4.6-6.6,6.8-10c2.2-3.4,4.4-6.8,6.4-10.3l1.4-2.7
				c0.5-0.9,0.9-1.8,1.3-2.7c0.5-0.9,0.8-1.9,1.2-2.8c0.4-0.9,0.6-1.9,0.9-2.9c-0.8,4-2.7,7.7-4.6,11.2c-2,3.6-4.1,7-6.3,10.4
				c-2.2,3.4-4.5,6.7-6.9,10C269.8,306,267.4,309.2,264.8,312.4z"/>
		</g>
	</g>
	<g class="st0">
		<path class="st1" d="M200.6,236.3c-7.9,6.4,3.5,16.3,3.7,21.5c0.2,5.3-13.9-3.8-13.3,2.7c0.6,6.5,16,13.9,15.9,15.1
			c-0.2,4.1-13.3,2.7-10.2,8.4s25,3,20.9,8.3s-11.5-0.5-11.3,4.8c0.2,5.3,13,14.7,23.7,12.8c10.7-1.9,24.4-12.8,24.8-20.9
			c0.4-8.1,0-18.7-4.5-14.6s-10.5,7.2-10.4,3.2c0.2-3.6,7-23.5-0.4-19.9c-7.4,3.6-5.5,9.7-8.9,8c-3.3-1.6,2.6-19.4-0.8-21.1
			c-3.3-1.6-4.8,2.8-10.5,7.2C213.8,256.3,208.5,229.9,200.6,236.3z"/>
		<g>
			<g>
				<path class="st2" d="M239.1,302.6c-4.7-6.7-9.2-13.6-13.6-20.6c-3.4-5.4-6.7-10.9-9.7-16.6c-2.9-5.5-4.8-11.4-7.3-17.1
					c-0.6-1.3-2.8-7.3-5-7.2c-0.3,0-0.6,0.5-0.9,0.5c1.7-0.1,3.5,4,4,5.1c2.8,5.5,4.4,11.5,7.2,17.1c5.6,11,12.4,21.4,19.2,31.7
					c1.7,2.6,3.5,5.1,5.2,7.7C238.2,303.2,239.1,302.6,239.1,302.6L239.1,302.6z"/>
			</g>
		</g>
	</g>
	<g class="st0">
		<path class="st1" d="M222.1,264.4c0.8-0.9,2.9-0.4,4.5-0.1c6.7,1.3,13.4,3.1,19.5,6.3c6.1,3.1,11.6,7.7,15,13.6
			c5.4,9.3,5.2,20.7,8.9,30.8c-4.6,0.3-9.3,0.2-13.9-0.2c-4.7-0.5-9.4-1.4-13.4-3.9c-6.1-3.8-9.3-10.8-12.1-17.4
			c-3.7-8.8-7.2-17.8-9-27.2C221.6,265.3,221.8,264.7,222.1,264.4z"/>
		<g>
			<path class="st2" d="M269,314c-3.9-3.6-7.8-7.3-11.6-11c-3.8-3.7-7.6-7.4-11.4-11.2c-3.7-3.8-7.4-7.6-11-11.7
				c-1.8-2-3.4-4.1-4.9-6.3l-4.7-6.5l4.8,6.4c1.6,2.1,3.2,4.3,5,6.2c3.5,4,7.3,7.8,11,11.6c3.7,3.8,7.5,7.6,11.3,11.3L269,314z"/>
		</g>
		<g>
			<path class="st2" d="M231.7,286.6c1.2,0.3,2.4,0.6,3.6,0.9c1.2,0.3,2.4,0.6,3.6,0.8c-1.3,0.1-2.5-0.2-3.7-0.4
				C234,287.6,232.8,287.2,231.7,286.6z"/>
		</g>
		<g>
			<path class="st2" d="M239.8,272.2c0.8,1.8,1.5,3.6,2,5.5c0.2,0.9,0.5,1.9,0.6,2.9c0.1,1,0.3,1.9,0.2,2.9c-0.1-1-0.2-1.9-0.4-2.9
				c-0.2-0.9-0.4-1.9-0.7-2.8C240.9,275.9,240.3,274,239.8,272.2z"/>
		</g>
		<g>
			<path class="st2" d="M249.7,276.3c0.2,1.3,0.4,2.6,0.6,3.9c0.2,1.3,0.3,2.6,0.4,4c0.1,1.3,0.2,2.6,0.2,4c0,1.3,0,2.7-0.1,4
				c0-1.3-0.1-2.6-0.2-4c-0.1-1.3-0.2-2.6-0.3-4L249.7,276.3z"/>
		</g>
		<g>
			<path class="st2" d="M235.3,297.5c1.9,0.4,3.8,0.8,5.7,1.1c1,0.2,1.9,0.3,2.9,0.4c1,0.1,1.9,0.1,2.9-0.1
				c-0.9,0.4-1.9,0.4-2.9,0.4c-1,0-2-0.2-2.9-0.3C239,298.7,237.1,298.2,235.3,297.5z"/>
		</g>
		<g>
			<path class="st2" d="M258.4,286.1c0.6,2.3,1,4.7,1.3,7.1c0.1,1.2,0.2,2.4,0.2,3.6c0,1.2-0.1,2.5-0.7,3.5c0.2-0.6,0.3-1.1,0.4-1.7
				c0.1-0.6,0-1.2,0-1.8c0-1.2-0.1-2.4-0.3-3.6C259,290.9,258.7,288.5,258.4,286.1z"/>
		</g>
		<g>
			<path class="st2" d="M244.7,305.5c0.9,0.1,1.8,0.1,2.7,0.2c0.9,0,1.8,0.1,2.7,0.1c0.9,0,1.8,0,2.7-0.1c0.9-0.1,1.8-0.3,2.6-0.6
				c-0.8,0.5-1.7,0.7-2.6,0.9c-0.9,0.2-1.8,0.2-2.8,0.2C248.4,306.1,246.5,305.9,244.7,305.5z"/>
		</g>
	</g>
	<g class="st0">
		<g>
			<g>
				<defs>
					<path id="SVGID_13_" d="M344.1,326.9c0,0-3.9,1-4.8,1.9c-1,1,10.6,1,10.6,1s-1-25.3-1.9-29.1c-1-3.9,2.9-22.3,3.9-23.3
						c1-1,1,1.9,1,1.9s0,17.5,1.9,24.3c1.9,6.8,3.9,16.5,3.9,17.5v4.9c0,0-3.9,1-3.9,1.9c0,1,9.6,1,9.6,1s-1.9-35.9-1.9-36.9
						c0-1,0-9.7,1-13.6c1-3.9,1-12.6,1-12.6v-1.9h-26c0,0,0,22.3,1,29.1c1,6.8,2.9,20.4,2.9,20.4L344.1,326.9z"/>
				</defs>
				<clipPath id="SVGID_14_">
					<use xlink:href="#SVGID_13_"  style="overflow:visible;"/>
				</clipPath>
				<g class="st36">
					<defs>
						<rect id="SVGID_15_" x="247.4" y="-435.1" width="559.4" height="1923.5"/>
					</defs>
					<clipPath id="SVGID_16_">
						<use xlink:href="#SVGID_15_"  style="overflow:visible;"/>
					</clipPath>
					<rect x="336.3" y="261.8" class="st37" width="29.9" height="69.9"/>
				</g>
			</g>
			<g>
				<defs>
					<path id="SVGID_17_" d="M305.4,224.5c0-0.5-0.8-1.1-1,0c-0.1,1,1,1,0,1.9c-1,1-1,3.9,0,3.9c1,0,9.7,5.8,9.7,5.8
						s9.7,6.8,11.7,5.8c1.9-1,11.7-7.7,13.6-7.7c1.9,0,15.6-5.8,15.6-8.7V217c0-0.2,0-0.3-0.1-0.5c-0.2-0.7-0.8-3,0.1-4.6
						c1-1.9,1.5-8.2-2.4-9.2s-6.8,0-7.8,1.9c-1,1.9-1,4.8-1,6.8c0,1.2,0.4,3.1,0.7,4.4c0.2,0.8,0.9,1.4,1.7,1.4h0.2
						c1.1,0,2,1,1.7,2.1c-0.1,0.2-0.2,0.5-0.3,0.8c-1,1.9-17.5,11.6-19.5,12.6c-1,0.5-1.8,1-2.3,1.4c-0.5,0.3-1,0.4-1.6,0.3
						l-14.3-4.4c-0.3-0.1-0.5-0.2-0.7-0.4C308.4,228.5,305.4,225,305.4,224.5"/>
				</defs>
				<clipPath id="SVGID_18_">
					<use xlink:href="#SVGID_17_"  style="overflow:visible;"/>
				</clipPath>
				<g class="st38">
					<defs>
						<rect id="SVGID_19_" x="247.4" y="-435.1" width="559.4" height="1923.5"/>
					</defs>
					<clipPath id="SVGID_20_">
						<use xlink:href="#SVGID_19_"  style="overflow:visible;"/>
					</clipPath>
					<rect x="301.8" y="200.5" class="st39" width="55.9" height="43.5"/>
				</g>
			</g>
			<g>
				<defs>
					<path id="SVGID_21_" d="M327.8,231.8c0,0.3,0.2,0.7,0.3,1c0.3,0.9,0.6,1.7,0.9,2.6c0.2,0.5,2,4.9,1.7,5.2
						c1.5-1.3,3.2-2.4,5-3.2c0.4-0.2,1-0.4,1.4-0.1c0.5,0.3,0.7,1,0.7,1.6c0.5,8.1,0.7,16.2,0.6,24.2c0,0.6,0,1.2,0.2,1.7
						c0.2,0.4,0.5,0.7,0.9,1c3.4,2.9,7.7,4.8,12.2,5c4.5,0.2,9-1.3,12.3-4.4c0.3-0.3,0.6-0.6,0.8-1c0.2-0.4,0.2-0.9,0.3-1.3
						c0.5-6.8-1.9-13.6-1.7-20.4c0.2-6.1,2.4-12.1,1.3-18.1c-0.2-0.9-0.4-1.8-1.1-2.5c-0.5-0.5-1.1-0.8-1.8-1.1
						c-2.2-0.9-4.5-1.5-6.8-1.8c0.3,0-0.4,1.3-0.6,1.4c-0.5,0.4-1.3,0.5-1.8,0.6c-1.6,0.3-3.8,0.1-4.9-1.3c-0.2-0.3-0.4-0.7-0.8-0.9
						c-0.3-0.2-0.6-0.2-1-0.2c-3.7,0-7.2,1.8-10.1,4.2c-2.6,2.1-4.8,4.5-7.1,6.9C328.4,231.1,327.9,231.5,327.8,231.8
						C327.8,231.8,327.8,231.8,327.8,231.8"/>
				</defs>
				<clipPath id="SVGID_22_">
					<use xlink:href="#SVGID_21_"  style="overflow:visible;"/>
				</clipPath>
				<g class="st40">
					<defs>
						<rect id="SVGID_23_" x="247.4" y="-435.1" width="559.4" height="1923.5"/>
					</defs>
					<clipPath id="SVGID_24_">
						<use xlink:href="#SVGID_23_"  style="overflow:visible;"/>
					</clipPath>
					<rect x="325.9" y="217.9" class="st41" width="41.2" height="54.8"/>
				</g>
			</g>
			<g>
				<defs>
					<rect id="SVGID_25_" x="344" y="198.1" width="15.5" height="19.6"/>
				</defs>
				<clipPath id="SVGID_26_">
					<use xlink:href="#SVGID_25_"  style="overflow:visible;"/>
				</clipPath>
				<g class="st42">
					<defs>
						<rect id="SVGID_27_" x="247.4" y="-435.1" width="559.4" height="1923.5"/>
					</defs>
					<clipPath id="SVGID_28_">
						<use xlink:href="#SVGID_27_"  style="overflow:visible;"/>
					</clipPath>
					<g class="st43">
						<g>
							<defs>
								<rect id="SVGID_29_" x="342.9" y="196.6" width="17.5" height="23.3"/>
							</defs>
							<clipPath id="SVGID_30_">
								<use xlink:href="#SVGID_29_"  style="overflow:visible;"/>
							</clipPath>
							<g class="st44">
								<defs>
									<path id="SVGID_31_" d="M345.3,213.1c0,0,2.1,0,2.1-2.2c0-2.2-1.1-3.2-2.1-2.2c-1.1,1.1-1.1,0-1.1,0s2.1-3.2,1.1-4.3
										c-1.1-1.1-2.1-2.2,0-4.3c2.1-2.2,5.3-3.2,9.6,0c4.3,3.2,5.3,5.4,4.3,8.6c-1.1,3.2-4.3,7.5-4.3,7.5s-3.2,3.2-6.4,0
										L345.3,213.1z"/>
								</defs>
								<clipPath id="SVGID_32_">
									<use xlink:href="#SVGID_31_"  style="overflow:visible;"/>
								</clipPath>
								<g class="st45">
									<defs>
										<rect id="SVGID_33_" x="343.7" y="198.1" width="15.9" height="19.8"/>
									</defs>
									<clipPath id="SVGID_34_">
										<use xlink:href="#SVGID_33_"  style="overflow:visible;"/>
									</clipPath>
									<rect x="342.1" y="196.2" class="st46" width="19.4" height="23.5"/>
								</g>
							</g>
						</g>
					</g>
				</g>
			</g>
		</g>
		<path class="st47" d="M340.6,262H362c3.5,0,6.4-2.9,6.4-6.4v-18.1c0-3.5-2.9-6.4-6.4-6.4h-21.5c-3.5,0-6.4,2.9-6.4,6.4v18.1
			C334.2,259.1,337.1,262,340.6,262z"/>
		<path class="st48" d="M338.1,231.2h26.5c2.1,0,3.9-1.7,3.9-3.9v-3.6c0-2.1-1.7-3.9-3.9-3.9h-26.5c-2.1,0-3.9,1.7-3.9,3.9v3.6
			C334.2,229.4,335.9,231.2,338.1,231.2z"/>
	</g>
</g>
</svg>
