<?xml version="1.0" encoding="utf-8"?>
<!-- Generator: Adobe Illustrator 21.0.2, SVG Export Plug-In . SVG Version: 6.00 Build 0)  -->
<svg version="1.1" id="Layer_1" xmlns="http://www.w3.org/2000/svg" xmlns:xlink="http://www.w3.org/1999/xlink" x="0px" y="0px"
	 viewBox="0 0 995.9 998.7" style="enable-background:new 0 0 995.9 998.7;" xml:space="preserve">
<style type="text/css">
	.st0{clip-path:url(#SVGID_2_);fill:url(#SVGID_3_);}
	.st1{clip-path:url(#SVGID_2_);}
	.st2{fill:#110A2D;}
	.st3{fill:none;stroke:#110A2D;stroke-width:2;stroke-miterlimit:10;}
	.st4{fill:#1B0D44;}
	.st5{fill:#080516;}
	.st6{fill:#F54C43;}
	.st7{fill:#9DD6E7;}
	.st8{fill:#1EC5C3;}
	.st9{fill:#FE6464;}
	.st10{fill:#FDE18C;}
	.st11{fill:#1FD0CD;}
	.st12{fill:#FE6363;}
	.st13{fill:#1FCFCD;}
	.st14{fill:none;stroke:#110A2D;stroke-width:2;stroke-linecap:round;stroke-miterlimit:10;}
	.st15{clip-path:url(#SVGID_2_);fill-rule:evenodd;clip-rule:evenodd;fill:#FFFFFF;}
	.st16{fill:#FFFFFF;stroke:#002E61;stroke-width:8.8475;stroke-miterlimit:10;}
	.st17{fill:#20D5D2;}
	.st18{opacity:0.75;fill:#0F6FFF;enable-background:new    ;}
	.st19{clip-path:url(#SVGID_2_);fill:#1B0D44;}
	.st20{clip-path:url(#SVGID_2_);fill:#0D1D3A;}
	.st21{fill:#0D1D3A;}
	.st22{fill:#FF6464;}
	.st23{fill:#65CDC9;}
	.st24{fill:#FFE38D;}
	.st25{fill:#FFAA64;}
	.st26{clip-path:url(#SVGID_2_);fill:#65CDC9;}
	.st27{clip-path:url(#SVGID_2_);fill:none;stroke:#FF6464;stroke-width:0.9711;stroke-miterlimit:10;}
	.st28{fill:#1A1A1A;}
	.st29{filter:url(#Adobe_OpacityMaskFilter);}
	.st30{clip-path:url(#SVGID_2_);fill-rule:evenodd;clip-rule:evenodd;fill:url(#SVGID_5_);}
	.st31{clip-path:url(#SVGID_2_);mask:url(#SVGID_4_);fill-rule:evenodd;clip-rule:evenodd;fill:#FFFFFF;}
	.st32{clip-path:url(#SVGID_7_);}
	.st33{clip-path:url(#SVGID_9_);fill:#FF6464;}
	.st34{clip-path:url(#SVGID_11_);}
	.st35{clip-path:url(#SVGID_13_);fill:#FFA3A3;}
	.st36{clip-path:url(#SVGID_15_);}
	.st37{clip-path:url(#SVGID_17_);fill:#00132E;}
	.st38{clip-path:url(#SVGID_19_);}
	.st39{clip-path:url(#SVGID_21_);enable-background:new    ;}
	.st40{clip-path:url(#SVGID_23_);}
	.st41{clip-path:url(#SVGID_25_);}
	.st42{clip-path:url(#SVGID_27_);fill:#2900AA;}
	.st43{clip-path:url(#SVGID_29_);fill:url(#SVGID_30_);}
	.st44{clip-path:url(#SVGID_29_);}
	.st45{clip-path:url(#SVGID_29_);fill-rule:evenodd;clip-rule:evenodd;fill:#FFFFFF;}
	.st46{clip-path:url(#SVGID_29_);fill:#1B0D44;}
	.st47{clip-path:url(#SVGID_29_);fill:#0D1D3A;}
	.st48{clip-path:url(#SVGID_29_);fill:#65CDC9;}
	.st49{clip-path:url(#SVGID_29_);fill:none;stroke:#FF6464;stroke-width:0.9711;stroke-miterlimit:10;}
	.st50{filter:url(#Adobe_OpacityMaskFilter_1_);}
	.st51{clip-path:url(#SVGID_29_);fill-rule:evenodd;clip-rule:evenodd;fill:url(#SVGID_32_);}
	.st52{clip-path:url(#SVGID_29_);mask:url(#SVGID_31_);fill-rule:evenodd;clip-rule:evenodd;fill:#FFFFFF;}
	.st53{clip-path:url(#SVGID_34_);}
	.st54{clip-path:url(#SVGID_36_);fill:#FF6464;}
	.st55{clip-path:url(#SVGID_38_);}
	.st56{clip-path:url(#SVGID_40_);fill:#FFA3A3;}
	.st57{clip-path:url(#SVGID_42_);}
	.st58{clip-path:url(#SVGID_44_);fill:#00132E;}
	.st59{clip-path:url(#SVGID_46_);}
	.st60{clip-path:url(#SVGID_48_);enable-background:new    ;}
	.st61{clip-path:url(#SVGID_50_);}
	.st62{clip-path:url(#SVGID_52_);}
	.st63{clip-path:url(#SVGID_54_);fill:#2900AA;}
</style>
<g>
	<defs>
		<path id="SVGID_1_" d="M864.5,157c19.2,20.2,33,44,34.6,71.5c2.3,38.1-19.3,79.1-1.4,112.8c19.3,36.2,66.4,42.6,83.1,81.3
			c9.7,22.4,16.9,40.6,14.5,65.8c-2.2,23.9-10.7,47.1-22.4,68c-5.4,9.7-11.6,18.9-18.5,27.6c-36.9,46.6-87.3,82-119.2,132.1
			c-14.8,23.1-26.2,50-48.8,65.5c-24.5,16.9-57.3,16.5-86.2,9.4c-28.9-7.2-56-20.4-84.9-27.7c-56.3-14.1-118.3-4-167.2,27.3
			c-44.6,28.5-76.8,72.4-116.6,107.3c-39.8,34.9-94.3,61.7-144.7,45.4c-44.1-14.3-71.9-57.3-92.2-99C39,729.4,12.7,602,3,474.7
			c-8.7-114.8-1.8-238.5,66.1-331.5C121.1,72.1,203.9,27.6,290.2,10s175.9-10.1,262.1,7.7c90,18.6,178.2,48.7,256.8,96.2
			C828.8,125.9,848.5,140.2,864.5,157z"/>
	</defs>
	<clipPath id="SVGID_2_">
		<use xlink:href="#SVGID_1_"  style="overflow:visible;"/>
	</clipPath>
	<linearGradient id="SVGID_3_" gradientUnits="userSpaceOnUse" x1="9.094947e-13" y1="472.1063" x2="995.9066" y2="472.1063">
		<stop  offset="0" style="stop-color:#52E5E7"/>
		<stop  offset="0.689" style="stop-color:#0130CB"/>
	</linearGradient>
	<path class="st0" d="M864.5,155c19.2,20.2,33,44,34.6,71.5c2.3,38.1-19.3,79.1-1.4,112.8c19.3,36.2,66.4,42.6,83.1,81.3
		c9.7,22.4,16.9,40.6,14.5,65.8c-2.2,23.9-10.7,47.1-22.4,68c-5.4,9.7-11.6,18.9-18.5,27.6c-36.9,46.6-87.3,82-119.2,132.1
		c-14.8,23.1-26.2,50-48.8,65.5c-24.5,16.9-57.3,16.5-86.2,9.4c-28.9-7.2-56-20.4-84.9-27.7c-56.3-14.1-118.3-4-167.2,27.3
		c-44.6,28.5-76.8,72.4-116.6,107.3c-39.8,34.9-94.3,61.7-144.7,45.4c-44.1-14.3-71.9-57.3-92.2-99C39,727.4,12.7,600,3,472.7
		c-8.7-114.8-1.8-238.5,66.1-331.5C121.1,70.1,203.9,25.6,290.2,8s175.9-10.1,262.1,7.7c90,18.6,178.2,48.7,256.8,96.2
		C828.8,123.9,848.5,138.2,864.5,155z"/>
	<g class="st1">
		
			<rect x="299.2" y="183.5" transform="matrix(3.076390e-11 -1 1 3.076390e-11 -199.4016 834.5228)" class="st2" width="36.8" height="667"/>
		<g>
			<rect x="497.8" y="378.2" class="st2" width="11.8" height="157.1"/>
			<rect x="590.5" y="378.2" class="st2" width="11.8" height="157.1"/>
			<polygon class="st2" points="497.8,378.2 497.8,390 600.4,390 600.4,378.2 509.6,378.2 			"/>
		</g>
		<path class="st2" d="M552.2,421L552.2,421c-3.3,0-5.9-2.6-5.9-5.9V269.8c0-3.3,2.6-5.9,5.9-5.9h0c3.3,0,5.9,2.6,5.9,5.9v145.3
			C558.1,418.4,555.4,421,552.2,421z"/>
		<rect x="695.8" y="263.9" class="st2" width="11.8" height="83"/>
		
			<rect x="622.7" y="191.3" transform="matrix(6.123234e-17 -1 1 6.123234e-17 358.8091 898.4836)" class="st2" width="11.8" height="157.1"/>
		<rect x="681.1" y="331.8" class="st2" width="41.4" height="16.4"/>
		<g>
			<line class="st3" x1="547.7" y1="330.3" x2="509.4" y2="381.2"/>
			<line class="st3" x1="547.7" y1="345.7" x2="520.6" y2="381.2"/>
			<line class="st3" x1="547.9" y1="360.6" x2="533.3" y2="381.2"/>
		</g>
		<g>
			<line class="st3" x1="552.4" y1="328.9" x2="590.7" y2="379.8"/>
			<line class="st3" x1="552.4" y1="344.3" x2="579.4" y2="379.8"/>
			<line class="st3" x1="552.2" y1="359.2" x2="566.8" y2="379.8"/>
		</g>
		<g>
			<rect x="377.5" y="378.3" class="st2" width="11.8" height="157.1"/>
			<rect x="470.1" y="378.3" class="st2" width="11.8" height="157.1"/>
			<polygon class="st2" points="377.5,378.3 377.5,390.1 480.1,390.1 480.1,378.3 389.3,378.3 			"/>
		</g>
		<g>
			<g>
				<path class="st4" d="M553.7,438.3h442.1v129l-336.2-4.1C659.7,563.1,653.1,531,553.7,438.3z"/>
				<path class="st5" d="M553.7,438.4h442.1v4.4L557.6,442C557.6,442,555,439.6,553.7,438.4z"/>
				<polygon class="st6" points="995.8,553.4 655.5,553.4 653.7,550.4 995.8,550.4 				"/>
			</g>
			<rect x="887.4" y="405.5" class="st7" width="108.4" height="32.7"/>
			<rect x="779.1" y="405.5" class="st8" width="108.4" height="32.7"/>
			<rect x="670.7" y="405.5" class="st9" width="108.4" height="32.7"/>
			<rect x="829.1" y="307.3" class="st10" width="108.4" height="42.7"/>
			<rect x="670.7" y="372.9" class="st11" width="108.4" height="32.7"/>
			<rect x="779.1" y="372.8" class="st7" width="108.4" height="32.7"/>
			<rect x="887.4" y="372.8" class="st10" width="108.4" height="32.7"/>
			<rect x="779.1" y="340.5" class="st12" width="108.4" height="32.7"/>
			<rect x="887.4" y="340.5" class="st13" width="108.4" height="32.7"/>
			<rect x="233.4" y="465.5" class="st7" width="108.4" height="32.7"/>
			<rect x="125.1" y="465.5" class="st8" width="108.4" height="32.7"/>
			<rect x="16.7" y="465.5" class="st9" width="108.4" height="32.7"/>
			<rect x="179.1" y="371.3" class="st10" width="108.4" height="32.7"/>
			<rect x="16.7" y="432.9" class="st11" width="108.4" height="32.7"/>
			<rect x="125.1" y="432.8" class="st7" width="108.4" height="32.7"/>
			<rect x="233.4" y="432.8" class="st10" width="108.4" height="32.7"/>
			<rect x="125.1" y="402.5" class="st12" width="108.4" height="32.7"/>
			<rect x="233.4" y="402.5" class="st13" width="108.4" height="32.7"/>
		</g>
		<g>
			<g>
				<rect x="424.1" y="275.9" class="st2" width="11.8" height="157.1"/>
				<rect x="409.7" y="420.5" class="st2" width="41.4" height="16.4"/>
			</g>
			<g>
				<line class="st3" x1="427.3" y1="330.4" x2="389" y2="381.2"/>
				<line class="st3" x1="427.3" y1="345.7" x2="400.3" y2="381.2"/>
				<line class="st3" x1="427.6" y1="360.7" x2="412.9" y2="381.2"/>
			</g>
			<g>
				<line class="st3" x1="432.1" y1="329" x2="470.4" y2="379.8"/>
				<line class="st3" x1="432.1" y1="344.3" x2="459.1" y2="379.8"/>
				<line class="st3" x1="431.8" y1="359.3" x2="446.5" y2="379.8"/>
			</g>
		</g>
		<g>
			<polyline class="st14" points="427.7,435 415.6,443.9 421.6,458.4 			"/>
			<polyline class="st14" points="433,435 445.1,443.9 439,458.4 			"/>
		</g>
		<g>
			<polyline class="st14" points="699.1,347.5 687,356.5 693,371 			"/>
			<polyline class="st14" points="704.4,347.5 716.5,356.5 710.5,371 			"/>
		</g>
	</g>
	<path class="st15" d="M911.7,588.9"/>
	<g class="st1">
		<g>
			<path class="st16" d="M407.1,681.4H194c-13.3,0-24.1-10.8-24.1-24.1V550.7c0-13.3,10.8-24.1,24.1-24.1h213.1
				c13.3,0,24.1,10.8,24.1,24.1v106.7C431.2,670.6,420.4,681.4,407.1,681.4z"/>
		</g>
		<rect x="190.5" y="554.3" class="st17" width="90.9" height="9.6"/>
		<rect x="285" y="631.6" class="st18" width="90.9" height="9.6"/>
		<rect x="291.4" y="554.3" class="st18" width="29" height="9.6"/>
		<rect x="330.4" y="554.3" class="st17" width="47.9" height="9.6"/>
		<rect x="346.5" y="574.5" class="st17" width="17.9" height="9.6"/>
		<rect x="254.3" y="632" class="st17" width="17.9" height="9.6"/>
		<rect x="190.5" y="574.1" class="st18" width="17.9" height="9.6"/>
		<rect x="253.5" y="613.4" class="st17" width="46.9" height="9.6"/>
		<rect x="224.2" y="593.8" class="st17" width="47.9" height="9.6"/>
		<rect x="287.5" y="574.1" class="st17" width="47.9" height="9.6"/>
		<rect x="219.9" y="574.5" class="st18" width="56.5" height="9.6"/>
		<rect x="310.5" y="613.4" class="st18" width="56.5" height="9.6"/>
	</g>
	<polygon class="st19" points="36.2,839.5 -4.2,731.2 865.4,731.2 818.1,839.5 	"/>
	<polygon class="st20" points="40.2,667.2 809.3,667.2 865.4,731.2 -4.2,731.2 	"/>
	<g class="st1">
		<polygon class="st21" points="147.6,729 46.9,729 89.9,672.1 175.6,671.9 		"/>
		<polygon class="st22" points="154.1,698.1 80.9,698.2 85.4,691.9 157.3,691.8 		"/>
		<polygon class="st23" points="141.8,721.9 63.7,721.9 68.2,715.7 145,715.7 		"/>
		<g>
			<polygon class="st24" points="137.1,679.1 94.7,679.2 90.2,685.4 133.3,685.3 			"/>
			<polygon class="st23" points="150.6,679 147.1,685.3 160.7,685.2 163.9,679 			"/>
		</g>
		<g>
			<polygon class="st25" points="91.9,703.8 76.8,703.8 72.3,710 87.7,710 			"/>
			<polygon class="st24" points="105.1,703.8 101,710 148,710 151.2,703.7 			"/>
		</g>
	</g>
	<g class="st1">
		<polygon class="st21" points="258.7,729 158,729 184.5,671.9 270.2,671.6 		"/>
	</g>
	<g class="st1">
		<polygon class="st21" points="632.4,729.9 531.7,729.9 539.6,672.5 625.3,672.3 		"/>
	</g>
	<g class="st1">
		<polygon class="st21" points="826.7,729 634.9,729 625.2,671.3 788.3,670.9 		"/>
	</g>
	<g class="st1">
		<g>
			<path class="st25" d="M203,682.4c-0.7,1.7-3.4,3.1-6.1,3.1c-2.7,0-4.3-1.4-3.6-3.1c0.7-1.7,3.5-3.1,6.1-3.1
				S203.7,680.7,203,682.4z"/>
			<path class="st25" d="M220.1,682.4c-0.6,1.7-3.3,3.1-5.9,3.1c-2.7,0-4.4-1.4-3.7-3.1c0.6-1.7,3.3-3.1,5.9-3.1
				S220.7,680.7,220.1,682.4z"/>
			<path class="st23" d="M237.2,682.3c-0.5,1.7-3.1,3.1-5.8,3.1c-2.7,0-4.4-1.4-3.9-3.1c0.6-1.7,3.1-3.1,5.8-3.1
				S237.7,680.6,237.2,682.3z"/>
			<path class="st22" d="M254.3,682.3c-0.4,1.7-2.9,3.1-5.6,3.1c-2.7,0-4.5-1.4-4-3.1c0.5-1.7,3-3.1,5.6-3.1
				S254.7,680.6,254.3,682.3z"/>
		</g>
		<g>
			<path class="st25" d="M198.3,694.4c-0.7,1.7-3.5,3.1-6.3,3.1c-2.8,0-4.5-1.4-3.7-3.1s3.5-3.1,6.3-3.1
				C197.3,691.3,198.9,692.7,198.3,694.4z"/>
			<path class="st24" d="M216,694.4c-0.6,1.7-3.3,3.1-6.1,3.1c-2.8,0-4.5-1.4-3.9-3.1s3.4-3.1,6.1-3.1
				C214.8,691.3,216.6,692.7,216,694.4z"/>
			<path class="st25" d="M233.7,694.3c-0.5,1.7-3.2,3.1-6,3.1c-2.8,0-4.6-1.4-4.1-3.1c0.6-1.7,3.2-3.1,6-3.1
				C232.4,691.2,234.2,692.6,233.7,694.3z"/>
			<path class="st25" d="M251.4,694.3c-0.4,1.7-3,3.1-5.8,3.1c-2.8,0-4.7-1.4-4.2-3.1c0.5-1.7,3.1-3.1,5.8-3.1
				C250,691.2,251.9,692.6,251.4,694.3z"/>
		</g>
		<g>
			<path class="st25" d="M193.6,706.4c-0.7,1.7-3.6,3.1-6.5,3.1s-4.6-1.4-3.9-3.1s3.6-3.1,6.5-3.1
				C192.5,703.3,194.2,704.7,193.6,706.4z"/>
			<path class="st23" d="M211.9,706.4c-0.6,1.7-3.4,3.1-6.3,3.1c-2.9,0-4.7-1.4-4.1-3.1s3.5-3.1,6.3-3.1S212.5,704.6,211.9,706.4z"
				/>
			<path class="st25" d="M230.2,706.4c-0.5,1.7-3.2,3.1-6.1,3.1c-2.9,0-4.8-1.4-4.2-3.1c0.6-1.7,3.3-3.1,6.1-3.1
				C228.8,703.2,230.7,704.6,230.2,706.4z"/>
			<path class="st25" d="M248.6,706.3c-0.4,1.7-3.1,3.1-6,3.1c-2.9,0-4.8-1.4-4.4-3.1c0.5-1.7,3.1-3.1,6-3.1S249,704.6,248.6,706.3z
				"/>
		</g>
		<g>
			<path class="st25" d="M188.8,718.4c-0.7,1.7-3.6,3.1-6.6,3.1c-3,0-4.8-1.4-4.1-3.1c0.7-1.7,3.7-3.1,6.6-3.1
				C187.7,715.3,189.5,716.7,188.8,718.4z"/>
			<path class="st25" d="M207.8,718.4c-0.6,1.7-3.5,3.1-6.5,3.1c-3,0-4.9-1.4-4.2-3.1s3.5-3.1,6.5-3.1
				C206.5,715.2,208.4,716.6,207.8,718.4z"/>
			<path class="st25" d="M226.7,718.4c-0.5,1.7-3.3,3.1-6.3,3.1c-3,0-4.9-1.4-4.4-3.1c0.6-1.7,3.4-3.1,6.3-3.1
				C225.3,715.2,227.2,716.6,226.7,718.4z"/>
			<path class="st25" d="M245.7,718.4c-0.4,1.7-3.2,3.1-6.1,3.1c-3,0-5-1.4-4.6-3.1c0.5-1.7,3.2-3.1,6.1-3.1
				C244.1,715.2,246.1,716.6,245.7,718.4z"/>
		</g>
	</g>
	<path class="st26" d="M583.4,700.6l-8.1,20.2c-15.8-2.2-26.3-10.5-25.4-20.1c1.1-11.3,16.3-20.7,33.6-20.7
		c17.3,0,32.4,9.3,33.4,20.6L583.4,700.6z"/>
	<path class="st27" d="M655.8,717.6c1.4-5.8,3.1-12.8,9.1-17.3c6.3-4.8,15.4-0.3,20.9,4.3c4,3.4,5.6,6.9,8.7,10.5
		c0.7,0.8,1.6,1.6,2.8,2.2c6.1,2.7,10.9-0.9,12.2-3.4c1.5-2.8,1.4-5.9,1.5-8.9c0-4-4.4-17.4,5-16.9c6.1,0.3,14,9.8,16.2,12.4
		c3.3,3.7,11.3,16.3,18.4,16.3c3.8,0,5-1.6,4.7-3.6c-1-7.8-6.9-15.8-7.1-23.5c-0.2-4.3,4.4-8.2,12.8-4.4
		c17.6,7.8,34.7,32.4,34.7,32.4"/>
	<g class="st1">
		<polygon class="st21" points="548.8,730.5 430.6,667.2 312.5,730.5 430.6,793.9 		"/>
		<polygon class="st28" points="342,730.5 430.6,683 519.3,730.5 430.6,778 		"/>
		<polygon class="st21" points="548.8,730.5 548.8,841.4 430.6,904.7 430.6,793.9 		"/>
		<polygon class="st4" points="312.5,730.5 312.5,841.4 430.6,904.7 430.6,793.9 		"/>
	</g>
	<defs>
		<filter id="Adobe_OpacityMaskFilter" filterUnits="userSpaceOnUse" x="240.3" y="462.8" width="379.7" height="316.1">
			<feColorMatrix  type="matrix" values="1 0 0 0 0  0 1 0 0 0  0 0 1 0 0  0 0 0 1 0"/>
		</filter>
	</defs>
	<mask maskUnits="userSpaceOnUse" x="240.3" y="462.8" width="379.7" height="316.1" id="SVGID_4_">
		<g class="st29">
			<linearGradient id="SVGID_5_" gradientUnits="userSpaceOnUse" x1="431.7253" y1="463.0149" x2="431.7253" y2="778.0279">
				<stop  offset="0.2595" style="stop-color:#000000"/>
				<stop  offset="1" style="stop-color:#FFFFFF;stop-opacity:0.2"/>
			</linearGradient>
			<rect x="203.1" y="463" class="st30" width="457.2" height="315"/>
		</g>
	</mask>
	<polygon class="st31" points="342.7,731.4 431.4,778.9 520,731.4 620,462.8 240.3,462.8 	"/>
	<g class="st1">
		<g>
			<polygon class="st22" points="429.6,664.3 422.5,652 436.7,652 443.8,664.3 443.8,664.3 443.8,664.3 			"/>
			<polygon class="st22" points="429.6,664.3 422.5,676.6 415.4,664.3 422.5,652 429.6,664.3 			"/>
			<polygon class="st25" points="422.5,676.6 429.6,664.3 443.8,664.3 443.8,664.3 436.7,676.6 			"/>
		</g>
		<g>
			<polygon class="st22" points="450.9,676.5 458,664.2 465.1,676.5 458,688.8 458,688.8 458,688.8 			"/>
			<polygon class="st22" points="450.9,676.5 436.7,676.5 443.8,664.2 458,664.2 450.9,676.5 			"/>
			<polygon class="st25" points="436.7,676.5 450.9,676.5 458,688.8 458,688.8 443.8,688.8 			"/>
		</g>
		<g>
			<polygon class="st22" points="451,701.2 465.2,701.2 458.1,713.5 443.9,713.5 443.9,713.5 443.9,713.5 			"/>
			<polygon class="st22" points="451,701.2 443.9,688.9 458.1,688.9 465.2,701.2 451,701.2 			"/>
			<polygon class="st25" points="443.9,688.9 451,701.2 443.9,713.5 443.9,713.5 436.8,701.2 			"/>
		</g>
		<g>
			<polygon class="st22" points="429.7,713.6 436.8,725.9 422.6,725.9 415.5,713.6 415.5,713.6 415.5,713.6 			"/>
			<polygon class="st22" points="429.7,713.6 436.8,701.3 443.9,713.6 436.8,725.9 429.7,713.6 			"/>
			<polygon class="st25" points="436.8,701.3 429.7,713.6 415.5,713.6 415.5,713.6 422.6,701.3 			"/>
		</g>
		<g>
			<polygon class="st22" points="408.3,701.3 401.2,713.6 394.1,701.3 401.2,689 401.2,689 401.2,689 			"/>
			<polygon class="st22" points="408.3,701.3 422.5,701.3 415.4,713.6 401.2,713.6 408.3,701.3 			"/>
			<polygon class="st25" points="422.5,701.3 408.3,701.3 401.2,689 401.2,689 415.4,689 			"/>
		</g>
		<g>
			<polygon class="st22" points="408.3,676.7 394.1,676.7 401.2,664.4 415.4,664.4 415.4,664.4 415.4,664.4 			"/>
			<polygon class="st22" points="408.3,676.7 415.4,689 401.2,689 394.1,676.7 408.3,676.7 			"/>
			<polygon class="st25" points="415.4,689 408.3,676.7 415.4,664.4 415.4,664.4 422.5,676.7 			"/>
		</g>
		<polygon class="st24" points="436.9,676.6 422.5,676.6 415.3,689.1 422.5,701.5 436.9,701.5 444.1,689.1 		"/>
	</g>
</g>
<g>
	<g>
		<defs>
			<path id="SVGID_6_" d="M310.8,990.1c0,0-11.4,2.9-14.3,5.8c-2.9,2.9,31.4,2.9,31.4,2.9s-2.9-74.8-5.7-86.3
				c-2.9-11.5,8.6-66.2,11.4-69.1c2.9-2.9,2.9,5.8,2.9,5.8s0,51.8,5.7,72c5.7,20.1,11.4,48.9,11.4,51.8v14.4c0,0-11.4,2.9-11.4,5.8
				c0,2.9,28.6,2.9,28.6,2.9s-5.7-106.5-5.7-109.4c0-2.9,0-28.8,2.9-40.3c2.9-11.5,2.9-37.4,2.9-37.4V803h-77.1c0,0,0,66.2,2.9,86.3
				c2.9,20.2,8.6,60.4,8.6,60.4L310.8,990.1z"/>
		</defs>
		<clipPath id="SVGID_7_">
			<use xlink:href="#SVGID_6_"  style="overflow:visible;"/>
		</clipPath>
		<g class="st32">
			<defs>
				<rect id="SVGID_8_" x="24.2" y="-1268.1" width="1657.8" height="5699.9"/>
			</defs>
			<clipPath id="SVGID_9_">
				<use xlink:href="#SVGID_8_"  style="overflow:visible;"/>
			</clipPath>
			<rect x="287.9" y="797.2" class="st33" width="88.6" height="207.2"/>
		</g>
	</g>
	<g>
		<defs>
			<path id="SVGID_10_" d="M196.2,686.7c0-1.4-2.5-3.3-2.9,0c-0.3,2.8,2.9,2.9,0,5.7c-2.9,2.9-2.9,11.5,0,11.5
				c2.9,0,28.9,17.2,28.9,17.2s28.9,20.1,34.6,17.2c5.8-2.9,34.6-22.9,40.4-22.9c5.8,0,46.2-17.2,46.2-25.8v-25
				c0-0.5-0.1-0.9-0.2-1.4c-0.6-2.1-2.2-8.9,0.2-13.7c2.9-5.7,4.3-24.3-7.2-27.2c-11.5-2.9-20.2,0-23.1,5.7
				c-2.9,5.7-2.9,14.3-2.9,20.1c0,3.6,1.1,9.3,2,13.2c0.5,2.3,2.6,4,5,4h0.5c3.3,0,5.9,3.1,5,6.3c-0.2,0.7-0.5,1.5-0.9,2.3
				c-2.9,5.7-51.9,34.4-57.7,37.2c-3,1.5-5.2,3-6.7,4.1c-1.3,1-3.1,1.3-4.7,0.8l-42.3-13.1c-0.8-0.3-1.5-0.7-2.1-1.3
				C205.2,698.3,196.2,688.1,196.2,686.7"/>
		</defs>
		<clipPath id="SVGID_11_">
			<use xlink:href="#SVGID_10_"  style="overflow:visible;"/>
		</clipPath>
		<g class="st34">
			<defs>
				<rect id="SVGID_12_" x="24.2" y="-1268.1" width="1657.8" height="5699.9"/>
			</defs>
			<clipPath id="SVGID_13_">
				<use xlink:href="#SVGID_12_"  style="overflow:visible;"/>
			</clipPath>
			<rect x="185.4" y="615.3" class="st35" width="165.8" height="128.9"/>
		</g>
	</g>
	<g>
		<defs>
			<path id="SVGID_14_" d="M262.6,708.3c-0.1,0.9,0.6,2.2,0.9,3c0.9,2.6,1.7,5.1,2.5,7.7c0.5,1.6,5.9,14.6,5.1,15.3
				c4.4-3.9,9.5-7.1,14.9-9.4c1.3-0.5,2.8-1,4.1-0.4c1.6,0.8,1.9,2.9,2,4.7c1.5,23.9,2.1,47.9,1.8,71.9c0,1.7,0,3.4,0.7,4.9
				c0.6,1.2,1.6,2.1,2.6,3c10,8.6,22.8,14.1,36,14.7c13.2,0.6,26.7-4,36.4-13c0.9-0.8,1.8-1.8,2.3-2.9c0.6-1.2,0.7-2.5,0.8-3.8
				c1.5-20.2-5.6-40.3-5-60.6c0.5-18,7-35.9,3.8-53.6c-0.5-2.7-1.3-5.5-3.1-7.5c-1.4-1.5-3.4-2.5-5.3-3.3
				c-6.5-2.7-13.3-4.5-20.3-5.3c1,0.1-1.3,3.9-1.7,4.2c-1.4,1.1-3.8,1.5-5.5,1.8c-4.7,0.8-11.2,0.2-14.5-3.8c-0.7-0.9-1.3-2-2.3-2.6
				c-0.9-0.5-1.9-0.5-2.9-0.5c-11,0.1-21.4,5.5-30,12.3c-7.7,6.1-14.2,13.4-21.1,20.4c-0.6,0.6-2.2,1.7-2.5,2.5
				C262.6,708.2,262.6,708.2,262.6,708.3"/>
		</defs>
		<clipPath id="SVGID_15_">
			<use xlink:href="#SVGID_14_"  style="overflow:visible;"/>
		</clipPath>
		<g class="st36">
			<defs>
				<rect id="SVGID_16_" x="24.2" y="-1268.1" width="1657.8" height="5699.9"/>
			</defs>
			<clipPath id="SVGID_17_">
				<use xlink:href="#SVGID_16_"  style="overflow:visible;"/>
			</clipPath>
			<rect x="256.8" y="667.1" class="st37" width="122" height="162.3"/>
		</g>
	</g>
	<g>
		<defs>
			<rect id="SVGID_18_" x="310.7" y="608.4" width="45.8" height="58.1"/>
		</defs>
		<clipPath id="SVGID_19_">
			<use xlink:href="#SVGID_18_"  style="overflow:visible;"/>
		</clipPath>
		<g class="st38">
			<defs>
				<rect id="SVGID_20_" x="24.2" y="-1268.1" width="1657.8" height="5699.9"/>
			</defs>
			<clipPath id="SVGID_21_">
				<use xlink:href="#SVGID_20_"  style="overflow:visible;"/>
			</clipPath>
			<g class="st39">
				<g>
					<defs>
						<rect id="SVGID_22_" x="307.5" y="603.8" width="51.8" height="69.1"/>
					</defs>
					<clipPath id="SVGID_23_">
						<use xlink:href="#SVGID_22_"  style="overflow:visible;"/>
					</clipPath>
					<g class="st40">
						<defs>
							<path id="SVGID_24_" d="M314.3,652.7c0,0,6.3,0,6.3-6.4s-3.2-9.6-6.3-6.4c-3.2,3.2-3.2,0-3.2,0s6.3-9.6,3.2-12.8
								c-3.2-3.2-6.3-6.4,0-12.8c6.3-6.4,15.8-9.6,28.4,0c12.6,9.6,15.8,16,12.6,25.5c-3.2,9.6-12.6,22.3-12.6,22.3s-9.5,9.6-18.9,0
								L314.3,652.7z"/>
						</defs>
						<clipPath id="SVGID_25_">
							<use xlink:href="#SVGID_24_"  style="overflow:visible;"/>
						</clipPath>
						<g class="st41">
							<defs>
								<rect id="SVGID_26_" x="309.8" y="608.4" width="47.2" height="58.7"/>
							</defs>
							<clipPath id="SVGID_27_">
								<use xlink:href="#SVGID_26_"  style="overflow:visible;"/>
							</clipPath>
							<rect x="304.9" y="602.7" class="st42" width="57.4" height="69.7"/>
						</g>
					</g>
				</g>
			</g>
		</g>
	</g>
</g>
<g>
	<defs>
		<path id="SVGID_28_" d="M864.5,157c19.2,20.2,33,44,34.6,71.5c2.3,38.1-19.3,79.1-1.4,112.8c19.3,36.2,66.4,42.6,83.1,81.3
			c9.7,22.4,16.9,40.6,14.5,65.8c-2.2,23.9-10.7,47.1-22.4,68c-5.4,9.7-11.6,18.9-18.5,27.6c-36.9,46.6-87.3,82-119.2,132.1
			c-14.8,23.1-26.2,50-48.8,65.5c-24.5,16.9-57.3,16.5-86.2,9.4c-28.9-7.2-56-20.4-84.9-27.7c-56.3-14.1-118.3-4-167.2,27.3
			c-44.6,28.5-76.8,72.4-116.6,107.3c-39.8,34.9-94.3,61.7-144.7,45.4c-44.1-14.3-71.9-57.3-92.2-99C39,729.4,12.7,602,3,474.7
			c-8.7-114.8-1.8-238.5,66.1-331.5C121.1,72.1,203.9,27.6,290.2,10s175.9-10.1,262.1,7.7c90,18.6,178.2,48.7,256.8,96.2
			C828.8,125.9,848.5,140.2,864.5,157z"/>
	</defs>
	<clipPath id="SVGID_29_">
		<use xlink:href="#SVGID_28_"  style="overflow:visible;"/>
	</clipPath>
	<linearGradient id="SVGID_30_" gradientUnits="userSpaceOnUse" x1="9.094947e-13" y1="472.1063" x2="995.9066" y2="472.1063">
		<stop  offset="0" style="stop-color:#52E5E7"/>
		<stop  offset="0.689" style="stop-color:#0130CB"/>
	</linearGradient>
	<path class="st43" d="M864.5,155c19.2,20.2,33,44,34.6,71.5c2.3,38.1-19.3,79.1-1.4,112.8c19.3,36.2,66.4,42.6,83.1,81.3
		c9.7,22.4,16.9,40.6,14.5,65.8c-2.2,23.9-10.7,47.1-22.4,68c-5.4,9.7-11.6,18.9-18.5,27.6c-36.9,46.6-87.3,82-119.2,132.1
		c-14.8,23.1-26.2,50-48.8,65.5c-24.5,16.9-57.3,16.5-86.2,9.4c-28.9-7.2-56-20.4-84.9-27.7c-56.3-14.1-118.3-4-167.2,27.3
		c-44.6,28.5-76.8,72.4-116.6,107.3c-39.8,34.9-94.3,61.7-144.7,45.4c-44.1-14.3-71.9-57.3-92.2-99C39,727.4,12.7,600,3,472.7
		c-8.7-114.8-1.8-238.5,66.1-331.5C121.1,70.1,203.9,25.6,290.2,8s175.9-10.1,262.1,7.7c90,18.6,178.2,48.7,256.8,96.2
		C828.8,123.9,848.5,138.2,864.5,155z"/>
	<g class="st44">
		
			<rect x="299.2" y="183.5" transform="matrix(3.076390e-11 -1 1 3.076390e-11 -199.4016 834.5228)" class="st2" width="36.8" height="667"/>
		<g>
			<rect x="497.8" y="378.2" class="st2" width="11.8" height="157.1"/>
			<rect x="590.5" y="378.2" class="st2" width="11.8" height="157.1"/>
			<polygon class="st2" points="497.8,378.2 497.8,390 600.4,390 600.4,378.2 509.6,378.2 			"/>
		</g>
		<path class="st2" d="M552.2,421L552.2,421c-3.3,0-5.9-2.6-5.9-5.9V269.8c0-3.3,2.6-5.9,5.9-5.9h0c3.3,0,5.9,2.6,5.9,5.9v145.3
			C558.1,418.4,555.4,421,552.2,421z"/>
		<rect x="695.8" y="263.9" class="st2" width="11.8" height="83"/>
		
			<rect x="622.7" y="191.3" transform="matrix(6.123234e-17 -1 1 6.123234e-17 358.8091 898.4836)" class="st2" width="11.8" height="157.1"/>
		<rect x="681.1" y="331.8" class="st2" width="41.4" height="16.4"/>
		<g>
			<line class="st3" x1="547.7" y1="330.3" x2="509.4" y2="381.2"/>
			<line class="st3" x1="547.7" y1="345.7" x2="520.6" y2="381.2"/>
			<line class="st3" x1="547.9" y1="360.6" x2="533.3" y2="381.2"/>
		</g>
		<g>
			<line class="st3" x1="552.4" y1="328.9" x2="590.7" y2="379.8"/>
			<line class="st3" x1="552.4" y1="344.3" x2="579.4" y2="379.8"/>
			<line class="st3" x1="552.2" y1="359.2" x2="566.8" y2="379.8"/>
		</g>
		<g>
			<rect x="377.5" y="378.3" class="st2" width="11.8" height="157.1"/>
			<rect x="470.1" y="378.3" class="st2" width="11.8" height="157.1"/>
			<polygon class="st2" points="377.5,378.3 377.5,390.1 480.1,390.1 480.1,378.3 389.3,378.3 			"/>
		</g>
		<g>
			<g>
				<path class="st4" d="M553.7,438.3h442.1v129l-336.2-4.1C659.7,563.1,653.1,531,553.7,438.3z"/>
				<path class="st5" d="M553.7,438.4h442.1v4.4L557.6,442C557.6,442,555,439.6,553.7,438.4z"/>
				<polygon class="st6" points="995.8,553.4 655.5,553.4 653.7,550.4 995.8,550.4 				"/>
			</g>
			<rect x="887.4" y="405.5" class="st7" width="108.4" height="32.7"/>
			<rect x="779.1" y="405.5" class="st8" width="108.4" height="32.7"/>
			<rect x="670.7" y="405.5" class="st9" width="108.4" height="32.7"/>
			<rect x="829.1" y="307.3" class="st10" width="108.4" height="42.7"/>
			<rect x="670.7" y="372.9" class="st11" width="108.4" height="32.7"/>
			<rect x="779.1" y="372.8" class="st7" width="108.4" height="32.7"/>
			<rect x="887.4" y="372.8" class="st10" width="108.4" height="32.7"/>
			<rect x="779.1" y="340.5" class="st12" width="108.4" height="32.7"/>
			<rect x="887.4" y="340.5" class="st13" width="108.4" height="32.7"/>
			<rect x="233.4" y="465.5" class="st7" width="108.4" height="32.7"/>
			<rect x="125.1" y="465.5" class="st8" width="108.4" height="32.7"/>
			<rect x="16.7" y="465.5" class="st9" width="108.4" height="32.7"/>
			<rect x="179.1" y="371.3" class="st10" width="108.4" height="32.7"/>
			<rect x="16.7" y="432.9" class="st11" width="108.4" height="32.7"/>
			<rect x="125.1" y="432.8" class="st7" width="108.4" height="32.7"/>
			<rect x="233.4" y="432.8" class="st10" width="108.4" height="32.7"/>
			<rect x="125.1" y="402.5" class="st12" width="108.4" height="32.7"/>
			<rect x="233.4" y="402.5" class="st13" width="108.4" height="32.7"/>
		</g>
		<g>
			<g>
				<rect x="424.1" y="275.9" class="st2" width="11.8" height="157.1"/>
				<rect x="409.7" y="420.5" class="st2" width="41.4" height="16.4"/>
			</g>
			<g>
				<line class="st3" x1="427.3" y1="330.4" x2="389" y2="381.2"/>
				<line class="st3" x1="427.3" y1="345.7" x2="400.3" y2="381.2"/>
				<line class="st3" x1="427.6" y1="360.7" x2="412.9" y2="381.2"/>
			</g>
			<g>
				<line class="st3" x1="432.1" y1="329" x2="470.4" y2="379.8"/>
				<line class="st3" x1="432.1" y1="344.3" x2="459.1" y2="379.8"/>
				<line class="st3" x1="431.8" y1="359.3" x2="446.5" y2="379.8"/>
			</g>
		</g>
		<g>
			<polyline class="st14" points="427.7,435 415.6,443.9 421.6,458.4 			"/>
			<polyline class="st14" points="433,435 445.1,443.9 439,458.4 			"/>
		</g>
		<g>
			<polyline class="st14" points="699.1,347.5 687,356.5 693,371 			"/>
			<polyline class="st14" points="704.4,347.5 716.5,356.5 710.5,371 			"/>
		</g>
	</g>
	<path class="st45" d="M911.7,588.9"/>
	<g class="st44">
		<g>
			<path class="st16" d="M407.1,681.4H194c-13.3,0-24.1-10.8-24.1-24.1V550.7c0-13.3,10.8-24.1,24.1-24.1h213.1
				c13.3,0,24.1,10.8,24.1,24.1v106.7C431.2,670.6,420.4,681.4,407.1,681.4z"/>
		</g>
		<rect x="190.5" y="554.3" class="st17" width="90.9" height="9.6"/>
		<rect x="285" y="631.6" class="st18" width="90.9" height="9.6"/>
		<rect x="291.4" y="554.3" class="st18" width="29" height="9.6"/>
		<rect x="330.4" y="554.3" class="st17" width="47.9" height="9.6"/>
		<rect x="346.5" y="574.5" class="st17" width="17.9" height="9.6"/>
		<rect x="254.3" y="632" class="st17" width="17.9" height="9.6"/>
		<rect x="190.5" y="574.1" class="st18" width="17.9" height="9.6"/>
		<rect x="253.5" y="613.4" class="st17" width="46.9" height="9.6"/>
		<rect x="224.2" y="593.8" class="st17" width="47.9" height="9.6"/>
		<rect x="287.5" y="574.1" class="st17" width="47.9" height="9.6"/>
		<rect x="219.9" y="574.5" class="st18" width="56.5" height="9.6"/>
		<rect x="310.5" y="613.4" class="st18" width="56.5" height="9.6"/>
	</g>
	<polygon class="st46" points="36.2,839.5 -4.2,731.2 865.4,731.2 818.1,839.5 	"/>
	<polygon class="st47" points="40.2,667.2 809.3,667.2 865.4,731.2 -4.2,731.2 	"/>
	<g class="st44">
		<polygon class="st21" points="147.6,729 46.9,729 89.9,672.1 175.6,671.9 		"/>
		<polygon class="st22" points="154.1,698.1 80.9,698.2 85.4,691.9 157.3,691.8 		"/>
		<polygon class="st23" points="141.8,721.9 63.7,721.9 68.2,715.7 145,715.7 		"/>
		<g>
			<polygon class="st24" points="137.1,679.1 94.7,679.2 90.2,685.4 133.3,685.3 			"/>
			<polygon class="st23" points="150.6,679 147.1,685.3 160.7,685.2 163.9,679 			"/>
		</g>
		<g>
			<polygon class="st25" points="91.9,703.8 76.8,703.8 72.3,710 87.7,710 			"/>
			<polygon class="st24" points="105.1,703.8 101,710 148,710 151.2,703.7 			"/>
		</g>
	</g>
	<g class="st44">
		<polygon class="st21" points="258.7,729 158,729 184.5,671.9 270.2,671.6 		"/>
	</g>
	<g class="st44">
		<polygon class="st21" points="632.4,729.9 531.7,729.9 539.6,672.5 625.3,672.3 		"/>
	</g>
	<g class="st44">
		<polygon class="st21" points="826.7,729 634.9,729 625.2,671.3 788.3,670.9 		"/>
	</g>
	<g class="st44">
		<g>
			<path class="st25" d="M203,682.4c-0.7,1.7-3.4,3.1-6.1,3.1c-2.7,0-4.3-1.4-3.6-3.1c0.7-1.7,3.5-3.1,6.1-3.1
				S203.7,680.7,203,682.4z"/>
			<path class="st25" d="M220.1,682.4c-0.6,1.7-3.3,3.1-5.9,3.1c-2.7,0-4.4-1.4-3.7-3.1c0.6-1.7,3.3-3.1,5.9-3.1
				S220.7,680.7,220.1,682.4z"/>
			<path class="st23" d="M237.2,682.3c-0.5,1.7-3.1,3.1-5.8,3.1c-2.7,0-4.4-1.4-3.9-3.1c0.6-1.7,3.1-3.1,5.8-3.1
				S237.7,680.6,237.2,682.3z"/>
			<path class="st22" d="M254.3,682.3c-0.4,1.7-2.9,3.1-5.6,3.1c-2.7,0-4.5-1.4-4-3.1c0.5-1.7,3-3.1,5.6-3.1
				S254.7,680.6,254.3,682.3z"/>
		</g>
		<g>
			<path class="st25" d="M198.3,694.4c-0.7,1.7-3.5,3.1-6.3,3.1c-2.8,0-4.5-1.4-3.7-3.1s3.5-3.1,6.3-3.1
				C197.3,691.3,198.9,692.7,198.3,694.4z"/>
			<path class="st24" d="M216,694.4c-0.6,1.7-3.3,3.1-6.1,3.1c-2.8,0-4.5-1.4-3.9-3.1s3.4-3.1,6.1-3.1
				C214.8,691.3,216.6,692.7,216,694.4z"/>
			<path class="st25" d="M233.7,694.3c-0.5,1.7-3.2,3.1-6,3.1c-2.8,0-4.6-1.4-4.1-3.1c0.6-1.7,3.2-3.1,6-3.1
				C232.4,691.2,234.2,692.6,233.7,694.3z"/>
			<path class="st25" d="M251.4,694.3c-0.4,1.7-3,3.1-5.8,3.1c-2.8,0-4.7-1.4-4.2-3.1c0.5-1.7,3.1-3.1,5.8-3.1
				C250,691.2,251.9,692.6,251.4,694.3z"/>
		</g>
		<g>
			<path class="st25" d="M193.6,706.4c-0.7,1.7-3.6,3.1-6.5,3.1s-4.6-1.4-3.9-3.1s3.6-3.1,6.5-3.1
				C192.5,703.3,194.2,704.7,193.6,706.4z"/>
			<path class="st23" d="M211.9,706.4c-0.6,1.7-3.4,3.1-6.3,3.1c-2.9,0-4.7-1.4-4.1-3.1s3.5-3.1,6.3-3.1S212.5,704.6,211.9,706.4z"
				/>
			<path class="st25" d="M230.2,706.4c-0.5,1.7-3.2,3.1-6.1,3.1c-2.9,0-4.8-1.4-4.2-3.1c0.6-1.7,3.3-3.1,6.1-3.1
				C228.8,703.2,230.7,704.6,230.2,706.4z"/>
			<path class="st25" d="M248.6,706.3c-0.4,1.7-3.1,3.1-6,3.1c-2.9,0-4.8-1.4-4.4-3.1c0.5-1.7,3.1-3.1,6-3.1S249,704.6,248.6,706.3z
				"/>
		</g>
		<g>
			<path class="st25" d="M188.8,718.4c-0.7,1.7-3.6,3.1-6.6,3.1c-3,0-4.8-1.4-4.1-3.1c0.7-1.7,3.7-3.1,6.6-3.1
				C187.7,715.3,189.5,716.7,188.8,718.4z"/>
			<path class="st25" d="M207.8,718.4c-0.6,1.7-3.5,3.1-6.5,3.1c-3,0-4.9-1.4-4.2-3.1s3.5-3.1,6.5-3.1
				C206.5,715.2,208.4,716.6,207.8,718.4z"/>
			<path class="st25" d="M226.7,718.4c-0.5,1.7-3.3,3.1-6.3,3.1c-3,0-4.9-1.4-4.4-3.1c0.6-1.7,3.4-3.1,6.3-3.1
				C225.3,715.2,227.2,716.6,226.7,718.4z"/>
			<path class="st25" d="M245.7,718.4c-0.4,1.7-3.2,3.1-6.1,3.1c-3,0-5-1.4-4.6-3.1c0.5-1.7,3.2-3.1,6.1-3.1
				C244.1,715.2,246.1,716.6,245.7,718.4z"/>
		</g>
	</g>
	<path class="st48" d="M583.4,700.6l-8.1,20.2c-15.8-2.2-26.3-10.5-25.4-20.1c1.1-11.3,16.3-20.7,33.6-20.7
		c17.3,0,32.4,9.3,33.4,20.6L583.4,700.6z"/>
	<path class="st49" d="M655.8,717.6c1.4-5.8,3.1-12.8,9.1-17.3c6.3-4.8,15.4-0.3,20.9,4.3c4,3.4,5.6,6.9,8.7,10.5
		c0.7,0.8,1.6,1.6,2.8,2.2c6.1,2.7,10.9-0.9,12.2-3.4c1.5-2.8,1.4-5.9,1.5-8.9c0-4-4.4-17.4,5-16.9c6.1,0.3,14,9.8,16.2,12.4
		c3.3,3.7,11.3,16.3,18.4,16.3c3.8,0,5-1.6,4.7-3.6c-1-7.8-6.9-15.8-7.1-23.5c-0.2-4.3,4.4-8.2,12.8-4.4
		c17.6,7.8,34.7,32.4,34.7,32.4"/>
	<g class="st44">
		<polygon class="st21" points="548.8,730.5 430.6,667.2 312.5,730.5 430.6,793.9 		"/>
		<polygon class="st28" points="342,730.5 430.6,683 519.3,730.5 430.6,778 		"/>
		<polygon class="st21" points="548.8,730.5 548.8,841.4 430.6,904.7 430.6,793.9 		"/>
		<polygon class="st4" points="312.5,730.5 312.5,841.4 430.6,904.7 430.6,793.9 		"/>
	</g>
	<defs>
		<filter id="Adobe_OpacityMaskFilter_1_" filterUnits="userSpaceOnUse" x="240.3" y="462.8" width="379.7" height="316.1">
			<feColorMatrix  type="matrix" values="1 0 0 0 0  0 1 0 0 0  0 0 1 0 0  0 0 0 1 0"/>
		</filter>
	</defs>
	<mask maskUnits="userSpaceOnUse" x="240.3" y="462.8" width="379.7" height="316.1" id="SVGID_31_">
		<g class="st50">
			<linearGradient id="SVGID_32_" gradientUnits="userSpaceOnUse" x1="431.7253" y1="463.0149" x2="431.7253" y2="778.0279">
				<stop  offset="0.2595" style="stop-color:#000000"/>
				<stop  offset="1" style="stop-color:#FFFFFF;stop-opacity:0.2"/>
			</linearGradient>
			<rect x="203.1" y="463" class="st51" width="457.2" height="315"/>
		</g>
	</mask>
	<polygon class="st52" points="342.7,731.4 431.4,778.9 520,731.4 620,462.8 240.3,462.8 	"/>
	<g class="st44">
		<g>
			<polygon class="st22" points="429.6,664.3 422.5,652 436.7,652 443.8,664.3 443.8,664.3 443.8,664.3 			"/>
			<polygon class="st22" points="429.6,664.3 422.5,676.6 415.4,664.3 422.5,652 429.6,664.3 			"/>
			<polygon class="st25" points="422.5,676.6 429.6,664.3 443.8,664.3 443.8,664.3 436.7,676.6 			"/>
		</g>
		<g>
			<polygon class="st22" points="450.9,676.5 458,664.2 465.1,676.5 458,688.8 458,688.8 458,688.8 			"/>
			<polygon class="st22" points="450.9,676.5 436.7,676.5 443.8,664.2 458,664.2 450.9,676.5 			"/>
			<polygon class="st25" points="436.7,676.5 450.9,676.5 458,688.8 458,688.8 443.8,688.8 			"/>
		</g>
		<g>
			<polygon class="st22" points="451,701.2 465.2,701.2 458.1,713.5 443.9,713.5 443.9,713.5 443.9,713.5 			"/>
			<polygon class="st22" points="451,701.2 443.9,688.9 458.1,688.9 465.2,701.2 451,701.2 			"/>
			<polygon class="st25" points="443.9,688.9 451,701.2 443.9,713.5 443.9,713.5 436.8,701.2 			"/>
		</g>
		<g>
			<polygon class="st22" points="429.7,713.6 436.8,725.9 422.6,725.9 415.5,713.6 415.5,713.6 415.5,713.6 			"/>
			<polygon class="st22" points="429.7,713.6 436.8,701.3 443.9,713.6 436.8,725.9 429.7,713.6 			"/>
			<polygon class="st25" points="436.8,701.3 429.7,713.6 415.5,713.6 415.5,713.6 422.6,701.3 			"/>
		</g>
		<g>
			<polygon class="st22" points="408.3,701.3 401.2,713.6 394.1,701.3 401.2,689 401.2,689 401.2,689 			"/>
			<polygon class="st22" points="408.3,701.3 422.5,701.3 415.4,713.6 401.2,713.6 408.3,701.3 			"/>
			<polygon class="st25" points="422.5,701.3 408.3,701.3 401.2,689 401.2,689 415.4,689 			"/>
		</g>
		<g>
			<polygon class="st22" points="408.3,676.7 394.1,676.7 401.2,664.4 415.4,664.4 415.4,664.4 415.4,664.4 			"/>
			<polygon class="st22" points="408.3,676.7 415.4,689 401.2,689 394.1,676.7 408.3,676.7 			"/>
			<polygon class="st25" points="415.4,689 408.3,676.7 415.4,664.4 415.4,664.4 422.5,676.7 			"/>
		</g>
		<polygon class="st24" points="436.9,676.6 422.5,676.6 415.3,689.1 422.5,701.5 436.9,701.5 444.1,689.1 		"/>
	</g>
</g>
<g>
	<g>
		<defs>
			<path id="SVGID_33_" d="M310.8,990.1c0,0-11.4,2.9-14.3,5.8c-2.9,2.9,31.4,2.9,31.4,2.9s-2.9-74.8-5.7-86.3
				c-2.9-11.5,8.6-66.2,11.4-69.1c2.9-2.9,2.9,5.8,2.9,5.8s0,51.8,5.7,72c5.7,20.1,11.4,48.9,11.4,51.8v14.4c0,0-11.4,2.9-11.4,5.8
				c0,2.9,28.6,2.9,28.6,2.9s-5.7-106.5-5.7-109.4c0-2.9,0-28.8,2.9-40.3c2.9-11.5,2.9-37.4,2.9-37.4V803h-77.1c0,0,0,66.2,2.9,86.3
				c2.9,20.2,8.6,60.4,8.6,60.4L310.8,990.1z"/>
		</defs>
		<clipPath id="SVGID_34_">
			<use xlink:href="#SVGID_33_"  style="overflow:visible;"/>
		</clipPath>
		<g class="st53">
			<defs>
				<rect id="SVGID_35_" x="24.2" y="-1268.1" width="1657.8" height="5699.9"/>
			</defs>
			<clipPath id="SVGID_36_">
				<use xlink:href="#SVGID_35_"  style="overflow:visible;"/>
			</clipPath>
			<rect x="287.9" y="797.2" class="st54" width="88.6" height="207.2"/>
		</g>
	</g>
	<g>
		<defs>
			<path id="SVGID_37_" d="M196.2,686.7c0-1.4-2.5-3.3-2.9,0c-0.3,2.8,2.9,2.9,0,5.7c-2.9,2.9-2.9,11.5,0,11.5
				c2.9,0,28.9,17.2,28.9,17.2s28.9,20.1,34.6,17.2c5.8-2.9,34.6-22.9,40.4-22.9c5.8,0,46.2-17.2,46.2-25.8v-25
				c0-0.5-0.1-0.9-0.2-1.4c-0.6-2.1-2.2-8.9,0.2-13.7c2.9-5.7,4.3-24.3-7.2-27.2c-11.5-2.9-20.2,0-23.1,5.7
				c-2.9,5.7-2.9,14.3-2.9,20.1c0,3.6,1.1,9.3,2,13.2c0.5,2.3,2.6,4,5,4h0.5c3.3,0,5.9,3.1,5,6.3c-0.2,0.7-0.5,1.5-0.9,2.3
				c-2.9,5.7-51.9,34.4-57.7,37.2c-3,1.5-5.2,3-6.7,4.1c-1.3,1-3.1,1.3-4.7,0.8l-42.3-13.1c-0.8-0.3-1.5-0.7-2.1-1.3
				C205.2,698.3,196.2,688.1,196.2,686.7"/>
		</defs>
		<clipPath id="SVGID_38_">
			<use xlink:href="#SVGID_37_"  style="overflow:visible;"/>
		</clipPath>
		<g class="st55">
			<defs>
				<rect id="SVGID_39_" x="24.2" y="-1268.1" width="1657.8" height="5699.9"/>
			</defs>
			<clipPath id="SVGID_40_">
				<use xlink:href="#SVGID_39_"  style="overflow:visible;"/>
			</clipPath>
			<rect x="185.4" y="615.3" class="st56" width="165.8" height="128.9"/>
		</g>
	</g>
	<g>
		<defs>
			<path id="SVGID_41_" d="M262.6,708.3c-0.1,0.9,0.6,2.2,0.9,3c0.9,2.6,1.7,5.1,2.5,7.7c0.5,1.6,5.9,14.6,5.1,15.3
				c4.4-3.9,9.5-7.1,14.9-9.4c1.3-0.5,2.8-1,4.1-0.4c1.6,0.8,1.9,2.9,2,4.7c1.5,23.9,2.1,47.9,1.8,71.9c0,1.7,0,3.4,0.7,4.9
				c0.6,1.2,1.6,2.1,2.6,3c10,8.6,22.8,14.1,36,14.7c13.2,0.6,26.7-4,36.4-13c0.9-0.8,1.8-1.8,2.3-2.9c0.6-1.2,0.7-2.5,0.8-3.8
				c1.5-20.2-5.6-40.3-5-60.6c0.5-18,7-35.9,3.8-53.6c-0.5-2.7-1.3-5.5-3.1-7.5c-1.4-1.5-3.4-2.5-5.3-3.3
				c-6.5-2.7-13.3-4.5-20.3-5.3c1,0.1-1.3,3.9-1.7,4.2c-1.4,1.1-3.8,1.5-5.5,1.8c-4.7,0.8-11.2,0.2-14.5-3.8c-0.7-0.9-1.3-2-2.3-2.6
				c-0.9-0.5-1.9-0.5-2.9-0.5c-11,0.1-21.4,5.5-30,12.3c-7.7,6.1-14.2,13.4-21.1,20.4c-0.6,0.6-2.2,1.7-2.5,2.5
				C262.6,708.2,262.6,708.2,262.6,708.3"/>
		</defs>
		<clipPath id="SVGID_42_">
			<use xlink:href="#SVGID_41_"  style="overflow:visible;"/>
		</clipPath>
		<g class="st57">
			<defs>
				<rect id="SVGID_43_" x="24.2" y="-1268.1" width="1657.8" height="5699.9"/>
			</defs>
			<clipPath id="SVGID_44_">
				<use xlink:href="#SVGID_43_"  style="overflow:visible;"/>
			</clipPath>
			<rect x="256.8" y="667.1" class="st58" width="122" height="162.3"/>
		</g>
	</g>
	<g>
		<defs>
			<rect id="SVGID_45_" x="310.7" y="608.4" width="45.8" height="58.1"/>
		</defs>
		<clipPath id="SVGID_46_">
			<use xlink:href="#SVGID_45_"  style="overflow:visible;"/>
		</clipPath>
		<g class="st59">
			<defs>
				<rect id="SVGID_47_" x="24.2" y="-1268.1" width="1657.8" height="5699.9"/>
			</defs>
			<clipPath id="SVGID_48_">
				<use xlink:href="#SVGID_47_"  style="overflow:visible;"/>
			</clipPath>
			<g class="st60">
				<g>
					<defs>
						<rect id="SVGID_49_" x="307.5" y="603.8" width="51.8" height="69.1"/>
					</defs>
					<clipPath id="SVGID_50_">
						<use xlink:href="#SVGID_49_"  style="overflow:visible;"/>
					</clipPath>
					<g class="st61">
						<defs>
							<path id="SVGID_51_" d="M314.3,652.7c0,0,6.3,0,6.3-6.4s-3.2-9.6-6.3-6.4c-3.2,3.2-3.2,0-3.2,0s6.3-9.6,3.2-12.8
								c-3.2-3.2-6.3-6.4,0-12.8c6.3-6.4,15.8-9.6,28.4,0c12.6,9.6,15.8,16,12.6,25.5c-3.2,9.6-12.6,22.3-12.6,22.3s-9.5,9.6-18.9,0
								L314.3,652.7z"/>
						</defs>
						<clipPath id="SVGID_52_">
							<use xlink:href="#SVGID_51_"  style="overflow:visible;"/>
						</clipPath>
						<g class="st62">
							<defs>
								<rect id="SVGID_53_" x="309.8" y="608.4" width="47.2" height="58.7"/>
							</defs>
							<clipPath id="SVGID_54_">
								<use xlink:href="#SVGID_53_"  style="overflow:visible;"/>
							</clipPath>
							<rect x="304.9" y="602.7" class="st63" width="57.4" height="69.7"/>
						</g>
					</g>
				</g>
			</g>
		</g>
	</g>
</g>
</svg>
