<?xml version="1.0" encoding="utf-8"?>
<!-- Generator: Adobe Illustrator 21.0.2, SVG Export Plug-In . SVG Version: 6.00 Build 0)  -->
<svg version="1.1" id="Layer_1" xmlns="http://www.w3.org/2000/svg" xmlns:xlink="http://www.w3.org/1999/xlink" x="0px" y="0px"
	 viewBox="0 0 1075.7 798.1" style="enable-background:new 0 0 1075.7 798.1;" xml:space="preserve">
<style type="text/css">
	.st0{fill:#010F27;}
	.st1{fill:#F2F2F2;}
	.st2{fill:url(#SVGID_1_);}
	.st3{fill:#FFFFFF;stroke:#002E61;stroke-width:8.8248;stroke-miterlimit:10;}
	.st4{fill:#20D5D2;}
	.st5{opacity:0.75;fill:#0F6FFF;enable-background:new    ;}
	.st6{fill:#1B0D44;}
	.st7{fill:#29ABE2;}
	.st8{fill:#4D4D4D;}
	.st9{fill:#F54C43;}
	.st10{fill:#FFAA64;}
	.st11{opacity:0.27;}
	.st12{fill:none;stroke:#F54C43;stroke-width:0.7841;stroke-linecap:round;stroke-miterlimit:10;}
	.st13{fill:none;stroke:#010F27;stroke-width:2.8287;stroke-miterlimit:10;}
	.st14{clip-path:url(#SVGID_3_);}
	.st15{fill:#00132E;}
	.st16{opacity:0.29;}
	.st17{fill:none;stroke:#FFFFFF;stroke-miterlimit:10;}
	.st18{opacity:0.66;}
	.st19{fill:#FFFFFF;}
	.st20{opacity:0.45;fill:#00132E;}
	.st21{opacity:0.74;fill:#FFFFFF;}
	.st22{fill:#0D1D3A;}
	.st23{clip-path:url(#SVGID_5_);}
	.st24{clip-path:url(#SVGID_7_);fill:#FF6464;}
	.st25{clip-path:url(#SVGID_9_);}
	.st26{clip-path:url(#SVGID_11_);fill:#FFA3A3;}
	.st27{clip-path:url(#SVGID_13_);}
	.st28{clip-path:url(#SVGID_15_);fill:#00132E;}
	.st29{clip-path:url(#SVGID_17_);}
	.st30{clip-path:url(#SVGID_19_);enable-background:new    ;}
	.st31{clip-path:url(#SVGID_21_);}
	.st32{clip-path:url(#SVGID_23_);}
	.st33{clip-path:url(#SVGID_25_);fill:#2900AA;}
	.st34{fill:#8C6239;}
	.st35{fill:#754C24;}
</style>
<g>
	<g>
		<path class="st0" d="M902.2,579.5c-14-0.9-11.5,19.8-16.2,25.3c-4.7,5.5-10.6-16.7-16-9.6c-5.5,7.1,3.4,28.9,2.1,30.2
			c-3.9,3.9-16-9.6-18.1-0.9c-2.1,8.7,22.5,26.3,13.5,27.8c-9,1.5-11.2-11.2-15.9-5.6c-4.7,5.5-0.5,27,12.2,35
			c12.7,8,36.6,9.7,44.5,1.8c7.9-7.9,17.3-18.9,9.1-19c-8.2,0-17.4-2.5-13.4-6.4c3.5-3.5,28.9-17.3,18.1-20.5
			c-10.8-3.2-14.6,4.7-16.5-0.1c-1.8-4.8,20.7-17.3,18.8-22.1c-1.8-4.8-7.5-1.6-17.4-2.5S916.3,580.4,902.2,579.5z"/>
		<g>
			<path class="st1" d="M879.6,682.1c1.5-11.3,3.3-22.5,5.4-33.7c1.6-8.8,3.4-17.5,5.6-26.1c0.9-3.5,1.9-7.1,3.1-10.5
				c1.6-4.4,3.6-8.6,5.1-13c1.1-3.1,2.3-6.6,2.2-10c0-0.6,0-1.8-0.5-2.2c-0.2-0.1-1.2,0.9-1.3,0.7c1.8,1.5-0.2,7.2-0.6,8.8
				c-2.3,8.3-6.3,16-8.6,24.3c-4.5,16.2-7.3,33-9.8,49.6c-0.7,4.3-1.3,8.5-1.9,12.8C878.4,682.5,879.6,682.4,879.6,682.1
				L879.6,682.1z"/>
		</g>
	</g>
	<linearGradient id="SVGID_1_" gradientUnits="userSpaceOnUse" x1="0" y1="380.2462" x2="1073.3218" y2="380.2462">
		<stop  offset="0" style="stop-color:#FFE38D"/>
		<stop  offset="0.689" style="stop-color:#FF6464"/>
	</linearGradient>
	<path class="st2" d="M118.5,155.7C365.8-142.1,894.3,70,989,118.7c27.8,14.3,71.1,37.4,82,80c14.8,57.8-44.9,93.2-66,214
		c-8.5,48.4-0.5,52.4-10,86c-22.5,80-86.9,125.4-130,156c-62.1,44.1-148.5,105.4-214,76c-52.9-23.7-48.2-86.7-112-108
		c-35-11.7-66.8-2.9-92,4c-87.7,24.2-101.5,82.2-172,114c-60.6,27.4-142,25.9-188-2C-32.3,666.3-35.5,341.2,118.5,155.7z"/>
	<g>
		<g>
			<path class="st3" d="M570.8,544.6H358.9c-13.3,0-24-10.8-24-24V413.7c0-13.3,10.8-24,24-24h211.9c13.3,0,24,10.8,24,24v106.8
				C594.8,533.8,584.1,544.6,570.8,544.6z"/>
		</g>
		<rect x="355.4" y="417.5" class="st4" width="90.4" height="9.6"/>
		<rect x="449.4" y="494.7" class="st5" width="90.4" height="9.6"/>
		<rect x="455.8" y="417.5" class="st5" width="28.8" height="9.6"/>
		<rect x="494.6" y="417.5" class="st4" width="47.7" height="9.6"/>
		<rect x="510.6" y="437.6" class="st4" width="17.8" height="9.6"/>
		<rect x="418.9" y="495.1" class="st4" width="17.8" height="9.6"/>
		<rect x="355.4" y="437.3" class="st5" width="17.8" height="9.6"/>
		<rect x="418.1" y="476.6" class="st4" width="46.6" height="9.6"/>
		<rect x="388.9" y="457" class="st4" width="47.7" height="9.6"/>
		<rect x="451.9" y="437.3" class="st4" width="47.7" height="9.6"/>
		<rect x="384.6" y="437.6" class="st5" width="56.2" height="9.6"/>
		<rect x="474.8" y="476.6" class="st5" width="56.2" height="9.6"/>
	</g>
	<g>
		<g>
			<polygon class="st6" points="784.3,703.2 840.6,703.2 840.6,514.4 840.6,469.3 784.3,437.9 			"/>
			
				<rect x="671.7" y="437.9" transform="matrix(-1 -4.485846e-11 4.485846e-11 -1 1456.0582 1141.1073)" class="st7" width="112.6" height="265.2"/>
		</g>
		<g>
			
				<rect x="680.3" y="462.9" transform="matrix(-1 -4.529411e-11 4.529411e-11 -1 1368.7783 934.0595)" class="st8" width="8.2" height="8.2"/>
			<circle class="st9" cx="766.3" cy="466.5" r="2.9"/>
			<circle class="st9" cx="756.2" cy="466.5" r="2.9"/>
			<circle class="st9" cx="746.1" cy="466.5" r="2.9"/>
			<circle class="st10" cx="736" cy="466.5" r="2.9"/>
		</g>
		<g>
			
				<rect x="680.3" y="479.1" transform="matrix(-1 -4.485002e-11 4.485002e-11 -1 1368.7783 966.3945)" class="st8" width="8.2" height="8.2"/>
			<circle class="st9" cx="766.3" cy="482.7" r="2.9"/>
			<circle class="st9" cx="756.2" cy="482.7" r="2.9"/>
			<circle class="st9" cx="746.1" cy="482.7" r="2.9"/>
			<circle class="st10" cx="736" cy="482.7" r="2.9"/>
		</g>
		<g class="st11">
			<line class="st12" x1="792.3" y1="455.4" x2="832.7" y2="478.7"/>
			<line class="st12" x1="792.3" y1="459.4" x2="832.7" y2="482.7"/>
			<line class="st12" x1="792.3" y1="463.4" x2="832.7" y2="486.7"/>
			<line class="st12" x1="792.3" y1="467.4" x2="832.7" y2="490.7"/>
			<line class="st12" x1="792.3" y1="471.5" x2="832.7" y2="494.8"/>
			<line class="st12" x1="792.3" y1="475.5" x2="832.7" y2="498.8"/>
			<line class="st12" x1="792.3" y1="479.5" x2="832.7" y2="502.8"/>
			<line class="st12" x1="792.3" y1="483.5" x2="832.7" y2="506.8"/>
			<line class="st12" x1="792.3" y1="487.5" x2="832.7" y2="510.8"/>
			<line class="st12" x1="792.3" y1="491.6" x2="832.7" y2="514.9"/>
			<line class="st12" x1="792.3" y1="495.6" x2="832.7" y2="518.9"/>
			<line class="st12" x1="792.3" y1="499.6" x2="832.7" y2="522.9"/>
			<line class="st12" x1="792.3" y1="503.6" x2="832.7" y2="526.9"/>
			<line class="st12" x1="792.3" y1="507.6" x2="832.7" y2="530.9"/>
			<line class="st12" x1="792.3" y1="511.6" x2="832.7" y2="535"/>
			<line class="st12" x1="792.3" y1="515.7" x2="832.7" y2="539"/>
			<line class="st12" x1="792.3" y1="519.7" x2="832.7" y2="543"/>
			<line class="st12" x1="792.3" y1="523.7" x2="832.7" y2="547"/>
			<line class="st12" x1="792.3" y1="527.7" x2="832.7" y2="551"/>
			<line class="st12" x1="792.3" y1="531.7" x2="832.7" y2="555"/>
			<line class="st12" x1="792.3" y1="535.8" x2="832.7" y2="559.1"/>
			<line class="st12" x1="792.3" y1="539.8" x2="832.7" y2="563.1"/>
			<line class="st12" x1="792.3" y1="543.8" x2="832.7" y2="567.1"/>
			<line class="st12" x1="792.3" y1="547.8" x2="832.7" y2="571.1"/>
			<line class="st12" x1="792.3" y1="551.8" x2="832.7" y2="575.1"/>
			<line class="st12" x1="792.3" y1="555.9" x2="832.7" y2="579.2"/>
			<line class="st12" x1="792.3" y1="559.9" x2="832.7" y2="583.2"/>
			<line class="st12" x1="792.3" y1="563.9" x2="832.7" y2="587.2"/>
			<line class="st12" x1="792.3" y1="567.9" x2="832.7" y2="591.2"/>
			<line class="st12" x1="792.3" y1="571.9" x2="832.7" y2="595.2"/>
			<line class="st12" x1="792.3" y1="576" x2="832.7" y2="599.3"/>
			<line class="st12" x1="792.3" y1="580" x2="832.7" y2="603.3"/>
			<line class="st12" x1="792.3" y1="584" x2="832.7" y2="607.3"/>
			<line class="st12" x1="792.3" y1="588" x2="832.7" y2="611.3"/>
			<line class="st12" x1="792.3" y1="592" x2="832.7" y2="615.3"/>
			<line class="st12" x1="792.3" y1="596.1" x2="832.7" y2="619.4"/>
			<line class="st12" x1="792.3" y1="600.1" x2="832.7" y2="623.4"/>
			<line class="st12" x1="792.3" y1="604.1" x2="832.7" y2="627.4"/>
			<line class="st12" x1="792.3" y1="608.1" x2="832.7" y2="631.4"/>
			<line class="st12" x1="792.3" y1="612.1" x2="832.7" y2="635.4"/>
			<line class="st12" x1="792.3" y1="616.1" x2="832.7" y2="639.5"/>
			<line class="st12" x1="792.3" y1="620.2" x2="832.7" y2="643.5"/>
			<line class="st12" x1="792.3" y1="624.2" x2="832.7" y2="647.5"/>
			<line class="st12" x1="792.3" y1="628.2" x2="832.7" y2="651.5"/>
			<line class="st12" x1="792.3" y1="632.2" x2="832.7" y2="655.5"/>
			<line class="st12" x1="792.3" y1="636.2" x2="832.7" y2="659.5"/>
			<line class="st12" x1="792.3" y1="640.3" x2="832.7" y2="663.6"/>
			<line class="st12" x1="792.3" y1="644.3" x2="832.7" y2="667.6"/>
			<line class="st12" x1="792.3" y1="648.3" x2="832.7" y2="671.6"/>
			<line class="st12" x1="792.3" y1="652.3" x2="832.7" y2="675.6"/>
			<line class="st12" x1="792.3" y1="656.3" x2="832.7" y2="679.6"/>
			<line class="st12" x1="792.3" y1="660.4" x2="832.7" y2="683.7"/>
			<line class="st12" x1="792.3" y1="664.4" x2="832.7" y2="687.7"/>
			<line class="st12" x1="792.3" y1="668.4" x2="832.7" y2="691.7"/>
			<line class="st12" x1="792.3" y1="672.4" x2="832.7" y2="695.7"/>
			<line class="st12" x1="792.3" y1="676.4" x2="832.7" y2="699.7"/>
		</g>
	</g>
	<g>
		<path class="st0" d="M298.9,636.2c0.5,0.2,1-0.1,1.1-0.6c0.9-5.7,4.9-34.5-2.5-33.5c-8.2,1.1-15,17.5-8.8,25.2
			C293.3,633,297.2,635.4,298.9,636.2z"/>
		<path class="st0" d="M277.4,674.9c-0.1-0.5,0.3-1,0.8-1c5.8,0.4,34.7,2.6,32.2,9.6c-2.9,7.7-20.3,10.9-26.5,3.2
			C279.3,681,277.8,676.8,277.4,674.9z"/>
		<path class="st0" d="M305.6,639.2c0,0,27.4-2.1,21.4,6.3s-24.3,10.4-29.4,1.8C292.5,638.8,296.5,639.3,305.6,639.2z"/>
		<path class="st0" d="M280.2,691.2c0,0,23.8,9.8,16,15c-7.8,5.2-23.9-0.8-25.4-10.9C269.3,685.2,272.5,687.3,280.2,691.2z"/>
		<path class="st0" d="M253.8,730.5c0,0,23.8,9.8,16,15c-7.8,5.2-23.9-0.8-25.4-10.9C242.9,724.6,246.1,726.7,253.8,730.5z"/>
		<path class="st0" d="M276.9,656c0,0-7.4-26.5-13.3-18c-5.9,8.4-1.6,26.4,8.3,28.2S280,664.5,276.9,656z"/>
		<path class="st0" d="M244.7,701.7c0,0,15,19.3,5.6,17.1c-9.5-2.2-20.1-14.9-15.9-20.8C238.7,692.1,240.3,695.1,244.7,701.7z"/>
		<path class="st0" d="M322.7,621.3c3.8-2.2,7.4-4.9,9.8-8.7c1-1.6,1.9-3.1,2.6-4.9c0.6-1.8,1-3.6,1.1-5.4c0.1-1.8,0-3.7-0.4-5.4
			c-0.2-1-0.6-2-1.4-2.5c-0.9-0.6-2.2-0.4-3.3,0c-2,0.7-3.7,1.9-5.4,3.2c-4.6,3.6-8.6,7.9-12.3,12.4c-3.3,4-6.5,8.3-8.4,13.2
			c-0.6,1.5-1,3.3,0.2,4.4c0.6,0.6,1.6,0.8,2.5,0.6c0.9-0.2,1.7-0.6,2.5-1c4-2,8.3-3.7,12.2-5.9
			C322.5,621.4,322.6,621.3,322.7,621.3z"/>
		<path class="st0" d="M289.2,648.5c0,0-7.5-41.5-13.7-30.4c-3.2,5.6-2.5,12.5-0.5,18.4c1.1,3.3,2.9,6.3,5.2,8.9
			c1.1,1.3,2.4,2.5,3.7,3.6c1,0.8,3,3,4.4,2.8C289.7,651.6,289.3,649.5,289.2,648.5z"/>
		<path class="st0" d="M237.9,734.4c0,0-13.7-33-16.9-22.7c-1.6,5.2,0.2,10.8,2.9,15.3c1.5,2.5,3.6,4.7,6,6.4
			c1.2,0.9,2.4,1.6,3.7,2.3c1,0.5,3.1,2,4.2,1.5C238.9,736.8,238.2,735.2,237.9,734.4z"/>
		<path class="st0" d="M262.7,703.7c0,0-11-30.3-14.3-21.1c-1.6,4.6-0.3,9.8,2,13.9c1.3,2.3,3,4.4,5.1,6c1,0.8,2.1,1.6,3.3,2.2
			c0.8,0.5,2.7,1.9,3.7,1.5C263.5,706,262.9,704.5,262.7,703.7z"/>
		<path class="st0" d="M272.6,682.5c0,0-17.6-38.3-20.9-26c-1.7,6.2,0.7,12.8,4.1,18c1.9,2.9,4.4,5.4,7.3,7.3c1.4,1,2.9,1.8,4.5,2.6
			c1.2,0.6,3.7,2.2,5,1.6C273.9,685.4,273,683.5,272.6,682.5z"/>
		<path class="st0" d="M288.5,653.4c0,0,40.9,10.5,29.3,15.9c-5.8,2.7-12.7,1.6-18.4-0.8c-3.2-1.4-6.1-3.4-8.5-5.9
			c-1.2-1.2-2.3-2.6-3.3-4c-0.8-1-2.8-3.2-2.5-4.6C285.4,652.6,287.5,653.2,288.5,653.4z"/>
		<path class="st0" d="M262.7,709c0,0,31.8,14.4,21.6,17.2c-5.1,1.4-10.6-0.5-14.9-3.3c-2.4-1.6-4.5-3.6-6.1-6
			c-0.8-1.2-1.5-2.4-2.1-3.7c-0.5-1-1.8-3-1.3-4.1C260.4,708,261.9,708.7,262.7,709z"/>
		<path class="st13" d="M309.3,623.5c0,0-26.4,30.3-31,44.9c-5.2,16.4-11.9,32.5-23.1,45.8c-13.9,16.6-30.8,33.9-28.1,46.2"/>
	</g>
	<g>
		<path class="st0" d="M816.8,693.7c0.9,2.4-2,5.9-4.1,8.5c-8.9,11.2-18.6,21.9-30.2,30.2c-11.6,8.3-25.2,14.3-39.5,15
			c-22.4,1.2-43.5-10-65.7-12.7c3.8-8.9,8.4-17.4,13.6-25.5c5.3-8.2,11.4-16.2,19.8-21.1c12.9-7.6,28.8-7,43.8-5.9
			c19.9,1.5,39.8,3.6,59,9.1C815.4,691.9,816.4,692.7,816.8,693.7z"/>
		<path class="st1" d="M680,733.8l15.7-5.7l15.7-5.5c10.5-3.6,21.1-7.1,31.7-10.5c10.6-3.3,21.2-6.6,32-9.3
			c5.4-1.4,10.9-2.3,16.4-3.2l16.5-2.6l-16.4,3c-5.5,0.9-10.9,1.9-16.3,3.4c-10.7,2.8-21.4,6.1-32,9.5c-10.6,3.3-21.2,6.8-31.7,10.3
			L680,733.8z"/>
		<path class="st1" d="M766.3,690.4c-0.8,1-1.7,2-2.6,3l-2.6,2.9c-0.9,1-1.7,1.9-2.6,2.9c-0.8,1-1.6,2-2.4,3.1
			c0.5-1.2,1.2-2.4,1.9-3.4c0.7-1.1,1.6-2.1,2.4-3.1c0.9-1,1.8-1.9,2.7-2.8C764.3,692.1,765.3,691.2,766.3,690.4z"/>
		<path class="st1" d="M785.5,719.2c-2,0-4.1-0.2-6.1-0.5c-2-0.2-4-0.6-6-1c-2-0.4-4-0.9-5.9-1.5c-1.9-0.6-3.9-1.4-5.6-2.5
			c0.5,0.2,0.9,0.4,1.4,0.6l1.4,0.5c1,0.3,1.9,0.6,2.9,0.8c2,0.5,3.9,1,5.9,1.3c2,0.4,4,0.8,6,1.2L785.5,719.2z"/>
		<path class="st1" d="M768.5,733.7c-2.7-0.8-5.3-1.7-7.9-2.6c-2.6-0.9-5.2-2-7.7-3c-2.5-1.1-5.1-2.2-7.6-3.4
			c-2.5-1.2-5-2.5-7.3-3.9c2.5,1.2,5,2.3,7.6,3.4c2.5,1.1,5.1,2.2,7.6,3.2c2.5,1.1,5.1,2.1,7.7,3.2
			C763.3,731.6,765.9,732.6,768.5,733.7z"/>
		<path class="st1" d="M742.7,686.8l-3.8,4.8c-1.3,1.6-2.5,3.2-3.7,4.8c-1.2,1.6-2.4,3.3-3.5,5l-0.8,1.3l-0.7,1.3
			c-0.2,0.5-0.4,0.9-0.6,1.4c-0.2,0.5-0.3,1-0.5,1.5c0.2-2.1,1.1-4,2.1-5.8c1-1.8,2.1-3.5,3.4-5.2c1.2-1.6,2.5-3.2,3.9-4.7
			C739.7,689.6,741.2,688.1,742.7,686.8z"/>
		<path class="st1" d="M741.9,740.4c-2.5-0.5-4.9-1.2-7.3-1.9c-2.4-0.7-4.8-1.6-7.2-2.4c-2.3-0.9-4.7-1.9-6.9-3.1
			c-1.1-0.6-2.2-1.2-3.3-2c-1-0.8-2-1.6-2.7-2.7c0.8,1,1.8,1.7,2.9,2.4c1.1,0.7,2.2,1.2,3.3,1.8c2.3,1.1,4.6,2,6.9,2.9
			c2.3,0.9,4.7,1.7,7.1,2.6L741.9,740.4z"/>
		<path class="st1" d="M718.9,696.8c-1,1.6-2,3.2-3,4.9c-0.9,1.6-1.9,3.3-2.7,5c-0.9,1.7-1.7,3.4-2.3,5.2c-0.2,0.4-0.3,0.9-0.5,1.3
			c-0.1,0.5-0.3,0.9-0.4,1.4c-0.1,0.5-0.2,0.9-0.3,1.4c-0.1,0.5-0.1,0.9-0.2,1.4c-0.2-1.9,0.2-3.9,0.8-5.7c0.5-1.9,1.3-3.6,2.2-5.3
			c0.9-1.7,1.8-3.4,2.9-5C716.5,699.7,717.7,698.2,718.9,696.8z"/>
	</g>
	<g>
		<path class="st0" d="M666.5,626.6c-13.7,3.3-5.2,22.3-8.1,28.9c-2.9,6.7-15-12.9-18.1-4.5c-3.1,8.4,11.6,26.7,10.8,28.2
			c-2.6,4.9-18.1-4.5-17.6,4.4s29.2,18.6,21.1,22.7s-13.9-7.4-16.8-0.8s7.4,25.9,21.9,29.9c14.5,4,37.9-1.4,43.1-11.2
			c5.2-9.8,11-23.2,3.1-20.8c-7.9,2.4-17.4,2.7-14.7-2.2c2.3-4.4,22.6-25,11.3-24.9c-11.3,0.1-12.6,8.7-15.8,4.7
			c-3.2-4,14.7-22.6,11.5-26.6c-3.2-4-7.6,0.6-17.4,2.7C671,659.2,680.1,623.3,666.5,626.6z"/>
		<g>
			<path class="st1" d="M674.8,731.4c-1.9-11.2-3.4-22.5-4.7-33.8c-1-8.8-1.9-17.7-2.2-26.6c-0.2-3.8-0.2-7.6,0-11.4
				c0.2-4.7,1-9.3,1.1-14c0.1-3.2,0.2-6.7-0.9-9.8c-0.2-0.5-0.5-1.6-1.1-1.9c-0.3-0.1-1,0.9-1.3,0.7c2.1,0.8,1.9,6.7,2,8.2
				c0.3,8.6-1.3,17-1.1,25.6c0.4,17,2.7,34,5.1,50.9c0.6,4.3,1.2,8.5,2,12.8C673.5,732,674.9,731.6,674.8,731.4L674.8,731.4z"/>
		</g>
	</g>
	<g>
		<defs>
			<path id="SVGID_2_" d="M120.8,155.7c247.3-297.8,775.9-85.8,870.5-37c27.8,14.3,71.1,37.4,82,80c14.8,57.8-44.9,93.2-66,214
				c-8.5,48.4-0.5,52.4-10,86c-22.5,80-86.9,125.4-130,156c-62.1,44.1-148.5,105.4-214,76c-52.9-23.7-48.2-86.7-112-108
				c-35-11.7-66.8-2.9-92,4c-87.7,24.2-101.5,82.2-172,114c-60.6,27.4-142,25.9-188-2C-29.9,666.3-33.2,341.2,120.8,155.7z"/>
		</defs>
		<clipPath id="SVGID_3_">
			<use xlink:href="#SVGID_2_"  style="overflow:visible;"/>
		</clipPath>
		<g class="st14">
			<g>
				<polygon class="st15" points="956.9,675 956.9,-44.7 851.2,-44.7 852.4,700 956.9,700 				"/>
				<g class="st16">
					<path class="st17" d="M880.1,660.9c3.4-33.2,4.1-61.2,4-82c0-6-0.3-29.4-2.7-60c-2.1-26.8-4.2-37.7-6.7-69.3
						c-1.5-18.4-2.2-33.5-2.7-43.3"/>
					<path class="st17" d="M949.4-17.1c-1.1,17.7-2.2,41.8-2,70.7c0,7.8,0.2,16.7,1.3,50.7c0.6,19,1.5,43.7,2.7,72.7"/>
					<path class="st17" d="M938.1,278.3c-1.6-14.5-3.7-36.2-4.7-62.7c-0.7-19.2-0.5-30.8-0.7-64c-0.1-15.8-0.2-38.2-0.7-65.3"/>
					<path class="st17" d="M927.4,30.9c0.7-8,1-17,0.7-26.7c-0.4-12.2-1.7-23.1-3.3-32.7"/>
					<path class="st17" d="M881.4,30.3c0.2,8.7,0.6,22.4,2,39.3c3,37.7,6.8,43.6,6.7,67.3c0,5.5-1.1,10.6-2.8,29.9
						c-1.1,12.8-1.7,19.2-1.9,23.5c-1.4,25.8,2.5,54.6,6,54.7c2.9,0.1,6-19.8,6.7-34c0.6-13-0.7-23.8-2-31.3"/>
					<path class="st17" d="M914.1,242.9c-5.2,19.4-4.8,34.3-3.3,44.7c1.2,8.2,3.3,15.5,4,28.7c0.6,10.6,0,19.4-0.7,25.3"/>
					<path class="st17" d="M934.7,675.6c-3-26-5.3-52.9-6.7-80.7c-0.3-5.1-0.5-10.3-0.7-15.3"/>
					<path class="st17" d="M927.4,556.3c-1.8-10.5-2.5-19.8-2.7-27.3c-0.4-16.1,1.6-23.9,2-42.7c0.2-10.6-0.1-19.9-0.7-27.3"/>
					<path class="st17" d="M862.7,334.9c1.1-12.4,2.2-31.9,0.7-56c-1.5-24.4-4.6-34.9-6-56.7c-1-15.2-1.3-37.8,2.7-66"/>
				</g>
			</g>
			<g>
				<g>
					<g class="st18">
						<path class="st19" d="M194.1,258.5c0.6,0,1.4,0,1.9,0.1c46.6,2.1,94.8,12,140.9,4.6c10.3-1.7,15.9-4.4,25.3-3.9
							c9.7,0.5,15.7,4.5,25.2,6.5c14.6,3.1,29.9,2.2,44.6-1.6c1.1-0.3,2.4-0.7,2.9-1.8c0.8-1.7-0.3-3.5-1.6-4.6
							c-6.1-5.8-14.9-10.7-22.5-13c-28.2-8.4-56.8-1.4-84.3-11.8c23.3-9.1,49.5-4.4,73.1,0c5.3,1,10.1,1.9,14.7,1.3
							c4.6-0.7,9.8-3,10.1-7.5c1.2-18.9-68.9-24.5-82.3-24.8c-25.8-0.5-47.2,1.3-72-1.7c7.7-5.6,14.6-11.5,19.1-19.7
							c1.3-2.4,2.8-4.2,1.9-6.8c-1.9-5.4-5.9-5.9-12.4-6c-20.9-0.3-40.9-0.6-63,2.5c-22.1,3.2-46.9,11.3-69.7,14.5
							c-10.4,3.2-22.6,6.2-28.7,15.6c-4.1,6.3-4.7,12.3-2.8,19.4c4.3,16,14.9,26.4,30.7,32.3C160.6,257.7,177.8,257.8,194.1,258.5z"
							/>
					</g>
					<g>
						<polygon class="st20" points="704.3,413 704.3,-306.8 676.5,-306.8 676.8,437.9 704.3,437.9 						"/>
						<polygon class="st20" points="846.3,719.8 846.3,0 787.6,0 788.3,744.7 846.3,744.7 						"/>
						<polygon class="st20" points="267.2,772.8 267.2,53.1 246.5,53.1 246.8,797.8 267.2,797.8 						"/>
						<polygon class="st20" points="993.3,643.2 993.3,-76.6 969.5,-76.6 969.8,668.2 993.3,668.2 						"/>
					</g>
					<path class="st21" d="M455.9,143.9c-50.2-5.7-102.2,4.4-152.3-3.6c2.9-4.4,12.6-4.6,20.3-5.2c7.7-0.6,16.9-4.7,13.1-8.8
						c-2.4-2.6-8.3-2.8-13.1-2.7c-15.2,0.3-30.4,0.5-45.5,0.8c-4.5,0.1-9.4,0.1-13.3-1.3s-6.2-4.8-3.5-7c0.8-0.7,2-1.1,3.1-1.6
						c14.4-5.7,28.7-11.5,43.1-17.2c8.8-3.5,18-7.1,28.4-8.2c12.3-1.2,24.7,1.4,35.6,5.1c8.1,2.8,18,6.2,26,3.3
						c3.4-1.2,5.4-3.4,7.7-5.3c30.8-26.3,99.5-16.9,139.5-4.9c5.3,1.6,11.1,3.9,11.8,7.4c1.1,5.5-9.9,8.5-18.6,10.3
						s-18.8,6.7-14.4,11.6c3.5,3.9,12.8,3.4,19.9,2.5c25.6-3.1,52.1-3.8,78.1-2.1c2.9,0.2,6.2,0.5,7.8,2c1.9,1.7,0.9,4-0.4,5.9
						c-10.5,15.1-34.5,25.5-60.1,30.8c-25.6,5.3-53,6-80,6.7c-36.3,1-72.6,1.9-108.9,2.9c5.9,0,26.6-12.1,34-14.2
						C427.4,147.3,441.5,145,455.9,143.9z"/>
					<path class="st21" d="M773.3,286.4c-50.2-5.7-102.2,4.4-152.3-3.6c2.9-4.4,12.6-4.6,20.3-5.2s16.9-4.7,13.1-8.8
						c-2.4-2.6-8.3-2.8-13.1-2.7c-15.2,0.3-30.4,0.5-45.5,0.8c-4.5,0.1-9.4,0.1-13.3-1.3c-3.9-1.4-6.2-4.8-3.5-7
						c0.8-0.7,2-1.1,3.1-1.6c14.4-5.7,28.7-11.5,43.1-17.2c8.8-3.5,18-7.1,28.4-8.2c12.3-1.2,24.7,1.4,35.6,5.1
						c8.1,2.8,18,6.2,26,3.3c3.4-1.2,5.4-3.4,7.7-5.3c30.8-26.3,99.5-16.9,139.5-4.9c5.3,1.6,11.1,3.9,11.8,7.4
						c1.1,5.5-9.9,8.5-18.6,10.3c-8.7,1.8-18.8,6.7-14.4,11.6c3.5,3.9,12.8,3.4,19.9,2.5c25.6-3.1,52.1-3.8,78.1-2.1
						c2.9,0.2,6.2,0.5,7.8,2c1.9,1.7,0.9,4-0.4,5.9c-10.5,15.1-34.5,25.5-60.1,30.8c-25.6,5.3-53,6-80,6.7
						c-36.3,1-72.6,1.9-108.9,2.9c5.9,0,26.6-12.1,34-14.2C744.9,289.7,759,287.5,773.3,286.4z"/>
					<g>
						<g>
							<path class="st0" d="M329,122.1c-0.4,2.6-4.6,4.1-7.7,5.4c-13.3,5.3-27,9.8-41.2,11.3c-14.2,1.5-29-0.1-41.8-6.5
								c-20-10-32.8-30.2-50.8-43.6c7.7-5.8,15.9-11,24.4-15.4c8.6-4.5,18-8.4,27.7-8.5c15-0.2,28.5,8.2,40.9,16.5
								c16.5,11.2,32.8,22.9,46.7,37.2C328.7,119.8,329.2,121,329,122.1z"/>
							<path class="st1" d="M190.4,89.1l16.4,2.8l16.4,3c10.9,2.1,21.8,4.3,32.7,6.6c10.9,2.4,21.7,4.8,32.4,7.8
								c5.4,1.4,10.6,3.4,15.8,5.4l15.6,5.9l-15.7-5.6c-5.2-1.9-10.4-3.8-15.8-5.1c-10.7-2.9-21.6-5.3-32.5-7.6
								c-10.9-2.4-21.8-4.6-32.7-6.8L190.4,89.1z"/>
							<path class="st1" d="M286.8,94.2c-1.2,0.5-2.5,0.9-3.7,1.3l-3.7,1.3c-1.2,0.4-2.5,0.8-3.7,1.3c-1.2,0.4-2.4,0.9-3.6,1.5
								c1-0.8,2.2-1.5,3.4-2c1.2-0.6,2.4-1,3.7-1.5c1.2-0.4,2.5-0.8,3.8-1.1C284.2,94.6,285.5,94.4,286.8,94.2z"/>
							<path class="st1" d="M289.2,128.7c-1.7-1-3.4-2.2-5-3.4c-1.6-1.2-3.2-2.5-4.7-3.8c-1.5-1.3-3-2.7-4.4-4.3
								c-1.4-1.5-2.7-3.1-3.6-4.9c0.3,0.4,0.6,0.8,0.9,1.2l1,1.1c0.7,0.7,1.4,1.5,2.1,2.2c1.4,1.4,2.9,2.8,4.5,4.1
								c1.5,1.3,3.1,2.6,4.6,4L289.2,128.7z"/>
							<path class="st1" d="M267.2,132.9c-1.9-2-3.8-4.1-5.6-6.2c-1.8-2.1-3.5-4.3-5.3-6.4c-1.7-2.2-3.3-4.4-4.9-6.7
								c-1.6-2.3-3.1-4.6-4.4-7.1c1.6,2.3,3.2,4.5,4.9,6.7c1.7,2.2,3.3,4.4,5,6.6c1.7,2.2,3.4,4.4,5.1,6.5
								C263.8,128.5,265.5,130.7,267.2,132.9z"/>
							<path class="st1" d="M268.1,79.3l-5.7,2.2c-1.9,0.8-3.8,1.5-5.6,2.3c-1.9,0.8-3.7,1.7-5.5,2.6l-1.3,0.7l-1.3,0.8
								c-0.4,0.3-0.8,0.6-1.2,0.9c-0.4,0.3-0.7,0.7-1.1,1c1.2-1.7,2.9-2.9,4.7-4c1.8-1.1,3.6-2,5.5-2.8c1.9-0.8,3.8-1.5,5.7-2.2
								C264.1,80.3,266.1,79.7,268.1,79.3z"/>
							<path class="st1" d="M240.9,125.5c-1.9-1.7-3.7-3.5-5.4-5.3c-1.7-1.8-3.4-3.7-5-5.7c-1.6-2-3.1-4-4.5-6.1
								c-0.7-1.1-1.3-2.2-1.8-3.3c-0.5-1.2-1-2.4-1-3.7c0.2,1.3,0.7,2.4,1.3,3.5c0.6,1.1,1.3,2.1,2,3.2c1.4,2,3,4,4.6,5.9
								c1.6,2,3.2,3.9,4.9,5.8L240.9,125.5z"/>
							<path class="st1" d="M242.5,76.2c-1.7,0.9-3.4,1.8-5,2.8c-1.6,1-3.3,1.9-4.8,3c-1.6,1-3.1,2.1-4.6,3.4
								c-0.4,0.3-0.7,0.6-1.1,0.9c-0.3,0.3-0.7,0.6-1,1c-0.3,0.3-0.7,0.7-1,1c-0.3,0.4-0.6,0.8-0.9,1.1c0.8-1.7,2.1-3.2,3.5-4.6
								c1.4-1.4,2.9-2.5,4.5-3.6c1.6-1.1,3.3-2,5-2.9C238.9,77.6,240.7,76.8,242.5,76.2z"/>
						</g>
						<g>
							<path class="st0" d="M321.2,92.2c-0.5,1.8-3.6,2.6-6,3.2c-9.9,2.7-20.1,4.8-30.3,4.7c-10.3-0.1-20.7-2.5-29.3-8.1
								c-13.5-8.8-20.9-24.3-32.6-35.3c6-3.5,12.3-6.5,18.7-9c6.5-2.5,13.5-4.5,20.5-3.8C272.9,44.9,281.9,52,290,59
								c10.9,9.3,21.5,19.1,30.3,30.4C321.2,90.6,321.4,91.5,321.2,92.2z"/>
							<path class="st1" d="M225,57.1l11.5,3.4l11.4,3.6c7.6,2.4,15.2,4.8,22.8,7.4c7.6,2.6,15.1,5.3,22.5,8.3
								c3.7,1.5,7.3,3.3,10.8,5.1l10.6,5.5l-10.8-5.3c-3.6-1.8-7.1-3.6-10.9-5c-7.4-3-15-5.5-22.5-8.1c-7.6-2.6-15.1-5.1-22.7-7.6
								L225,57.1z"/>
							<path class="st1" d="M293.4,68.8c-0.9,0.2-1.8,0.4-2.7,0.6l-2.7,0.6c-1.8,0.4-3.6,0.8-5.4,1.4c0.8-0.5,1.7-0.9,2.6-1.2
								c0.9-0.3,1.8-0.5,2.7-0.8c0.9-0.2,1.9-0.4,2.8-0.5C291.5,68.9,292.4,68.8,293.4,68.8z"/>
							<path class="st1" d="M292.2,93.6c-1.2-0.9-2.2-1.9-3.3-2.9c-1.1-1-2.1-2.1-3.1-3.1c-1-1.1-1.9-2.2-2.8-3.4
								c-0.8-1.2-1.6-2.4-2.2-3.8c0.7,1.3,1.6,2.4,2.5,3.5c0.9,1.1,1.8,2.2,2.8,3.3c1,1.1,2,2.1,3,3.2L292.2,93.6z"/>
							<path class="st1" d="M276.2,94.8c-1.2-1.6-2.3-3.2-3.5-4.9c-1.1-1.7-2.2-3.3-3.2-5c-1-1.7-2-3.4-2.9-5.2
								c-0.9-1.8-1.8-3.6-2.6-5.4c1.9,3.5,3.9,6.9,6,10.3c1,1.7,2.1,3.4,3.1,5.1L276.2,94.8z"/>
							<path class="st1" d="M281.3,56.6c-2.8,0.8-5.7,1.5-8.5,2.3c-1.4,0.4-2.8,0.9-4.1,1.4c-1.4,0.5-2.7,1.1-3.8,2.1
								c1-1.1,2.3-1.9,3.7-2.5c1.3-0.6,2.7-1.1,4.1-1.6c1.4-0.4,2.8-0.8,4.3-1.1C278.3,57,279.8,56.7,281.3,56.6z"/>
							<path class="st1" d="M258,87.3c-1.2-1.4-2.3-2.8-3.4-4.2c-1.1-1.4-2.1-2.9-3.1-4.5c-0.9-1.5-1.9-3.1-2.7-4.7
								c-0.7-1.6-1.5-3.4-1.4-5.2c0.1,0.9,0.3,1.8,0.7,2.6c0.3,0.8,0.7,1.6,1.2,2.4c0.9,1.6,1.8,3.1,2.8,4.6c1,1.5,2,3,3,4.5
								L258,87.3z"/>
							<path class="st1" d="M263.3,52.3c-1.3,0.5-2.5,1-3.8,1.6c-1.3,0.5-2.5,1.1-3.7,1.7c-1.2,0.6-2.4,1.3-3.5,2
								c-1.1,0.8-2.2,1.6-3.1,2.6c0.7-1.2,1.8-2.1,2.9-3c1.1-0.8,2.3-1.5,3.5-2.2c1.2-0.6,2.5-1.2,3.8-1.6
								C260.6,53,261.9,52.5,263.3,52.3z"/>
						</g>
						<g>
							<path class="st0" d="M494.3,77.8c-1.7-0.9-1.7-4.1-1.8-6.5c-0.4-10.3-0.2-20.6,2.2-30.6s7-19.6,14.4-26.8
								c11.6-11.2,28.3-15,41.7-24c2.1,6.6,3.6,13.4,4.6,20.3c1,6.9,1.4,14.2-0.8,20.8c-3.4,10.2-12.4,17.4-21,23.8
								c-11.5,8.5-23.3,16.8-36.3,22.8C495.9,78.2,495,78.2,494.3,77.8z"/>
							<path class="st1" d="M549.8-8.3l-5.9,10.5l-6,10.4c-4,6.9-8.1,13.8-12.2,20.6c-4.2,6.8-8.5,13.6-13.1,20.1
								c-2.2,3.3-4.8,6.4-7.4,9.4l-7.7,9.1l7.5-9.3c2.5-3.1,5.1-6.2,7.3-9.5c4.5-6.6,8.7-13.4,12.9-20.2c4.2-6.8,8.3-13.6,12.4-20.5
								L549.8-8.3z"/>
							<path class="st1" d="M523.3,55.9c0-0.9,0-1.9,0-2.8l0-2.8c0-1.9,0-3.7-0.1-5.6c0.3,0.9,0.5,1.8,0.6,2.8
								c0.1,0.9,0.1,1.9,0.1,2.8c0,0.9-0.1,1.9-0.2,2.8C523.6,54,523.5,54.9,523.3,55.9z"/>
							<path class="st1" d="M499.3,49.3c1.1-0.9,2.3-1.8,3.5-2.6c1.2-0.8,2.5-1.6,3.7-2.3c1.3-0.7,2.6-1.4,3.9-1.9
								c1.4-0.6,2.7-1.1,4.2-1.3c-1.4,0.4-2.7,1-4,1.7c-1.3,0.6-2.6,1.3-3.8,2c-1.3,0.7-2.5,1.4-3.8,2.2L499.3,49.3z"/>
							<path class="st1" d="M501.8,33.4c1.8-0.8,3.7-1.6,5.5-2.3c1.9-0.7,3.7-1.4,5.6-2c1.9-0.6,3.8-1.2,5.7-1.7
								c1.9-0.5,3.9-1,5.8-1.3c-3.8,1.1-7.6,2.3-11.4,3.6c-1.9,0.6-3.8,1.3-5.6,1.9L501.8,33.4z"/>
							<path class="st1" d="M537.9,46.8c-0.1-2.9-0.2-5.9-0.4-8.8c-0.1-1.5-0.2-2.9-0.5-4.3c-0.2-1.4-0.5-2.9-1.2-4.2
								c0.9,1.2,1.3,2.7,1.6,4.1c0.3,1.4,0.5,2.9,0.6,4.4c0.1,1.5,0.1,2.9,0.1,4.4C538.1,43.8,538,45.3,537.9,46.8z"/>
							<path class="st1" d="M513,17.3c1.6-0.9,3.2-1.7,4.9-2.4c1.7-0.7,3.3-1.4,5-2.1c1.7-0.6,3.4-1.2,5.2-1.6
								c1.8-0.4,3.6-0.8,5.4-0.3c-0.9-0.1-1.8-0.1-2.7,0.1c-0.9,0.1-1.8,0.4-2.6,0.6c-1.7,0.5-3.4,1.1-5.1,1.7
								c-1.7,0.6-3.4,1.3-5.1,1.9L513,17.3z"/>
							<path class="st1" d="M546.1,30.1c-0.2-1.4-0.4-2.7-0.7-4.1c-0.3-1.3-0.5-2.7-0.9-4c-0.3-1.3-0.7-2.6-1.2-3.9
								c-0.5-1.3-1.1-2.5-1.9-3.6c1,1,1.7,2.2,2.3,3.5c0.6,1.3,1,2.6,1.3,3.9c0.3,1.3,0.6,2.7,0.7,4.1
								C546,27.4,546.1,28.8,546.1,30.1z"/>
						</g>
						<g>
							<path class="st0" d="M784.3,135.4c-1.7-0.9-1.7-4.1-1.8-6.5c-0.4-10.3-0.2-20.6,2.2-30.6s7-19.6,14.4-26.8
								c11.6-11.2,28.3-15,41.7-24c2.1,6.6,3.6,13.4,4.6,20.3c1,6.9,1.4,14.2-0.8,20.8c-3.4,10.2-12.4,17.4-21,23.8
								c-11.5,8.5-23.3,16.8-36.3,22.8C785.9,135.7,785,135.8,784.3,135.4z"/>
							<path class="st1" d="M839.8,49.3l-5.9,10.5l-6,10.4c-4,6.9-8.1,13.8-12.2,20.6c-4.2,6.8-8.5,13.6-13.1,20.1
								c-2.2,3.3-4.8,6.4-7.4,9.4l-7.7,9.1l7.5-9.3c2.5-3.1,5.1-6.2,7.3-9.5c4.5-6.6,8.7-13.4,12.9-20.2c4.2-6.8,8.3-13.6,12.4-20.5
								L839.8,49.3z"/>
							<path class="st1" d="M813.3,113.5c0-0.9,0-1.9,0-2.8l0-2.8c0-1.9,0-3.7-0.1-5.6c0.3,0.9,0.5,1.8,0.6,2.8
								c0.1,0.9,0.1,1.9,0.1,2.8c0,0.9-0.1,1.9-0.2,2.8C813.6,111.6,813.5,112.5,813.3,113.5z"/>
							<path class="st1" d="M789.3,106.9c1.1-0.9,2.3-1.8,3.5-2.6c1.2-0.8,2.5-1.6,3.7-2.3c1.3-0.7,2.6-1.4,3.9-1.9
								c1.4-0.6,2.7-1.1,4.2-1.3c-1.4,0.4-2.7,1-4,1.7c-1.3,0.6-2.6,1.3-3.8,2c-1.3,0.7-2.5,1.4-3.8,2.2L789.3,106.9z"/>
							<path class="st1" d="M791.8,90.9c1.8-0.8,3.7-1.6,5.5-2.3c1.9-0.7,3.7-1.4,5.6-2c1.9-0.6,3.8-1.2,5.7-1.7
								c1.9-0.5,3.9-1,5.8-1.3c-3.8,1.1-7.6,2.3-11.4,3.6c-1.9,0.6-3.8,1.3-5.6,1.9L791.8,90.9z"/>
							<path class="st1" d="M827.9,104.3c-0.1-2.9-0.2-5.9-0.4-8.8c-0.1-1.5-0.2-2.9-0.5-4.3c-0.2-1.4-0.5-2.9-1.2-4.2
								c0.9,1.2,1.3,2.7,1.6,4.1c0.3,1.4,0.5,2.9,0.6,4.4c0.1,1.5,0.1,2.9,0.1,4.4C828.1,101.4,828,102.9,827.9,104.3z"/>
							<path class="st1" d="M803,74.8c1.6-0.9,3.2-1.7,4.9-2.4c1.7-0.7,3.3-1.4,5-2.1c1.7-0.6,3.4-1.2,5.2-1.6
								c1.8-0.4,3.6-0.8,5.4-0.3c-0.9-0.1-1.8-0.1-2.7,0.1c-0.9,0.1-1.8,0.4-2.6,0.6c-1.7,0.5-3.4,1.1-5.1,1.7
								c-1.7,0.6-3.4,1.3-5.1,1.9L803,74.8z"/>
							<path class="st1" d="M836.1,87.7c-0.2-1.4-0.4-2.7-0.7-4.1c-0.3-1.3-0.5-2.7-0.9-4c-0.3-1.3-0.7-2.6-1.2-3.9
								c-0.5-1.3-1.1-2.5-1.9-3.6c1,1,1.7,2.2,2.3,3.5c0.6,1.3,1,2.6,1.3,3.9c0.3,1.3,0.6,2.7,0.7,4.1C836,85,836.1,86.4,836.1,87.7
								z"/>
						</g>
						<g>
							<path class="st0" d="M831.2,133.2c-1.2-0.3-1.6-2.4-2-3.9c-1.6-6.4-2.8-13-2.6-19.6c0.2-6.6,1.9-13.3,5.6-18.8
								c5.9-8.6,16-13.1,23.2-20.6c2.2,3.9,4,8,5.5,12.2c1.5,4.3,2.7,8.8,2.2,13.3c-0.8,6.9-5.6,12.6-10.2,17.7
								c-6.2,6.9-12.6,13.6-20,19.1C832.3,133.2,831.7,133.3,831.2,133.2z"/>
							<path class="st1" d="M855.2,71.6c-1.5,4.9-3.1,9.8-4.8,14.7c-1.7,4.9-3.3,9.8-5.1,14.6c-1.8,4.8-3.6,9.7-5.7,14.4
								c-1,2.4-2.2,4.7-3.5,6.9l-3.7,6.8l3.6-6.9c1.2-2.3,2.4-4.5,3.4-6.9c2-4.7,3.8-9.6,5.5-14.4c1.8-4.8,3.5-9.7,5.2-14.6
								L855.2,71.6z"/>
							<path class="st1" d="M846.7,115.6c-0.3-1.2-0.5-2.4-0.7-3.6c-0.2-1.2-0.5-2.4-0.8-3.5c0.6,1.1,0.9,2.3,1.2,3.5
								C846.6,113.1,846.7,114.4,846.7,115.6z"/>
							<path class="st1" d="M830.7,114.5c1.2-1.5,2.5-2.8,4-4c0.7-0.6,1.5-1.2,2.2-1.7c0.8-0.5,1.6-1,2.5-1.3
								c-0.8,0.5-1.6,1-2.3,1.6c-0.7,0.6-1.5,1.2-2.2,1.8C833.5,112,832.1,113.3,830.7,114.5z"/>
							<path class="st1" d="M830.2,104.1c2.1-1.5,4.3-2.9,6.5-4.2c1.1-0.6,2.2-1.3,3.4-1.8c1.1-0.6,2.3-1.1,3.5-1.6
								c-1.1,0.6-2.3,1.2-3.4,1.8c-1.1,0.6-2.2,1.2-3.3,1.9L830.2,104.1z"/>
							<path class="st1" d="M854.7,107.9c-0.5-1.8-0.9-3.7-1.4-5.5c-0.2-0.9-0.5-1.8-0.9-2.7c-0.3-0.9-0.7-1.8-1.3-2.5
								c0.7,0.6,1.2,1.5,1.5,2.4c0.4,0.9,0.7,1.8,0.9,2.7C854.2,104.2,854.6,106,854.7,107.9z"/>
							<path class="st1" d="M835.2,92.5c1.8-1.5,3.7-2.8,5.7-4.1c1-0.6,2-1.2,3.1-1.7c1.1-0.5,2.2-0.9,3.4-0.9
								c-0.6,0-1.1,0.2-1.7,0.4c-0.5,0.2-1.1,0.5-1.6,0.7c-1,0.5-2,1.1-3,1.7C839.1,89.9,837.2,91.2,835.2,92.5z"/>
							<path class="st1" d="M857.8,96.4c-0.3-0.8-0.6-1.7-1-2.5c-0.3-0.8-0.7-1.6-1.1-2.4c-0.4-0.8-0.8-1.6-1.3-2.3
								c-0.5-0.7-1-1.4-1.6-2c0.8,0.5,1.4,1.2,1.9,1.9c0.5,0.7,1,1.5,1.3,2.3C856.8,93,857.4,94.6,857.8,96.4z"/>
						</g>
						<g>
							<path class="st0" d="M993.8,193.9c-1.5,1.2-4.4,0-6.7-0.8c-9.6-3.5-19.1-7.7-27.5-13.7c-8.3-6-15.5-14-19.2-23.5
								c-5.9-15-3.1-31.9-6.3-47.7c6.9,0.6,13.8,1.7,20.5,3.4c6.8,1.7,13.6,4.1,18.9,8.7c8.1,7,11.4,18.1,14,28.5
								c3.5,13.9,6.6,28,7.2,42.3C994.7,192.6,994.4,193.4,993.8,193.9z"/>
							<path class="st1" d="M935.4,109.8l7.4,9.4l7.3,9.5c4.8,6.4,9.6,12.7,14.4,19.2c4.7,6.5,9.3,13,13.6,19.7
								c2.2,3.3,4.1,6.9,5.9,10.4l5.5,10.6l-5.7-10.5c-1.9-3.5-3.8-7-6-10.4c-4.4-6.7-9-13.2-13.8-19.6c-4.7-6.5-9.4-12.9-14.2-19.3
								L935.4,109.8z"/>
							<path class="st1" d="M984.6,158.8c-0.9-0.3-1.7-0.7-2.6-1.1l-2.6-1.1c-1.7-0.7-3.4-1.4-5.2-2c0.9,0.1,1.9,0.3,2.8,0.5
								c0.9,0.3,1.8,0.6,2.7,1c0.9,0.4,1.7,0.8,2.5,1.2C983,157.7,983.8,158.2,984.6,158.8z"/>
							<path class="st1" d="M969.4,178.4c-0.4-1.4-0.8-2.8-1.1-4.3c-0.3-1.4-0.5-2.9-0.7-4.3c-0.2-1.5-0.3-2.9-0.3-4.4
								c0-1.5,0.1-2.9,0.4-4.4c-0.1,1.5-0.1,2.9,0,4.3c0.1,1.4,0.2,2.9,0.4,4.3c0.1,1.4,0.4,2.9,0.6,4.3L969.4,178.4z"/>
							<path class="st1" d="M955.6,170.1c-0.1-2-0.1-4,0-6c0-2,0.2-4,0.3-6c0.2-2,0.3-4,0.6-5.9c0.3-2,0.6-3.9,1-5.9
								c-0.4,4-0.8,7.9-1,11.9c-0.2,2-0.3,4-0.4,5.9L955.6,170.1z"/>
							<path class="st1" d="M981.7,141.8c-2.8-1-5.5-2.1-8.3-3c-1.4-0.5-2.8-0.9-4.2-1.2c-1.4-0.3-2.9-0.6-4.3-0.5
								c1.4-0.3,3-0.2,4.4,0.1c1.5,0.3,2.9,0.7,4.3,1.1c1.4,0.5,2.8,1,4.1,1.6C979.1,140.4,980.4,141.1,981.7,141.8z"/>
							<path class="st1" d="M945,153.5c-0.2-1.8-0.3-3.6-0.4-5.4c-0.1-1.8,0-3.6,0-5.4c0.1-1.8,0.2-3.6,0.5-5.4
								c0.3-1.8,0.7-3.6,1.8-5.1c-0.5,0.8-0.8,1.6-0.9,2.5c-0.2,0.9-0.3,1.8-0.4,2.7c-0.2,1.8-0.3,3.6-0.4,5.4
								c-0.1,1.8-0.1,3.6-0.2,5.4L945,153.5z"/>
							<path class="st1" d="M969.5,127.9c-1.3-0.3-2.7-0.6-4-0.9c-1.3-0.3-2.7-0.6-4-0.7c-1.3-0.2-2.7-0.4-4.1-0.4
								c-1.4,0-2.7,0-4.1,0.3c1.3-0.5,2.7-0.7,4.1-0.8c1.4-0.1,2.8,0.1,4.1,0.3c1.4,0.2,2.7,0.5,4,0.9
								C966.9,126.9,968.2,127.3,969.5,127.9z"/>
						</g>
						<g>
							<path class="st0" d="M477.3,56.7c-1-0.4-1.3-2.2-1.6-3.6c-1.1-5.8-1.9-11.8-1.4-17.7s2.3-11.8,5.9-16.6
								c5.7-7.4,14.9-11,21.8-17.3c1.8,3.6,3.2,7.4,4.4,11.2c1.2,3.9,2,8,1.3,12c-1.1,6.1-5.6,11-10,15.4
								c-5.9,5.9-11.9,11.6-18.8,16.2C478.2,56.8,477.7,56.9,477.3,56.7z"/>
							<path class="st1" d="M501.6,2.7c-1.6,4.3-3.3,8.7-5,12.9c-1.7,4.3-3.4,8.6-5.2,12.9c-1.8,4.2-3.7,8.5-5.7,12.6
								c-1,2.1-2.2,4.1-3.4,6l-3.6,5.9l3.5-6c1.2-2,2.4-4,3.4-6.1c2-4.2,3.8-8.4,5.6-12.7c1.8-4.3,3.6-8.5,5.3-12.8L501.6,2.7z"/>
							<path class="st1" d="M492,41.7c-0.2-1.1-0.3-2.2-0.5-3.2c-0.1-1.1-0.3-2.1-0.5-3.2c0.5,1,0.7,2.1,0.9,3.2
								C491.9,39.5,492,40.6,492,41.7z"/>
							<path class="st1" d="M477.7,40c1.1-1.3,2.4-2.4,3.7-3.4c0.7-0.5,1.4-1,2.1-1.5c0.7-0.4,1.5-0.8,2.3-1.1
								c-0.8,0.4-1.5,0.8-2.2,1.3c-0.7,0.5-1.4,1-2,1.5C480.3,37.8,479,38.9,477.7,40z"/>
							<path class="st1" d="M477.7,30.6c1.9-1.3,4-2.4,6-3.4c2.1-1,4.2-2,6.3-2.7C485.9,26.4,481.8,28.6,477.7,30.6z"/>
							<path class="st1" d="M499.5,35.2c-0.3-1.7-0.6-3.3-1-5c-0.2-0.8-0.4-1.6-0.6-2.4c-0.3-0.8-0.5-1.6-1-2.3
								c0.6,0.6,1,1.4,1.3,2.2c0.3,0.8,0.5,1.6,0.7,2.5C499.2,31.8,499.5,33.5,499.5,35.2z"/>
							<path class="st1" d="M482.8,20.4c1.7-1.3,3.5-2.4,5.3-3.4c0.9-0.5,1.9-1,2.9-1.4c1-0.4,2-0.7,3.1-0.6c-1.1,0-2,0.4-3,0.8
								c-0.9,0.4-1.9,0.9-2.8,1.4C486.4,18.3,484.6,19.4,482.8,20.4z"/>
							<path class="st1" d="M502.8,25c-0.5-1.5-1-3-1.6-4.5c-0.3-0.7-0.6-1.4-1-2.1c-0.4-0.7-0.8-1.3-1.4-1.9
								c0.7,0.5,1.2,1.1,1.6,1.8c0.4,0.7,0.8,1.4,1.1,2.1C502.1,21.9,502.6,23.4,502.8,25z"/>
						</g>
					</g>
					<g>
						<polygon class="st15" points="229.1,787.5 229.1,67.7 98.9,67.7 100.4,812.5 229.1,812.5 						"/>
						<path class="st15" d="M203.4,544.5c0,0,38-98.7,72-104.4c34-5.6,70.5-24.6,76-39.1c0,0-12.5-2.5-12.5-2.5
							c-15.5,11.6-32.8,23.2-52.9,22.3c-26.1-1.2-50.9,10.1-68.1,29.7c-31.5,36-30,35-45.5,57"/>
						<g class="st16">
							<path class="st17" d="M138.1,779.8c3.4-33.2,4.1-61.2,4-82c0-6-0.3-29.4-2.7-60c-2.1-26.8-4.2-37.7-6.7-69.3
								c-1.5-18.4-2.2-33.5-2.7-43.3"/>
							<path class="st17" d="M207.4,101.8c-1.1,17.7-2.2,41.8-2,70.7c0,7.8,0.2,16.7,1.3,50.7c0.6,19,1.5,43.7,2.7,72.7"/>
							<path class="st17" d="M196.1,397.1c-1.6-14.5-3.7-36.2-4.7-62.7c-0.7-19.2-0.5-30.8-0.7-64c-0.1-15.8-0.2-38.2-0.7-65.3"/>
							<path class="st17" d="M185.4,149.8c0.7-8,1-17,0.7-26.7c-0.4-12.2-1.7-23.1-3.3-32.7"/>
							<path class="st17" d="M139.4,149.1c0.2,8.7,0.6,22.4,2,39.3c3,37.7,6.8,43.6,6.7,67.3c0,5.5-1.1,10.6-2.8,29.9
								c-1.1,12.8-1.7,19.2-1.9,23.5c-1.4,25.8,2.5,54.6,6,54.7c2.9,0.1,6-19.8,6.7-34c0.6-13-0.7-23.8-2-31.3"/>
							<path class="st17" d="M172.1,361.8c-5.2,19.4-4.8,34.3-3.3,44.7c1.2,8.2,3.3,15.5,4,28.7c0.6,10.6,0,19.4-0.7,25.3"/>
							<path class="st17" d="M192.7,794.5c-3-26-5.3-52.9-6.7-80.7c-0.3-5.1-0.5-10.3-0.7-15.3"/>
							<path class="st17" d="M185.4,675.1c-1.8-10.5-2.5-19.8-2.7-27.3c-0.4-16.1,1.6-23.9,2-42.7c0.2-10.6-0.1-19.9-0.7-27.3"/>
							<path class="st17" d="M120.7,453.8c1.1-12.4,2.2-31.9,0.7-56c-1.5-24.4-4.6-34.9-6-56.7c-1-15.2-1.3-37.8,2.7-66"/>
						</g>
					</g>
				</g>
				<g>
					<polygon class="st22" points="661.1,706.3 661.1,-13.4 536.5,-13.4 538,731.3 661.1,731.3 					"/>
					<g class="st16">
						<path class="st17" d="M576.6,696.3c3.4-33.2,4.1-61.2,4-82c0-6-0.3-29.4-2.7-60c-2.1-26.8-4.2-37.7-6.7-69.3
							c-1.5-18.4-2.2-33.5-2.7-43.3"/>
						<path class="st17" d="M645.9,18.3c-1.1,17.7-2.2,41.8-2,70.7c0,7.8,0.2,16.7,1.3,50.7c0.6,19,1.5,43.7,2.7,72.7"/>
						<path class="st17" d="M634.6,313.6c-1.6-14.5-3.7-36.2-4.7-62.7c-0.7-19.2-0.5-30.8-0.7-64c-0.1-15.8-0.2-38.2-0.7-65.3"/>
						<path class="st17" d="M623.9,66.3c0.7-8,1-17,0.7-26.7c-0.4-12.2-1.7-23.1-3.3-32.7"/>
						<path class="st17" d="M577.9,65.6c0.2,8.7,0.6,22.4,2,39.3c3,37.7,6.8,43.6,6.7,67.3c0,5.5-1.1,10.6-2.8,29.9
							c-1.1,12.8-1.7,19.2-1.9,23.5c-1.4,25.8,2.5,54.6,6,54.7c2.9,0.1,6-19.8,6.7-34c0.6-13-0.7-23.8-2-31.3"/>
						<path class="st17" d="M610.6,278.3c-5.2,19.4-4.8,34.3-3.3,44.7c1.2,8.2,3.3,15.5,4,28.7c0.6,10.6,0,19.4-0.7,25.3"/>
						<path class="st17" d="M631.2,711c-3-26-5.3-52.9-6.7-80.7c-0.3-5.1-0.5-10.3-0.7-15.3"/>
						<path class="st17" d="M623.9,591.6c-1.8-10.5-2.5-19.8-2.7-27.3c-0.4-16.1,1.6-23.9,2-42.7c0.2-10.6-0.1-19.9-0.7-27.3"/>
						<path class="st17" d="M559.2,370.3c1.1-12.4,2.2-31.9,0.7-56c-1.5-24.4-4.6-34.9-6-56.7c-1-15.2-1.3-37.8,2.7-66"/>
					</g>
					<path class="st22" d="M653.4,245.1c0,0,49.1-68.7,57.1-72.2c7.9-3.5,26.5-7.9,26.5-7.9l-6.5-16c0,0-35.9,7.6-43,16
						c-7.1,8.4-38.9,33.7-38.9,33.7L653.4,245.1z"/>
					<path class="st22" d="M553.2,414.3c0,0-27.9-44.2-41.9-44c-14,0.2-45-17.8-45-17.8l4-11.3l22,7.3c0,0,46.5,10,68.2,38
						S553.2,414.3,553.2,414.3z"/>
				</g>
			</g>
		</g>
	</g>
	<g>
		<path class="st0" d="M675,731.2c-0.5-0.4-1-0.9-1.4-1.3c-4.6-4.7-6.8-11.4-6.9-18c-0.3-13.5,6.1-26.8,13.1-38
			c0.2-0.4,0.5-0.8,0.9-0.9c0.8-0.3,1.6,0.5,2.1,1.2c3.3,4.9,4.3,11.7,9.1,15.1c-0.1-3.8-1.5-7.4-2.4-11.1c-0.9-3.7-1.1-7.9,1-11.1
			c1.3-2,3.3-3.4,5.3-4.7c5.7-3.7,11.8-7.6,14.6-13.7c0.5-1.1,1.2-3.6,2.5-4.1c2.2-0.9,2.5,4.8,3.1,6.5c0.3,1,3.3,6.9,2.9,7.6
			c3.1-5.7-0.4-13.1,2-19.1c1.8-4.6,6.6-7.2,10.6-10.1c6.7-4.9,12.1-11.5,15.6-19.1c3.7,3.6,4.1,9.4,3.9,14.5
			c-0.2,8.2-1.1,16.5-2.6,24.6c-0.8,4.4-2,9.1-5.4,12c-0.7,0.6-1.5,1.1-2,2c-0.5,0.8-0.5,2,0.3,2.5c0.5,0.3,1.2,0.3,1.8,0.1
			c3.4-0.9,5.7-4.1,7.6-7.1c3.7,11,1.9,23.6-4.8,33.1c-0.6,0.8-1.2,1.7-2.1,2.2c-0.9,0.6-2,0.9-3,1.1c-5.4,1.3-10.7,2.5-16.1,3.8
			c4.8-0.2,9.7-0.4,14.5-0.6c0.6,0,1.2,0,1.8,0.2c1.6,0.7,1.5,3,1,4.7c-3.2,10.7-10.2,20.2-19.5,26.3s-20.8,8.8-31.9,7.4
			C684.9,736.6,679.3,734.8,675,731.2z"/>
		<path class="st19" d="M682.9,733.3c2.8-3.8,5.5-7.5,8.2-11.3c2.7-3.8,5.5-7.6,8.1-11.4c5.4-7.6,10.7-15.3,15.8-23.1
			c5.1-7.8,10.1-15.7,14.7-23.8c2.3-4,4.5-8.2,6.4-12.4c2-4.2,3.7-8.5,4.8-13.1c-0.8,4.6-2.5,9-4.3,13.3c-1.9,4.3-4,8.5-6.2,12.6
			c-4.5,8.2-9.4,16.1-14.5,23.9c-5.2,7.8-10.5,15.4-16,23C694.4,718.6,688.8,726.1,682.9,733.3z"/>
	</g>
	<g>
		<path class="st0" d="M135.5,745.2c0.5-0.4,1-0.9,1.4-1.3c4.6-4.7,6.8-11.4,6.9-18c0.3-13.5-6.1-26.8-13.1-38
			c-0.2-0.4-0.5-0.8-0.9-0.9c-0.8-0.3-1.6,0.5-2.1,1.2c-3.3,4.9-4.3,11.7-9.1,15.1c0.1-3.8,1.5-7.4,2.4-11.1s1.1-7.9-1-11.1
			c-1.3-2-3.3-3.4-5.3-4.7c-5.7-3.7-11.8-7.6-14.6-13.7c-0.5-1.1-1.2-3.6-2.5-4.1c-2.2-0.9-2.5,4.8-3.1,6.5c-0.3,1-3.3,6.9-2.9,7.6
			c-3.1-5.7,0.4-13.1-2-19.1c-1.8-4.6-6.6-7.2-10.6-10.1c-6.7-4.9-12.1-11.5-15.6-19.1c-3.7,3.6-4.1,9.4-3.9,14.5
			c0.2,8.2,1.1,16.5,2.6,24.6c0.8,4.4,2,9.1,5.4,12c0.7,0.6,1.5,1.1,2,2c0.5,0.8,0.5,2-0.3,2.5c-0.5,0.3-1.2,0.3-1.8,0.1
			c-3.4-0.9-5.7-4.1-7.6-7.1c-3.7,11-1.9,23.6,4.8,33.1c0.6,0.8,1.2,1.7,2.1,2.2c0.9,0.6,2,0.9,3,1.1c5.4,1.3,10.7,2.5,16.1,3.8
			c-4.8-0.2-9.7-0.4-14.5-0.6c-0.6,0-1.2,0-1.8,0.2c-1.6,0.7-1.5,3-1,4.7c3.2,10.7,10.2,20.2,19.5,26.3s20.8,8.8,31.9,7.4
			C125.6,750.6,131.2,748.8,135.5,745.2z"/>
		<path class="st19" d="M127.6,747.3c-5.9-7.3-11.5-14.7-17-22.2c-5.5-7.5-10.8-15.2-16-23c-5.1-7.8-10-15.7-14.5-23.9
			c-2.2-4.1-4.3-8.3-6.2-12.6c-1.8-4.3-3.5-8.7-4.3-13.3c1,4.6,2.8,8.9,4.8,13.1c2,4.2,4.1,8.3,6.4,12.4c4.6,8.1,9.5,16,14.7,23.8
			c5.1,7.8,10.4,15.5,15.8,23.1c2.7,3.8,5.4,7.6,8.1,11.4C122.1,739.8,124.8,743.5,127.6,747.3z"/>
	</g>
	<g>
		<path class="st0" d="M529.8,564.3c-18.3,14.8,8.2,37.5,8.6,49.6s-32-8.7-30.7,6.3c1.3,15,36.9,31.9,36.7,34.9
			c-0.4,9.3-30.7,6.3-23.4,19.4c7.3,13.1,57.6,7,48.2,19.1s-26.4-1.2-26,11c0.4,12.2,29.9,33.9,54.6,29.4
			c24.7-4.5,56.3-29.4,57.1-48.1c0.8-18.7-0.1-43-10.3-33.7c-10.2,9.3-24.3,16.6-23.9,7.3c0.4-8.4,16.1-54.1-0.9-45.8
			s-12.8,22.3-20.5,18.5c-7.7-3.8,5.9-44.8-1.8-48.6c-7.7-3.8-11.1,6.4-24.3,16.6C560.1,610.4,548.1,549.5,529.8,564.3z"/>
		<g>
			<path class="st1" d="M618.5,717.2c-10.8-15.5-21.2-31.3-31.2-47.3c-7.9-12.7-15.7-25.5-22.7-38.7c-2.9-5.5-5.7-11.1-8.2-16.9
				c-3.1-7.3-5.4-14.9-8.6-22.2c-2.2-5.1-4.7-10.7-8.6-14.7c-0.7-0.7-1.9-2.1-3-2c-0.8,0.1-1.4,1.2-2.2,1.2c0.9-0.1,1.9,0.9,2.4,1.4
				c3,2.7,5,6.6,6.8,10.2c3.9,7.7,6.5,15.8,9.6,23.8c2.1,5.4,4.6,10.7,7.3,15.8c12.9,25.3,28.6,49.4,44.3,73
				c3.9,5.9,7.9,11.8,11.9,17.6C616.4,718.6,618.5,717.2,618.5,717.2L618.5,717.2z"/>
		</g>
	</g>
	<g>
		<path class="st0" d="M629.4,663.1c1.3-0.7,3.4,0.6,5.1,1.5c7,3.9,13.8,8.3,19.5,14c5.7,5.7,10.2,12.7,11.9,20.6
			c2.7,12.3-1.6,25-1.1,37.6c-5.3-1.3-10.4-3.1-15.4-5.2c-5-2.2-10-4.9-13.5-9.1c-5.4-6.5-6.5-15.4-7.2-23.7
			c-1-11.2-1.6-22.4-0.2-33.5C628.5,664,628.9,663.4,629.4,663.1z"/>
		<path class="st1" d="M663.9,735.3l-4.6-8.2l-4.4-8.3c-2.9-5.5-5.8-11-8.7-16.6c-2.8-5.6-5.6-11.2-8-16.9c-1.3-2.9-2.3-5.8-3.3-8.8
			l-2.9-8.9l3.1,8.8c1,3,2,5.9,3.3,8.7c2.5,5.7,5.3,11.3,8.2,16.9c2.8,5.6,5.7,11.1,8.6,16.7L663.9,735.3z"/>
		<path class="st1" d="M632.1,691.4c1.3,0.7,2.5,1.6,3.7,2.3c0.6,0.4,1.2,0.8,1.9,1.2c0.6,0.4,1.3,0.7,1.9,1.1
			c-0.7-0.2-1.4-0.4-2.1-0.8c-0.7-0.3-1.3-0.7-1.9-1.1C634.4,693.3,633.2,692.4,632.1,691.4z"/>
		<path class="st1" d="M646.3,678.1c0.3,2.3,0.3,4.6,0.3,6.8c-0.1,1.1-0.1,2.3-0.3,3.4c-0.2,1.1-0.4,2.3-0.9,3.3
			c0.3-1.1,0.4-2.2,0.5-3.4c0.1-1.1,0.2-2.3,0.2-3.4C646.3,682.7,646.3,680.4,646.3,678.1z"/>
		<path class="st1" d="M655.9,686.3c-0.4,3.1-1,6.1-1.7,9.2c-0.4,1.5-0.7,3-1.2,4.5c-0.5,1.5-0.9,3-1.5,4.4c0.8-3,1.6-6,2.3-9
			L655.9,686.3z"/>
		<path class="st1" d="M632.2,704.8c2,1.1,4,2.3,6,3.3c1,0.5,2,1,3.1,1.5c1,0.4,2.1,0.8,3.3,0.9c-1.2,0.1-2.3-0.2-3.4-0.6
			c-1.1-0.4-2.1-0.9-3.2-1.4c-1-0.6-2-1.1-3-1.7C634,706.2,633.1,705.5,632.2,704.8z"/>
		<path class="st1" d="M662,700.4c-0.1,2.8-0.6,5.6-1.1,8.4c-0.3,1.4-0.6,2.8-1.1,4.1c-0.5,1.3-1,2.7-2.1,3.7c0.5-0.5,0.8-1.2,1-1.8
			c0.3-0.6,0.5-1.3,0.7-2c0.4-1.3,0.7-2.7,1-4.1C661.1,706,661.5,703.2,662,700.4z"/>
		<path class="st1" d="M639.9,717.1c1,0.4,2,0.8,3,1.2c1,0.4,2,0.8,3,1.1c1,0.3,2,0.6,3.1,0.8c1,0.2,2.1,0.3,3.2,0.2
			c-1.1,0.3-2.2,0.2-3.2,0.1c-1.1-0.1-2.1-0.4-3.2-0.7C643.7,719.1,641.7,718.2,639.9,717.1z"/>
	</g>
	<g>
		<path class="st0" d="M875.3,709.6c0.5-0.4,1-0.9,1.4-1.3c4.6-4.7,6.8-11.4,6.9-18c0.3-13.5-6.1-26.8-13.1-38
			c-0.2-0.4-0.5-0.8-0.9-0.9c-0.8-0.3-1.6,0.5-2.1,1.2c-3.3,4.9-4.3,11.7-9.1,15.1c0.1-3.8,1.5-7.4,2.4-11.1c0.9-3.7,1.1-7.9-1-11.1
			c-1.3-2-3.3-3.4-5.3-4.7c-5.7-3.7-11.8-7.6-14.6-13.7c-0.5-1.1-1.2-3.6-2.5-4.1c-2.2-0.9-2.5,4.8-3.1,6.5c-0.3,1-3.3,6.9-2.9,7.6
			c-3.1-5.7,0.4-13.1-2-19.1c-1.8-4.6-6.6-7.2-10.6-10.1c-6.7-4.9-12.1-11.5-15.6-19.1c-3.7,3.6-4.1,9.4-3.9,14.5
			c0.2,8.2,1.1,16.5,2.6,24.6c0.8,4.4,2,9.1,5.4,12c0.7,0.6,1.5,1.1,2,2c0.5,0.8,0.5,2-0.3,2.5c-0.5,0.3-1.2,0.3-1.8,0.1
			c-3.4-0.9-5.7-4.1-7.6-7.1c-3.7,11-1.9,23.6,4.8,33.1c0.6,0.8,1.2,1.7,2.1,2.2c0.9,0.6,2,0.9,3,1.1c5.4,1.3,10.7,2.5,16.1,3.8
			c-4.8-0.2-9.7-0.4-14.5-0.6c-0.6,0-1.2,0-1.8,0.2c-1.6,0.7-1.5,3-1,4.7c3.2,10.7,10.2,20.2,19.5,26.3c9.3,6.1,20.8,8.8,31.9,7.4
			C865.3,715,870.9,713.1,875.3,709.6z"/>
		<path class="st19" d="M867.3,711.6c-5.9-7.3-11.5-14.7-17-22.2c-5.5-7.5-10.8-15.2-16-23c-5.1-7.8-10-15.7-14.5-23.9
			c-2.2-4.1-4.3-8.3-6.2-12.6c-1.8-4.3-3.5-8.7-4.3-13.3c1,4.6,2.8,8.9,4.8,13.1c2,4.2,4.1,8.3,6.4,12.4c4.6,8.1,9.5,16,14.7,23.8
			c5.1,7.8,10.4,15.5,15.8,23.1c2.7,3.8,5.4,7.6,8.1,11.4C861.8,704.1,864.6,707.9,867.3,711.6z"/>
	</g>
	<g>
		<g>
			<g>
				<defs>
					<path id="SVGID_4_" d="M405.6,790.6c0,0,9.9,2.5,12.4,5c2.5,2.5-27.3,2.5-27.3,2.5s2.5-65,5-75c2.5-10-7.4-57.5-9.9-60
						c-2.5-2.5-2.5,5-2.5,5s0,45-5,62.5c-5,17.5-9.9,42.5-9.9,45v12.5c0,0,9.9,2.5,9.9,5c0,2.5-24.8,2.5-24.8,2.5s5-92.5,5-95
						c0-2.5,0-25-2.5-35c-2.5-10-2.5-32.5-2.5-32.5v-5h67c0,0,0,57.5-2.5,75c-2.5,17.5-7.4,52.5-7.4,52.5L405.6,790.6z"/>
				</defs>
				<clipPath id="SVGID_5_">
					<use xlink:href="#SVGID_4_"  style="overflow:visible;"/>
				</clipPath>
				<g class="st23">
					<defs>
						<rect id="SVGID_6_" x="-785.5" y="-1170.9" width="1440" height="4951"/>
					</defs>
					<clipPath id="SVGID_7_">
						<use xlink:href="#SVGID_6_"  style="overflow:visible;"/>
					</clipPath>
					<rect x="348.5" y="623.1" class="st24" width="77" height="180"/>
				</g>
			</g>
			<g>
				<defs>
					<path id="SVGID_8_" d="M505.1,527.1c0-1.2,2.2-2.9,2.5,0c0.3,2.5-2.5,2.5,0,5c2.5,2.5,2.5,10,0,10c-2.5,0-25.1,14.9-25.1,14.9
						s-25.1,17.4-30.1,14.9c-5-2.5-30.1-19.9-35.1-19.9c-5,0-40.1-14.9-40.1-22.4v-21.7c0-0.4,0.1-0.8,0.2-1.2
						c0.5-1.8,1.9-7.7-0.2-11.9c-2.5-5-3.8-21.1,6.3-23.6c10-2.5,17.5,0,20.1,5c2.5,5,2.5,12.4,2.5,17.4c0,3.1-1,8.1-1.7,11.4
						c-0.5,2-2.3,3.5-4.4,3.5h-0.4c-2.9,0-5.1,2.7-4.4,5.5c0.2,0.6,0.4,1.3,0.8,2c2.5,5,45.1,29.9,50.1,32.4
						c2.6,1.3,4.5,2.6,5.8,3.5c1.2,0.9,2.7,1.1,4.1,0.7l36.7-11.4c0.7-0.2,1.3-0.6,1.8-1.1C497.3,537.2,505.1,528.3,505.1,527.1"/>
				</defs>
				<clipPath id="SVGID_9_">
					<use xlink:href="#SVGID_8_"  style="overflow:visible;"/>
				</clipPath>
				<g class="st25">
					<defs>
						<rect id="SVGID_10_" x="-785.5" y="-1170.9" width="1440" height="4951"/>
					</defs>
					<clipPath id="SVGID_11_">
						<use xlink:href="#SVGID_10_"  style="overflow:visible;"/>
					</clipPath>
					<rect x="370.5" y="465.1" class="st26" width="144" height="112"/>
				</g>
			</g>
			<g>
				<defs>
					<path id="SVGID_12_" d="M447.5,545.9c0.1,0.7-0.5,1.9-0.8,2.6c-0.7,2.2-1.5,4.4-2.2,6.7c-0.5,1.4-5.1,12.7-4.4,13.3
						c-3.8-3.4-8.2-6.2-12.9-8.2c-1.1-0.5-2.5-0.9-3.6-0.3c-1.4,0.7-1.7,2.6-1.8,4.1c-1.3,20.8-1.8,41.6-1.6,62.4c0,1.5,0,3-0.6,4.3
						c-0.5,1-1.4,1.8-2.2,2.6c-8.7,7.5-19.8,12.3-31.3,12.8c-11.5,0.5-23.2-3.4-31.6-11.3c-0.8-0.7-1.6-1.5-2-2.5
						c-0.5-1-0.6-2.2-0.7-3.3c-1.3-17.6,4.8-35,4.4-52.6c-0.4-15.6-6.1-31.2-3.3-46.6c0.4-2.3,1.1-4.8,2.7-6.5
						c1.2-1.3,2.9-2.1,4.6-2.8c5.6-2.4,11.6-3.9,17.6-4.6c-0.9,0.1,1.1,3.4,1.4,3.7c1.2,0.9,3.3,1.3,4.8,1.5
						c4.1,0.7,9.8,0.2,12.6-3.3c0.6-0.8,1.1-1.7,2-2.2c0.7-0.4,1.7-0.5,2.5-0.5c9.6,0.1,18.6,4.7,26.1,10.7
						c6.6,5.3,12.3,11.7,18.3,17.7c0.5,0.5,1.9,1.5,2.1,2.2C447.5,545.8,447.5,545.8,447.5,545.9"/>
				</defs>
				<clipPath id="SVGID_13_">
					<use xlink:href="#SVGID_12_"  style="overflow:visible;"/>
				</clipPath>
				<g class="st27">
					<defs>
						<rect id="SVGID_14_" x="-785.5" y="-1170.9" width="1440" height="4951"/>
					</defs>
					<clipPath id="SVGID_15_">
						<use xlink:href="#SVGID_14_"  style="overflow:visible;"/>
					</clipPath>
					<rect x="346.5" y="510.1" class="st28" width="106" height="141"/>
				</g>
			</g>
			<g>
				<defs>
					<rect id="SVGID_16_" x="365.9" y="459.1" width="39.8" height="50.5"/>
				</defs>
				<clipPath id="SVGID_17_">
					<use xlink:href="#SVGID_16_"  style="overflow:visible;"/>
				</clipPath>
				<g class="st29">
					<defs>
						<rect id="SVGID_18_" x="-785.5" y="-1170.9" width="1440" height="4951"/>
					</defs>
					<clipPath id="SVGID_19_">
						<use xlink:href="#SVGID_18_"  style="overflow:visible;"/>
					</clipPath>
					<g class="st30">
						<g>
							<defs>
								<rect id="SVGID_20_" x="363.5" y="455.1" width="45" height="60"/>
							</defs>
							<clipPath id="SVGID_21_">
								<use xlink:href="#SVGID_20_"  style="overflow:visible;"/>
							</clipPath>
							<g class="st31">
								<defs>
									<path id="SVGID_22_" d="M402.5,497.6c0,0-5.5,0-5.5-5.5s2.7-8.3,5.5-5.5c2.7,2.8,2.7,0,2.7,0s-5.5-8.3-2.7-11.1
										c2.7-2.8,5.5-5.5,0-11.1c-5.5-5.5-13.7-8.3-24.7,0c-11,8.3-13.7,13.9-11,22.2c2.7,8.3,11,19.4,11,19.4s8.2,8.3,16.5,0
										L402.5,497.6z"/>
								</defs>
								<clipPath id="SVGID_23_">
									<use xlink:href="#SVGID_22_"  style="overflow:visible;"/>
								</clipPath>
								<g class="st32">
									<defs>
										<rect id="SVGID_24_" x="365.5" y="459.1" width="41" height="51"/>
									</defs>
									<clipPath id="SVGID_25_">
										<use xlink:href="#SVGID_24_"  style="overflow:visible;"/>
									</clipPath>
									<rect x="360.9" y="454.1" class="st33" width="49.8" height="60.5"/>
								</g>
							</g>
						</g>
					</g>
				</g>
			</g>
		</g>
		<path class="st34" d="M419.8,544.2h-68.2c-5.5,0-9.9-4.4-9.9-9.9v-9.2c0-5.5,4.4-9.9,9.9-9.9h68.2c5.5,0,9.9,4.4,9.9,9.9v9.2
			C429.8,539.8,425.3,544.2,419.8,544.2z"/>
		<path class="st35" d="M414.6,623.5h-55.2c-9.1,0-16.4-7.3-16.4-16.4v-46.6c0-9.1,7.3-16.4,16.4-16.4h55.2
			c9.1,0,16.4,7.3,16.4,16.4v46.6C431,616.2,423.6,623.5,414.6,623.5z"/>
	</g>
</g>
</svg>
