<?xml version="1.0" encoding="UTF-8"?>
<svg width="236px" height="124px" viewBox="0 0 236 124" version="1.1" xmlns="http://www.w3.org/2000/svg" xmlns:xlink="http://www.w3.org/1999/xlink">
    <!-- Generator: Sketch 50.2 (55047) - http://www.bohemiancoding.com/sketch -->
    <title>Group 2 Copy</title>
    <desc>Created with Sketch.</desc>
    <defs></defs>
    <g id="Page-1" stroke="none" stroke-width="1" fill="none" fill-rule="evenodd">
        <g id="Home" transform="translate(-229.000000, -3110.000000)">
            <g id="Diagnostic-Services" transform="translate(204.000000, 3110.000000)">
                <g id="Group-15">
                    <g id="Group-2-Copy" transform="translate(143.000000, 62.000000) scale(1, -1) rotate(90.000000) translate(-143.000000, -62.000000) translate(81.000000, -56.000000)">
                        <rect id="Rectangle-7-Copy-2" fill="#20D5D2" x="8" y="39" width="75" height="6"></rect>
                        <rect id="Rectangle-7-Copy-2" fill="#0F6FFF" x="1" y="39" width="19" height="6"></rect>
                        <rect id="Rectangle-7-Copy-2" fill="#0F6FFF" x="11" y="39" width="105" height="6"></rect>
                        <rect id="Rectangle-7-Copy-2" fill="#FF6464" x="0" y="39" width="12" height="6"></rect>
                        <rect id="Rectangle-7-Copy-2" fill="#FF6464" x="3" y="30" width="36" height="6"></rect>
                        <rect id="Rectangle-7-Copy-2" fill="#20D5D2" x="0" y="30" width="7" height="6"></rect>
                        <rect id="Rectangle-7-Copy-2" fill="#20D5D2" x="0" y="30" width="7" height="6"></rect>
                        <rect id="Rectangle-7-Copy-2" fill="#20D5D2" x="6" y="49" width="60" height="6"></rect>
                        <rect id="Rectangle-7-Copy-2" fill="#20D5D2" x="2" y="49" width="25" height="6"></rect>
                        <rect id="Rectangle-7-Copy-2" fill="#20D5D2" x="2" y="49" width="25" height="6"></rect>
                        <rect id="Rectangle-7" fill="#20D5D2" x="1" y="190" width="17" height="6"></rect>
                        <rect id="Rectangle-7" fill="#20D5D2" x="2" y="190" width="27" height="6"></rect>
                        <rect id="Rectangle-7-Copy" fill="#0F6FFF" x="3" y="190" width="33" height="6"></rect>
                        <rect id="Rectangle-7-Copy-2" fill="#FFE38D" x="8" y="199" width="75" height="6"></rect>
                        <rect id="Rectangle-7-Copy-2" fill="#20D5D2" x="6" y="210" width="60" height="6"></rect>
                        <rect id="Rectangle-7-Copy-2" fill="#0F6FFF" x="3" y="210" width="36" height="6"></rect>
                        <rect id="Rectangle-7-Copy-2" fill="#FFE38D" x="8" y="220" width="74" height="6"></rect>
                        <rect id="Rectangle-7-Copy-2" fill="#FF6464" x="0" y="220" width="7" height="6"></rect>
                        <rect id="Rectangle-7-Copy-2" fill="#FFFFFF" x="2" y="210" width="23" height="6"></rect>
                        <rect id="Rectangle-7-Copy-2" fill="#FFFFFF" x="1" y="220" width="17" height="6"></rect>
                        <rect id="Rectangle-7" fill="#0F6FFF" x="3" y="59" width="37" height="6"></rect>
                        <rect id="Rectangle-7" fill="#20D5D2" x="1" y="69" width="17" height="6"></rect>
                        <rect id="Rectangle-7" fill="#20D5D2" x="0" y="77" width="10" height="6"></rect>
                        <rect id="Rectangle-7" fill="#FFE38D" x="2" y="69" width="27" height="6"></rect>
                        <rect id="Rectangle-7" fill="#0F6FFF" x="5" y="118" width="52" height="6"></rect>
                        <rect id="Rectangle-7" fill="#FFE38D" x="3" y="118" width="33" height="6"></rect>
                        <rect id="Rectangle-7" fill="#FF6464" x="6" y="118" width="58" height="6"></rect>
                        <rect id="Rectangle-7" fill="#FFFFFF" x="0" y="118" width="7" height="6"></rect>
                        <rect id="Rectangle-7" fill="#0F6FFF" x="2" y="118" width="27" height="6"></rect>
                        <rect id="Rectangle-7-Copy-3" fill="#FFE38D" x="8" y="87" width="77" height="6"></rect>
                        <rect id="Rectangle-7-Copy-3" fill="#0F6FFF" x="1" y="109" width="20" height="6"></rect>
                        <rect id="Rectangle-7-Copy" fill="#FF6464" x="4" y="69" width="46" height="6"></rect>
                        <rect id="Rectangle-7-Copy-2" fill="#0F6FFF" x="12" y="77" width="112" height="6"></rect>
                        <rect id="Rectangle-7-Copy-2" fill="#20D5D2" x="3" y="99" width="36" height="6"></rect>
                        <rect id="Rectangle-7-Copy-2" fill="#20D5D2" x="10" y="99" width="93" height="6"></rect>
                        <rect id="Rectangle-7-Copy-2" fill="#FF6464" x="8" y="109" width="74" height="6"></rect>
                        <rect id="Rectangle-7-Copy-2" fill="#20D5D2" x="0" y="109" width="7" height="6"></rect>
                        <rect id="Rectangle-7-Copy-2" fill="#FFFFFF" x="3" y="99" width="36" height="6"></rect>
                        <rect id="Rectangle-7-Copy-2" fill="#FFFFFF" x="1" y="109" width="17" height="6"></rect>
                        <rect id="Rectangle-7-Copy-2" fill="#FFFFFF" x="1" y="9" width="17" height="6"></rect>
                        <rect id="Rectangle-7-Copy-2" fill="#0F6FFF" x="0" y="20" width="7" height="6"></rect>
                        <rect id="Rectangle-7-Copy-2" fill="#0F6FFF" x="1" y="0" width="17" height="6"></rect>
                        <rect id="Rectangle-7-Copy-2" fill="#0F6FFF" x="2" y="20" width="29" height="6"></rect>
                        <rect id="Rectangle-7-Copy-2" fill="#0F6FFF" x="6" y="0" width="60" height="6"></rect>
                        <rect id="Rectangle-7-Copy-2" fill="#0F6FFF" x="6" y="138" width="57" height="6"></rect>
                        <rect id="Rectangle-7-Copy-2" fill="#20D5D2" x="8" y="138" width="81" height="6"></rect>
                        <rect id="Rectangle-7-Copy-2" fill="#FFFFFF" x="0" y="138" width="10" height="6"></rect>
                        <rect id="Rectangle-7-Copy-2" fill="#20D5D2" x="0" y="138" width="10" height="6"></rect>
                        <rect id="Rectangle-7-Copy-2" fill="#0F6FFF" x="5" y="138" width="54" height="6"></rect>
                        <rect id="Rectangle-7-Copy-2" fill="#FFE38D" x="4" y="128" width="42" height="6"></rect>
                        <rect id="Rectangle-7-Copy-3" fill="#FF6464" x="4" y="149" width="46" height="6"></rect>
                        <rect id="Rectangle-7-Copy-2" fill="#20D5D2" x="3" y="158" width="36" height="6"></rect>
                        <rect id="Rectangle-7-Copy-2" fill="#FFE38D" x="3" y="158" width="36" height="6"></rect>
                        <rect id="Rectangle-7-Copy-2" fill="#0F6FFF" x="0" y="158" width="7" height="6"></rect>
                        <rect id="Rectangle-7-Copy-2" fill="#20D5D2" x="8" y="169" width="74" height="6"></rect>
                        <rect id="Rectangle-7-Copy-2" fill="#20D5D2" x="8" y="169" width="74" height="6"></rect>
                        <rect id="Rectangle-7-Copy-2" fill="#0F6FFF" x="1" y="158" width="17" height="6"></rect>
                        <rect id="Rectangle-7-Copy-2" fill="#FFE38D" x="1" y="169" width="17" height="6"></rect>
                        <rect id="Rectangle-7-Copy-2" fill="#0F6FFF" x="5" y="158" width="49" height="6"></rect>
                        <rect id="Rectangle-7-Copy-2" fill="#FFFFFF" x="1" y="169" width="17" height="6"></rect>
                        <rect id="Rectangle-7-Copy-2" fill="#0F6FFF" x="4" y="230" width="43" height="6"></rect>
                        <rect id="Rectangle-7-Copy-2" fill="#20D5D2" x="4" y="230" width="46" height="6"></rect>
                        <rect id="Rectangle-7-Copy-2" fill="#20D5D2" x="0" y="230" width="10" height="6"></rect>
                        <rect id="Rectangle-7-Copy-2" fill="#20D5D2" x="5" y="230" width="54" height="6"></rect>
                        <rect id="Rectangle-7-Copy-2" fill="#20D5D2" x="0" y="180" width="10" height="6"></rect>
                        <rect id="Rectangle-7-Copy-2" fill="#FF6464" x="10" y="180" width="98" height="6"></rect>
                        <rect id="Rectangle-7-Copy-2" fill="#20D5D2" x="6" y="9" width="60" height="6"></rect>
                        <rect id="Rectangle-7-Copy-2" fill="#20D5D2" x="0" y="20" width="11" height="6"></rect>
                        <rect id="Rectangle-7-Copy-2" fill="#20D5D2" x="8" y="20" width="74" height="6"></rect>
                    </g>
                </g>
            </g>
        </g>
    </g>
</svg>