<?xml version="1.0" encoding="UTF-8"?>
<svg width="459px" height="208px" viewBox="0 0 459 208" version="1.1" xmlns="http://www.w3.org/2000/svg" xmlns:xlink="http://www.w3.org/1999/xlink">
    <!-- Generator: Sketch 50.2 (55047) - http://www.bohemiancoding.com/sketch -->
    <title>Group 2</title>
    <desc>Created with Sketch.</desc>
    <defs>
        <path d="M19.8684114,55.5279883 C19.5926975,55.4776023 19.3292741,55.3695648 19.0959899,55.2094128 L1.57089421,43.1782572 C0.660262018,42.553099 0.42883964,41.3080949 1.05399786,40.3974627 C1.19307844,40.194872 1.36830349,40.0196469 1.57089421,39.8805663 L19.0959899,27.8494107 C19.3360533,27.6846047 19.5993545,27.5793285 19.8684114,27.5303325 L19.8684114,10 C19.8684114,4.4771525 24.3455639,1.01453063e-15 29.8684114,0 L193.893508,0 C199.416355,-1.01453063e-15 203.893508,4.4771525 203.893508,10 L203.893508,74 C203.893508,79.5228475 199.416355,84 193.893508,84 L29.8684114,84 C24.3455639,84 19.8684114,79.5228475 19.8684114,74 L19.8684114,55.5279883 Z" id="path-1"></path>
        <filter x="-6.4%" y="-9.5%" width="112.8%" height="131.0%" filterUnits="objectBoundingBox" id="filter-2">
            <feOffset dx="0" dy="5" in="SourceAlpha" result="shadowOffsetOuter1"></feOffset>
            <feGaussianBlur stdDeviation="3.5" in="shadowOffsetOuter1" result="shadowBlurOuter1"></feGaussianBlur>
            <feColorMatrix values="0 0 0 0 0   0 0 0 0 0   0 0 0 0 0  0 0 0 0.5 0" type="matrix" in="shadowBlurOuter1"></feColorMatrix>
        </filter>
    </defs>
    <g id="Page-1" stroke="none" stroke-width="1" fill="none" fill-rule="evenodd">
        <g id="Home" transform="translate(-805.000000, -3287.000000)">
            <g id="Group-16" transform="translate(769.000000, 3287.000000)">
                <g id="Group-2" transform="translate(36.000000, 0.000000)">
                    <rect id="Rectangle-7-Copy-2" fill="#20D5D2" x="0" y="34" width="66" height="5"></rect>
                    <rect id="Rectangle-7-Copy-2" fill="#0F6FFF" x="70" y="34" width="17" height="5"></rect>
                    <rect id="Rectangle-7-Copy-2" fill="#0F6FFF" x="90" y="34" width="93" height="5"></rect>
                    <rect id="Rectangle-7-Copy-2" fill="#FF6464" x="190" y="34" width="11" height="5"></rect>
                    <rect id="Rectangle-7-Copy-2" fill="#FF6464" x="0" y="26" width="32" height="5"></rect>
                    <rect id="Rectangle-7-Copy-2" fill="#20D5D2" x="36" y="26" width="6" height="5"></rect>
                    <rect id="Rectangle-7-Copy-2" fill="#20D5D2" x="46" y="26" width="6" height="5"></rect>
                    <rect id="Rectangle-7-Copy-2" fill="#20D5D2" x="54" y="43" width="53" height="5"></rect>
                    <rect id="Rectangle-7-Copy-2" fill="#20D5D2" x="112" y="43" width="22" height="5"></rect>
                    <rect id="Rectangle-7-Copy-2" fill="#20D5D2" x="139" y="43" width="22" height="5"></rect>
                    <rect id="Rectangle-7" fill="#20D5D2" x="34" y="168" width="15" height="5"></rect>
                    <rect id="Rectangle-7" fill="#20D5D2" x="53" y="168" width="24" height="5"></rect>
                    <rect id="Rectangle-7-Copy" fill="#0F6FFF" x="0" y="168" width="29" height="5"></rect>
                    <rect id="Rectangle-7-Copy-2" fill="#FFE38D" x="0" y="176" width="66" height="5"></rect>
                    <rect id="Rectangle-7-Copy-2" fill="#20D5D2" x="54" y="185" width="53" height="5"></rect>
                    <rect id="Rectangle-7-Copy-2" fill="#0F6FFF" x="137" y="185" width="32" height="5"></rect>
                    <rect id="Rectangle-7-Copy-2" fill="#FFE38D" x="74" y="194" width="65" height="5"></rect>
                    <rect id="Rectangle-7-Copy-2" fill="#FF6464" x="143" y="194" width="6" height="5"></rect>
                    <rect id="Rectangle-7-Copy-2" fill="#FFFFFF" x="112" y="185" width="20" height="5"></rect>
                    <rect id="Rectangle-7-Copy-2" fill="#FFFFFF" x="54" y="194" width="15" height="5"></rect>
                    <rect id="Rectangle-7" fill="#0F6FFF" x="0" y="52" width="33" height="5"></rect>
                    <rect id="Rectangle-7" fill="#20D5D2" x="45" y="61" width="15" height="5"></rect>
                    <rect id="Rectangle-7" fill="#20D5D2" x="104" y="68" width="9" height="5"></rect>
                    <rect id="Rectangle-7" fill="#FFE38D" x="63" y="61" width="24" height="5"></rect>
                    <rect id="Rectangle-7" fill="#0F6FFF" x="54" y="104" width="46" height="5"></rect>
                    <rect id="Rectangle-7" fill="#FFE38D" x="133" y="104" width="29" height="5"></rect>
                    <rect id="Rectangle-7" fill="#FF6464" x="178" y="104" width="51" height="5"></rect>
                    <rect id="Rectangle-7" fill="#FFFFFF" x="167" y="104" width="6" height="5"></rect>
                    <rect id="Rectangle-7" fill="#0F6FFF" x="105" y="104" width="24" height="5"></rect>
                    <rect id="Rectangle-7-Copy-3" fill="#FFE38D" x="54" y="77" width="68" height="5"></rect>
                    <rect id="Rectangle-7-Copy-3" fill="#0F6FFF" x="153" y="96" width="18" height="5"></rect>
                    <rect id="Rectangle-7-Copy" fill="#FF6464" x="0" y="61" width="41" height="5"></rect>
                    <rect id="Rectangle-7-Copy-2" fill="#0F6FFF" x="0" y="68" width="99" height="5"></rect>
                    <rect id="Rectangle-7-Copy-2" fill="#20D5D2" x="54" y="87" width="32" height="5"></rect>
                    <rect id="Rectangle-7-Copy-2" fill="#20D5D2" x="125" y="87" width="82" height="5"></rect>
                    <rect id="Rectangle-7-Copy-2" fill="#FF6464" x="74" y="96" width="65" height="5"></rect>
                    <rect id="Rectangle-7-Copy-2" fill="#20D5D2" x="143" y="96" width="6" height="5"></rect>
                    <rect id="Rectangle-7-Copy-2" fill="#FFFFFF" x="89" y="87" width="32" height="5"></rect>
                    <rect id="Rectangle-7-Copy-2" fill="#FFFFFF" x="54" y="96" width="15" height="5"></rect>
                    <rect id="Rectangle-7-Copy-2" fill="#FFFFFF" x="112" y="8" width="15" height="5"></rect>
                    <rect id="Rectangle-7-Copy-2" fill="#0F6FFF" x="167" y="17" width="6" height="5"></rect>
                    <rect id="Rectangle-7-Copy-2" fill="#0F6FFF" x="0" y="0" width="15" height="5"></rect>
                    <rect id="Rectangle-7-Copy-2" fill="#0F6FFF" x="54" y="17" width="26" height="5"></rect>
                    <rect id="Rectangle-7-Copy-2" fill="#0F6FFF" x="20" y="0" width="53" height="5"></rect>
                    <rect id="Rectangle-7-Copy-2" fill="#0F6FFF" x="0" y="122" width="50" height="5"></rect>
                    <rect id="Rectangle-7-Copy-2" fill="#20D5D2" x="54" y="122" width="72" height="5"></rect>
                    <rect id="Rectangle-7-Copy-2" fill="#FFFFFF" x="129" y="122" width="9" height="5"></rect>
                    <rect id="Rectangle-7-Copy-2" fill="#20D5D2" x="143" y="122" width="9" height="5"></rect>
                    <rect id="Rectangle-7-Copy-2" fill="#0F6FFF" x="156" y="122" width="48" height="5"></rect>
                    <rect id="Rectangle-7-Copy-2" fill="#FFE38D" x="0" y="113" width="37" height="5"></rect>
                    <rect id="Rectangle-7-Copy-3" fill="#FF6464" x="54" y="131" width="41" height="5"></rect>
                    <rect id="Rectangle-7-Copy-2" fill="#20D5D2" x="54" y="139" width="32" height="5"></rect>
                    <rect id="Rectangle-7-Copy-2" fill="#FFE38D" x="109" y="139" width="32" height="5"></rect>
                    <rect id="Rectangle-7-Copy-2" fill="#0F6FFF" x="191" y="139" width="6" height="5"></rect>
                    <rect id="Rectangle-7-Copy-2" fill="#20D5D2" x="74" y="149" width="65" height="5"></rect>
                    <rect id="Rectangle-7-Copy-2" fill="#20D5D2" x="143" y="149" width="65" height="5"></rect>
                    <rect id="Rectangle-7-Copy-2" fill="#0F6FFF" x="89" y="139" width="15" height="5"></rect>
                    <rect id="Rectangle-7-Copy-2" fill="#FFE38D" x="212" y="149" width="15" height="5"></rect>
                    <rect id="Rectangle-7-Copy-2" fill="#0F6FFF" x="145" y="139" width="43" height="5"></rect>
                    <rect id="Rectangle-7-Copy-2" fill="#FFFFFF" x="54" y="149" width="15" height="5"></rect>
                    <rect id="Rectangle-7-Copy-2" fill="#0F6FFF" x="54" y="203" width="38" height="5"></rect>
                    <rect id="Rectangle-7-Copy-2" fill="#20D5D2" x="96" y="203" width="41" height="5"></rect>
                    <rect id="Rectangle-7-Copy-2" fill="#20D5D2" x="143" y="203" width="9" height="5"></rect>
                    <rect id="Rectangle-7-Copy-2" fill="#20D5D2" x="156" y="203" width="48" height="5"></rect>
                    <rect id="Rectangle-7-Copy-2" fill="#20D5D2" x="0" y="159" width="9" height="5"></rect>
                    <rect id="Rectangle-7-Copy-2" fill="#FF6464" x="13" y="159" width="87" height="5"></rect>
                    <rect id="Rectangle-7-Copy-2" fill="#20D5D2" x="54" y="8" width="53" height="5"></rect>
                    <rect id="Rectangle-7-Copy-2" fill="#20D5D2" x="85" y="17" width="10" height="5"></rect>
                    <rect id="Rectangle-7-Copy-2" fill="#20D5D2" x="98" y="17" width="65" height="5"></rect>
                    <g id="Group" transform="translate(248.000000, 65.000000)">
                        <g id="Combined-Shape">
                            <use fill="black" fill-opacity="1" filter="url(#filter-2)" xlink:href="#path-1"></use>
                            <use fill="#FF6464" fill-rule="evenodd" xlink:href="#path-1"></use>
                        </g>
                        <text id="Syntax-bug:-squash?" font-family="IBMPlexSans-Text, IBM Plex Sans" font-size="16" font-weight="500" line-spacing="38" fill="#FFFFFF">
                            <tspan x="35.5675676" y="37.4509804">Syntax bug: squash?</tspan>
                        </text>
                    </g>
                </g>
            </g>
        </g>
    </g>
</svg>