<?xml version="1.0" encoding="UTF-8"?>
<svg width="126px" height="125px" viewBox="0 0 126 125" version="1.1" xmlns="http://www.w3.org/2000/svg" xmlns:xlink="http://www.w3.org/1999/xlink">
    <!-- Generator: Sketch 49.3 (51167) - http://www.bohemiancoding.com/sketch -->
    <title>Group 19</title>
    <desc>Created with Sketch.</desc>
    <defs></defs>
    <g id="Page-1" stroke="none" stroke-width="1" fill="none" fill-rule="evenodd">
        <g id="Artboard-3-Copy" transform="translate(-29.000000, -7.000000)">
            <g id="Group-19" transform="translate(32.000000, 9.000000)">
                <path d="M60,120 C93.137085,120 120,93.137085 120,60 C120,26.862915 93.137085,0 60,0 C26.862915,0 0,26.862915 0,60 C0,93.137085 26.862915,120 60,120 Z" id="Oval-3" stroke="#FFAA64" stroke-width="5" stroke-dasharray="14,47,7"></path>
                <g id="Group-18" transform="translate(22.809917, 23.801653)" stroke="#00132E" stroke-linejoin="round" stroke-width="5.39">
                    <g id="Group-10-Copy-7" transform="translate(32.467532, 35.799234)">
                        <polygon id="Stroke-1" points="20.9562075 19.0533935 10.4781582 37.5891957 31.4345836 37.5891957 41.9126328 19.0533935 41.9119791 19.0520581 41.9109985 19.0533935"></polygon>
                        <polygon id="Stroke-5" points="20.9550089 18.5366368 10.4775045 0 0 18.5366368 10.4781582 37.0742752 20.9563164 18.5366368"></polygon>
                        <polygon id="Stroke-7" points="10.4781582 0 20.9564254 18.5371376 41.9119791 18.5371376 41.9126328 18.536136 31.4350194 0"></polygon>
                    </g>
                    <g id="Group-10-Copy-6" transform="translate(32.467532, 0.000000)">
                        <polygon id="Stroke-1" points="20.9562075 19.0533935 10.4781582 37.5891957 31.4345836 37.5891957 41.9126328 19.0533935 41.9119791 19.0520581 41.9109985 19.0533935"></polygon>
                        <polygon id="Stroke-5" points="20.9550089 18.5366368 10.4775045 0 0 18.5366368 10.4781582 37.0742752 20.9563164 18.5366368"></polygon>
                        <polygon id="Stroke-7" points="10.4781582 0 20.9564254 18.5371376 41.9119791 18.5371376 41.9126328 18.536136 31.4350194 0"></polygon>
                    </g>
                    <g id="Group-10-Copy-5" transform="translate(0.000000, 19.689579)">
                        <polygon id="Stroke-1" points="20.9562075 19.0533935 10.4781582 37.5891957 31.4345836 37.5891957 41.9126328 19.0533935 41.9119791 19.0520581 41.9109985 19.0533935"></polygon>
                        <polygon id="Stroke-5" points="20.9550089 18.5366368 10.4775045 0 0 18.5366368 10.4781582 37.0742752 20.9563164 18.5366368"></polygon>
                        <polygon id="Stroke-7" points="10.4781582 0 20.9564254 18.5371376 41.9119791 18.5371376 41.9126328 18.536136 31.4350194 0"></polygon>
                    </g>
                </g>
            </g>
        </g>
    </g>
</svg>