<?xml version="1.0" encoding="UTF-8"?>
<svg width="140px" height="121px" viewBox="0 0 140 121" version="1.1" xmlns="http://www.w3.org/2000/svg" xmlns:xlink="http://www.w3.org/1999/xlink">
    <!-- Generator: Sketch 49.3 (51167) - http://www.bohemiancoding.com/sketch -->
    <title>Pipes</title>
    <desc>Created with Sketch.</desc>
    <defs>
        <path d="M38.1744186,58.5999648 C38.1744186,55.5045968 40.687385,52.9953052 43.7822552,52.9953052 L49.8727693,52.9953052" id="path-1"></path>
        <path d="M17.1395349,29.7149894 L17.1395349,14.9567723 L17.1395349,14.9567723 C17.1395349,11.8614043 19.4826546,9.35211268 22.3703443,9.35211268 L27.7566733,9.35211268 L82.4411628,9.35211268 L89.0372289,9.35211268 C91.9257958,9.35211268 94.2674419,11.8610083 94.2674419,14.957882 L94.2674419,28.099444 L94.2674419,42.4180924 C94.2674419,45.5120098 91.9266634,48.0201254 89.0394031,48.0201254 L82.8870585,48.0201254" id="path-2"></path>
        <path d="M91.1634669,60.0093897 L91.9254943,60.0093897 L124.73403,60.0093897 L126.221437,60.0093897 C129.318591,60.0093897 131.82933,62.154811 131.82933,64.8030275 L131.82933,76.0407159 L131.82933,88.2849612 C131.82933,90.9306497 129.316005,93.075404 126.22222,93.075404 L125.001549,93.075404" id="path-3"></path>
        <path d="M17.2921907,79.4208798 C14.1960028,79.4208798 11.6860465,76.9140105 11.6860465,73.8168066 L11.6860465,61.1157438 L11.6860465,28.9849413 L11.6860465,46.3575267" id="path-4"></path>
        <path d="M114.179155,101.951802 L99.8735861,101.951802 C96.7773981,101.951802 94.2674419,98.1626906 94.2674419,93.4812932 L94.2674419,74.2837448 L94.2674419,25.7183099 L94.2674419,51.9768251" id="path-5"></path>
        <path d="M88.619938,111.779629 L80.3262351,111.779629 L14.8674126,111.779629 L5.61013684,111.779629 C2.51174382,111.779629 0,109.635941 0,106.987442 L0,96.1264357 L0,83.5063039 L0,83.5063039 C0,80.8593749 2.50869468,78.713615 5.60927306,78.713615 L12.9713594,78.713615" id="path-6"></path>
        <path d="M98.747845,111.779629 L90.4541421,111.779629 L24.9953196,111.779629 L15.7380438,111.779629 C12.6396508,111.779629 10.127907,109.635941 10.127907,106.987442 L10.127907,96.1264357 L10.127907,83.5063039 L10.127907,83.5063039 C10.127907,80.8593749 12.6366017,78.713615 15.73718,78.713615 L23.0992664,78.713615" id="path-7"></path>
        <path d="M59.9883721,92.1117019 C59.9883721,89.0163338 62.5013385,86.5070423 65.5962087,86.5070423 L71.6867227,86.5070423" id="path-8"></path>
        <path d="M38.1744186,58.5999648 C38.1744186,55.5045968 40.687385,52.9953052 43.7822552,52.9953052 L49.8727693,52.9953052" id="path-9"></path>
        <path d="M70.8953488,97.5671009 C70.8953488,94.4717329 73.4083152,91.9624413 76.5031854,91.9624413 L82.5936995,91.9624413" id="path-10"></path>
        <path d="M114.523256,92.8910446 C114.523256,89.7956766 117.036222,87.286385 120.131092,87.286385 L126.221606,87.286385" id="path-11"></path>
        <path d="M17.1395349,47.3929334 C17.1395349,44.2975653 19.6525013,41.7882738 22.7473715,41.7882738 L28.8378855,41.7882738" id="path-12"></path>
        <path d="M74.7906977,78.8628756 C74.7906977,75.7675076 77.3036641,73.258216 80.3985343,73.258216 L86.4890483,73.258216" id="path-13"></path>
        <path d="M102.05814,26.6469132 C102.05814,23.5515451 104.571106,21.0422535 107.665976,21.0422535 L113.75649,21.0422535" id="path-14"></path>
        <path d="M26.4883721,53.1445657 C26.4883721,50.0491977 29.0013385,47.5399061 32.0962087,47.5399061 L38.1867227,47.5399061" id="path-15"></path>
        <path d="M82.5813953,102.243157 C82.5813953,99.1477892 85.0943617,96.6384977 88.1892319,96.6384977 L94.279746,96.6384977" id="path-16"></path>
        <path d="M68.5581395,21.0422535 L69.3201669,21.0422535 L102.128702,21.0422535 L103.61611,21.0422535 C106.713264,21.0422535 109.224003,23.1876749 109.224003,25.8358914 L109.224003,37.0735798 L109.224003,49.3178251" id="path-17"></path>
        <rect id="path-18" x="48.3023256" y="54.5539906" width="2.52401999" height="8.40608972" rx="0.864"></rect>
        <rect id="path-19" x="10.9069767" y="74.8169014" width="2.52401999" height="8.40608972" rx="0.864"></rect>
        <rect id="path-20" x="108.290698" y="17.1455399" width="2.52401999" height="8.40608972" rx="0.864"></rect>
        <rect id="path-21" x="124.651163" y="88.8450704" width="2.52401999" height="8.40608972" rx="0.864"></rect>
        <rect id="path-22" x="92.7093023" y="98.1971831" width="2.52401999" height="8.40608972" rx="0.864"></rect>
        <rect id="path-23" x="26.4883721" y="42.8638498" width="2.52401999" height="8.40608972" rx="0.864"></rect>
        <rect id="path-24" x="70.1162791" y="88.0657277" width="2.52401999" height="8.40608972" rx="0.864"></rect>
        <rect id="path-25" x="73.8349116" y="68.7589378" width="2.52401999" height="8.40608972" rx="0.864"></rect>
        <rect id="path-26" x="112.7884" y="22.7777172" width="2.52401999" height="8.40608972" rx="0.864"></rect>
        <rect id="path-27" x="112.7884" y="83.5664495" width="2.52401999" height="8.40608972" rx="0.864"></rect>
        <rect id="path-28" x="81.6256093" y="92.1392195" width="2.52401999" height="8.40608972" rx="0.864"></rect>
        <rect id="path-29" x="67.6023535" y="44.5993134" width="2.52401999" height="8.40608972" rx="0.864"></rect>
        <rect id="path-30" x="16.1837488" y="37.5852289" width="2.52401999" height="8.40608972" rx="0.864"></rect>
        <rect id="path-31" x="16.1837488" y="24.3364026" width="2.52401999" height="8.40608972" rx="0.864"></rect>
        <rect id="path-32" x="37.2186326" y="49.2753697" width="2.52401999" height="8.40608972" rx="0.864"></rect>
        <rect id="path-33" x="85.6976744" y="74.8169014" width="2.52401999" height="8.40608972" rx="0.864"></rect>
        <rect id="path-34" x="9.34883721" y="107.549296" width="2.52401999" height="8.40608972" rx="0.864"></rect>
    </defs>
    <g id="Page-1" stroke="none" stroke-width="1" fill="none" fill-rule="evenodd">
        <g id="Artboard-3-Copy-2" transform="translate(-39.000000, -18.000000)">
            <g id="Pipes-Copy" transform="translate(9.000000, -4.000000)">
                <g id="Group" transform="translate(34.279070, 22.600939)">
                    <g id="Rectangle-7-Copy-51" transform="translate(44.023594, 55.797635) scale(1, -1) translate(-44.023594, -55.797635) ">
                        <use stroke="#00132E" stroke-width="7" xlink:href="#path-1"></use>
                        <use stroke="#F0F3F6" stroke-width="2" xlink:href="#path-1"></use>
                    </g>
                    <g id="Rectangle-7-Copy-23">
                        <use stroke="#00132E" stroke-width="7" xlink:href="#path-2"></use>
                        <use stroke="#F0F3F6" stroke-width="2" xlink:href="#path-2"></use>
                    </g>
                    <g id="Rectangle-7-Copy-32">
                        <use stroke="#00132E" stroke-width="7" xlink:href="#path-3"></use>
                        <use stroke="#F0F3F6" stroke-width="2" xlink:href="#path-3"></use>
                    </g>
                    <g id="cube" transform="translate(35.837209, 35.849765)" fill="#F0F3F6" stroke="#00132E" stroke-linejoin="round" stroke-width="5.39">
                        <g id="Group-10-Copy-5">
                            <polygon id="Stroke-1" points="27.656833 24.8873317 13.8284884 49.0985915 41.4856089 49.0985915 55.3139535 24.8873317 55.3130907 24.8855875 55.3117966 24.8873317"></polygon>
                            <polygon id="Stroke-5" points="27.6552512 24.2123499 13.8276256 0 0 24.2123499 13.8284884 48.4260081 27.6569767 24.2123499"></polygon>
                            <polygon id="Stroke-7" points="13.8284884 0 27.6571205 24.2130041 55.3130907 24.2130041 55.3139535 24.2116958 41.4861841 0"></polygon>
                        </g>
                    </g>
                    <g id="Rectangle-7-Copy-15" transform="translate(14.489119, 54.202911) scale(-1, 1) translate(-14.489119, -54.202911) ">
                        <use stroke="#00132E" stroke-width="7" xlink:href="#path-4"></use>
                        <use stroke="#F0F3F6" stroke-width="2" xlink:href="#path-4"></use>
                    </g>
                    <g id="Rectangle-7-Copy-30" transform="translate(104.223298, 63.835056) scale(-1, 1) translate(-104.223298, -63.835056) ">
                        <use stroke="#00132E" stroke-width="7" xlink:href="#path-5"></use>
                        <use stroke="#F0F3F6" stroke-width="2" xlink:href="#path-5"></use>
                    </g>
                    <g id="Rectangle-7-Copy-31">
                        <use stroke="#00132E" stroke-width="7" xlink:href="#path-6"></use>
                        <use stroke="#F0F3F6" stroke-width="2" xlink:href="#path-6"></use>
                    </g>
                    <g id="Rectangle-7-Copy-45" transform="translate(54.437876, 95.246622) scale(-1, 1) translate(-54.437876, -95.246622) ">
                        <use stroke="#00132E" stroke-width="7" xlink:href="#path-7"></use>
                        <use stroke="#F0F3F6" stroke-width="2" xlink:href="#path-7"></use>
                    </g>
                    <g id="Rectangle-7-Copy-27" transform="translate(65.837547, 89.309372) scale(1, -1) translate(-65.837547, -89.309372) ">
                        <use stroke="#00132E" stroke-width="7" xlink:href="#path-8"></use>
                        <use stroke="#F0F3F6" stroke-width="2" xlink:href="#path-8"></use>
                    </g>
                    <g id="Rectangle-7-Copy-28" transform="translate(44.023594, 55.797635) scale(1, -1) translate(-44.023594, -55.797635) ">
                        <use stroke="#00132E" stroke-width="7" xlink:href="#path-9"></use>
                        <use stroke="#F0F3F6" stroke-width="2" xlink:href="#path-9"></use>
                    </g>
                    <g id="Rectangle-7-Copy-38" transform="translate(76.744524, 94.764771) scale(-1, 1) translate(-76.744524, -94.764771) ">
                        <use stroke="#00132E" stroke-width="7" xlink:href="#path-10"></use>
                        <use stroke="#F0F3F6" stroke-width="2" xlink:href="#path-10"></use>
                    </g>
                    <g id="Rectangle-7-Copy-39" transform="translate(120.372431, 90.088715) scale(1, -1) translate(-120.372431, -90.088715) ">
                        <use stroke="#00132E" stroke-width="7" xlink:href="#path-11"></use>
                        <use stroke="#F0F3F6" stroke-width="2" xlink:href="#path-11"></use>
                    </g>
                    <g id="Rectangle-7-Copy-42" transform="translate(22.988710, 44.590604) scale(1, -1) translate(-22.988710, -44.590604) ">
                        <use stroke="#00132E" stroke-width="7" xlink:href="#path-12"></use>
                        <use stroke="#F0F3F6" stroke-width="2" xlink:href="#path-12"></use>
                    </g>
                    <g id="Rectangle-7-Copy-41" transform="translate(80.639873, 76.060546) scale(1, -1) translate(-80.639873, -76.060546) ">
                        <use stroke="#00132E" stroke-width="7" xlink:href="#path-13"></use>
                        <use stroke="#F0F3F6" stroke-width="2" xlink:href="#path-13"></use>
                    </g>
                    <g id="Rectangle-7-Copy-48" transform="translate(107.907315, 23.844583) scale(-1, 1) translate(-107.907315, -23.844583) ">
                        <use stroke="#00132E" stroke-width="7" xlink:href="#path-14"></use>
                        <use stroke="#F0F3F6" stroke-width="2" xlink:href="#path-14"></use>
                    </g>
                    <g id="Rectangle-7-Copy-49" transform="translate(32.337547, 50.342236) scale(-1, 1) translate(-32.337547, -50.342236) ">
                        <use stroke="#00132E" stroke-width="7" xlink:href="#path-15"></use>
                        <use stroke="#F0F3F6" stroke-width="2" xlink:href="#path-15"></use>
                    </g>
                    <g id="Rectangle-7-Copy-47" transform="translate(88.430571, 99.440827) scale(1, -1) translate(-88.430571, -99.440827) ">
                        <use stroke="#00132E" stroke-width="7" xlink:href="#path-16"></use>
                        <use stroke="#F0F3F6" stroke-width="2" xlink:href="#path-16"></use>
                    </g>
                    <g id="Rectangle-7-Copy-44" transform="translate(88.891071, 35.180039) scale(-1, 1) translate(-88.891071, -35.180039) ">
                        <use stroke="#00132E" stroke-width="7" xlink:href="#path-17"></use>
                        <use stroke="#F0F3F6" stroke-width="2" xlink:href="#path-17"></use>
                    </g>
                    <g id="Group-Copy-3" transform="translate(41.584558, 111.739972) rotate(88.000000) translate(-41.584558, -111.739972) translate(33.014790, 103.167202)">
                        <g id="Group-11" transform="translate(1.121787, 1.120812)">
                            <path d="M7.13963427,-3.45967469e-10 C3.19677837,0.0010810727 0.00123811175,3.19530536 0.00195940439,7.13473546 C0.00268069703,11.0741656 3.19939044,14.2672215 7.14224647,14.2668612 C11.0851025,14.266501 14.2812277,11.0728609 14.2812278,7.13343076 C14.2812279,5.24118807 13.5287496,3.42647532 12.1893847,2.08864126 C10.8500198,0.750807203 9.03352245,-0.000519276605 7.13963427,-3.45967469e-10 Z M0.856207513,7.13343076 C0.855305641,6.09300694 1.11459936,5.06884553 1.61053221,4.15399014 L6.50874452,6.98465449 C6.56169032,7.01553276 6.59424351,7.07217837 6.59424351,7.13343076 C6.59424351,7.19468316 6.56169032,7.25132877 6.50874452,7.28220704 L1.61053221,10.1128714 C1.11459936,9.198016 0.855305641,8.17385459 0.856207513,7.13343076 L0.856207513,7.13343076 Z M6.95742077,13.3976949 C4.84497543,13.3406908 2.90339475,12.2242952 1.79274571,10.4280422 L6.69095802,7.59737783 C6.74424036,7.56664175 6.80987786,7.56660244 6.86319704,7.59727469 C6.91651621,7.62794694 6.94943675,7.68468247 6.94958363,7.7461541 L6.95742077,13.3976949 Z M6.95742077,6.51091952 C6.95727389,6.57239115 6.92435335,6.62912668 6.87103418,6.65979893 C6.817715,6.69047117 6.7520775,6.69043187 6.69879516,6.65969579 L1.80058285,3.82903144 C2.91018342,2.03580807 4.84816742,0.920522739 6.95742077,0.861336316 L6.95742077,6.51091952 Z M7.32184777,0.861336316 C9.43652703,0.919386989 11.3793157,2.0389979 12.4884821,3.83881935 L7.5902698,6.6694837 C7.53698746,6.70021978 7.47134996,6.70025908 7.41803078,6.66958684 C7.36471161,6.63891459 7.33179108,6.58217906 7.33164419,6.52070743 L7.32184777,0.861336316 Z M7.32184777,13.4074828 L7.32184777,7.7461541 C7.32199465,7.68468247 7.35491518,7.62794694 7.40823436,7.59727469 C7.46155354,7.56660244 7.52719104,7.56664175 7.58047338,7.59737783 L12.4786857,10.4280422 C11.3718723,12.225762 9.43339646,13.3457455 7.32184777,13.4074828 L7.32184777,13.4074828 Z M12.5159121,10.0247802 L7.76268688,7.28416462 C7.70974107,7.25328635 7.67718789,7.19664074 7.67718789,7.13538835 C7.67718789,7.07413595 7.70974107,7.01749034 7.76268688,6.98661207 L12.5159121,4.24599652 C12.5561953,4.22252879 12.6043423,4.21657426 12.6491368,4.22952008 C12.6939312,4.24246589 12.7314619,4.27318168 12.7529856,4.31451191 C13.6466995,6.08978957 13.6466995,8.18294471 12.7529856,9.95822237 C12.7311159,9.99921804 12.6934343,10.0295087 12.6486722,10.0420756 C12.60391,10.0546425 12.5559525,10.0483948 12.5159121,10.0247802 L12.5159121,10.0247802 Z" id="Shape" stroke="#FFAA64" fill="#FFAA64" fill-rule="nonzero"></path>
                            <ellipse id="Oval-6" fill="#FFAA64" cx="7.14946911" cy="7.14325706" rx="1" ry="1"></ellipse>
                            <ellipse id="Oval-6" fill="#FFFFFF" cx="7.15138998" cy="7.14517626" rx="1" ry="1"></ellipse>
                        </g>
                        <path d="M7.1390101,1.11821884 L4.98225668,1.8189905 L3.14885881,3.15103203 L1.81793639,4.98288958 L1.11870506,7.13490234 L1.11870506,9.39707411 L1.81793639,11.5490869 L3.14885881,13.3809444 L4.98225668,14.7129859 L7.1390101,15.4137576 L9.40734319,15.4137576 L11.5640966,14.7129859 L13.3974945,13.3809444 L14.7284169,11.5490869 L15.4276482,9.39707411 L15.4276482,7.13490234 L14.7284169,4.98288958 L13.3974945,3.15103203 L11.5640966,1.8189905 L9.40734319,1.11821884 L7.1390101,1.11821884 Z M7.08426153,0.797267946 C7.68903335,0.625253689 7.5399765,0 8.27317664,0 C9.00286746,0 8.85973549,0.616765031 9.44992982,0.795319963 C10.0806732,0.820443269 10.1313202,0.177688358 10.8295786,0.40456626 C11.5227122,0.629779022 11.1976311,1.17108323 11.7011279,1.52331199 C12.2944946,1.74392905 12.5411863,1.14669321 13.1357421,1.57866328 C13.7250144,2.00679469 13.249467,2.42091756 13.6182797,2.91112283 C14.1145831,3.30481054 14.5338523,2.81266688 14.9659238,3.40736225 C15.3941729,3.99679664 14.8134925,4.24367238 15.0132562,4.82419766 C15.3636424,5.35064556 15.9139539,5.01296515 16.1409728,5.71165739 C16.3663463,6.40528578 15.7362849,6.46004396 15.7481968,7.07565438 C15.9196361,7.68207835 16.5458671,7.5322153 16.5458671,8.26598822 C16.5458671,8.99631363 15.9280288,8.85229745 15.7500822,9.44428289 C15.7275512,10.0716098 16.3674168,10.1233961 16.1409728,10.8203191 C15.9150176,11.5157376 15.3708836,11.1862173 15.0187499,11.6968748 C14.8052661,12.2852817 15.3962218,12.5323598 14.9659238,13.1246142 C14.5358805,13.716518 14.1199711,13.2340706 13.6268925,13.6121434 C13.2425561,14.1056215 13.7278497,14.5231218 13.1357421,14.9533132 C12.5439934,15.3832437 12.2974987,14.7963066 11.7120534,15.0030348 C11.1927227,15.3535685 11.526054,15.9011116 10.8295786,16.1274102 C10.1346417,16.3532089 10.0809877,15.7203422 9.46209175,15.7347085 C8.85731994,15.9067228 9.00637678,16.5319764 8.27317664,16.5319764 C7.54348582,16.5319764 7.6866178,15.9152114 7.09642346,15.7366565 C6.46568008,15.7115332 6.4150331,16.3542881 5.71677471,16.1274102 C5.0236411,15.9021974 5.34872217,15.3608932 4.84522539,15.0086644 C4.25185869,14.7880474 4.005167,15.3852832 3.41061122,14.9533132 C2.82133888,14.5251818 3.29688632,14.1110589 2.92807363,13.6208536 C2.43177014,13.2271659 2.01250098,13.7193096 1.5804295,13.1246142 C1.15218035,12.5351798 1.73286082,12.2883041 1.53309704,11.7077788 C1.18271093,11.1813309 0.632399382,11.5190113 0.405380512,10.8203191 C0.180006984,10.1266907 0.81006835,10.0719325 0.798156472,9.45632206 C0.626717192,8.84989809 0.000486222974,8.99976114 0.000486222974,8.26598822 C0.000486222974,7.53566281 0.618324488,7.67967899 0.796271044,7.08769355 C0.818802129,6.46036666 0.17893652,6.40858033 0.405380512,5.71165739 C0.631335686,5.01623887 1.17546972,5.34575916 1.52760342,4.83510167 C1.74108721,4.24669475 1.15013148,3.99961667 1.5804295,3.40736225 C2.01047278,2.81545846 2.42638214,3.29790581 2.91946082,2.91983306 C3.30379715,2.42635493 2.81850355,2.00885468 3.41061122,1.57866328 C4.00235984,1.14873273 4.24885463,1.73566987 4.83429985,1.52894168 C5.35363055,1.1784079 5.02029926,0.630864851 5.71677471,0.40456626 C6.41171155,0.178767593 6.46536561,0.811634212 7.08426153,0.797267946 Z" id="Combined-Shape" fill="#FFAA64"></path>
                    </g>
                    <g id="Rectangle-2-Copy-36">
                        <use fill="#FFAA64" fill-rule="evenodd" xlink:href="#path-18"></use>
                        <rect stroke="#00132E" stroke-width="1" x="48.8023256" y="55.0539906" width="1.52401999" height="7.40608972" rx="0.762009996"></rect>
                    </g>
                    <g id="Rectangle-2-Copy-64">
                        <use fill="#FFAA64" fill-rule="evenodd" xlink:href="#path-19"></use>
                        <rect stroke="#00132E" stroke-width="1" x="11.4069767" y="75.3169014" width="1.52401999" height="7.40608972" rx="0.762009996"></rect>
                    </g>
                    <g id="Rectangle-2-Copy-52">
                        <use fill="#FFAA64" fill-rule="evenodd" xlink:href="#path-20"></use>
                        <rect stroke="#00132E" stroke-width="1" x="108.790698" y="17.6455399" width="1.52401999" height="7.40608972" rx="0.762009996"></rect>
                    </g>
                    <g id="Rectangle-2-Copy-56">
                        <use fill="#FFAA64" fill-rule="evenodd" xlink:href="#path-21"></use>
                        <rect stroke="#00132E" stroke-width="1" x="125.151163" y="89.3450704" width="1.52401999" height="7.40608972" rx="0.762009996"></rect>
                    </g>
                    <g id="Rectangle-2-Copy-59">
                        <use fill="#FFAA64" fill-rule="evenodd" xlink:href="#path-22"></use>
                        <rect stroke="#00132E" stroke-width="1" x="93.2093023" y="98.6971831" width="1.52401999" height="7.40608972" rx="0.762009996"></rect>
                    </g>
                    <g id="Rectangle-2-Copy-41">
                        <use fill="#FFAA64" fill-rule="evenodd" xlink:href="#path-23"></use>
                        <rect stroke="#00132E" stroke-width="1" x="26.9883721" y="43.3638498" width="1.52401999" height="7.40608972" rx="0.762009996"></rect>
                    </g>
                    <g id="Rectangle-2-Copy-43">
                        <use fill="#FFAA64" fill-rule="evenodd" xlink:href="#path-24"></use>
                        <rect stroke="#00132E" stroke-width="1" x="70.6162791" y="88.5657277" width="1.52401999" height="7.40608972" rx="0.762009996"></rect>
                    </g>
                    <g id="Rectangle-2-Copy-67" transform="translate(75.096922, 72.961983) rotate(90.000000) translate(-75.096922, -72.961983) ">
                        <use fill="#FFAA64" fill-rule="evenodd" xlink:href="#path-25"></use>
                        <rect stroke="#00132E" stroke-width="1" x="74.3349116" y="69.2589378" width="1.52401999" height="7.40608972" rx="0.762009996"></rect>
                    </g>
                    <g id="Rectangle-2-Copy-72" transform="translate(114.050410, 26.980762) rotate(90.000000) translate(-114.050410, -26.980762) ">
                        <use fill="#FFAA64" fill-rule="evenodd" xlink:href="#path-26"></use>
                        <rect stroke="#00132E" stroke-width="1" x="113.2884" y="23.2777172" width="1.52401999" height="7.40608972" rx="0.762009996"></rect>
                    </g>
                    <g id="Rectangle-2-Copy-68" transform="translate(114.050410, 87.769494) rotate(90.000000) translate(-114.050410, -87.769494) ">
                        <use fill="#FFAA64" fill-rule="evenodd" xlink:href="#path-27"></use>
                        <rect stroke="#00132E" stroke-width="1" x="113.2884" y="84.0664495" width="1.52401999" height="7.40608972" rx="0.762009996"></rect>
                    </g>
                    <g id="Rectangle-2-Copy-69" transform="translate(82.887619, 96.342264) rotate(90.000000) translate(-82.887619, -96.342264) ">
                        <use fill="#FFAA64" fill-rule="evenodd" xlink:href="#path-28"></use>
                        <rect stroke="#00132E" stroke-width="1" x="82.1256093" y="92.6392195" width="1.52401999" height="7.40608972" rx="0.762009996"></rect>
                    </g>
                    <g id="Rectangle-2-Copy-71" transform="translate(68.864363, 48.802358) rotate(90.000000) translate(-68.864363, -48.802358) ">
                        <use fill="#FFAA64" fill-rule="evenodd" xlink:href="#path-29"></use>
                        <rect stroke="#00132E" stroke-width="1" x="68.1023535" y="45.0993134" width="1.52401999" height="7.40608972" rx="0.762009996"></rect>
                    </g>
                    <g id="Rectangle-2-Copy-70" transform="translate(17.445759, 41.788274) rotate(90.000000) translate(-17.445759, -41.788274) ">
                        <use fill="#FFAA64" fill-rule="evenodd" xlink:href="#path-30"></use>
                        <rect stroke="#00132E" stroke-width="1" x="16.6837488" y="38.0852289" width="1.52401999" height="7.40608972" rx="0.762009996"></rect>
                    </g>
                    <g id="Rectangle-2-Copy-73" transform="translate(17.445759, 28.539447) rotate(90.000000) translate(-17.445759, -28.539447) ">
                        <use fill="#FFAA64" fill-rule="evenodd" xlink:href="#path-31"></use>
                        <rect stroke="#00132E" stroke-width="1" x="16.6837488" y="24.8364026" width="1.52401999" height="7.40608972" rx="0.762009996"></rect>
                    </g>
                    <g id="Rectangle-2-Copy-74" transform="translate(38.480643, 53.478415) rotate(90.000000) translate(-38.480643, -53.478415) ">
                        <use fill="#FFAA64" fill-rule="evenodd" xlink:href="#path-32"></use>
                        <rect stroke="#00132E" stroke-width="1" x="37.7186326" y="49.7753697" width="1.52401999" height="7.40608972" rx="0.762009996"></rect>
                    </g>
                    <g id="Rectangle-2-Copy-44">
                        <use fill="#FFAA64" fill-rule="evenodd" xlink:href="#path-33"></use>
                        <rect stroke="#00132E" stroke-width="1" x="86.1976744" y="75.3169014" width="1.52401999" height="7.40608972" rx="0.762009996"></rect>
                    </g>
                    <g id="Rectangle-2-Copy-47">
                        <use fill="#FFAA64" fill-rule="evenodd" xlink:href="#path-34"></use>
                        <rect stroke="#00132E" stroke-width="1" x="9.84883721" y="108.049296" width="1.52401999" height="7.40608972" rx="0.762009996"></rect>
                    </g>
                    <g id="Group-Copy-4" transform="translate(50.933395, 8.866733) rotate(88.000000) translate(-50.933395, -8.866733) translate(42.363628, 0.293963)">
                        <g id="Group-11" transform="translate(1.121787, 1.120812)">
                            <path d="M7.13963427,-3.45967469e-10 C3.19677837,0.0010810727 0.00123811175,3.19530536 0.00195940439,7.13473546 C0.00268069703,11.0741656 3.19939044,14.2672215 7.14224647,14.2668612 C11.0851025,14.266501 14.2812277,11.0728609 14.2812278,7.13343076 C14.2812279,5.24118807 13.5287496,3.42647532 12.1893847,2.08864126 C10.8500198,0.750807203 9.03352245,-0.000519276605 7.13963427,-3.45967469e-10 Z M0.856207513,7.13343076 C0.855305641,6.09300694 1.11459936,5.06884553 1.61053221,4.15399014 L6.50874452,6.98465449 C6.56169032,7.01553276 6.59424351,7.07217837 6.59424351,7.13343076 C6.59424351,7.19468316 6.56169032,7.25132877 6.50874452,7.28220704 L1.61053221,10.1128714 C1.11459936,9.198016 0.855305641,8.17385459 0.856207513,7.13343076 L0.856207513,7.13343076 Z M6.95742077,13.3976949 C4.84497543,13.3406908 2.90339475,12.2242952 1.79274571,10.4280422 L6.69095802,7.59737783 C6.74424036,7.56664175 6.80987786,7.56660244 6.86319704,7.59727469 C6.91651621,7.62794694 6.94943675,7.68468247 6.94958363,7.7461541 L6.95742077,13.3976949 Z M6.95742077,6.51091952 C6.95727389,6.57239115 6.92435335,6.62912668 6.87103418,6.65979893 C6.817715,6.69047117 6.7520775,6.69043187 6.69879516,6.65969579 L1.80058285,3.82903144 C2.91018342,2.03580807 4.84816742,0.920522739 6.95742077,0.861336316 L6.95742077,6.51091952 Z M7.32184777,0.861336316 C9.43652703,0.919386989 11.3793157,2.0389979 12.4884821,3.83881935 L7.5902698,6.6694837 C7.53698746,6.70021978 7.47134996,6.70025908 7.41803078,6.66958684 C7.36471161,6.63891459 7.33179108,6.58217906 7.33164419,6.52070743 L7.32184777,0.861336316 Z M7.32184777,13.4074828 L7.32184777,7.7461541 C7.32199465,7.68468247 7.35491518,7.62794694 7.40823436,7.59727469 C7.46155354,7.56660244 7.52719104,7.56664175 7.58047338,7.59737783 L12.4786857,10.4280422 C11.3718723,12.225762 9.43339646,13.3457455 7.32184777,13.4074828 L7.32184777,13.4074828 Z M12.5159121,10.0247802 L7.76268688,7.28416462 C7.70974107,7.25328635 7.67718789,7.19664074 7.67718789,7.13538835 C7.67718789,7.07413595 7.70974107,7.01749034 7.76268688,6.98661207 L12.5159121,4.24599652 C12.5561953,4.22252879 12.6043423,4.21657426 12.6491368,4.22952008 C12.6939312,4.24246589 12.7314619,4.27318168 12.7529856,4.31451191 C13.6466995,6.08978957 13.6466995,8.18294471 12.7529856,9.95822237 C12.7311159,9.99921804 12.6934343,10.0295087 12.6486722,10.0420756 C12.60391,10.0546425 12.5559525,10.0483948 12.5159121,10.0247802 L12.5159121,10.0247802 Z" id="Shape" stroke="#FFAA64" fill="#FFAA64" fill-rule="nonzero"></path>
                            <ellipse id="Oval-6" fill="#FFAA64" cx="7.14946911" cy="7.14325706" rx="1" ry="1"></ellipse>
                            <ellipse id="Oval-6" fill="#FFFFFF" cx="7.15138998" cy="7.14517626" rx="1" ry="1"></ellipse>
                        </g>
                        <path d="M7.1390101,1.11821884 L4.98225668,1.8189905 L3.14885881,3.15103203 L1.81793639,4.98288958 L1.11870506,7.13490234 L1.11870506,9.39707411 L1.81793639,11.5490869 L3.14885881,13.3809444 L4.98225668,14.7129859 L7.1390101,15.4137576 L9.40734319,15.4137576 L11.5640966,14.7129859 L13.3974945,13.3809444 L14.7284169,11.5490869 L15.4276482,9.39707411 L15.4276482,7.13490234 L14.7284169,4.98288958 L13.3974945,3.15103203 L11.5640966,1.8189905 L9.40734319,1.11821884 L7.1390101,1.11821884 Z M7.08426153,0.797267946 C7.68903335,0.625253689 7.5399765,0 8.27317664,0 C9.00286746,0 8.85973549,0.616765031 9.44992982,0.795319963 C10.0806732,0.820443269 10.1313202,0.177688358 10.8295786,0.40456626 C11.5227122,0.629779022 11.1976311,1.17108323 11.7011279,1.52331199 C12.2944946,1.74392905 12.5411863,1.14669321 13.1357421,1.57866328 C13.7250144,2.00679469 13.249467,2.42091756 13.6182797,2.91112283 C14.1145831,3.30481054 14.5338523,2.81266688 14.9659238,3.40736225 C15.3941729,3.99679664 14.8134925,4.24367238 15.0132562,4.82419766 C15.3636424,5.35064556 15.9139539,5.01296515 16.1409728,5.71165739 C16.3663463,6.40528578 15.7362849,6.46004396 15.7481968,7.07565438 C15.9196361,7.68207835 16.5458671,7.5322153 16.5458671,8.26598822 C16.5458671,8.99631363 15.9280288,8.85229745 15.7500822,9.44428289 C15.7275512,10.0716098 16.3674168,10.1233961 16.1409728,10.8203191 C15.9150176,11.5157376 15.3708836,11.1862173 15.0187499,11.6968748 C14.8052661,12.2852817 15.3962218,12.5323598 14.9659238,13.1246142 C14.5358805,13.716518 14.1199711,13.2340706 13.6268925,13.6121434 C13.2425561,14.1056215 13.7278497,14.5231218 13.1357421,14.9533132 C12.5439934,15.3832437 12.2974987,14.7963066 11.7120534,15.0030348 C11.1927227,15.3535685 11.526054,15.9011116 10.8295786,16.1274102 C10.1346417,16.3532089 10.0809877,15.7203422 9.46209175,15.7347085 C8.85731994,15.9067228 9.00637678,16.5319764 8.27317664,16.5319764 C7.54348582,16.5319764 7.6866178,15.9152114 7.09642346,15.7366565 C6.46568008,15.7115332 6.4150331,16.3542881 5.71677471,16.1274102 C5.0236411,15.9021974 5.34872217,15.3608932 4.84522539,15.0086644 C4.25185869,14.7880474 4.005167,15.3852832 3.41061122,14.9533132 C2.82133888,14.5251818 3.29688632,14.1110589 2.92807363,13.6208536 C2.43177014,13.2271659 2.01250098,13.7193096 1.5804295,13.1246142 C1.15218035,12.5351798 1.73286082,12.2883041 1.53309704,11.7077788 C1.18271093,11.1813309 0.632399382,11.5190113 0.405380512,10.8203191 C0.180006984,10.1266907 0.81006835,10.0719325 0.798156472,9.45632206 C0.626717192,8.84989809 0.000486222974,8.99976114 0.000486222974,8.26598822 C0.000486222974,7.53566281 0.618324488,7.67967899 0.796271044,7.08769355 C0.818802129,6.46036666 0.17893652,6.40858033 0.405380512,5.71165739 C0.631335686,5.01623887 1.17546972,5.34575916 1.52760342,4.83510167 C1.74108721,4.24669475 1.15013148,3.99961667 1.5804295,3.40736225 C2.01047278,2.81545846 2.42638214,3.29790581 2.91946082,2.91983306 C3.30379715,2.42635493 2.81850355,2.00885468 3.41061122,1.57866328 C4.00235984,1.14873273 4.24885463,1.73566987 4.83429985,1.52894168 C5.35363055,1.1784079 5.02029926,0.630864851 5.71677471,0.40456626 C6.41171155,0.178767593 6.46536561,0.811634212 7.08426153,0.797267946 Z" id="Combined-Shape" fill="#FFAA64"></path>
                    </g>
                    <g id="Group-Copy-5" transform="translate(114.334080, 59.820148) rotate(88.000000) translate(-114.334080, -59.820148) translate(108.491057, 53.975077)">
                        <g id="Group-11" transform="translate(0.764855, 0.764190)">
                            <path d="M4.86793246,-2.35886911e-10 C2.17962162,0.00073709502 0.000844167104,2.17861729 0.00133595754,4.86459236 C0.00182774798,7.55056743 2.18140257,9.72765102 4.8697135,9.72740538 C7.55802443,9.72715975 9.73720069,7.54967791 9.73720079,4.86370279 C9.73720084,3.57353732 9.22414748,2.33623317 8.31094411,1.42407359 C7.39774074,0.511914002 6.15921986,-0.000354052231 4.86793246,-2.35886911e-10 Z M0.583777849,4.86370279 C0.583162937,4.15432291 0.759954112,3.45603104 1.09809014,2.83226601 L4.43778036,4.76226443 C4.47387977,4.78331779 4.49607512,4.8219398 4.49607512,4.86370279 C4.49607512,4.90546579 4.47387977,4.9440878 4.43778036,4.96514116 L1.09809014,6.89513958 C0.759954112,6.27137455 0.583162937,5.57308267 0.583777849,4.86370279 L0.583777849,4.86370279 Z M4.74369598,9.13479197 C3.30339234,9.09592551 1.97958733,8.33474672 1.22232662,7.11002875 L4.56201683,5.18003034 C4.5983457,5.15907392 4.64309854,5.15904712 4.67945253,5.17996002 C4.71580651,5.20087291 4.73825233,5.23955623 4.73835248,5.2814687 L4.74369598,9.13479197 Z M4.74369598,4.43926331 C4.74359583,4.48117578 4.72115001,4.5198591 4.68479603,4.540772 C4.64844205,4.56168489 4.60368921,4.56165809 4.56736034,4.54070168 L1.22767012,2.61070326 C1.98421597,1.38805095 3.30556869,0.62762914 4.74369598,0.587274761 L4.74369598,4.43926331 Z M4.99216893,0.587274761 C6.4339957,0.626854765 7.75862431,1.39022584 8.51487417,2.61737683 L5.17518396,4.54737525 C5.13885509,4.56833167 5.09410225,4.56835847 5.05774826,4.54744557 C5.02139428,4.52653268 4.99894846,4.48784936 4.99884831,4.44593688 L4.99216893,0.587274761 Z M4.99216893,9.14146554 L4.99216893,5.2814687 C4.99226908,5.23955623 5.0147149,5.20087291 5.05106888,5.17996002 C5.08742287,5.15904712 5.13217571,5.15907392 5.16850458,5.18003034 L8.50819479,7.11002875 C7.75354927,8.33574683 6.43186122,9.09937196 4.99216893,9.14146554 L4.99216893,9.14146554 Z M8.53357644,6.83507739 L5.29274105,4.96647588 C5.25664164,4.94542251 5.23444629,4.90680051 5.23444629,4.86503751 C5.23444629,4.82327451 5.25664164,4.78465251 5.29274105,4.76359914 L8.53357644,2.89499763 C8.56104226,2.8789969 8.59386975,2.87493699 8.62441143,2.88376369 C8.65495312,2.89259038 8.68054219,2.91353296 8.69521744,2.94171267 C9.30456781,4.15212925 9.30456781,5.57928048 8.69521744,6.78969707 C8.68030632,6.81764867 8.65461431,6.83830141 8.62409466,6.84686973 C8.59357501,6.85543804 8.5608767,6.85117824 8.53357644,6.83507739 L8.53357644,6.83507739 Z" id="Shape" stroke="#FFAA64" stroke-width="0.7" fill="#FFAA64" fill-rule="nonzero"></path>
                            <ellipse id="Oval-6" fill="#FFAA64" cx="4.87463803" cy="4.87040254" rx="1" ry="1"></ellipse>
                            <ellipse id="Oval-6" fill="#FFFFFF" cx="4.87594771" cy="4.87171109" rx="1" ry="1"></ellipse>
                        </g>
                        <path d="M4.86750688,0.762421934 L3.39699319,1.2402208 L2.14694919,2.14843093 L1.23950209,3.39742471 L0.762753449,4.86470614 L0.762753449,6.40709598 L1.23950209,7.87437741 L2.14694919,9.12337119 L3.39699319,10.0315813 L4.86750688,10.5093802 L6.41409763,10.5093802 L7.88461132,10.0315813 L9.13465533,9.12337119 L10.0421024,7.87437741 L10.5188511,6.40709598 L10.5188511,4.86470614 L10.0421024,3.39742471 L9.13465533,2.14843093 L7.88461132,1.2402208 L6.41409763,0.762421934 L4.86750688,0.762421934 Z M4.83017832,0.543591781 C5.24252274,0.426309333 5.14089307,0 5.64080226,0 C6.13831872,0 6.04072874,0.420521612 6.44313397,0.542263611 C6.87318627,0.559393138 6.90771831,0.121151153 7.38380357,0.275840632 C7.85639467,0.429394788 7.63474849,0.798465836 7.97804175,1.03862181 C8.38260995,1.18904253 8.55080883,0.78183628 8.95618777,1.07636132 C9.35796436,1.3682691 9.03372747,1.65062561 9.28519067,1.98485647 C9.62357942,2.25327991 9.90944475,1.91772742 10.2040389,2.32320153 C10.496027,2.72508862 10.1001085,2.89341299 10.2363111,3.28922568 C10.4752107,3.64816742 10.8504231,3.41793078 11.0052087,3.89431185 C11.1588725,4.36724031 10.7292852,4.40457543 10.7374069,4.82430981 C10.8542973,5.2377807 11.281273,5.13560134 11.281273,5.63590106 C11.281273,6.13385021 10.8600196,6.03565735 10.7386924,6.43928379 C10.7233303,6.86700667 11.1596023,6.90231553 11.0052087,7.37749027 C10.8511484,7.85163926 10.4801479,7.62696633 10.2400567,7.97514189 C10.0944996,8.37632843 10.497424,8.54479076 10.2040389,8.94860059 C9.91082761,9.35217136 9.62725306,9.02322998 9.29106305,9.28100686 C9.02901555,9.61746922 9.35989755,9.90212848 8.95618777,10.1954408 C8.5527228,10.4885753 8.38465817,10.0883908 7.98549098,10.2293419 C7.63140186,10.4683422 7.8586732,10.841667 7.38380357,10.9959615 C6.909983,11.1499151 6.87340069,10.7184152 6.4514262,10.7282103 C6.03908177,10.8454928 6.14071144,11.2718021 5.64080226,11.2718021 C5.14328579,11.2718021 5.24087577,10.8512805 4.83847054,10.7295385 C4.40841824,10.712409 4.3738862,11.150651 3.89780094,10.9959615 C3.42520984,10.8424073 3.64685602,10.4733363 3.30356277,10.2331803 C2.89899456,10.0827596 2.73079569,10.4899658 2.32541674,10.1954408 C1.92364015,9.90353302 2.24787704,9.62117651 1.99641384,9.28694565 C1.6580251,9.01852221 1.37215976,9.3540747 1.07756557,8.94860059 C0.785577511,8.5467135 1.18149602,8.37838913 1.04529344,7.98257644 C0.806393813,7.6236347 0.431181397,7.85387134 0.276395803,7.37749027 C0.122732035,6.90456182 0.55231933,6.86722669 0.544197595,6.44749231 C0.427307176,6.03402143 0.000331515664,6.13620078 0.000331515664,5.63590106 C0.000331515664,5.13795192 0.421584878,5.23614477 0.542912075,4.83251833 C0.558274179,4.40479545 0.122002173,4.36948659 0.276395803,3.89431185 C0.430456149,3.42016286 0.801456628,3.64483579 1.04154779,3.29666023 C1.18710492,2.89547369 0.784180555,2.72701137 1.07756557,2.32320153 C1.3707769,1.91963076 1.65435146,2.24857214 1.99054147,1.99079527 C2.25258896,1.65433291 1.92170697,1.36967364 2.32541674,1.07636132 C2.72888171,0.783226865 2.89694634,1.18341127 3.29611354,1.04246024 C3.65020265,0.803459934 3.42293132,0.430135126 3.89780094,0.275840632 C4.37162151,0.121886995 4.40820382,0.553386963 4.83017832,0.543591781 Z" id="Combined-Shape" fill="#FFAA64"></path>
                    </g>
                </g>
            </g>
        </g>
    </g>
</svg>