<?xml version="1.0" encoding="UTF-8"?>
<svg width="180px" height="180px" viewBox="0 0 180 180" version="1.1" xmlns="http://www.w3.org/2000/svg" xmlns:xlink="http://www.w3.org/1999/xlink">
    <!-- Generator: Sketch 50.2 (55047) - http://www.bohemiancoding.com/sketch -->
    <title>github-logo (1)</title>
    <desc>Created with Sketch.</desc>
    <defs></defs>
    <g id="Page-1" stroke="none" stroke-width="1" fill="none" fill-rule="evenodd">
        <g id="Community" transform="translate(-630.000000, -955.000000)" fill="#110A2D" fill-rule="nonzero">
            <g id="Group-2" transform="translate(537.000000, 955.000000)">
                <g id="github-logo-(1)" transform="translate(93.000000, 0.000000)">
                    <path d="M167.927105,45.9480848 C159.879055,31.8129312 148.962389,20.6221104 135.174235,12.3730979 C121.384028,4.12366474 106.329233,0 89.9991791,0 C73.671177,0 58.611457,4.12492696 44.8241234,12.3730979 C31.0347375,20.6216896 20.1184824,31.8129312 12.0704327,45.9480848 C4.0236144,60.0828177 0,75.5180554 0,92.2533771 C0,112.356295 5.72163467,130.433354 17.1677772,146.489182 C28.6126883,162.546273 43.3978192,173.657153 61.5219384,179.823086 C63.6316373,180.224471 65.1933891,179.942155 66.2088356,178.98329 C67.2246925,178.023163 67.7320053,176.820691 67.7320053,175.380921 C67.7320053,175.140679 67.7118934,172.979342 67.6729009,168.894385 C67.6326771,164.809429 67.6137965,161.245768 67.6137965,158.205086 L64.9183894,158.683045 C63.1998468,159.005752 61.0318644,159.142493 58.4144423,159.103785 C55.7982515,159.066339 53.082322,158.785285 50.2703479,158.262727 C47.4571425,157.744797 44.8405412,156.543587 42.418492,154.66162 C39.9976741,152.779654 38.2791315,150.316226 37.2632745,147.275123 L36.0914476,144.510867 C35.3103665,142.670554 34.0806666,140.626182 32.400706,138.385325 C30.7207454,136.142364 29.0219042,134.621813 27.3033616,133.821146 L26.4828775,133.219069 C25.9361618,132.818946 25.428849,132.336358 24.9597078,131.776354 C24.490977,131.21635 24.1400446,130.655925 23.9056792,130.094659 C23.6709034,129.532973 23.8654554,129.072263 24.4913874,128.710848 C25.1173195,128.349433 26.2485121,128.173985 27.8898907,128.173985 L30.2327236,128.532875 C31.7952963,128.853899 33.7280924,129.812764 36.0335746,131.41536 C38.3378255,133.016693 40.2320395,135.09851 41.7166272,137.659971 C43.5143862,140.944261 45.6803163,143.446817 48.2205744,145.168903 C50.7587802,146.890988 53.3179188,147.750558 55.8955275,147.750558 C58.4731362,147.750558 60.6994021,147.550287 62.5751461,147.151847 C64.4488378,146.751303 66.2067833,146.149225 67.8481619,145.348979 C68.551258,139.981189 70.465584,135.857524 73.589498,132.97504 C69.1369662,132.495397 65.1338742,131.772988 61.5781697,130.81244 C58.0245174,129.850631 54.3522458,128.289688 50.5638177,126.125406 C46.7733373,123.964069 43.628901,121.280173 41.1296876,118.078348 C38.6300639,114.87484 36.5786485,110.669131 34.9783147,105.465008 C33.37716,100.258782 32.5763774,94.2531505 32.5763774,87.446432 C32.5763774,77.7547049 35.6629407,69.5073754 41.834836,62.6998154 C38.9436456,55.4134542 39.216593,47.2452237 42.6544992,38.1959653 C44.920168,37.4743976 48.2800892,38.015889 52.732621,39.8170734 C57.1859736,41.6190993 60.4465666,43.1627914 62.5176834,44.44268 C64.5888003,45.7221478 66.2482385,46.8063927 67.4984608,47.6857376 C74.7654294,45.6043409 82.2647111,44.5634321 89.9983582,44.5634321 C97.7320053,44.5634321 105.232929,45.6043409 112.500308,47.6857376 L116.95325,44.8040949 C119.998358,42.8813169 123.594287,41.1192612 127.732416,39.5175071 C131.873008,37.9165945 135.039198,37.4756598 137.227702,38.1972275 C140.741952,47.2469066 141.055123,55.4147164 138.163112,62.7010776 C144.334597,69.5086376 147.422391,77.7580708 147.422391,87.4476942 C147.422391,94.2544127 146.618736,100.278977 145.020044,105.525174 C143.419299,110.772212 141.350235,114.973714 138.812029,118.138514 C136.27095,121.302893 133.106402,123.965752 129.317973,126.126668 C125.528724,128.289267 121.855222,129.85021 118.301569,130.81202 C114.746275,131.773829 110.743183,132.496659 106.290651,132.977143 C110.351616,136.579512 112.382509,142.265802 112.382509,150.033489 L112.382509,175.377555 C112.382509,176.817325 112.870942,178.019377 113.848627,178.979924 C114.825081,179.938789 116.367131,180.221105 118.47683,179.819299 C136.603412,173.654208 151.388543,162.542907 162.833044,146.485816 C174.276313,130.429988 180,112.352929 180,92.2500112 C179.995896,75.5167931 175.970229,60.0828177 167.927105,45.9480848 Z" id="Shape"></path>
                </g>
            </g>
        </g>
    </g>
</svg>