<?xml version="1.0" encoding="UTF-8"?>
<svg width="156px" height="90px" viewBox="0 0 156 90" version="1.1" xmlns="http://www.w3.org/2000/svg" xmlns:xlink="http://www.w3.org/1999/xlink">
    <!-- Generator: Sketch 49.3 (51167) - http://www.bohemiancoding.com/sketch -->
    <title>Group</title>
    <desc>Created with Sketch.</desc>
    <defs></defs>
    <g id="Page-1" stroke="none" stroke-width="1" fill="none" fill-rule="evenodd" stroke-linejoin="round">
        <g id="Artboard-3" transform="translate(-23.000000, -22.000000)" stroke-width="5.39">
            <g id="Group" transform="translate(26.000000, 25.000000)">
                <g id="Group-10-Copy-9" transform="translate(28.015564, 0.000000)" stroke="#FFAA64">
                    <polygon id="Stroke-1" points="48.8324319 42.5863169 24.5136187 84 73.1520039 84 97.4708171 42.5863169 97.4692999 42.5833333 97.4670239 42.5863169"></polygon>
                    <polygon id="Stroke-5" points="48.4405573 41.4155477 24.2202787 0 0 41.4155477 24.2217899 82.8333333 48.4435798 41.4155477"></polygon>
                    <polygon id="Stroke-7" points="24.5136187 0 48.8329377 41.4166667 97.4692998 41.4166667 97.4708171 41.4144289 73.1530154 0"></polygon>
                </g>
                <g id="Group-10-Copy-2" transform="translate(0.000000, 21.000000)" stroke="#00132E">
                    <polygon id="Stroke-1" points="24.5134912 21.5848461 12.2568093 42.5833333 36.7705555 42.5833333 49.0272374 21.5848461 49.0264726 21.5833333 49.0253256 21.5848461"></polygon>
                    <polygon id="Stroke-5" points="24.5120893 20.9994327 12.2560446 0 0 20.9994327 12.2568093 42 24.5136187 20.9994327"></polygon>
                    <polygon id="Stroke-7" points="12.2568093 0 24.5137461 21 49.0264726 21 49.0272374 20.9988653 36.7710653 0"></polygon>
                </g>
                <g id="Group-10-Copy-10" transform="translate(51.945525, 21.000000)" stroke="#00132E">
                    <polygon id="Stroke-1" points="24.5134912 21.5848461 12.2568093 42.5833333 36.7705555 42.5833333 49.0272374 21.5848461 49.0264726 21.5833333 49.0253256 21.5848461"></polygon>
                    <polygon id="Stroke-5" points="24.5120893 20.9994327 12.2560446 0 0 20.9994327 12.2568093 42 24.5136187 20.9994327"></polygon>
                    <polygon id="Stroke-7" points="12.2568093 0 24.5137461 21 49.0264726 21 49.0272374 20.9988653 36.7710653 0"></polygon>
                </g>
                <g id="Group-10-Copy-11" transform="translate(100.972763, 21.000000)" stroke="#00132E">
                    <polygon id="Stroke-1" points="24.5134912 21.5848461 12.2568093 42.5833333 36.7705555 42.5833333 49.0272374 21.5848461 49.0264726 21.5833333 49.0253256 21.5848461"></polygon>
                    <polygon id="Stroke-5" points="24.5120893 20.9994327 12.2560446 0 0 20.9994327 12.2568093 42 24.5136187 20.9994327"></polygon>
                    <polygon id="Stroke-7" points="12.2568093 0 24.5137461 21 49.0264726 21 49.0272374 20.9988653 36.7710653 0"></polygon>
                </g>
            </g>
        </g>
    </g>
</svg>