<?xml version="1.0" encoding="UTF-8"?>
<svg width="438px" height="61px" viewBox="0 0 438 61" version="1.1" xmlns="http://www.w3.org/2000/svg" xmlns:xlink="http://www.w3.org/1999/xlink">
    <!-- Generator: Sketch 49.3 (51167) - http://www.bohemiancoding.com/sketch -->
    <title>Group 7</title>
    <desc>Created with Sketch.</desc>
    <defs>
        <filter x="-0.8%" y="-4.4%" width="101.6%" height="112.3%" filterUnits="objectBoundingBox" id="filter-1">
            <feOffset dx="0" dy="1" in="SourceAlpha" result="shadowOffsetOuter1"></feOffset>
            <feGaussianBlur stdDeviation="1" in="shadowOffsetOuter1" result="shadowBlurOuter1"></feGaussianBlur>
            <feColorMatrix values="0 0 0 0 0   0 0 0 0 0   0 0 0 0 0  0 0 0 0.5 0" type="matrix" in="shadowBlurOuter1" result="shadowMatrixOuter1"></feColorMatrix>
            <feMerge>
                <feMergeNode in="shadowMatrixOuter1"></feMergeNode>
                <feMergeNode in="SourceGraphic"></feMergeNode>
            </feMerge>
        </filter>
        <polygon id="path-2" points="327.83532 14.0478782 359.5248 14.0478782 359.5248 46.8110962 327.83532 46.8110962"></polygon>
    </defs>
    <g id="Page-1" stroke="none" stroke-width="1" fill="none" fill-rule="evenodd">
        <g id="Artboard" transform="translate(-69.000000, -30.000000)">
            <g id="Group-7" filter="url(#filter-1)" transform="translate(71.000000, 31.000000)">
                <g id="Group-Copy" transform="translate(0.000000, 2.000000)">
                    <polygon id="Fill-1" fill="#FF6464" points="25.670069 9.55476923 20.5346207 0.560758242 30.8055172 0.560758242 35.9409655 9.55476923 35.9403678 9.55537363 35.9397701 9.55476923"></polygon>
                    <polygon id="Fill-2" fill="#FF6464" points="25.6694713 9.55476923 20.5346207 18.5481758 15.3991724 9.55476923 20.5346207 0.560758242 25.670069 9.55476923"></polygon>
                    <polygon id="Fill-3" fill="#FFAA64" points="20.5347402 18.5487198 25.6701885 9.55470879 35.939292 9.55470879 35.9398897 9.55531319 30.8056368 18.5487198"></polygon>
                    <polygon id="Fill-4" fill="#FF6464" points="41.1303264 18.5100385 46.2657747 9.51602747 51.4006253 18.5100385 46.2657747 27.5040495 46.2645793 27.5040495 46.265177 27.5034451"></polygon>
                    <polygon id="Fill-5" fill="#FF6464" points="41.1297287 18.5094341 30.8600276 18.5094341 35.9948782 9.51602747 46.2657747 9.51602747 41.1303264 18.5100385"></polygon>
                    <polygon id="Fill-6" fill="#FFAA64" points="30.859669 18.5100385 41.1305655 18.5100385 46.2648184 27.5034451 46.2642207 27.5040495 35.9951172 27.5040495"></polygon>
                    <polygon id="Fill-7" fill="#FF6464" points="41.1904552 36.5265275 51.4613517 36.5265275 46.3259034 45.5205385 36.0556046 45.5205385 36.0550069 45.5199341 36.0556046 45.5199341"></polygon>
                    <polygon id="Fill-8" fill="#FF6464" points="41.1910529 36.5259231 36.0562023 27.5325165 46.3259034 27.5325165 51.4613517 36.5265275 41.1904552 36.5265275"></polygon>
                    <polygon id="Fill-9" fill="#FFAA64" points="36.0557241 27.5325769 41.1905747 36.5265879 36.0557241 45.5199945 36.0551264 45.5199945 30.9202759 36.5265879"></polygon>
                    <polygon id="Fill-10" fill="#FF6464" points="15.5209241 45.587989 20.655177 54.582 30.9260736 54.582 25.791223 45.587989 15.5215218 45.587989 15.5209241 45.5867802"></polygon>
                    <polygon id="Fill-11" fill="#FF6464" points="25.7916414 45.587989 25.7910437 45.587989 30.9258943 54.582 36.0619402 45.587989 30.926492 36.593978"></polygon>
                    <polygon id="Fill-12" fill="#FFAA64" points="30.9262529 36.5934945 25.7908046 45.5875055 15.5217011 45.5875055 15.5211034 45.5869011 20.6553563 36.5934945"></polygon>
                    <polygon id="Fill-13" fill="#FF6464" points="5.19587586 27.6379835 0.0610252874 36.6325989 5.19587586 45.6266099 10.3301287 36.6325989 5.19587586 27.6391923 5.19647356 27.6379835"></polygon>
                    <polygon id="Fill-14" fill="#FF6464" points="10.3312046 36.633022 20.6009057 36.633022 15.4660552 45.6264286 5.19575632 45.6264286 10.3306069 36.6324176"></polygon>
                    <polygon id="Fill-15" fill="#FFAA64" points="20.6012644 36.632478 10.3303678 36.632478 5.19611494 27.6390714 5.19671264 27.638467 15.4658161 27.638467"></polygon>
                    <polygon id="Fill-16" fill="#FF6464" points="5.13508966 9.62161538 0.00023908046 18.6162308 10.2705379 18.6162308 15.4053885 9.62221978 15.4059862 9.62221978 15.4059862 9.62161538"></polygon>
                    <polygon id="Fill-17" fill="#FF6464" points="0 18.6159286 5.13485057 27.6099396 15.4045517 27.6099396 10.2702989 18.616533 10.2708966 18.6159286"></polygon>
                    <polygon id="Fill-18" fill="#FFAA64" points="15.4058667 27.6098791 10.2704184 18.6158681 15.405269 9.62246154 15.4058667 9.62246154 20.5407172 18.6158681"></polygon>
                    <polygon id="Fill-19" fill="#FFE38D" points="30.9939126 18.5487198 20.5735908 18.5487198 15.3640276 27.674489 20.5735908 36.7996538 30.9939126 36.7996538 36.2046713 27.674489"></polygon>
                </g>
                <g id="Group-45-Copy" transform="translate(74.000000, 0.000000)">
                    <path d="M45.23304,26.5527103 L45.23304,44.7640051 C45.23304,45.4804538 44.65524,46.0607231 43.94244,46.0607231 L42.41484,46.0607231 C41.70144,46.0607231 41.12364,45.4804538 41.12364,44.7640051 L41.12364,26.5527103 C41.12364,20.9880308 37.94844,18.0493256 33.52824,18.0493256 C28.73424,18.0493256 24.87444,20.9880308 24.87444,28.7412231 L24.87444,44.7640051 C24.87444,45.4804538 24.29604,46.0607231 23.58324,46.0607231 L22.05624,46.0607231 C21.34344,46.0607231 20.76504,45.4804538 20.76504,44.7640051 L20.76504,26.5527103 C20.76504,20.9880308 17.90124,18.0493256 13.48104,18.0493256 C8.99784,18.0493256 4.51584,20.9880308 4.51584,28.7412231 L4.51584,44.7640051 C4.51584,45.4804538 3.93804,46.0607231 3.22464,46.0607231 L1.69704,46.0607231 C0.98424,46.0607231 0.40644,45.4804538 0.40644,44.7640051 L0.40644,17.7143 C0.40644,16.1036462 1.70604,14.7984923 3.30984,14.7984923 C3.97584,14.7984923 4.51584,15.3401974 4.51584,16.0090436 L4.51584,17.9812359 C4.51584,18.4024282 5.04264,18.5795821 5.30124,18.2481718 C7.64544,15.2528256 10.69344,14.0476974 14.04144,14.0476974 C18.12264,14.0476974 21.33024,15.8571974 23.15304,19.0658513 C23.32044,19.3611077 23.72124,19.3773769 23.91204,19.0965821 C26.24064,15.660159 29.83284,14.0476974 33.59124,14.0476974 C40.43964,14.0476974 45.23304,18.7374538 45.23304,26.5527103" id="Fill-20" fill="#FFFFFF"></path>
                    <path d="M55.25844,14.7983115 C56.39364,14.7983115 57.31284,15.7220423 57.31284,16.861491 L57.31284,43.9973628 C57.31284,45.1368115 56.39364,46.0605423 55.25844,46.0605423 C54.12324,46.0605423 53.20344,45.1368115 53.20344,43.9973628 L53.20344,16.861491 C53.20344,15.7220423 54.12324,14.7983115 55.25844,14.7983115 M52.27044,5.16933718 C52.27044,3.54361923 53.57724,2.16796538 55.25844,2.16796538 C56.93964,2.16796538 58.24644,3.54361923 58.24644,5.16933718 C58.24644,6.79505513 56.93964,8.17010641 55.25844,8.17010641 C53.57724,8.17010641 52.27044,6.79505513 52.27044,5.16933718" id="Fill-22" fill="#FFFFFF"></path>
                    <path d="M64.16178,30.4290654 C64.16178,21.1754885 71.13498,14.0477577 80.53578,14.0477577 C85.89678,14.0477577 90.55038,16.5068218 93.14718,20.3975782 C93.77898,21.3436038 93.49038,22.6312833 92.50578,23.1982962 C91.63818,23.6984244 90.51618,23.4815013 89.94318,22.6583987 C88.11558,20.0318218 85.00698,18.3048731 81.36858,18.0752962 C74.22798,17.6251808 68.06958,23.6351551 68.27658,30.8171167 C68.47218,37.5712577 73.75458,42.8093474 80.53578,42.8093474 C84.59238,42.8093474 87.96138,40.9715269 90.09618,38.1629756 C90.70158,37.3651808 91.77618,37.1018603 92.64018,37.6062064 L92.77098,37.6827321 C93.76518,38.2636038 94.02978,39.580809 93.35358,40.5147833 C90.54198,44.3965013 85.84578,46.8109756 80.53578,46.8109756 C71.13498,46.8109756 64.16178,39.6832449 64.16178,30.4290654" id="Fill-24" fill="#FFFFFF"></path>
                    <path d="M114.3432,16.4036026 L114.3432,16.4536154 C114.3432,17.437 113.6232,18.2799872 112.6512,18.4053205 C108.318,18.9645 104.5062,21.8092051 104.5062,28.6790385 L104.5062,43.9968205 C104.5062,45.1368718 103.5864,46.0606026 102.4518,46.0606026 C101.3172,46.0606026 100.3974,45.1368718 100.3974,43.9968205 L100.3974,16.0782179 C100.3974,15.3714103 100.968,14.7983718 101.6724,14.7983718 L103.2312,14.7983718 C103.9356,14.7983718 104.5062,15.3714103 104.5062,16.0782179 C104.5062,17.2038077 105.846,17.7762436 106.656,16.9989359 C108.2082,15.5106026 110.0886,14.748359 112.1202,14.4506923 C113.2932,14.2789615 114.3432,15.2123333 114.3432,16.4036026" id="Fill-26" fill="#FFFFFF"></path>
                    <path d="M144.84888,30.6691872 C144.97368,23.6107513 139.56948,18.043059 132.57348,18.0496872 C125.96928,18.0551103 120.44028,23.5577256 120.32268,30.1889436 C120.19728,37.2473795 125.60148,42.8156744 132.59748,42.8090462 C139.20168,42.8036231 144.73128,37.3004051 144.84888,30.6691872 M116.21148,30.4293667 C116.21148,21.1757897 123.49548,14.048059 132.58548,14.048059 C141.67548,14.048059 148.96008,21.1757897 148.96008,30.4293667 C148.96008,39.6829436 141.67548,46.8112769 132.58548,46.8112769 C123.49548,46.8112769 116.21148,39.6829436 116.21148,30.4293667" id="Fill-28" fill="#FFFFFF"></path>
                    <path d="M153.94146,30.4290654 C153.94146,21.1754885 160.91406,14.0477577 170.31546,14.0477577 C175.66506,14.0477577 180.31086,16.4965782 182.91006,20.3728731 C183.55326,21.3315526 183.25746,22.6379115 182.25966,23.2127577 C181.40706,23.70445 180.30066,23.4935526 179.73966,22.6831038 C177.91446,20.0420654 174.79746,18.3054756 171.14826,18.0752962 C164.00706,17.6251808 157.84866,23.6351551 158.05626,30.8171167 C158.25186,37.5712577 163.53366,42.8093474 170.31546,42.8093474 C174.37146,42.8093474 177.74106,40.9715269 179.87586,38.1629756 C180.48126,37.3651808 181.55586,37.1018603 182.41986,37.6062064 L182.55066,37.6827321 C183.54426,38.2636038 183.80946,39.580809 183.13266,40.5147833 C180.32106,44.3965013 175.62486,46.8109756 170.31546,46.8109756 C160.91406,46.8109756 153.94146,39.6832449 153.94146,30.4290654" id="Fill-30" fill="#FFFFFF"></path>
                    <path d="M192.2313,0.417094872 C193.3659,0.417094872 194.2857,1.34082564 194.2857,2.48027436 L194.2857,43.996941 C194.2857,45.1369923 193.3659,46.0607231 192.2313,46.0607231 C191.0961,46.0607231 190.1763,45.1369923 190.1763,43.996941 L190.1763,2.48027436 C190.1763,1.34082564 191.0961,0.417094872 192.2313,0.417094872" id="Fill-32" fill="#FFFFFF"></path>
                    <path d="M205.0569,14.7983115 C206.1921,14.7983115 207.1119,15.7220423 207.1119,16.861491 L207.1119,43.9973628 C207.1119,45.1368115 206.1921,46.0605423 205.0569,46.0605423 C203.9217,46.0605423 203.0025,45.1368115 203.0025,43.9973628 L203.0025,16.861491 C203.0025,15.7220423 203.9217,14.7983115 205.0569,14.7983115 M202.0689,5.16933718 C202.0689,3.54361923 203.3763,2.16796538 205.0569,2.16796538 C206.7381,2.16796538 208.0449,3.54361923 208.0449,5.16933718 C208.0449,6.79505513 206.7381,8.17010641 205.0569,8.17010641 C203.3763,8.17010641 202.0689,6.79505513 202.0689,5.16933718" id="Fill-34" fill="#FFFFFF"></path>
                    <path d="M260.65416,26.5527103 L260.65416,43.996941 C260.65416,45.1369923 259.73436,46.0607231 258.59976,46.0607231 C257.46516,46.0607231 256.54476,45.1369923 256.54476,43.996941 L256.54476,26.5527103 C256.54476,20.9880308 253.37016,18.0493256 248.94936,18.0493256 C244.15536,18.0493256 240.29556,20.9880308 240.29556,28.7412231 L240.29556,43.996941 C240.29556,45.1369923 239.37576,46.0607231 238.24116,46.0607231 C237.10596,46.0607231 236.18676,45.1369923 236.18676,43.996941 L236.18676,26.5527103 C236.18676,20.9880308 233.32236,18.0493256 228.90216,18.0493256 C224.41956,18.0493256 219.93696,20.9880308 219.93696,28.7412231 L219.93696,43.996941 C219.93696,45.1369923 219.01656,46.0607231 217.88256,46.0607231 C216.74736,46.0607231 215.82756,45.1369923 215.82756,43.996941 L215.82756,15.9349282 C215.82756,15.3070564 216.33456,14.7984923 216.95976,14.7984923 L218.56056,14.7984923 C219.32016,14.7984923 219.93696,15.4173256 219.93696,16.1807744 C219.93696,17.1774154 221.12736,17.6914026 221.84316,17.0002615 C224.00376,14.9129795 226.62516,14.0476974 229.46256,14.0476974 C233.19816,14.0476974 236.20176,15.5637487 238.08156,18.2807103 C238.51776,18.9115949 239.40276,18.9519667 239.87976,18.3518128 C242.20296,15.4269667 245.53716,14.0476974 249.01236,14.0476974 C255.86076,14.0476974 260.65416,18.7374538 260.65416,26.5527103" id="Fill-36" fill="#FFFFFF"></path>
                    <path d="M295.3944,30.6682833 C295.5192,23.6098474 290.1144,18.0427577 283.119,18.0493859 C276.5148,18.0560141 270.9858,23.5586295 270.8688,30.1898474 C270.744,37.2482833 276.1482,42.8159756 283.1436,42.8093474 C289.7484,42.8027192 295.278,37.3001038 295.3944,30.6682833 M299.5056,16.8611295 L299.5056,43.9976038 C299.5056,45.1370526 298.5858,46.0601808 297.4512,46.0601808 C296.3166,46.0601808 295.3968,45.1370526 295.3968,43.9976038 L295.3968,39.9327064 C292.782,44.1223346 288.3612,46.8109756 282.8202,46.8109756 C274.0416,46.8109756 266.757,39.6832449 266.757,30.4290654 C266.757,21.1754885 274.0416,14.0477577 282.8202,14.0477577 C288.3612,14.0477577 292.782,16.7363987 295.3968,20.9254244 L295.3968,16.8611295 C295.3968,15.7216808 296.3166,14.7985526 297.4512,14.7985526 C298.5858,14.7985526 299.5056,15.7216808 299.5056,16.8611295" id="Fill-38" fill="#FFFFFF"></path>
                    <path d="M317.62722,18.7996987 C316.59342,18.7996987 315.75582,19.6408782 315.75582,20.6790962 L315.75582,37.7449167 C315.75582,42.5105962 318.05442,42.7088397 322.78242,42.5178269 C323.84082,42.4750449 324.72102,43.3312885 324.72102,44.3960192 C324.72102,45.3655449 323.97942,46.1784038 323.01822,46.2730064 C315.68862,46.9966859 311.64642,44.7250192 311.64642,37.7449167 L311.64642,20.6790962 C311.64642,19.6408782 310.80882,18.7996987 309.77562,18.7996987 L307.10202,18.7996987 C306.00222,18.7996987 305.11002,17.9042885 305.11002,16.7991859 C305.11002,15.6940833 306.00222,14.7980705 307.10202,14.7980705 L309.77562,14.7980705 C310.80882,14.7980705 311.64642,13.956891 311.64642,12.9186731 L311.64642,8.68927564 C311.64642,7.86075 312.18642,7.13044231 312.97542,6.89001923 L313.34202,6.77854487 C314.54382,6.41339103 315.75582,7.31603205 315.75582,8.57719872 L315.75582,12.9186731 C315.75582,13.956891 316.59342,14.7980705 317.62722,14.7980705 L322.84962,14.7980705 C323.88342,14.7980705 324.72102,15.63925 324.72102,16.6774679 L324.72102,16.9203013 C324.72102,17.9585192 323.88342,18.7996987 322.84962,18.7996987 L317.62722,18.7996987 Z" id="Fill-40" fill="#FFFFFF"></path>
                    <mask id="mask-3" fill="white">
                        <use xlink:href="#path-2"></use>
                    </mask>
                    <g id="Clip-43"></g>
                    <path d="M334.36272,28.4907372 L353.03172,28.4907372 C354.26352,28.4907372 355.14792,27.2898269 354.79152,26.1057885 C353.19072,20.7911731 348.78132,18.0489038 344.08452,18.0489038 C338.43552,18.0489038 334.18092,21.2714167 332.60712,26.1009679 C332.22312,27.2801859 333.12732,28.4907372 334.36272,28.4907372 M359.52552,30.5545192 L359.52552,30.5731987 C359.52432,31.633109 358.66812,32.4923654 357.61212,32.4923654 L332.06892,32.4923654 C332.94072,38.8699038 337.85892,42.8094679 344.45892,42.8094679 C348.57432,42.8094679 351.64392,41.1891731 353.52132,38.9018397 C354.15432,38.1299551 355.25952,37.9521987 356.11872,38.4583526 C357.22752,39.1109295 357.48732,40.6245705 356.63832,41.5940962 C353.87052,44.7545449 349.65612,46.8110962 344.39652,46.8110962 C334.55952,46.8110962 327.83532,39.8701603 327.83532,30.4291859 C327.83532,21.2382756 334.43472,14.0478782 344.08452,14.0478782 C353.61072,14.0478782 359.52552,21.9878654 359.52552,30.5545192" id="Fill-42" fill="#FFFFFF" mask="url(#mask-3)"></path>
                </g>
            </g>
        </g>
    </g>
</svg>