<svg xmlns="http://www.w3.org/2000/svg" xmlns:xlink="http://www.w3.org/1999/xlink" viewBox="0 0 1079.53 521.22"><defs><style>.cls-1{fill:url(#linear-gradient);}.cls-14,.cls-2,.cls-3,.cls-35,.cls-6{fill:none;}.cls-2{clip-rule:evenodd;}.cls-4{isolation:isolate;}.cls-5{fill:#110a2d;}.cls-35,.cls-6{stroke:#110a2d;stroke-width:2px;}.cls-14,.cls-35,.cls-6{stroke-miterlimit:10;}.cls-34,.cls-7{fill-rule:evenodd;}.cls-7{fill:url(#linear-gradient-2);}.cls-8{fill:#1b0d44;}.cls-9{fill:#0d1d3a;}.cls-10{fill:#ff6464;}.cls-11{fill:#65cdc9;}.cls-12{fill:#ffe38d;}.cls-13{fill:#ffaa64;}.cls-14{stroke:#ff6464;stroke-width:0.66px;}.cls-15{clip-path:url(#clip-path);}.cls-16{clip-path:url(#clip-path-2);}.cls-17{clip-path:url(#clip-path-3);}.cls-18{fill:#ffa3a3;}.cls-19{clip-path:url(#clip-path-5);}.cls-20{fill:#00132e;}.cls-21{clip-path:url(#clip-path-7);}.cls-22{clip-path:url(#clip-path-9);}.cls-23{clip-path:url(#clip-path-10);}.cls-24{clip-path:url(#clip-path-11);}.cls-25{fill:#2900aa;}.cls-26{fill:#080516;}.cls-27{fill:#f54c43;}.cls-28{fill:#9dd6e7;}.cls-29{fill:#3360b4;}.cls-30{fill:#00c4eb;mix-blend-mode:multiply;}.cls-31{fill:#006ed5;}.cls-32{fill:#1a1a1a;}.cls-33{mask:url(#mask);}.cls-34{fill:#fff;}.cls-35{stroke-linecap:round;}</style><linearGradient id="linear-gradient" x1="935.54" y1="874.66" x2="935.54" y2="1087.92" gradientUnits="userSpaceOnUse"><stop offset="0.26"/><stop offset="1" stop-color="#fff" stop-opacity="0.2"/></linearGradient><linearGradient id="linear-gradient-2" x1="352.27" y1="1018.51" x2="1431.8" y2="1018.51" gradientUnits="userSpaceOnUse"><stop offset="0" stop-color="#52e5e7"/><stop offset="0.69" stop-color="#0130cb"/></linearGradient><clipPath id="clip-path" transform="translate(-352.27 -677.65)"><path class="cls-2" d="M723.4,1191.28s6,1.52,7.53,3-16.57,1.52-16.57,1.52,1.5-39.47,3-45.55-4.52-34.92-6-36.44-1.51,3-1.51,3,0,27.33-3,38-6,25.81-6,27.33v7.59s6,1.52,6,3-15.07,1.51-15.07,1.51,3-56.18,3-57.69,0-15.19-1.5-21.26-1.51-19.74-1.51-19.74v-3h40.69s0,34.92-1.51,45.54-4.52,31.89-4.52,31.89Z"/></clipPath><clipPath id="clip-path-2" transform="translate(-352.27 -677.65)"><rect class="cls-3" width="874.56" height="3006.89"/></clipPath><clipPath id="clip-path-3" transform="translate(-352.27 -677.65)"><path class="cls-2" d="M783.83,1031.23c0-.76,1.32-1.75,1.52,0,.17,1.5-1.52,1.51,0,3s1.52,6,0,6-15.22,9.07-15.22,9.07-15.23,10.58-18.27,9.07-18.27-12.09-21.32-12.09-24.36-9.07-24.36-13.6v-13.21a3,3,0,0,1,.1-.73c.32-1.1,1.18-4.69-.1-7.22-1.52-3-2.28-12.85,3.81-14.36s10.66,0,12.18,3,1.52,7.55,1.52,10.57a38.94,38.94,0,0,1-1,6.95,2.71,2.71,0,0,1-2.65,2.12h-.24a2.67,2.67,0,0,0-2.65,3.31,6.14,6.14,0,0,0,.48,1.22c1.52,3,27.41,18.14,30.45,19.65a22.69,22.69,0,0,1,3.52,2.15,2.75,2.75,0,0,0,2.46.44l22.3-6.92a2.59,2.59,0,0,0,1.12-.68c1.66-1.67,6.38-7.08,6.38-7.83"/></clipPath><clipPath id="clip-path-5" transform="translate(-352.27 -677.65)"><path class="cls-2" d="M748.83,1042.64a4.4,4.4,0,0,1-.47,1.56c-.44,1.34-.89,2.69-1.34,4-.27.82-3.09,7.72-2.69,8.08a27.6,27.6,0,0,0-7.87-5,2.65,2.65,0,0,0-2.17-.21c-.85.43-1,1.55-1.08,2.5q-1.19,18.93-.94,37.91a5.7,5.7,0,0,1-.37,2.6,5.27,5.27,0,0,1-1.37,1.57,31.68,31.68,0,0,1-19,7.75,26.7,26.7,0,0,1-19.2-6.84,4.28,4.28,0,0,1-1.67-3.55c-.8-10.68,2.94-21.25,2.64-32-.26-9.49-3.7-19-2-28.29a7.76,7.76,0,0,1,1.65-3.95,8,8,0,0,1,2.79-1.72,37.76,37.76,0,0,1,10.7-2.77c-.54.06.69,2.08.88,2.23a6.73,6.73,0,0,0,2.89.92c2.49.4,5.93.13,7.65-2a5.09,5.09,0,0,1,1.22-1.35,3.07,3.07,0,0,1,1.53-.27c5.81.08,11.28,2.88,15.83,6.51,4,3.22,7.49,7.09,11.11,10.76.31.32,1.18.9,1.3,1.32a.29.29,0,0,1,0,.09"/></clipPath><clipPath id="clip-path-7" transform="translate(-352.27 -677.65)"><rect class="cls-3" x="699.27" y="989.96" width="24.18" height="30.67"/></clipPath><clipPath id="clip-path-9" transform="translate(-352.27 -677.65)"><rect class="cls-3" x="697.82" y="987.52" width="27.33" height="36.44"/></clipPath><clipPath id="clip-path-10" transform="translate(-352.27 -677.65)"><path class="cls-2" d="M721.53,1013.34a3.28,3.28,0,0,1-3.34-3.37c0-3.36,1.67-5.05,3.34-3.36s1.66,0,1.66,0-3.33-5.05-1.66-6.73,3.33-3.37,0-6.74-8.33-5-15,0-8.34,8.42-6.67,13.47,6.67,11.78,6.67,11.78,5,5,10,0Z"/></clipPath><clipPath id="clip-path-11" transform="translate(-352.27 -677.65)"><rect class="cls-3" x="699.04" y="989.95" width="24.9" height="30.97"/></clipPath><mask id="mask" x="428.52" y="196.83" width="309.5" height="214.03" maskUnits="userSpaceOnUse"><g transform="translate(-352.27 -677.65)"><rect class="cls-1" x="780.79" y="874.66" width="309.5" height="213.26"/></g></mask></defs><title>mid page</title><g class="cls-4"><g id="Layer_2" data-name="Layer 2"><g id="Layer_1-2" data-name="Layer 1"><rect class="cls-5" x="515.15" y="114.26" width="11.83" height="157.09"/><rect class="cls-5" x="607.8" y="114.26" width="11.83" height="157.09"/><polygon class="cls-5" points="515.15 114.26 515.15 126.09 617.75 126.09 617.75 114.26 526.98 114.26 515.15 114.26"/><rect class="cls-5" x="563.59" width="11.83" height="157.09" rx="5.92" ry="5.92"/><rect class="cls-5" x="713.18" width="11.83" height="83.02"/><rect class="cls-5" x="992.35" y="605.03" width="11.83" height="157.09" transform="translate(-37.58 1004.18) rotate(-90)"/><rect class="cls-5" x="698.4" y="67.88" width="41.4" height="16.39"/><line class="cls-6" x1="565.02" y1="66.4" x2="526.7" y2="117.23"/><line class="cls-6" x1="565.02" y1="81.73" x2="537.99" y2="117.23"/><line class="cls-6" x1="565.28" y1="96.65" x2="550.62" y2="117.23"/><line class="cls-6" x1="569.77" y1="65.01" x2="608.09" y2="115.84"/><line class="cls-6" x1="569.77" y1="80.34" x2="596.79" y2="115.84"/><line class="cls-6" x1="569.51" y1="95.26" x2="584.17" y2="115.84"/><rect class="cls-5" x="843.79" y="762.19" width="36.78" height="337.02" transform="translate(-420.79 1115.22) rotate(-90)"/><rect class="cls-5" x="394.82" y="114.34" width="11.83" height="157.09"/><rect class="cls-5" x="487.46" y="114.34" width="11.83" height="157.09"/><polygon class="cls-5" points="394.82 114.34 394.82 126.17 497.42 126.17 497.42 114.34 406.65 114.34 394.82 114.34"/><path class="cls-7" d="M1277.81,917.09q-270.88,28-512.53,14c-241.65-14-445.74,48.84-408.63,85s558.45,129,739.8,97.43,335.35-29,335.35-52.92Q1431.8,1036.66,1277.81,917.09Z" transform="translate(-352.27 -677.65)"/><polygon class="cls-8" points="315.53 451.91 288.19 378.57 876.86 378.57 844.86 451.91 315.53 451.91"/><polygon class="cls-9" points="318.19 335.24 838.86 335.24 876.86 378.57 288.19 378.57 318.19 335.24"/><polygon class="cls-9" points="390.91 377.06 322.74 377.06 351.88 338.57 409.87 338.42 390.91 377.06"/><polygon class="cls-10" points="395.33 356.13 345.78 356.19 348.84 351.98 397.5 351.9 395.33 356.13"/><polygon class="cls-11" points="387.01 372.27 334.1 372.28 337.15 368.07 389.18 368.05 387.01 372.27"/><polygon class="cls-12" points="383.79 343.27 355.12 343.34 352.06 347.55 381.27 347.49 383.79 343.27"/><polygon class="cls-11" points="392.93 343.25 390.58 347.47 399.8 347.45 401.98 343.23 392.93 343.25"/><polygon class="cls-13" points="353.23 360.02 343 360.03 339.94 364.24 350.35 364.23 353.23 360.02"/><polygon class="cls-12" points="362.13 360.01 359.41 364.22 391.17 364.2 393.34 359.97 362.13 360.01"/><polygon class="cls-9" points="466.17 377.06 398 377.06 415.9 338.4 473.9 338.25 466.17 377.06"/><polygon class="cls-9" points="719.1 377.67 650.93 377.67 656.3 338.82 714.3 338.66 719.1 377.67"/><polygon class="cls-9" points="850.65 377.06 720.85 377.06 714.22 338.03 824.64 337.73 850.65 377.06"/><path class="cls-13" d="M780.69,1023.19c-.46,1.17-2.31,2.12-4.14,2.12s-2.9-.94-2.41-2.1,2.35-2.12,4.14-2.12S781.15,1022,780.69,1023.19Z" transform="translate(-352.27 -677.65)"/><path class="cls-13" d="M792.27,1023.17c-.4,1.17-2.2,2.12-4,2.12s-3-.94-2.52-2.11,2.24-2.12,4-2.12S792.67,1022,792.27,1023.17Z" transform="translate(-352.27 -677.65)"/><path class="cls-11" d="M803.86,1023.14c-.34,1.17-2.09,2.12-3.92,2.13s-3-.94-2.62-2.11,2.13-2.12,3.92-2.13S804.2,1022,803.86,1023.14Z" transform="translate(-352.27 -677.65)"/><path class="cls-10" d="M815.45,1023.12c-.28,1.17-2,2.12-3.81,2.13s-3-1-2.74-2.12,2-2.12,3.82-2.12S815.73,1022,815.45,1023.12Z" transform="translate(-352.27 -677.65)"/><path class="cls-13" d="M777.5,1031.31c-.46,1.17-2.37,2.12-4.25,2.12s-3-.94-2.53-2.11,2.39-2.12,4.25-2.12S778,1030.14,777.5,1031.31Z" transform="translate(-352.27 -677.65)"/><path class="cls-12" d="M789.5,1031.29c-.4,1.17-2.26,2.12-4.15,2.12s-3.06-.94-2.63-2.11,2.29-2.12,4.14-2.12S789.9,1030.12,789.5,1031.29Z" transform="translate(-352.27 -677.65)"/><path class="cls-13" d="M801.5,1031.27c-.34,1.17-2.15,2.12-4,2.12s-3.11-.94-2.74-2.11,2.18-2.12,4-2.12S801.84,1030.1,801.5,1031.27Z" transform="translate(-352.27 -677.65)"/><path class="cls-13" d="M813.5,1031.25c-.28,1.17-2,2.13-3.93,2.13s-3.16-1-2.85-2.12,2.07-2.12,3.93-2.12S813.78,1030.08,813.5,1031.25Z" transform="translate(-352.27 -677.65)"/><path class="cls-13" d="M774.31,1039.42c-.46,1.17-2.42,2.12-4.37,2.12s-3.14-.94-2.64-2.11,2.44-2.12,4.36-2.12S774.77,1038.26,774.31,1039.42Z" transform="translate(-352.27 -677.65)"/><path class="cls-11" d="M786.72,1039.41c-.4,1.17-2.31,2.12-4.26,2.12s-3.18-.94-2.75-2.11,2.34-2.12,4.26-2.12S787.12,1038.24,786.72,1039.41Z" transform="translate(-352.27 -677.65)"/><path class="cls-13" d="M799.13,1039.4c-.34,1.17-2.2,2.12-4.15,2.12s-3.23-.94-2.86-2.11,2.23-2.12,4.15-2.12S799.47,1038.23,799.13,1039.4Z" transform="translate(-352.27 -677.65)"/><path class="cls-13" d="M811.55,1039.39c-.28,1.17-2.1,2.12-4,2.12s-3.28-1-3-2.12,2.12-2.12,4-2.12S811.83,1038.22,811.55,1039.39Z" transform="translate(-352.27 -677.65)"/><path class="cls-13" d="M771.12,1047.54c-.46,1.17-2.47,2.11-4.49,2.11s-3.25-.94-2.76-2.11,2.5-2.11,4.49-2.11S771.58,1046.37,771.12,1047.54Z" transform="translate(-352.27 -677.65)"/><path class="cls-13" d="M783.94,1047.53c-.4,1.17-2.36,2.12-4.37,2.12s-3.31-1-2.87-2.11,2.39-2.12,4.37-2.12S784.34,1046.36,783.94,1047.53Z" transform="translate(-352.27 -677.65)"/><path class="cls-13" d="M796.77,1047.53c-.34,1.17-2.25,2.12-4.27,2.12s-3.35-1-3-2.12,2.29-2.12,4.27-2.12S797.11,1046.36,796.77,1047.53Z" transform="translate(-352.27 -677.65)"/><path class="cls-13" d="M809.6,1047.52c-.29,1.17-2.15,2.12-4.17,2.12s-3.39-.94-3.08-2.11,2.18-2.12,4.16-2.13S809.88,1046.35,809.6,1047.52Z" transform="translate(-352.27 -677.65)"/><path class="cls-11" d="M1038.24,1035.49l-5.49,13.64c-10.7-1.46-17.81-7.13-17.17-13.61.75-7.67,11-14,22.72-14s21.91,6.29,22.6,14Z" transform="translate(-352.27 -677.65)"/><path class="cls-14" d="M1087.25,1047c.92-4,2.11-8.69,6.16-11.68,4.23-3.21,10.44-.18,14.12,2.92,2.74,2.27,3.78,4.67,5.87,7.08a5.53,5.53,0,0,0,1.92,1.49,6.38,6.38,0,0,0,8.27-2.31c1-1.87,1-4,1-6,0-2.73-3-11.81,3.41-11.45,4.11.24,9.45,6.66,11,8.43,2.2,2.5,7.64,11,12.49,11,2.54,0,3.37-1.09,3.21-2.46-.66-5.25-4.64-10.67-4.8-15.91-.14-2.94,3-5.54,8.63-3,11.9,5.29,23.48,21.94,23.48,21.94" transform="translate(-352.27 -677.65)"/><g class="cls-15"><g class="cls-16"><rect class="cls-10" x="336.44" y="411.9" width="46.76" height="109.32"/></g></g><g class="cls-17"><g class="cls-16"><rect class="cls-18" x="349.8" y="315.94" width="87.46" height="68.02"/></g></g><g class="cls-19"><g class="cls-16"><rect class="cls-20" x="335.23" y="343.27" width="64.38" height="85.63"/></g></g><g class="cls-21"><g class="cls-16"><g class="cls-4"><g class="cls-22"><g class="cls-23"><g class="cls-24"><rect class="cls-25" x="343.96" y="309.27" width="30.25" height="36.75"/></g></g></g></g></g></g><path class="cls-8" d="M923.33,852h442.11V981l-336.16-4.13S1022.76,944.69,923.33,852Z" transform="translate(-352.27 -677.65)"/><path class="cls-26" d="M923.33,852.11h442.11v4.42l-438.23-.79Z" transform="translate(-352.27 -677.65)"/><polygon class="cls-27" points="1013.17 289.51 672.8 289.51 671.09 286.46 1013.17 286.46 1013.17 289.51"/><rect class="cls-28" x="904.79" y="141.61" width="108.38" height="32.73"/><rect class="cls-29" x="796.41" y="141.61" width="108.38" height="32.73"/><rect class="cls-28" x="688.03" y="141.61" width="108.38" height="32.73"/><rect class="cls-30" x="796.41" y="43.35" width="108.38" height="32.73"/><rect class="cls-31" x="688.03" y="108.97" width="108.38" height="32.73"/><rect class="cls-28" x="796.41" y="108.89" width="108.38" height="32.73"/><rect class="cls-30" x="904.79" y="108.89" width="108.38" height="32.73"/><rect class="cls-29" x="796.41" y="76.16" width="108.38" height="32.73"/><rect class="cls-31" x="904.79" y="78.54" width="108.38" height="32.73"/><polygon class="cls-9" points="662.53 378.11 582.53 335.24 502.53 378.11 582.53 420.98 662.53 378.11"/><polygon class="cls-32" points="522.53 378.11 582.53 345.96 642.53 378.11 582.53 410.27 522.53 378.11"/><polygon class="cls-9" points="662.53 378.11 662.53 453.14 582.53 496.01 582.53 420.98 662.53 378.11"/><polygon class="cls-8" points="502.53 378.11 502.53 453.14 582.53 496.01 582.53 420.98 502.53 378.11"/><g class="cls-33"><polygon class="cls-34" points="523.04 378.7 583.04 410.86 643.04 378.7 710.75 196.83 453.7 196.83 523.04 378.7"/></g><polygon class="cls-10" points="581.8 333.27 577 324.95 586.61 324.95 591.42 333.27 591.42 333.27 591.41 333.27 581.8 333.27"/><polygon class="cls-10" points="581.8 333.27 577 341.6 572.19 333.27 577 324.95 581.8 333.27 581.8 333.27"/><polygon class="cls-13" points="577 341.6 581.8 333.27 591.41 333.27 591.42 333.27 586.61 341.6 577 341.6"/><polygon class="cls-10" points="596.27 341.56 601.08 333.24 605.88 341.56 601.08 349.89 601.08 349.89 601.08 349.89 596.27 341.56"/><polygon class="cls-10" points="596.27 341.56 586.66 341.56 591.47 333.24 601.08 333.24 596.27 341.56 596.27 341.56"/><polygon class="cls-13" points="586.66 341.56 596.27 341.56 601.08 349.89 601.08 349.89 591.47 349.89 586.66 341.56"/><polygon class="cls-10" points="596.33 358.24 605.94 358.24 601.14 366.56 591.52 366.56 591.52 366.56 591.52 366.56 596.33 358.24"/><polygon class="cls-10" points="596.33 358.24 591.52 349.91 601.14 349.91 605.94 358.24 596.33 358.24 596.33 358.24"/><polygon class="cls-13" points="591.52 349.91 596.33 358.24 591.52 366.56 591.52 366.56 586.72 358.24 591.52 349.91"/><polygon class="cls-10" points="581.92 366.62 586.72 374.95 577.11 374.95 572.3 366.62 572.3 366.62 572.31 366.62 581.92 366.62"/><polygon class="cls-10" points="581.92 366.62 586.72 358.3 591.53 366.62 586.72 374.95 581.92 366.62 581.92 366.62"/><polygon class="cls-13" points="586.72 358.3 581.92 366.62 572.31 366.62 572.3 366.62 577.11 358.3 586.72 358.3"/><polygon class="cls-10" points="567.45 358.33 562.64 366.66 557.84 358.33 562.64 350.01 562.64 350.01 562.64 350.01 567.45 358.33"/><polygon class="cls-10" points="567.45 358.34 577.06 358.34 572.25 366.66 562.64 366.66 567.45 358.33 567.45 358.34"/><polygon class="cls-13" points="577.06 358.33 567.45 358.33 562.64 350.01 562.64 350.01 572.25 350.01 577.06 358.33"/><polygon class="cls-10" points="567.39 341.66 557.78 341.66 562.59 333.34 572.2 333.34 572.2 333.34 572.2 333.34 567.39 341.66"/><polygon class="cls-10" points="567.39 341.66 572.2 349.98 562.59 349.98 557.78 341.66 567.39 341.66 567.39 341.66"/><polygon class="cls-13" points="572.2 349.98 567.39 341.66 572.2 333.34 572.2 333.34 577 341.66 572.2 349.98"/><polygon class="cls-12" points="586.79 341.6 577.03 341.6 572.16 350.04 577.03 358.49 586.79 358.49 591.66 350.04 586.79 341.6"/><rect class="cls-5" x="441.46" y="11.97" width="11.83" height="157.09"/><rect class="cls-5" x="427.06" y="156.58" width="41.4" height="16.39"/><line class="cls-6" x1="444.68" y1="66.48" x2="406.36" y2="117.31"/><line class="cls-6" x1="444.68" y1="81.81" x2="417.66" y2="117.31"/><line class="cls-6" x1="444.94" y1="96.73" x2="430.28" y2="117.31"/><line class="cls-6" x1="449.43" y1="65.09" x2="487.75" y2="115.93"/><line class="cls-6" x1="449.43" y1="80.43" x2="476.45" y2="115.93"/><line class="cls-6" x1="449.17" y1="95.34" x2="463.83" y2="115.93"/><polyline class="cls-35" points="445 171.05 432.9 180.01 438.95 194.51"/><polyline class="cls-35" points="450.34 171.05 462.44 180.01 456.39 194.51"/><polyline class="cls-35" points="716.43 83.61 704.33 92.57 710.38 107.07"/><polyline class="cls-35" points="721.77 83.61 733.87 92.57 727.82 107.07"/></g></g></g></svg>